<svg enable-background="new 0 0 48 48" viewBox="0 0 48 48" xmlns="http://www.w3.org/2000/svg"><path d="m0 0h48v48h-48z" fill="none"/><path d="m24 9.4c-8.4 0-15.2 6.8-15.2 15.2h4.3c0-6 4.9-10.9 10.9-10.9s10.9 4.9 10.9 10.9h4.3c0-8.4-6.8-15.2-15.2-15.2zm2.2 20.2c1.9-.8 3.2-2.8 3.2-5 0-3-2.4-5.4-5.4-5.4s-5.4 2.4-5.4 5.4c0 2.3 1.3 4.2 3.2 5v7.2l-7.4 7.4 3.1 3.1 6.5-6.6 6.6 6.6 3.1-3.1-7.4-7.4c-.1 0-.1-7.2-.1-7.2zm-2.2-29c-13.2 0-24 10.8-24 24h4.3c0-10.8 8.8-19.7 19.7-19.7s19.7 8.8 19.7 19.7h4.3c0-13.2-10.8-24-24-24z"/></svg>