<svg enable-background="new 0 0 48 48" viewBox="0 0 48 48" xmlns="http://www.w3.org/2000/svg"><path d="m24 2.3c5.8 0 11.2 2.3 15.2 6.4 4.1 4.1 6.4 9.5 6.4 15.2s-2.3 11.3-6.4 15.5c-4.1 4.1-9.5 6.4-15.2 6.4-3.8 0-7.7-1.1-11-3l-1.4-.8-1.3 1c-1.3 1.1-2.8 1.7-4.3 2 1-1.1 1.7-2.3 2.5-3.8l.7-1.6-1.2-1.2-.3-.4c-7.5-8.6-7.1-21.6 1-29.5 4.1-3.9 9.5-6.2 15.3-6.2m0-2.4c-6.1 0-12.3 2.4-16.9 7.1-9.1 9-9.4 23.4-1.1 32.8l.2.2c-1 1.9-2.5 4.3-4.9 5.6-.8.4-.6 1.6.2 1.8.6.1 1.2.1 1.8.1 2.5 0 5.5-.7 8.4-2.9 3.7 2.2 8 3.4 12.2 3.4 6.1 0 12.2-2.3 16.9-7.1 9.5-9.6 9.5-24.7 0-34.1-4.6-4.5-10.7-6.9-16.8-6.9z"/><path d="m15.1 12.2s.1 0 .4.2l1.8 1.8 1.7 1.8c.1.1.1.2.2.2 0 0 0 0-.1.1-.2.2-.6.6-.8.8-.5.5-.8.8-1.2 1.2l-.2.1-.1.1c-.7.7-.7 1.6-.7 2v.4l.1.4c.5 1.3 1.2 2.3 1.9 3.2.1.2.2.4.4.6 1.7 2.3 3.8 4.2 6.2 5.8.4.2.7.4 1 .5.2.1.4.2.5.2l.1.1h.1c.2.1.7.4 1.2.4.4 0 1.3-.1 1.9-1.1.7-.7 1.4-1.4 2.2-2.3l.1-.1s.1 0 .4.2c.4.4.8.8 1.2 1.2.8.7 1.6 1.6 2.3 2.3.2.4.2.5 0 .8l-1.9 2c-.4.4-.8.6-1.3.6-.1 0-.2 0-.4 0-1.7-.1-3.1-.6-5-1.4-3.6-1.7-6.7-4.2-9.5-7.4-2.2-2.6-3.7-5.2-4.6-7.7-.4-1.2-.8-2.5-.7-3.7v-.1-.1c0-.4.2-.8.5-1.1.7-.7 1.6-1.6 2.3-2l.1-.1c-.2.1-.1.1-.1.1m0-2.1c-.6 0-1.1.2-1.6.7-.8.6-1.6 1.4-2.4 2.3-.6.6-1.1 1.6-1.1 2.5-.1 1.6.4 3.2.8 4.6 1.1 3 2.9 5.8 4.9 8.3 2.9 3.4 6.2 6 10.2 7.9 1.9.8 3.7 1.4 5.8 1.6h.6c1.1 0 2-.4 2.9-1.3.6-.6 1.4-1.4 2-2 1-1.1 1-2.4 0-3.5-1.1-1.3-2.4-2.4-3.7-3.7-.6-.5-1.2-.7-1.7-.7-.6 0-1.1.2-1.6.7-.6.8-1.4 1.6-2.3 2.4-.1.2-.2.2-.4.2-.1 0-.2 0-.4-.1-.5-.4-1-.5-1.4-.8-2.3-1.4-4.2-3.2-5.8-5.3-.8-1.1-1.6-2-2-3.4 0-.4 0-.5.1-.6.8-.6 1.4-1.4 2.3-2.3 1.1-1 1.1-2.3 0-3.4-.5-.5-1.1-1.1-1.8-1.8-.6-.6-1.3-1.3-1.9-1.9-.4-.1-.9-.4-1.5-.4z"/><path d="m23.9 17.6.2-2.2c2 .2 4 1.2 5.4 2.8 1.4 1.4 2.3 3.1 2.6 5.2l-2.2.4c-.2-1.6-1-2.9-2-4-.8-1.3-2.4-2-4-2.2z"/><path d="m35.8 23.3c-.5-2.7-1.8-5.2-3.8-7.3-2.2-2.2-4.8-3.5-7.8-3.8l.2-2.2c3.5.5 6.5 2 9 4.4 2.3 2.3 3.8 5.3 4.4 8.5z"/></svg>