<svg enable-background="new 0 0 48 48" viewBox="0 0 48 48" xmlns="http://www.w3.org/2000/svg"><path d="m40.8 7.1c-9.3-9.4-24.4-9.4-33.7 0-9.1 9-9.3 23.3-1.1 32.7l.2.2c-1 1.9-2.5 4.3-4.9 5.6-.8.4-.6 1.6.2 1.8 2.7.4 6.6 0 10.2-2.7 9.2 5.4 21.1 4.2 29-3.7 9.6-9.6 9.6-24.6.1-33.9zm-8.9 27.1c-.5.5-1.1 1.1-1.6 1.6-.7.8-1.7 1.1-2.6 1-1.6-.1-2.9-.6-4.3-1.2-3-1.4-5.5-3.5-7.6-6-1.6-1.9-2.9-3.9-3.7-6.2-.4-1.1-.7-2.3-.6-3.5 0-.7.4-1.4.8-1.9.6-.6 1.2-1.2 1.8-1.7.7-.7 1.7-.7 2.5 0l1.4 1.4 1.3 1.3c.8.8.8 1.8 0 2.5-.6.6-1.1 1.2-1.7 1.7-.1.1-.1.2-.1.5.4 1 1 1.7 1.6 2.5 1.2 1.6 2.6 2.9 4.3 3.9.4.2.7.4 1.1.6.2.1.4.1.5-.1.6-.6 1.2-1.2 1.7-1.8.7-.7 1.7-.7 2.5 0 1 1 1.9 1.8 2.7 2.7.7.9.7 1.9 0 2.7zm-8.9-15.5.2-2.2c2 .2 3.9 1.2 5.4 2.7 1.4 1.4 2.3 3.1 2.6 5.1l-2.2.4c-.2-1.6-1-2.9-2-3.9-.9-1.2-2.4-1.9-4-2.1zm11.9 5.7c-.5-2.7-1.8-5.3-3.8-7.3-2.2-2.2-4.8-3.5-7.8-3.8l.2-2.2c3.5.5 6.5 2 9 4.4 2.3 2.3 3.8 5.3 4.4 8.5z"/></svg>