<svg enable-background="new 0 0 48 48" viewBox="0 0 48 48" xmlns="http://www.w3.org/2000/svg"><path d="m24 3.1c11.7 0 20.9 8.9 21.1 20.1 0 3.8-1.2 7.5-3.4 10.8l-.5.7v.1c-.5.8-.7 1.8-.7 2.9v.3l.1.4 1.2 4.7-4.4-1.7h-.1-.1c-.6-.2-1.4-.4-2.2-.4-.7 0-1.4.1-2.3.4l-.7.2-.1.1c-2.4 1-5 1.4-7.9 1.4-11.5.1-21-8.9-21-20.1s9.5-19.9 21-19.9m12.2 26.3c3 0 5.4-2.4 5.4-5.4s-2.4-5.4-5.4-5.4-5.4 2.4-5.4 5.4 2.4 5.4 5.4 5.4m-12.2 0c3 0 5.4-2.4 5.4-5.4s-2.4-5.4-5.4-5.4-5.4 2.4-5.4 5.4 2.4 5.4 5.4 5.4m-12.2 0c3 0 5.4-2.4 5.4-5.4s-2.4-5.4-5.4-5.4-5.4 2.4-5.4 5.4 2.4 5.4 5.4 5.4m12.2-29.3c-13.3 0-23.9 10.3-23.9 23.1s10.7 23.1 23.9 23.1c3.4 0 6.5-.6 9.3-1.8.1 0 .1 0 .2-.1.4-.1.8-.2 1.3-.2s1 .1 1.4.2l9.7 3.6-2.5-10.2c0-.6.1-1.2.5-1.7.1-.1.2-.4.2-.5 2.4-3.6 3.8-7.9 3.8-12.4 0-12.8-10.6-23.1-23.9-23.1zm12.2 26.3c-1.3 0-2.4-1.1-2.4-2.4s1.1-2.4 2.4-2.4 2.4 1.1 2.4 2.4-1.1 2.4-2.4 2.4zm-12.2 0c-1.3 0-2.4-1.1-2.4-2.4s1.1-2.4 2.4-2.4 2.4 1.1 2.4 2.4-1.1 2.4-2.4 2.4zm-12.2 0c-1.3 0-2.4-1.1-2.4-2.4s1.1-2.4 2.4-2.4 2.4 1.1 2.4 2.4-1.1 2.4-2.4 2.4z"/></svg>