<svg enable-background="new 0 0 48 48" viewBox="0 0 48 48" xmlns="http://www.w3.org/2000/svg"><path d="m24 3.7c11.4 0 20.3 8.6 20.5 19.5 0 3.7-1.1 7.3-3.2 10.4l-.6 1v.1c-.5 1-.7 1.9-.7 3.1v.5l.1.5.8 3.6-3.4-1.2-.2-.2h-.3c-.6-.1-1.4-.4-2.3-.4-.7 0-1.4.1-2.3.4h-.1-.1l-.8.2-.1.1c-2.3.8-4.8 1.3-7.5 1.3-11.3 0-20.3-8.7-20.3-19.5s9.2-19.4 20.5-19.4m0-3.6c-13.3 0-23.9 10.3-23.9 23.1s10.7 23.1 23.9 23.1c3.4 0 6.5-.6 9.3-1.8.1 0 .1 0 .2-.1.4-.1.8-.2 1.3-.2s1 .1 1.4.2l9.7 3.6-2.5-10.2c0-.6.1-1.2.5-1.7.1-.1.2-.4.2-.5 2.4-3.6 3.8-7.9 3.8-12.4 0-12.8-10.6-23.1-23.9-23.1z"/></svg>