<svg enable-background="new 0 0 48 48" viewBox="0 0 48 48" xmlns="http://www.w3.org/2000/svg"><path d="m2.9 39.6c.2.4.4.7.4 1.2l-1.5 7.2 6.5-2.5c.4-.1.6-.2 1-.2s.6 0 1 .1h.1c2 .8 4.3 1.3 6.7 1.3 5.4 0 10.1-2.4 13.2-6.1-1.7.4-3.4.6-5 .6-11 0-20-8.6-20-19.3 0-1.3.1-2.6.5-4-3.6 3.2-5.8 7.5-5.8 12.5 0 3.2 1 6.4 2.8 9 0 0 .1.1.1.2z"/><path d="m28 0c-9.6 0-17.8 6.6-19.6 15.4-.2 1.3-.5 2.6-.5 4 0 10.7 9 19.3 20 19.3 1.8 0 3.5-.2 5-.6 1-.2 1.8-.5 2.8-.8 0 0 .1 0 .1-.1.4-.1.7-.2 1.1-.2s.8.1 1.2.2l7.9 3-1.9-8.5c0-.5.1-1 .4-1.4.1-.1.1-.2.2-.4 2-3 3.1-6.6 3.1-10.4.2-10.9-8.8-19.5-19.8-19.5z"/></svg>