<svg enable-background="new 0 0 48 48" viewBox="0 0 48 48" xmlns="http://www.w3.org/2000/svg"><path d="m24 46.3c3.4 0 6.5-.6 9.3-1.8.1 0 .1 0 .2-.1.4-.1.8-.2 1.3-.2s1 .1 1.4.2l9.7 3.6-2.5-10.2c0-.6.1-1.2.5-1.7.1-.1.2-.4.2-.5 2.4-3.6 3.8-7.9 3.8-12.4 0-12.8-10.6-23.1-23.9-23.1s-23.9 10.3-23.9 23.1 10.7 23.1 23.9 23.1zm11-26c2 0 3.7 1.7 3.7 3.7s-1.7 3.7-3.7 3.7-3.7-1.7-3.7-3.7 1.7-3.7 3.7-3.7zm-11 0c2 0 3.7 1.7 3.7 3.7s-1.7 3.7-3.7 3.7-3.7-1.7-3.7-3.7 1.7-3.7 3.7-3.7zm-11 0c2 0 3.7 1.7 3.7 3.7s-1.7 3.7-3.7 3.7-3.7-1.7-3.7-3.7 1.6-3.7 3.7-3.7z"/></svg>