<svg enable-background="new 0 0 48 48" viewBox="0 0 48 48" xmlns="http://www.w3.org/2000/svg"><path d="m34.7 18.7c0-7.4-7.8-13.3-17.3-13.3s-17.4 5.9-17.4 13.3c0 2.9 1.2 5.5 3.2 7.7-1.1 2.5-3 4.5-3 4.5-.3.3-.2.7 0 .9.1.1.3.2.5.2 3 0 5.6-1 7.4-2.1 2.7 1.3 5.9 2.1 9.3 2.1 9.5 0 17.3-6 17.3-13.3zm-18.7 8v-1.4c-.9 0-1.9-.4-2.6-.9-.3-.2-.3-.7 0-1l1-.9c.2-.2.6-.2.8-.1.3.2.7.3 1.1.3h2.3c.5 0 1-.5 1-1.1 0-.5-.3-.9-.7-1.1l-3.8-1.1c-1.5-.5-2.6-2-2.6-3.6 0-2 1.6-3.7 3.6-3.8v-1.3c0-.4.3-.7.7-.7h1.2c.4 0 .7.3.7.7v1.3c.9 0 1.9.4 2.6.9.3.2.3.7 0 1l-1 .9c-.2.2-.6.2-.8.1-.3-.2-.7-.3-1.1-.3h-2.3c-.5 0-1 .5-1 1.1 0 .5.3.9.7 1.1l3.7 1.1c1.5.5 2.6 2 2.6 3.6 0 2-1.6 3.7-3.6 3.8v1.3c0 .4-.3.7-.7.7h-1.3c-.2 0-.5-.3-.5-.6zm28.8 10.3c2-2.2 3.2-4.8 3.2-7.7 0-5.5-4.5-10.3-10.8-12.3.1.6.1 1.1.1 1.7 0 8.8-9 16-20 16-.9 0-1.8-.1-2.6-.2 2.6 4.8 8.8 8.2 16 8.2 3.4 0 6.6-.8 9.3-2.1 1.8 1.1 4.3 2.1 7.4 2.1.3 0 .5-.2.6-.4s.1-.5-.1-.7c-.1-.1-2-2.1-3.1-4.6z"/></svg>