<svg enable-background="new 0 0 48 48" viewBox="0 0 48 48" xmlns="http://www.w3.org/2000/svg"><path d="m24 3c-13.3 0-24 8.7-24 19.5 0 4.7 2 8.9 5.3 12.3-1.2 4.7-5.1 8.9-5.1 9-.2.2-.3.5-.1.8s.4.4.7.4c6.2 0 10.9-3 13.2-4.8 3 1.1 6.4 1.8 10 1.8 13.3 0 24-8.7 24-19.5s-10.7-19.5-24-19.5zm8 24.3c.6.6.6 1.5 0 2.1l-1.1 1.1c-.6.6-1.5.6-2.1 0l-4.8-4.8-4.8 4.8c-.6.6-1.5.6-2.1 0l-1.1-1.1c-.6-.6-.6-1.5 0-2.1l4.8-4.8-4.8-4.8c-.6-.6-.6-1.5 0-2.1l1.1-1.1c.6-.6 1.5-.6 2.1 0l4.8 4.8 4.8-4.8c.6-.6 1.5-.6 2.1 0l1.1 1.1c.6.6.6 1.5 0 2.1l-4.8 4.8z"/></svg>