<svg enable-background="new 0 0 48 48" viewBox="0 0 48 48" xmlns="http://www.w3.org/2000/svg"><path d="m34.7 18.7c0-7.4-7.8-13.3-17.3-13.3s-17.4 5.9-17.4 13.3c0 2.9 1.2 5.5 3.2 7.7-1.1 2.5-3 4.5-3 4.5-.2.2-.2.5-.1.7s.3.4.6.4c3 0 5.6-1 7.4-2.1 2.7 1.3 5.9 2.1 9.3 2.1 9.5 0 17.3-6 17.3-13.3zm10.1 18.3c2-2.2 3.2-4.8 3.2-7.7 0-5.5-4.5-10.3-10.8-12.3.1.5.1 1.1.1 1.7 0 8.8-9 16-20 16-.9 0-1.8-.1-2.6-.2 2.6 4.8 8.8 8.2 16 8.2 3.4 0 6.6-.8 9.3-2.1 1.8 1.1 4.3 2.1 7.4 2.1.3 0 .5-.2.6-.4s.1-.5-.1-.7c-.1-.1-2-2.1-3.1-4.6z"/></svg>