<svg enable-background="new 0 0 48 48" viewBox="0 0 48 48" xmlns="http://www.w3.org/2000/svg"><path d="m44.3 34.8c2.3-2.3 3.7-5.1 3.7-8.2 0-6.7-6.4-12.2-14.7-13.2-2.6-4.8-8.8-8.2-16-8.2-9.5.1-17.3 6.1-17.3 13.5 0 3.1 1.4 5.9 3.7 8.2-1.3 2.6-3.1 4.5-3.1 4.6-.6.5-.7 1.3-.4 2s1 1.2 1.8 1.2c4.5 0 8.1-1.7 10.4-3.2.8.2 1.6.3 2.4.4 2.6 4.8 8.8 8.2 15.9 8.2 1.7 0 3.4-.2 5-.6 2.4 1.5 6 3.2 10.4 3.2.8 0 1.5-.5 1.8-1.2s.2-1.5-.4-2.1c-.1 0-1.9-2-3.2-4.6zm-31-7.3-1.7-.4-1.4.9c-1.2.8-2.4 1.4-3.6 1.8.2-.3.4-.8.6-1.2l1.3-2.6-2.1-2c-1.1-1.1-2.4-2.9-2.4-5.3 0-5.1 6.1-9.3 13.3-9.3s13.3 4.3 13.3 9.3-6 9.3-13.3 9.3c-1.3 0-2.7-.2-4-.5zm28.2 4.5-2.1 2 1.3 2.6c.2.4.4.8.7 1.2-1.2-.4-2.4-1-3.6-1.8l-1.4-.9-1.7.4c-1.3.3-2.7.5-4 .5-4.5 0-8.5-1.7-10.9-4.1 8.4-.9 14.9-6.5 14.9-13.2 0-.3 0-.6-.1-.8 5.4 1.1 9.4 4.7 9.4 8.8 0 2.4-1.3 4.2-2.5 5.3zm-22.1-14.1-3.5-1c-.3-.1-.6-.4-.6-.7 0-.4.4-.7.8-.7h2.2c.3 0 .7.1 1 .2s.6.1.8-.1l1-1.1c.3-.3.2-.7-.1-.9-.7-.5-1.5-.7-2.4-.8v-.8c0-.4-.3-.7-.7-.7h-1.3c-.4 0-.7.3-.7.7v.9c-1.8.1-3.3 1.5-3.3 3.4 0 1.5 1.1 2.9 2.6 3.3l3.5 1c.3.1.6.4.6.7 0 .4-.4.7-.8.7h-2.2c-.3 0-.7-.1-1-.2s-.6-.1-.8.1l-1 1.1c-.3.3-.2.7.1.9.7.5 1.5.7 2.4.8v.8c0 .4.3.7.7.7h1.3c.4 0 .7-.3.7-.7v-.9c1.8-.1 3.3-1.5 3.3-3.4 0-1.6-1.1-2.9-2.6-3.3z"/></svg>