<svg enable-background="new 0 0 48 48" viewBox="0 0 48 48" xmlns="http://www.w3.org/2000/svg"><path d="m34.7 21.3v-13.3c0-2.9-2.4-5.3-5.3-5.3h-24c-3 0-5.4 2.4-5.4 5.3v13.3c0 2.9 2.4 5.3 5.3 5.3v4.5c0 .7.8 1.1 1.3.7l6.9-5.2h15.8c3 .1 5.4-2.3 5.4-5.3zm-16 0v1.3c0 .4-.3.7-.7.7h-1.3c-.4 0-.7-.3-.7-.7v-1.4c-.9 0-1.9-.4-2.6-.9-.3-.2-.3-.7 0-1l1-.9c.2-.2.6-.2.8-.1.3.2.7.3 1.1.3h2.3c.5 0 1-.5 1-1.1 0-.5-.3-.9-.7-1.1l-3.8-1.1c-1.5-.5-2.6-2-2.6-3.6 0-2 1.6-3.7 3.6-3.8v-1.2c-.1-.4.2-.7.6-.7h1.3c.4 0 .7.3.7.7v1.3c.9 0 1.9.4 2.6.9.3.2.3.7 0 1l-1 .9c-.2.2-.6.2-.8.1-.3-.2-.7-.3-1.1-.3h-2.3c-.5 0-1 .5-1 1.1 0 .5.3.9.7 1.1l3.7 1.1c1.5.5 2.6 2 2.6 3.6.1 2.1-1.5 3.8-3.4 3.8zm24-5.3h-5.3v5.3c0 4.4-3.6 8-8 8h-13.4v5.3c0 2.9 2.4 5.3 5.3 5.3h10.5l6.9 5.2c.5.4 1.3 0 1.3-.7v-4.4h2.7c2.9 0 5.3-2.4 5.3-5.3v-13.4c0-2.9-2.4-5.3-5.3-5.3z"/></svg>