<svg enable-background="new 0 0 48 48" viewBox="0 0 48 48" xmlns="http://www.w3.org/2000/svg"><path d="m32.2 19.5h-5.2v-5.2c0-.4-.3-.7-.7-.7h-4.5c-.4 0-.7.3-.7.7v5.2h-5.2c-.4 0-.7.3-.7.7v4.5c0 .4.3.7.7.7h5.1v5.2c0 .4.3.7.7.7h4.5c.4 0 .7-.3.7-.7v-5.2h5.2c.4 0 .7-.3.7-.7v-4.5c.2-.4-.2-.7-.6-.7zm-8.2-16.5c-13.3 0-24 8.7-24 19.5 0 4.5 1.9 8.6 5 11.8-1.4 3.7-4.3 6.8-4.3 6.9-.9.9-.8 2.3.1 3.2.4.4 1 .6 1.5.6 5.8 0 10.3-2.4 13-4.3 2.8.8 5.7 1.3 8.7 1.3 13.3 0 24-8.7 24-19.5s-10.8-19.5-24-19.5zm0 34.5c-2.5 0-5-.4-7.3-1.1l-2.1-.7-1.9 1.3c-1.6 1.2-3.5 2.1-5.4 2.7.7-1.2 1.4-2.5 1.9-3.8l1-2.6-1.9-2c-1.7-1.8-3.7-4.8-3.7-8.7 0-8.3 8.7-15 19.5-15s19.5 6.7 19.5 15-8.9 14.9-19.6 14.9z"/></svg>