<svg enable-background="new 0 0 48 48" viewBox="0 0 48 48" xmlns="http://www.w3.org/2000/svg"><path d="m42 0h-36c-3.3 0-6 2.7-6 6v27c0 3.3 2.7 6 6 6h9v7.9c0 .7.5 1.1 1.1 1.1.2 0 .5-.1.7-.2l11.7-8.8h13.5c3.3 0 6-2.7 6-6v-27c0-3.3-2.7-6-6-6zm1.5 33c0 .8-.7 1.5-1.5 1.5h-15l-1.2.9-6.3 4.7v-5.6h-13.5c-.8 0-1.5-.7-1.5-1.5v-27c0-.8.7-1.5 1.5-1.5h36c.8 0 1.5.7 1.5 1.5zm-28-10.2-.4 4c-.1.5.4 1 .9.9l4-.4 8-8-4.5-4.5zm14.9-12.6c-.7-.7-1.7-.7-2.4 0l-2.7 2.7 4.5 4.5 2.7-2.7c.7-.7.7-1.7 0-2.4 0 .1-2.1-2.1-2.1-2.1z"/></svg>