<svg enable-background="new 0 0 48 48" viewBox="0 0 48 48" xmlns="http://www.w3.org/2000/svg"><path d="m24 3c-13.3 0-24 8.7-24 19.5 0 4.7 2 8.9 5.3 12.3-1.2 4.7-5.1 8.9-5.1 9-.2.2-.3.5-.1.8s.4.4.7.4c6.2 0 10.9-3 13.2-4.8 3 1.1 6.4 1.8 10 1.8 13.3 0 24-8.7 24-19.5s-10.7-19.5-24-19.5zm6 12.5c1.4 0 2.5 1.1 2.5 2.5s-1.1 2.5-2.5 2.5-2.5-1.1-2.5-2.5 1.1-2.5 2.5-2.5zm-12 0c1.4 0 2.5 1.1 2.5 2.5s-1.1 2.5-2.5 2.5-2.5-1.1-2.5-2.5 1.1-2.5 2.5-2.5zm15.4 13.2c-2.3 2.7-5.8 4.3-9.4 4.3s-7.1-1.6-9.4-4.3c-.5-.6-.5-1.6.2-2.1.6-.5 1.6-.5 2.1.2 1.8 2.1 4.4 3.2 7.1 3.2 2.8 0 5.3-1.2 7.1-3.3.5-.6 1.5-.7 2.1-.2.7.6.7 1.6.2 2.2z"/></svg>