<svg enable-background="new 0 0 48 48" viewBox="0 0 48 48" xmlns="http://www.w3.org/2000/svg"><path d="m30.5 25.5c-1.6 1.9-4 3-6.5 3s-4.9-1.1-6.5-3c-.8-.9-2.2-1-3.2-.3-.9.8-1 2.2-.3 3.2 2.5 2.9 6.1 4.6 10 4.6s7.5-1.7 10-4.6c.8-.9.7-2.4-.3-3.2-1-.7-2.4-.6-3.2.3zm-12.5-4.5c1.7 0 3-1.3 3-3s-1.3-3-3-3-3 1.3-3 3 1.3 3 3 3zm12 0c1.7 0 3-1.3 3-3s-1.3-3-3-3-3 1.3-3 3 1.3 3 3 3zm-6-18c-13.3 0-24 8.7-24 19.5 0 4.5 1.9 8.5 5 11.8-1.4 3.7-4.3 6.8-4.3 6.9-.6.7-.8 1.6-.4 2.4.2.9 1 1.4 1.9 1.4 5.8 0 10.3-2.4 13-4.3 2.8.8 5.7 1.3 8.8 1.3 13.3 0 24-8.7 24-19.5s-10.8-19.5-24-19.5zm0 34.5c-2.5 0-5-.4-7.3-1.1l-2.1-.7-1.9 1.3c-1.3.9-3.2 2-5.4 2.7.7-1.1 1.3-2.4 1.9-3.8l1-2.6-1.9-2c-1.7-1.8-3.7-4.8-3.7-8.8 0-8.3 8.7-15 19.5-15s19.5 6.7 19.5 15-8.9 15-19.6 15z"/></svg>