<svg enable-background="new 0 0 48 48" viewBox="0 0 48 48" xmlns="http://www.w3.org/2000/svg"><path d="m24 10.8c8.6 0 15.6 5.4 15.6 12 0 1.9-.6 3.7-1.6 5.3l2.8 2.2c1.5-2.2 2.4-4.8 2.4-7.5 0-8.6-8.6-15.6-19.2-15.6-3.6 0-7 .8-9.9 2.2l3.2 2.5c2.1-.7 4.3-1.1 6.7-1.1zm0 24c-2 0-4-.3-5.9-.9l-1.7-.5-1.5 1c-1.1.8-2.5 1.6-4.3 2.2.5-.9 1.1-1.9 1.5-3l.8-2.1-1.5-1.6c-1.4-1.4-3-3.8-3-7 0-1.2.2-2.5.7-3.6l-2.9-2.3c-.9 1.8-1.4 3.8-1.4 5.9 0 3.6 1.5 6.8 4 9.5-1.1 3-3.4 5.5-3.5 5.5-.5.5-.6 1.3-.3 2s.9 1.1 1.7 1.1c4.6 0 8.3-1.9 10.4-3.5 2.2.7 4.5 1.1 7 1.1 2.8 0 5.5-.5 7.9-1.4l-3.5-2.7c-1.5.1-3 .3-4.5.3zm23.6 5.3-11.4-8.9-.5-.4-33-25.7c-.5-.5-1.3-.4-1.7.1l-.7 1c-.4.5-.3 1.3.2 1.7l44.9 35.1c.5.4 1.3.3 1.7-.2l.8-.9c.3-.6.2-1.4-.3-1.8z"/></svg>