<svg enable-background="new 0 0 48 48" viewBox="0 0 48 48" xmlns="http://www.w3.org/2000/svg"><path d="m42 0h-36c-3.3 0-6 2.7-6 6v27c0 3.3 2.7 6 6 6h9v7.9c0 .7.5 1.1 1.1 1.1.2 0 .5-.1.7-.2l11.7-8.8h13.5c3.3 0 6-2.7 6-6v-27c0-3.3-2.7-6-6-6zm1.5 33c0 .8-.7 1.5-1.5 1.5h-15l-1.2.9-6.3 4.7v-5.6h-13.5c-.8 0-1.5-.7-1.5-1.5v-27c0-.8.7-1.5 1.5-1.5h36c.8 0 1.5.7 1.5 1.5zm-13-10.5c-1.6 1.9-4 3-6.5 3s-4.9-1.1-6.5-3c-.8-.9-2.2-1.1-3.2-.3s-1.1 2.2-.3 3.2c2.5 2.9 6.1 4.6 10 4.6s7.5-1.7 10-4.6c.8-.9.7-2.4-.3-3.2-.9-.7-2.4-.6-3.2.3zm-12.5-4.5c1.7 0 3-1.3 3-3s-1.3-3-3-3-3 1.3-3 3 1.3 3 3 3zm12 0c1.7 0 3-1.3 3-3s-1.3-3-3-3-3 1.3-3 3 1.3 3 3 3z"/></svg>