<svg enable-background="new 0 0 48 48" viewBox="0 0 48 48" xmlns="http://www.w3.org/2000/svg"><path d="m42.7 16h-8v-8c0-2.9-2.4-5.3-5.3-5.3h-24c-3 0-5.4 2.4-5.4 5.3v17.3c0 2.9 2.4 5.3 5.3 5.3h2.7v4.4c0 .6.5 1 1 1 .2 0 .4-.1.6-.2l6.4-3.6v2.5c0 2.9 2.4 5.3 5.3 5.3h8l9.1 5.1c.2.1.4.2.6.2.5 0 1-.4 1-1v-4.3h2.7c2.9 0 5.3-2.4 5.3-5.3v-13.4c0-2.9-2.4-5.3-5.3-5.3zm-26 11.2-4.7 2.6v-3.2h-6.7c-.7 0-1.3-.6-1.3-1.3v-17.3c0-.7.6-1.3 1.3-1.3h24c.7 0 1.3.6 1.3 1.3v17.3c0 .7-.6 1.3-1.3 1.3h-11.7zm27.3 7.5c0 .7-.6 1.3-1.3 1.3h-6.7v3.2l-4.7-2.7-.9-.5h-9.1c-.7 0-1.3-.6-1.3-1.3v-4h9.3c2.9 0 5.3-2.4 5.3-5.3v-5.4h8c.7 0 1.3.6 1.3 1.3v13.4zm-24.6-18.8-3.5-1c-.3-.1-.6-.4-.6-.7 0-.4.4-.7.8-.7h2.2c.3 0 .7.1 1 .2s.6.1.8-.1l1-1.1c.3-.3.2-.7-.1-.9-.7-.5-1.5-.7-2.4-.8v-.8c0-.4-.3-.7-.7-.7h-1.3c-.3 0-.6.3-.6.7v.9c-1.8.1-3.3 1.5-3.3 3.4 0 1.5 1.1 2.9 2.6 3.3l3.5 1c.3.1.6.4.6.7 0 .4-.4.7-.8.7h-2.2c-.3 0-.7-.1-1-.2s-.6-.1-.8.1l-1 1.1c-.3.3-.2.7.1.9.7.5 1.5.7 2.4.8v.8c0 .4.3.7.7.7h1.2c.4 0 .7-.3.7-.7v-.9c1.8-.1 3.3-1.5 3.3-3.4 0-1.6-1.1-2.9-2.6-3.3z"/></svg>