<svg enable-background="new 0 0 48 48" viewBox="0 0 48 48" xmlns="http://www.w3.org/2000/svg"><path d="m42 0h-36c-3.3 0-6 2.7-6 6v27c0 3.3 2.7 6 6 6h9v7.9c0 .7.5 1.1 1.1 1.1.2 0 .5-.1.7-.2l11.7-8.8h13.5c3.3 0 6-2.7 6-6v-27c0-3.3-2.7-6-6-6zm1.5 33c0 .8-.7 1.5-1.5 1.5h-15l-1.2.9-6.3 4.7v-5.6h-13.5c-.8 0-1.5-.7-1.5-1.5v-27c0-.8.7-1.5 1.5-1.5h36c.8 0 1.5.7 1.5 1.5zm-16.6-15-4.7-1.3c-.3-.1-.6-.4-.6-.8s.4-.8.8-.8h3.1c.3 0 .7.1 1 .2.4.2 1 .2 1.3-.2l1.6-1.6c.5-.5.4-1.3-.1-1.7-.9-.6-1.9-.9-3-1.1v-1.7c0-.8-.7-1.5-1.5-1.5h-1.5c-.8 0-1.5.7-1.5 1.5v1.6c-2.8.3-5 2.9-4.6 5.9.3 2.2 1.9 3.9 4 4.5l4.7 1.3c.3.1.6.4.6.8s-.4.8-.8.8h-3.1c-.3 0-.7-.1-1-.2-.5-.2-1-.2-1.3.2l-1.6 1.6c-.5.5-.4 1.3.1 1.7.9.6 1.9.9 3 1.1v1.7c0 .8.7 1.5 1.5 1.5h1.5c.8 0 1.5-.7 1.5-1.5v-1.6c2.8-.3 5-2.9 4.6-5.9-.3-2.2-2-3.9-4-4.5z"/></svg>