<svg enable-background="new 0 0 48 48" viewBox="0 0 48 48" xmlns="http://www.w3.org/2000/svg"><path d="m24 3c-13.3 0-24 8.7-24 19.5 0 4.6 2 8.9 5.3 12.3-1.2 4.7-5.1 8.9-5.1 9-.3.3-.3.8 0 1.1.2 0 .4.1.6.1 6.2 0 10.9-3 13.2-4.8 3 1.1 6.4 1.8 10 1.8 13.3 0 24-8.7 24-19.5s-10.7-19.5-24-19.5zm2.3 28.4v1.6c0 .8-.7 1.5-1.5 1.5h-1.5c-.8 0-1.5-.7-1.5-1.5v-1.7c-1.1-.1-2.1-.5-3-1.1-.6-.4-.6-1.2-.1-1.7l1.6-1.6c.4-.4.9-.4 1.3-.2.3.1.6.2 1 .2h3.1c.4 0 .8-.4.8-.8s-.2-.7-.6-.8l-4.8-1.3c-2.1-.6-3.8-2.3-4-4.5-.4-3 1.8-5.6 4.6-5.9v-1.6c0-.8.7-1.5 1.5-1.5h1.5c.8 0 1.5.7 1.5 1.5v1.7c1.1.1 2.1.5 3 1.1.6.4.6 1.2.1 1.7l-1.6 1.6c-.4.4-.9.4-1.3.2-.3-.1-.6-.2-1-.2h-3.1c-.4 0-.8.4-.8.8s.2.7.6.8l4.7 1.3c2.1.6 3.8 2.3 4 4.5.5 2.9-1.7 5.5-4.5 5.9z"/></svg>