<svg enable-background="new 0 0 48 48" viewBox="0 0 48 48" xmlns="http://www.w3.org/2000/svg"><path d="m24 24c-1.7 0-3 1.3-3 3s1.3 3 3 3 3-1.3 3-3-1.3-3-3-3zm18-24h-36c-3.3 0-6 2.7-6 6v27c0 3.3 2.7 6 6 6h9v7.9c0 .7.5 1.1 1.1 1.1.2 0 .5-.1.7-.2l11.7-8.8h13.5c3.3 0 6-2.7 6-6v-27c0-3.3-2.7-6-6-6zm1.5 33c0 .8-.7 1.5-1.5 1.5h-15l-1.2.9-6.3 4.7v-5.6h-13.5c-.8 0-1.5-.7-1.5-1.5v-27c0-.8.7-1.5 1.5-1.5h36c.8 0 1.5.7 1.5 1.5zm-16.8-24h-5.4c-.9 0-1.6.9-1.5 1.8l1.7 9c.1.7.8 1.2 1.5 1.2h2c.7 0 1.3-.5 1.5-1.2l1.7-9c.1-.9-.6-1.8-1.5-1.8z"/></svg>