<svg enable-background="new 0 0 48 48" viewBox="0 0 48 48" xmlns="http://www.w3.org/2000/svg"><path d="m47.6 40.1-44.9-35c-.5-.5-1.3-.4-1.7.1l-.7 1c-.4.5-.3 1.3.2 1.7l4.4 3.4 3.1 2.4 37.4 29.2c.5.4 1.3.3 1.7-.2l.8-.9c.3-.5.2-1.3-.3-1.7zm-9.2-31.7c.7 0 1.2.5 1.2 1.2v19.7l3.5 2.7c.1-.3.1-.6.1-.9v-21.5c0-2.6-2.2-4.8-4.8-4.8h-28.8c-.4 0-.8.1-1.2.2l4.4 3.4zm-13 24.7-5 3.8v-4.5h-10.8c-.7 0-1.2-.5-1.2-1.2v-12.5l-3.6-2.8v15.4c0 2.5 2.2 4.7 4.8 4.7h7.2v6.3c0 .5.4.9.9.9.2 0 .4-.1.5-.2l9.4-7h3l-4.4-3.4z"/></svg>