<svg enable-background="new 0 0 48 48" viewBox="0 0 48 48" xmlns="http://www.w3.org/2000/svg"><path d="m42.7 16h-8v-8c0-2.9-2.4-5.3-5.3-5.3h-24c-3 0-5.4 2.4-5.4 5.3v13.3c0 2.9 2.4 5.3 5.3 5.3h2.7v4.4c0 .6.5 1 1 1 .2 0 .4-.1.6-.2l6.4-3.6v6.5c0 2.9 2.4 5.3 5.3 5.3h8l9.1 5.1c.2.1.4.2.6.2.5 0 1-.4 1-1v-4.3h2.7c2.9 0 5.3-2.4 5.3-5.3v-13.4c0-2.9-2.4-5.3-5.3-5.3zm-34.7 6.7h-2.7c-.7 0-1.3-.6-1.3-1.3v-13.4c0-.7.6-1.3 1.3-1.3h24c.7 0 1.3.6 1.3 1.3v13.3c0 .7-.6 1.3-1.3 1.3h-11.7l-.9.5-4.7 2.7v-3.2h-4zm36 12c0 .7-.6 1.3-1.3 1.3h-6.7v3.2l-4.7-2.7-.9-.5h-9c-.7 0-1.3-.6-1.3-1.3v-8h9.3c2.9 0 5.3-2.4 5.3-5.3v-1.4h8c.7 0 1.3.6 1.3 1.3z"/></svg>