<svg enable-background="new 0 0 48 48" viewBox="0 0 48 48" xmlns="http://www.w3.org/2000/svg"><path d="m42 0h-36c-3.3 0-6 2.7-6 6v27c0 3.3 2.7 6 6 6h9v7.9c0 .9 1 1.5 1.8.9l11.7-8.8h13.5c3.3 0 6-2.7 6-6v-27c0-3.3-2.7-6-6-6zm-12 12.5c1.4 0 2.5 1.1 2.5 2.5s-1.1 2.5-2.5 2.5-2.5-1.1-2.5-2.5 1.1-2.5 2.5-2.5zm-12 0c1.4 0 2.5 1.1 2.5 2.5s-1.1 2.5-2.5 2.5-2.5-1.1-2.5-2.5 1.1-2.5 2.5-2.5zm15.4 13.2c-2.3 2.7-5.8 4.3-9.4 4.3s-7.1-1.6-9.4-4.3c-.5-.6-.5-1.6.2-2.1.6-.5 1.6-.5 2.1.2 1.8 2.1 4.4 3.2 7.1 3.2 2.8 0 5.3-1.2 7.1-3.3.5-.6 1.5-.7 2.1-.2.7.6.7 1.6.2 2.2z"/></svg>