<svg enable-background="new 0 0 48 48" viewBox="0 0 48 48" xmlns="http://www.w3.org/2000/svg"><path d="m40 11c.6 0 1.1.5 1.1 1v24c0 .5-.5 1-1 1h-32.1c-.5 0-1-.5-1-1v-24c0-.5.5-1 1-1zm.1-11h-32.1v4h32v-4zm-.1 8h-32c-2.2 0-4 1.8-4 4v24c0 2.2 1.8 4 4 4h32c2.2 0 4-1.8 4-4v-24c0-2.2-1.8-4-4-4zm.1 36h-32.1v4h32v-4z"/><path d="m24 16c1.2 0 2.2 1 2.2 2.2s-1 2.2-2.2 2.2-2.2-1-2.2-2.2c.1-1.4 1-2.2 2.2-2.2m0-2.4c-2.5 0-4.4 1.9-4.6 4.6 0 2.5 2 4.6 4.6 4.6s4.6-2 4.6-4.6-2.1-4.6-4.6-4.6z"/><path d="m34 32.8h-20v-3c0-3.4 6.7-5 10-5s10 1.7 10 5z"/></svg>