<svg enable-background="new 0 0 48 48" viewBox="0 0 48 48" xmlns="http://www.w3.org/2000/svg"><path d="m47.9 24.6v6.2c0 2.4-2 4.4-4.4 4.4h-1.3c-.6 5.4-5.1 9.6-10.6 9.6h-3.2c-.5 1.2-1.6 2-3 2h-3c-1.8 0-3.1-1.4-3.1-3.1 0-1.8 1.4-3.1 3.1-3.1h3c1.3 0 2.5.8 3 2h3.2c4.7 0 8.4-3.8 8.4-8.4v-3.5-9.3-1.8c0-8.8-7.2-16-16-16s-16 7.2-16 16v1.8 9.3 3.5c0 .6-.5 1.2-1.2 1.2h-2.5c-2.4 0-4.4-2-4.4-4.4v-6.2c0-2.4 2-4.4 4.4-4.4h1.2v-.6c.3-10.4 8.5-18.5 18.5-18.5s18.3 8.2 18.3 18.3v.6h1.2c2.4 0 4.4 1.9 4.4 4.4z"/></svg>