<svg enable-background="new 0 0 48 48" viewBox="0 0 48 48" xmlns="http://www.w3.org/2000/svg"><path d="m43.9 7.6h-39.8c-2.3 0-4.1 1.8-4.1 4v24.7c0 2.3 1.8 4.1 4.1 4.1h39.8c2.3 0 4.1-1.8 4.1-4.1v-24.7c0-2.2-1.8-4-4.1-4zm.3 27.3c.5.4.6 1.1.2 1.7-.2.4-.6.5-1 .5-.2 0-.5-.1-.7-.2l-15.5-11.5-2.6 1.9c-.1.1-.4.2-.6.2s-.5-.1-.7-.2l-2.6-1.9-15.4 11.3c-.3.1-.5.3-.7.3-.4 0-.7-.1-1-.5-.4-.5-.2-1.3.2-1.7l14.9-10.8-14.9-10.8c-.5-.4-.6-1.1-.2-1.7.4-.5 1.1-.6 1.7-.2l18.7 13.7 18.8-13.7c.5-.4 1.3-.2 1.7.2.4.5.2 1.3-.2 1.7l-15 10.8z"/></svg>