<svg enable-background="new 0 0 48 48" viewBox="0 0 48 48" xmlns="http://www.w3.org/2000/svg"><path d="m40.3 10.1-16.3 11.8-16.2-11.8zm-37.8 5.2 12 8.7-12 8.7zm43 .1v17.4l-12-8.8zm-24.9 13.1 1.2.8.2.1.2.1c.4.2 1 .5 1.8.5s1.6-.3 2.2-.8l1.1-.8 12.7 9.5h-32.2zm23.3-20.9h-39.8c-2.3 0-4.1 1.8-4.1 4v24.7c0 2.3 1.8 4.1 4.1 4.1h39.8c2.3 0 4.1-1.8 4.1-4.1v-24.7c0-2.2-1.8-4-4.1-4zm-19.9 17.4 18.8-13.7c.2-.1.4-.2.7-.2.4 0 .8.2 1 .4.4.5.2 1.3-.2 1.7l-15 10.8 14.9 10.9c.5.4.6 1.1.2 1.7-.2.4-.6.5-1 .5-.2 0-.5-.1-.7-.2l-15.5-11.5-2.6 1.9c-.1.1-.4.2-.6.2s-.5-.1-.7-.2l-2.6-1.9-15.4 11.3c-.3.1-.5.3-.7.3-.4 0-.7-.1-1-.5-.4-.5-.2-1.3.2-1.7l14.9-10.8-14.9-10.8c-.5-.4-.6-1.1-.2-1.7.2-.3.6-.4.9-.4.2 0 .5.1.7.2z"/></svg>