<svg enable-background="new 0 0 48 48" viewBox="0 0 48 48" xmlns="http://www.w3.org/2000/svg"><path d="m18.2 4.2c.2 0 .5.1.6.2.2.2.2.3.2.5v.1.1 27.2c0 .6-.4 1-1 1h-1.7v1.8h-.2v2.6h-1.4v.1h-.8v-2.6h-.2v-1.7h-1.7-.1c-.6 0-1-.4-1-1v-27.3c0-.6.4-1 1-1zm0-1.8h-6.4c-1.6 0-2.8 1.2-2.8 2.8v27.4c0 1.6 1.2 2.8 2.8 2.8h.2 1.6-1.6v3.1c0 .8.7 1.4 1.4 1.4v1.4c0 .8-.7 1.4-1.4 1.4h-3c-.8 0-1.4-.7-1.4-1.4v-1.4c0-2.5-2-4.4-4.4-4.4h-1.8c-.8-.1-1.4.5-1.4 1.3s.7 1.4 1.4 1.4h1.4c.8 0 1.4.7 1.4 1.4v1.4c0 2.5 2 4.4 4.4 4.4h3.4c2.5 0 4.4-2 4.4-4.4v-1.6c.8 0 1.4-.7 1.4-1.4v-3h-1.6 1.8c1.6 0 2.8-1.2 2.8-2.8v-27c.2-1.6-1-2.8-2.6-2.8z"/><path d="m45 4.3c.7 0 1.2.5 1.2 1.2v31.5c0 .7-.5 1.2-1.2 1.2h-19.4c-.7 0-1.2-.5-1.2-1.2v-31.5c0-.7.5-1.2 1.2-1.2zm0-1.8h-19.4c-1.7 0-3 1.3-3 3v31.5c0 1.7 1.3 3 3 3h19.4c1.7 0 3-1.3 3-3v-31.5c0-1.8-1.3-3-3-3z"/><path d="m43.3 22.1c0 .7-.6 1.3-1.3 1.3h-1.2c-.7 0-1.3-.6-1.3-1.3v-1.3c0-.7.6-1.3 1.3-1.3h1.2c.7 0 1.3.6 1.3 1.3z"/><path d="m37.3 22.1c0 .7-.6 1.3-1.3 1.3h-1.2c-.7 0-1.3-.6-1.3-1.3v-1.3c0-.7.6-1.3 1.3-1.3h1.2c.7 0 1.3.6 1.3 1.3z"/><path d="m31.3 22.1c0 .7-.6 1.3-1.3 1.3h-1.2c-.7 0-1.3-.6-1.3-1.3v-1.3c0-.7.6-1.3 1.3-1.3h1.2c.7 0 1.3.6 1.3 1.3z"/><path d="m43.3 28.1c0 .7-.6 1.3-1.3 1.3h-1.2c-.7 0-1.3-.6-1.3-1.3v-1.3c0-.7.6-1.3 1.3-1.3h1.2c.7 0 1.3.6 1.3 1.3z"/><path d="m37.3 28.1c0 .7-.6 1.3-1.3 1.3h-1.2c-.7 0-1.3-.6-1.3-1.3v-1.3c0-.7.6-1.3 1.3-1.3h1.2c.7 0 1.3.6 1.3 1.3z"/><path d="m31.3 28.1c0 .7-.6 1.3-1.3 1.3h-1.2c-.7 0-1.3-.6-1.3-1.3v-1.3c0-.7.6-1.3 1.3-1.3h1.2c.7 0 1.3.6 1.3 1.3z"/><path d="m43.3 34.1c0 .7-.6 1.3-1.3 1.3h-1.2c-.7 0-1.3-.6-1.3-1.3v-1.3c0-.7.6-1.3 1.3-1.3h1.2c.7 0 1.3.6 1.3 1.3z"/><path d="m37.3 34.1c0 .7-.6 1.3-1.3 1.3h-1.2c-.7 0-1.3-.6-1.3-1.3v-1.3c0-.7.6-1.3 1.3-1.3h1.2c.7 0 1.3.6 1.3 1.3z"/><path d="m31.3 34.1c0 .7-.6 1.3-1.3 1.3h-1.2c-.7 0-1.3-.6-1.3-1.3v-1.3c0-.7.6-1.3 1.3-1.3h1.2c.7 0 1.3.6 1.3 1.3z"/><path d="m29.3 15.5c-.6 0-1.1-.8-1.1-1.7v-3.2c0-1 .5-1.7 1.1-1.7h11.6c.6 0 1.1.8 1.1 1.7v3.2c0 1-.5 1.7-1.1 1.7z"/><path d="m40.6 10.3v.2 3.2.2h-10.8s0-.1 0-.2v-3.2c0-.1 0-.1 0-.2zm.3-3h-11.6c-1.4 0-2.6 1.4-2.6 3.2v3.2c0 1.8 1.2 3.2 2.6 3.2h11.6c1.4 0 2.6-1.4 2.6-3.2v-3.2c.1-1.7-1.1-3.2-2.6-3.2z"/></svg>