<svg enable-background="new 0 0 48 48" viewBox="0 0 48 48" xmlns="http://www.w3.org/2000/svg"><path d="m25.5 40.5h3c.8 0 1.6-.7 1.6-1.6v-3c0-.8-.7-1.6-1.6-1.6h-3c-.8 0-1.6.7-1.6 1.6v3c.1.9.8 1.6 1.6 1.6zm0-9h3c.8 0 1.6-.7 1.6-1.6v-3c0-.8-.7-1.6-1.6-1.6h-3c-.8 0-1.6.7-1.6 1.6v3c.1.9.8 1.6 1.6 1.6zm9 9h3c.8 0 1.6-.7 1.6-1.6v-3c0-.8-.7-1.6-1.6-1.6h-3c-.8 0-1.6.7-1.6 1.6v3c.1.9.8 1.6 1.6 1.6zm0-9h3c.8 0 1.6-.7 1.6-1.6v-3c0-.8-.7-1.6-1.6-1.6h-3c-.8 0-1.6.7-1.6 1.6v3c.1.9.8 1.6 1.6 1.6zm-26.9-19.5h-3c-2.5 0-4.5 2-4.5 4.5v26.9c0 2.4 2 4.4 4.5 4.4h3c2.5 0 4.5-2 4.5-4.5v-26.7c-.1-2.5-2.1-4.6-4.5-4.6zm1.4 31.5c0 .8-.7 1.6-1.6 1.6h-2.8c-.8 0-1.6-.7-1.6-1.6v-26.9c0-.9.8-1.6 1.6-1.6h3c.8 0 1.6.7 1.6 1.6v26.9zm35.9-28.2v-5c0-.8-.4-1.6-.8-2.2l-7.2-7.2c-.6-.5-1.4-.9-2.1-.9h-15.2c-2.6 0-4.6 2.1-4.6 4.6v38.9c0 2.5 2 4.5 4.5 4.5h23.9c2.5 0 4.5-2 4.5-4.5v-23.9c0-2.1-1.2-3.7-3-4.3zm-8.9-11.1 4.7 4.8h-4.7zm-18 .4c0-.8.7-1.6 1.6-1.6h13.5v6c0 1.7 1.3 3 3 3h6v6h-24.1zm26.9 38.9c0 .8-.7 1.6-1.6 1.6h-23.9c-.8 0-1.6-.7-1.6-1.6v-22.5h26.9v22.5z"/></svg>