<svg enable-background="new 0 0 48 48" viewBox="0 0 48 48" xmlns="http://www.w3.org/2000/svg"><path d="m18.2 2.3h-6.4c-1.6 0-2.8 1.2-2.8 2.8v27.4c0 1.6 1.2 2.8 2.8 2.8h1.7-1.5v3c0 .8.7 1.4 1.4 1.4v1.4c0 .8-.7 1.4-1.4 1.4h-3c-.8 0-1.4-.7-1.4-1.4v-1.4c0-2.5-2-4.4-4.4-4.4h-1.8c-.8 0-1.4.7-1.4 1.4 0 .8.7 1.4 1.4 1.4h1.4c.8 0 1.4.7 1.4 1.4v1.5c0 2.5 2 4.4 4.4 4.4h3.4c2.5 0 4.4-2 4.4-4.4v-1.4c.8 0 1.4-.7 1.4-1.4v-3h-1.6 1.8c1.6 0 2.8-1.2 2.8-2.8v-27.3c.2-1.6-1-2.8-2.6-2.8z"/><path d="m45 2.3h-19.4c-1.7 0-3 1.3-3 3v31.4c0 1.7 1.3 3 3 3h19.4c1.7 0 3-1.3 3-3v-31.4c0-1.7-1.3-3-3-3zm-15 33c0 .8-.7 1.4-1.4 1.4h-1.4c-.8 0-1.4-.7-1.4-1.4v-1.4c0-.8.7-1.4 1.4-1.4h1.4c.8 0 1.4.7 1.4 1.4zm0-7.5c0 .8-.7 1.4-1.4 1.4h-1.4c-.8 0-1.4-.7-1.4-1.4v-1.4c0-.8.7-1.4 1.4-1.4h1.4c.8 0 1.4.7 1.4 1.4zm0-7.5c0 .8-.7 1.4-1.4 1.4h-1.4c-.8 0-1.4-.7-1.4-1.4v-1.4c0-.8.7-1.4 1.4-1.4h1.4c.8 0 1.4.7 1.4 1.4zm7.6 15c0 .8-.7 1.4-1.4 1.4h-1.4c-.8 0-1.4-.7-1.4-1.4v-1.4c0-.8.7-1.4 1.4-1.4h1.2c.8 0 1.4.7 1.4 1.4v1.4zm0-7.5c0 .8-.7 1.4-1.4 1.4h-1.4c-.8 0-1.4-.7-1.4-1.4v-1.4c0-.8.7-1.4 1.4-1.4h1.2c.8 0 1.4.7 1.4 1.4v1.4zm0-7.5c0 .8-.7 1.4-1.4 1.4h-1.4c-.8 0-1.4-.7-1.4-1.4v-1.4c0-.8.7-1.4 1.4-1.4h1.2c.8 0 1.4.7 1.4 1.4v1.4zm7.4 15c0 .8-.7 1.4-1.4 1.4h-1.6c-.8 0-1.4-.7-1.4-1.4v-1.4c0-.8.7-1.4 1.4-1.4h1.4c.8 0 1.4.7 1.4 1.4v1.4zm0-7.5c0 .8-.7 1.4-1.4 1.4h-1.6c-.8 0-1.4-.7-1.4-1.4v-1.4c0-.8.7-1.4 1.4-1.4h1.4c.8 0 1.4.7 1.4 1.4v1.4zm0-7.5c0 .8-.7 1.4-1.4 1.4h-1.6c-.8 0-1.4-.7-1.4-1.4v-1.4c0-.8.7-1.4 1.4-1.4h1.4c.8 0 1.4.7 1.4 1.4v1.4zm0-9c0 1.7-1.3 3-3 3h-13.4c-1.7 0-3-1.3-3-3v-3c0-1.7 1.3-3 3-3h13.4c1.7 0 3 1.3 3 3z"/></svg>