<svg enable-background="new 0 0 48 48" viewBox="0 0 48 48" xmlns="http://www.w3.org/2000/svg"><path d="m6 12h-3c-1.7 0-3 1.3-3 3v30c0 1.7 1.3 3 3 3h3c1.7 0 3-1.3 3-3v-30c0-1.7-1.3-3-3-3zm39 3v-7.8c0-.8-.4-1.6-.8-2.2l-4.2-4.2c-.6-.4-1.5-.8-2.2-.8h-22.8c-1.7 0-3 1.3-3 3v42c0 1.7 1.3 3 3 3h30c1.7 0 3-1.3 3-3v-27c0-1.7-1.3-3-3-3zm-18 25.6c0 .8-.7 1.6-1.6 1.6h-3c-.8 0-1.6-.7-1.6-1.6v-3c0-.8.7-1.6 1.6-1.6h3c.8 0 1.6.7 1.6 1.6zm0-12c0 .8-.7 1.6-1.6 1.6h-3c-.8 0-1.6-.7-1.6-1.6v-3c0-.8.7-1.6 1.6-1.6h3c.8 0 1.6.7 1.6 1.6zm12 12c0 .8-.7 1.6-1.6 1.6h-3c-.8 0-1.6-.7-1.6-1.6v-3c0-.8.7-1.6 1.6-1.6h3c.8 0 1.6.7 1.6 1.6zm0-12c0 .8-.7 1.6-1.6 1.6h-3c-.8 0-1.6-.7-1.6-1.6v-3c0-.8.7-1.6 1.6-1.6h3c.8 0 1.6.7 1.6 1.6zm1.6-10.6h-24v-13.4h19.4v3c0 .8.7 1.6 1.6 1.6h3z"/></svg>