<svg enable-background="new 0 0 48 48" viewBox="0 0 48 48" xmlns="http://www.w3.org/2000/svg"><path d="m6.3 5c-2.8 0-5 2.3-5 5v26.1l20.7-20.7c-.4-1.3-.5-2.6-.5-4 0-2.3.6-4.5 1.6-6.4zm32.9 43c2.8 0 5.1-2.3 5.1-5.1v-17.9c-1.9 2.9-4.3 5.9-6.9 9.3l-1.9 2.5-2-2.5c-3.5-4.3-6.5-8.1-8.5-11.8-.8-1.4-1.6-2.9-2.2-4.3l-10.3 10.4 19.7 19.4zm-37.9-5c0 2.8 2.3 5.1 5.1 5.1h22.3l-18.1-17.9-9.5 9.5v3.3zm34.1-10.1c6.6-8.5 11.5-14.9 11.5-21.3s-5.1-11.5-11.5-11.5c-6.3-.2-11.4 5-11.4 11.4s4.7 12.9 11.4 21.4zm5.1-21.5c0 2.8-2.3 5.1-5.1 5.1s-5.1-2.3-5.1-5.1 2.3-5.1 5.1-5.1 5.1 2.2 5.1 5.1z"/></svg>