<svg enable-background="new 0 0 48 48" viewBox="0 0 48 48" xmlns="http://www.w3.org/2000/svg"><path d="m35.2 2.5h.2c4.9 0 9 4.1 9 9.1s-4 10.8-9 17.3c-5.4-6.9-9-12.4-9-17.4s3.9-9 8.8-9m.2 14.3c3 0 5.4-2.4 5.4-5.4s-2.4-5.4-5.4-5.4-5.4 2.4-5.4 5.4 2.4 5.4 5.4 5.4m-15.9-9.3c-.4 1.3-.5 2.6-.5 4 0 1.2.1 2.2.2 3.2l-15.5 15.7v-20.4c0-1.2.8-2.2 1.9-2.5h.7zm2.6 14.8c.2.5.5 1 .8 1.4 2.2 3.7 5.2 7.7 8.7 12l2 2.5 1.9 2.4 1.8-2.4 1.9-2.5c.7-1 1.4-1.9 2.2-2.8.1-.2.2-.4.4-.6v10.7c0 1.4-1.2 2.6-2.6 2.6h-6l-17.4-17zm-11.5 11.3 12 12h-16.3c-1.4 0-2.6-1.2-2.6-2.6v-2.4zm24.6-33.5c-6.3 0-11.2 5.1-11.2 11.4 0 6.4 4.7 12.9 11.4 21.4 6.6-8.5 11.5-14.9 11.5-21.3s-5.1-11.6-11.5-11.6c-.1.1-.1.1-.2.1zm.2 14.3c-1.7 0-3-1.3-3-3s1.3-3 3-3 3 1.3 3 3-1.3 3-3 3zm-29.1-9.4c-2.8 0-5 2.3-5 5v26.1l20.7-20.7c-.4-1.3-.5-2.6-.5-4 0-2.3.6-4.5 1.6-6.4zm16.5 13.2-10.3 10.4 19.7 19.4h7c2.8 0 5.1-2.3 5.1-5.1v-17.9c-1.9 2.9-4.3 5.9-6.9 9.3l-1.9 2.5-2-2.5c-3.5-4.3-6.5-8.1-8.5-11.8-.9-1.4-1.6-2.8-2.2-4.3zm-12.2 12-9.5 9.5v3.3h.1c0 2.8 2.3 5.1 5.1 5.1h22.3z"/></svg>