<svg enable-background="new 0 0 48 48" viewBox="0 0 48 48" xmlns="http://www.w3.org/2000/svg"><path d="m20.9 2.7h5.7c.8 0 1.4.6 1.4 1.4v11.9h5.7c1.5 0 2.2 1.8 1.2 2.8l-9.9 10c-.7.7-1.7.6-2.4 0l-9.5-10c-1-1.1-.3-2.8 1.2-2.8h5.2v-11.9c-.1-.8.6-1.4 1.4-1.4zm26.2 28.2-7.9-9.9c-.4-.5-1.1-.5-1.5-.1l-2.3 2.4c-.4.4-.4.9-.1 1.3l3.7 4.6h-7.7l-2.7 5.3h-9.3l-2.7-5.3h-7.6l3.6-4.6c.3-.4.3-1-.1-1.3l-2.2-2.3c-.4-.4-1.1-.4-1.5.1l-7.9 9.8c-.6.7-.9 1.6-.9 2.5v7.9c0 2.2 1.8 4 4 4h40c2.2 0 4-1.8 4-4v-7.9c0-.9-.3-1.8-.9-2.5z"/></svg>