<svg enable-background="new 0 0 48 48" viewBox="0 0 48 48" xmlns="http://www.w3.org/2000/svg"><path d="m15 11.2 8.2-8.3c.4-.4 1-.4 1.4 0l8.2 8.3c.6.6.2 1.7-.7 1.7h-5.6v12.8c0 .6-.4 1-1 1h-3.3c-.6 0-1-.4-1-1v-12.8h-5.6c-.7 0-1.2-1.1-.6-1.7zm33 21v9.2c0 2.2-1.8 4-4 4h-40c-2.2 0-4-1.8-4-4v-9.2c0-1 .4-1.9 1-2.7l8.5-9.5c.8-.9 1.9-1.3 3-1.3h4.4c.3 0 .5.2.5.5v3c0 .3-.2.5-.5.5h-4.4l-4.8 5.3h8.8l2.7 5.3h9.7l2.7-5.3h8.8l-4.7-5.3h-4.4c-.3 0-.5-.2-.5-.5v-3c0-.3.2-.5.5-.5h4.4c1.1 0 2.2.5 3 1.3l8.5 9.5c.4.7.8 1.7.8 2.7zm-4-.2h-10l-2.7 5.3h-14.6l-2.7-5.3h-10v9.3h40z"/></svg>