<svg enable-background="new 0 0 48 48" viewBox="0 0 48 48" xmlns="http://www.w3.org/2000/svg"><path d="m48 33.4v7.9c0 2.2-1.8 4-4 4h-40c-2.2 0-4-1.8-4-4v-7.9c0-.9.3-1.8.9-2.5l7.9-9.8c.4-.5 1.1-.5 1.5-.1l2.3 2.5c.3.4.4.9.1 1.3l-3.7 4.5h7.7l2.7 5.3h9.3l2.7-5.3h7.6l-3.7-4.6c-.3-.4-.3-1 .1-1.3l2.3-2.4c.4-.4 1.1-.4 1.5.1l7.9 9.9c.6.6.9 1.5.9 2.4zm-19.4-5.5v-11.9h5.2c1.5 0 2.2-1.8 1.2-2.8l-9.5-10c-.6-.7-1.7-.7-2.4 0l-9.9 10c-1.1 1.1-.3 2.8 1.2 2.8h5.6v11.9c0 .8.6 1.4 1.4 1.4h5.7c.8 0 1.5-.6 1.5-1.4z"/></svg>