<svg enable-background="new 0 0 48 48" viewBox="0 0 48 48" xmlns="http://www.w3.org/2000/svg"><path d="m33 18.1-8.2 8.3c-.4.4-1 .4-1.4 0l-8.4-8.3c-.6-.6-.2-1.7.7-1.7h5.6v-12.7c0-.5.4-1 1-1h3.3c.6 0 1 .5 1 1v12.7h5.6c.9 0 1.4 1.1.8 1.7zm11 13.9h-10l-2.7 5.3h-14.6l-2.7-5.3h-10v9.3h40zm4 .2v9.1c0 2.2-1.8 4-4 4h-40c-2.2 0-4-1.8-4-4v-9.1c0-1 .4-1.9 1-2.7l8.5-9.5.6-.6c.2-.1.5-.1.6.1l2.1 2.1c.2.2.2.5 0 .7l-5.1 5.7h8.8l2.7 5.3h9.7l2.7-5.3h8.8l-5.1-5.8c-.2-.2-.2-.5 0-.7l2-2.1c.2-.2.4-.2.6-.1.2.2.5.4.7.6l8.5 9.5c.5.9.9 1.8.9 2.8z"/></svg>