<svg enable-background="new 0 0 48 48" viewBox="0 0 48 48" xmlns="http://www.w3.org/2000/svg"><path d="m0 0h48v48h-48z" fill="none"/><path d="m13.1 12.3c4.7 0 7.4 1.8 8.9 6l.2.6.5.4 1.2 1.1.7.6h1 20v4h-1.9-2.4v2.4 6.4h-4v-6.4-2.4h-2.4-9.5-1.7l-.6 1.6c-1.4 4.3-5.5 7.2-10.1 7.2-5.8-.1-10.6-4.9-10.6-10.8s4.8-10.7 10.7-10.7m.1 17.9c4 0 7.2-3.2 7.2-7.2s-3.2-7.2-7.2-7.2-7.2 3.2-7.2 7.2 3.2 7.2 7.2 7.2m-.1-20.3c-7.2 0-13.1 5.9-13.1 13.1s5.9 13.1 13.1 13.1c5.6 0 10.6-3.6 12.4-8.8h9.5v8.8h8.8v-8.8h4.2v-8.8h-22.6l-1.2-1.1c-1.8-5-5.4-7.5-11.1-7.5zm.1 17.9c-2.6 0-4.8-2.2-4.8-4.8s2.2-4.8 4.8-4.8 4.8 2.2 4.8 4.8-2.2 4.8-4.8 4.8z"/></svg>