<svg enable-background="new 0 0 48 48" viewBox="0 0 48 48" xmlns="http://www.w3.org/2000/svg"><path d="m47.5 39.1-10.9-8.4c.7-1.3 1.2-2.8 1.6-4.3h3.8c.7 0 1.2-.5 1.2-1.2v-2.4c0-.7-.5-1.2-1.2-1.2h-3.8c-1-6-5.8-10.8-11.8-11.8v-3.8c0-.7-.5-1.2-1.2-1.2h-2.4c-.7 0-1.2.5-1.2 1.2v3.8c-2.8.5-5.4 1.8-7.3 3.6l-10.8-8.4c-.6-.3-1.4-.2-1.8.3l-1.5 1.9c-.3.5-.2 1.2.3 1.7l44.1 34.1c.5.4 1.3.4 1.7-.2l1.4-1.9c.4-.6.4-1.3-.2-1.8zm-14.7-11.4-2.5-1.9c.1-.6.2-1.2.2-1.8 0-3.6-3-6.6-6.6-6.6-1.2 0-2.4.4-3.4 1l-2.5-2c1.7-1.3 3.6-2 5.9-2 5.3 0 9.6 4.3 9.6 9.6.1 1.3-.1 2.6-.7 3.7zm-8.8 5.9c-4.7 0-8.5-3.4-9.4-7.8l-5.5-4.2h-3.1c-.7 0-1.2.5-1.2 1.2v2.4c0 .7.5 1.2 1.2 1.2h3.8c1 6 5.8 10.8 11.8 11.8v3.8c0 .7.5 1.2 1.2 1.2h2.4c.7 0 1.2-.5 1.2-1.2v-3.8c1.1-.1 2-.5 3-.8l-4.8-3.7c-.2-.1-.4-.1-.6-.1z"/></svg>