<svg enable-background="new 0 0 48 48" viewBox="0 0 48 48" xmlns="http://www.w3.org/2000/svg"><path d="m46.4 21h-4.8c-1.3-7.5-7.1-13.3-14.6-14.6v-4.8c0-.8-.7-1.6-1.6-1.6h-3c-.8 0-1.5.7-1.5 1.5v4.8c-7.5 1.4-13.3 7.2-14.6 14.7h-4.8c-.8 0-1.5.7-1.5 1.5v3c0 .8.7 1.5 1.5 1.5h4.8c1.3 7.5 7.1 13.3 14.7 14.7v4.8c0 .8.7 1.5 1.5 1.5h3c.8 0 1.5-.7 1.5-1.5v-4.8c7.5-1.3 13.3-7.1 14.7-14.7h4.8c.8 0 1.5-.7 1.5-1.5v-3c-.2-.8-.9-1.5-1.6-1.5zm-22.4 14.9c-6.6 0-11.9-5.4-11.9-11.9s5.4-11.9 11.9-11.9 11.9 5.3 11.9 11.9-5.3 11.9-11.9 11.9zm0-20.1c-4.5 0-8.2 3.7-8.2 8.2s3.7 8.2 8.2 8.2 8.2-3.7 8.2-8.2-3.7-8.2-8.2-8.2z"/></svg>