<svg enable-background="new 0 0 48 48" viewBox="0 0 48 48" xmlns="http://www.w3.org/2000/svg"><path d="m24.6 2.4v3.9 2l2 .4c6.4 1.1 11.6 6.2 12.7 12.7l.4 2h2 3.9v1.3h-3.9-2l-.4 2c-1.1 6.4-6.2 11.6-12.7 12.7l-2 .4v2 3.9h-1.3v-3.7-2l-2-.4c-6.4-1.3-11.6-6.4-12.6-12.9l-.4-2h-2-4v-1.3h3.9 2l.4-2c1.1-6.4 6.2-11.6 12.7-12.7l2-.4v-1.9-4zm-.6 35.9c7.9 0 14.3-6.4 14.3-14.3s-6.4-14.3-14.3-14.3-14.3 6.4-14.3 14.3 6.4 14.3 14.3 14.3m0-20.1c3.2 0 5.8 2.6 5.8 5.8s-2.6 5.8-5.8 5.8-5.8-2.6-5.8-5.8 2.6-5.8 5.8-5.8m1.4-18.2h-3c-.8 0-1.5.7-1.5 1.5v4.8c-7.5 1.4-13.3 7.2-14.6 14.7h-4.8c-.8 0-1.5.7-1.5 1.5v3c0 .8.7 1.5 1.5 1.5h4.8c1.3 7.5 7.1 13.3 14.7 14.7v4.8c0 .8.7 1.5 1.5 1.5h3c.8 0 1.5-.7 1.5-1.5v-4.8c7.5-1.3 13.3-7.1 14.7-14.7h4.8c.8 0 1.5-.7 1.5-1.5v-3c-.1-.8-.8-1.5-1.5-1.5h-4.8c-1.4-7.5-7.2-13.3-14.7-14.6v-4.8c0-.8-.7-1.6-1.6-1.6zm-1.4 35.9c-6.6 0-11.9-5.4-11.9-11.9s5.4-11.9 11.9-11.9 11.9 5.3 11.9 11.9-5.3 11.9-11.9 11.9zm0-20.1c-4.5 0-8.2 3.7-8.2 8.2s3.7 8.2 8.2 8.2 8.2-3.7 8.2-8.2-3.7-8.2-8.2-8.2z"/></svg>