<svg enable-background="new 0 0 48 48" viewBox="0 0 48 48" xmlns="http://www.w3.org/2000/svg"><path d="m15.7 24.8c.6-.5.6-1.3 0-1.9l-15-12.1c-.5.7-.7 1.6-.7 2.4v21.7c0 .8.2 1.6.6 2.2z"/><path d="m30.6 26.4c-.6-.5-1.7-.5-2.3 0l-3.1 2.5c-.6.5-1.7.5-2.3 0l-3.4-2.8c-.6-.5-1.7-.5-2.3 0l-15 12.4c.8.6 2 1 3.2 1h35.9 1.6c1.1 0 2.2-.4 3-.8z"/><path d="m47.4 11-15.1 12.2c-.6.5-.6 1.3 0 1.9l15 12.2c.5-.7.7-1.4.7-2.4v-21.7c0-.8-.2-1.6-.6-2.2z"/><path d="m22.9 26.3c.6.5 1.7.5 2.3 0l20.6-16.8c-.8-.6-2-1-3.2-1h-37.3c-1.2 0-2.2.4-3 .8z"/></svg>