<svg enable-background="new 0 0 48 48" viewBox="0 0 48 48" xmlns="http://www.w3.org/2000/svg"><path d="m39.4 11.5v19.1c0 .6-.5 1-1 1h-2.9c0-.1-.1-.2-.1-.4-.7-1.6-2.3-2.4-4.1-2.4h-8.5c-1.8 0-3.2.7-4.1 2.2-.1.2-.2.5-.4.7h-15c-.6 0-1-.5-1-1v-18.2l14.9 11.8c.8.8 2.2 1.2 3.1 1.2 1 0 2-.4 3-1.1zm1.8-4.4-19.2 15.2c-.5.4-1.1.6-1.6.6s-1.2-.2-1.6-.6l-18.6-14.6c-.1.3-.2.8-.2 1.3v21.7c0 1.8 1.4 3.4 3.4 3.4h17.2c-.1-.7-.1-1.3.2-1.9.4-.6 1.1-1 2-1h8.5c.8 0 1.6.4 1.9 1.1.2.5.2 1.1 0 1.7h5.2c1.8 0 3.4-1.4 3.4-3.4v-21.6c0-.7-.3-1.3-.6-1.9z"/><path d="m33.5 8-13.1 10.5-13.1-10.5zm4.9-2.4h-35c-.7 0-1.4.2-2 .7l18.5 14.8c.1.1.4.1.5.1.2 0 .4 0 .6-.1l18.8-15.1c-.4-.2-.9-.4-1.4-.4z"/><path d="m48 30.9c0-.5-.1-1-.4-1.3-.2-.4-.7-.6-1.2-.6h-1.3c-.8 0-1.6.6-1.7 1.4-.2 2.3-1.4 4.4-3.5 5.8-1.1.7-2.5 1.2-4.2 1.2s-3.5-.5-5-1.6l1.2-1.9c.5-.7.1-1.3-.7-1.3l-8.4-.1c-.8 0-1.3.6-1 1.4l3.5 7.8c.2.5.5.6.7.6s.5-.1.7-.5l1.3-1.9c2.2 1.4 4.7 2.3 7.2 2.3s5-.7 7.2-2.3c3.3-2.2 5.1-5.6 5.6-9z"/></svg>