<svg enable-background="new 0 0 48 48" viewBox="0 0 48 48" xmlns="http://www.w3.org/2000/svg"><path d="m2.4 15.2 10.7 8.6-10.7 8.7zm-1.7-4.4c-.5.7-.7 1.6-.7 2.4v21.7c0 .8.2 1.6.6 2.2l15.1-12.2c.6-.5.6-1.3 0-1.9z"/><path d="m18.4 28.3 3 2.5c.7.6 1.7.8 2.6.8 1 0 1.9-.4 2.6-.8l2.8-2.3 10.6 8.6h-32.4zm.1-2.5c-.5 0-.8.1-1.2.4l-15.1 12.3c.8.6 2 1 3.2 1h35.9 1.6c1.1 0 2.2-.4 3-.8l-15.3-12.3c-.4-.2-.7-.4-1.2-.4-.4 0-.8.1-1.1.4l-3.1 2.5c-.4.2-.7.4-1.2.4-.4 0-.8-.1-1.1-.4l-3.4-2.8c-.3-.2-.7-.3-1-.3z"/><path d="m45.6 15.6v17.3l-10.7-8.8zm1.8-4.6-15.1 12.2c-.6.5-.6 1.3 0 1.9l15 12.2c.5-.7.7-1.4.7-2.4v-21.7c0-.8-.2-1.6-.6-2.2z"/><path d="m40.3 10.9-16.2 13.2-16.1-13.2zm2.3-2.4h-37.3c-1.2 0-2.2.4-3 .8l20.6 16.9c.4.2.7.4 1.2.4s.8-.1 1.2-.4l20.7-16.7c-1-.6-2.2-1-3.4-1z"/></svg>