<svg enable-background="new 0 0 48 48" viewBox="0 0 48 48" xmlns="http://www.w3.org/2000/svg"><path d="m32.3 23.8c-.2-5.3-4.2-8.5-9-8.5h-.1c-5.5 0-8.5 4.3-8.5 9.2 0 5.5 3.7 9 8.5 9 5.4 0 8.9-4 9.2-8.6m-9.2-14.3c3.7 0 7.1 1.7 9.6 4.2 0-1.2.8-2.2 1.9-2.2h.2c1.8 0 2.2 1.7 2.2 2.2v18.9c-.1 1.2 1.3 1.9 2 1.1 3-3.1 6.7-16.1-1.9-23.5-8-7-18.7-5.9-24.3-1.9-5.9 4.2-9.9 13.4-6 22 4.1 9.5 15.8 12.3 22.8 9.5 3.5-1.4 5.2 3.4 1.4 4.9-5.5 2.4-21 2.2-28.2-10.3-4.9-8.4-4.5-23.2 8.3-30.9 9.9-6 23-4.3 30.8 3.8 8.3 8.6 7.8 24.7-.2 30.9-3.6 2.9-9 .1-9-4.1v-1.3c-2.5 2.5-5.9 4-9.6 4-7.2 0-13.7-6.4-13.7-13.7.1-7.2 6.5-13.6 13.7-13.6z"/></svg>