<svg enable-background="new 0 0 48 48" viewBox="0 0 48 48" xmlns="http://www.w3.org/2000/svg"><path d="m37.4 13.1v10.6c-.6.1-1.2.2-1.8.5-1.3.6-2.2 1.6-2.6 2.9h-2.6c-2.9 0-5.2 2-5.5 4.8h-21.7c-.5 0-.8-.4-.8-.8v-17.3l13.9 11.3c.4.2 1.4 1.1 3 1.1s2.6-.8 3-1.1zm1.8-4.6-18.2 14.6c-.5.4-1 .6-1.6.6s-1.1-.2-1.6-.6l-17.6-14.1c-.1.3-.2.8-.2 1.2v20.8c0 1.8 1.4 3.2 3.2 3.2h23.9v-1.6c0-1.8 1.4-3.2 3.2-3.2h4.7v-.4c0-1.2.6-2.3 1.7-2.8.5-.2 1-.4 1.6-.4s1.1.1 1.6.5v-16c-.1-.7-.3-1.3-.7-1.8z"/><path d="m31.6 9.5-12.1 9.7-12.3-9.7zm5.1-2.4h-33.5c-.8 0-1.4.2-2 .7l17.6 14c.1.1.4.2.6.2s.4-.1.5-.2l18.1-14.4c-.3-.2-.8-.3-1.3-.3z"/><path d="m47.3 32.9-8.2-5c-.2-.1-.6-.2-.8-.2s-.5.1-.7.2c-.5.2-.8.8-.8 1.4v1.9h-6.4c-.8 0-1.6.7-1.6 1.6v3.2c0 .8.7 1.6 1.6 1.6h6.4v1.9c0 .6.4 1.1.8 1.4.2.1.5.2.7.2s.6-.1.8-.2l8.2-5c.5-.2.7-.8.7-1.3 0-1-.2-1.5-.7-1.7z"/></svg>