<svg enable-background="new 0 0 48 48" viewBox="0 0 48 48" xmlns="http://www.w3.org/2000/svg"><path d="m13.3 40c-2.1 0-4.3-1.9-5.3-2.7-5.3-3.7-6.9-5.1-8-5.9v11.2c0 1.5 1.2 2.7 2.7 2.7h21.3c1.5 0 2.7-1.2 2.7-2.7v-11.1c-1.1.8-2.7 2.1-8 5.9-1.1.7-3.2 2.6-5.4 2.6zm10.7-16h-21.3c-1.5 0-2.7 1.2-2.7 2.7v1.3c2.1 1.6 1.9 1.6 9.6 7.2.8.5 2.4 2.1 3.7 2.1s2.9-1.6 3.7-1.9c7.7-5.6 7.5-5.6 9.6-7.2v-1.6c.1-1.4-1.1-2.6-2.6-2.6zm21.3-8h-26.6c-1.5 0-2.7 1.2-2.7 2.7v2.7h8c2.8 0 5 2.1 5.3 4.8v11.2h16c1.5 0 2.7-1.2 2.7-2.7v-16c0-1.5-1.2-2.7-2.7-2.7zm-2.6 10.7h-5.3v-5.3h5.3zm-29.4-8c0-2.9 2.4-5.3 5.3-5.3h18.7v-8c0-1.5-1.2-2.7-2.7-2.7h-26.6c-1.5 0-2.7 1.2-2.7 2.7v16h8z"/></svg>