<svg enable-background="new 0 0 48 48" viewBox="0 0 48 48" xmlns="http://www.w3.org/2000/svg"><path d="m23.9 2.4c.7.7 1.6 1.6 2.5 2.5.6.6 1.2 1.2 1.8 1.8h-8.8c.6-.6 1.2-1.2 1.8-1.8 1.1-1 2-1.8 2.7-2.5m-14.2 13.9v4.6l-2.5-2c.7-.8 1.5-1.6 2.5-2.6m28.5.1c.8.7 1.6 1.4 2.2 2l-2.2 1.7zm5.3 8v20.1c0 .6-.5 1.1-1.1 1.1h-36.8c-.6 0-1.1-.5-1.1-1.1v-19.3l4.5 3.5 3.8 3.1 7.6 5.9c1 .7 2 1.1 3.1 1.1s2.2-.4 3.1-1.1l8.4-6.6 3.8-3.1zm-19.6-24.4c-.6 0-1.2.2-1.7.7-1.6 1.6-4.2 4.1-6.9 6.7h-1.6c-1.9 0-3.4 1.6-3.4 3.4v1.4c-3.6 3.6-6.7 6.5-7 6.7l7 5.5v2.3l-8.1-6.4c-.1.4-.2.8-.2 1.3v22.7c0 1.9 1.6 3.5 3.5 3.5h36.8c1.9 0 3.5-1.6 3.5-3.5v-22.6c0-.7-.2-1.3-.6-1.9l-7.8 6.3v-2.3l6.5-5.2c-.1-.1-3-2.9-6.5-6.3v-1.6c0-1.9-1.6-3.4-3.4-3.4h-1.7c-2.6-2.6-5.3-5.2-6.9-6.7-.3-.4-.9-.6-1.5-.6zm-.4 36.4c-.6 0-1.2-.2-1.7-.6l-9.7-7.7v-17.3c0-1 .7-1.7 1.7-1.7h20.3c1 0 1.7.7 1.7 1.7v16.6l-10.6 8.4c-.5.4-1.1.6-1.7.6z"/><path d="m30.7 15.9h-13.6c-.5 0-.8-.4-.8-.8s.4-.8.8-.8h13.6c.5 0 .8.4.8.8.1.5-.4.8-.8.8z"/><path d="m30.7 21h-13.6c-.5 0-.8-.4-.8-.8s.4-.8.8-.8h13.6c.5 0 .8.4.8.8.1.4-.4.8-.8.8z"/><path d="m30.7 26.1h-13.6c-.5 0-.8-.4-.8-.8s.4-.8.8-.8h13.6c.5 0 .8.4.8.8s-.4.8-.8.8z"/></svg>