<svg enable-background="new 0 0 48 48" viewBox="0 0 48 48" xmlns="http://www.w3.org/2000/svg"><path d="m35.4 10.4v16.6c0 .4-.4.6-.7.6h-31.7c-.4 0-.6-.2-.6-.5v-16l13 10.3c1 1 2.3 1.1 3 1.1 1.1 0 2-.4 2.9-1zm1.9-4.6-17.4 13.8c-.5.4-1 .5-1.4.5-.5 0-1.1-.1-1.4-.5l-16.8-13.3c-.1.3-.2.7-.2 1.2v19.6c0 1.6 1.3 2.9 3 2.9h31.6c1.7 0 3.1-1.3 3.1-3v-19.5c0-.6-.3-1.2-.5-1.7z"/><path d="m29.6 6.8-11.1 9-11.3-9zm5-2.4h-31.6c-.7 0-1.3.2-1.8.7l16.6 13.3c.1.1.4.1.6.1s.4 0 .5-.1l17.1-13.7c-.4-.2-.9-.3-1.4-.3z"/><path d="m47.6 32c-.2-.4-.7-.5-1.1-.5h-1.2c-.7 0-1.3.6-1.4 1.3-.2 2-1.3 4-3.1 5.1-1 .7-2.3 1.1-3.7 1.1-1.6 0-3.1-.5-4.5-1.4l1.1-1.8c.5-.7.1-1.2-.6-1.2h-7.8c-.8 0-1.2.6-.8 1.3l3.2 7.1c.1.4.5.6.7.6s.5-.1.7-.5l1.2-1.8c1.9 1.3 4.2 2 6.5 2s4.5-.6 6.5-2c2.9-1.9 4.5-4.9 4.9-8.1-.3-.5-.4-.8-.6-1.2z"/><path d="m39.2 10.5v1.3l1.3-1.1c-.4-.1-.8-.2-1.3-.2z"/><path d="m32.8 33.6c.8 0 1.4.4 1.8 1 .2.5.2 1.1 0 1.6h4.5c1.7 0 3-1.3 3-3v-19.7c0-.6-.2-1.2-.5-1.7l-2.5 2v14.7c0 1.7-1.3 3-3 3h-31.5v1.6c0 1.7 1.3 3 3 3h15.6c-.1-.6-.1-1.2.2-1.7.4-.6 1.1-1 1.8-1z"/></svg>