<svg enable-background="new 0 0 48 48" viewBox="0 0 48 48" xmlns="http://www.w3.org/2000/svg"><path d="m36 8h-24c-6.6 0-12 5.4-12 12v17.3c0 1.5 1.2 2.7 2.7 2.7h42.7c1.5 0 2.7-1.2 2.7-2.7v-17.3c-.1-6.6-5.5-12-12.1-12zm-16 28h-16v-16c0-4.4 3.6-8 8-8s8 3.6 8 8zm24 0h-20v-16c0-3.1-1.2-5.9-3.1-8h15.1c4.4 0 8 3.6 8 8zm-5.3-17.3h-10c-.4 0-.7.3-.7.7v2.6c0 .4.3.7.7.7h6v2.7c0 .7.6 1.3 1.3 1.3h2.7c.7 0 1.3-.6 1.3-1.3v-5.4c0-.7-.6-1.3-1.3-1.3zm-23.4 0h-6.6c-.4 0-.7.3-.7.6v4c0 .4.3.7.7.7h6.7c.4 0 .7-.3.7-.7v-4c-.1-.3-.4-.6-.8-.6z"/></svg>