<svg enable-background="new 0 0 48 48" viewBox="0 0 48 48" xmlns="http://www.w3.org/2000/svg"><path d="m35 29.4v-.4c0-1.2.6-2.3 1.7-2.8.5-.2 1-.4 1.6-.4s1.1.1 1.6.5v-16c0-.7-.2-1.3-.6-1.8l-18.3 14.6c-.5.4-1 .6-1.6.6s-1.1-.2-1.6-.6l-17.6-14.1c-.1.3-.2.8-.2 1.2v20.8c0 1.8 1.4 3.2 3.2 3.2h23.9v-1.6c0-1.8 1.4-3.2 3.2-3.2z"/><path d="m19.9 21.8 18.1-14.4c-.4-.2-.8-.4-1.3-.4h-33.5c-.8 0-1.4.2-2 .7l17.6 14c.4.4.9.4 1.1.1z"/><path d="m47.3 32.9-8.2-5c-.2-.1-.6-.2-.8-.2s-.5.1-.7.2c-.5.2-.8.8-.8 1.4v1.9h-6.4c-.8 0-1.6.7-1.6 1.6v3.2c0 .8.7 1.6 1.6 1.6h6.4v1.9c0 .6.4 1.1.8 1.4.2.1.5.2.7.2s.6-.1.8-.2l8.2-5c.5-.2.7-.8.7-1.3 0-1-.2-1.5-.7-1.7z"/></svg>