<svg enable-background="new 0 0 48 48" viewBox="0 0 48 48" xmlns="http://www.w3.org/2000/svg"><path d="m16.6 33.2c.6-.6.6-1.6 0-2.2l-13.1-12.2c-.4.7-.7 1.6-.7 2.4v22c0 .8.2 1.6.6 2.3z"/><path d="m28.6 33.5c-.6-.6-1.8-1.1-2.6-1.1h-4c-.8 0-2 .5-2.6 1.1l-14.7 13.6c.8.6 1.8 1 2.9 1h33c1 0 1.9-.4 2.6-.8z"/><path d="m44.7 19.1-13.2 12.2c-.6.6-.6 1.6 0 2.2l13.1 12.2c.4-.7.6-1.6.6-2.4v-22c.1-.8-.2-1.6-.5-2.2z"/><path d="m7.9 18.2h32.9c1.1 0 2-.4 2.8-1l-18-16.8c-.6-.6-1.7-.6-2.3 0l-18.1 17c.8.6 1.6.8 2.7.8z"/></svg>