<svg enable-background="new 0 0 48 48" viewBox="0 0 48 48" xmlns="http://www.w3.org/2000/svg"><path d="m9.3 6.7h24v4h4v-4c0-2.2-1.8-4-4-4h-24c-2.2 0-4 1.8-4 4v12h4zm18.7 14.6h-24c-2.2 0-4 1.8-4 4v16c0 2.2 1.8 4 4 4h24c2.2 0 4-1.8 4-4v-16c0-2.2-1.8-4-4-4zm0 20h-24v-10c1.2.9 6.7 4.8 6.7 4.8 1.2.9 3.2 2.5 5.3 2.5s4.1-1.6 5.3-2.5c0 0 5.5-3.9 6.7-4.8zm0-14.9c-.2.2-9.3 6.8-9.8 7.1-.7.5-1.6 1.1-2.2 1.1-.8 0-1.9-.9-2.6-1.5-.3-.2-9.2-6.9-9.4-7v-.8h24zm16-13.1h-24c-2.2 0-4 1.8-4 4v1.3h4v-1.3h24v16h-9.3v4h9.3c2.2 0 4-1.8 4-4v-16c0-2.2-1.8-4-4-4zm-8 6.7v5.3h5.3v-5.3z"/></svg>