<svg enable-background="new 0 0 48 48" viewBox="0 0 48 48" xmlns="http://www.w3.org/2000/svg"><path d="m5.2 23.6 9 8.4-9 8.4zm-1.7-4.8c-.4.7-.7 1.6-.7 2.4v22c0 .8.2 1.6.6 2.3l13.2-12.2c.6-.6.6-1.6 0-2.2z"/><path d="m25.9 34.8c.2 0 .7.2 1 .4l11 10.3h-28.2l11.2-10.3c.1-.1.7-.4 1-.4zm0-2.4h-4c-.8 0-2 .5-2.6 1.1l-14.6 13.5c.8.6 1.8 1 2.9 1h33c1 0 1.9-.4 2.6-.8l-14.6-13.7c-.6-.6-1.8-1.1-2.7-1.1z"/><path d="m42.7 24.1v16.7l-8.9-8.4zm1.9-5-13.2 12.2c-.6.6-.6 1.6 0 2.2l13.1 12.2c.4-.7.6-1.6.6-2.4v-22c.1-.8-.1-1.6-.5-2.2z"/><path d="m24.5 2.6 14 13.2h-28.2zm-.1-2.6c-.4 0-.8.1-1.1.5l-18.1 16.9c.8.6 1.6.8 2.7.8h32.9c1.1 0 2-.4 2.8-1l-18-16.8c-.4-.2-.8-.4-1.2-.4z"/></svg>