<svg enable-background="new 0 0 48 48" viewBox="0 0 48 48" xmlns="http://www.w3.org/2000/svg"><path d="m20 20.3 18.2-14.4c-.5-.2-.8-.4-1.4-.4h-33.7c-.7 0-1.3.2-1.9.7l17.7 14.2c.4.2.8.2 1.1-.1z"/><path d="m31.8 23.6c1.8-1.2 3.8-1.9 6.1-1.9.7 0 1.4.1 2.2.2v-13.2c0-.7-.2-1.3-.6-1.8l-18.5 14.7c-.5.4-1 .6-1.6.6s-1.1-.2-1.6-.6l-17.6-14.2c-.1.4-.2.9-.2 1.2v20.8c0 1.8 1.4 3.2 3.2 3.2h24c-.2-3.4 1.5-6.9 4.6-9z"/><path d="m41.3 37.8c-.8.6-1.9.8-3.1.8s-2.6-.4-3.7-1.2l1-1.4c.4-.6.1-1-.6-1h-6.4c-.6 0-1 .5-.7 1.1l2.6 5.9c.1.4.4.5.6.5s.4-.1.6-.4l1-1.4c1.6 1.1 3.5 1.7 5.4 1.7 1.8 0 3.7-.6 5.4-1.7 3.1-2.2 4.6-5.8 4.1-9.2h-1.5c-1.2 0-2 0-2 0 .3 2.3-.5 4.9-2.7 6.3z"/><path d="m47.2 30.1c.6 0 1-.5.7-1.1l-2.6-5.9c-.1-.4-.4-.5-.6-.5s-.4.1-.6.4l-.8 1.6c-1.6-1.1-3.5-1.7-5.4-1.7-1.8 0-3.7.6-5.4 1.7-3.1 2.2-4.6 5.8-4 9.2h3.1.2c-.6-2.4.4-5 2.5-6.5.8-.6 1.9-.8 3.1-.8s2.6.4 3.7 1.2l-1 1.4c-.4.6-.1 1 .6 1z"/></svg>