<svg enable-background="new 0 0 48 48" viewBox="0 0 48 48" xmlns="http://www.w3.org/2000/svg"><path d="m37.7 27v-19.5c0-.6-.2-1.2-.5-1.7l-17.3 13.8c-.5.4-1 .5-1.4.5s-1.1-.1-1.4-.5l-16.9-13.3c-.1.3-.2.7-.2 1.2v19.6c0 1.6 1.3 2.9 3 2.9h31.6c1.7 0 3.1-1.3 3.1-3z"/><path d="m18.9 18.4 17-13.6c-.4-.2-.8-.4-1.3-.4h-31.6c-.7 0-1.3.2-1.8.7l16.6 13.3c.4.2.8.2 1.1 0z"/><path d="m47.5 32c-.2-.4-.7-.5-1.1-.5h-1.2c-.7 0-1.3.6-1.4 1.3-.2 2-1.3 4-3.1 5.1-1 .7-2.3 1.1-3.7 1.1-1.6 0-3.1-.5-4.5-1.4l1.1-1.8c.5-.7.1-1.2-.6-1.2h-7.8c-.8 0-1.2.6-.8 1.3l3.2 7.1c.1.4.5.6.7.6s.5-.1.7-.5l1.2-1.8c1.9 1.3 4.2 2 6.5 2s4.5-.6 6.5-2c2.9-1.9 4.5-4.9 4.9-8.1-.2-.5-.3-.8-.6-1.2z"/><path d="m39.1 10.5v1.3l1.3-1.1c-.3-.1-.8-.2-1.3-.2z"/><path d="m32.8 33.6c.8 0 1.4.4 1.8 1 .2.5.2 1.1 0 1.6h4.5c1.7 0 3-1.3 3-3v-19.7c0-.6-.2-1.2-.5-1.7l-2.5 2v14.7c0 1.7-1.3 3-3 3h-31.6v1.6c0 1.7 1.3 3 3 3h15.6c-.1-.6-.1-1.2.2-1.7.4-.6 1.1-1 1.8-1z"/></svg>