<svg enable-background="new 0 0 48 48" viewBox="0 0 48 48" xmlns="http://www.w3.org/2000/svg"><path d="m28.8 2.4c7.9 0 14.4 6.5 14.4 14.4 0 9.2-10.2 22.4-14.4 27.5-5.3-6.2-14.4-19-14.4-27.5 0-7.9 6.5-14.4 14.4-14.4m0 22.8c4.7 0 8.4-3.7 8.4-8.4s-3.7-8.4-8.4-8.4-8.4 3.7-8.4 8.4 3.7 8.4 8.4 8.4m0-25.2c-9.2 0-16.8 7.6-16.8 16.8 0 12.6 16.8 31.2 16.8 31.2s16.8-18.6 16.8-31.2c0-9.2-7.6-16.8-16.8-16.8zm0 22.8c-3.4 0-6-2.6-6-6s2.6-6 6-6 6 2.6 6 6-2.6 6-6 6zm-14.4-22.1c-7 2-12 8.5-12 16.1 0 12.6 16.8 31.2 16.8 31.2l2.4-2.9c-2.2-2.7-14.4-17.5-14.4-28.3 0-6.4 2.8-12.1 7.2-16.1z"/></svg>