<svg enable-background="new 0 0 48 48" viewBox="0 0 48 48" xmlns="http://www.w3.org/2000/svg"><path d="m24 0c-9.8 0-18 8.2-18 18 0 7.2 2.4 9.3 16.2 29.1 1 1.2 2.8 1.2 3.6 0 13.8-19.7 16.2-21.9 16.2-29.1 0-9.8-8.1-18-18-18zm6 11.1c1.4 0 2.5 1.1 2.5 2.5s-1.1 2.5-2.5 2.5-2.5-1.1-2.5-2.5 1.1-2.5 2.5-2.5zm-12 0c1.4 0 2.5 1.1 2.5 2.5s-1.1 2.5-2.5 2.5-2.5-1.1-2.5-2.5 1.1-2.5 2.5-2.5zm15.3 13.1c-2.3 2.8-5.8 4.3-9.3 4.3s-7.1-1.6-9.3-4.3c-.5-.6-.5-1.6.1-2.2.6-.5 1.6-.5 2.2.1 1.8 2 4.3 3.2 7.1 3.2s5.4-1.2 7.1-3.2c.6-.6 1.4-.7 2.2-.1.4.7.5 1.5-.1 2.2z"/></svg>