<svg enable-background="new 0 0 48 48" viewBox="0 0 48 48" xmlns="http://www.w3.org/2000/svg"><path d="m47.5 8-4.1-4.1c-.6-.6-1.3-.9-2.2-.9h-14.3v-1.4c0-.8-.7-1.6-1.6-1.6h-3c-.8 0-1.6.7-1.6 1.6v1.6h-15.4c-1.2 0-2.3 1-2.3 2.3v7.5c0 1.2 1 2.3 2.3 2.3h36c.8 0 1.6-.4 2.2-.8l4.1-4.1c.5-.9.5-1.9-.1-2.4zm-26.5 38.5c0 .8.7 1.6 1.6 1.6h3c.8 0 1.6-.7 1.6-1.6v-10.5h-6v10.5zm21.7-25.5h-15.7v-3h-6v3h-14.3c-.8 0-1.6.4-2.2.8l-4.1 4.1c-.6.6-.6 1.6 0 2.2l4.1 4.1c.6.5 1.3.8 2.2.8h36c1.2 0 2.3-1 2.3-2.3v-7.5c0-1.2-1-2.2-2.3-2.2z"/></svg>