<svg enable-background="new 0 0 48 48" viewBox="0 0 48 48" xmlns="http://www.w3.org/2000/svg"><path d="m24 7.2c6.6 0 12 5.4 12 12 0 2.6-.4 4.1-2.6 7.6l1.9 1.4c2.5-4 3.1-5.9 3.1-9.1 0-7.9-6.5-14.4-14.4-14.4-4.7 0-8.8 2.3-11.4 5.6l1.9 1.6c2.2-2.8 5.7-4.7 9.5-4.7zm5.5 16.6c1.1-1.2 1.7-2.9 1.7-4.6 0-4.1-3.1-7.2-7.2-7.2-2.4 0-4.4 1.1-5.8 2.9l1.9 1.4c.8-1.2 2.3-1.9 3.8-1.9 2.6 0 4.8 2.2 4.8 4.8 0 1.2-.5 2.3-1.2 3.1zm-1.5 11c-1.2 1.7-2.5 3.5-4 5.6-1.4-2.2-2.8-4-4-5.6-7.3-10.3-8-11.5-8-15.6 0 0 0 0 0-.1l-2.3-1.8c0 .7-.1 1.3-.1 1.9 0 5.8 1.9 7.4 13 23.3.4.5 1 .7 1.4.7.6 0 1.1-.2 1.4-.7 2.3-3.4 4.2-6 5.8-8.3l-1.9-1.4c-.4.6-.9 1.3-1.3 2zm19.8 6.4-46-36.3c-.4-.2-.7-.1-.9.1l-.8 1c-.1.2-.1.6.1.8l46.1 36.3c.2.2.6.1.8-.1l.7-1c.3-.2.2-.6 0-.8z"/></svg>