<svg enable-background="new 0 0 48 48" viewBox="0 0 48 48" xmlns="http://www.w3.org/2000/svg"><path d="m24 0c-9.8 0-18 8.2-18 18 0 7.2 2.4 9.3 16.2 29.1.5.6 1.1 1 1.8 1s1.3-.4 1.8-1c13.8-19.8 16.2-21.9 16.2-29.1 0-9.8-8.1-18-18-18zm0 44.3c-1.8-2.6-3.5-4.9-4.9-6.9-9.1-12.8-10.1-14.4-10.1-19.4 0-8.3 6.7-15 15-15s15 6.7 15 15c0 4.9-1 6.6-10.1 19.4-1.4 2-3.1 4.4-4.9 6.9zm-.8-21.7h1.6c.4 0 .7-.4.7-.7l.5-10.6c0-.5-.4-.8-.7-.8h-2.9c-.5 0-.7.4-.7.8l.6 10.5c.1.4.5.8.9.8zm.8 2.1c-1.2 0-2.3 1-2.3 2.3 0 1.2 1 2.3 2.3 2.3s2.3-1 2.3-2.3c0-1.2-1.1-2.3-2.3-2.3z"/></svg>