<svg enable-background="new 0 0 48 48" viewBox="0 0 48 48" xmlns="http://www.w3.org/2000/svg"><path d="m46.7 15.9c-.1 0-.4 0-.5.1l-14.2 5.3-.8-.3c1.9-2.9 3.5-5.9 3.5-8.2 0-5.7-4.8-10.2-10.7-10.2s-10.7 4.6-10.7 10.2c0 1 .4 2.2.8 3.4l-12.5 4.4c-1 .5-1.7 1.4-1.7 2.5v20.9c0 .7.6 1.3 1.3 1.3.1 0 .4 0 .5-.1l14.3-5.2 14.3 5c1.1.4 2.3.4 3.4 0l12.6-4.4c1-.4 1.7-1.4 1.7-2.5v-20.8c.1-.8-.5-1.4-1.3-1.4zm-32.1 21.8-12 4.4-.1-19 12.1-4.2zm9.4-32.5c4.4 0 8.1 3.4 8.1 7.6 0 2.3-3.1 7.5-8.1 13.1-4.8-5.6-8-10.8-8-13.1 0-4.1 3.6-7.6 8-7.6zm6.7 37.2-13.3-4.7v-16c2 3 4.3 5.7 5.7 7.2.2.4.6.5 1.1.5s.7-.1 1.1-.5c1.1-1.2 2.8-3.2 4.6-5.5l1.1.4zm2.7 0v-18.8l12-4.4.1 19zm-7.3-29.1c0-1.1-.8-2-2-2s-2 .8-2 2c0 1.1.8 2 2 2s2-.9 2-2z"/></svg>