<svg enable-background="new 0 0 48 48" viewBox="0 0 48 48" xmlns="http://www.w3.org/2000/svg"><path d="m24 2.6c-5.8 0-10.6 4.7-10.6 10.6 0 4.7 6.8 13.2 9.5 16.3.5.6 1.4.6 2 0 2.6-3.1 9.6-11.6 9.6-16.3.1-5.9-4.7-10.6-10.5-10.6zm0 14.1c-1.9 0-3.5-1.6-3.5-3.5s1.6-3.5 3.5-3.5 3.5 1.6 3.5 3.5-1.6 3.5-3.5 3.5zm-22.3 3.9c-1 .5-1.7 1.4-1.7 2.5v20.9c0 1 1 1.6 1.8 1.2l11.5-5.2v-19.5c-.7-1.3-1.3-2.5-1.8-3.8zm22.3 12c-1.2 0-2.3-.5-3-1.4-1.7-1.9-3.4-4.1-4.9-6.4v15.2l16 5.3v-20.5c-1.6 2.3-3.4 4.4-4.9 6.4-.9 1-2 1.4-3.2 1.4zm22.2-16.5-11.5 5.3v24l11.6-4.7c1-.4 1.7-1.4 1.7-2.5v-20.9c0-.9-1-1.6-1.8-1.2z"/></svg>