<svg enable-background="new 0 0 48 48" viewBox="0 0 48 48" xmlns="http://www.w3.org/2000/svg"><path d="m24 0c-9.8 0-18 8.2-18 18 0 7.2 2.4 9.3 16.2 29.1 1 1.2 2.8 1.2 3.6 0 13.8-19.7 16.2-21.9 16.2-29.1 0-9.8-8.1-18-18-18zm0 33c-1.7 0-3-1.3-3-3s1.3-3 3-3 3 1.3 3 3-1.3 3-3 3zm2.5-10.6v.1c0 .8-.7 1.4-1.4 1.4h-1.6c-.8 0-1.4-.7-1.4-1.4v-1.5c0-.8.5-1.7 1.2-2 2.9-1.4 4.8-2.5 4.8-4 0-1.8-1.3-3.7-3.7-3.7-1.7 0-3.1 1.1-3.6 2.6-.3.6-.8 1.1-1.5 1.1h-1.6c-1 0-1.7-.8-1.4-1.8.8-3.7 4.1-6.4 8-6.4 5.2 0 8.3 4.2 8.3 8.3-.1 3.7-3.2 5.8-6.1 7.3z"/></svg>