<svg enable-background="new 0 0 48 48" viewBox="0 0 48 48" xmlns="http://www.w3.org/2000/svg"><path d="m41.3 18c.8 0 1.6-.4 2.2-1.1l4.1-5c.6-.7.6-1.9 0-2.6l-4.1-5c-.6-.7-1.3-1.1-2.2-1.1h-15.9v-2.4c0-.4-.2-.7-.7-.7h-1.6c-.4 0-.7.4-.7.7v2.3h-17.1c-1.2 0-2.3 1.2-2.3 2.7v9.3c0 1.7 1 2.9 2.3 2.9h17.2v3h-15.8c-.8 0-1.6.4-2.2 1.1l-4.1 5c-.6.7-.6 1.9 0 2.6l4.1 5c.6.9 1.4 1.3 2.2 1.3h15.8v11.2c0 .4.4.7.7.7h1.6c.4 0 .7-.4.7-.7v-11.2h17.2c1.2 0 2.3-1.2 2.3-2.7v-9.3c0-1.6-1-2.7-2.3-2.7h-17.3v-3.3zm.6 15h-35l-3.6-4.5 3.6-4.5h35zm-35.8-26.9h35l3.6 4.5-3.6 4.5h-35z"/></svg>