<svg enable-background="new 0 0 48 48" viewBox="0 0 48 48" xmlns="http://www.w3.org/2000/svg"><path d="m30 9v22.5h-12v-22.5zm4.5-9h-20.9c-2.5 0-4.6 2.1-4.6 4.6v38.9c0 2.5 2 4.5 4.5 4.5h20.9c2.5 0 4.5-2 4.5-4.5v-38.9c.1-2.5-2-4.6-4.4-4.6zm-20.9 44.9c-.8 0-1.6-.7-1.6-1.6v-38.7c0-.8.7-1.6 1.6-1.6h20.9c.8 0 1.6.7 1.6 1.6v38.9c0 .8-.7 1.6-1.6 1.6h-20.9zm18.3-38.9h-15.8c-.6 0-1.1.5-1.1 1.1v26.2c0 .6.5 1.1 1.1 1.1h15.7c.6 0 1.1-.5 1.1-1.1v-26.2c.1-.6-.4-1.1-1-1.1zm-4.6 33h-6.7c-.6 0-1.1.5-1.1 1.1v.7c0 .6.5 1.1 1.1 1.1h6.7c.6 0 1.1-.5 1.1-1.1v-.8c.1-.6-.5-1-1.1-1z"/></svg>