<svg enable-background="new 0 0 48 48" viewBox="0 0 48 48" xmlns="http://www.w3.org/2000/svg"><path d="m38.4 2.4c1.3 0 2.4 1.1 2.4 2.4v38.4c0 1.3-1.1 2.4-2.4 2.4h-28.8c-1.3 0-2.4-1.1-2.4-2.4v-38.4c0-1.3 1.1-2.4 2.4-2.4zm-14.4 30c7.9 0 14.4-6.5 14.4-14.4s-6.5-14.4-14.4-14.4-14.4 6.5-14.4 14.4 6.5 14.4 14.4 14.4m-14.4 10.8h2.4 24 2.4v-2.4-4.8-2.4h-2.4-24-2.4v2.4 4.8zm28.8-43.2h-28.8c-2.6 0-4.8 2.2-4.8 4.8v38.4c0 2.6 2.2 4.8 4.8 4.8h28.8c2.6 0 4.8-2.2 4.8-4.8v-38.4c0-2.6-2.2-4.8-4.8-4.8zm-14.4 30c-6.6 0-12-5.4-12-12s5.4-12 12-12 12 5.4 12 12-5.4 12-12 12zm-12 10.8v-4.8h24v4.8zm12-32.4c-1 1.4-1.8 3-2.3 4.8h4.6c-.5-1.7-1.3-3.4-2.3-4.8zm3.1.5c.7 1.3 1.3 2.8 1.7 4.3h3.6c-1.2-2-3.1-3.5-5.3-4.3zm-6.2 0c-2.2.7-4.1 2.3-5.2 4.3h3.5c.4-1.6 1-2.9 1.7-4.3zm12.5 6.7h-4.1c.1.8.1 1.6.1 2.4s-.1 1.6-.1 2.4h4.1c.2-.7.4-1.6.4-2.4s-.2-1.7-.4-2.4zm-6.5 0h-5.6c-.2.7-.3 1.6-.3 2.4s.1 1.6.2 2.4h5.6c.1-.8.2-1.6.2-2.4s0-1.7-.1-2.4zm-8.1 0h-4.1c-.2.7-.4 1.6-.4 2.4s.1 1.7.4 2.4h4.1c-.1-.8-.1-1.6-.1-2.4s.1-1.6.1-2.4zm13.5 7.2h-3.5c-.4 1.6-1 2.9-1.7 4.3 2.2-.7 4.1-2.3 5.2-4.3zm-6 0h-4.6c.5 1.7 1.3 3.4 2.3 4.8 1-1.4 1.8-3 2.3-4.8zm-7.1 0h-3.5c1.2 1.9 3 3.5 5.2 4.3-.7-1.3-1.2-2.7-1.7-4.3z"/></svg>