<svg enable-background="new 0 0 48 48" viewBox="0 0 48 48" xmlns="http://www.w3.org/2000/svg"><path d="m9.6 0c-2.6 0-4.8 2.2-4.8 4.8v38.4c0 2.6 2.2 4.8 4.8 4.8h28.8c2.6 0 4.8-2.2 4.8-4.8v-38.4c0-2.6-2.2-4.8-4.8-4.8zm14.4 7.2c6.6 0 12 5.4 12 12s-5.4 12-12 12-12-5.4-12-12 5.4-12 12-12zm0 2.4c-1 1.4-1.8 3-2.3 4.8h4.6c-.5-1.7-1.3-3.4-2.3-4.8zm-3.1.5c-2.2.7-4.1 2.3-5.2 4.3h3.5c.4-1.6 1-2.9 1.7-4.3zm6.2 0c.7 1.3 1.3 2.8 1.7 4.3h3.6c-1.2-2-3.1-3.5-5.3-4.3zm-12.3 6.7c-.2.7-.4 1.6-.4 2.4s.1 1.7.4 2.4h4.1c-.1-.8-.1-1.6-.1-2.4s.1-1.6.1-2.4zm6.4 0c-.1.7-.2 1.6-.2 2.4s.1 1.6.2 2.4h5.6c.1-.8.2-1.6.2-2.4s-.1-1.7-.2-2.4zm8.1 0c.1.8.1 1.6.1 2.4s-.1 1.6-.1 2.4h4.1c.2-.7.4-1.6.4-2.4s-.1-1.7-.4-2.4zm-13.6 7.2c1.2 1.9 3 3.5 5.2 4.3-.7-1.3-1.2-2.8-1.7-4.3zm6 0c.5 1.7 1.3 3.4 2.3 4.8 1-1.4 1.8-3 2.3-4.8zm7.1 0c-.4 1.6-1 2.9-1.7 4.3 2.2-.7 4.1-2.3 5.2-4.3zm-16.8 12h24v4.8h-24z"/></svg>