<svg enable-background="new 0 0 48 48" viewBox="0 0 48 48" xmlns="http://www.w3.org/2000/svg"><path d="m15.1 47.6c-12.1-12.2-12.1-32 0-44.1.5-.5 1.3-.6 2-.2l6.1 3.8c.7.4 1 1.2.6 1.9l-3 7.6c-.2.7-1 1.1-1.7 1l-5.2-.6c-1.9 5.5-1.9 11.5 0 16.8l5.3-.5c.7-.1 1.4.4 1.7 1l3 7.6c.2.7 0 1.6-.6 1.9l-6.1 3.8c-.8.6-1.6.4-2.1 0zm14.1-38.6c1.1 1.9 1.1 4.2 0 6.1-.4.6-1.2.7-1.8.2l-.6-.5c-.4-.4-.5-1-.2-1.3.5-.8.5-1.9 0-2.8-.2-.5-.1-1 .2-1.3l.6-.4c.6-.9 1.4-.7 1.8 0zm8.6-8.7c5.6 6.7 5.6 16.5 0 23.2-.4.5-1.2.5-1.7.1l-.6-.5c-.5-.4-.5-1.1-.1-1.6 4.7-5.6 4.7-13.7 0-19.2-.4-.4-.4-1 .1-1.5l.6-.5c.5-.4 1.2-.4 1.7 0zm-4.3 4.2c3.4 4.3 3.4 10.5 0 14.8-.4.5-1.2.6-1.7.1l-.6-.4c-.4-.4-.5-1.1-.1-1.4 2.5-3.2 2.5-7.8 0-11.1-.4-.5-.3-1.1.1-1.5l.6-.5c.5-.4 1.2-.4 1.7 0z"/></svg>