<svg enable-background="new 0 0 48 48" viewBox="0 0 48 48" xmlns="http://www.w3.org/2000/svg"><path d="m24 5.1c-9.1 0-17.2 3.6-23.3 9.3-.4.2-.6.8-.6 1.3 0 .6.2 1.1.6 1.4l4.9 4.9c.4.4.8.6 1.4.6.5 0 1.1-.2 1.4-.6 1.6-1.4 3.4-2.8 5.3-3.7.6-.4 1.1-1 1.1-1.8v-6.2c2.9-1 6-1.4 9.2-1.4s6.3.5 9.2 1.4v6.2c0 .7.5 1.4 1.1 1.8 1.9 1 3.7 2.3 5.4 3.7.4.4.8.6 1.4.6s1.1-.2 1.4-.6l4.9-4.9c.4-.4.6-.8.6-1.4s-.2-1.1-.6-1.4c-6.2-5.7-14.3-9.2-23.4-9.2zm-6 7.9v6s-12 9.9-12 15.9v8h35.9v-8c0-6-12-15.9-12-15.9v-6h-4v4h-4v-4zm6 10c4.4 0 8 3.6 8 8s-3.6 8-8 8-8-3.6-8-8c0-4.5 3.6-8 8-8zm0 3c-2.8 0-5 2.3-5 5 0 2.8 2.3 4.9 5 4.9s5-2.3 5-5-2.3-4.9-5-4.9z"/></svg>