<svg enable-background="new 0 0 48 48" viewBox="0 0 48 48" xmlns="http://www.w3.org/2000/svg"><path d="m40.4 43.9c0 .7-.6 1.4-1.4 1.4h-32.7c-.7 0-1.4-.6-1.4-1.4v-.6h30.3c1.6 0 2.8-1.2 2.8-2.8v-37.8c0-1.6-1.2-2.8-2.8-2.8h-30.3c-1.6 0-2.8 1.2-2.8 2.8v37.7 3.4c0 2.3 1.9 4.2 4.2 4.2h32.6c2.3 0 4.2-1.9 4.2-4.2v-5.9h-2.8zm-30.4-29.2c0-.7.4-1.4 1-1.9.6-.6 1.2-1.2 1.8-1.8.8-.7 1.8-.7 2.5 0 .5.5 1 1 1.4 1.4.5.5 1 1 1.4 1.4.8.8.8 1.8 0 2.6-.6.6-1.2 1.2-1.8 1.8-.1.1-.1.2-.1.5.4 1 1 1.8 1.6 2.5 1.3 1.6 2.8 3 4.5 4.1.4.2.7.4 1.2.6.2.1.4.1.5-.1.6-.6 1.2-1.2 1.8-1.8.7-.7 1.8-.7 2.5 0l2.9 2.9c.8.8.8 1.8 0 2.6-.5.6-1.1 1.1-1.6 1.7-.7.8-1.7 1.1-2.8 1.1-1.6-.1-3-.6-4.3-1.3-3.1-1.4-5.7-3.6-7.8-6.1-1.6-1.9-3-4.1-3.8-6.4-.6-1.3-.9-2.4-.9-3.8z"/><path d="m44.2 15.8h-3.7v8.3h3.7c1 0 1.7-.7 1.7-1.7v-4.9c0-.9-.7-1.7-1.7-1.7z"/><path d="m44.2 26.8h-3.7v8.3h3.7c1 0 1.7-.7 1.7-1.7v-4.9c0-.9-.7-1.7-1.7-1.7z"/><path d="m44.2 4.9h-3.7v8.3h3.7c1 0 1.7-.7 1.7-1.7v-4.9c0-1-.7-1.7-1.7-1.7z"/></svg>