<svg enable-background="new 0 0 48 48" viewBox="0 0 48 48" xmlns="http://www.w3.org/2000/svg"><path d="m35.6 9.6c3.6 1.4 6.9 3.5 9.9 6.1l-4.4 4.4c-1.9-1.7-3.7-2.9-5.5-3.8v-6zm-23.2.2v.6 6c-1.8 1-3.7 2.3-5.4 3.8l-4.3-4.3c2.9-2.7 6.2-4.8 9.7-6.1m15.2 9.5v.7l.8.7c4.7 3.8 11.1 10.8 11.1 14.1v5.6h-31.1v-5.6c0-3.4 6.5-10.3 11.1-14.1l.8-.7v-.7h1.7 4zm-3.6 20.1c4.7 0 8.4-3.7 8.4-8.4s-3.7-8.4-8.4-8.4-8.4 3.7-8.4 8.4 3.7 8.4 8.4 8.4m0-9.7c.7 0 1.3.6 1.3 1.3s-.6 1.3-1.3 1.3-1.3-.6-1.3-1.3.6-1.3 1.3-1.3m0-24.6c-9.1 0-17.2 3.6-23.3 9.3-.4.2-.6.8-.6 1.3 0 .6.2 1.1.6 1.4l4.9 4.9c.4.4.8.6 1.4.6.5 0 1.1-.2 1.4-.6 1.6-1.4 3.4-2.8 5.3-3.7.6-.4 1.1-1 1.1-1.8v-6.2c2.9-1 6-1.4 9.2-1.4s6.3.5 9.2 1.4v6.2c0 .7.5 1.4 1.1 1.8 1.9 1 3.7 2.3 5.4 3.7.4.4.8.6 1.4.6s1.1-.2 1.4-.6l4.9-4.9c.4-.4.6-.8.6-1.4s-.2-1.1-.6-1.4c-6.2-5.7-14.3-9.2-23.4-9.2zm6 7.9h-4v4h-4v-4h-4v6s-12 9.9-12 15.9v8h35.9v-8c0-6-12-15.9-12-15.9v-6zm-6 24c-3.4 0-6-2.6-6-6s2.6-6 6-6 6 2.6 6 6-2.7 6-6 6zm0-9.6c-2 0-3.7 1.7-3.7 3.7s1.7 3.7 3.7 3.7 3.7-1.7 3.7-3.7c0-2.2-1.7-3.7-3.7-3.7z"/></svg>