<svg enable-background="new 0 0 48 48" viewBox="0 0 48 48" xmlns="http://www.w3.org/2000/svg"><path d="m12 2c.5 0 .7.2.7.7 0 3.4.6 6.9 1.8 10.2 0 .2 0 .6-.2.7l-5.9 5.9-1.1 1.1.7 1.2c4.1 8.1 10.5 14.4 18.4 18.4l1.3.7 1.1-1.1 5.9-5.9c.1-.1.2-.1.4-.1h-.1c3.3 1.1 6.8 1.6 10.1 1.6.4 0 .5.1.5.2.1.1.1.2.1.2v.1.1 9.4c0 .5-.2.7-.7.7-23.9.1-43.3-19.3-43.3-43.2 0-.5.2-.7.7-.7h9.6m0-2.2h-9.4c-1.5 0-2.7 1.2-2.7 2.7 0 25 20.3 45.3 45.3 45.3 1.5 0 2.7-1.2 2.7-2.7v-9.4c.1-1.4-1.1-2.6-2.6-2.6-3.3 0-6.6-.6-9.5-1.5-.2-.1-.6-.1-.8-.1-.7 0-1.3.2-1.9.8l-5.9 5.9c-7.6-3.9-13.7-10.1-17.6-17.6l5.9-5.9c.7-.7.9-1.8.7-2.7-1.1-3-1.6-6.3-1.6-9.6.1-1.4-1.1-2.6-2.6-2.6z"/><path d="m21.2 15.9h3.4v3.4h-3.4z"/><path d="m23.5 16.9v1.4h-1.4v-1.4zm2-2h-5.4v5.4h5.4z"/><path d="m31.7 15.9h3.4v3.4h-3.4z"/><path d="m34.2 16.9v1.4h-1.4v-1.4zm2-2h-5.4v5.4h5.4z"/><path d="m42.5 15.9h3.4v3.4h-3.4z"/><path d="m44.9 16.9v1.4h-1.4v-1.4zm1.9-2h-5.4v5.4h5.4z"/></svg>