<svg enable-background="new 0 0 48 48" viewBox="0 0 48 48" xmlns="http://www.w3.org/2000/svg"><path d="m35.6 20.5c-.2 0-.4.2-.6.2-.2.1-.5.1-.7.2-.4 0-.5-.1-.6-.4 0-.2-.1-.5 0-.7 0-.5.1-1 .2-1.4.2-1.4.5-2.8.7-4.2 0-.4.1-.7.1-1.1 0-.5-.4-.7-.7-.7-.6 0-1.3 0-1.9 0s-1.2 0-1.8 0c-.1 0-.4 0-.5 0-.2 0-.4.2-.5.4 0 .1.1.4.4.5.2 0 .4.1.7.1.5 0 .7.2.7.7v.2c-.2 1.2-.4 2.4-.7 3.7-.1.7-.2 1.4-.4 2-.1 1.1.8 2 1.7 2 .5 0 1 .1 1.4.1 1.1 0 1.9-.5 2.6-1.2.1-.1.2-.4.2-.5.3.2.1 0-.3.1z"/><path d="m43.6 4.4c-5.9-5.9-15.5-5.9-21.4 0-5.6 5.6-5.9 14.8-.6 20.6l.1.1c-.6 1.2-1.6 2.8-3.1 3.5-.5.2-.4 1.1.1 1.1 1.7.2 4.2 0 6.5-1.7 5.8 3.4 13.3 2.6 18.4-2.4 5.9-5.7 5.9-15.3 0-21.2zm-10.7 22.4c-6.4 0-11.5-5.2-11.5-11.5s5.1-11.7 11.5-11.7 11.5 5.2 11.5 11.5-5 11.7-11.5 11.7z"/><path d="m6.2 16.6s.1 0 .2.2h.1c.5.4 1 .8 1.4 1.3.2.2.5.5.7.8l2.2 2.2c.1.1.2.2.2.4 0 .1-.1.2-.2.4-.4.4-.6.7-1 1-.6.6-1.1 1.2-1.7 1.7h.1c-.8.8-1.1 1.9-.7 3.1v.1.1c.5 1.5 1.5 3.1 2.7 4.5 2.4 2.9 4.9 5 7.6 6.7.4.2.7.4 1.1.6.2.1.4.2.6.4.5.4 1.1.6 1.7.6s1.3-.1 2.2-1l2.6-2.7c.1-.1.2-.2.2-.2s.1 0 .2.2c1.6 1.6 3 3 4.6 4.4.2.2.2.4.2.4s0 .1-.2.4-.5.5-.7.7c-.6.6-1.3 1.2-1.9 1.9-.6.6-1.2.8-2 .8-.1 0-.2 0-.2 0-1.9-.2-3.8-.7-5.9-1.8-4.3-2-8.2-5.2-11.4-9-2.5-3-4.3-6-5.6-9.4-.7-1.8-1-3.1-1-4.4.1-.6.4-1.2.7-1.6l2.8-2.8zm0-2.4c-.7 0-1.3.4-2 1-1 .8-1.8 1.7-2.8 2.6-.8.8-1.3 1.9-1.4 3.1-.1 1.9.4 3.7 1.1 5.5 1.4 3.7 3.5 7 6 10 3.5 4.1 7.6 7.3 12.2 9.6 2.2 1.1 4.3 1.8 6.7 2h.5c1.4 0 2.8-.5 3.8-1.7.7-1 1.7-1.7 2.5-2.5 1.2-1.3 1.2-2.8 0-4.1-1.6-1.4-3-2.9-4.6-4.4-.6-.6-1.3-1-2-1s-1.3.4-1.9 1c-1 1-1.8 1.8-2.8 2.8-.1.1-.2.2-.5.2-.1 0-.2 0-.2-.1-.6-.4-1.2-.6-1.8-1-2.6-1.7-4.9-3.8-7-6.2-1-1.2-1.8-2.5-2.4-4-.1-.4-.1-.5.1-.7 1-.8 1.8-1.8 2.8-2.8 1.3-1.3 1.3-2.8 0-4.1-.7-.7-1.4-1.4-2.2-2.2-.6-.6-1.3-1.5-2.1-2.2-.6-.6-1.4-.8-2-.8z"/><path d="m33.2 11.6c1.1 0 1.9-.8 1.9-1.9s-.8-2-1.9-2-1.9.8-2 1.9c.1 1.2 1 2 2 2z"/></svg>