<svg enable-background="new 0 0 48 48" viewBox="0 0 48 48" xmlns="http://www.w3.org/2000/svg"><path d="m.8 12h8.2v8.3c0 .3.4.7.8.7h1.4c.4 0 .7-.4.7-.7v-8.3h8.3c.4 0 .7-.4.7-.7v-1.4c0-.4-.4-.7-.7-.7h-8.2v-8.4c0-.4-.3-.8-.7-.8h-1.4c-.4 0-.7.4-.7.8v8.2h-8.4c-.4 0-.7.4-.7.7v1.4c0 .6.3.9.7.9zm44.9-9.7-9.5-2.2c-1.3-.4-2.8.4-3.4 1.7l-4.2 10.2c-.5 1.2-.1 2.6.8 3.5l5 4.1c-3.2 6.5-8.5 11.7-15 15l-4.1-5c-.8-1-2.3-1.3-3.5-.8l-10.1 4.2c-1.3.6-2 1.9-1.7 3.4l2.2 9.5c.4 1.1 1.6 2.1 3 2.1 23.6 0 42.8-19.2 42.8-42.8 0-1.4-1-2.6-2.3-2.9zm-40.5 42.7-2.2-9.4 10.1-4.3 5.5 6.8c9.7-4.6 15-9.8 19.5-19.4l-6.8-5.5 4.3-10.1 9.4 2.2c0 21.8-17.9 39.7-39.8 39.7z"/></svg>