<svg enable-background="new 0 0 48 48" viewBox="0 0 48 48" xmlns="http://www.w3.org/2000/svg"><path d="m20.2 33.4-3.7-4.6c-.5-.6-1.3-.8-2-.5l-8.5 3.6c-.8.4-1.2 1.2-1.1 2l1.8 7.8c.1.8.8 1.4 1.7 1.4 7.6 0 14.5-2.4 20.3-6.5l-6-4.7c-.9.6-1.7 1.1-2.5 1.5zm27.3 5.7-11.9-9.1c4.7-6 7.6-13.4 7.6-21.6 0-.8-.6-1.6-1.4-1.8l-7.7-1.8c-.8-.2-1.7.2-2 1.1l-3.6 8.4c-.4.7-.1 1.6.5 2l4.6 3.7c-1 1.9-2 3.7-3.5 5.4l-26.6-20.3c-.6-.4-1.3-.4-1.7.2l-1.6 1.9c-.3.5-.2 1.2.3 1.7l44.1 34.1c.5.4 1.3.4 1.7-.2l1.4-1.9c.5-.6.4-1.3-.2-1.8z"/></svg>