<svg enable-background="new 0 0 48 48" viewBox="0 0 48 48" xmlns="http://www.w3.org/2000/svg"><path d="m10.7 37.4h5.3c1.4 0 2.6-1.2 2.6-2.6v-29.6c0-1.4-1.2-2.6-2.6-2.6h-5.3c-1.5 0-2.7 1.2-2.7 2.6v29.3c0 1.6 1.2 2.9 2.7 2.9zm33.4-32.2h-22.7v29.3c0 3-2.4 5.3-5.3 5.3h-5.3c-3 0-5.3-2.4-5.3-5.3v-29.3h-1.6c-2.1 0-3.9 1.8-3.9 4.1v32.1c0 2.2 1.8 4 4 4h40c2.2 0 4-1.8 4-4v-32.1c.1-2.3-1.7-4.1-3.9-4.1zm-12 33.5c0 .7-.6 1.3-1.3 1.3h-2.6c-.7 0-1.3-.6-1.3-1.3v-2.7c0-.7.6-1.3 1.3-1.3h2.6c.7 0 1.3.6 1.3 1.3zm0-10.7c0 .7-.6 1.3-1.3 1.3h-2.6c-.7 0-1.3-.6-1.3-1.3v-2.6c0-.7.6-1.3 1.3-1.3h2.6c.7 0 1.3.6 1.3 1.3zm10.7 10.7c0 .7-.6 1.3-1.3 1.3h-2.6c-.7 0-1.3-.6-1.3-1.3v-2.7c0-.7.6-1.3 1.3-1.3h2.6c.7 0 1.3.6 1.3 1.3zm0-10.7c0 .7-.6 1.3-1.3 1.3h-2.6c-.7 0-1.3-.6-1.3-1.3v-2.6c0-.7.6-1.3 1.3-1.3h2.6c.7 0 1.3.6 1.3 1.3zm0-9.3h-16.1v-8.1h16v8.1z"/></svg>