<svg enable-background="new 0 0 48 48" viewBox="0 0 48 48" xmlns="http://www.w3.org/2000/svg"><path d="m35.2 2.4c.2 0 .4.1.4.4v37.8c0 .2-.1.4-.4.4h-30.3-.4v-.5-37.8c0-.2.1-.4.4-.4h30.3m-25.8 8.7c-1.1 1-1.8 2.3-1.8 3.7 0 1.7.2 3 1 4.7.8 2.3 2.2 4.6 4.2 7 2.6 3 5.4 5.3 8.5 6.7 1.7 1 3.5 1.4 5.2 1.6h.1.1c1.9 0 3.5-.6 4.6-1.9.1-.2.4-.4.6-.6s.6-.6.8-1c1-1.1 1.2-2.2 1.2-2.9s-.2-1.9-1.3-3l-2.6-2.9c-.8-.8-1.8-1.2-3-1.2-1.1 0-2.2.5-3 1.2l-.8.8c-1.2-.8-2.3-1.9-3.6-3.4-.2-.2-.5-.5-.6-.7l.8-.8c1.1-1.1 1.3-2.3 1.3-3s-.2-1.9-1.3-3l-1.3-1.6-1.5-1.4c-.8-.8-1.8-1.2-2.9-1.2s-2 .4-2.9 1.1h-.1l-.1.1zm25.8-11.1h-30.3c-1.6 0-2.8 1.2-2.8 2.8v37.7 3.4c0 2.3 1.9 4.2 4.2 4.2h32.6c2.3 0 4.2-1.9 4.2-4.2v-5.9h-2.8v6c0 .7-.6 1.4-1.4 1.4h-32.6c-.7 0-1.4-.6-1.4-1.4v-.6h30.3c1.6 0 2.8-1.2 2.8-2.8v-37.8c0-1.5-1.2-2.8-2.8-2.8zm-8.3 32.5c-1.6-.1-3-.6-4.3-1.3-3.1-1.4-5.7-3.6-7.8-6.1-1.6-1.9-3-4.1-3.8-6.4-.6-1.4-.8-2.5-.8-3.8 0-.7.4-1.4 1-1.9.6-.6 1.2-1.2 1.8-1.8.4-.4.8-.5 1.3-.5s.8.1 1.2.5l1.4 1.4c.5.5 1 1 1.4 1.4.8.8.8 1.8 0 2.6-.6.6-1.2 1.2-1.8 1.8-.1.1-.1.2-.1.5.4 1 1 1.8 1.6 2.5 1.3 1.6 2.8 3 4.5 4.1.4.2.7.4 1.2.6.1 0 .1.1.2.1s.1 0 .2-.2l1.8-1.8c.4-.4.8-.5 1.3-.5s1 .1 1.2.5l2.9 2.9c.8.8.8 1.8 0 2.6-.5.6-1.1 1.1-1.6 1.7-.8.9-1.7 1.1-2.8 1.1z"/><path d="m44.2 15.8h-3.7v8.3h3.7c1 0 1.7-.7 1.7-1.7v-4.9c0-.9-.7-1.7-1.7-1.7z"/><path d="m44.2 26.8h-3.7v8.3h3.7c1 0 1.7-.7 1.7-1.7v-4.9c0-.9-.7-1.7-1.7-1.7z"/><path d="m44.2 4.9h-3.7v8.3h3.7c1 0 1.7-.7 1.7-1.7v-4.9c0-1-.7-1.7-1.7-1.7z"/></svg>