<svg enable-background="new 0 0 48 48" viewBox="0 0 48 48" xmlns="http://www.w3.org/2000/svg"><path d="m46.2 2.3-9.7-2.3c-1.1-.2-2.2.4-2.5 1.3l-4.4 10.4c-.4 1-.1 2 .6 2.6l5.6 4.7c-3.4 7.2-9.2 13.2-16.5 16.5l-4.8-5.5c-.6-.7-1.7-1.1-2.6-.6l-10.4 4.4c-1 .5-1.6 1.6-1.3 2.6l2.3 9.7c.1 1.1 1.1 1.8 2 1.8 24 .1 43.5-19.3 43.5-43.4 0-1-.8-2-1.8-2.2zm-44.7 11.2h6v6c0 .8.7 1.4 1.4 1.4h3.1c.8 0 1.4-.7 1.4-1.4v-6h6c.8 0 1.4-.7 1.4-1.4v-3.1c0-.8-.7-1.4-1.4-1.4h-6v-6c0-.8-.6-1.6-1.4-1.6h-3c-.8 0-1.4.8-1.4 1.5v6h-6c-.8 0-1.4.7-1.4 1.4v3.1c-.2.9.5 1.5 1.3 1.5z"/></svg>