<svg enable-background="new 0 0 48 48" viewBox="0 0 48 48" xmlns="http://www.w3.org/2000/svg"><path d="m47.7 41.3-13-10.3-1.6-1.2-2.6-2.2-1.3-1.1-27.5-21.6c-.2-.1-.6-.1-.8.2l-.8.9c-.2.3-.1.6.2.9l26.6 21 .8.6 5.2 4.1.5.4 13 10.2c.2.2.6.1.8-.1l.7-1c.2-.3.1-.7-.2-.8zm-15.3-20.9c-.7 1.3-1.4 2.6-2.3 3.8l1.8 1.4c1.2-1.7 2.4-3.7 3.5-5.9l-5.5-4.4 3.5-8 7.4 1.7c0 7.1-2.3 13.6-6.2 18.8l1.9 1.4c4.2-5.8 6.7-12.7 6.7-20.4 0-1.1-.7-2-1.8-2.3l-7.6-1.8c-1.1-.2-2.3.4-2.6 1.3l-3.6 8.3c-.4 1-.1 2 .7 2.8zm-23.5 20.4-1.7-7.4 8-3.5 4.4 5.5c2.9-1.3 5.3-2.8 7.3-4.4l-1.9-1.6c-1.4 1.1-3 2.2-4.7 3l-3.3-4.1c-.7-.8-1.8-1.1-2.8-.7l-8 3.6c-1.1.5-1.6 1.6-1.3 2.6l1.8 7.6c.3 1.1 1.2 1.8 2.3 1.8 8.8 0 16.7-3.2 22.7-8.6l-1.9-1.6c-5.7 4.9-12.9 7.8-20.9 7.8z"/></svg>