<svg enable-background="new 0 0 48 48" viewBox="0 0 48 48" xmlns="http://www.w3.org/2000/svg"><path d="m0 0h48v48h-48z" fill="none"/><path d="m46 2v14.5h-14-.8l-.6.6-4.6 4.6v-19.7zm-34 0c.2 0 .6.2.6.7 0 3.2.6 6.7 1.7 10.1.1.2 0 .5-.1.6l-5.9 5.9-1.1 1.2.7 1.3c4.1 8 10.4 14.4 18.4 18.4l1.3.7 1.1-1.1 5.8-5.9c.1-.1.4-.1.5-.1h.2c3.1 1.1 6.4 1.7 10.1 1.7.4 0 .6.2.6.6v9.4c0 .4-.2.6-.6.6-23.8-.1-43.3-19.6-43.3-43.5 0-.3.3-.6.6-.6zm36-2h-24v26.6l8-8h16zm-36 0h-9.4c-1.4 0-2.6 1.2-2.6 2.6 0 25.1 20.3 45.4 45.4 45.4 1.4 0 2.6-1.2 2.6-2.6v-9.4c0-1.4-1.2-2.6-2.6-2.6-3.4 0-6.5-.5-9.5-1.6-.2-.1-.6-.1-.8-.1-.7 0-1.3.2-1.9.7l-5.9 6c-7.6-3.8-13.7-10-17.5-17.5l5.9-5.9c.7-.7 1-1.8.6-2.8-1-3-1.6-6.2-1.6-9.5-.1-1.5-1.3-2.7-2.7-2.7z"/></svg>