<svg enable-background="new 0 0 48 48" viewBox="0 0 48 48" xmlns="http://www.w3.org/2000/svg"><path d="m29.3 29.3h-2.6c-1.4 0-2.6 1.2-2.6 2.6v2.6c0 1.4 1.2 2.6 2.6 2.6h2.6c1.4 0 2.6-1.2 2.6-2.6v-2.6c.2-1.4-1-2.6-2.6-2.6zm0 5.4h-2.6v-2.6h2.6zm0-16h-2.6c-1.4 0-2.6 1.2-2.6 2.6v2.7c0 1.4 1.2 2.6 2.6 2.6h2.6c1.4 0 2.6-1.2 2.6-2.6v-2.6c.2-1.5-1-2.7-2.6-2.7zm0 5.3h-2.6v-2.6h2.6zm10.7 5.3h-2.6c-1.4 0-2.6 1.2-2.6 2.6v2.6c0 1.4 1.2 2.6 2.6 2.6h2.6c1.4 0 2.6-1.2 2.6-2.6v-2.6c.2-1.4-1-2.6-2.6-2.6zm0 5.4h-2.6v-2.6h2.6zm0-16h-2.6c-1.4 0-2.6 1.2-2.6 2.6v2.7c0 1.4 1.2 2.6 2.6 2.6h2.6c1.4 0 2.6-1.2 2.6-2.6v-2.6c.2-1.5-1-2.7-2.6-2.7zm0 5.3h-2.6v-2.6h2.6zm2.8-18.8h-23c-.6-1.6-2-2.6-3.7-2.6h-5.3c-1.7 0-3.3 1.1-3.8 2.6h-1.8c-2.8 0-5.2 2.5-5.2 5.5v29.3c0 3 2.4 5.3 5.3 5.3h37.4c3 0 5.3-2.4 5.3-5.3v-29.3c.1-3-2.3-5.5-5.2-5.5zm-16.1 2.8h13.3v5.3h-13.3zm-17.4-1.3c0-.7.6-1.3 1.3-1.3h5.4c.7 0 1.3.6 1.3 1.3v28c0 .7-.6 1.3-1.3 1.3h-5.3c-.7 0-1.3-.6-1.3-1.3-.1 0-.1-28-.1-28zm36.1 33.3c0 1.4-1.2 2.6-2.6 2.6h-37.6c-1.4 0-2.6-1.2-2.6-2.6v-29.3c0-1.5 1.2-2.7 2.6-2.7h1.3v26.7c0 2.2 1.8 4 4 4h5.3c2.2 0 4-1.8 4-4v-26.7h4.2v5.3c0 1.4 1.2 2.6 2.6 2.6h13.4c1.4 0 2.6-1.2 2.6-2.6v-5.3c1.4 0 2.6 1.2 2.6 2.6v29.4z"/></svg>