<svg enable-background="new 0 0 48 48" viewBox="0 0 48 48" xmlns="http://www.w3.org/2000/svg"><path d="m17.5 17.6c1.3.1 2.6-.6 3.2-1.9l3-7.5c.6-1.4 0-3-1.2-3.8l-6.1-3.8c-1.2-.7-2.9-.6-3.8.5-12.8 12.7-12.7 33.4 0 46.1 1.1 1.1 2.6 1.2 3.8.5l6.1-3.8c1.3-.8 1.8-2.4 1.2-3.8l-3-7.5c-.5-1.3-1.8-2-3.2-1.9l-4.1.4c-1.3-4.4-1.3-9.1 0-13.5zm-6.1 16.5 6.4-.6s.1 0 .1.1l3 7.5v.1l-6.1 3.8h-.1c-11.7-11.4-11.7-30.2 0-41.7h.1l6.1 3.8s.1.1 0 .1l-3 7.5-.1.1-6.4-.6c-2.6 7.3-2.6 12.8 0 19.9zm19-25.3-.6.5c-.4.4-.5.8-.2 1.3.5.8.5 1.9 0 2.8-.2.5-.1 1 .2 1.3l.6.5c.5.5 1.4.4 1.8-.2 1.1-1.9 1.1-4.2 0-6.1-.4-.5-1.2-.6-1.8-.1zm6.1-4.1c-.4-.5-1.2-.6-1.7-.1l-.6.5c-.4.4-.5 1.1-.1 1.4 2.5 3.2 2.5 7.8 0 10.9-.4.5-.2 1.1.1 1.4l.6.5c.5.5 1.3.4 1.7-.1 3.3-4.1 3.3-10.2 0-14.5zm4.3-4.2c-.5-.5-1.2-.5-1.7-.1l-.6.5c-.5.3-.5 1-.1 1.5 4.7 5.5 4.7 13.7 0 19.2-.4.5-.4 1.1.1 1.6l.6.5c.5.5 1.2.4 1.7-.1 5.6-6.7 5.5-16.4 0-23.1z"/></svg>