<svg enable-background="new 0 0 48 48" viewBox="0 0 48 48" xmlns="http://www.w3.org/2000/svg"><path d="m0 0h48v48h-48z" fill="none"/><path d="m12 2c.4 0 .6.2.6.6 0 3.6.5 7 1.7 10.1.1.5 0 .6-.1.8l-5.8 5.8-1.2 1.1.7 1.3c4.1 8 10.4 14.4 18.4 18.4l1.3.7 1.1-1.1 5.9-5.9c.1-.1.2-.1.4-.1s.1 0 .2 0c3.5 1.1 6.8 1.7 10.1 1.7.4 0 .6.2.6.6v9.4c0 .4-.2.6-.6.6-23.8 0-43.3-19.5-43.3-43.4 0-.3.3-.6.6-.6zm0-2h-9.4c-1.4 0-2.6 1.2-2.6 2.6 0 25.1 20.3 45.4 45.4 45.4 1.4 0 2.6-1.2 2.6-2.6v-9.4c0-1.4-1.2-2.6-2.6-2.6-3.2 0-6.5-.6-9.5-1.6-.2-.1-.6-.1-1-.1-.7 0-1.3.2-1.8.7l-5.9 5.9c-7.6-3.8-13.7-10-17.5-17.5l5.9-5.9c.7-.8.8-1.8.6-2.8-1.1-3-1.6-6.1-1.6-9.5 0-1.4-1.2-2.6-2.6-2.6z"/></svg>