<svg enable-background="new 0 0 48 48" viewBox="0 0 48 48" xmlns="http://www.w3.org/2000/svg"><path d="m14.8 21.4c2.2 4.9 6.9 7 9.2 7 1.5 0 4.1-.9 6.3-2.9-.8.1-1.7.1-2.6.1-.2 0-.4 0-.7 0-.5.4-1 .6-1.6.6h-2c-1.5 0-2.7-1.2-2.7-2.7s1.2-2.7 2.7-2.7h2c.7 0 1.4.3 1.9.8h.5c2.5 0 4.2-.2 5.3-.5-.1-.3-.2-.7-.2-1.1v-6.8c0-.7.3-1.4.7-1.9-.2-1.9-.7-3.3-1.3-4.4-1.3-2.2-3.9-3.2-8.2-3.2-3.5 0-5.9.7-7.4 2.2-1.1 1.2-1.8 2.8-2.1 5.3.5.5.7 1.2.7 1.9v6.8c-.1.5-.3 1-.5 1.5z"/><path d="m9.9 21.4h2.3c.9 0 1.6-.7 1.6-1.6v-6.8c0-.6-.3-1.1-.8-1.4.5-5.6 2.7-9.4 10.9-9.4 4.7 0 7.7 1.2 9.3 3.8.9 1.5 1.4 3.5 1.6 5.6-.5.3-.8.8-.8 1.4v6.8c0 .8.5 1.4 1.2 1.6-1 .7-3.2 1.4-7.6 1.4-.4 0-.7 0-1.1 0-.2-.4-.7-.7-1.2-.7h-2c-.8 0-1.4.6-1.4 1.4s.6 1.4 1.4 1.4h2c.5 0 .9-.2 1.1-.6h1.2c5 0 8.2-.9 9.5-2.5l.2-.2h.7c.9 0 1.6-.7 1.6-1.6v-6.8c0-.9-.7-1.6-1.6-1.6h-.9c-.2-2.6-.8-4.7-1.9-6.6-2-3.4-5.7-5-11.2-5s-9.2 1.6-11.2 4.9c-1.1 1.8-1.7 4-1.9 6.6h-1c-.9 0-1.6.7-1.6 1.6v6.8c0 .8.8 1.5 1.6 1.5z"/><path d="m43.3 41.4c-.5-3.3-1.6-7.6-3.8-9.1-1.5-1-6.7-3.8-9-5-.3-.1-.6-.1-.8.1-1.2.9-2.5 1.5-3.8 1.8-.2.1-.4.2-.5.5l-1.4 3.6-1.4-3.6c-.1-.2-.3-.4-.5-.5-1.4-.3-2.6-.9-3.8-1.8-.2-.2-.5-.2-.8-.1-2.2 1.2-7.5 4-9 5-2.5 1.7-3.7 7.9-3.8 9.1v.4c.1.2 2.4 6.2 19.3 6.2s19.2-6 19.3-6.3c.1-.1.1-.2 0-.3zm-7.8-3.8h-6.7v-1.4h6.7z"/></svg>