<svg enable-background="new 0 0 48 48" viewBox="0 0 48 48" xmlns="http://www.w3.org/2000/svg"><path d="m24 5.6c4.6 0 5.9 1.3 6.5 2.3.4.7.7 1.6 1 2.8-.4.7-.6 1.6-.6 2.4v6.2c-.7.1-1.7.1-2.8.1-.7-.5-1.7-.7-2.5-.7h-1.9c-2.6 0-4.7 2.2-4.7 4.7v.2c-.6-.6-1.2-1.4-1.7-2.3.1-.5.2-1 .2-1.4v-6.7c0-.8-.2-1.7-.6-2.4.2-1.6.7-2.6 1.4-3.4.8-1.3 2.8-1.8 5.7-1.8m0-2c-3.5 0-5.9.7-7.4 2.3-1.2 1.2-1.8 2.9-2.2 5.3.5.5.7 1.2.7 1.9v6.7c0 .6-.1 1.1-.5 1.6 2.2 4.8 7 7 9.2 7 1.6 0 4.1-1 6.2-2.9-.8 0-1.7.1-2.6.1-.2 0-.5 0-.7 0-.5.4-1.1.6-1.7.6h-1.9c-1.4 0-2.6-1.2-2.6-2.6s1.2-2.6 2.6-2.6h1.9c.7 0 1.3.2 1.8.7h.5c2.5 0 4.2-.2 5.3-.5-.1-.4-.2-.7-.2-1.1v-6.7c0-.7.2-1.4.7-1.9-.2-1.9-.7-3.4-1.3-4.3-1-2.6-3.6-3.6-7.8-3.6z"/><path d="m10 21.5h2.4c.8 0 1.6-.7 1.6-1.6v-6.7c0-.6-.4-1.1-.8-1.4.5-5.5 2.6-9.4 10.9-9.4 4.7 0 7.7 1.2 9.2 3.8 1 1.6 1.4 3.5 1.6 5.6-.5.2-.8.8-.8 1.3v6.7c0 .7.5 1.4 1.2 1.6-1.1.7-3.1 1.3-7.6 1.3-.4 0-.7 0-1.1 0-.2-.5-.7-.7-1.2-.7h-1.9c-.7 0-1.3.6-1.3 1.3s.6 1.3 1.3 1.3h1.9c.5 0 .8-.2 1.1-.6h1.2c5 0 8.2-.8 9.5-2.5 0-.1.1-.1.1-.2h.7c.8 0 1.6-.7 1.6-1.6v-6.7c0-.8-.7-1.6-1.6-1.6h-.7c-.3-2.4-.9-4.6-2-6.5-2.1-3.3-5.8-4.9-11.3-4.9s-9.2 1.6-11.3 4.9c-1.1 1.8-1.7 4-1.9 6.6h-.8c-.8 0-1.6.7-1.6 1.6v6.7c0 1 .7 1.7 1.6 1.7z"/><path d="m30.2 29.4c2.4 1.2 6.8 3.7 8 4.6.5.4 1.9 1.7 2.9 7.3-.7 1-4.2 4.7-17.3 4.7-13.2 0-16.6-3.7-17.3-4.7.6-3.5 1.8-6.6 2.9-7.3 1-.6 4-2.3 8-4.6 1 .7 2 1.2 3.2 1.6l1.2 3 1.9 5 1.9-5 1.2-3c1.4-.4 2.5-.9 3.4-1.6m-3.4 10.2h2 6.7 2v-2-1.4-2h-2-6.7-2v2 1.4zm-8.9-12.5c-.1 0-.2 0-.4.1-2.2 1.2-7.6 4.1-9 5-2.5 1.8-3.6 8-3.8 9.2v.4c.1.2 2.4 6.2 19.3 6.2s19.2-6 19.3-6.2c0-.1 0-.2 0-.4-.5-3.4-1.7-7.6-3.8-9.1-1.4-1.1-6.7-3.8-9-5-.1 0-.2-.1-.4-.1-.1 0-.4 0-.5.1-1.2 1-2.4 1.6-3.8 1.8-.2 0-.5.2-.5.5l-1.4 3.6-1.4-3.6c-.1-.2-.2-.4-.5-.5-1.3-.4-2.6-1-3.8-1.8-.1-.1-.2-.2-.3-.2zm10.9 10.5v-1.4h6.7v1.4z"/></svg>