<svg enable-background="new 0 0 48 48" viewBox="0 0 48 48" xmlns="http://www.w3.org/2000/svg"><path d="m47.9 15.6-3.9-7.7c-.3-.6-.9-.7-1.3-.7l-18.7 2.4-18.8-2.4c-.3 0-.9.1-1.2.7l-3.9 7.7c-.3.7 0 1.5.8 1.7l3.9 1.1v15.8c0 1.1.7 2.1 1.8 2.3l16.2 4.1c.4.1 1.3.3 2.3 0l16.2-4.1c1.1-.3 1.8-1.2 1.8-2.3v-15.8l3.9-1.1c.8-.2 1.2-1 .9-1.7zm-41.5-4.6 11.6 1.5-3 5.1-10.3-3zm2 8.4 7.3 2.1c.6.2 1.1-.1 1.4-.5l5.1-8.4v24.2l-13.8-3.5zm31.2 13.9-13.8 3.4v-24.1l5.1 8.4c.2.4.8.7 1.4.5l7.3-2.1zm-6.6-15.7-3.1-5.1 11.6-1.5 1.8 3.6z"/></svg>