<svg enable-background="new 0 0 48 48" viewBox="0 0 48 48" xmlns="http://www.w3.org/2000/svg"><path d="m37.6 34.6h-27c-.8 0-1.6.7-1.6 1.6v1.6c0 .8.7 1.6 1.6 1.6h27c.8 0 1.6-.7 1.6-1.6v-1.8c-.2-.8-.9-1.4-1.6-1.4zm4.4-34.6h-36c-3.4 0-6 2.6-6 6v36c0 3.4 2.6 6 6 6h36c3.4 0 6-2.6 6-6v-36c0-3.4-2.6-6-6-6zm1.6 42c0 .8-.7 1.6-1.6 1.6h-36c-.8 0-1.6-.7-1.6-1.6v-36c0-.8.7-1.6 1.6-1.6h36c.8 0 1.6.7 1.6 1.6zm-10-32.8c-.2-.4-.8-.4-1.2 0l-6 7.6c-.4.5 0 1.2.6 1.2h3v10.6c0 .8.7 1.6 1.6 1.6h3c.8 0 1.6-.7 1.6-1.6v-10.6h3c.6 0 1-.7.6-1.2zm-21.6 8.8v10.6c0 .8.7 1.6 1.6 1.6h3c.8 0 1.6-.7 1.6-1.6v-10.6h3c.6 0 1-.7.6-1.2l-6-7.6c-.2-.4-.8-.4-1.2 0l-6.1 7.6c-.5.5-.1 1.2.5 1.2z"/></svg>