<svg enable-background="new 0 0 48 48" viewBox="0 0 48 48" xmlns="http://www.w3.org/2000/svg"><path d="m28.8 31.8-4.8-8-4.8 8c-.5.8-2 2.2-4.1 1.6l-10.3-2.9v6.1c0 1.1.7 2.1 1.8 2.3l16.2 4.1c.8.2 1.6.2 2.3 0l16.3-4c1.1-.3 1.8-1.2 1.8-2.3v-6.1l-10.3 2.9c-2.1.6-3.6-.9-4.1-1.7zm-14.3-16.2c-.1-.4-.2-.8-.2-1.2 0-2.6 2.2-4.8 4.8-4.8s4.8 2.2 4.8 4.8c0 .8-.2 1.6-.6 2.3l.6.1 11.6-1.5 2.7-7.4c.2-.6-.1-1.3-.7-1.5l-4.2-1.5c-.6-.2-1.3.1-1.5.7l-3.1 8.6c-.1-5.2-4.3-9.4-9.6-9.4s-9.6 4.3-9.6 9.6c0 .2 0 .4.1.6zm-10.5 1.9-3.9 7.7c-.3.7 0 1.5.8 1.7l14.8 4.2c.5.1 1.1-.1 1.4-.5l6.9-11.4-18.8-2.4c-.5-.1-1 .2-1.2.7zm43.9 7.7-3.9-7.7c-.2-.5-.7-.7-1.3-.7l-18.7 2.4 6.9 11.4c.3.5.9.7 1.4.5l14.8-4.2c.7-.2 1.1-1 .8-1.7z"/></svg>