<svg enable-background="new 0 0 48 48" viewBox="0 0 48 48" xmlns="http://www.w3.org/2000/svg"><path d="m37 14.8-2.5-7.5c-.4-1.4-1.9-2.5-3.4-2.5h-23.7c-1.5 0-2.9 1-3.4 2.5l-3.8 11.4c-.1.3-.2.7-.2 1v19.9c0 2 1.6 3.6 3.6 3.6h30c8 0 14.4-6.4 14.4-14.4 0-6.8-4.7-12.4-11-14zm-15.9-6.4h10l2 6c-3.7.1-7.1 1.7-9.6 4.1h-2.4zm-13.7 0h10v10.1h-13.4zm-3.8 31.2v-17.3h17.2c-1 2-1.6 4.3-1.6 6.5 0 4.3 1.9 8.2 4.9 10.8zm30 0c-6 0-10.8-4.8-10.8-10.8s4.8-10.8 10.8-10.8 10.8 4.8 10.8 10.8-4.8 10.8-10.8 10.8zm4.8-15.4c-.2-.2-.7-.2-.9 0l-5.2 5.2-2.3-2.2c-.2-.2-.7-.2-.9 0l-1.4 1.4c-.2.2-.2.7 0 .9l4 4.1c.2.2.7.2.9 0l7.1-7c.2-.2.2-.7 0-.9z"/></svg>