<svg enable-background="new 0 0 48 48" viewBox="0 0 48 48" xmlns="http://www.w3.org/2000/svg"><path d="m44.5.1h-41c-1.9 0-3.5 1.6-3.5 3.5v41.1c0 1.8 1.6 3.4 3.5 3.4h41.1c1.9 0 3.5-1.6 3.5-3.5v-41.1c-.2-1.9-1.7-3.4-3.6-3.4zm-38.2 15.6 6.8-8.5c.4-.4 1-.4 1.3 0l6.8 8.5c.5.6 0 1.4-.7 1.4h-3.5v12c0 1-.7 1.7-1.7 1.7h-3.3c-1 0-1.7-.7-1.7-1.7v-12h-3.4c-.7.1-1.1-.8-.6-1.4zm34.8 24.6c0 .5-.4.8-.8.8h-32.6c-.5 0-.8-.4-.8-.8v-1.7c0-.5.4-.8.8-.8h32.4c.5 0 .8.4.8.8v1.7zm0-23.1h-3.5v12c0 1-.7 1.7-1.7 1.7h-3.5c-1 0-1.7-.7-1.7-1.7v-12h-3.5c-.7 0-1.1-.8-.7-1.4l6.9-8.5c.4-.4 1-.4 1.3 0l6.8 8.5c.7.5.3 1.4-.4 1.4z"/></svg>