<svg enable-background="new 0 0 48 48" viewBox="0 0 48 48" xmlns="http://www.w3.org/2000/svg"><path d="m47.9 15.5c0-1.1-.2-2.3-.8-3.2l-5.3-9.8c-.5-1.4-1.7-2.4-3.2-2.4h-29.2c-1.4 0-2.8.9-3.2 2.4l-5.3 9.8c-.6 1-.8 2-.8 3.2v29.1c0 1.8 1.6 3.4 3.5 3.4h41.1c1.9 0 3.5-1.6 3.5-3.5-.3 0-.3-22.5-.3-29zm-21.4-10.3h11l3.7 6.8h-14.7zm-16 0h11v6.8h-14.7zm-5.3 37.6c0-4 0-17.5 0-25.6h37.6v25.6zm21.5-13.9-4.5-1.2c-.5-.1-.7-.5-.7-.8 0-.5.5-1 1.1-1h2.8c.5 0 .8.1 1.3.4.4.2.7.1 1-.1l1.3-1.3c.4-.4.2-1-.1-1.2-.8-.6-1.9-1-3-1v-1.1c0-.5-.4-.8-.8-.8h-1.7c-.5 0-.8.4-.8.8v1.1c-2.4.1-4.3 2-4.3 4.3 0 1.9 1.3 3.7 3.2 4.2l4.5 1.2c.5.1.7.5.7.8 0 .5-.5 1-1.1 1h-2.8c-.5 0-.8-.1-1.3-.4-.4-.2-.8-.2-1.1 0l-1.3 1.3c-.4.4-.2 1 .1 1.2.8.6 1.9 1 3 1v1.1c0 .5.4.8.8.8h1.7c.5 0 .8-.4.8-.8v-1.1c2.4-.1 4.3-2 4.3-4.3.2-1.8-1.1-3.5-3.1-4.1z"/></svg>