<svg enable-background="new 0 0 48 48" viewBox="0 0 48 48" xmlns="http://www.w3.org/2000/svg"><path d="m47.8 22.8-3.8-7.7c-.3-.6-.9-.7-1.3-.7l-3.8.5 1.7-4.5c.3-.7.2-1.6-.1-2.3s-.9-1.3-1.7-1.6l-4.2-1.5c-1.6-.6-3.3.2-3.8 1.8l-2.3 6.4c-1.1-4.9-5.4-8.4-10.5-8.4-5.6 0-10.2 4.3-10.7 9.9l-2.1-.3c-.3 0-.9.1-1.3.7l-3.9 7.7c-.3.7 0 1.5.8 1.7l3.9 1.1v11c0 1.1.7 2.1 1.8 2.3l16.3 4.1c1 .3 1.9.1 2.3 0l16.3-4c1.1-.3 1.8-1.2 1.8-2.3v-11l3.9-1.1c.6-.3 1-1.1.7-1.8zm-13.8-14.2 3 1.1-2.1 5.7-3.6.5c0-.1 2.7-7.3 2.7-7.3zm-29.4 13.2 1.8-3.6 11.6 1.5-3 5.1zm17.6 17.4-13.8-3.5v-9.1l7.3 2.1c.6.2 1.1-.1 1.4-.5l5.1-8.4zm2.9-22.6-1.1.2-13.2-1.7c.3-3.7 3.3-6.7 7.2-6.7 4 0 7.2 3.2 7.2 7.2 0 .3-.1.7-.1 1zm14.5 19.1-13.8 3.4v-19.3l5.1 8.4c.2.4.8.7 1.4.5l7.3-2.1zm-6.6-10.9-3.1-5.1 11.6-1.5 1.8 3.6z"/></svg>