<svg enable-background="new 0 0 48 48" viewBox="0 0 48 48" xmlns="http://www.w3.org/2000/svg"><path d="m31.9 24c-1.3 0-2.5-.7-3.1-1.8l-4.8-8-4.8 8c-.7 1.1-1.8 1.8-3.1 1.8-.3 0-.7 0-1-.1l-10.3-3v13.3c0 1.1.7 2.1 1.8 2.3l16.2 4.1c.8.2 1.6.2 2.3 0l16.2-4.1c1.1-.3 1.8-1.2 1.8-2.3v-13.3l-10.3 2.9c-.2.1-.6.2-.9.2zm16-8.4-3.9-7.8c-.2-.5-.7-.7-1.3-.7l-18.7 2.5 6.9 11.4c.3.5.9.7 1.4.5l14.8-4.2c.7-.2 1.1-1.1.8-1.7zm-43.9-7.8-3.9 7.7c-.3.7 0 1.5.8 1.7l14.8 4.2c.5.1 1.1-.1 1.4-.5l6.9-11.3-18.8-2.4c-.5-.1-1 .2-1.2.6z"/></svg>