<svg enable-background="new 0 0 48 48" viewBox="0 0 48 48" xmlns="http://www.w3.org/2000/svg"><path d="m32.2 22.6c-2.5-2-5.7-1.1-7.5.5l-.7.8-.8-.9c-1.7-1.6-4.9-2.6-7.5-.5-2.5 2-2.6 5.7-.4 7.9l7.8 7.7c.5.5 1.3.5 1.8 0l7.8-7.7c2.2-2.1 2.1-5.8-.5-7.8zm15.7-7.1c0-1.1-.2-2.3-.8-3.2l-5.3-9.8c-.5-1.4-1.7-2.4-3.2-2.4h-29.2c-1.4 0-2.8.9-3.2 2.4l-5.3 9.8c-.6 1-.8 2-.8 3.2v29.1c0 1.8 1.6 3.4 3.5 3.4h41.1c1.9 0 3.5-1.6 3.5-3.5-.3 0-.3-22.5-.3-29zm-21.4-10.3h11l3.7 6.8h-14.7zm-16 0h11v6.8h-14.7zm-5.3 37.6c0-4 0-17.5 0-25.6h37.6v25.6z"/></svg>