<svg enable-background="new 0 0 48 48" viewBox="0 0 48 48" xmlns="http://www.w3.org/2000/svg"><path d="m47.9 13.6-6-11.3c-.4-1.4-1.8-2.3-3.2-2.3h-13v13.6h22.1c0 .1 0 .1.1 0zm-25.6.1v-13.6h-12.9c-1.4 0-2.8.9-3.2 2.4l-6 11.3s0 .1.1.1h22zm-22.2 3.5v27.4c0 1.8 1.6 3.4 3.5 3.4h41.1c1.9 0 3.5-1.6 3.5-3.5v-27.3zm25.6 23.9v1.7c0 .5-.4.8-.8.8h-1.7c-.5 0-.8-.4-.8-.8v-1.8c-1.2-.1-2.4-.5-3.4-1.2-.4-.4-.5-1-.1-1.3l1.3-1.2c.4-.2.7-.4 1.1-.1.4.2.8.4 1.3.4h3c.7 0 1.3-.6 1.3-1.4 0-.6-.4-1.2-1-1.3l-4.8-1.4c-2-.6-3.4-2.5-3.4-4.7 0-2.6 2-4.8 4.5-4.8v-1.7c0-.5.4-.8.8-.8h1.7c.5 0 .8.4.8.8v1.7c1.2.1 2.4.5 3.4 1.2.4.4.5 1 .1 1.3l-1.2 1.2c-.2.2-.7.2-1.1.1-.4-.2-.8-.4-1.3-.4h-3c-.7 0-1.3.6-1.3 1.4 0 .6.4 1.2 1 1.3l4.8 1.4c2 .6 3.4 2.5 3.4 4.7-.1 2.7-2.1 4.8-4.6 4.9z"/></svg>