<svg enable-background="new 0 0 48 48" viewBox="0 0 48 48" xmlns="http://www.w3.org/2000/svg"><path d="m46.7 26.7h-6.7v8l-2.7-1.8-2.7 1.8v-8h-6.6c-.7 0-1.3.6-1.3 1.3v16c0 .7.6 1.3 1.3 1.3h18.7c.7 0 1.3-.6 1.3-1.3v-16c0-.7-.6-1.3-1.3-1.3zm-32-5.4h18.7c.7 0 1.3-.6 1.3-1.3v-16c0-.7-.6-1.3-1.3-1.3h-6.7v8l-2.7-1.8-2.7 1.8v-8h-6.7c-.7 0-1.3.6-1.3 1.3v16c0 .7.6 1.3 1.4 1.3zm5.3 5.4h-6.7v8l-2.7-1.8-2.6 1.8v-8h-6.7c-.7 0-1.3.6-1.3 1.3v16c0 .7.6 1.3 1.3 1.3h18.7c.7 0 1.3-.6 1.3-1.3v-16c0-.7-.6-1.3-1.3-1.3z"/></svg>