<svg enable-background="new 0 0 48 48" viewBox="0 0 48 48" xmlns="http://www.w3.org/2000/svg"><path d="m44.8 9.6v28.8c1.4 0 3.2-1.4 3.2-2.9v-22.9c0-1.4-1.8-3-3.2-3z"/><path d="m35.2 9.6v-4.4c0-2.8-2-5.2-4.8-5.2h-25.5c-2.6 0-4.9 2.4-4.9 5.2v37.9c0 2.6 2.3 4.9 4.9 4.9h25.4c2.8 0 4.8-2.3 4.8-5v-4.6h3.2v-28.8zm-27.9 32.4c-2 0-3.7-1.7-3.7-3.7s1.7-3.7 3.7-3.7 3.7 1.7 3.7 3.7-1.6 3.7-3.7 3.7zm0-10.4c-2 0-3.7-1.7-3.7-3.7s1.7-3.7 3.7-3.7 3.7 1.7 3.7 3.7-1.6 3.7-3.7 3.7zm10.3 10.4c-2 0-3.7-1.7-3.7-3.7s1.7-3.7 3.7-3.7 3.7 1.7 3.7 3.7c.1 2-1.6 3.7-3.7 3.7zm0-10.4c-2 0-3.7-1.7-3.7-3.7s1.7-3.7 3.7-3.7 3.7 1.7 3.7 3.7c.1 2-1.6 3.7-3.7 3.7zm10.5 10.4c-2 0-3.7-1.7-3.7-3.7s1.7-3.7 3.7-3.7 3.7 1.7 3.7 3.7-1.7 3.7-3.7 3.7zm0-10.4c-2 0-3.7-1.7-3.7-3.7s1.7-3.7 3.7-3.7 3.7 1.7 3.7 3.7-1.7 3.7-3.7 3.7zm3.9-17.7c0 2-1.7 3.6-3.6 3.6h-21.6c-2 0-3.6-1.7-3.6-3.6v-7.1c0-2 1.7-3.6 3.6-3.6h21.5c2 0 3.6 1.7 3.6 3.6v7.1z"/></svg>