<svg enable-background="new 0 0 48 48" viewBox="0 0 48 48" xmlns="http://www.w3.org/2000/svg"><path d="m44 27.8 4-17.4c.2-1.2-.7-2.4-2-2.4h-32.7l-.8-3.7c-.2-.9-1-1.6-2-1.6h-8.5c-1.1 0-2 .9-2 2v1.3c0 1.1.9 2 2 2h5.8l5.9 28.6c-1.4.8-2.4 2.5-2.3 4.3.1 2.4 2 4.3 4.4 4.4 2.7.1 4.9-2 4.9-4.7 0-1.3-.5-2.5-1.4-3.3h17.4c-.9.9-1.4 2.1-1.4 3.5.1 2.4 2.1 4.5 4.6 4.5 2.6 0 4.7-2.1 4.7-4.7 0-1.8-1-3.4-2.6-4.2l.5-2c.2-1.2-.7-2.4-2-2.4h-22.4l-.5-2.7h24.5c.9 0 1.7-.6 1.9-1.5zm-10.6-6.8c.4.4.4 1 0 1.4l-.9.9c-.4.4-1 .4-1.4 0l-1.9-1.9-1.9 1.9c-.4.4-1 .4-1.4 0l-.9-.9c-.4-.4-.4-1 0-1.4l1.9-1.9-1.9-1.9c-.4-.4-.4-1 0-1.4l.9-.9c.4-.4 1-.4 1.4 0l1.9 1.9 1.9-1.9c.4-.4 1-.4 1.4 0l.9.9c.4.4.4 1 0 1.4l-1.9 1.9z"/></svg>