<svg enable-background="new 0 0 48 48" viewBox="0 0 48 48" xmlns="http://www.w3.org/2000/svg"><path d="m46 8h-34l-.7-3.7c-.2-.9-1-1.6-2-1.6h-8.3c-.6 0-1 .4-1 1v2c0 .6.4 1 1 1h6.7l5.8 29.6c-.9 1-1.5 2.3-1.5 3.7 0 2.9 2.4 5.3 5.3 5.3s5.3-2.4 5.3-5.3c0-.9-.2-1.9-.7-2.7h12.1c-.5.8-.7 1.7-.7 2.7 0 2.9 2.4 5.3 5.3 5.3s5.4-2.4 5.4-5.3c0-1.5-.6-2.9-1.6-3.8l.1-.4c.3-1.2-.7-2.4-2-2.4h-23.5l-.8-4h26c.9 0 1.8-.7 2-1.6l3.8-17.4c.2-1.2-.7-2.4-2-2.4zm-7.3 30c1.1 0 2 .9 2 2s-.9 2-2 2-2-.9-2-2 .9-2 2-2zm-21.4 0c1.1 0 2 .9 2 2s-.9 2-2 2-2-.9-2-2 .9-2 2-2zm23.3-12.7h-25.2l-2.6-13.3h30.7zm-17.9-6v-1.3c0-.6.4-1 1-1h2.7v-2.7c0-.6.4-1 1-1h1.3c.6 0 1 .4 1 1v2.7h2.7c.6 0 1 .4 1 1v1.3c0 .6-.4 1-1 1h-2.7v2.7c0 .6-.4 1-1 1h-1.3c-.6 0-1-.4-1-1v-2.7h-2.7c-.6 0-1-.4-1-1z"/></svg>