<svg enable-background="new 0 0 48 48" viewBox="0 0 48 48" xmlns="http://www.w3.org/2000/svg"><path d="m42.1 29.3h-24.5l.5 2.7h22.4c1.3 0 2.2 1.2 2 2.4l-.5 2c1.6.8 2.6 2.4 2.6 4.2 0 2.6-2.1 4.7-4.7 4.7-2.5 0-4.5-2.1-4.6-4.5 0-1.4.5-2.6 1.4-3.5h-17.4c.9.8 1.4 2 1.4 3.3 0 2.7-2.2 4.8-4.9 4.7-2.4-.1-4.3-2-4.4-4.4-.1-1.8.9-3.5 2.3-4.3l-5.9-28.6h-5.8c-1.1 0-2-.9-2-2v-1.3c0-1.1.9-2 2-2h8.5c1 0 1.8.7 2 1.6l.8 3.7h32.7c1.3 0 2.2 1.2 2 2.4l-4 17.4c-.2.9-1 1.5-1.9 1.5zm-8.1-12.6h-4v-3.3c0-.7-.6-1.3-1.3-1.3h-1.3c-.7 0-1.3.6-1.3 1.3v3.3h-4c-.7 0-1.3.6-1.3 1.3v1.3c0 .7.6 1.3 1.3 1.3h4v3.4c0 .7.6 1.3 1.3 1.3h1.3c.7 0 1.3-.6 1.3-1.3v-3.3h4c.7 0 1.3-.6 1.3-1.3v-1.4c0-.7-.6-1.3-1.3-1.3z"/></svg>