<svg enable-background="new 0 0 48 48" viewBox="0 0 48 48" xmlns="http://www.w3.org/2000/svg"><path d="m46 8h-34l-.7-3.7c-.2-.9-1-1.6-2-1.6h-8.3c-.6 0-1 .4-1 1v2c0 .6.4 1 1 1h6.7l5.8 29.6c-.9 1-1.5 2.3-1.5 3.7 0 2.9 2.4 5.3 5.3 5.3s5.3-2.4 5.3-5.3c0-.9-.2-1.9-.7-2.7h12.1c-.5.8-.7 1.7-.7 2.7 0 2.9 2.4 5.3 5.3 5.3s5.4-2.4 5.4-5.3c0-1.5-.6-2.9-1.6-3.8l.1-.4c.3-1.2-.7-2.4-2-2.4h-23.5l-.8-4h26c.9 0 1.8-.7 2-1.6l3.8-17.4c.2-1.2-.7-2.4-2-2.4zm-28.7 34c-1.1 0-2-.9-2-2s.9-2 2-2 2 .9 2 2-.9 2-2 2zm21.4 0c-1.1 0-2-.9-2-2s.9-2 2-2 2 .9 2 2-.9 2-2 2zm1.9-16.7h-25.2l-2.6-13.3h30.7z"/><path d="m32.5 13.1-6.8 7.8-2.9-2.9c-.1-.1-.4-.1-.5 0l-.8 1.8c-.1.1-.1.4 0 .5l4 3.9c.1.1.4.1.5 0l8.8-8.8c.1-.1.1-.4 0-.5l-1.8-1.8c-.1-.2-.3-.2-.5 0z"/></svg>