<svg enable-background="new 0 0 48 48" viewBox="0 0 48 48" xmlns="http://www.w3.org/2000/svg"><path d="m25.1 20.9c0 1.5-.9 2.3-2.4 2.3h-2.1v-4.6h2.1c1.6.1 2.4.9 2.4 2.3zm4 5.3c0 .7.6 1.1 1.5 1.1 1.1 0 2.1-.8 2.1-1.8v-.7l-1.8.1c-1.2.1-1.8.6-1.8 1.3zm18.9-16.8v29.4c0 2.2-1.8 4-4 4h-40c-2.2 0-4-1.8-4-4v-29.4c0-2.2 1.8-4 4-4h40c2.2 0 4 1.7 4 4zm-37.4 9.8c.7.1 1.4-.3 1.8-.9.5-.6.7-1.3.7-1.9-.6 0-1.4.5-1.8.9s-.8 1.2-.7 1.9zm5.1 6.2s-1.6-.7-1.6-2.5c0-1.6 1.3-2.3 1.4-2.4-.7-1-1.8-1.1-2.3-1.3-1-.1-1.8.6-2.4.6-.5 0-1.3-.6-2.1-.6-1 0-2.1.6-2.5 1.6-1.2 1.8-.3 4.7.8 6.2.6.8 1.1 1.6 1.9 1.6s1-.5 2.1-.5c.9 0 1.3.5 2.1.5s1.4-.8 1.9-1.5c.4-.8.7-1.6.7-1.7zm11.3-4.5c0-2.2-1.5-3.8-3.8-3.8h-4.2v11.4h1.7v-3.9h2.4c2.3.1 3.9-1.4 3.9-3.7zm7.5 2.1c0-1.6-1.4-2.7-3.3-2.7-1.8 0-3.3 1-3.3 2.5h1.6c.1-.7.8-1.1 1.7-1.1 1 0 1.7.5 1.7 1.5v.6l-2.2.1c-2.2.1-3.3 1-3.3 2.4 0 1.5 1.1 2.4 2.7 2.4 1.1 0 2.2-.6 2.6-1.5v1.5h1.6zm8.5-2.7h-1.8l-2.1 6.7-2.1-6.7h-1.8l3 8.2-.1.5c-.2.8-.7 1.1-1.5 1.1-.1 0-.5 0-.6 0v1.4h.7c1.7 0 2.5-.7 3.2-2.6z"/></svg>