<svg enable-background="new 0 0 48 48" viewBox="0 0 48 48" xmlns="http://www.w3.org/2000/svg"><path d="m27.1 16.7c0-1.4-1.1-1.5-2.3-1.5h-3.2v5.8h1.3v-2h1.5c1.5 0 1.3.9 1.3 2.1h1.3v-1.1c0-.8-.1-1.3-.9-1.5.5-.6 1-1.1 1-1.8zm-2.5.9h-1.7v-1.3h1.7c.5 0 .9.1.9.6 0 .6-.5.7-.9.7zm-1.4 7.4h-4.3l-1.8 2-1.7-2h-5.5v5.8h5.5l1.8-1.9 1.7 1.9h2.6v-1.9c1.6 0 4.1.3 4.1-1.9-.1-1.5-1.1-2-2.4-2zm-8.7 4.6h-3.4v-1.1h3v-1.1h-3v-1h3.4l1.5 1.6zm5.5.7-2.1-2.3 2.1-2.3zm3.2-2.6h-1.7v-1.4h1.8c.5 0 .8.2.8.7-.1.4-.4.7-.9.7zm-2.6-11.4v-1.3h-4.6v5.8h4.6v-1.1h-3.2v-1.1h3.2v-1.1h-3.2v-1h3.2zm11.2 10.3c0-1.4-1.1-1.6-2.3-1.6h-3.3v5.8h1.4v-2.1h1.4c.9 0 1.3.1 1.3 1.1v.9h1.4v-1.1c0-.7-.1-1.3-.9-1.5.6-.2 1-.9 1-1.5zm-2.5.9h-1.7v-1.3h1.7c.5 0 .9.1.9.6 0 .6-.5.7-.9.7zm-14.4-6.6v-5.8h-2.3l-1.6 3.9-1.8-3.9h-2.3v5.5l-2.3-5.5h-2.1l-2.5 5.8h1.5l.6-1.3h2.9l.6 1.3h2.9v-4.6l1.9 4.6h1.3l1.9-4.6v4.6zm-12.4-2.5.9-2.3.9 2.3zm39.8 13.3v-.3c-.9.5-.3.3-13 .3 0-2.1 0-1.9 0-2.1-.1 0-.2 0-.8 0v2.1h-3.3c0-1 0-1.3 0-2.4-.8.5-1.8.5-2.9.5v1.9h-4c-.5-.5-.2-.2-1.3-1.5-.2.3-1 1.1-1.4 1.5h-6.8v-7.7h7c.5.5.2.2 1.3 1.5.2-.3 1-1.1 1.3-1.5h4.8c.8 0 1.5.1 2.1.5v-.5c4.6 0 5.4-.1 6.3.5v-.5h6.5v.5c.9-.6 1.6-.5 5.4-.5v.5c.9-.5 1.4-.5 4.6-.5v-14.6c0-2.2-1.8-4-4-4h-40c-2.4 0-4.1 1.7-4.1 4v9.1c.8-1.8 1.6-3.9 1.9-4.5h3.3c.3.8.1.3.8 1.7v-1.7h3.9c.2.6.9 1.9 1.1 2.5.5-1.1.8-1.9 1-2.5h8.5.9c3.7 0 4.5-.1 5.4.5v-.5h3.3v.8c.7-.5 1.5-.8 2.5-.8h2.4.2 2.7c.3.8.2.5.7 1.7v-1.7h3.7c.5.7-.1-.1.9 1.5v-1.5h3.3v7.7h-3.4c-.5-.8-.1-.2-1.1-1.8v1.8h-4.3c-.6-1.3 0 0-.6-1.3h-1.6c-.3.8-.2.5-.6 1.3h-2.3c-1 0-1.8-.2-2.5-.7v.7h-5.5c0-1.1 0-2.1 0-2.1-.1 0-.2 0-.8 0v2.1h-11.2v-.9c-.2.5-.2.5-.5.9h-2.4c-.3-.7-.2-.6-.5-.9v.9h-4.4c-.3-.8-.2-.5-.6-1.3h-1.5c-.3.8-.2.5-.6 1.3h-2.1v16.9c0 2.2 1.8 4 4 4h40c2.2 0 4-1.8 4-4v-7.5c-1.1.7-2.7.6-5.7.6zm3.1-5.4h2.5v-1.3h-2.7c-1 0-1.9.6-1.9 1.7 0 2.7 3.5 1 3.5 2.3 0 .5-.3.6-.7.6h-2.6v1.3h2.6c.7 0 1.5-.1 1.8-.7v-2.2c-.9-1.1-3.3-.1-3.3-1.1 0-.6.3-.6.8-.6zm-4.8 3.3h-2.6v1.3h2.6c1.3 0 2.2-.5 2.2-1.8 0-2.7-3.5-.9-3.5-2.2 0-.5.5-.6.8-.6h2.5v-1.3h-2.7c-1 0-1.9.6-1.9 1.7 0 2.7 3.5 1 3.5 2.3-.1.5-.6.6-.9.6zm-3.6-3.3v-1.1h-4.6v5.8h4.6v-1.1h-3.2v-1.1h3.2v-1.1h-3.2v-1.3h3.2zm-4.7-9s-.1.2-.1.7.1.7.1.7.1 0 .2 0l.6-1.4c-.1 0-.2 0-.2 0-.3-.2-.4 0-.6 0zm.4-2.2c-1.9 0-2.9 1-2.9 3 0 1.8.8 2.9 2.7 2.9h1.7l.6-1.3h2.9l.6 1.3h2.9v-4.3l2.6 4.3h1.9v-5.7h-1.4v4l-2.4-4h-2.1v5.4l-2.3-5.5h-2.1l-1.9 4.6h-.5c-1.1 0-1.4-.7-1.4-1.7 0-1.9 1.3-1.7 2.7-1.6v-1.3h-1.6zm3.5 1 .9 2.3h-1.9zm-8.4-1v5.8h1.4v-5.8z"/></svg>