<svg enable-background="new 0 0 48 48" viewBox="0 0 48 48" xmlns="http://www.w3.org/2000/svg"><path d="m43.3 19c0-.7-.5-1-1.3-1h-.5v2h.3c1.1.1 1.5-.3 1.5-1zm.7-13.6h-40c-2.2 0-4 1.7-4 4v29.4c0 2.2 1.8 4 4 4h40c2.2 0 4-1.8 4-4v-29.4c0-2.3-1.8-4-4-4zm-3.7 11.5c1.8 0 4.5-.3 4.5 2.1 0 1-.6 1.7-1.6 1.9l2.2 2.9h-1.6l-1.9-2.8h-.2v2.7h-1.4zm-4.6 0h3.8v1.1h-2.5v1.5h2.4v1.1h-2.4v1.8h2.4v1.1h-3.8v-6.6zm-5.8 0 1.8 4.6 1.8-4.6h1.5l-3 7h-.7l-3-7zm-4.6-.2c2.1 0 3.8 1.7 3.8 3.8s-1.7 3.8-3.8 3.8-3.8-1.7-3.8-3.8c.1-2.2 1.7-3.8 3.8-3.8zm-4.2.4v1.6c-1.7-1.7-3.9-.3-3.9 1.6 0 2.1 2.3 3.2 3.9 1.6v1.6c-2.5 1.1-5.3-.5-5.3-3.2.1-2.6 2.8-4.4 5.3-3.2zm-8.1 5.6c.9 0 1.8-1.3-.2-2.1-1.3-.5-1.7-.9-1.7-1.9 0-1.9 2.5-2.6 4.1-1.1l-.7.9c-.9-.9-2.1-.6-2.1.2 0 .3.2.6 1 .9 1.5.6 1.9 1 1.9 2.2 0 2.5-3.2 3.1-4.7.9l.9-.8c.4.5 1 .8 1.5.8zm-8.4 1.1h-2v-6.9h1.9c2.2 0 3.7 1.4 3.7 3.4.1 1.5-1 3.5-3.6 3.5zm5.7 0h-1.4v-6.9h1.4zm35.1 14.9c0 .7-.6 1.3-1.3 1.3h-33.5c15.8-3 31.9-11.7 34.6-13.4v12.1zm-39.2-20.1c-.5-.4-.9-.6-1.9-.6h-.3v4.6h.3c.9 0 1.4-.1 1.8-.6.5-.5.7-1 .7-1.7.2-.6-.2-1.2-.6-1.7z"/></svg>