<svg enable-background="new 0 0 48 48" viewBox="0 0 48 48" xmlns="http://www.w3.org/2000/svg"><path d="m20 9.4c-8.1 0-14.6 6.5-14.6 14.6s6.6 14.6 14.6 14.6c8.1 0 14.6-6.6 14.6-14.6 0-8.1-6.5-14.6-14.6-14.6zm-3.3 23.2c-3.4-1.4-5.9-4.7-5.9-8.7s2.5-7.3 5.9-8.7zm6.6.1v-17.4c3.4 1.4 5.9 4.7 5.9 8.7s-2.5 7.3-5.9 8.7zm20.7-27.3h-40c-2.2 0-4 1.7-4 4v29.4c0 2.2 1.8 4 4 4h40c2.2 0 4-1.8 4-4v-29.4c0-2.3-1.8-4-4-4zm-16.6 34.6h-7.5c-8.8 0-16.1-7.1-16.1-15.9 0-9.6 7.3-16.1 16.1-16.1h7.5c8.8 0 16.7 6.6 16.7 16.1.1 8.8-7.9 15.9-16.7 15.9z"/></svg>