<svg enable-background="new 0 0 48 48" viewBox="0 0 48 48" xmlns="http://www.w3.org/2000/svg"><path d="m36 23v-2.7h3.2c.6.1 1.1.6 1.1 1.4 0 .7-.5 1.3-1.1 1.4-.1 0-.3-.1-3.2-.1zm3.5 1.7c-.2-.1-.2 0-3.5 0v3h3.5c.6-.1 1.1-.7 1.1-1.4.1-.9-.5-1.5-1.1-1.6zm8.5-15.3v29.4c0 2.2-1.8 4-4 4h-40c-2.2 0-4-1.8-4-4v-29.4c0-2.2 1.8-4 4-4h40c2.2 0 4 1.7 4 4zm-32.8 9.3h-4.8c0 5.6.9 9.1-3 9.1-1.6 0-3.2-.5-4.8-1.3v2.3c2.5.7 5.7.7 5.7.7 8.2.1 6.9-3.9 6.9-10.8zm14.9.4c-5.3-1.4-13.7-1.3-13.7 4.9 0 6.4 9 6.2 13.7 4.9v-2.4c-4 2.1-8.9 1.8-8.9-2.6s5-4.7 8.9-2.6zm15.3 7.4c0-1.5-1.4-2.5-3.2-2.6v-.1c1.6-.2 2.5-1.3 2.5-2.5 0-1.6-1.3-2.5-3.1-2.6 0 0 .6 0-10.1 0v10.6h10.2c2.2.1 3.7-1.1 3.7-2.8z"/></svg>