<svg enable-background="new 0 0 48 48" viewBox="0 0 48 48" xmlns="http://www.w3.org/2000/svg"><path d="m40.2 36.8c0 .6-.3 1-.9 1s-.9-.5-.9-1 .3-1 .9-1 .9.4.9 1zm-25.9-1c-.6 0-.9.5-.9 1s.3 1 .9 1 .9-.5.9-1-.3-1-.9-1zm9.8 0c-.5 0-.7.3-.8.7h1.6c0-.5-.3-.7-.8-.7zm9 0c-.6 0-.9.5-.9 1s.3 1 .9 1 .9-.5.9-1-.3-1-.9-1zm8.8 2.1s0 .1 0 0v.2.1s0 0-.1 0c0 0 0 0-.1 0 0 0 0 0-.1 0 0 0 0 0-.1 0 0 0 0 0 0-.1v-.1-.1-.1h.1.1.1s0 0 .1.1zm-.2.1c.1 0 .1 0 0 0 .1-.1.1-.1.1-.1s0 0-.1 0h-.1v.3zm6.3-28.6v29.4c0 2.2-1.8 4-4 4h-40c-2.2 0-4-1.8-4-4v-29.4c0-2.2 1.8-4 4-4h40c2.2 0 4 1.7 4 4zm-42.6 11.5c0 6.4 5.1 11.5 11.5 11.5 2.3 0 4.5-.7 6.4-1.9-6.1-4.9-6.1-14.3 0-19.2-1.8-1.3-4.1-1.9-6.4-1.9-6.4.1-11.5 5.2-11.5 11.5zm18.6 9.1c5.8-4.6 5.8-13.5 0-18.2-5.8 4.8-5.8 13.7 0 18.2zm-11.9 6.3c0-.7-.5-1.1-1.3-1.3-.3 0-.8.1-1 .6-.2-.3-.6-.6-1-.6-.3 0-.7.1-.9.5v-.3h-.6v3.1h.7c0-1.6-.2-2.5.8-2.5.8 0 .7.8.7 2.5h.7c0-1.5-.2-2.5.8-2.5.8 0 .7.8.7 2.5h.7zm3.8-1.1h-.7v.3c-.2-.2-.6-.5-1-.5-.9 0-1.5.7-1.5 1.6s.7 1.6 1.5 1.6c.5 0 .8-.1 1-.5v.3h.7zm3.4 2.2c0-1.3-1.9-.7-1.9-1.3 0-.5 1-.3 1.5-.1l.2-.6c-.8-.5-2.5-.5-2.5.7 0 1.1 1.9.7 1.9 1.3s-1.1.5-1.7.1l-.3.5c1 .6 2.8.5 2.8-.6zm2.9.8-.2-.6c-.3.2-1 .3-1-.3v-1.4h1.1v-.6h-1.1v-1h-.7v.9h-.7v.6h.7v1.4c0 1.5 1.4 1.2 1.9 1zm1.1-1.2h2.3c0-1.4-.6-1.8-1.5-1.8s-1.5.7-1.5 1.6c0 1.7 1.8 1.9 2.9 1.1l-.3-.5c-.7.5-1.7.5-1.9-.4zm4.9-1.8c-.3-.1-.9-.1-1.3.3v-.3h-.7v3.1h.8v-1.7c0-.9.8-.8 1-.7zm.9 1.6c0-.9.9-1.3 1.7-.7l.3-.6c-.9-.8-2.7-.3-2.7 1.3s1.8 1.9 2.7 1.3l-.3-.6c-.7.5-1.7.2-1.7-.7zm5.5-1.6h-.7v.3c-.7-.9-2.5-.3-2.5 1.1 0 1.6 1.8 2.1 2.5 1.1v.3h.7zm2.9 0c-.2-.1-.9-.2-1.3.3v-.3h-.7v3.1h.7v-1.7c0-.9.8-.9 1-.7zm3.3-1.2h-.7v1.6c-.7-.9-2.5-.5-2.5 1.1s1.8 2.1 2.5 1.1v.3h.7zm.7-6.2v.3h.1l-.1-.3h.2v-.1h-.3v.1zm.6 10.2v-.1s0-.1-.1-.1-.1 0-.1-.1h-.1-.1s-.1 0-.1.1l-.1.1v.1.1s0 .1.1.1c0 0 0 0 .1.1h.1.1s.1 0 .1-.1c0 0 0-.1.1-.1zm.2-10.3h-.1l-.1.3-.1-.3h-.1v.5h.1v-.3l.1.3h.1l.1-.5-.1.5h.1zm.3-6.8c0-6.4-5.1-11.5-11.5-11.5-2.3 0-4.5.7-6.4 1.9 6.1 4.9 6.1 14.3 0 19.2 1.8 1.3 4.1 1.9 6.4 1.9 6.4.1 11.5-5.1 11.5-11.5z"/></svg>