<svg enable-background="new 0 0 48 48" viewBox="0 0 48 48" xmlns="http://www.w3.org/2000/svg"><path d="m15.5 24.2c0 1-.8 1.8-1.8 1.8-.8 0-1.4-.5-1.4-1.3 0-1 .8-1.8 1.8-1.8.9 0 1.4.4 1.4 1.3zm-8.8-4.1h-.4c-.1 0-.2.1-.2.2l-.3 2.3h.7c.9 0 1.6-.1 1.8-1.1 0-1.3-.6-1.4-1.6-1.4zm23.7 0h-.3c-.1 0-.2.1-.2.2l-.3 2.2h.7c1 0 1.8-.2 1.8-1.5-.2-.8-1-.9-1.7-.9zm17.6-10.7v29.4c0 2.2-1.8 4-4 4h-40c-2.2 0-4-1.8-4-4v-29.4c0-2.2 1.8-4 4-4h40c2.2 0 4 1.7 4 4zm-37.3 11.2c0-1.7-1.4-2.3-2.9-2.3h-3.3c-.2 0-.5.1-.5.3l-1.4 8.5c0 .1.1.3.2.3h1.7c.3 0 .5-.2.5-.4l.3-2.2c.1-.6 1.1-.3 1.5-.3 2.5-.1 3.9-1.5 3.9-3.9zm7 .8h-1.6c-.3 0-.3.5-.3.7-.5-.7-1.1-.8-1.9-.8-2.1 0-3.5 1.8-3.5 3.8 0 1.6 1 2.6 2.6 2.6.8 0 1.7-.5 2.2-1 0 .1-.1.3-.1.6s.1.3.2.3h1.5c.2 0 .5-.2.5-.5l.8-5.4c0-.2-.3-.3-.4-.3zm3.3 8.1 5.3-7.8v-.1c0-.1-.1-.3-.2-.3h-1.6c-.1 0-.3.1-.3.2l-2.2 3.2-.9-3c-.1-.2-.2-.3-.5-.3h-1.6c-.1 0-.2.1-.2.3 0 .1 1.6 4.7 1.7 5.1-.2.3-1.7 2.4-1.7 2.6 0 .1.1.2.2.2h1.6c.3.1.4 0 .4-.1zm13.4-8.9c0-1.7-1.4-2.3-2.9-2.3h-3.3c-.2 0-.5.1-.5.3l-1.4 8.5c0 .1.1.3.2.3h1.7c.1 0 .3-.1.3-.2l.3-2.4c.1-.6 1.1-.3 1.5-.3 2.6-.1 4.1-1.5 4.1-3.9zm7 .8h-1.6c-.3 0-.3.5-.3.7-.5-.7-1.1-.8-1.9-.8-2.1 0-3.7 1.8-3.7 3.8 0 1.6 1 2.6 2.6 2.6.8 0 1.7-.5 2.2-1 0 .1-.1.3-.1.6s.1.3.2.3h1.5c.2 0 .5-.2.5-.5l.8-5.4c.1-.2-.1-.3-.2-.3zm4-2.8c0-.1-.1-.3-.2-.3h-1.5c-.1 0-.2.1-.2.2l-1.4 8.7c0 .1.1.3.3.3h1.4c.2 0 .5-.2.5-.5zm-7.6 4.3c-1 0-1.8.8-1.8 1.8 0 .8.6 1.3 1.4 1.3 1 0 1.8-.8 1.8-1.8 0-.9-.6-1.3-1.4-1.3z"/></svg>