<svg enable-background="new 0 0 48 48" viewBox="0 0 48 48" xmlns="http://www.w3.org/2000/svg"><path d="m41 21c-.7 0-1.6.6-1.6 1.9h3.1c0-1.3-.8-1.9-1.5-1.9zm-9.8.3c-.7 0-1.1.2-1.4.6v4.3c.3.3.7.6 1.4.6 1.1 0 1.8-1.1 1.8-2.7s-.7-2.8-1.8-2.8zm12.8-15.9h-40c-2.2 0-4 1.7-4 4v29.4c0 2.2 1.8 4 4 4h40c2.2 0 4-1.8 4-4v-29.4c0-2.3-1.8-4-4-4zm-33.8 20.6c0 2.2-1.7 3.3-4.1 3.3-1 0-2.2-.2-3.2-.7v-2.9c1 .6 2.3.9 3.2.9.7 0 1.1-.2 1.1-.7 0-1.4-4.5-.9-4.5-4.1 0-2.1 1.6-3.3 4-3.3 1 0 1.9.1 3 .6v2.7c-.9-.5-2.1-.8-3-.8-.6 0-1 .2-1 .7 0 1.5 4.5.8 4.5 4.3zm5.7-4.6h-2.3v4.2c0 1.7 1.8 1.3 2.3 1v2.4c-.3.2-1.1.3-2.1.3-1.7 0-3.1-1.3-3.1-3.1v-9.5l2.9-.6v2.5h2.3zm6.2.2c-.3-.1-1.6-.3-2.3.6v7.1h-3v-10.5h2.6l.2.9c.7-1.3 2.1-1 2.5-.9v2.7zm3.6 7.7h-3v-10.4h3zm0-11.9-3 .7v-2.4l3-.7zm6.2 12.1c-1 0-1.7-.5-2.1-.8v3.3l-3 .6v-13.7h2.6l.1.7c.5-.3 1.1-.9 2.3-.9 2.1 0 4 1.8 4 5.4.2 3.7-1.7 5.4-3.9 5.4zm13.4-4.4h-5.8c.1 1.4 1.1 1.8 2.3 1.8s2.1-.2 2.9-.7v2.4c-.8.5-1.8.8-3.3.8-2.9 0-4.9-1.8-4.9-5.4 0-3 1.7-5.4 4.6-5.4s4.2 2.4 4.2 5.4c.1.3 0 1 0 1.1z"/></svg>