<svg enable-background="new 0 0 48 48" viewBox="0 0 48 48" xmlns="http://www.w3.org/2000/svg"><path d="m39.2 21.9s.7 3.1.8 3.8h-2.7c.2-.7 1.4-3.7 1.4-3.7s.2-.8.5-1.3zm8.8-12.5v29.4c0 2.2-1.8 4-4 4h-40c-2.2 0-4-1.8-4-4v-29.4c0-2.2 1.8-4 4-4h40c2.2 0 4 1.7 4 4zm-35.3 20.9 5.3-12.9h-3.5l-3.3 8.8-.3-1.8-1.1-5.9c-.2-.8-.8-1-1.5-1.1h-5.6l-.1.2c1.4.3 2.5.8 3.5 1.4l3 11.2h3.5v.1zm7.9 0 2.1-12.9h-3.3l-2.1 12.9zm11.6-4.3c0-1.5-.9-2.6-2.9-3.5-1.1-.6-1.9-1-1.9-1.6s.6-1.1 1.9-1.1c1.1 0 1.9.2 2.5.5l.3.1.5-2.7c-.7-.2-1.7-.5-3-.5-3.3 0-5.6 1.7-5.6 4.2 0 1.8 1.7 2.9 3 3.5 1.3.7 1.7 1 1.7 1.6 0 .9-1 1.3-2.1 1.3-1.4 0-2.1-.2-3.1-.7l-.5-.2-.5 2.9c.8.3 2.3.7 3.8.7 3.6 0 5.9-1.8 5.9-4.5zm11.8 4.3-2.7-12.9h-2.6c-.8 0-1.4.2-1.7 1l-5 11.9h3.5s.6-1.6.7-1.9h4.3c.1.5.3 1.9.3 1.9z"/></svg>