<svg enable-background="new 0 0 48 48" viewBox="0 0 48 48" xmlns="http://www.w3.org/2000/svg"><path d="m24.1 32.3c-.6 0-1-.5-1-1v-1c-.8 0-1.6-.1-2.3-.4-.7-.2-1.1-1-1-1.7v-.1c.1-.2.2-.5.5-.6s.5-.1.7 0c.7.2 1.6.5 2.4.5 1.2 0 1.9-.5 1.9-1.2s-.6-1.2-2.2-1.8c-2.2-.7-3.6-1.7-3.6-3.7 0-1.8 1.2-3.1 3.4-3.6v-1c0-.6.5-1 1-1s1.2.4 1.2 1v.8c.7 0 1.2.1 1.7.2.4.1.6.2.8.6.1.2.2.6.1 1v.1c-.1.2-.2.5-.5.6-.2.1-.5.1-.7.1-.5-.1-1.2-.4-2-.4-1.3 0-1.7.6-1.7 1.1 0 .7.7 1.1 2.4 1.7 2.4.8 3.4 1.9 3.4 3.7s-1.3 3.4-3.6 3.7v1.1c.2.8-.3 1.3-.9 1.3z"/><path d="m24.6 13.5c6.1 0 11 4.9 11 11s-4.9 11-11 11-11-4.9-11-11 4.9-11 11-11m0-4.5c-8.6 0-15.6 7-15.6 15.6s7 15.6 15.6 15.6 15.6-7 15.6-15.6-7.1-15.6-15.6-15.6z"/><path d="m47.4 5.7-8.4-5.4c-.8-.6-1.6-.2-1.6.8v3.4h-5.9c-.8 0-1.5.7-1.5 1.5v1.6c0 .8.7 1.6 1.6 1.6h5.9v3.5c0 1.1.7 1.3 1.6.8l8.4-5.5c.7-.8.7-1.7-.1-2.3z"/><path d="m.6 42.3 8.4 5.4c.8.6 1.6.1 1.6-.8v-3.4h5.9c.8 0 1.6-.7 1.6-1.6v-1.6c0-.8-.7-1.4-1.6-1.4h-5.9v-3.4c0-1.1-.7-1.3-1.6-.7l-8.4 5.5c-.8.5-.8 1.4 0 2z"/></svg>