<svg enable-background="new 0 0 48 48" viewBox="0 0 48 48" xmlns="http://www.w3.org/2000/svg"><path d="m44 5.3h-40c-2.2 0-4 1.8-4 4v29.3c0 2.2 1.8 4 4 4h40c2.2 0 4-1.8 4-4v-29.3c0-2.2-1.8-4-4-4zm-28 19.7c0-.6.4-1 1-1h5.3c.5 0 1 .4 1 1v3.3c0 .5-.5 1-1 1h-5.3c-.6 0-1-.5-1-1zm-2.7 11.3c0 .6-.4 1-1 1h-6c-.6 0-1-.4-1-1v-.7c0-.6.4-1 1-1h6c.6 0 1 .4 1 1zm1.4-8c0 .5-.4 1-1 1h-7.4c-.6 0-1-.5-1-1v-3.3c0-.6.4-1 1-1h7.3c.6 0 1 .4 1 1v3.3zm14.6 8c0 .6-.5 1-1 1h-11.3c-.6 0-1-.4-1-1v-.7c0-.6.4-1 1-1h11.3c.5 0 1 .4 1 1zm2.7-8c0 .5-.4 1-1 1h-5.3c-.5 0-1-.5-1-1v-3.3c0-.6.5-1 1-1h5.3c.6 0 1 .4 1 1zm10.7 0c0 .5-.5 1-1 1h-7.3c-.5 0-1-.5-1-1v-3.3c0-.6.5-1 1-1h7.3c.5 0 1 .4 1 1zm0-11.6c0 1.1-.9 2-2 2h-6.7c-1.1 0-2-.9-2-2v-4c0-1.1.9-2 2-2h6.7c1.1 0 2 .9 2 2z"/></svg>