<svg enable-background="new 0 0 48 48" viewBox="0 0 48 48" xmlns="http://www.w3.org/2000/svg"><path d="m16.9 17.8c-8.4 0-15.1 6.7-15.1 15.1s6.7 15.1 15.1 15.1 15.1-6.7 15.1-15.1-6.8-15.1-15.1-15.1zm1.2 22.3v.8c0 .7-.6 1.2-1.2 1.2s-1.2-.6-1.2-1.2v-.8c-.7-.2-1.4-.6-1.9-1.2-.5-.5-.5-1.3 0-1.8s1.3-.5 1.8 0c.4.4.8.6 1.3.6 1 0 1.8-.8 1.8-1.8s-.8-1.8-1.8-1.8c-2.4 0-4.3-1.9-4.3-4.3 0-1.9 1.3-3.6 3.1-4.1v-.8c0-.7.6-1.2 1.2-1.2s1.2.6 1.2 1.2v.8c.7.2 1.4.6 1.9 1.2.5.5.5 1.3 0 1.8s-1.3.5-1.8 0c-.4-.4-.8-.6-1.3-.6-1 0-1.8.8-1.8 1.8s.8 1.8 1.8 1.8c2.4 0 4.3 1.9 4.3 4.3 0 1.9-1.3 3.6-3.1 4.1z"/><path d="m12 0c-6.1 0-10.9 4.9-10.9 10.9 0 3.7 1.8 7 4.7 9 3-2.6 7-4.2 11.2-4.2h1.3c.1-3.7 1.4-7.1 3.7-9.6-2-3.6-5.7-6.1-10-6.1zm2 8.9c.5 0 .8.4.8.8s-.4.8-.8.8h-1.8v.8h1.8c.5 0 .8.4.8.8s-.4.8-.8.8h-1.8v1c0 .5-.4.8-.8.8s-.8-.4-.8-.8v-1h-1.8c-.5 0-.8-.4-.8-.8s.4-.8.8-.8h1.8v-.8h-1.8c-.5 0-.8-.4-.8-.8s.4-.8.8-.8h1l-1.9-2.8c-.2-.3-.1-.8.3-1.1.3-.2.8-.1 1 .3l2 3.1 2-3.1c.3-.4.8-.5 1.2-.3s.5.7.2 1.1l-1.8 2.8z"/><path d="m33.6 2.8c-7.3 0-13.3 6-13.4 13.3 6.8 1.3 12.2 6.7 13.6 13.6 7.3 0 13.3-6 13.3-13.4-.1-7.5-6.2-13.5-13.5-13.5zm4.7 8.1c-.1.5-.6.6-1.1.5-.4-.1-.8-.2-1.3-.2-1.3 0-2.5.8-3.2 2h3.5c.5 0 .8.4.8.8 0 .5-.4.8-.8.8h-4v1.2h4c.5 0 .8.4.8.8 0 .5-.4.8-.8.8h-3.5c.7 1.2 1.9 2 3.2 2 .4 0 .7 0 1.1-.1.5-.1.8.1 1.1.5.1.5-.1.8-.5 1.1-.5.1-1 .2-1.6.2-2.3 0-4.2-1.6-5-3.6h-1.4c-.5 0-.8-.4-.8-.8 0-.5.4-.8.8-.8h1c0-.2 0-1 0-1.2h-1c-.5 0-.8-.4-.8-.8 0-.5.4-.8.8-.8h1.4c.8-2.2 2.8-3.6 5-3.6.6 0 1.3.1 1.8.4.5-.1.7.3.5.8z"/></svg>