<svg enable-background="new 0 0 48 48" viewBox="0 0 48 48" xmlns="http://www.w3.org/2000/svg"><path d="m22.4 18v1.7c0 .4.4.5.6.4l5.7-3.5c.2-.1.2-.5 0-.7l-5.7-3.6c-.2-.1-.6 0-.6.4v1.7h-12.9c-5.3 0-9.5 4.3-9.5 9.6s4.3 9.6 9.6 9.6 9.6-4.3 9.6-9.6c0-2.3-.8-4.3-2.2-6zm-10.2 9.7c-.4.5-1 .8-1.6 1-.2.1-.4.2-.4.5v.8s-.1.4-.4.4c-.4 0-.6 0-1 0-.2 0-.4-.1-.4-.4 0-.2 0-.4 0-.6 0-.5 0-.5-.5-.6-.6-.1-1.1-.2-1.6-.5-.4-.2-.5-.2-.4-.7.1-.4.1-.6.2-1s.2-.4.6-.2c.6.2 1.2.5 1.8.6.4 0 .8 0 1.2-.1.7-.4.8-1.1.2-1.6.1-.1-.1-.2-.4-.3-.6-.2-1.2-.5-1.8-.8-1-.5-1.6-1.3-1.6-2.5.1-1.3.8-2.2 2.1-2.5.5-.1.5-.1.5-.7 0-.1 0-.4 0-.5 0-.4.1-.5.5-.5h.4c.8 0 .8 0 .8.8 0 .6 0 .6.6.7.5.1.8.2 1.3.4.2.1.4.2.2.5-.1.4-.2.7-.4 1.1-.1.4-.2.4-.5.2-.6-.4-1.3-.5-2.1-.4-.2 0-.4 0-.6.1-.6.2-.7 1-.2 1.3.2.2.6.4.8.5.6.2 1.1.5 1.6.7 1.8 1 2.3 3 1.1 4.3z"/><path d="m38.5 14.4c-5.3 0-9.6 4.3-9.6 9.6 0 2.3.8 4.3 2.2 6h-5.5v-1.7c0-.4-.4-.5-.6-.4l-5.7 3.5c-.2.1-.2.5 0 .7l5.7 3.5c.2.1.6 0 .6-.4v-1.7h13c5.3 0 9.5-4.3 9.5-9.6 0-5.2-4.3-9.5-9.6-9.5zm3.8 15.1c-.4.1-.7.2-1 .4-1.3.4-2.7.4-4 0-1.6-.5-2.7-1.6-3.3-3.1-.1-.2-.2-.6-.2-1h-1.2c-.2 0-.4-.1-.4-.4v-.8c0-.2.1-.4.4-.4h1.1c0-.2 0-.5 0-.7h-1.3c-.2 0-.4-.1-.4-.4v-.8c0-.2.1-.4.4-.4h1.3v-.1c.4-1.1 1-2.1 1.9-2.8.7-.6 1.6-.8 2.5-1.1 1.3-.2 2.5 0 3.9.5.1 0 .1.1.2.1.2.1.4.4.2.7-.1.4-.2.7-.5 1-.1.2-.4.4-.6.4-.4-.1-.8-.2-1.2-.4-.8-.1-1.7-.2-2.7.1-.7.2-1.2.8-1.4 1.6h2.5c.2 0 .4.1.4.4v.8c0 .2-.1.4-.4.4h-2.9v.7h2.9c.2 0 .4.1.4.4v.8c0 .2-.1.4-.4.4h-2.7c.4 1 .8 1.6 1.8 1.9.8.2 1.6.2 2.4.1.4-.1.8-.2 1.2-.4.4-.1.5 0 .6.4s.2.7.5 1c.4.3.3.6 0 .7z"/></svg>