<svg enable-background="new 0 0 48 48" viewBox="0 0 48 48" xmlns="http://www.w3.org/2000/svg"><path d="m47.6 25.2c-.2-1-.6-1.8-1-2.6l-4.9-9c-1-1.9-3-2.8-5-2.8h-5.7c-1.3 0-2.2.6-2.2 1.8v12.6h-25.8c-1.7 0-3 1.4-3 3.1v11c0 1.7 1.3 3.4 3 3.4h.8c0-4.8 3.5-7.7 7.8-7.7s7.7 2.9 7.8 7.7h6.8c0-3.2 1-4.3 2.4-5.7 1.4-1.3 3.4-2.3 5.4-2.3 2.3 0 4.3 1.1 5.6 2.6 1.3 1.3 2 2.2 2.2 5.4h3.2c1.7 0 3-1.8 3-3.4v-2.2-8.9c-.1-1.1-.2-2-.4-3zm-15.6-.1v-11.2h4.7c1 0 1.8.2 2.3 1.1l4.9 9.1c.2.4.4 1 .5 1z"/><path d="m11.7 37.8c-2.5 0-4.5 2-4.5 4.5s2 4.5 4.5 4.5 4.5-2 4.5-4.5-2-4.5-4.5-4.5z"/><path d="m33.9 37.8c-2.5 0-4.5 2-4.5 4.5s2 4.5 4.5 4.5 4.5-2 4.5-4.5-2-4.5-4.5-4.5z"/><path d="m25.5 2.6c0-.8-.7-1.4-1.6-1.4h-19.5c-.8 0-1.2.6-1.2 1.4v19.3h22.4c-.1-.1-.1-19.3-.1-19.3zm-6.1 11-4.5 4.5c-.2.2-.5.2-.7.2s-.5-.1-.7-.2l-4.5-4.5c-.2-.2-.4-.5-.2-.8.1-.4.5-.4 1-.4h3.1v-8.2h3.1v8h2.8c.4 0 .7 0 1 .4.1.4 0 .7-.4 1z"/></svg>