<svg enable-background="new 0 0 48 48" viewBox="0 0 48 48" xmlns="http://www.w3.org/2000/svg"><path d="m20.2 17.2c0-1.8 1.7-3 4.3-3 2.1 0 4.2 1 6 2.2.5.3 1.1.2 1.4-.3l1.8-3.4c.2-.4.1-.9-.2-1.1-1.9-1.7-4.6-2.7-7.1-3v-3.7c0-.5-.4-.9-.9-.9h-3.1c-.5 0-.9.4-.9.9v3.9c-4.6 1-7.6 4.4-7.6 8.5 0 9.7 14.4 8.7 14.4 13.2 0 1.5-1.3 3.2-4.1 3.2-2.4 0-4.9-1.2-6.9-2.8-.4-.3-1-.3-1.3.2l-2.4 3.2c-.3.4-.2.9.1 1.2 1.9 1.8 4.6 3.2 7.7 3.7v3.8c0 .5.4.9.9.9h3.1c.5 0 .9-.4.9-.9v-3.7c5.1-.8 8.3-4.6 8.3-9.1 0-9.3-14.4-8-14.4-13z"/></svg>