<svg enable-background="new 0 0 48 48" viewBox="0 0 48 48" xmlns="http://www.w3.org/2000/svg"><path d="m15.6 31.2h28.8c.7 0 1.2-.5 1.2-1.2v-19.2c0-.7-.5-1.2-1.2-1.2h-28.8c-.7 0-1.2.5-1.2 1.2v19.2c0 .7.5 1.2 1.2 1.2zm2.4-18h8.4v8.4l3.6-2.4 3.6 2.4v-8.4h8.4v14.4h-24zm28.8 21.6h-36v-28.8c0-.7-.5-1.2-1.2-1.2h-8.4c-.7 0-1.2.5-1.2 1.2v1.2c0 .7.5 1.2 1.2 1.2h6v28.8c0 .7.5 1.2 1.2 1.2h3.8c-.1.4-.2.8-.2 1.2 0 2 1.6 3.6 3.6 3.6s3.6-1.6 3.6-3.6c0-.4-.1-.8-.2-1.2h14.8c-.1.4-.2.8-.2 1.2 0 2 1.6 3.6 3.6 3.6s3.6-1.6 3.6-3.6c0-.4-.1-.8-.2-1.2h6.2c.7 0 1.2-.5 1.2-1.2v-1.2c0-.7-.5-1.2-1.2-1.2z"/></svg>