<svg enable-background="new 0 0 48 48" viewBox="0 0 48 48" xmlns="http://www.w3.org/2000/svg"><path d="m15.6 28.8h28.8c.7 0 1.2-.5 1.2-1.2v-19.2c0-.7-.5-1.2-1.2-1.2h-10.8v9.6l-3.6-2.4-3.6 2.4v-9.6h-10.8c-.7 0-1.2.5-1.2 1.2v19.2c0 .7.5 1.2 1.2 1.2zm31.2 4.8h-37.2v-27.6c0-.7-.5-1.2-1.2-1.2h-7.2c-.7 0-1.2.5-1.2 1.2v2.4c0 .7.5 1.2 1.2 1.2h3.6v27.6c0 .7.5 1.2 1.2 1.2h6.2c-.1.4-.2.8-.2 1.2 0 2 1.6 3.6 3.6 3.6s3.6-1.6 3.6-3.6c0-.4-.1-.8-.2-1.2h14.8c-.1.4-.2.8-.2 1.2 0 2 1.6 3.6 3.6 3.6s3.6-1.6 3.6-3.6c0-.4-.1-.8-.2-1.2h6.2c.7 0 1.2-.5 1.2-1.2v-2.4c0-.7-.5-1.2-1.2-1.2z"/></svg>