<svg enable-background="new 0 0 48 48" viewBox="0 0 48 48" xmlns="http://www.w3.org/2000/svg"><path d="m20.5 1.1c-1.4-1.4-3.8-1.4-5.4 0l-6.7 6.7h18.8z"/><path d="m28 46.9c1.4 1.4 3.7 1.4 5.2 0l6.5-6.5h-18.2z"/><path d="m23.8 15.8c-4.6 0-8.3 3.7-8.3 8.3s3.7 8.3 8.3 8.3 8.3-3.7 8.3-8.3c-.1-4.5-3.8-8.3-8.3-8.3zm2.4 11.6c-.4.5-.8.7-1.4.8-.2.1-.4.2-.4.5s0 .5 0 .7-.1.4-.4.4c-.2 0-.5 0-.8 0-.2 0-.4-.1-.4-.4 0-.1 0-.4 0-.6 0-.4 0-.4-.4-.5-.5-.1-1-.2-1.4-.4-.4-.1-.4-.2-.2-.6.1-.2.1-.6.2-.8.1-.4.2-.4.5-.2.5.2 1 .4 1.6.5.4 0 .7 0 1.1-.1.6-.2.7-1 .2-1.4-.1-.1-.4-.2-.6-.4-.5-.2-1.1-.4-1.6-.7-.8-.5-1.3-1.2-1.3-2.2.1-1.1.7-1.8 1.8-2.2.5-.1.5-.1.5-.6 0-.1 0-.4 0-.5 0-.4.1-.4.4-.4h.4c.7 0 .7 0 .7.7 0 .5 0 .5.5.6.4 0 .7.1 1.1.4.2.1.2.2.2.5-.1.4-.1.6-.2 1-.1.2-.2.4-.5.2-.6-.2-1.2-.4-1.8-.4-.1 0-.4 0-.5.1-.5.2-.6.8-.1 1.2.2.2.5.4.7.5.5.2 1 .4 1.4.6 1.3.7 1.6 2.5.7 3.7z"/><circle cx="11.6" cy="24.6" r="2.3"/><circle cx="35.9" cy="24.6" r="2.3"/><path d="m42.1 10.6h-36.2c-2 0-3.8 1.7-3.8 3.8v19.6c0 2 1.7 3.8 3.8 3.8h36.2c2 0 3.8-1.7 3.8-3.8v-19.6c.1-2.2-1.7-3.8-3.8-3.8zm.6 19.4c-.2 0-.5 0-.7 0-2.2 0-3.8 1.7-3.8 3.8 0 .2 0 .5.1.7h-28.2c0-.1 0-.4 0-.5 0-2.2-1.7-3.8-3.8-3.8-.4 0-.6 0-1 .1v-11.7c.4.1.6.1 1 .1 2.2 0 3.8-1.7 3.8-3.8 0-.4 0-.6-.1-1h28.2c0 .2-.1.5-.1.7 0 2.2 1.7 3.8 3.8 3.8h.7v11.6z"/></svg>