<svg enable-background="new 0 0 48 48" viewBox="0 0 48 48" xmlns="http://www.w3.org/2000/svg"><path d="m48 28.4-.5-1.3c-.2-.7-1-1.1-1.7-.8l-1.6.5-6-18c-.2-.8-.8-1.6-1.7-1.9-.8-.4-1.7-.5-2.5-.2l-18.4 6.3-2.4-7.2c-.6-1.9-2.4-3.2-4.4-3.2h-7.5c-.7.1-1.3.7-1.3 1.4v1.3c0 .7.6 1.3 1.3 1.3h7.4c.2 0 .6.2.6.5l7.8 23.4c-2.3 1.4-3.8 4-3.8 6.8 0 4.4 3.6 8 8 8s8-3.6 8-8c0-.4 0-.8-.1-1.2l17.9-6c.6-.1 1-.9.9-1.7zm-26.6 12.9c-2.2 0-4-1.8-4-4s1.8-4 4-4 4 1.8 4 4c-.1 2.3-1.9 4-4 4zm6.2-8.9c-1.4-1.9-3.7-3.1-6.2-3.1-.1 0-.2 0-.4 0l-4.2-12.5 7.2-2.4 1.7 4.9c.2.7 1 1.1 1.7.8l1.3-.5c.7-.2 1.1-1 .8-1.7l-1.7-4.9 6.8-2.3 5.8 17.4z"/></svg>