<svg enable-background="new 0 0 48 48" viewBox="0 0 48 48" xmlns="http://www.w3.org/2000/svg"><path d="m24.5 25.8c1.4.4 2.9 1.1 4.1 2l13.4-4.4c.7-.2 1.1-1 .8-1.7l-4.9-15.1c-.2-.7-1-1.1-1.7-.8l-5 1.7 2.8 8.3-5.2 1.7-2.8-8.4-5 1.7c-.7.2-1.1 1-.8 1.7zm23.5 4.1-.8-2.5c-.2-.7-1-1.1-1.7-.8l-17.9 5.9c-1.4-1.8-3.6-3-6.1-3.1l-8.3-24.9c-.4-1.1-1.4-1.8-2.5-1.8h-9.4c-.7 0-1.3.6-1.3 1.3v2.6c0 .7.6 1.3 1.3 1.3h7.4l7.7 23c-2.2 1.7-3.5 4.4-3 7.6s3.1 6 6.5 6.6c5 .8 9.4-2.9 9.5-7.7l17.8-5.9c.5-.2.9-.9.8-1.6zm-26.6 11.4c-2.2 0-4-1.8-4-4s1.8-4 4-4 4 1.8 4 4c-.1 2.2-1.9 4-4 4z"/></svg>