<svg enable-background="new 0 0 48 48" viewBox="0 0 48 48" xmlns="http://www.w3.org/2000/svg"><path d="m19.4 21.1c-4.1 0-7.4 3.4-7.4 7.4s3.4 7.4 7.4 7.4 7.4-3.4 7.4-7.4-3.2-7.4-7.4-7.4zm2.2 10.5c-.4.4-.7.6-1.2.8-.2 0-.4.1-.4.4v.6c0 .2-.1.4-.2.4-.2 0-.5 0-.7 0s-.4-.1-.4-.4c0-.1 0-.4 0-.5 0-.4 0-.4-.4-.5-.4 0-.8 0-1.2-.2-.4-.1-.4-.2-.2-.6.1-.2.1-.5.2-.7s.1-.4.5-.2c.5.2 1 .4 1.4.5.4 0 .6 0 1-.1.6-.2.6-.8.1-1.2-.1-.1-.4-.2-.5-.4-.5-.2-1-.4-1.4-.6-.7-.5-1.2-1.1-1.2-1.9 0-1 .6-1.7 1.6-2 .4-.1.4-.1.4-.6 0-.1 0-.2 0-.4 0-.4 0-.4.4-.4h.2c.6 0 .6 0 .6.6 0 .5 0 .5.5.5.4 0 .7.1 1 .2.1.1.2.2.2.4-.1.2-.1.6-.2.8s-.1.2-.4.1c-.5-.2-1.1-.4-1.6-.4-.1 0-.2 0-.5.1-.5.2-.6.7-.1 1.1.2.1.5.2.7.4.5.1.8.4 1.2.6 1.2.9 1.6 2.5.6 3.6z"/><circle cx="8.6" cy="29" r="2"/><circle cx="30.4" cy="29" r="2"/><path d="m44.6 7.2h-32.6c-1.9 0-3.4 1.6-3.4 3.4v3.1h27.4c3.5 0 6.2 2.8 6.2 6.2v11.8h2.4c1.9 0 3.4-1.6 3.4-3.4v-17.7c0-2-1.6-3.4-3.4-3.4z"/><path d="m36 16.4h-32.6c-1.8 0-3.4 1.6-3.4 3.4v17.6c0 1.9 1.6 3.4 3.4 3.4h32.6c1.9 0 3.4-1.6 3.4-3.4v-17.5c.1-1.9-1.5-3.5-3.4-3.5zm.5 17.6c-.2 0-.4 0-.6 0-1.9 0-3.5 1.6-3.5 3.5v.6h-25.2c0-.1 0-.2 0-.5 0-1.9-1.6-3.5-3.5-3.5-.2 0-.6 0-.8.1v-10.6c.2.1.6.1.8.1 1.9 0 3.5-1.6 3.5-3.5 0-.2 0-.6-.1-.8h25.4v.6c0 1.9 1.6 3.5 3.5 3.5h.6z"/></svg>