<svg enable-background="new 0 0 48 48" viewBox="0 0 48 48" xmlns="http://www.w3.org/2000/svg"><path d="m28.1 17c-3.8 0-7 3.1-7 7s3.1 7 7 7 7-3.1 7-7c-.2-3.8-3.2-7-7-7zm1.9 9.8c-.4.4-.7.6-1.2.7-.2 0-.2.1-.2.4v.6s-.1.2-.2.2c-.2 0-.5 0-.6 0-.2 0-.2-.1-.2-.4 0-.1 0-.2 0-.5 0-.4 0-.4-.4-.4-.4-.1-.8-.1-1.2-.4-.2-.1-.4-.2-.2-.5 0-.2.1-.5.2-.7s.1-.2.4-.1c.4.2.8.4 1.3.4.2 0 .6 0 .8-.1.5-.2.6-.8.1-1.2-.1-.1-.4-.2-.5-.2-.5-.2-1-.4-1.3-.6-.7-.4-1.1-1-1.1-1.8 0-1 .6-1.6 1.4-1.8.4-.1.4-.1.4-.5 0-.1 0-.2 0-.4s0-.4.4-.4h.2c.6 0 .6 0 .6.6 0 .5 0 .5.5.5.4 0 .6.1 1 .2.1.1.2.2.1.4s-.1.5-.2.7-.1.2-.4.1c-.5-.2-1-.4-1.4-.2-.1 0-.2 0-.4.1-.5.2-.5.7-.1 1 .2.1.4.2.6.4.4.1.8.4 1.2.5 1 .8 1.2 2.3.4 3.4z"/><circle cx="18" cy="24.4" r="1.9"/><circle cx="38.2" cy="24.4" r="1.9"/><path d="m43.3 12.7h-30.1c-1.7 0-3.1 1.4-3.1 3.1v16.2c0 1.7 1.4 3.1 3.1 3.1h30.1c1.7 0 3.1-1.4 3.1-3.1v-16.2c0-1.6-1.4-3.1-3.1-3.1zm.5 16.1c-.2 0-.4 0-.6 0-1.8 0-3.2 1.4-3.2 3.2v.6h-23.3c0-.1 0-.2 0-.4 0-1.8-1.4-3.2-3.2-3.2-.2 0-.5 0-.8.1v-9.8c.2.1.5.1.8.1 1.8 0 3.2-1.4 3.2-3.2 0-.2 0-.5-.1-.7h23.4v.6c0 1.8 1.4 3.2 3.2 3.2h.6z"/><path d="m26.8 39.6c0 .7-.6 1.3-1.3 1.3h-19.9c-.7 0-1.3-.6-1.3-1.3v-31.2c0-.7.6-1.3 1.3-1.3h19.8c.7 0 1.3.6 1.3 1.3v.2 1 .5h2.8v-.5-4.4c0-2.9-2.3-5.2-5.2-5.2h-17.6c-2.9 0-5.1 2.3-5.1 5.2v37.7c0 2.9 2.3 5.2 5.2 5.2h17.6c2.9 0 5.2-2.3 5.2-5.2v-4.9h-2.8zm-9 6.2h-4.9c-.7 0-1.3-.6-1.3-1.3s.6-1.3 1.3-1.3h4.9c.7 0 1.3.6 1.3 1.3s-.6 1.3-1.3 1.3z"/></svg>