<svg enable-background="new 0 0 48 48" viewBox="0 0 48 48" xmlns="http://www.w3.org/2000/svg"><path d="m21.1 21.7 4.7 1.3c.4.1.6.4.6.7 0 .5-.4.8-.8.8h-3.1c-.4 0-.7-.1-1-.2-.5-.2-1-.1-1.3.2l-1.7 1.7c-.5.6-.5 1.4.1 1.8.8.6 1.9 1 3 1.1v1.7c0 .8.7 1.6 1.6 1.6h1.4c.8 0 1.6-.7 1.6-1.6v-1.8c2.9-.4 5-2.9 4.7-5.9-.2-2.2-1.9-3.8-4.1-4.4l-4.7-1.3c-.4-.1-.6-.4-.6-.7 0-.5.4-.8.8-.8h3.1c.4 0 .7.1 1 .2.5.2 1 .1 1.3-.2l1.7-1.7c.5-.5.5-1.3-.1-1.7-.8-.6-1.9-1-3-1.1v-1.7c0-.8-.7-1.6-1.6-1.6h-1.6c-.8 0-1.6.7-1.6 1.6v1.7c-2.9.4-5 2.9-4.7 5.9.6 2.1 2.3 3.8 4.3 4.4zm23.9 8.3h-3.2c1.6-2.9 2.5-6.2 2.5-9.7 0-11.2-9.1-20.3-20.3-20.3s-20.3 9.1-20.3 20.3c0 3.5 1 6.8 2.5 9.7h-3.2c-1.7 0-3 1.6-3 3.6v10.8c0 2 1.3 3.6 3 3.6h42c1.7 0 3-1.6 3-3.6v-10.8c0-2-1.3-3.6-3-3.6zm-21-25.4c8.6 0 15.7 7.1 15.7 15.7s-7.1 15.7-15.7 15.7-15.7-7.1-15.7-15.7 7.1-15.7 15.7-15.7zm19.6 39h-39v-9h5c1.2 1.2 2.4 2.2 3.8 3h-3.7c-.4 0-.7.4-.7.7v1.6c0 .4.4.7.7.7h28.6c.4 0 .7-.4.7-.7v-1.6c0-.4-.4-.7-.7-.7h-3.7c1.4-.8 2.6-1.8 3.8-3h5.2z"/></svg>