<svg enable-background="new 0 0 48 48" viewBox="0 0 48 48" xmlns="http://www.w3.org/2000/svg"><path d="m24 39c10.8 0 19.6-8.8 19.6-19.6s-8.8-19.4-19.6-19.4-19.4 8.8-19.4 19.6 8.6 19.4 19.4 19.4zm-2-29.9v-1.5c0-.9.7-1.6 1.5-1.6h1.1c.8 0 1.6.7 1.6 1.6v1.6c1.4.1 2.9.6 4.1 1.4.5.4.6 1.2.1 1.6l-1.6 1.4c-.4.4-.8.4-1.3.1-.5-.4-1.1-.5-1.7-.5h-3.6c-.8 0-1.6.7-1.6 1.7 0 .7.5 1.4 1.1 1.7l5.9 1.8c2.4.7 4.1 3 4.1 5.6 0 3.2-2.5 5.8-5.5 5.9v1.6c0 .8-.7 1.6-1.6 1.6h-1.1c-.8 0-1.6-.7-1.6-1.6v-1.6c-1.4-.1-2.9-.6-4.1-1.4-.5-.4-.6-1.2-.1-1.6l1.6-1.4c.4-.4.8-.4 1.3-.1.5.4 1.1.5 1.7.5h3.6c.8 0 1.6-.7 1.6-1.7 0-.7-.5-1.4-1.1-1.7l-5.9-1.8c-2.4-.7-4.1-3-4.1-5.6 0-3.3 2.4-5.9 5.6-6zm23 23.9h-3c-1.8 2.4-4.2 4.4-6.8 6h6c.5 0 1 .4 1 .7v1.6c0 .4-.4.7-1 .7h-34.2c-.6 0-1-.4-1-.7v-1.6c0-.3.4-.7 1-.7h6c-2.6-1.6-5-3.6-6.8-6h-3.2c-1.7 0-3 1.3-3 3v9c0 1.7 1.3 3 3 3h42c1.7 0 3-1.3 3-3v-9c0-1.7-1.3-3-3-3z"/></svg>