<svg enable-background="new 0 0 48 48" viewBox="0 0 48 48" xmlns="http://www.w3.org/2000/svg"><path d="m37.5 38.1c-.1-.6-.7-1-1.3-.8-1 .2-2.4.5-4.1.5-5.1 0-9.1-3.1-10.8-7.6h10.2c.5 0 .9-.3 1-.8l.6-2.5c.2-.7-.4-1.3-1-1.3h-12.1c-.1-1.3-.1-2.5 0-3.8h13.1c.5 0 .9-.4 1-.8l.6-2.7c.1-.7-.4-1.3-1-1.3h-12.4c1.8-4 5.6-6.7 10.5-6.7 1.3 0 2.6.2 3.4.4.6.1 1.1-.2 1.3-.8l1.1-4c.2-.6-.2-1.2-.8-1.3-1.2-.3-2.9-.6-4.8-.6-8.7 0-15.7 5.4-18.3 12.9h-3c-.6 0-1.1.5-1.1 1.1v2.7c0 .6.5 1.1 1.1 1.1h1.9c-.1 1.2-.1 2.6 0 3.8h-1.9c-.6 0-1.1.5-1.1 1.1v2.3c0 .6.5 1.1 1.1 1.1h2.7c2.3 8.1 9.3 13.9 18.6 13.9 2.3 0 4.3-.4 5.5-.7.6-.1.9-.7.8-1.2z"/></svg>