<svg enable-background="new 0 0 48 48" viewBox="0 0 48 48" xmlns="http://www.w3.org/2000/svg"><path d="m44.1 13.3h-4.8c.5-1 .8-2.2.8-3.4 0-4.1-3.2-7.3-7.3-7.3-3.5 0-5.8 1.8-8.7 5.7-2.9-4-5.2-5.7-8.7-5.7-4.1 0-7.3 3.2-7.3 7.3 0 1.2.4 2.3.8 3.4h-5c-2.2 0-4 1.8-4 4v24.1c0 2.2 1.8 4 4 4h40.1c2.2 0 4-1.8 4-4v-24.1c.1-2.2-1.7-4-3.9-4zm-11.4-6.6c1.8 0 3.4 1.4 3.4 3.4 0 1.8-1.4 3.4-3.4 3.4h-7.2c4.3-6.6 5.5-6.8 7.2-6.8zm-20.6 3.2c0-1.8 1.4-3.4 3.4-3.4 1.7 0 2.9.2 7.2 6.7h-7.2c-1.8.1-3.4-1.3-3.4-3.3zm6.4 7.4-4.3 4.3c-.5.5-.5 1.3 0 1.9l1 1c.5.5 1.3.5 1.9 0l7-7 7 7c.5.5 1.3.5 1.9 0l1-1c.5-.5.5-1.3 0-1.9l-4.3-4.3h14.6v12h-40.4v-12zm-14.6 24v-6.7h40.1v6.7z"/></svg>