<svg enable-background="new 0 0 48 48" viewBox="0 0 48 48" xmlns="http://www.w3.org/2000/svg"><path d="m43.4 13.6h-2.4c.6-1.1 1-2.4 1-3.7 0-4.5-3.7-8.2-8.2-8.2-3.9 0-6.4 2-9.6 6.3-3.2-4.4-5.7-6.3-9.6-6.3-4.5 0-8.2 3.7-8.2 8.2 0 1.3.4 2.6 1 3.7h-2.8c-2.5 0-4.5 1.9-4.5 4.4v12c0 .8.7 1.6 1.6 1.6h1.6v10c0 2.7 2.1 4.9 4.9 4.9h32c2.7 0 4.9-2.1 4.9-4.9v-10h1.6c.8 0 1.6-.7 1.6-1.6v-12c-.4-2.5-2.5-4.4-4.9-4.4zm-21.7 28.3h-13.7c-.2 0-.5-.2-.5-.5v-10h10.5v-4.5h-13.4v-8.9h17.2v23.9zm-7.3-28.3c-2 0-3.7-1.7-3.7-3.7s1.7-3.8 3.7-3.8 3.5.7 7.9 7.2l.2.2h-8.1zm11.5-.4c4.3-6.4 5.9-7.2 7.9-7.2s3.7 1.7 3.7 3.7-1.7 3.7-3.7 3.7h-8zm17.5 13.8h-13.4v4.5h10.5v10c0 .2-.2.5-.5.5h-13.8v-24h17.2z"/></svg>