<svg enable-background="new 0 0 48 48" viewBox="0 0 48 48" xmlns="http://www.w3.org/2000/svg"><path d="m45.6 21.6h-1.5c.2-.6.3-1.2.3-1.8 0-2.7-2-5.4-5.4-5.4-3.6 0-5.7 3.6-6.6 5.6-.9-2-2.8-5.2-6-5.6v-.1c0-1.3-1.1-2.4-2.4-2.4h-4.6l2.3-1.6c.5-.4.7-1.1.3-1.7l-.7-1c-.4-.5-1.1-.7-1.7-.3l-2.4 1.7.9-2.3c.2-.6-.1-1.3-.7-1.5l-1.1-.4c-.6-.2-1.3.1-1.5.7l-1.5 4-1.5-4c-.2-.6-.9-.9-1.5-.7l-1.3.5c-.6.2-.9.9-.7 1.5l.9 2.3-2.4-1.7c-.5-.4-1.3-.2-1.7.3l-.7 1c-.4.5-.2 1.3.3 1.6l2.3 1.7h-4.6c-1.3 0-2.4 1.1-2.4 2.4v26.4c0 1.3 1.1 2.4 2.4 2.4h43.2c1.3 0 2.4-1.1 2.4-2.4v-16.8c0-1.3-1.1-2.4-2.4-2.4zm-6.6-3.6c1.3 0 1.8 1.1 1.8 1.8 0 .4-.1.9-.7 1.4-.2.1-.3.3-.5.4h-3.9c.6-1.5 1.9-3.6 3.3-3.6zm-13.2 0c1.4 0 2.7 2.1 3.3 3.6h-3.9c-.2-.1-.4-.2-.5-.4-.5-.5-.7-1-.7-1.4 0-.7.5-1.8 1.8-1.8zm-9 6v15.6h-13.2v-24h18.8c-1.3 1-2 2.6-2 4.2 0 .6.1 1.2.3 1.8h-1.5c-1.3 0-2.4 1.1-2.4 2.4zm13.8 15.6h-10.2v-5.4h10.2zm0-9h-10.2v-5.4h10.2zm1.7-9h.1zm12.1 18h-10.2v-5.4h10.2zm0-9h-10.2v-5.4h10.2z"/></svg>