<svg enable-background="new 0 0 48 48" viewBox="0 0 48 48" xmlns="http://www.w3.org/2000/svg"><path d="m3 42c0 1.7 1.3 3 3 3h15v-15h-18zm24 2.9h15c1.7 0 3-1.3 3-3v-11.9h-18zm17.9-29.9h-4c.6-1.1 1-2.4 1-3.7 0-4.5-3.7-8.3-8.3-8.3-4 0-6.5 2-9.6 6.3-3.2-4.4-5.7-6.3-9.6-6.3-4.5 0-8.3 3.7-8.3 8.3 0 1.3.4 2.6 1 3.7h-4.1c-1.7 0-3 1.3-3 3v7.5c0 .8.7 1.6 1.6 1.6h44.9c.8 0 1.6-.7 1.6-1.6v-7.5c-.2-1.7-1.5-3-3.2-3zm-30.5 0c-2 0-3.7-1.7-3.7-3.7s1.7-3.7 3.7-3.7c1.9 0 3.2.4 8 7.5h-8zm19.3 0h-8c4.8-7.2 6.1-7.5 8-7.5 2 0 3.7 1.7 3.7 3.7s-1.6 3.8-3.7 3.8z"/></svg>