<svg enable-background="new 0 0 48 48" viewBox="0 0 48 48" xmlns="http://www.w3.org/2000/svg"><path d="m18 19.3c.1-2.3 1.3-4.6 3.3-6-.3-.7-1.1-1.3-2.1-1.3h-2.2l2.3-1.6c.5-.4.7-1.1.3-1.7l-.7-1c-.4-.5-1.1-.7-1.7-.3l-2.4 1.7.9-2.3c.2-.6-.1-1.3-.7-1.5l-1.1-.4c-.6-.2-1.3.1-1.5.7l-1.5 4-1.5-4c-.3-.7-1-1-1.6-.7l-1.2.4c-.6.2-.9.9-.7 1.5l.9 2.3-2.4-1.7c-.5-.4-1.3-.2-1.7.3l-.7 1c-.4.5-.2 1.3.3 1.6l2.3 1.7h-2.2c-1.3 0-2.4 1.1-2.4 2.4v26.4c0 1.3 1.1 2.4 2.4 2.4h12.7c-.4-.7-.7-1.5-.7-2.4v-16.8c0-2.3 1.6-4.1 3.6-4.7zm-1.2 21.5c0 1.3 1.1 2.4 2.4 2.4h12v-9.6h-14.4zm16.8 2.4h12c1.3 0 2.4-1.1 2.4-2.4v-7.2h-14.4zm12-21.6h-1.5c.2-.6.3-1.2.3-1.8 0-2.7-2-5.4-5.4-5.4-3.6 0-5.7 3.6-6.6 5.6-.9-2.1-3-5.6-6.6-5.6-3.4 0-5.4 2.8-5.4 5.4 0 .6.1 1.2.3 1.8h-1.5c-1.3 0-2.4 1.1-2.4 2.4v7.2h14.4v-9.6h1.1.1.1 1.1v9.6h14.4v-7.2c0-1.3-1.1-2.4-2.4-2.4zm-20.4 0c-.2-.1-.4-.2-.5-.4-.5-.5-.7-1-.7-1.4 0-.7.5-1.8 1.8-1.8 1.4 0 2.7 2.1 3.3 3.6zm14.9-.4c-.2.1-.3.3-.5.4h-3.9c.7-1.5 1.9-3.6 3.3-3.6 1.3 0 1.8 1.1 1.8 1.8 0 .4-.1 1-.7 1.4z"/></svg>