<svg enable-background="new 0 0 48 48" viewBox="0 0 48 48" xmlns="http://www.w3.org/2000/svg"><path d="m47.3 30.6-3.6-2.5c-.4-6.1-5-11.4-11.8-13.9-.6 4.2-4.2 7.4-8.6 7.4-4.3 0-8-3.2-8.6-7.4-.4.1-.7.2-1.1.5l-6.1-1.6c-.4-.1-.8 0-1.1.2-.4.2-.5.6-.5 1l-.2 6.8c-.7.9-1.3 1.7-1.6 3.3h-2.7c-.7 0-1.4 1.6-1.4 4.8s.6 4.8 1.4 4.8h2.8c.6 1.6.7 2.9 2.3 4v7c0 1 .8 1.7 1.8 1.7h6.6c1 0 1.3-.7 1.3-1.7v-1.1c3.2.6 4.8 1 7.2 1s5.6-.4 7.2-1v1.4c0 .7.5 1.3 1.2 1.3h6.6c1 0 1.4-.7 1.4-1.7v-7.1c1.6-1.8 2.9-4 3.4-6.2l2.2 1.4c.2.2.6.2 1 .2.5 0 1-.2 1.3-.7.6-.5.3-1.4-.4-1.9z"/><path d="m23.3 19.6c3.6 0 6.6-3 6.6-6.6s-3-6.6-6.6-6.6-6.6 3-6.6 6.6c0 3.7 3 6.6 6.6 6.6zm0-10c1.9 0 3.4 1.6 3.4 3.4 0 1.9-1.6 3.4-3.4 3.4-1.9 0-3.4-1.6-3.4-3.4s1.6-3.4 3.4-3.4z"/><path d="m38.3 8.4 1.2-2.4 2.4-1.2-2.4-1.2-1.2-2.3-1.2 2.3-2.3 1.2 2.3 1.2z"/><path d="m11.2 7.1.7-1.5 1.5-.8-1.5-.7-.7-1.6-.8 1.6-1.5.7 1.5.8z"/><path d="m43.2 17.6 1.2 2.3 1.1-2.3 2.4-1.2-2.4-1.2-1.1-2.4-1.2 2.4-2.4 1.2z"/></svg>