<svg enable-background="new 0 0 48 48" viewBox="0 0 48 48" xmlns="http://www.w3.org/2000/svg"><path d="m26.4 26.4h-1.2v-6.6c0-.3-.3-.6-.6-.6h-1c-.4 0-.7.1-1 .3l-1.1.8c-.3.2-.4.6-.2.8l.7 1c.2.3.6.4.8.2v4.2h-1.2c-.3 0-.6.3-.6.6v1.2c0 .3.3.6.6.6h4.8c.3 0 .6-.3.6-.6v-1.3c0-.3-.3-.6-.6-.6zm19.2-16.8h-43.2c-1.3 0-2.4 1.1-2.4 2.4v24c0 1.3 1.1 2.4 2.4 2.4h43.2c1.3 0 2.4-1.1 2.4-2.4v-24c0-1.3-1.1-2.4-2.4-2.4zm-42 25.2v-4.8c2.7 0 4.8 2.1 4.8 4.8zm0-16.8v-4.8h4.8c0 2.7-2.1 4.8-4.8 4.8zm20.4 14.4c-4 0-7.2-3.8-7.2-8.4s3.2-8.4 7.2-8.4 7.2 3.8 7.2 8.4-3.2 8.4-7.2 8.4zm20.4 2.4h-4.8c0-2.7 2.1-4.8 4.8-4.8zm0-16.8c-2.7 0-4.8-2.1-4.8-4.8h4.8z"/></svg>