<svg enable-background="new 0 0 48 48" viewBox="0 0 48 48" xmlns="http://www.w3.org/2000/svg"><path d="m0 38.4c0 1.3 1.1 2.4 2.4 2.4h43.2c1.3 0 2.4-1.1 2.4-2.4v-24h-48zm33.6-15.6c0-.7.5-1.2 1.2-1.2h7.2c.7 0 1.2.5 1.2 1.2v2.4c0 .7-.5 1.2-1.2 1.2h-7.2c-.7 0-1.2-.5-1.2-1.2zm0 9c0-.3.3-.6.6-.6h8.4c.3 0 .6.3.6.6v1.2c0 .3-.3.6-.6.6h-8.4c-.3 0-.6-.3-.6-.6zm-28.8-7.2c0-.3.3-.6.6-.6h22.8c.3 0 .6.3.6.6v1.2c0 .3-.3.6-.6.6h-22.8c-.3 0-.6-.3-.6-.6zm0 7.2c0-.3.3-.6.6-.6h13.2c.3 0 .6.3.6.6v1.2c0 .3-.3.6-.6.6h-13.2c-.3 0-.6-.3-.6-.6zm42-24.6h-45.6c-.7 0-1.2.5-1.2 1.2v3.6h48v-3.6c0-.7-.5-1.2-1.2-1.2z"/></svg>