<svg enable-background="new 0 0 48 48" viewBox="0 0 48 48" xmlns="http://www.w3.org/2000/svg"><path d="m45.6 7.2h-43.2c-1.3 0-2.4 1.1-2.4 2.4v28.8c0 1.3 1.1 2.4 2.4 2.4h43.2c1.3 0 2.4-1.1 2.4-2.4v-28.8c0-1.3-1.1-2.4-2.4-2.4zm-32.4 22.2v1.2c0 .3-.3.6-.6.6h-1.2c-.3 0-.6-.3-.6-.6v-1.2c-.8 0-1.7-.3-2.4-.9-.3-.2-.3-.7 0-.9l.9-.8c.2-.2.5-.2.8-.1.3.2.6.3 1 .3h2.1c.5 0 .9-.4.9-1 0-.4-.3-.8-.7-1l-3.4-1c-1.4-.4-2.4-1.8-2.4-3.3 0-1.8 1.4-3.3 3.2-3.4v-1.2c0-.3.3-.6.6-.6h1.2c.3 0 .6.3.6.6v1.2c.8 0 1.7.3 2.4.9.3.2.3.7 0 .9l-.9.9c-.2.2-.5.2-.8.1-.3-.2-.6-.3-1-.3h-2.1c-.5 0-.9.4-.9 1 0 .4.3.8.7 1l3.4 1c1.4.4 2.4 1.8 2.4 3.3 0 1.8-1.4 3.2-3.2 3.3zm18-1.2c0 .3-.3.6-.6.6h-8.4c-.3 0-.6-.3-.6-.6v-1.2c0-.3.3-.6.6-.6h8.4c.3 0 .6.3.6.6zm12 0c0 .3-.3.6-.6.6h-6c-.3 0-.6-.3-.6-.6v-1.2c0-.3.3-.6.6-.6h6c.3 0 .6.3.6.6zm0-7.2c0 .3-.3.6-.6.6h-20.4c-.3 0-.6-.3-.6-.6v-1.2c0-.3.3-.6.6-.6h20.4c.3 0 .6.3.6.6z"/></svg>