<svg enable-background="new 0 0 48 48" viewBox="0 0 48 48" xmlns="http://www.w3.org/2000/svg"><path d="m45.1 6.8h-42.2c-1.5 0-2.9 1.3-2.9 2.8v21.3c0 1.6 1.3 2.9 2.9 2.9h28.6v-3h-21.5c-1.1-3-3.7-6-6.8-7.1v-6.7c3.2-1 5.7-4 6.8-7h28.2c1.1 3 3.6 6 6.8 7.1v5.7h2.9v-13.2c0-1.5-1.3-2.8-2.8-2.8z"/><circle cx="24" cy="20.3" r="7.5"/><path d="m44.9 36.7h-10.5c-.8 0-1.6.7-1.6 1.6v1.6c0 .8.7 1.6 1.6 1.6h10.5c.8 0 1.6-.7 1.6-1.6v-1.6c0-.9-.7-1.6-1.6-1.6z"/><path d="m46.5 30.7h-10.5c-.8 0-1.6.7-1.6 1.6v1.6c0 .8.7 1.6 1.6 1.6h10.5c.8 0 1.6-.7 1.6-1.6v-1.6c-.2-.9-.9-1.6-1.6-1.6z"/><path d="m34.5 29.3h10.5c.8 0 1.6-.7 1.6-1.6v-1.6c0-.8-.7-1.6-1.6-1.6h-10.5c-.8 0-1.6.7-1.6 1.6v1.6c.1.8.8 1.6 1.6 1.6z"/></svg>