<svg enable-background="new 0 0 48 48" viewBox="0 0 48 48" xmlns="http://www.w3.org/2000/svg"><path d="m46.8 7.2h-45.6c-.7 0-1.2.5-1.2 1.2v30c0 1.3 1.1 2.4 2.4 2.4h43.2c1.3 0 2.4-1.1 2.4-2.4v-30c0-.7-.5-1.2-1.2-1.2zm-2.4 30h-40.8v-19.2h40.8zm0-22.8h-40.8v-3.6h40.8zm-36.6 19.2h10.8c.3 0 .6-.3.6-.6v-2.4c0-.3-.3-.6-.6-.6h-10.8c-.3 0-.6.3-.6.6v2.4c0 .3.3.6.6.6zm26.4 0h6c.3 0 .6-.3.6-.6v-2.4c0-.3-.3-.6-.6-.6h-6c-.3 0-.6.3-.6.6v2.4c0 .3.3.6.6.6zm-26.4-7.2h20.4c.3 0 .6-.3.6-.6v-2.4c0-.3-.3-.6-.6-.6h-20.4c-.3 0-.6.3-.6.6v2.4c0 .3.3.6.6.6zm27 0h4.8c.7 0 1.2-.5 1.2-1.2v-2.4c0-.7-.5-1.2-1.2-1.2h-4.8c-.7 0-1.2.5-1.2 1.2v2.4c0 .7.5 1.2 1.2 1.2z"/></svg>