<svg enable-background="new 0 0 48 48" viewBox="0 0 48 48" xmlns="http://www.w3.org/2000/svg"><path d="m24 15.6c-4 0-7.2 3.8-7.2 8.4s3.2 8.4 7.2 8.4 7.2-3.8 7.2-8.4-3.2-8.4-7.2-8.4zm3 12.6c0 .3-.3.6-.6.6h-4.8c-.3 0-.6-.3-.6-.6v-1.2c0-.3.3-.6.6-.6h1.2v-4.2c-.3.2-.6.1-.8-.2l-.7-1c-.2-.3-.1-.6.2-.8l1.1-.8c.3-.2.6-.3 1-.3h1c.3 0 .6.3.6.6v6.6h1.2c.3 0 .6.3.6.6zm18.6-18.6h-43.2c-1.3 0-2.4 1.1-2.4 2.4v24c0 1.3 1.1 2.4 2.4 2.4h43.2c1.3 0 2.4-1.1 2.4-2.4v-24c0-1.3-1.1-2.4-2.4-2.4zm-1.2 20.4c-2.7 0-4.8 2.1-4.8 4.8h-31.2c0-2.7-2.1-4.8-4.8-4.8v-12c2.7 0 4.8-2.1 4.8-4.8h31.2c0 2.7 2.1 4.8 4.8 4.8z"/></svg>