<svg enable-background="new 0 0 48 48" viewBox="0 0 48 48" xmlns="http://www.w3.org/2000/svg"><path d="m45.6 7.2h-43.2c-1.3 0-2.4 1.1-2.4 2.4v28.8c0 1.3 1.1 2.4 2.4 2.4h43.2c1.3 0 2.4-1.1 2.4-2.4v-28.8c0-1.3-1.1-2.4-2.4-2.4zm-1.2 30h-40.8v-26.4h40.8zm-22.2-8.4h6c.3 0 .6-.3.6-.6v-2.4c0-.3-.3-.6-.6-.6h-6c-.3 0-.6.3-.6.6v2.4c0 .3.3.6.6.6zm18-3.6h-6c-.3 0-.6.3-.6.6v2.4c0 .3.3.6.6.6h6c.3 0 .6-.3.6-.6v-2.4c0-.3-.3-.6-.6-.6zm-18-2.4h18c.3 0 .6-.3.6-.6v-2.4c0-.3-.3-.6-.6-.6h-18c-.3 0-.6.3-.6.6v2.4c0 .3.3.6.6.6zm-12.1 1.3 3.2.9c.3.1.5.3.5.6 0 .4-.3.7-.8.7h-2c-.3 0-.6-.1-.9-.2-.2-.1-.5-.1-.7.1l-.9 1c-.2.2-.2.6.1.8.6.4 1.4.7 2.1.7v.8c0 .3.3.6.6.6h1.2c.3 0 .6-.3.6-.6v-.8c1.7-.1 3-1.4 3-3 0-1.4-.9-2.6-2.3-2.9l-3.2-.9c-.3-.1-.5-.3-.5-.6 0-.4.3-.7.8-.7h2c.3 0 .6.1.9.2.2.1.5.1.7-.1l.9-1c.2-.2.2-.6-.1-.8-.6-.4-1.4-.7-2.1-.7v-.8c0-.3-.3-.6-.6-.6h-1.2c-.3 0-.6.3-.6.6v.8c-1.7.1-3 1.4-3 3 0 1.4.9 2.6 2.3 2.9z"/></svg>