<svg enable-background="new 0 0 48 48" viewBox="0 0 48 48" xmlns="http://www.w3.org/2000/svg"><path d="m17.4 38h3.1l-.6-2.4c0-.1 0-.4 0-.5h-3.6c-1-2.9-1.6-6.4-1.7-10.2h16v-1c0-.7.1-1.3.4-1.9h-16.4c.1-3.8.7-7.3 1.7-10.2h14c.8 2.5 1.3 5.5 1.6 8.8.7-.8 1.7-1.3 2.8-1.4-.2-2.6-.7-5.2-1.3-7.3h6.6c2 2.9 3.4 6.4 3.6 10.2h-3.8c.2.6.4 1.2.4 1.9v1.1h3.4c-.1 1.8-.5 3.6-1.1 5.3h3.2c.6-2.2 1-4.3 1-6.7 0-12.8-10.4-23.3-23.3-23.3s-23.4 10.3-23.4 23.1c0 12.6 10 22.8 22.5 23.3l-.7-3.2c-1.6-.9-3.2-2.8-4.4-5.6zm20-29h-5c-.7-1.8-1.6-3.4-2.5-4.7 2.9 1 5.4 2.5 7.5 4.7zm-14.1-5.9c2 0 4.2 2.2 5.9 5.8h-11.9c1.8-3.6 3.9-5.8 6-5.8zm-6.5 1.1c-1 1.3-1.8 2.9-2.5 4.7h-5.2c2.1-2.1 4.7-3.6 7.7-4.7zm-10.2 7.7h6.6c-.8 3-1.4 6.5-1.6 10.2h-8.6c.2-3.9 1.6-7.4 3.6-10.2zm-3.6 13.1h8.6c.1 3.7.6 7.2 1.6 10.2h-6.6c-2-2.9-3.4-6.4-3.6-10.2zm6 13h5.2c.7 1.8 1.6 3.4 2.5 4.7-2.9-.9-5.5-2.5-7.7-4.7z"/><path d="m47.7 33.7c-.2-.4-.7-.6-1.2-.6h-9.2v-9.1c0-1.1-.8-1.9-1.9-1.9s-1.9.8-1.9 1.9v9.1h-9.2c-.5 0-1 .2-1.2.6s-.4.8-.4 1.3l2.5 11.5c.1.7.8 1.2 1.6 1.2h17c.7 0 1.3-.5 1.6-1.2l2.4-11.5c.3-.4.2-.9-.1-1.3z"/></svg>