<svg enable-background="new 0 0 48 48" viewBox="0 0 48 48" xmlns="http://www.w3.org/2000/svg"><path d="m37.2 32.6h-4.1c-.6 0-1.1.5-1.1 1.1v4.5h-10.9v-11.3h7.5c.6 0 1.1-.5 1.1-1.1v-3.6c0-.6-.5-1.1-1.1-1.1h-7.5v-5.7c0-2.9 2.2-5.1 5.5-5.1 2.1 0 4.1 1 5.1 1.7.5.3 1.1.2 1.4-.2l2.5-3.2c.4-.5.3-1.2-.2-1.5-1.3-1.1-4.6-3.1-8.9-3.1-7.3 0-12.5 4.7-12.5 11.2v5.9h-2.5c-.6 0-1.1.5-1.1 1.1v3.6c0 .6.5 1.1 1.1 1.1h2.5v11.4h-3.2c-.6 0-1.1.5-1.1 1.1v3.6c0 .6.5 1.1 1.1 1.1h26.4c.6 0 1.1-.5 1.1-1.1v-9.3c0-.6-.5-1.1-1.1-1.1z"/></svg>