<svg enable-background="new 0 0 48 48" viewBox="0 0 48 48" xmlns="http://www.w3.org/2000/svg"><path d="m18 9h12l4.4-6.7c.5-.7.3-1.6-.4-2.1-.2-.1-.5-.2-.8-.2h-18.4c-.8 0-1.5.7-1.5 1.5 0 .3.1.6.3.8zm12 3h-12c-19 10.8-18 25.2-18 27 0 5 4.6 9 10.3 9h27.4c5.7 0 10.3-4 10.3-9 0-1.8.9-16.2-18-27zm-4.4 26.1v1.6c0 .4-.4.8-.8.8h-1.6c-.4 0-.8-.4-.8-.8v-1.7c-1.2-.1-2.3-.5-3.2-1.1-.4-.3-.4-.8-.1-1.1 0 0 .1-.1.1-.1l1.2-1.1c.3-.3.7-.3 1-.1.4.2.8.4 1.3.4h2.9c.7 0 1.2-.6 1.2-1.3 0-.6-.4-1.1-.9-1.3l-4.6-1.4c-1.9-.6-3.2-2.4-3.2-4.4 0-2.5 1.9-4.5 4.4-4.6v-1.6c0-.4.4-.8.8-.8h1.6c.4 0 .8.4.8.8v1.7c1.2.1 2.3.5 3.2 1.1.4.3.4.8.1 1.1 0 0-.1.1-.1.1l-1.2 1.1c-.3.3-.7.3-1 .1-.4-.2-.8-.4-1.3-.4h-2.9c-.7 0-1.2.6-1.2 1.3 0 .6.4 1.1.9 1.3l4.6 1.4c1.9.6 3.2 2.4 3.2 4.4 0 2.5-2 4.5-4.4 4.6z"/></svg>