<svg enable-background="new 0 0 48 48" viewBox="0 0 48 48" xmlns="http://www.w3.org/2000/svg"><path d="m30.6 10.9 5.2-7.6c.6-1.1.1-2.5-1-3-.3-.2-.7-.2-1-.2h-19.6c-1.2-.1-2.2.9-2.2 2.1 0 .3.1.7.2 1l5.2 7.6c-18.3 11.3-17.4 26-17.4 27.8 0 5.2 4.6 9.4 10.3 9.4h27.4c5.7 0 10.3-4.2 10.3-9.4 0-1.8.8-16.6-17.4-27.7zm-1.1-6.4-3.6 5.2h-3.8l-3.6-5.2zm14 34.1c0 2.7-2.6 4.9-5.8 4.9h-27.4c-3.2 0-5.8-2.2-5.8-4.9-.1-7.6 3.1-16.4 16-24.4h6.9c13 7.9 16.2 16.8 16.1 24.4zm-16.7-9.5-4.6-1.4c-.5-.2-.9-.7-.9-1.3 0-.7.5-1.3 1.2-1.3h2.9c.5 0 .9.1 1.3.4.3.2.7.2 1-.1l1.2-1.1c.3-.3.3-.8 0-1.1 0 0-.1-.1-.1-.1-.9-.7-2-1.1-3.2-1.1v-1.6c0-.4-.4-.8-.8-.8h-1.6c-.4 0-.8.4-.8.8v1.6c-2.5 0-4.4 2-4.4 4.5 0 2 1.3 3.8 3.2 4.4l4.6 1.4c.5.2.9.7.9 1.3 0 .7-.5 1.3-1.2 1.3h-2.9c-.5 0-.9-.1-1.3-.4-.3-.2-.7-.2-1 .1l-1.2 1.1c-.3.3-.3.8 0 1.1 0 0 .1.1.1.1.9.7 2 1.1 3.2 1.1v1.6c0 .4.4.8.8.8h1.6c.4 0 .8-.4.8-.8v-1.6c2.4 0 4.4-2 4.4-4.5 0-2-1.3-3.8-3.2-4.4z"/></svg>