<svg enable-background="new 0 0 48 48" viewBox="0 0 48 48" xmlns="http://www.w3.org/2000/svg"><path d="m19.2 9.7h-8v33.2c0 .6-.5 1.1-1.1 1.1h-5c-.6 0-1.1-.5-1.1-1.1v-37.8c0-.6.5-1.1 1.1-1.1h15c7.6 0 12.9 5.1 12.9 12.8v16.4c0 .6-.5 1.1-1.1 1.1h-3.9c-1.2 0-2.1-1-2.1-2.1v-15.8c0-4.1-2.5-6.7-6.7-6.7zm23.7-5.7h-5c-.6 0-1.1.5-1.1 1.1v33.2h-8c-4.2 0-6.7-2.6-6.7-6.6v-15.8c0-1.2-1-2.1-2.1-2.1h-3.9c-.6 0-1.1.5-1.1 1.1v16.4c0 7.6 5.3 12.7 12.9 12.7h15c.6 0 1.1-.5 1.1-1.1v-37.8c0-.6-.5-1.1-1.1-1.1z"/></svg>