<svg enable-background="new 0 0 48 48" viewBox="0 0 48 48" xmlns="http://www.w3.org/2000/svg"><path d="m46.8 32.4h-1.2v-8.7c0-1.4-.6-2.8-1.6-3.8l-6.3-6.3c-1-1-2.4-1.6-3.8-1.6h-2.7v-3c0-2.3-1.9-4.2-4.2-4.2h-18c-2.3 0-4.2 1.9-4.2 4.2v3h-4.2c-.3 0-.6.3-.6.6v1.2c0 .3.3.6.6.6h18c.3 0 .6-.3.6-.6v-1.2c0-.3-.3-.6-.6-.6h-10.2v-3c0-.3.3-.6.6-.6h18c.3 0 .6.3.6.6v23.4h-9.4c-1.2-2.1-3.5-3.6-6.2-3.6-1.3 0-2.5.4-3.6 1v-3.4h-3.6v9.6c0 4 3.2 7.2 7.2 7.2s7.2-3.2 7.2-7.2h9.6c0 4 3.2 7.2 7.2 7.2s7.2-3.2 7.2-7.2h3.6c.7 0 1.2-.5 1.2-1.2v-1.2c0-.7-.5-1.2-1.2-1.2zm-34.8 7.2c-2 0-3.6-1.6-3.6-3.6s1.6-3.6 3.6-3.6 3.6 1.6 3.6 3.6-1.6 3.6-3.6 3.6zm19.2-24h2.7c.5 0 .9.2 1.3.5l5.5 5.5h-9.5zm4.8 24c-2 0-3.6-1.6-3.6-3.6s1.6-3.6 3.6-3.6 3.6 1.6 3.6 3.6-1.6 3.6-3.6 3.6zm6-7.6c-1.3-1.9-3.5-3.2-6-3.2-1.9 0-3.5.7-4.8 1.9v-5.5h10.8zm-22.8-8.6v-1.2c0-.3-.3-.6-.6-.6h-18c-.3 0-.6.3-.6.6v1.2c0 .3.3.6.6.6h18c.3 0 .6-.3.6-.6zm1.8-4.2c.3 0 .6-.3.6-.6v-1.2c0-.3-.3-.6-.6-.6h-18c-.3 0-.6.3-.6.6v1.2c0 .3.3.6.6.6z"/></svg>