<svg enable-background="new 0 0 48 48" viewBox="0 0 48 48" xmlns="http://www.w3.org/2000/svg"><path d="m18.6 16.8h-1.8v-4.2c0-.3-.3-.6-.6-.6h-1.2c-.3 0-.6.3-.6.6v6c0 .3.3.6.6.6h3.6c.3 0 .6-.3.6-.6v-1.2c0-.3-.3-.6-.6-.6zm28.2 14.4h-1.2v-8.1c0-1-.4-1.9-1.1-2.5l-7.5-7.5c-.7-.7-1.6-1.1-2.5-1.1h-3.3v-3.6c0-2-1.6-3.6-3.6-3.6h-24c-2 0-3.6 1.6-3.6 3.6v24c0 2 1.6 3.6 3.6 3.6h1.2c0 4 3.2 7.2 7.2 7.2s7.2-3.2 7.2-7.2h9.6c0 4 3.2 7.2 7.2 7.2s7.2-3.2 7.2-7.2h3.6c.7 0 1.2-.5 1.2-1.2v-2.4c0-.7-.5-1.2-1.2-1.2zm-34.8 8.4c-2 0-3.6-1.6-3.6-3.6s1.6-3.6 3.6-3.6 3.6 1.6 3.6 3.6-1.6 3.6-3.6 3.6zm3.6-13.2c-4.6 0-8.4-3.8-8.4-8.4s3.8-8.4 8.4-8.4 8.4 3.8 8.4 8.4-3.8 8.4-8.4 8.4zm20.4 13.2c-2 0-3.6-1.6-3.6-3.6s1.6-3.6 3.6-3.6 3.6 1.6 3.6 3.6-1.6 3.6-3.6 3.6zm6-15.6h-10.8v-8.4h3.3l7.5 7.5z"/></svg>