<svg enable-background="new 0 0 48 48" viewBox="0 0 48 48" xmlns="http://www.w3.org/2000/svg"><path d="m15.6 11.4c-4.3 0-7.8 3.5-7.8 7.8s3.5 7.8 7.8 7.8 7.8-3.5 7.8-7.8-3.5-7.8-7.8-7.8zm3.6 9.6c0 .3-.3.6-.6.6h-3.6c-.3 0-.6-.3-.6-.6v-6c0-.3.3-.6.6-.6h1.2c.3 0 .6.3.6.6v4.2h1.8c.3 0 .6.3.6.6zm27.6 11.4h-1.2v-8.7c0-1.4-.6-2.8-1.6-3.8l-6.3-6.3c-1-1-2.4-1.6-3.8-1.6h-2.7v-3c0-2.3-1.9-4.2-4.2-4.2h-22.8c-2.3 0-4.2 1.9-4.2 4.2v22.8c0 2.3 1.9 4.2 4.2 4.2h.6c0 4 3.2 7.2 7.2 7.2s7.2-3.2 7.2-7.2h9.6c0 4 3.2 7.2 7.2 7.2s7.2-3.2 7.2-7.2h3.6c.7 0 1.2-.5 1.2-1.2v-1.2c0-.7-.5-1.2-1.2-1.2zm-34.8 7.2c-2 0-3.6-1.6-3.6-3.6s1.6-3.6 3.6-3.6 3.6 1.6 3.6 3.6-1.6 3.6-3.6 3.6zm15.6-7.2h-9.4c-1.2-2.1-3.5-3.6-6.2-3.6s-5 1.5-6.2 3.6h-1.6c-.3 0-.6-.3-.6-.6v-22.8c0-.3.3-.6.6-.6h22.8c.3 0 .6.3.6.6zm3.6-16.8h2.7c.5 0 .9.2 1.3.5l5.5 5.5h-9.5zm4.8 24c-2 0-3.6-1.6-3.6-3.6s1.6-3.6 3.6-3.6 3.6 1.6 3.6 3.6-1.6 3.6-3.6 3.6zm6-7.6c-1.3-1.9-3.5-3.2-6-3.2-1.9 0-3.5.7-4.8 1.9v-6.7h10.8z"/></svg>