<svg enable-background="new 0 0 48 48" viewBox="0 0 48 48" xmlns="http://www.w3.org/2000/svg"><path d="m42.6 14.3c-.1-1.8-1.6-3.4-3.4-3.4h-4.8v5.3c0 1.8-1.4 3.2-3.2 3.2s-3.2-1.4-3.2-3.2v-5.3h-9.7v5.3c0 1.8-1.4 3.2-3.2 3.2s-3.2-1.4-3.2-3.2v-5.3h-3.4c-1.8 0-3.2 1.7-3.4 3.4l-1.3 29.9c0 1 .2 1.9 1 2.6.7.7 1.4 1.2 2.4 1.2h33.7c1 0 1.8-.5 2.4-1.1s1-1.7 1-2.6zm-11.6 19.1c0 .8-.5 1.3-1.3 1.3h-3.5v3.5c0 .8-.5 1.3-1.3 1.3h-1.7c-.8 0-1.3-.5-1.3-1.3v-3.5h-3.5c-.8 0-1.3-.5-1.3-1.3v-1.7c0-.8.5-1.3 1.3-1.3h3.5v-3.5c0-.8.5-1.3 1.3-1.3h1.7c.8 0 1.3.5 1.3 1.3v3.5h3.5c.8 0 1.3.5 1.3 1.3z"/><path d="m15.1 17.8c.8 0 1.6-.7 1.6-1.6v-6.8c0-3.4 3.1-6.1 6.5-6.1s6.5 2.8 6.5 6.1v6.8c0 .8.7 1.6 1.6 1.6.8 0 1.6-.7 1.6-1.6v-6.8c-.2-5.2-4.7-9.4-9.9-9.4s-9.7 4.2-9.7 9.4v6.8c.3.8 1 1.6 1.8 1.6z"/></svg>