<svg enable-background="new 0 0 48 48" viewBox="0 0 48 48" xmlns="http://www.w3.org/2000/svg"><path d="m46.8 21.7h-10.3l-5.3-12.4c1.1-.7 1.9-2 1.9-3.5 0-2.3-1.8-4.1-4.1-4.1s-4 1.8-4 4.1c0 2.2 1.7 4 3.8 4.1l5 11.9h-19.5l5-11.9c2.2-.2 3.7-2 3.7-4.1 0-2.3-1.8-4.1-4.1-4.1s-4.1 1.8-4.1 4.1c0 1.4.8 2.8 1.9 3.5l-5.3 12.5h-10.2c-.7 0-1.2.6-1.2 1.2v4c0 .7.6 1.2 1.2 1.2h1.1l1.8 14.8c.2 1.9 1.8 3.2 3.7 3.2h32.4c1.9 0 3.5-1.4 3.7-3.2l1.8-14.9h1.1c.7 0 1.2-.6 1.2-1.2v-4c0-.6-.6-1.2-1.2-1.2zm-17.8-14.3c-.9 0-1.6-.8-1.6-1.6s.7-1.6 1.6-1.6c.8 0 1.6.7 1.6 1.6s-.7 1.6-1.6 1.6zm-10-3.2c.8 0 1.6.7 1.6 1.6s-.8 1.5-1.6 1.5-1.6-.7-1.6-1.6.7-1.5 1.6-1.5zm14.1 25.9-12.1 12c-.2.2-.5.2-.7 0l-5.4-5.4c-.2-.2-.2-.5 0-.7l1.2-2.4c.2-.2.5-.2.7 0l3.9 3.9 9.3-10.6c.2-.2.5-.2.7 0l2.4 2.4c.2.3.2.6 0 .8z"/></svg>