<svg enable-background="new 0 0 48 48" viewBox="0 0 48 48" xmlns="http://www.w3.org/2000/svg"><path d="m45.5 24.2v1.4h-2l-.3 2.2-1.8 14.9c-.1.5-.6 1-1.2 1h-32.4c-.6 0-1.1-.3-1.2-1l-1.8-14.8-.3-2.2h-2v-1.4h8 3.8 19.5 3.8v-.1zm-16.5-22.5c-2.3 0-4 1.8-4 4.1 0 2.2 1.7 4 3.8 4.1l5 11.9h-19.5l5-11.9c2.2-.2 3.7-2 3.7-4.1 0-2.3-1.8-4.1-4.1-4.1s-4.1 1.8-4.1 4.1c0 1.4.8 2.8 1.9 3.5l-5.3 12.5h-10.2c-.7 0-1.2.6-1.2 1.2v4c0 .7.6 1.2 1.2 1.2h1.1l1.8 14.8c.2 1.9 1.8 3.2 3.7 3.2h32.4c1.9 0 3.5-1.4 3.7-3.2l1.8-14.9h1.1c.7 0 1.2-.6 1.2-1.2v-4c0-.6-.6-1.2-1.2-1.2h-10.3l-5.3-12.4c1.1-.7 1.9-2 1.9-3.5 0-2.3-1.8-4.1-4.1-4.1zm0 5.7c-.9 0-1.6-.8-1.6-1.6s.7-1.6 1.6-1.6c.8 0 1.6.7 1.6 1.6s-.7 1.6-1.6 1.6zm-10-.1c-.8 0-1.6-.7-1.6-1.6s.7-1.5 1.6-1.5c.8 0 1.6.7 1.6 1.6s-.8 1.5-1.6 1.5z"/><path d="m24 29.4c.6-1.5 2.2-2.7 3.9-2.7 2.3 0 4.3 2 4.3 4.3 0 6.6-8.2 10.2-8.2 10.2s-8.2-3.7-8.2-10.2c0-2.3 2-4.3 4.3-4.3 1.7 0 3.2 1 3.9 2.7z"/></svg>