<svg enable-background="new 0 0 48 48" viewBox="0 0 48 48" xmlns="http://www.w3.org/2000/svg"><path d="m39.2 13.4c.4 0 .9.5.9 1l1.7 29.9c0 .3-.2.7-.3.8-.2.2-.4.4-.6.4h-33.7s-.2 0-.6-.5h-.1l-.1-.1s-.1-.1-.1-.7l1.3-29.7c.1-.6.6-1.1.9-1.1h.9v2.8c0 3.2 2.5 5.7 5.7 5.7s5.7-2.5 5.7-5.7v-2.8h4.7v2.8c0 3.2 2.5 5.7 5.7 5.7s5.7-2.5 5.7-5.7v-2.8zm0-2.5h-4.8v5.3c0 1.8-1.4 3.2-3.2 3.2s-3.2-1.4-3.2-3.2v-5.3h-9.7v5.3c0 1.8-1.4 3.2-3.2 3.2s-3.2-1.4-3.2-3.2v-5.3h-3.4c-1.8 0-3.2 1.7-3.4 3.4l-1.3 29.9c0 1 .2 1.9 1 2.6.7.7 1.4 1.2 2.4 1.2h33.7c1 0 1.8-.5 2.4-1.1s1-1.7 1-2.6l-1.7-30c-.1-1.8-1.6-3.4-3.4-3.4z"/><path d="m15.1 17.8c.8 0 1.6-.7 1.6-1.6v-6.8c0-3.4 3.1-6.1 6.5-6.1s6.5 2.8 6.5 6.1v6.8c0 .8.7 1.6 1.6 1.6.8 0 1.6-.7 1.6-1.6v-6.8c-.2-5.2-4.7-9.4-9.9-9.4s-9.7 4.2-9.7 9.4v6.8c.3.8 1 1.6 1.8 1.6z"/><path d="m18.6 38.4-1.4-1.4c-.6-.6-.6-1.7 0-2.3l3.1-3.1-3.1-3.1c-.6-.6-.6-1.7 0-2.3l1.4-1.4c.6-.6 1.7-.6 2.3 0l3.1 3.1 3.1-3.1c.6-.6 1.7-.6 2.3 0l1.4 1.4c.6.6.6 1.7 0 2.3l-3.2 3.2 3.1 3.1c.6.6.6 1.7 0 2.3l-1.4 1.4c-.6.6-1.7.6-2.3 0l-3-3.1-3 3.2c-.8.5-1.6.5-2.4-.2z"/></svg>