<svg enable-background="new 0 0 48 48" viewBox="0 0 48 48" xmlns="http://www.w3.org/2000/svg"><path d="m46.9 13.3-5.1-8.1c-.5-.7-1.3-1.2-2.1-1.2h-31.4c-.9 0-1.7.4-2.1 1.2l-5.1 8.1c-2.3 3.7-.8 8.6 3 10.2v17.7c0 1.5 1.1 2.7 2.5 2.7h34.9c1.4 0 2.5-1.2 2.5-2.7v-17.7c3.7-1.6 5.2-6.5 2.9-10.2zm-6.7 26.9h-32.4v-7.5h32.4zm0-11.2h-32.4v-5c1.9-.3 3.5-1.2 4.7-2.5 1.4 1.6 3.5 2.6 5.8 2.6s4.3-1 5.8-2.6c1.4 1.6 3.5 2.6 5.8 2.6s4.3-1 5.8-2.6c1.2 1.3 2.8 2.3 4.7 2.5v5zm3.7-10.4c-.2.5-.8 1.4-2.1 1.6-.2 0-.4 0-.6 0-1.1 0-2.2-.5-3-1.3l-2.8-3.1-2.8 3.1c-.8.9-1.8 1.3-3 1.3s-2.2-.5-3-1.3l-2.6-3.1-2.8 3.1c-.8.9-1.8 1.3-3 1.3-1.1 0-2.2-.5-3-1.3l-2.8-3.1-2.8 3.1c-.8.9-1.8 1.3-3 1.3-.2 0-.4 0-.6 0-1.2-.2-1.9-1.1-2.1-1.6-.4-.8-.6-2.2.2-3.3l4.7-7.5h30.2l4.7 7.5c.8 1.2.6 2.5.2 3.3z"/></svg>