<svg enable-background="new 0 0 48 48" viewBox="0 0 48 48" xmlns="http://www.w3.org/2000/svg"><path d="m46.9 13.3-5.1-8.1c-.4-.7-1.2-1.2-2-1.2h-31.5c-.9 0-1.7.5-2.1 1.2l-5.1 8.1c-2.6 4.2-.3 10 4.6 10.6.3.1.7.1 1.1.1 2.3 0 4.3-1 5.8-2.6 1.3 1.6 3.4 2.6 5.7 2.6s4.3-1 5.8-2.6c1.4 1.6 3.5 2.6 5.8 2.6s4.3-1 5.8-2.6c1.2 1.6 3.3 2.6 5.6 2.6.4 0 .7 0 1.1-.1 4.8-.6 7.1-6.4 4.5-10.6zm-5.6 13.2c-.8 0-1.6-.1-2.3-.3v7.8h-29.9v-7.8c-.7.2-1.5.3-2.3.3-.5 0-.9 0-1.4-.1-.4-.1-.9-.2-1.3-.3v15.3c0 1.4 1.1 2.5 2.5 2.5h34.9c1.4 0 2.5-1.1 2.5-2.5v-15.3c-.4.1-.8.2-1.3.3s-.9.1-1.4.1z"/></svg>