<svg enable-background="new 0 0 48 48" viewBox="0 0 48 48" xmlns="http://www.w3.org/2000/svg"><path d="m21.8 18.8c-1.8-.7-2.6-1.1-2.6-1.9 0-.6.5-1.2 1.9-1.2.9 0 1.5.1 2.1.3.3.1.6.1.8-.1.3-.1.4-.4.5-.7v-.1c.1-.4 0-.7-.2-1.1-.2-.3-.5-.5-.9-.6-.5-.1-1.1-.2-1.8-.2v-.8c0-.6-.5-1.1-1.1-1.1s-1.1.5-1.1 1.1v1c-2.3.5-3.7 1.9-3.7 3.9 0 2.1 1.6 3.2 3.9 4 1.6.5 2.3 1.1 2.3 1.9 0 .9-.8 1.3-2.1 1.3-.9 0-1.7-.2-2.4-.4-.3-.1-.6-.1-.9.1-.3.1-.5.4-.6.7-.2.7.2 1.5 1 1.7.7.2 1.5.4 2.4.4v1c0 .6.5 1.1 1.1 1.1s1.1-.5 1.1-1.1v-1.1c2.5-.4 3.9-2.1 3.9-4 0-2-1.1-3.2-3.6-4.1z"/><path d="m34.2 30.2c-.7 0-1.3.6-1.3 1.3v1.3h2.5v-1.3c0-.7-.5-1.3-1.2-1.3z"/><path d="m34.8 24c1.2-2.8 1.9-6 1.9-9.6 0-9.7-7.3-10.6-16.4-10.6s-16.3.9-16.3 10.6c0 15.8 14.7 24.7 16.4 24.7.5 0 2-.7 4-2.1 1.3 4.1 5.1 7.2 9.6 7.2 5.6 0 10.1-4.5 10.1-10.1-.1-5.3-4.2-9.6-9.3-10.1zm-10.8 8.4c-1.5 1.3-2.8 2.1-3.7 2.6-3.1-1.7-12.6-8.8-12.6-20.6 0-5.1 1.8-6.8 12.6-6.8s12.6 1.7 12.6 6.8c0 4-1.1 7.4-2.6 10.2-3.3 1.3-5.7 4.3-6.3 7.8zm14 4.1c0 .6-.5 1.3-1.2 1.3h-5.3c-.6 0-1.1-.7-1.1-1.3v-2.8c0-.6.5-.9 1.1-.9h.2v-1.3c0-1.4 1.1-2.5 2.5-2.5s2.5 1.1 2.5 2.5v1.3h.1c.6 0 1.2.3 1.2.9z"/></svg>