<svg enable-background="new 0 0 48 48" viewBox="0 0 48 48" xmlns="http://www.w3.org/2000/svg"><path d="m26.5 22.7c2.8 0 5-2.2 5-5s-2.2-5-5-5-5 2.2-5 5 2.2 5 5 5zm0-7.5c1.4 0 2.5 1.1 2.5 2.5s-1.1 2.5-2.5 2.5-2.5-1.1-2.5-2.5c0-1.3 1.1-2.5 2.5-2.5z"/><path d="m35.3 25.2c-2.8 0-5 2.2-5 5s2.2 5 5 5 5-2.2 5-5-2.3-5-5-5zm0 7.5c-1.4 0-2.5-1.1-2.5-2.5s1.1-2.5 2.5-2.5 2.5 1.1 2.5 2.5-1.2 2.5-2.5 2.5z"/><path d="m23.1 31.1c.2.3.6.4.9.4s.6-.1.8-.3l13.8-12.5c.5-.5.5-1.3.1-1.8-.5-.5-1.3-.5-1.8-.1l-13.7 12.5c-.6.5-.6 1.3-.1 1.8z"/><path d="m17.8 24h2.5v3.8h-2.5z"/><path d="m17.8 6.5v11l-5-11h-6.3c-1.4 0-2.5 1.1-2.5 2.5v30c0 1.4 1.1 2.5 2.5 2.5h11.3 2.5 21.3c1.4 0 2.5-1.1 2.5-2.5v-30c0-1.4-1.1-2.5-2.5-2.5zm23.7 32.5h-21.2v-2.5h-2.5v2.5h-11.3v-30h3.8v12.5h10v-12.5h21.3v30z"/><path d="m17.8 30.2h2.5v3.8h-2.5z"/></svg>