<svg enable-background="new 0 0 48 48" viewBox="0 0 48 48" xmlns="http://www.w3.org/2000/svg"><path d="m43.2 19.5c.5 0 .8-.4.8-.8v-2.8c0-.5-.4-.8-.8-.8h-3.3l1.3-5.6c.1-.5-.3-1-.8-1h-3.2c-.4 0-.7.3-.8.7l-1 6h-7.6l-1.4-6c-.1-.4-.4-.6-.8-.6h-3.1c-.4 0-.7.3-.8.6l-1.4 6h-7.6l-1.2-6c-.1-.4-.4-.7-.8-.7h-3c-.5 0-.9.5-.8 1l1.3 5.6h-3.4c-.5 0-.8.4-.8.8v2.8c0 .5.4.8.8.8h4.3l.5 2.2h-4.8c-.5 0-.8.4-.8.8v2.8c0 .5.4.8.8.8h5.8l2.8 12.7c.1.4.4.7.8.7h3.9c.4 0 .7-.3.8-.6l3.1-12.7h3.8l2.9 12.7c.1.4.4.6.8.6h3.9c.4 0 .7-.3.8-.6l2.9-12.7h5.9c.5 0 .8-.4.8-.8v-2.8c0-.5-.4-.8-.8-.8h-4.9l.5-2.2h4.6zm-29.6 0h5.6l-.5 2.2h-4.7zm3.2 10.5c-.4 1.8-.5 3.3-.5 3.3h-.1s-.1-1.5-.5-3.3l-.8-3.8h2.7zm6.2-8.2.1-.6c.1-.6.2-1.1.3-1.6h.8c.1.5.2 1.1.3 1.6l.1.6zm9.1 8.2c-.4 1.8-.5 3.3-.5 3.3h-.1s-.1-1.5-.5-3.3l-.9-3.8h2.7zm1.8-8.2h-4.7l-.5-2.2h5.7z"/></svg>