<svg enable-background="new 0 0 48 48" viewBox="0 0 48 48" xmlns="http://www.w3.org/2000/svg"><path d="m38.2 4h-5.8c-.4 0-.8.2-1 .6l-4.9 10.1c-1.3 3.1-2.4 6.4-2.4 6.4h-.1s-1.1-3.3-2.4-6.4l-5-10.1c-.2-.4-.6-.6-1-.6h-5.8c-.8 0-1.3.9-1 1.6l7.2 13.4h-5.2c-.6 0-1.1.5-1.1 1.1v2.9c0 .6.5 1.1 1.1 1.1h7.9l1.8 3.3v2.4h-9.6c-.6 0-1.1.5-1.1 1.1v2.9c0 .6.5 1.1 1.1 1.1h9.6v8.2c0 .6.5 1.1 1.1 1.1h5c.6 0 1.1-.5 1.1-1.1v-8.2h9.6c.6 0 1.1-.5 1.1-1.1v-2.9c0-.6-.5-1.1-1.1-1.1h-9.6v-2.4l1.8-3.3h7.9c.6 0 1.1-.5 1.1-1.1v-2.9c0-.6-.5-1.1-1.1-1.1h-5.4l7.2-13.4c.3-.7-.2-1.6-1-1.6z"/></svg>