<svg enable-background="new 0 0 48 48" viewBox="0 0 48 48" xmlns="http://www.w3.org/2000/svg"><path d="m45 36v-34.5c0-.8-.7-1.5-1.5-1.5h-33c-4.1 0-7.5 3.4-7.5 7.5v33c0 4.1 3.4 7.5 7.5 7.5h33c.8 0 1.5-.7 1.5-1.5v-1.5c0-.7-.5-1.3-1.2-1.5-.4-1.2-.4-4.8 0-6.1.7-.1 1.2-.7 1.2-1.4zm-5.1 7.5h-29.4c-1.7 0-3-1.3-3-3s1.3-3 3-3h29.4c-.2 1.6-.2 4.4 0 6zm.6-10.5h-30c-1 0-2.1.2-3 .6v-26.1c0-1.7 1.3-3 3-3h30zm-24.7-12h5.2v5.3c0 .4.3.8.8.8h4.5c.4 0 .8-.3.8-.8v-5.3h5.3c.4 0 .8-.3.8-.8v-4.5c0-.4-.3-.8-.8-.8h-5.4v-5.1c0-.5-.3-.8-.7-.8h-4.5c-.5 0-.8.3-.8.8v5.2h-5.3c-.4 0-.8.3-.8.8v4.5c.1.4.4.7.9.7z"/></svg>