<svg enable-background="new 0 0 48 48" viewBox="0 0 48 48" xmlns="http://www.w3.org/2000/svg"><path d="m47.9 39.6-9.4-35.3c-.3-1-1.3-1.9-2.6-1.5l-1.3.3c-.5.1-1 .5-1.3 1.2-1.2.6-4.4 1.4-5.7 1.5-.7-.4-1.2-.5-1.8-.4l-1.3.3c-.2.1-.3.2-.5.3v-.7c0-1.5-1.2-2.7-2.7-2.7h-5.3c-1.5 0-2.7 1.2-2.7 2.7v5.3h10.7l8.5 33.1c.3 1 1.3 1.9 2.6 1.5l1.3-.3c.5-.1 1-.5 1.3-1.2 1.2-.6 4.3-1.4 5.7-1.5.7.4 1.2.5 1.8.4l1.3-.3c1.2-.4 1.7-1.7 1.4-2.7zm-11.2-.6-7.7-28.7 5.2-1.3 7.7 28.7zm-36.7-4.3h10.7v-21.4h-10.7zm8-32h-5.3c-1.5 0-2.7 1.2-2.7 2.6v5.3h10.7v-5.3c0-1.4-1.2-2.6-2.7-2.6zm-8 40c0 1.5 1.2 2.7 2.7 2.7h5.3c1.5 0 2.7-1.2 2.7-2.7v-5.3h-10.7zm13.3-8h10.7v-21.4h-10.7zm0 8c0 1.5 1.2 2.7 2.7 2.7h5.3c1.5 0 2.7-1.2 2.7-2.7v-5.3h-10.7z"/></svg>