<svg enable-background="new 0 0 48 48" viewBox="0 0 48 48" xmlns="http://www.w3.org/2000/svg"><path d="m28.5 12.8c.8 0 1.5-.7 1.5-1.5s-.7-1.5-1.5-1.5-1.5.6-1.5 1.5.7 1.5 1.5 1.5zm16.5 20.8v-31.2c0-1.5-.9-2.4-2.4-2.4h-30.6c-5.1 0-9 3.9-9 9v30c0 5.1 3.9 9 9 9h30.6c1.2 0 2.4-.9 2.4-2.4v-1.5c0-.6-.3-1.2-.9-1.8-.3-1.5-.3-5.7 0-6.9.6-.3.9-.9.9-1.8zm-19.5-28.3c4.1 0 7.5 2.7 7.5 6 0 2-1.2 3.7-3 4.8v1.2c0 .8-.7 1.5-1.5 1.5h-6c-.8 0-1.5-.7-1.5-1.5v-1.3c-1.8-1.1-3-2.8-3-4.8 0-3.3 3.4-6 7.5-5.9zm-10.8 15.6.6-1.4c.2-.4.6-.6 1-.4l9.2 3.9 9.2-3.9c.4-.2.8 0 1 .4l.6 1.4c.2.4 0 .8-.4 1l-6.6 2.8 6.6 2.8c.4.2.6.6.4 1l-.6 1.4c-.2.4-.6.6-1 .4l-9.2-3.9-9.2 4c-.4.2-.8 0-1-.4l-.6-1.4c-.2-.4 0-.8.4-1l6.6-2.8-6.6-2.8c-.4-.2-.6-.7-.4-1.1zm24 21.1h-26.7c-1.8 0-3-1.2-3-3s1.5-3 3-3h26.7zm-16.2-29.2c.8 0 1.5-.7 1.5-1.5s-.7-1.5-1.5-1.5-1.5.6-1.5 1.5.7 1.5 1.5 1.5z"/></svg>