<svg enable-background="new 0 0 48 48" viewBox="0 0 48 48" xmlns="http://www.w3.org/2000/svg"><path d="m25.5 19.5c3.3 0 6-2.7 6-6s-2.7-6-6-6-6 2.7-6 6 2.7 6 6 6zm19.5 16.5v-34.5c0-.8-.7-1.5-1.5-1.5h-33c-4.1 0-7.5 3.4-7.5 7.5v33c0 4.1 3.4 7.5 7.5 7.5h33c.8 0 1.5-.7 1.5-1.5v-1.5c0-.7-.5-1.3-1.2-1.5-.4-1.2-.4-4.8 0-6.1.7-.1 1.2-.7 1.2-1.4zm-5.1 7.5h-29.4c-1.7 0-3-1.3-3-3s1.3-3 3-3h29.4c-.2 1.6-.2 4.4 0 6zm.6-10.5h-30c-1 0-2.1.2-3 .6v-26.1c0-1.7 1.3-3 3-3h30zm-24-3h18c.8 0 1.5-.7 1.5-1.5v-2.1c0-3-2.8-5.4-6.3-5.4h-.5c-2.4 1-5.1 1-7.5 0h-.5c-3.5 0-6.3 2.4-6.3 5.4v2.1c.1.8.8 1.5 1.6 1.5z"/></svg>