<svg enable-background="new 0 0 48 48" viewBox="0 0 48 48" xmlns="http://www.w3.org/2000/svg"><path d="m15 27.9.4 1.5c.1.4.5.7.9.5l9.2-2.8 9.2 2.8c.4.1.8-.1.9-.5l.4-1.5c.1-.4-.1-.9-.5-1l-4.6-1.4 4.6-1.4c.4-.1.6-.6.5-1l-.4-1.5c-.1-.4-.5-.7-.9-.5l-9.2 2.8-9.2-2.9c-.4-.1-.8.1-.9.5l-.4 1.6c-.1.4.1.9.5 1l4.6 1.4-4.6 1.4c-.4.1-.6.6-.5 1zm6-9.6v1.2c0 .8.7 1.5 1.5 1.5h6c.8 0 1.5-.7 1.5-1.5v-1.2c1.8-1.1 3-2.8 3-4.8 0-3.3-3.4-6-7.5-6s-7.5 2.7-7.5 6c0 2 1.2 3.7 3 4.8zm7.5-6.3c.8 0 1.5.7 1.5 1.5s-.7 1.5-1.5 1.5-1.5-.7-1.5-1.5.7-1.5 1.5-1.5zm-6 0c.8 0 1.5.7 1.5 1.5s-.7 1.5-1.5 1.5-1.5-.7-1.5-1.5.7-1.5 1.5-1.5zm22.5 24v-34.5c0-.8-.7-1.5-1.5-1.5h-33c-4.1 0-7.5 3.4-7.5 7.5v33c0 4.1 3.4 7.5 7.5 7.5h33c.8 0 1.5-.7 1.5-1.5v-1.5c0-.7-.5-1.3-1.2-1.5-.4-1.2-.4-4.8 0-6.1.7-.1 1.2-.7 1.2-1.4zm-5.1 7.5h-29.4c-1.7 0-3-1.3-3-3s1.4-3 3-3h29.4c-.2 1.6-.2 4.4 0 6zm.6-10.5h-30c-1.1 0-2.1.2-3 .6v-26.1c0-1.7 1.3-3 3-3h30z"/></svg>