<svg enable-background="new 0 0 48 48" viewBox="0 0 48 48" xmlns="http://www.w3.org/2000/svg"><path d="m45 33.6v-31.2c0-1.5-.9-2.4-2.4-2.4h-30.6c-5.1 0-9 3.9-9 9v30c0 5.1 3.9 9 9 9h30.6c1.2 0 2.4-.9 2.4-2.4v-1.5c0-.6-.3-1.2-.9-1.8-.3-1.5-.3-5.7 0-6.9.6-.3.9-.9.9-1.8zm-28.5-17.8c0-.4.3-.8.8-.8h5.3v-5.2c0-.4.3-.8.8-.8h4.5c.4 0 .8.3.8.8v5.2h5.3c.4 0 .8.3.8.8v4.5c0 .4-.3.8-.8.8h-5.3v5.3c0 .4-.3.8-.8.8h-4.5c-.4 0-.8-.3-.8-.8v-5.4h-5.3c-.4 0-.8-.3-.8-.8zm22.2 26.2h-26.7c-1.8 0-3-1.2-3-3s1.5-3 3-3h26.7z"/></svg>