<svg enable-background="new 0 0 48 48" viewBox="0 0 48 48" xmlns="http://www.w3.org/2000/svg"><path d="m15 14.3v-3c0-.4.3-.8.8-.8h19.5c.4 0 .8.3.8.8v3c0 .4-.3.8-.8.8h-19.5c-.5-.1-.8-.4-.8-.8zm.8 8.2h19.5c.4 0 .8-.3.8-.8v-3c0-.4-.3-.8-.8-.8h-19.5c-.4 0-.8.3-.8.8v3c0 .5.3.8.8.8zm28 15c-.4 1.2-.4 4.8 0 6.1.7.1 1.2.7 1.2 1.5v1.5c0 .8-.7 1.5-1.5 1.5h-33c-4.1-.1-7.5-3.5-7.5-7.6v-33c0-4.1 3.4-7.5 7.5-7.5h33c.8 0 1.5.7 1.5 1.5v34.5c0 .7-.5 1.3-1.2 1.5zm-3.9 0h-29.4c-1.6 0-3 1.3-3 3s1.3 3 3 3h29.4c-.2-1.6-.2-4.4 0-6zm.6-33h-30c-1.7 0-3 1.3-3 3v26.1c.9-.4 1.9-.6 3-.6h30z"/></svg>