<svg enable-background="new 0 0 48 48" viewBox="0 0 48 48" xmlns="http://www.w3.org/2000/svg"><path d="m45 33.6v-31.2c0-1.5-.9-2.4-2.4-2.4h-30.6c-5.1 0-9 3.9-9 9v30c0 5.1 3.9 9 9 9h30.6c1.2 0 2.4-.9 2.4-2.4v-1.5c0-.6-.3-1.2-.9-1.8-.3-1.5-.3-5.7 0-6.9.6-.3.9-.9.9-1.8zm-19.5-27.6c3.3 0 6 2.7 6 6s-2.7 6-6 6-6-2.7-6-6 2.7-6 6-6zm-10.5 20.4c0-3 2.8-5.4 6.3-5.4h.5c2.4 1 5.1 1 7.5 0h.5c3.5 0 6.3 2.4 6.3 5.4v1.8c0 1-.9 1.8-2.1 1.8h-16.9c-1.2 0-2.1-.8-2.1-1.8zm23.7 15.6h-26.7c-1.8 0-3-1.2-3-3s1.5-3 3-3h26.7z"/></svg>