<svg enable-background="new 0 0 48 48" viewBox="0 0 48 48" xmlns="http://www.w3.org/2000/svg"><path d="m45 33.8v-31.5c0-1.3-1-2.3-2.2-2.3h-30.8c-5 0-9 4-9 9v30c0 5 4 9 9 9h30.8c1.2 0 2.3-1 2.3-2.3v-1.5c0-.7-.3-1.3-.8-1.8-.4-1.4-.4-5.6 0-7 .4-.3.7-.9.7-1.6zm-30-21.2c0-.3.3-.6.6-.6h19.9c.3 0 .6.3.6.6v1.9c0 .3-.3.6-.6.6h-19.9c-.3 0-.6-.3-.6-.6zm0 6c0-.3.3-.6.6-.6h19.9c.3 0 .6.3.6.6v1.9c0 .3-.3.6-.6.6h-19.9c-.3 0-.6-.3-.6-.6zm23.8 23.4h-26.8c-1.7 0-3-1.3-3-3s1.4-3 3-3h26.8c-.2 1.6-.2 4.4 0 6z"/></svg>