<svg enable-background="new 0 0 48 48" viewBox="0 0 48 48" xmlns="http://www.w3.org/2000/svg"><path d="m48 40.5-9.8-36.8c-.2-.7-.9-1.1-1.6-.9l-1.3.3c-.6.2-1 .8-1 1.4-1 .6-5.4 1.8-6.5 1.7-.3-.6-.9-.9-1.5-.7l-.9.3v-.5c0-1.5-1.2-2.7-3.3-2.7h-20.1c-.8 0-2 1.2-2 2.7v37.3c0 1.5 1.2 2.7 2 2.7h20c2.1 0 3.3-1.2 3.3-2.7v-30.3l8.5 32c.2.7.9 1.1 1.6.9l1.3-.3c.6-.2 1-.8 1-1.4 1-.6 5.4-1.8 6.5-1.7.3.6.9.9 1.5.7l1.3-.3c.7-.2 1.1-.9 1-1.7zm-37.3.8h-6.7v-4h6.7zm0-8h-6.7v-18.6h6.7zm0-22.6h-6.7v-4h6.7zm10.6 30.6h-6.7v-4h6.7zm0-8h-6.7v-18.6h6.7zm0-22.6h-6.7v-4h6.7zm15.5 29.6-8.1-30.8c1.4-.2 5.1-1.1 6.4-1.7l8.1 30.8c-1.3.1-5 1-6.4 1.7z"/></svg>