<svg enable-background="new 0 0 48 48" viewBox="0 0 48 48" xmlns="http://www.w3.org/2000/svg"><path d="m45 36v-34.5c0-.8-.7-1.5-1.5-1.5h-33c-4.1 0-7.5 3.4-7.5 7.5v33c0 4.1 3.4 7.5 7.5 7.5h33c.8 0 1.5-.7 1.5-1.5v-1.5c0-.7-.5-1.3-1.2-1.5-.4-1.2-.4-4.8 0-6.1.7-.1 1.2-.7 1.2-1.4zm-5.1 7.5h-29.4c-1.7 0-3-1.3-3-3s1.4-3 3-3h29.4c-.2 1.6-.2 4.4 0 6zm.6-10.5h-30c-1.1 0-2.1.2-3 .6v-26.1c0-1.7 1.3-3 3-3h30zm-14.5-8 2.5 5 2.5-5 5-2.5-5-2.5-2.5-5-2.5 5-5 2.5zm-8-6.2 1.7-3.5 3.5-1.8-3.5-1.8-1.7-3.4-1.8 3.5-3.5 1.8 3.5 1.8z"/></svg>