<svg enable-background="new 0 0 48 48" viewBox="0 0 48 48" xmlns="http://www.w3.org/2000/svg"><path d="m32.3 12h7.1c.6 0 1.1-.2 1.3-.7s.1-1.1-.4-1.4l-7.1-7.1c-.4-.4-1.1-.5-1.6-.4-.5.2-1 .7-1 1.3v7.1c.1.9.8 1.2 1.7 1.2z"/><path d="m25.2 2.6v9.7c0 2.9 2.5 5.3 5.5 5.3h9.5v26c0 1.2-1.1 2-2 2h-28.6c-1 0-1.9-1-1.9-2v-38.9c0-1.1.9-2.2 1.9-2.2h15.6m1.2-2.4h-16.8c-2.4 0-4.4 2.2-4.4 4.7v38.8c0 2.4 2 4.5 4.4 4.5h28.5c2.4 0 4.5-2 4.5-4.5v-27c0-.8-.7-1.6-1.4-1.6h-10.5c-1.6 0-3-1.2-3-2.8v-10.5c0-.8-.5-1.6-1.3-1.6z"/><path d="m27.8 41.9h-7.5c-.8 0-1.6-.7-1.6-1.6s.7-1.6 1.6-1.6h7.5c.8 0 1.6.7 1.6 1.6-.1.9-.8 1.6-1.6 1.6z"/><path d="m30 28.7-2.3 5.7c.8 0 1.6.7 1.6 1.6s-.7 1.6-1.6 1.6h-7.5c-.8 0-1.6-.7-1.6-1.6s.7-1.6 1.6-1.6l-2.2-5.7c-.5-1.1-.4-2.3.4-3.2l3.7-5.6c.4-.6 1.2-.2 1.2.4v8.4c-.8.4-1.6 1.1-1.6 2.2 0 1.2 1 2.3 2.3 2.3s2.3-1 2.3-2.3c0-1-.6-1.8-1.6-2.2v-8.4c0-.6.8-1 1.2-.4l3.7 5.6c.7.9.9 2.1.4 3.2z"/></svg>