<svg enable-background="new 0 0 48 48" viewBox="0 0 48 48" xmlns="http://www.w3.org/2000/svg"><path d="m32.1 12h7.1c.6 0 1.1-.2 1.3-.7s.1-1.1-.4-1.6l-7.1-7.1c-.4-.4-1.1-.5-1.6-.4-.5.2-.8.7-.8 1.3v7.2c.1.9.8 1.3 1.5 1.3z"/><path d="m41.3 15h-10.6c-1.6 0-3-1.2-3-2.8v-10.5c0-.8-.5-1.7-1.3-1.7h-16.7c-2.4 0-4.4 2.2-4.4 4.7v39.1c0 2.4 2 4.2 4.4 4.2h28.6c2.4 0 4.6-1.8 4.6-4.2v-27.2c-.2-.9-.9-1.6-1.6-1.6zm-6.3 22.4c0 .1-.1.2-.2.4l-2 1.6c-.2.1-.5.1-.7-.1l-1.6-2c-.1-.2-.1-.5.1-.7l.5-.4-2.8-3.6c0 2-.7 4.2-2.3 5.6l.4.7c.1.2.1.5-.1.7l-2.2 1.2c-.2.1-.5.1-.7-.1l-1.2-2.3c-.1-.1-.1-.2 0-.4 0-.1.1-.2.2-.2l2.2-1.3c.2-.1.5-.1.7.1l.2.4c1.4-1.6 2-3.8 1.4-6l-.2.1c-.2.1-.5.1-.7-.1l-1.3-2.2c-.1-.1-.1-.2 0-.4 0-.1.1-.2.2-.2l.2-.2c-.8-.7-1.7-1.2-2.8-1.4s-2.2-.2-3.1.1l.2.2c.1.1.1.2 0 .4 0 .1-.1.2-.2.2l-2.5 1.3c-.1.1-.2.1-.4.1-.1 0-.2-.1-.2-.2l-1.4-2.3c-.1-.2-.1-.5.1-.7l2.2-1.3c.2-.1.5-.1.7.1l.5.7c1.3-.5 2.8-.5 4.2-.2.2 0 .5.1.6.2l-2-2.8-.5.4c-.1.1-.2.1-.4.1-.1 0-.2-.1-.4-.2l-1.6-2c-.1-.1-.1-.2-.1-.4 0-.1.1-.2.2-.4l2-1.6c.2-.1.5-.1.7.1l1.6 2c.1.1.1.2.1.4 0 .1-.1.2-.2.4l-.5.4 4 5.4.6-.4c.2-.1.5-.1.7.1l1.3 2.2c.1.2.1.5-.1.7l-.1.4 4 5.3.5-.4c.1-.1.2-.1.4-.1.1 0 .2.1.4.2l1.6 2c-.2.2-.2.3-.2.4z"/></svg>