<svg enable-background="new 0 0 48 48" viewBox="0 0 48 48" xmlns="http://www.w3.org/2000/svg"><path d="m32.2 12h7.1c.6 0 1.1-.4 1.3-.8.2-.5.1-1.2-.4-1.6l-7-7.2c-.3-.4-1-.5-1.5-.4-.5.2-.8.7-.8 1.3v7.1c-.2 1 .5 1.6 1.3 1.6z"/><path d="m41.3 15h-10.7c-1.6 0-2.9-1.3-2.9-2.9v-10.7c0-.8-.6-1.4-1.4-1.4h-16.6c-2.4 0-4.5 2-4.5 4.4v39c0 2.4 2 4.6 4.6 4.6h28.6c2.4 0 4.6-2 4.6-4.6v-27c-.3-.8-.9-1.4-1.7-1.4zm-8.8 19.7c-.1 1.1-.7 2-1.7 2.6-2.4 1.8-4.9 1.1-7.1-1.9-.8-1.2-3.2-4.6-3.5-4.9-.2-.2-1.4-1.9-1.3-3.4 0-.7.5-1.3 1.1-1.8 2.4-1.8 4.1.6 5 1.9l3.4 4.7c.2.4.1.8-.2 1.1-.4.2-.8.2-1.1-.1l-3.4-4.7c-1.2-1.6-2-2.2-2.8-1.7-1.1.8.6 3 .6 3 .1.1 2.8 3.6 3.6 4.8 1.2 1.7 2.6 3.1 4.7 1.7.6-.5 1-1 1.1-1.6.2-1.6-1-3.1-1-3.1l-5.8-7.9c-.6-.8-1.2-1.2-1.9-1.3-1-.1-1.9.6-1.9.6l-3 2.3c-.8.6-1.2 1.2-1.3 1.8-.1 1 .6 1.9.6 1.9l5.6 7.8c.2.4.1.8-.2 1.1-.4.2-.8.2-1.1-.1l-5.5-7.8c-.1-.2-1.1-1.4-1-3.1.1-1.2.8-2.2 2-3l3.1-2.2c.2-.2 1.4-1.2 3.1-1 1.2.1 2.2.8 3 2l5.8 7.9c-.1.1 1.4 2.1 1.1 4.4z"/></svg>