<svg enable-background="new 0 0 48 48" viewBox="0 0 48 48" xmlns="http://www.w3.org/2000/svg"><path d="m32.1 12h7.1c.6 0 1.1-.2 1.3-.7s.1-1.1-.4-1.6l-7.1-7.1c-.4-.4-1.1-.5-1.6-.4-.5.2-.8.7-.8 1.3v7.2c.1.9.8 1.3 1.5 1.3z"/><path d="m25.2 2.5v9.7c0 2.9 2.5 5.3 5.5 5.3h9.6v26.3c0 1-1.1 1.7-2.1 1.7h-28.5c-1 0-1.9-.6-1.9-1.7v-39.1c0-1.1.9-2.2 1.9-2.2zm1.2-2.5h-16.7c-2.4 0-4.4 2.2-4.4 4.7v39.1c0 2.4 2 4.2 4.4 4.2h28.6c2.4 0 4.6-1.8 4.6-4.2v-27.2c-.2-.9-.9-1.6-1.6-1.6h-10.6c-1.6 0-3-1.2-3-2.8v-10.5c0-.9-.5-1.7-1.3-1.7z"/><path d="m19.3 17.8c-.1 0-.2 0-.3.1l-2 1.6c-.1.1-.2.2-.2.4 0 .1 0 .2.1.4l1.6 2c.1.1.2.2.4.2.1 0 .2 0 .4-.1l.5-.4 2 2.8c-.1-.1-.4-.2-.6-.2-.6-.1-1.2-.2-1.8-.2-.8 0-1.6.1-2.4.4l-.7-.8c-.1-.1-.3-.2-.4-.2s-.2 0-.3.1l-2.2 1.3c-.2.2-.2.5-.1.7l1.4 2.3c0 .1.1.2.2.2s.2 0 .4-.1l2.5-1.3c.1 0 .2-.1.2-.2.1-.1.1-.2 0-.4l-.2-.2c.5-.2 1.1-.3 1.7-.3.5 0 1 .1 1.4.2 1.1.2 1.9.7 2.8 1.4l-.2.2c-.1 0-.2.1-.2.2-.1.1-.1.2 0 .4l1.3 2.2c.1.1.3.2.4.2s.2 0 .3-.1l.2-.1c.6 2.2 0 4.4-1.4 6l-.2-.4c-.1-.1-.3-.2-.4-.2s-.2 0-.3.1l-2.2 1.3c-.1 0-.2.1-.2.2-.1.1-.1.2 0 .4l1.2 2.3c.1.1.3.2.4.2s.2 0 .3-.1l2.2-1.2c.2-.2.2-.5.1-.7l-.4-.7c1.6-1.4 2.3-3.6 2.3-5.6l2.8 3.6-.5.3c-.2.2-.2.5-.1.7l1.6 2c.1.1.3.2.4.2s.2 0 .3-.1l2-1.6c.1-.1.2-.2.2-.4 0-.1 0-.2 0-.4l-1.6-2c-.1-.1-.2-.2-.4-.2-.1 0-.2 0-.4.1l-.5.4-4-5.3.2-.4c.2-.2.2-.5.1-.7l-1.3-2.2c-.1-.1-.3-.2-.4-.2s-.2 0-.3.1l-.6.4-4-5.4.5-.4c.1-.1.2-.2.2-.4 0-.1 0-.2-.1-.4l-1.6-2c.1 0 0 0-.1 0z"/></svg>