<svg enable-background="new 0 0 48 48" viewBox="0 0 48 48" xmlns="http://www.w3.org/2000/svg"><path d="m32.3 12h7.4c.6 0 1.1-.2 1.3-.7s.1-1.1-.4-1.6l-7.1-7.1c-.4-.4-1.2-.5-1.8-.4-.5.2-1.1.7-1.1 1.3v6.8c.1 1 .9 1.7 1.7 1.7z"/><path d="m41.3 15h-10.2c-1.6 0-3.2-1.1-3.2-2.6v-10.7c0-.8-.7-1.7-1.6-1.7h-16.6c-2.4 0-4.5 2.2-4.5 4.7v39.1c0 2.4 2.4 4.2 4.8 4.2h28.2c2.4 0 4.6-2 4.6-4.6v-26.7c-.1-.9-.8-1.7-1.5-1.7zm-10.1 22.1c-.4.4-.8.5-1.2.5-.5 0-1-.2-1.2-.5l-4-4-4 4c-.7.7-1.8.7-2.5 0s-.7-1.8 0-2.5l4-4-4-4c-.4-.4-.5-.7-.5-1.2s.2-1 .5-1.2c.7-.7 1.8-.7 2.5 0l4 4 4-4c.7-.7 1.8-.7 2.5 0s.7 1.8 0 2.5l-4 4 4 4c.5.6.5 1.7-.1 2.4z"/></svg>