<svg enable-background="new 0 0 48 48" viewBox="0 0 48 48" xmlns="http://www.w3.org/2000/svg"><path d="m32.3 12h7.4c.6 0 1.1-.2 1.3-.7s.1-1.1-.4-1.6l-7.1-7.1c-.4-.4-1.2-.5-1.8-.4-.5.2-1.1.7-1.1 1.3v6.8c.1 1 .8 1.7 1.7 1.7z"/><circle cx="21" cy="26.3" r="3.7"/><path d="m41.2 15h-10.1c-1.6 0-3.2-1.1-3.2-2.6v-10.7c0-.8-.7-1.7-1.6-1.7h-16.5c-2.4 0-4.5 2-4.5 4.5v38.9c0 2.4 2 4.5 4.5 4.5h28.5c2.4 0 4.5-2 4.5-4.5v-26.7c-.1-.8-.8-1.7-1.6-1.7zm-8.6 22.8c-1.1 1.1-2.8 1.1-3.7 0l-2.4-2.4c-.5-.5-.5-1.3 0-1.9l-1.7-1.7c-1.1.7-2.4 1.1-3.7 1.1-3.7 0-6.7-3-6.7-6.7s3-6.7 6.7-6.7 6.7 3 6.7 6.7c0 1.3-.4 2.6-1.1 3.7l1.8 1.8c.5-.5 1.3-.5 1.9 0l2.4 2.4c.8 1 .8 2.7-.2 3.7z"/></svg>