<svg enable-background="new 0 0 48 48" viewBox="0 0 48 48" xmlns="http://www.w3.org/2000/svg"><path d="m32.2 12h7.1c.6 0 1.1-.2 1.3-.7s.1-1.1-.4-1.6l-7.1-7.1c-.4-.4-1.1-.5-1.6-.4-.5.2-.8.7-.8 1.3v7.2c0 .9.7 1.3 1.5 1.3z"/><path d="m41.3 15h-10.7c-1.6 0-2.9-1.1-2.9-2.6v-10.7c0-.8-.6-1.7-1.4-1.7h-16.6c-2.4 0-4.4 2.2-4.4 4.7v39.1c0 2.4 2 4.2 4.4 4.2h28.6c2.4 0 4.4-1.8 4.4-4.2v-27.1c0-.9-.6-1.7-1.4-1.7zm-9.9 13.3-3 2.9c-.4.4-.6 1-.5 1.6l.7 4.1c0 .2-.1.6-.2.7-.2.1-.5.2-.7 0l-3.7-2c-.5-.2-1.1-.2-1.7 0l-3.7 1.9c-.2.1-.6.1-.7 0-.2-.1-.4-.5-.2-.7l.7-4.1c.1-.6-.1-1.2-.5-1.6l-3-2.9c-.2-.2-.2-.5-.2-.7.1-.2.4-.5.6-.5l4.1-.6c.6-.1 1.1-.5 1.3-1l1.8-3.7c.1-.2.4-.4.6-.4s.5.1.6.4l1.8 3.7c.2.5.7.8 1.3 1l4.1.6c.2 0 .5.2.6.5.2.3.2.6-.1.8z"/></svg>