<svg enable-background="new 0 0 48 48" viewBox="0 0 48 48" xmlns="http://www.w3.org/2000/svg"><path d="m32.2 12h7.1c.6 0 1.1-.4 1.3-.8.2-.5.1-1.2-.4-1.6l-7.1-7.1c-.3-.3-1.1-.5-1.5-.3-.5.2-.8.7-.8 1.3v7.1c-.1.8.5 1.4 1.4 1.4z"/><path d="m41.3 15h-10.7c-1.6 0-2.8-1.2-2.8-2.9v-10.7c0-.8-.7-1.4-1.6-1.4h-16.5c-2.5 0-4.4 2-4.4 4.4v39c0 2.6 1.9 4.6 4.4 4.6h28.6c2.4 0 4.4-2 4.4-4.6v-26.8c0-.9-.6-1.6-1.4-1.6zm-9 9h-13.3l-.2 4.6h13.6l-2 9.6-6.7 2-5.9-1.8-.8-3.8h3l.2 1.3 3 1 4.1-1.4.4-4h-12l-1.6-10.6h19.6z"/></svg>