<svg enable-background="new 0 0 48 48" viewBox="0 0 48 48" xmlns="http://www.w3.org/2000/svg"><path d="m26.9 12h7.1c.6 0 1.1-.4 1.3-.8s.1-1.2-.4-1.6l-7-7.2c-.3-.4-1-.5-1.5-.4-.5.2-.8.7-.8 1.3v7.1c0 1 .6 1.6 1.3 1.6z"/><path d="m20.1 2.5v9.6c0 2.9 2.5 5.4 5.4 5.4h9.6v6.5.5h-21.7-2.5v2.5 15 2.5h2.5 21.3c-.3.6-1 1-1.7 1h-28.6c-1 0-1.9-.9-1.9-1.9v-39.2c0-1 .9-1.9 1.9-1.9zm1-2.5h-16.7c-2.4 0-4.4 2-4.4 4.4v39.1c0 2.5 2 4.5 4.4 4.5h28.6c1.9 0 3.6-1.2 4.2-3h6.2c2.4 0 4.6-2 4.6-4.6v-12.1c0-2.4-2-4.3-4.4-4.3h-6v-7.6c0-.8-.6-1.4-1.4-1.4h-10.8c-1.6 0-2.9-1.3-2.9-2.9v-10.7c.1-.8-.5-1.4-1.4-1.4zm-7.7 42v-15h24 6c.8 0 1.6.6 1.6 1.4v12.1c0 .8-.7 1.4-1.6 1.4h-6-24z"/><path d="m16.6 30v9h6v-1.4h-4.6v-1.6h3v-1.4h-3v-3h4.6v-1.6z"/><path d="m31.6 30v9h6v-1.4h-4.6v-1.6h3v-1.4h-3v-3h4.6v-1.6z"/><path d="m28.6 30-1.6 3-1.4-3h-1.6l2.3 4.6-2.3 4.4h1.6l1.4-3 1.6 3h1.4l-2.3-4.4 2.3-4.6z"/></svg>