<svg enable-background="new 0 0 48 48" viewBox="0 0 48 48" xmlns="http://www.w3.org/2000/svg"><path d="m32.3 12h7.4c.6 0 1.1-.2 1.3-.7s.1-1.1-.4-1.6l-7.1-7.1c-.4-.4-1.2-.5-1.8-.4-.5.2-1.1.7-1.1 1.3v6.8c.1 1 .8 1.7 1.7 1.7z"/><path d="m25.3 2.5v9.8c0 3.2 3 5.1 5.7 5.1h9.2v26c0 1.2-1.1 2-2 2h-28.4c-1.2 0-2-1.1-2-2v-38.8c0-1.2 1.1-2 2-2h15.5m1-2.6h-16.5c-2.4 0-4.5 2-4.5 4.5v38.9c0 2.4 2 4.5 4.5 4.5h28.5c2.4 0 4.5-2 4.5-4.5v-26.7c-.1-.8-.4-1.7-1.1-1.7h-10.6c-1.6 0-3.2-1.1-3.2-2.6v-10.7c-.1-.8-.8-1.7-1.6-1.7z"/><path d="m17.5 26h-1.9c-.7 0-1.3.6-1.3 1.3v10.9c0 .7.6 1.3 1.3 1.3h1.8c.7 0 1.3-.6 1.3-1.3h.1v-10.8c.1-.8-.5-1.4-1.3-1.4z"/><path d="m25 23.1h-2c-.7 0-1.3.6-1.3 1.3v13.9c0 .7.6 1.3 1.3 1.3h2c.7 0 1.3-.6 1.3-1.3v-13.9c0-.8-.6-1.3-1.3-1.3z"/><path d="m32.4 30.6h-1.9c-.7 0-1.3.6-1.3 1.3v6.3c0 .7.6 1.3 1.3 1.3h1.9c.7 0 1.3-.6 1.3-1.3v-6.3c0-.7-.6-1.3-1.3-1.3z"/></svg>