<svg enable-background="new 0 0 48 48" viewBox="0 0 48 48" xmlns="http://www.w3.org/2000/svg"><path d="m32.2 12h7.1c.6 0 1.1-.2 1.3-.7s.1-1.1-.4-1.6l-7.1-7.1c-.4-.4-1.1-.5-1.6-.4-.5.2-.8.7-.8 1.3v7.2c0 .9.7 1.3 1.5 1.3z"/><path d="m25.2 2.5v9.9c0 2.9 2.4 5.1 5.4 5.1h9.6v26.3c0 1.1-1 1.7-1.9 1.7h-28.6c-1 0-1.9-.6-1.9-1.7v-39.1c0-1.1.9-2.2 1.9-2.2zm-5.3 35.8c.6 0 1.1-.1 1.6-.4h.1l.1-.1 10.6-6.4.3-.2.2-.2c.9-.9 1.1-1.9 1.1-2.5 0-1.2-.7-2.4-1.7-3l-10.5-6.4-.1-.1h-.1c-.6-.3-1.2-.4-1.6-.4s-1 .1-1.6.4l-.4.2-.3.3-.1.1c-.3.3-1.3 1.2-1.3 2.5v12.7c0 1.4 1 2.6 2 3.1l.2.1.2.1c.4.2.8.2 1.3.2m6.4-38.3h-16.6c-2.4 0-4.4 2.2-4.4 4.7v39.1c0 2.4 2 4.2 4.4 4.2h28.6c2.4 0 4.4-1.8 4.4-4.2v-27.1c0-.8-.6-1.7-1.4-1.7h-10.7c-1.6 0-2.9-1.1-2.9-2.6v-10.7c0-.9-.6-1.7-1.4-1.7zm-6.4 35.8c-.2 0-.4 0-.6-.1s-.6-.5-.6-.8v-12.7c0-.4.4-.6.6-.8.1-.1.3-.1.5-.1s.4 0 .5.1l10.6 6.5c.2.1.5.5.5.8 0 .2-.1.5-.4.7l-10.6 6.4c-.1 0-.3 0-.5 0z"/></svg>