<svg enable-background="new 0 0 48 48" viewBox="0 0 48 48" xmlns="http://www.w3.org/2000/svg"><path d="m32.2 12h7.1c.6 0 1.1-.4 1.3-.8.2-.5.1-1.2-.4-1.6l-7-7.2c-.3-.4-1-.5-1.5-.4-.5.2-.8.7-.8 1.3v7.1c-.2 1 .5 1.6 1.3 1.6z"/><path d="m25.2 2.5v9.6c0 2.9 2.5 5.4 5.4 5.4h9.6v26.1c0 1-.9 1.9-1.9 1.9h-28.6c-1 0-1.9-.9-1.9-1.9v-39.2c0-1 .9-1.9 1.9-1.9zm1.1-2.5h-16.6c-2.4 0-4.4 2-4.4 4.4v39.1c0 2.4 2 4.4 4.4 4.4h28.6c2.4 0 4.4-2 4.4-4.4v-27.1c0-.8-.6-1.4-1.4-1.4h-10.7c-1.6 0-2.9-1.3-2.9-2.9v-10.7c0-.8-.6-1.4-1.4-1.4z"/><path d="m28.5 39.4c-1 0-1.8-.8-1.8-1.8v-.9l-5.9-4-.7.5c-.1.1-.3.2-.6.2-1 0-1.8-.8-1.8-1.8s.8-1.8 1.8-1.8c.3 0 .5.1.6.2l.7.5 5.9-4v-.9c0-1 .8-1.8 1.8-1.8s1.8.8 1.8 1.8-.8 1.8-1.8 1.8c-.3 0-.5-.1-.6-.2l-.7-.5-5.9 4v1.8l5.9 4 .7-.5c.1-.1.3-.2.6-.2 1 0 1.8.8 1.8 1.8s-.8 1.8-1.8 1.8z"/><path d="m28.5 25.1c.3 0 .5.2.5.5s-.2.5-.5.5l-.5-.3v-.2c0-.3.2-.5.5-.5m-9 6 .5.3v.2.2l-.5.3c-.3 0-.5-.2-.5-.5s.2-.5.5-.5m9 6c.3 0 .5.2.5.5s-.2.5-.5.5-.5-.2-.5-.5v-.2zm0-14.5c-1.7 0-3 1.3-3 3v.2l-4.7 3.2c-.4-.2-.8-.4-1.3-.4-1.7 0-3 1.3-3 3s1.3 3 3 3c.5 0 1-.1 1.3-.4l4.7 3.1v.2c0 1.7 1.3 3 3 3s3-1.3 3-3-1.3-3-3-3c-.5 0-1 .1-1.3.4l-4.7-3.1c0-.1 0-.1 0-.2s0-.1 0-.2l4.7-3.1c.4.2.8.4 1.3.4 1.7 0 3-1.3 3-3s-1.3-3.1-3-3.1z"/></svg>