<svg enable-background="new 0 0 48 48" viewBox="0 0 48 48" xmlns="http://www.w3.org/2000/svg"><path d="m32.2 12h7.1c.6 0 1.1-.4 1.3-.8.2-.5.1-1.2-.4-1.6l-7-7.2c-.3-.4-1-.5-1.5-.4-.5.2-.8.7-.8 1.3v7.1c-.2 1 .5 1.6 1.3 1.6z"/><path d="m25.2 2.5v9.6c0 2.9 2.5 5.4 5.4 5.4h9.6v26.1c0 1-.9 1.9-1.9 1.9h-28.6c-1 0-1.9-.9-1.9-1.9v-39.2c0-1 .9-1.9 1.9-1.9zm1.1-2.5h-16.6c-2.4 0-4.4 2-4.4 4.4v39.1c0 2.4 2 4.4 4.4 4.4h28.6c2.4 0 4.4-2 4.4-4.4v-27.1c0-.8-.6-1.4-1.4-1.4h-10.7c-1.6 0-2.9-1.3-2.9-2.9v-10.7c0-.8-.6-1.4-1.4-1.4z"/><path d="m26.3 29.4c-1.3 0-2.3 1-2.3 2.3s1.1 2.3 2.3 2.3 2.3-1 2.3-2.3-1-2.3-2.3-2.3z"/><path d="m31 25c0-.8-.7-1.6-1.6-1.6h-1.6c-.8 0-1.6.7-1.6 1.6h-4.6c0-.8-.7-1.6-1.6-1.6h-1.6c-.8 0-1.6.7-1.6 1.6-.8 0-1.6.7-1.6 1.6v9c0 .8.7 1.6 1.6 1.6h13.4c.8 0 1.6-.7 1.6-1.6h.5v-9c.2-.9-.5-1.6-1.3-1.6zm-11.4 3.1h-1.6v-1.6h1.6zm6.7 7.3c-2 0-3.7-1.7-3.7-3.7s1.7-3.7 3.7-3.7 3.7 1.7 3.7 3.7c0 2.1-1.6 3.7-3.7 3.7z"/></svg>