<svg enable-background="new 0 0 48 48" viewBox="0 0 48 48" xmlns="http://www.w3.org/2000/svg"><path d="m32.3 12h7.4c.6 0 1.1-.2 1.3-.7s.1-1.1-.4-1.6l-7.1-7.1c-.4-.4-1.2-.5-1.8-.4-.5.2-1.1.7-1.1 1.3v6.8c.1 1 .8 1.7 1.7 1.7z"/><path d="m25.3 2.5v9.8c0 3.2 3 5.1 5.7 5.1h9.2v26c0 1.2-1.1 2-2 2h-28.4c-1.2 0-2-1.1-2-2v-38.8c0-1.2 1.1-2 2-2h15.5m1-2.6h-16.5c-2.4 0-4.5 2-4.5 4.5v38.9c0 2.4 2 4.5 4.5 4.5h28.5c2.4 0 4.5-2 4.5-4.5v-26.7c-.1-.8-.8-1.7-1.6-1.7h-10.1c-1.6 0-3.2-1.1-3.2-2.6v-10.7c-.1-.8-.8-1.7-1.6-1.7z"/><path d="m32.9 34.9-2.4-2.4c-.6-.5-1.4-.5-1.9 0l-1.8-1.8c.7-1.1 1.1-2.4 1.1-3.7 0-3.7-3-6.7-6.7-6.7s-6.7 3-6.7 6.7 3 6.7 6.7 6.7c1.3 0 2.6-.4 3.7-1.1l1.7 1.7c-.5.6-.5 1.4 0 1.9l2.4 2.4c1 1.1 2.6 1.1 3.7 0 .9-.9.9-2.6.2-3.7zm-11.9-4c-2 0-3.7-1.7-3.7-3.7s1.7-3.7 3.7-3.7 3.7 1.7 3.7 3.7-1.6 3.7-3.7 3.7z"/></svg>