<svg enable-background="new 0 0 48 48" viewBox="0 0 48 48" xmlns="http://www.w3.org/2000/svg"><path d="m32.2 12h7.1c.6 0 1.1-.4 1.3-.8.2-.5.1-1.2-.4-1.6l-7-7.2c-.3-.4-1-.5-1.5-.4-.5.2-.8.7-.8 1.3v7.1c-.2 1 .5 1.6 1.3 1.6z"/><path d="m25.2 2.5v9.6c0 2.9 2.5 5.4 5.4 5.4h9.6v26.1c0 1-.9 1.9-1.9 1.9h-28.6c-1 0-1.9-.9-1.9-1.9v-39.2c0-1 .9-1.9 1.9-1.9zm1.1-2.5h-16.6c-2.4 0-4.4 2-4.4 4.4v39.1c0 2.4 2 4.4 4.4 4.4h28.6c2.4 0 4.4-2 4.4-4.4v-27.1c0-.8-.6-1.4-1.4-1.4h-10.7c-1.6 0-2.9-1.3-2.9-2.9v-10.7c0-.8-.6-1.4-1.4-1.4z"/><path d="m16.2 33.7v-8h11.1v4.1l4.5-3v6l-4.7-3.1v4z"/><path d="m26 26.9v.5l-.1-.1v4.7.5h-8.4v-5.6zm4.6 2.2v1.4l-.8-.5-.2-.2.4-.2zm2.5-4.7-4.6 3v-3h-13.6v10.6h13.4v-3l4.6 3h.1v-10.6z"/></svg>