<svg enable-background="new 0 0 48 48" viewBox="0 0 48 48" xmlns="http://www.w3.org/2000/svg"><path d="m32.2 12h7.1c.6 0 1.1-.4 1.3-.8.2-.5.1-1.2-.4-1.6l-7-7.2c-.3-.4-1-.5-1.5-.4-.5.2-.8.7-.8 1.3v7.1c-.2 1 .5 1.6 1.3 1.6z"/><path d="m25.6 27c-2 0-3.7 1.7-3.7 3.7s1.7 3.7 3.7 3.7 3.7-1.7 3.7-3.7-1.7-3.7-3.7-3.7zm0 6c-1.2 0-2.3-1-2.3-2.3s1-2.3 2.3-2.3 2.3 1 2.3 2.3c-.1 1.3-1.1 2.3-2.3 2.3z"/><path d="m17.3 25.6h1.6v1.6h-1.6z"/><path d="m41.3 15h-10.7c-1.6 0-2.9-1.3-2.9-2.9v-10.7c0-.8-.6-1.4-1.4-1.4h-16.6c-2.4 0-4.4 2-4.4 4.4v39.1c0 2.4 2 4.4 4.4 4.4h28.6c2.4 0 4.4-2 4.4-4.4v-27.1c0-.8-.6-1.4-1.4-1.4zm-9 19.6c0 .8-.7 1.6-1.6 1.6h-13.4c-.8 0-1.6-.7-1.6-1.6v-9c0-.8.7-1.6 1.6-1.6 0-.8.7-1.6 1.6-1.6h1.6c.8 0 1.6.7 1.6 1.6h4.6c0-.8.7-1.6 1.6-1.6h1.6c.8 0 1.6.7 1.6 1.6.8 0 1.6.7 1.6 1.6v9z"/></svg>