<svg enable-background="new 0 0 48 48" viewBox="0 0 48 48" xmlns="http://www.w3.org/2000/svg"><path d="m32.2 12h7.1c.6 0 1.1-.4 1.3-.8.2-.5.1-1.2-.4-1.6l-7-7.2c-.3-.4-1-.5-1.5-.4-.5.2-.8.7-.8 1.3v7.1c-.2 1 .6 1.6 1.3 1.6z"/><path d="m25.2 2.5v9.6c0 2.9 2.5 5.4 5.4 5.4h9.6v25.9c0 1.1-.9 2.1-1.9 2.1h-28.6c-1.2 0-2.1-1.1-2.1-2.1v-39c0-1 1-1.9 2.1-1.9zm1.1-2.5h-16.6c-2.4 0-4.5 2-4.5 4.4v39c0 2.4 2 4.6 4.6 4.6h28.6c2.4 0 4.4-2 4.4-4.6v-27c0-.8-.6-1.4-1.4-1.4h-10.8c-1.6 0-2.9-1.3-2.9-2.9v-10.7c0-.8-.6-1.4-1.4-1.4z"/><path d="m32.3 35.4h-16.6c-.8 0-1.6.7-1.6 1.6s.7 1.6 1.6 1.6h16.6c.8 0 1.6-.7 1.6-1.6s-.8-1.6-1.6-1.6z"/><path d="m32.3 29.4h-16.6c-.8 0-1.6.7-1.6 1.6s.7 1.6 1.6 1.6h16.6c.8 0 1.6-.7 1.6-1.6s-.8-1.6-1.6-1.6z"/><path d="m32.3 23.4h-16.6c-.8 0-1.6.7-1.6 1.6s.7 1.6 1.6 1.6h16.6c.8 0 1.6-.7 1.6-1.6s-.8-1.6-1.6-1.6z"/></svg>