<svg enable-background="new 0 0 48 48" viewBox="0 0 48 48" xmlns="http://www.w3.org/2000/svg"><path d="m32.3 11.8h6.9c.6 0 1.1-.4 1.3-.8.2-.5.1-1.1-.4-1.6l-6.8-6.9c-.4-.4-1-.5-1.6-.4-.5.2-.8.7-.8 1.3v6.9c0 .9.6 1.5 1.4 1.5z"/><path d="m25.2 2.5v9.4c0 3 2.5 5.6 5.5 5.6h9.6v26c0 1.1-.9 2-1.9 2h-28.8c-1.2 0-1.9-1.1-1.9-2v-39c0-1.1.8-1.9 1.9-1.9h15.6m-7 24.9h-.5-4.7l2.6 3.9 6 9 2.1 3.1 2.1-3.1 6-9 2.6-3.9h-4.7-.5v-5.2c0-2.1-1.7-3.8-3.8-3.8h-3.4c-2.1 0-3.8 1.7-3.8 3.8zm8.3-27.5h-16.9c-2.4 0-4.4 2-4.4 4.5v39c0 2.4 1.9 4.5 4.4 4.5h28.7c2.4 0 4.4-2 4.4-4.5v-27.3c-.1-.8-.7-1.2-1.6-1.2h-10.4c-1.6 0-3-1.4-3-3.1v-10.4c0-.7-.3-1.5-1.2-1.5zm-2.8 39-6-9h3v-7.7c0-.7.6-1.3 1.3-1.3h3.4c.7 0 1.3.6 1.3 1.3v7.7h3z"/></svg>