<svg enable-background="new 0 0 48 48" viewBox="0 0 48 48" xmlns="http://www.w3.org/2000/svg"><path d="m32.3 12h7.4c.6 0 1.1-.2 1.3-.7s.1-1.1-.4-1.6l-7.1-7.1c-.4-.4-1.2-.5-1.8-.4-.5.2-1.1.7-1.1 1.3v6.8c.1 1 .8 1.7 1.7 1.7z"/><path d="m25.3 2.5v9.7c0 3.1 3 5.3 5.7 5.3h9.3v26.3c0 1-1.1 1.7-2.1 1.7h-28.1c-1.2 0-2.3-.8-2.3-1.7v-39.1c0-1.2 1.3-2.2 2.3-2.2zm1.5-2.5h-16.7c-2.4 0-4.8 2.2-4.8 4.7v39.1c0 2.4 2.4 4.2 4.8 4.2h28.2c2.4 0 4.6-1.8 4.6-4.2v-27.2c-.2-.9-.9-1.6-1.6-1.6h-10.2c-1.6 0-3.2-1.2-3.2-2.8v-10.5c-.1-.9-.3-1.7-1.1-1.7z"/><path d="m31 24.2c-.6 0-1.1.2-1.5.6l-8.1 8.3-2.9-2.9c-.4-.4-1-.6-1.5-.6s-1.1.2-1.5.6-.7 1-.7 1.5c0 .6.3 1.1.7 1.5 4.5 4.7 4.1 4.3 4.5 4.5.3.3.8.4 1.2.4.6 0 1.1-.3 1.5-.7l9.6-9.8c.4-.4.7-1 .8-1.4 0-.6-.3-1.1-.7-1.5-.3-.3-.8-.5-1.4-.5z"/></svg>