<svg enable-background="new 0 0 48 48" viewBox="0 0 48 48" xmlns="http://www.w3.org/2000/svg"><path d="m33.2 2.4c-.4-.4-1.1-.5-1.6-.4-.5.2-.8.7-.8 1.3v7.1c0 .8.6 1.4 1.4 1.4h7.1c.6 0 1.1-.4 1.3-.8.2-.5.1-1.2-.4-1.6z"/><path d="m25.3 2.5v9.8c0 3.2 3 5.1 5.7 5.1h9.2v26c0 1.3-1 2-2 2h-28.4c-1.2 0-2-1.1-2-2v-38.8c0-1.2 1.1-2 2-2h15.5m1-2.6h-16.5c-2.4 0-4.5 2-4.5 4.5v38.9c0 2.4 2 4.5 4.5 4.5h28.5c2.4 0 4.5-1.8 4.5-4.5v-27.1c-.1-.4-.8-1.3-1.6-1.3h-10.1c-1.6 0-3.2-1.1-3.2-2.6v-10.8c-.1-.8-.8-1.6-1.6-1.6z"/><path d="m24.8 36.1-1.4 1.6c-1.3 1.4-3.8 1.4-5.6-.1-1.7-1.6-2-4.1-.7-5.6l1.4-1.6c1-1.1 2.6-1.3 4.1-.8l-2.3 2.5s0 0-.1.1l-1.3 1.4c-.6.7-.6 1.7.1 2.4.8.7 1.8.6 2.4 0l1.3-1.4s0 0 .1-.1l2.3-2.5c.8 1.4.7 2.9-.3 4.1z"/><path d="m25.4 27.1c.5-.5 1.2-.6 1.8-.1l.1.1c.5.5.6 1.2.1 1.8l-4.8 5.1c-.5.5-1.2.6-1.8.1l-.1-.1c-.5-.5-.5-1.2-.1-1.8z"/><path d="m30.9 29.3-1.4 1.7c-1 1.1-2.6 1.3-4.1.7l2.4-2.5 1.2-1.3c.6-.7.6-1.7-.1-2.4-.8-.7-1.8-.6-2.5 0l-1.4 1.4-2.3 2.5c-.7-1.4-.6-3.1.4-4.2l1.4-1.6c1.3-1.4 4-1.4 5.6.1 1.9 1.6 2.2 4.2.8 5.6z"/></svg>