<svg enable-background="new 0 0 48 48" viewBox="0 0 48 48" xmlns="http://www.w3.org/2000/svg"><path d="m32.3 12h7.4c.6 0 1.1-.2 1.3-.7s.1-1.1-.4-1.6l-7.1-7.1c-.4-.4-1.2-.5-1.8-.4-.5.2-1.1.7-1.1 1.3v6.8c.1 1 .8 1.7 1.7 1.7z"/><path d="m41.3 15h-10.2c-1.6 0-3.2-1.2-3.2-2.8v-10.5c0-.8-.2-1.7-1.1-1.7h-16.7c-2.4 0-4.8 2.2-4.8 4.7v39.1c0 2.4 2.4 4.2 4.8 4.2h28.2c2.4 0 4.6-1.8 4.6-4.2v-27.2c-.2-.9-.9-1.6-1.6-1.6zm-9.8 13.1-8.4 8.5c-.4.4-.8.6-1.3.6-.4 0-.8-.1-1.1-.4-.4-.2 0 .1-4-4-.4-.4-.6-.8-.6-1.3s.2-1 .6-1.3c.7-.7 1.9-.7 2.6 0l2.5 2.5 7.1-7.2c.7-.7 1.9-.7 2.6 0 .4.4.6.8.6 1.3 0 .4-.2.9-.6 1.3z"/></svg>