<svg enable-background="new 0 0 48 48" viewBox="0 0 48 48" xmlns="http://www.w3.org/2000/svg"><path d="m32.1 12h7.1c.6 0 1.1-.2 1.3-.7s.1-1.1-.4-1.6l-7.1-7.1c-.4-.4-1.1-.5-1.6-.4-.5.2-.8.7-.8 1.3v7.2c.1 1 .8 1.3 1.5 1.3z"/><path d="m25.2 2.6v9.7c0 2.9 2.3 5.3 5.3 5.3h9.7v26c0 1.1-.9 2-1.9 2h-28.5c-1 0-1.9-1-1.9-2v-38.9c0-1.1.9-2.2 1.9-2.2h15.4m1-2.4h-16.4c-2.4 0-4.4 2.2-4.4 4.7v38.8c0 2.4 2 4.5 4.4 4.5h28.5c2.4 0 4.4-2 4.4-4.5v-27c0-.8-.6-1.6-1.4-1.6h-10.8c-1.6 0-2.8-1.2-2.8-2.8v-10.5c0-.8-.7-1.6-1.5-1.6z"/><path d="m30 22.8h-12c-.8 0-1.6.7-1.6 1.6v4.5c1 0 1.7-.6 1.9-1.4l.4-1.6h4v12h-1.6c-.8 0-1.6.7-1.6 1.6h9c0-.8-.7-1.6-1.6-1.6h-1.6v-12h3.7l.4 1.6c.2.8 1.1 1.4 1.9 1.4h.1v-4.5c.1-.9-.6-1.6-1.4-1.6z"/></svg>