<svg enable-background="new 0 0 48 48" viewBox="0 0 48 48" xmlns="http://www.w3.org/2000/svg"><path d="m32.2 12h7.1c.6 0 1.1-.4 1.3-.8.2-.5.1-1.2-.4-1.6l-7-7.2c-.3-.4-1-.5-1.5-.4-.5.2-.8.7-.8 1.3v7.1c-.2 1 .5 1.6 1.3 1.6z"/><path d="m25.2 2.5v9.6c0 2.9 2.5 5.4 5.4 5.4h9.7v25.9c0 1.2-1.1 2.1-2.1 2.1h-28.5c-1.2 0-2.1-1.1-2.1-2.1v-39c0-1 1-1.9 2.1-1.9zm1.1-2.5h-16.6c-2.4 0-4.5 2-4.5 4.4v39c0 2.4 2 4.6 4.6 4.6h28.6c2.4 0 4.6-2 4.6-4.6v-27c-.1-.8-.7-1.4-1.6-1.4h-10.8c-1.6 0-2.9-1.3-2.9-2.9v-10.7c0-.8-.6-1.4-1.4-1.4z"/><path d="m22.7 21.4c-1.4 0-2.4.8-2.6 1l-3.1 2.1c-1.2.8-1.9 1.8-2 3-.1 1.7.8 2.9 1 3.1l5.5 7.8c.1.2.3.3.6.3.2 0 .4-.1.5-.2.4-.2.5-.7.2-1.1l-5.6-7.8s-.7-1-.6-1.9c.1-.6.5-1.2 1.3-1.8l3.1-2.3s.8-.6 1.7-.6h.2c.7.1 1.3.5 1.9 1.3l5.8 7.9s1.2 1.6 1 3.1c-.2.7-.6 1.2-1.2 1.7-.6.4-1.1.6-1.6.6-1.2 0-2.2-1.1-3.1-2.3-.8-1.2-3.5-4.7-3.6-4.8 0 0-1.7-2.2-.6-3 .2-.1.3-.2.5-.2.6 0 1.3.6 2.3 1.8l3.4 4.7c.1.2.3.3.6.3.2 0 .4-.1.5-.2.4-.2.5-.7.2-1.1l-3.4-4.7c-.7-1-1.8-2.6-3.3-2.6-.5 0-1.1.2-1.7.6-.6.5-1.1 1.1-1.1 1.8-.1 1.4 1.1 3.1 1.3 3.4.2.4 2.6 3.7 3.5 4.9 1.4 1.9 2.9 2.9 4.4 2.9.9 0 1.8-.3 2.6-1 1-.6 1.6-1.6 1.7-2.6.2-2.3-1.2-4.3-1.1-4.3l-5.8-7.9c-.8-1.2-1.8-1.9-3-2-.1.1-.3.1-.4.1z"/></svg>