<svg enable-background="new 0 0 48 48" viewBox="0 0 48 48" xmlns="http://www.w3.org/2000/svg"><path d="m32.2 12h7.1c.6 0 1.1-.4 1.3-.8.2-.5.1-1.2-.4-1.6l-7.1-7.1c-.3-.3-1.1-.5-1.5-.3-.5.2-.8.7-.8 1.3v7.1c-.1.8.5 1.4 1.4 1.4z"/><path d="m25.3 2.5v9.6c0 3 2.3 5.4 5.3 5.4h9.6v25.9c0 1.1-.9 2.1-1.9 2.1h-28.6c-1.1 0-1.9-.9-1.9-2.1v-39c0-1.1.9-1.9 1.9-1.9zm1-2.5h-16.6c-2.5 0-4.4 2-4.4 4.4v39c0 2.6 1.9 4.6 4.4 4.6h28.6c2.4 0 4.4-2 4.4-4.6v-26.8c0-.8-.6-1.6-1.4-1.6h-10.7c-1.6 0-2.8-1.2-2.8-2.9v-10.7c0-.8-.7-1.4-1.5-1.4z"/><path d="m33.7 21.9h-19.5l1.5 10.5h12l-.3 4-4.1 1.4-3-.9-.3-1.3h-3.2l.8 3.8 5.9 1.8 6.7-2 2.1-9.6h-13.6l.3-4.6h13.3z"/></svg>