<svg enable-background="new 0 0 48 48" viewBox="0 0 48 48" xmlns="http://www.w3.org/2000/svg"><path d="m32.2 12h7.1c.6 0 1.1-.2 1.3-.7s.1-1.1-.4-1.6l-7.1-7.1c-.4-.4-1.1-.5-1.6-.4-.5.2-.8.7-.8 1.3v7.2c0 .9.7 1.3 1.5 1.3z"/><path d="m41.3 15h-10.7c-1.6 0-2.9-1.1-2.9-2.6v-10.7c0-.8-.6-1.7-1.4-1.7h-16.6c-2.4 0-4.4 2.2-4.4 4.7v39.1c0 2.4 2 4.2 4.4 4.2h28.6c2.4 0 4.4-1.8 4.4-4.2v-27.1c0-.9-.6-1.7-1.4-1.7zm-21.9 19c.6.6.6 1.6 0 2-.2.2-.7.5-1.1.5s-.7-.1-1.1-.5l-4.7-4.7c-.6-.6-.6-1.6 0-2l4.7-4.7c.6-.6 1.6-.6 2 0 .6.6.6 1.6 0 2l-3.7 3.7zm9.3-10.4-5.8 14.4c-.2.6-.8 1-1.3 1-.2 0-.4 0-.6-.1-.7-.4-1.1-1.2-.8-1.9l5.8-14.4c.4-.7 1.2-1.1 1.9-.8.8.3 1.1 1.1.8 1.8zm7.5 7.7-4.6 4.7c-.2.2-.7.5-1.1.5s-.7-.1-1.1-.5c-.6-.6-.6-1.6 0-2l3.7-3.7-3.7-3.7c-.6-.6-.6-1.6 0-2 .6-.6 1.6-.6 2 0l4.7 4.7c.6.6.6 1.5.1 2z"/></svg>