<svg enable-background="new 0 0 48 48" viewBox="0 0 48 48" xmlns="http://www.w3.org/2000/svg"><path d="m32.2 12h7.1c.6 0 1.1-.2 1.3-.7s.1-1.1-.4-1.6l-7.1-7.1c-.4-.4-1.1-.5-1.6-.4-.5.2-.8.7-.8 1.3v7.2c0 .9.7 1.3 1.5 1.3z"/><path d="m41.3 15h-10.7c-1.6 0-2.9-1.1-2.9-2.6v-10.7c0-.8-.6-1.7-1.4-1.7h-16.6c-2.4 0-4.4 2.2-4.4 4.7v39.1c0 2.4 2 4.2 4.4 4.2h28.6c2.4 0 4.4-1.8 4.4-4.2v-27.1c0-.9-.6-1.7-1.4-1.7zm-22.6 7.6c1.6 0 2.9 1.3 2.9 2.9s-1.3 2.9-2.9 2.9-2.9-1.3-2.9-2.9 1.4-2.9 2.9-2.9zm16 14.6c-.1.2-.2.2-.5.2h-18.8c-.2 0-.5-.1-.5-.4-.1-.2-.1-.5.1-.6l4.4-5.5c.2-.2.5-.4.8-.4s.6.1.8.4l1.1 1.4c.1.2.4.4.7.2.2 0 .5-.1.6-.4l3.5-5.6c.1-.2.5-.5.7-.5.4 0 .6.1.7.5l6.1 9.8c.4.5.4.7.3.9z"/></svg>