<svg enable-background="new 0 0 48 48" viewBox="0 0 48 48" xmlns="http://www.w3.org/2000/svg"><path d="m32.4 12h7.4c.6 0 1.2-.2 1.3-.8.2-.6.1-1.1-.4-1.6l-7.4-7.3c-.5-.5-1.1-.6-1.7-.4s-1 .7-1 1.3v7.5c.2.8.9 1.3 1.8 1.3z"/><path d="m41.2 15h-10.5c-1.7 0-3-1.3-3-3v-10.3c0-.8-.7-1.7-1.4-1.7h-16.6c-2.5.1-4.4 2.3-4.4 5v38.5c0 2.5 1.9 4.5 4.5 4.5h28.5c2.5 0 4.5-1.9 4.5-4.5v-26.8c-.1-.8-.7-1.7-1.6-1.7zm-6 14.9c0 .8-.7 1.6-1.6 1.6h-1.8c-.1.6-.5 1.2-.7 1.8l1.2 1.2c.6.6.6 1.6 0 2.2l-1 1c-.6.6-1.6.6-2.2 0l-1.2-1.2c-.6.4-1.2.6-1.8.7v1.8c0 .8-.7 1.6-1.6 1.6h-1.3c-.8 0-1.6-.7-1.6-1.6v-1.7c-.6-.1-1.2-.5-1.8-.7l-1.2 1.2c-.6.6-1.6.6-2.2 0l-1.1-1c-.6-.6-.6-1.6 0-2.2l1.2-1.2c-.4-.6-.6-1.2-.7-1.8h-1.8c-.8 0-1.6-.7-1.6-1.6v-1.3c0-.8.7-1.6 1.6-1.6h1.8c.1-.6.5-1.2.7-1.8l-1.2-1.2c-.6-.6-.6-1.6 0-2.2l1-1c.6-.6 1.6-.6 2.2 0l1.2 1.2c.6-.4 1.2-.6 1.8-.7v-1.8c0-.8.7-1.6 1.6-1.6h1.3c.8 0 1.6.7 1.6 1.6v1.8c.6.1 1.2.5 1.8.7l1.2-1.2c.6-.6 1.6-.6 2.2 0l1 1c.6.6.6 1.6 0 2.2l-1.2 1.2c.4.6.6 1.2.7 1.8h1.8c.8 0 1.6.7 1.6 1.6v1.2z"/><path d="m24 24c-2.9 0-5.3 2.4-5.3 5.3s2.4 5.3 5.3 5.3 5.3-2.4 5.3-5.3-2.4-5.3-5.3-5.3z"/></svg>