<svg enable-background="new 0 0 48 48" viewBox="0 0 48 48" xmlns="http://www.w3.org/2000/svg"><path d="m27 12.8v-12.8h-18.7c-1.3 0-2.3 1-2.3 2.3v43.5c0 1.2 1 2.2 2.3 2.2h31.5c1.2 0 2.3-1 2.3-2.3v-30.7h-12.8c-1.3 0-2.3-1-2.3-2.2zm7.5 25.6v1.8c0 1-.9 1.8-2.1 1.8h-16.8c-1.2 0-2.1-.8-2.1-1.8v-1.8c0-3 2.8-5.4 6.3-5.4h.5c1.2.5 2.4.8 3.7.8s2.6-.3 3.7-.8h.5c3.5 0 6.3 2.4 6.3 5.4zm-10.5-8.4c-3.3 0-6-2.7-6-6s2.7-6 6-6 6 2.7 6 6-2.7 6-6 6zm17.3-20.2-9.2-9.2c-.4-.4-1-.7-1.6-.7h-.5v12h12v-.6c0-.5-.2-1-.7-1.5z"/></svg>