<svg enable-background="new 0 0 48 48" viewBox="0 0 48 48" xmlns="http://www.w3.org/2000/svg"><path d="m26.9 12h7.1c.6 0 1.1-.4 1.3-.8s.1-1.2-.4-1.6l-7-7.2c-.3-.4-1-.5-1.5-.4-.5.2-.8.7-.8 1.3v7.1c0 1 .6 1.6 1.3 1.6z"/><path d="m43.6 24h-6v-7.6c0-.8-.6-1.4-1.4-1.4h-10.8c-1.6 0-2.9-1.3-2.9-2.9v-10.7c.1-.8-.5-1.4-1.4-1.4h-16.7c-2.4 0-4.4 2-4.4 4.4v39.1c0 2.5 2 4.5 4.4 4.5h28.6c1.9 0 3.6-1.2 4.2-3h6.2c2.4 0 4.6-2 4.6-4.6v-12.1c0-2.4-2-4.3-4.4-4.3zm1.4 16.6c0 .8-.7 1.4-1.6 1.4h-6-24v-15h24 6c.8 0 1.6.6 1.6 1.4z"/><path d="m32.3 31.6h3c.4 0 .7.4.7.7h1.6c0-1.2-1-2.3-2.3-2.3h-3c-1.2 0-2.3 1-2.3 2.3s1 2.3 2.3 2.3h3c.4 0 .7.4.7.7v1.6c0 .4-.4.7-.7.7h-3c-.4 0-.7-.4-.7-.7h-1.6c0 1.2 1 2.3 2.3 2.3h3c1.2 0 2.3-1 2.3-2.3v-1.6c0-1.2-1-2.3-2.3-2.3h-3c-.4 0-.7-.4-.7-.7 0-.4.2-.7.7-.7z"/><path d="m21 30-1.4 3-1.6-3h-1.4l2.1 4.6-2.1 4.4h1.4l1.6-3 1.4 3h1.6l-2.3-4.4 2.3-4.6z"/><path d="m25.6 30h-1.6v9h4.6v-1.4h-3z"/></svg>