<svg enable-background="new 0 0 48 48" viewBox="0 0 48 48" xmlns="http://www.w3.org/2000/svg"><path d="m32.3 12h7.1c.6 0 1.1-.4 1.3-.8s.1-1.2-.4-1.6l-7.1-7.2c-.4-.4-1-.5-1.6-.4-.5.4-.8.8-.8 1.4v7.1c.1.8.7 1.5 1.5 1.5z"/><path d="m41.3 15h-10.7c-1.6 0-2.9-1.3-2.9-2.9v-10.7c0-.8-.6-1.4-1.3-1.4h-16.7c-2.4 0-4.5 2-4.5 4.4v39.1c0 2.4 2 4.4 4.6 4.4h28.6c2.4 0 4.4-2 4.4-4.4v-27.1c-.1-.8-.7-1.4-1.5-1.4zm-9 9-7.3 4.6h7.3l-1.6 10.6-7 1.4-6.5-2.2-1.5-5.4h4.6v2.9l3.1.8 4.7-1.2.5-4.1h-11.3v-3l6.5-4.6h-7.9v-3h16.6v3.2z"/></svg>