<svg enable-background="new 0 0 48 48" viewBox="0 0 48 48" xmlns="http://www.w3.org/2000/svg"><path d="m32.3 12h7.4c.6 0 1.1-.2 1.3-.7s.1-1.1-.4-1.6l-7.1-7.1c-.4-.4-1.2-.5-1.8-.4-.5.2-1.1.7-1.1 1.3v6.8c.1 1 .9 1.7 1.7 1.7z"/><path d="m25.4 2.5v9.9c0 3.2 3 5.1 5.7 5.1h9.1v25.9c0 1.2-1.1 2.1-2.1 2.1h-28.1c-1.2 0-2.3-.8-2.3-1.7v-39.1c0-1.1 1-2.2 2.1-2.2zm.9-2.5h-16.6c-2.4 0-4.5 2.2-4.5 4.7v39.1c0 2.4 2.4 4.2 4.8 4.2h28.2c2.4 0 4.6-2 4.6-4.6v-26.7c0-.8-.7-1.7-1.4-1.7h-10.3c-1.6 0-3.2-1.1-3.2-2.6v-10.7c0-.9-.8-1.7-1.6-1.7z"/><path d="m29.2 23.7c-.4 0-.9.2-1.3.5l-4 4-4-4c-.4-.4-.8-.5-1.3-.5s-.9.2-1.3.5c0 .3-.3.8-.3 1.2 0 .5.1.8.5 1.2l4 4-4 4c-.7.7-.7 1.8 0 2.5.4.4.8.5 1.3.5.4 0 .9-.2 1.3-.5l4-4 4 4c.2.2.7.5 1.2.5.4 0 .8-.1 1.2-.5.6-.7.6-1.8.1-2.4l-4-4 4-4c.7-.7.7-1.8 0-2.5-.5-.3-.9-.5-1.4-.5z"/></svg>