<svg enable-background="new 0 0 48 48" viewBox="0 0 48 48" xmlns="http://www.w3.org/2000/svg"><path d="m12.1 7.5h-9.2c-1.6 0-2.9 1.4-2.9 2.9v33.2c0 1.6 1.3 2.9 2.9 2.9h9.2c1.6 0 2.9-1.3 2.9-2.9v-33.3c0-1.5-1.3-2.8-2.9-2.8zm-9.1 4c0-.6.5-1 1-1h7c.6 0 1 .5 1 1v4c0 .6-.5 1-1 1h-7c-.6 0-1-.5-1-1zm6.5 30.8c-.6.2-1.3.4-2 .4-2 0-4-1.2-4.8-3.1-1.1-2.6.1-5.6 2.8-6.8.6-.2 1.3-.5 2-.5 2 0 4 1.2 4.8 3.1 1 2.7-.2 5.7-2.8 6.9z"/><path d="m7.4 35.3c-.4 0-.6.1-.8.2-1.2.5-1.7 1.8-1.2 3 .5 1.1 1.8 1.7 3 1.2s1.7-1.8 1.2-3c-.5-.9-1.3-1.4-2.2-1.4z"/><path d="m28.7 9h-9.2c-1.6 0-2.9 1.3-2.9 2.9v31.8c0 1.6 1.3 2.9 2.9 2.9h9.2c1.6 0 2.9-1.3 2.9-2.9v-31.8c0-1.6-1.4-2.9-2.9-2.9zm-9.1 3.9c0-.6.5-1 1.1-1h7c.6 0 1 .5 1 1v13c0 .6-.5 1-1.1 1h-7c-.6 0-1.1-.5-1.1-1v-13zm6.3 29.4c-.6.2-1.3.4-2 .4-2 0-4-1.2-4.8-3.1-1.1-2.6.1-5.6 2.8-6.8.6-.2 1.3-.5 2-.5 2 0 4 1.2 4.8 3.1 1.1 2.7-.1 5.7-2.8 6.9z"/><path d="m23.9 35.3c-.4 0-.6.1-.8.2-1.2.5-1.7 1.8-1.2 3 .5 1.1 1.8 1.7 3 1.2s1.7-1.8 1.2-3c-.4-.9-1.3-1.4-2.2-1.4z"/><path d="m45.1 1.5h-9.2c-1.6 0-2.9 1.3-2.9 2.9v39.2c0 1.6 1.3 2.9 2.9 2.9h9.2c1.6 0 2.9-1.3 2.9-2.9v-39.3c0-1.5-1.3-2.8-2.9-2.8zm-9.1 4c0-.6.5-1 1-1h7c.6 0 1 .5 1 1v4c0 .6-.5 1-1 1h-7c-.6 0-1-.5-1-1zm0 9c0-.6.5-1 1-1h7c.6 0 1 .5 1 1v4c0 .6-.5 1-1 1h-7c-.6 0-1-.5-1-1zm6.5 27.8c-.6.2-1.3.4-2 .4-2 0-4-1.2-4.8-3.1-1.1-2.6.1-5.6 2.8-6.8.6-.2 1.3-.5 2-.5 2 0 4 1.2 4.8 3.1 1 2.7-.2 5.7-2.8 6.9z"/><path d="m40.4 35.3c-.4 0-.6.1-.8.2-1.2.5-1.7 1.8-1.2 3 .5 1.1 1.8 1.7 3 1.2s1.7-1.8 1.2-3c-.5-.9-1.3-1.4-2.2-1.4z"/></svg>