<svg enable-background="new 0 0 48 48" viewBox="0 0 48 48" xmlns="http://www.w3.org/2000/svg"><path d="m32.6 12h7.1c.6 0 1.1-.2 1.3-.7s.1-1.1-.4-1.6l-7.1-7.1c-.4-.4-1.2-.5-1.8-.4-.5.2-1.1.7-1.1 1.3v7.2c.1.9 1.2 1.3 2 1.3z"/><path d="m41.8 15h-10.7c-1.6 0-3.2-1.1-3.2-2.6v-10.7c0-.8-.2-1.7-1.1-1.7h-16.7c-2.4 0-4.8 2.2-4.8 4.7v39.1c0 2.4 2.4 4.2 4.8 4.2h28.6c2.4 0 4.1-1.8 4.1-4.2v-27.1c-.1-.9-.3-1.7-1-1.7zm-21.9 8.2c3-2 6.7-1.9 9.6 0l.8-1.3c.4-.5.7-.5 1 .1l2.3 5.2c.2.5 0 1-.6 1h-5.6c-.6 0-.8-.4-.5-.8l.8-1.3c-2-1.3-4.7-1.2-6.1-.2-1.6 1.1-2.3 2.8-2.4 4.4h-3c0-2.9 1.3-5.6 3.7-7.1zm9.5 14.1c-3 2-6.7 1.9-9.6 0l-.8 1.3c-.4.5-.7.5-1-.1l-2.3-5.2c-.2-.5 0-1 .6-1h5.7c.6 0 .8.4.5.8l-.8 1.4c2 1.3 4.7 1.2 6.1.2 1.7-1.1 2.5-3 2.4-4.9h3c0 3-1.3 5.8-3.8 7.5z"/></svg>