<svg enable-background="new 0 0 48 48" viewBox="0 0 48 48" xmlns="http://www.w3.org/2000/svg"><path d="m32.2 12h7.1c.6 0 1.1-.2 1.3-.7s.1-1.1-.4-1.6l-7.1-7.1c-.4-.4-1.1-.5-1.6-.4-.5.2-.8.7-.8 1.3v7.2c0 .9.7 1.3 1.5 1.3z"/><path d="m25.2 2.5v9.9c0 2.9 2.4 5.1 5.4 5.1h9.6v26.3c0 1.1-1 1.7-1.9 1.7h-28.6c-1 0-1.9-.6-1.9-1.7v-39.1c0-1.1.9-2.2 1.9-2.2zm1.1-2.5h-16.6c-2.4 0-4.4 2.2-4.4 4.7v39.1c0 2.4 2 4.2 4.4 4.2h28.6c2.4 0 4.4-1.8 4.4-4.2v-27.1c0-.8-.6-1.7-1.4-1.7h-10.7c-1.6 0-2.9-1.1-2.9-2.6v-10.7c0-.9-.6-1.7-1.4-1.7z"/><path d="m18 25.2c-.4 0-.8.1-1.1.5l-4.7 4.7c-.6.5-.6 1.4 0 2l4.7 4.7c.4.4.7.5 1.1.5s.8-.2 1.1-.5c.6-.5.6-1.4 0-2l-3.8-3.6 3.7-3.7c.6-.5.6-1.4 0-2-.3-.5-.6-.6-1-.6z"/><path d="m27 22.6c-.6 0-1.2.3-1.5.9l-5.7 14.5c-.2.7.1 1.6.8 1.9.3.1.4.1.6.1.5 0 1.1-.4 1.3-1l5.8-14.4c.4-.7 0-1.6-.8-1.9-.2 0-.3-.1-.5-.1z"/><path d="m30.1 25c-.4 0-.8.1-1.1.4-.6.5-.6 1.4 0 2l3.7 3.7-3.7 3.9c-.6.5-.6 1.4 0 2 .4.4.7.5 1.1.5s.8-.2 1.1-.5l4.7-4.7c.5-.5.5-1.4-.1-2.2l-4.7-4.7c-.3-.2-.6-.4-1-.4z"/></svg>