<svg enable-background="new 0 0 48 48" viewBox="0 0 48 48" xmlns="http://www.w3.org/2000/svg"><path d="m12.1 10.1c.2 0 .4.1.4.3v33.4c0 .2-.2.4-.4.4h-9.2c-.2 0-.4-.2-.4-.4v-33.4c0-.2.2-.4.4-.4h9.2m0-2.4h-9.2c-1.6 0-2.9 1.3-2.9 2.8v33.2c0 1.6 1.3 2.9 2.9 2.9h9.2c1.6 0 2.9-1.3 2.9-2.9v-33.3c0-1.5-1.3-2.7-2.9-2.7z"/><path d="m28.7 11.5c.2 0 .4.2.4.4v31.8c0 .2-.2.4-.4.4h-9.2c-.2 0-.4-.2-.4-.4v-31.8c0-.2.2-.4.4-.4zm0-2.5h-9.2c-1.6 0-2.9 1.3-2.9 2.9v31.8c0 1.6 1.3 2.9 2.9 2.9h9.2c1.6 0 2.9-1.3 2.9-2.9v-31.8c0-1.6-1.4-2.9-2.9-2.9z"/><path d="m45.1 4.1c.2 0 .4.1.4.3v39.4c0 .2-.2.4-.4.4h-9.2c-.2 0-.4-.2-.4-.4v-39.4c0-.2.2-.4.4-.4h9.2m0-2.4h-9.2c-1.6 0-2.9 1.3-2.9 2.9v39.2c0 1.6 1.3 2.9 2.9 2.9h9.2c1.6 0 2.9-1.3 2.9-2.9v-39.4c0-1.5-1.3-2.7-2.9-2.7z"/><path d="m4.1 12.4c0-.5.4-.7.7-.7h5.4c.5 0 .7.4.7.7v3c0 .5-.4.7-.7.7h-5.4c-.5 0-.7-.4-.7-.7z"/><path d="m8.7 41.2c-.3.1-.8.2-1.2.2-1.2 0-2.3-.7-2.8-1.8-.6-1.5.1-3.3 1.6-3.9.3-.1.8-.3 1.2-.3 1.2 0 2.3.7 2.8 1.8.6 1.6-.1 3.3-1.6 4z"/><path d="m21.4 14c0-.3.3-.6.6-.6h4c.3 0 .6.3.6.6v7.5c0 .3-.3.6-.6.6h-4c-.3 0-.6-.3-.6-.6z"/><path d="m25.1 42c-.3.1-.8.2-1.2.2-1.2 0-2.3-.7-2.8-1.8-.6-1.5.1-3.3 1.6-3.9.3-.1.8-.3 1.2-.3 1.2 0 2.3.7 2.8 1.8.6 1.6-.1 3.3-1.6 4z"/><path d="m37.9 6.2c0-.3.3-.6.6-.6h4c.3 0 .6.3.6.6v2.3c-.1.3-.4.5-.7.5h-4c-.3 0-.6-.3-.6-.6v-2.2z"/><path d="m37.9 11.4c0-.3.3-.6.6-.6h4c.3 0 .6.3.6.6v2.3c0 .3-.3.6-.6.6h-4c-.3 0-.6-.3-.6-.6z"/><path d="m41.6 42.4c-.3.1-.8.2-1.2.2-1.2 0-2.3-.7-2.8-1.8-.6-1.5.1-3.3 1.6-3.9.3-.1.8-.3 1.2-.3 1.2 0 2.3.7 2.8 1.8.6 1.6-.1 3.3-1.6 4z"/></svg>