<svg enable-background="new 0 0 48 48" viewBox="0 0 48 48" xmlns="http://www.w3.org/2000/svg"><path d="m32.3 12h7.1c.6 0 1.1-.4 1.3-.8s.1-1.2-.4-1.6l-7.1-7.2c-.4-.4-1-.5-1.6-.4-.5.4-.8.8-.8 1.4v7.1c.1.8.7 1.5 1.5 1.5z"/><path d="m25.2 2.5v9.6c0 2.9 2.5 5.4 5.4 5.4h9.6v26.1c0 1-.9 1.9-1.9 1.9h-28.6c-1.1 0-2.1-.9-2.1-1.9v-39.2c0-1 1-1.9 2.1-1.9zm1.2-2.5h-16.7c-2.4 0-4.5 2-4.5 4.4v39.1c0 2.4 2 4.4 4.6 4.4h28.6c2.4 0 4.4-2 4.4-4.4v-27.1c0-.8-.6-1.4-1.4-1.4h-10.8c-1.6 0-2.9-1.3-2.9-2.9v-10.7c0-.8-.6-1.4-1.3-1.4z"/><path d="m32.3 20.9h-16.5v3h7.9l-6.5 4.5v3h11.3l-.5 4.1-4.7 1.2-3.1-.8v-2.9h-4.5l1.5 5.4 6.5 2.2 7-1.5 1.5-10.5h-7.3l7.3-4.6h.1z"/></svg>