<svg enable-background="new 0 0 48 48" viewBox="0 0 48 48" xmlns="http://www.w3.org/2000/svg"><path d="m38 34.7c-.4 0-.6.1-1 .2-1.2.5-1.8 1.9-1.3 3.2.5 1.2 1.9 1.8 3.2 1.3 1.2-.5 1.8-1.9 1.3-3.2-.4-.9-1.2-1.5-2.2-1.5z"/><path d="m47.8 39.8-16.4-37.9c-.7-1.6-2.4-2.3-4-1.6l-9 3.8c-1.6.7-2.3 2.4-1.6 4l16.2 37.9c.7 1.6 2.4 2.3 4 1.6l9-3.8c1.8-.6 2.4-2.4 1.8-4zm-25.7-27.8c-.2-.1-.5-.4-.6-.6l-1.3-3.2c-.2-.6 0-1.2.6-1.4l7.3-3.1c.6-.2 1.2 0 1.4.6l1.3 3.2c.2.2.2.5 0 .8-.1.2-.4.5-.6.6l-7.3 3.1c-.3.1-.6.1-.8 0zm3.9 9.4c-.2-.1-.5-.4-.6-.6l-1.3-3.2c-.2-.6 0-1.2.6-1.4l7.3-3.2c.6-.2 1.2 0 1.4.6l1.3 3.2c.1.2.1.6 0 .8s-.4.5-.6.6l-7.3 3.1c-.2.2-.5.2-.8.1zm14.2 20.8c-.7.2-1.4.5-2.2.5-2.3 0-4.2-1.3-5-3.4-1.2-2.8.1-6.1 2.9-7.3.7-.2 1.4-.5 2.2-.5 2.3 0 4.2 1.3 5 3.4 1.2 2.9-.1 6.1-2.9 7.3z"/><circle cx="8" cy="38.4" r="3.2"/><path d="m12.8 6.3h-9.6c-1.8 0-3.2 1.5-3.2 3.3v35.2c0 1.8 1.4 3.2 3.2 3.2h9.6c1.8 0 3.2-1.4 3.2-3.2v-35.2c0-1.8-1.5-3.3-3.2-3.3zm-9.6 6.4c0-.8.7-1.6 1.6-1.6h6.4c.8 0 1.6.7 1.6 1.6v1.7c0 .8-.7 1.6-1.6 1.6h-6.4c-.8 0-1.6-.7-1.6-1.6zm4.8 32.1c-3.5 0-6.4-2.9-6.4-6.4s3-6.4 6.4-6.4 6.4 2.8 6.4 6.4-2.9 6.4-6.4 6.4z"/></svg>