<svg enable-background="new 0 0 48 48" viewBox="0 0 48 48" xmlns="http://www.w3.org/2000/svg"><path d="m38 34.7c-.4 0-.6.1-1 .2-1.2.5-1.8 1.9-1.3 3.2.5 1.2 1.9 1.8 3.2 1.3 1.2-.5 1.8-1.9 1.3-3.2-.4-.9-1.2-1.5-2.2-1.5z"/><path d="m28.7 2.6c.2 0 .3.1.4.4l16.3 37.8c.1.2.1.4 0 .5 0 .1-.1.1-.2.2h-.1-.1l-9 3.8c-.1 0-.1.1-.2.1-.2 0-.3-.1-.4-.4l-16.2-37.8c-.1-.2-.1-.2 0-.3 0-.1.2-.2.3-.3l9-3.8c.1-.2.2-.2.2-.2m0-2.5c-.4 0-.8.1-1.2.3l-9 3.8c-1.6.7-2.3 2.4-1.6 4l16.2 37.9c.5 1.1 1.6 1.8 2.7 1.8.4 0 .8-.1 1.2-.3l9-3.8c1.7-.6 2.3-2.4 1.7-4l-16.3-37.9c-.5-1.1-1.5-1.8-2.7-1.8z"/><circle cx="8" cy="39.4" r="3.2"/><path d="m12.8 8.8c.3 0 .7.4.7.8v35.1c0 .4-.3.7-.7.7h-9.6c-.4 0-.7-.3-.7-.7v-35.1c0-.4.3-.7.7-.7h9.6m0-2.6h-9.6c-1.8 0-3.2 1.5-3.2 3.3v35.2c0 1.8 1.4 3.2 3.2 3.2h9.6c1.8 0 3.2-1.4 3.2-3.2v-35.2c0-1.8-1.5-3.3-3.2-3.3z"/><path d="m10.4 10.7h-4.7c-.6 0-1.2.5-1.2 1.2v1.2c0 .6.5 1.2 1.2 1.2h4.7c.6 0 1.2-.5 1.2-1.2v-1.2c-.1-.7-.6-1.2-1.2-1.2z"/><path d="m23.3 8.6 4-1.7.5 1.3-4 1.7z"/><path d="m27.6 5.5c-.1 0-.2 0-.3.1l-4.9 2.1c-.4.2-.6.6-.4 1l.9 2.2c.1.2.2.3.4.4.1 0 .2.1.3.1s.2 0 .3-.1l4.9-2.1c.1-.2.2-.3.3-.5s.1-.4 0-.6l-.9-2.1c-.1-.3-.3-.5-.6-.5z"/><path d="m25.9 14.9 4-1.7.5 1.3-4 1.7z"/><path d="m30.2 11.8c-.1 0-.2 0-.3.1l-4.9 2.1c-.4.2-.6.6-.4 1l.9 2.2c.1.2.2.3.4.4.1 0 .2.1.3.1s.2 0 .3-.1l4.9-2.1c.2-.1.3-.2.4-.4s.1-.4 0-.6l-.9-2.2c-.1-.3-.4-.5-.7-.5z"/></svg>