<svg enable-background="new 0 0 48 48" viewBox="0 0 48 48" xmlns="http://www.w3.org/2000/svg"><path d="m32.2 12h7.1c.6 0 1.1-.4 1.3-.8.2-.5.1-1.2-.4-1.6l-7-7.2c-.3-.4-1-.5-1.5-.4-.5.2-.8.7-.8 1.3v7.1c-.2 1 .6 1.6 1.3 1.6z"/><path d="m41.3 15h-10.7c-1.6 0-2.8-1.3-2.8-2.9v-10.7c0-.8-.7-1.4-1.6-1.4h-16.5c-2.4 0-4.5 2-4.5 4.4v39c0 2.4 2 4.6 4.6 4.6h28.4c2.4 0 4.6-2 4.6-4.6v-27c-.1-.8-.8-1.4-1.5-1.4zm-25.6 24h-1.6c-.8 0-1.6-.7-1.6-1.6 0-.8.7-1.6 1.6-1.6h1.6c.8 0 1.6.7 1.6 1.6s-.7 1.6-1.6 1.6zm0-6h-1.6c-.8 0-1.6-.7-1.6-1.6s.7-1.6 1.6-1.6h1.6c.8 0 1.6.7 1.6 1.6s-.7 1.6-1.6 1.6zm0-6h-1.6c-.8 0-1.6-.7-1.6-1.6s.7-1.6 1.6-1.6h1.6c.8 0 1.6.7 1.6 1.6s-.7 1.6-1.6 1.6zm18 12h-12c-.8 0-1.6-.7-1.6-1.6 0-.8.7-1.6 1.6-1.6h12c.8 0 1.6.7 1.6 1.6s-.7 1.6-1.6 1.6zm0-6h-12c-.8 0-1.6-.7-1.6-1.6s.7-1.6 1.6-1.6h12c.8 0 1.6.7 1.6 1.6s-.7 1.6-1.6 1.6zm0-6h-12c-.8 0-1.6-.7-1.6-1.6s.7-1.6 1.6-1.6h12c.8 0 1.6.7 1.6 1.6s-.7 1.6-1.6 1.6z"/></svg>