<svg enable-background="new 0 0 48 48" viewBox="0 0 48 48" xmlns="http://www.w3.org/2000/svg"><path d="m32.1 12h7.1c.6 0 1.1-.2 1.3-.7s.1-1.1-.4-1.6l-7.1-7.1c-.4-.4-1.1-.5-1.6-.4-.5.2-.8.7-.8 1.3v7.2c.1 1 .8 1.3 1.5 1.3z"/><path d="m41.2 15h-10.7c-1.6 0-2.8-1.2-2.8-2.8v-10.5c0-.8-.7-1.7-1.6-1.7h-16.3c-2.4 0-4.4 2.2-4.4 4.7v38.8c0 2.4 2 4.5 4.4 4.5h28.5c2.4 0 4.4-2 4.4-4.5v-26.9c0-.9-.6-1.6-1.5-1.6zm-10.5 13.5c-.8 0-1.7-.6-1.9-1.4l-.4-1.6h-3.7v12h1.6c.8 0 1.6.7 1.6 1.6h-9c0-.8.7-1.6 1.6-1.6h1.5v-12h-4l-.4 1.6c-.2.8-1 1.4-1.9 1.4v-4.5c0-.8.7-1.6 1.6-1.6h12c.8 0 1.6.7 1.6 1.6v4.5z"/></svg>