<svg enable-background="new 0 0 48 48" viewBox="0 0 48 48" xmlns="http://www.w3.org/2000/svg"><path d="m32.6 12h7.1c.6 0 1.1-.2 1.3-.7s.1-1.1-.4-1.6l-7.1-7.1c-.4-.4-1.2-.5-1.8-.4-.5.2-1.1.7-1.1 1.3v7.2c.1.9 1.2 1.3 2 1.3z"/><circle cx="23.5" cy="31.1" r=".8"/><circle cx="23.4" cy="37.3" r="1.6"/><circle cx="17.4" cy="31.3" r="1.6"/><path d="m41.8 15h-10.7c-1.6 0-3.2-1.1-3.2-2.6v-10.7c0-.8-.7-1.7-1.6-1.7h-16.2c-2.4 0-4.8 2.2-4.8 4.7v39.1c0 2.4 2.4 4.2 4.8 4.2h28.6c2.4 0 4.1-1.8 4.1-4.2v-27.1c-.1-.9-.3-1.7-1-1.7zm-8.6 13.3c-.4.7-1.1 1.3-1.8 1.6l-6 2-.8 2.4c1.6.6 2.5 2.3 1.9 4s-2.3 2.5-4 1.9-2.5-2.3-1.9-4l1-3.1-3.1 1.1c-1.7.6-3.5-.4-4.1-1.9-.6-1.7.4-3.4 1.9-4 1.6-.5 3.4.4 4 1.9l2.4-.8 2-6c.5-1.4 1.9-2.3 3.4-2.2.2 0 .4.1.5.2s.1.4.1.5l-2 6.1 6.1-2c.1 0 .4 0 .5.1s.2.2.2.5c.1.5 0 1.1-.3 1.7z"/></svg>