<svg enable-background="new 0 0 48 48" viewBox="0 0 48 48" xmlns="http://www.w3.org/2000/svg"><path d="m32.3 12h7.4c.6 0 1.1-.2 1.3-.7s.1-1.1-.4-1.6l-7.1-7.1c-.4-.4-1.2-.5-1.8-.4-.5.2-1.1.7-1.1 1.3v6.8c.1 1 .8 1.7 1.7 1.7z"/><path d="m41.7 15h-10.6c-1.6 0-3.2-1.1-3.2-2.6v-10.7c0-.8-.7-1.7-1.6-1.7h-16.5c-2.4 0-4.5 2-4.5 4.5v38.9c0 2.4 2 4.5 4.5 4.5h28.5c2.4 0 4.5-2 4.5-4.5v-26.7c-.1-.8-.4-1.7-1.1-1.7zm-23 22.6c0 .7-.6 1.3-1.3 1.3h-1.8c-.7 0-1.3-.6-1.3-1.3v-10.9c0-.7.6-1.3 1.3-1.3h1.9c.7 0 1.3.6 1.3 1.3v10.9zm7.6 0c0 .7-.6 1.3-1.3 1.3h-2c-.7 0-1.3-.6-1.3-1.3v-13.8c0-.7.6-1.3 1.3-1.3h2c.7 0 1.3.6 1.3 1.3zm7.4 0c0 .7-.6 1.3-1.3 1.3h-1.9c-.7 0-1.3-.6-1.3-1.3v-6.3c0-.7.6-1.3 1.3-1.3h1.9c.7 0 1.3.6 1.3 1.3z"/></svg>