<svg enable-background="new 0 0 48 48" viewBox="0 0 48 48" xmlns="http://www.w3.org/2000/svg"><path d="m32.3 12h7.4c.6 0 1.1-.2 1.3-.7s.1-1.1-.4-1.6l-7.1-7.1c-.4-.4-1.2-.5-1.8-.4-.5.2-1.1.7-1.1 1.3v6.8c.1 1 .8 1.7 1.7 1.7z"/><path d="m41.2 15h-10.1c-1.6 0-3.2-1.1-3.2-2.6v-10.7c0-.8-.7-1.7-1.6-1.7h-16.5c-2.4 0-4.5 2.2-4.5 4.7v38.8c0 2.4 2 4.5 4.5 4.5h28.5c2.4 0 4.5-2 4.5-4.5v-26.8c-.1-.8-.8-1.7-1.6-1.7zm-7.7 15.8c-.2.8-.7 1.6-1.2 2-.5.6-1.1 1.1-1.8 1.4-.7.4-1.4.5-2.3.5-.2 0-.5 0-.8-.1-.2 0-.5-.1-.7-.2s-.5-.2-.6-.5c-.2-.2-.4-.5-.5-.7-.5.6-1.1 1-1.6 1.2-.6.2-1.2.4-1.8.4s-1.1-.1-1.4-.2c-.4-.2-.7-.5-1.1-.8-.2-.4-.5-.7-.6-1.2s-.2-1-.2-1.6c0-.5 0-1 .2-1.4.1-.5.4-1 .6-1.4.2-.5.6-.8 1-1.3.4-.4.8-.7 1.3-1.1s1.1-.5 1.7-.7c.6-.1 1.3-.2 2.2-.2h1c.4 0 .6.1.8.1s.5.1.7.2.5.1.7.2l-1.2 4.8c-.1.5-.2.8-.2 1.2 0 .5.1.7.2.8.2.1.5.2.7.2.4 0 .6-.1.8-.4.2-.2.5-.5.7-.8s.4-.8.5-1.3.1-1.1.1-1.7c0-1.1-.1-1.9-.5-2.8-.4-.8-.7-1.4-1.3-2s-1.3-1-2-1.2c-.8-.2-1.7-.4-2.8-.4s-2 .2-3 .6-1.7 1-2.4 1.7c-.6.7-1.2 1.6-1.6 2.5-.4 1-.6 1.9-.6 3 0 1.3.2 2.5.6 3.6s1 1.9 1.7 2.5c.7.7 1.6 1.2 2.6 1.6s2 .5 3.2.5c.7 0 1.3 0 1.8-.1.6-.1 1.1-.1 1.6-.2s.8-.2 1.2-.4c.4-.1.7-.2 1-.5.2-.1.4-.1.5-.1.2 0 .5.1.6.5l.5 1.3c-.5.2-.8.5-1.4.7-.5.2-1.1.5-1.7.6-.6.2-1.2.4-1.9.4-.8 0-1.5 0-2.2 0-1.6 0-3-.2-4.4-.7s-2.5-1.2-3.5-2.2-1.8-2-2.3-3.4c-.6-1.3-.8-2.8-.8-4.4 0-.8.1-1.8.4-2.6.2-.8.6-1.7 1-2.4.5-.7 1-1.4 1.6-2s1.3-1.2 2-1.7 1.6-.8 2.5-1.1c.8-.2 1.8-.4 2.8-.4.8 0 1.7.1 2.4.2.8.2 1.6.5 2.3.8s1.3.8 1.9 1.3 1.1 1.1 1.6 1.8c.5.6.7 1.3 1 2.2.2.8.4 1.7.4 2.5.4 1.4.2 2.2 0 2.9z"/><path d="m24.1 27.5c-.4.2-.7.5-1.1.8-.2.4-.5.7-.7 1.2-.1.5-.2 1-.2 1.4 0 .5.1.8.2 1.1.2.2.5.4.8.4.2 0 .4 0 .6-.1.2 0 .4-.1.5-.2s.4-.4.5-.6.2-.5.4-.8l.8-3.5c-.2 0-.4 0-.6 0-.5 0-.8 0-1.2.3z"/></svg>