<svg enable-background="new 0 0 48 48" viewBox="0 0 48 48" xmlns="http://www.w3.org/2000/svg"><path d="m32.3 12h7.4c.6 0 1.1-.2 1.3-.7s.1-1.1-.4-1.6l-7.1-7.1c-.4-.4-1.2-.5-1.8-.4-.5.2-1.1.7-1.1 1.3v6.8c.1 1 .8 1.7 1.7 1.7z"/><path d="m25.3 2.6v9.8c0 3.2 3 5.1 5.7 5.1h9.2v26c0 1.2-1.1 2-2 2h-28.4c-1.2 0-2-1.1-2-2v-38.8c0-1.1 1-2.2 2-2.2h15.5m1-2.4h-16.5c-2.4 0-4.5 2.2-4.5 4.7v38.8c0 2.4 2 4.5 4.5 4.5h28.5c2.4 0 4.5-2 4.5-4.5v-26.9c-.1-.8-.8-1.7-1.6-1.7h-10.1c-1.6 0-3.2-1.1-3.2-2.6v-10.7c-.1-.8-.8-1.6-1.6-1.6z"/><path d="m33.6 29.1c0-.8-.1-1.7-.4-2.5-.2-.8-.5-1.6-1-2.2-.5-.7-1-1.3-1.6-1.8s-1.2-1-1.9-1.3c-.7-.4-1.4-.6-2.3-.8-.7-.1-1.6-.2-2.4-.2-1 0-1.9.1-2.8.4-1 .2-1.8.6-2.5 1.1s-1.4 1.1-2 1.7-1.1 1.3-1.6 2c-.4.7-.7 1.6-1 2.4-.2.8-.4 1.8-.4 2.6 0 1.7.2 3.1.8 4.4.5 1.3 1.3 2.4 2.3 3.4s2 1.7 3.5 2.2c1.7.3 3.1.5 4.7.5.7 0 1.4 0 2.2-.1.7 0 1.3-.1 1.9-.4.6-.1 1.2-.4 1.7-.6.6-.2 1-.5 1.4-.7l-.5-1.3c-.1-.4-.4-.5-.6-.5-.1 0-.2 0-.5.1-.2.2-.6.4-1 .5s-.7.2-1.2.4c-.5.1-1 .1-1.6.2-.5.1-1.1.1-1.8.1-1.2 0-2.3-.1-3.2-.5-1.1-.4-1.9-.8-2.6-1.6-.7-.6-1.3-1.4-1.7-2.5s-.6-2.3-.6-3.6c0-1.1.2-2 .6-3s1-1.8 1.6-2.5c.7-.7 1.4-1.3 2.4-1.7s1.9-.6 3-.6 1.9.1 2.8.4c.7.2 1.4.6 2 1.2s1 1.2 1.3 2c.4.8.5 1.7.5 2.8 0 .6 0 1.2-.1 1.7s-.2 1-.5 1.3c-.2.4-.5.6-.7.8s-.5.4-.8.4c-.2 0-.5-.1-.7-.2s-.3-.3-.3-.8c0-.4.1-.7.2-1.2l1.2-4.8c-.2-.1-.5-.1-.7-.2s-.5-.2-.7-.2-.5-.1-.8-.1c-.2 0-.6 0-1 0-.8 0-1.6.1-2.2.2-.6.2-1.2.4-1.7.7-.5.4-1 .7-1.3 1.1-.4.5-.7.8-1 1.3-.2.5-.5 1-.6 1.4-.2.5-.2 1-.2 1.4 0 .6.1 1.1.2 1.6s.4.8.6 1.2c.4.4.7.6 1.1.8.4.1.8.2 1.4.2s1.2-.1 1.8-.4c.5-.2 1.1-.6 1.6-1.2.1.2.2.5.5.7.1.2.4.4.6.5s.5.2.7.2c.4.1.6.1.8.1.8 0 1.6-.1 2.3-.5s1.3-.8 1.8-1.4c.5-.5 1-1.2 1.2-2 .3-.6.5-1.4-.2-2.6zm-8.5 2.5c-.1.4-.2.6-.4.8-.1.2-.4.5-.5.6s-.2.2-.5.2c-.2.1-.4.1-.6.1-.4 0-.6-.1-.8-.4-.1-.2-.2-.6-.2-1.1s.1-1 .2-1.4c.2-.5.5-.8.7-1.2.4-.4.7-.6 1.1-.8s.7-.2 1.2-.4h.6z"/></svg>