<svg enable-background="new 0 0 48 48" viewBox="0 0 48 48" xmlns="http://www.w3.org/2000/svg"><path d="m40.7 9.2-7.9-7.9c-.8-.8-2-1.3-3.2-1.3h-19.1c-2.5 0-4.5 2-4.5 4.5v39c0 2.5 2 4.5 4.5 4.5h27c2.5 0 4.5-2 4.5-4.5v-31.1c0-1.2-.5-2.4-1.3-3.2zm-10.7-4.3 7.1 7.1h-7.1zm7.5 38.6h-27v-39h15v9.7c0 1.2 1 2.2 2.3 2.2h9.8v27.1zm-19.5-18c0 3.3 2.7 6 6 6s6-2.7 6-6-2.7-6-6-6-6 2.7-6 6zm9.7 7.5c-1.2.5-2.4.8-3.7.8s-2.6-.3-3.7-.8h-.5c-3.5 0-6.3 2.4-6.3 5.4v.6c0 .8.7 1.5 1.5 1.5h18c.8 0 1.5-.7 1.5-1.5v-.6c0-3-2.8-5.4-6.3-5.4z"/></svg>