<svg enable-background="new 0 0 48 48" viewBox="0 0 48 48" xmlns="http://www.w3.org/2000/svg"><path d="m32.2 12h7.1c.6 0 1.1-.2 1.3-.7s.1-1.1-.4-1.6l-7.1-7.1c-.4-.4-1.1-.5-1.6-.4-.5.2-.8.7-.8 1.3v7.2c0 .9.8 1.3 1.5 1.3z"/><path d="m41.3 15h-10.7c-1.6 0-2.9-1.1-2.9-2.6v-10.7c0-.8-.6-1.7-1.4-1.7h-16.6c-2.4 0-4.5 2.2-4.5 4.7v39.1c0 2.4 2 4.2 4.6 4.2h28.6c2.4 0 4.4-1.8 4.4-4.2v-27.1c-.1-.9-.7-1.7-1.5-1.7zm-10.6 20.3c0 1.2-1 2.3-2.3 2.3h-1.6c-1.2 0-2.3-1-2.3-2.3s1-2.3 2.3-2.3h2.3v-5.5l-7.6 2.2v7.2c0 1.2-1 2.3-2.3 2.3h-1.2c-1.2 0-2.3-1-2.3-2.3s1-2.3 2.3-2.3h2.3v-7.6c0-.8.6-1.7 1.4-1.9l7.7-2.2c.4-.1.7 0 1 .2.2.2.5.6.5 1v11.2z"/></svg>