<svg enable-background="new 0 0 48 48" viewBox="0 0 48 48" xmlns="http://www.w3.org/2000/svg"><path d="m32.3 11.9h7.1c.6 0 1.1-.4 1.3-.8.2-.5.1-1.1-.4-1.6l-7-7.1c-.3-.4-1-.5-1.5-.4s-.8.8-.8 1.4v7.1c0 .8.6 1.4 1.3 1.4z"/><path d="m25.5 2.5v9.5c0 2.9 2.5 5.4 5.4 5.4h9.5v26.2c0 1.1-.9 1.9-1.9 1.9h-28.9c-1.1 0-1.9-.9-1.9-1.9v-39.2c0-1.1.9-1.9 1.9-1.9zm1-2.5h-16.9c-2.4 0-4.4 1.9-4.4 4.4v39.1c0 2.5 1.9 4.5 4.4 4.5h28.8c2.4 0 4.4-1.9 4.4-4.4v-27.3c0-.8-.7-1.4-1.4-1.4h-10.6c-1.6 0-2.9-1.3-2.9-2.9v-10.6c.1-.8-.5-1.4-1.4-1.4z"/><path d="m27.1 30.8v6.4c0 .8-.7 1.7-1.7 1.7h-2.8c-.8 0-1.7-.7-1.7-1.7v-6.4h-3l6-9 6 9z" fill="none" stroke="#000" stroke-miterlimit="10" stroke-width="2.5"/></svg>