<svg enable-background="new 0 0 48 48" viewBox="0 0 48 48" xmlns="http://www.w3.org/2000/svg"><path d="m32.1 12h7.1c.6 0 1.1-.2 1.3-.7s.1-1.1-.4-1.6l-7.1-7.1c-.4-.4-1.1-.5-1.6-.4-.5.2-.8.7-.8 1.3v7.2c.1 1 .8 1.3 1.5 1.3z"/><path d="m41.2 15h-10.5c-1.6 0-3-1.1-3-2.6v-10.7c0-.8-.5-1.7-1.3-1.7h-16.6c-2.4 0-4.5 2.2-4.5 4.7v38.8c0 2.4 2 4.5 4.5 4.5h28.5c2.4 0 4.5-2 4.5-4.5v-26.8c-.1-.8-.8-1.7-1.6-1.7zm-26.2 25.5c-.1 0-.4 0-.5-.1s-.1-.4-.1-.5l1.4-4.1 3.4 3.4zm18.9-15.4-13.1 13.1-4-4 13.2-13.1c.5-.5 1.3-.5 1.9 0l2 2c.5.5.5 1.4 0 2z"/></svg>