<svg enable-background="new 0 0 48 48" viewBox="0 0 48 48" xmlns="http://www.w3.org/2000/svg"><path d="m32.2 12h7.1c.6 0 1.1-.2 1.3-.7s.1-1.1-.4-1.6l-7.1-7.1c-.4-.4-1.1-.5-1.6-.4-.5.2-.8.7-.8 1.3v7.2c0 .9.7 1.3 1.5 1.3z"/><path d="m25.2 2.5v9.9c0 2.9 2.4 5.1 5.4 5.1h9.6v26.3c0 1.1-1 1.7-1.9 1.7h-28.6c-1 0-1.9-.6-1.9-1.7v-39.1c0-1.1.9-2.2 1.9-2.2zm-1.2 19.4c-1.2-.9-2.6-1.4-4.2-1.4-3.9 0-7.1 3.2-7.1 7.1 0 8.6 9.8 13 10.3 13.2l1 .4 1-.4c.4-.2 10.3-4.6 10.3-13.2 0-3.9-3.2-7.1-7.1-7.1-1.6 0-3 .5-4.2 1.4m2.3-21.9h-16.6c-2.4 0-4.4 2.2-4.4 4.7v39.1c0 2.4 2 4.2 4.4 4.2h28.6c2.4 0 4.4-1.8 4.4-4.2v-27.1c0-.8-.6-1.7-1.4-1.7h-10.7c-1.6 0-2.9-1.1-2.9-2.6v-10.7c0-.9-.6-1.7-1.4-1.7zm-2.3 25.8c.7-1.7 2.3-2.8 4.2-2.8 2.5 0 4.6 2 4.6 4.6 0 7.1-8.8 10.9-8.8 10.9s-8.8-3.8-8.8-10.9c0-2.5 2-4.6 4.6-4.6 1.9 0 3.5 1.1 4.2 2.8z"/></svg>