<svg enable-background="new 0 0 48 48" viewBox="0 0 48 48" xmlns="http://www.w3.org/2000/svg"><path d="m32.6 12h7.1c.6 0 1.1-.2 1.3-.7s.1-1.1-.4-1.6l-7.1-7.1c-.4-.4-1.2-.5-1.8-.4-.5.2-1.1.7-1.1 1.3v7.2c.1.9 1.2 1.3 2 1.3z"/><path d="m25.3 2.5v9.9c0 3.2 3 5.1 5.7 5.1h9.1v26.3c0 .8-.4 1.7-1.6 1.7h-28.4c-1.2 0-2.3-.8-2.3-1.7v-39.1c0-1.2 1.3-2.2 2.3-2.2zm1.5-2.5h-16.7c-2.4 0-4.8 2.2-4.8 4.7v39.1c0 2.4 2.4 4.2 4.8 4.2h28.6c2.4 0 4.1-1.8 4.1-4.2v-27.1c0-.8-.2-1.7-1-1.7h-10.7c-1.6 0-3.2-1.1-3.2-2.6v-10.7c-.1-.9-.3-1.7-1.1-1.7z"/><path d="m29.9 22.1c-.2 0-.3.1-.5.3l-.8 1.3c-1.5-1-3.1-1.5-4.8-1.5-1.6 0-3.3.5-4.8 1.5-2.4 1.6-3.7 4.2-3.7 7h3c.1-1.7.8-3.4 2.4-4.4.7-.5 1.7-.7 2.7-.7 1.1 0 2.3.3 3.4 1l-.8 1.3c-.4.5-.1.8.5.8h5.6c.6 0 .8-.5.6-1l-2.3-5.2c-.2-.2-.3-.4-.5-.4z"/><path d="m32.7 30.6h-3c.1 1.9-.7 3.8-2.4 4.9-.7.5-1.7.7-2.7.7-1.1 0-2.3-.3-3.4-1l.8-1.4c.4-.5.1-.8-.5-.8h-5.6c-.6 0-.8.5-.6 1l2.3 5.2c.1.3.3.5.5.5s.3-.1.5-.3l.8-1.3c1.5 1 3.1 1.5 4.8 1.5 1.6 0 3.3-.5 4.8-1.5 2.5-1.8 3.9-4.7 3.7-7.5z"/></svg>