<svg enable-background="new 0 0 48 48" viewBox="0 0 48 48" xmlns="http://www.w3.org/2000/svg"><path d="m32.6 12h7.1c.6 0 1.1-.2 1.3-.7s.1-1.1-.4-1.6l-7.1-7.1c-.4-.4-1.2-.5-1.8-.4-.5.2-1.1.7-1.1 1.3v7.2c.1.9 1.2 1.3 2 1.3z"/><path d="m25.3 2.5v9.9c0 3.2 3 5.1 5.7 5.1h9.1v26.3c0 .8-.4 1.7-1.6 1.7h-28.4c-1.2 0-2.3-.8-2.3-1.7v-39.1c0-1.2 1.3-2.2 2.3-2.2zm1-2.5h-16.2c-2.4 0-4.8 2.2-4.8 4.7v39.1c0 2.4 2.4 4.2 4.8 4.2h28.6c2.4 0 4.1-1.8 4.1-4.2v-27.1c0-.8-.2-1.7-1-1.7h-10.7c-1.6 0-3.2-1.1-3.2-2.6v-10.7c-.1-.9-.8-1.7-1.6-1.7z"/><path d="m17.4 30.2c.5 0 1 .3 1.2.8l.4 1-1 .3c-.1 0-.2.1-.4.1-.5 0-1-.3-1.2-.8-.2-.6.2-1.2.7-1.4zm5.6 5.6 1 .4c.5.2 1 .8.8 1.4-.2.5-.5.8-1 .8-.1 0-.3 0-.4-.1-.3-.1-.6-.3-.7-.6-.1-.2-.1-.5 0-.8zm4.9-14.6c-1.3 0-2.6.8-3.1 2.2l-2 6-2.4.8c-.5-1.3-1.8-2.1-3.1-2.1-.3 0-.6 0-.9.1-1.6.6-2.5 2.3-1.9 4 .5 1.2 1.7 2.1 3 2.1.3 0 .7-.1 1-.2l3.1-1.1-1 3.1c-.6 1.7.2 3.4 1.9 4 .4.1.7.2 1.1.2 1.3 0 2.4-.8 2.9-2.1.6-1.7-.4-3.4-1.9-4l.8-2.4 6-2c.7-.2 1.4-.8 1.8-1.6.2-.6.4-1.2.2-1.7 0-.2-.1-.4-.2-.5 0 0-.2 0-.3 0l-6.1 2 2-6.1c0-.1 0-.4-.1-.5s-.2-.2-.5-.2c-.1 0-.2 0-.3 0z"/></svg>