<svg enable-background="new 0 0 48 48" viewBox="0 0 48 48" xmlns="http://www.w3.org/2000/svg"><path d="m32.2 12h7.1c.6 0 1.1-.2 1.3-.7s.1-1.1-.4-1.6l-7.1-7.1c-.4-.4-1.1-.5-1.6-.4-.5.2-.8.7-.8 1.3v7.2c0 .9.8 1.3 1.5 1.3z"/><path d="m25.2 2.5v9.9c0 2.9 2.4 5.1 5.4 5.1h9.6v26.3c0 1.1-1 1.7-1.9 1.7h-28.6c-1.2 0-2.1-.7-2.1-1.7v-39.1c0-1.1 1-2.2 2.1-2.2zm1.1-2.5h-16.6c-2.4 0-4.5 2.2-4.5 4.7v39.1c0 2.4 2 4.2 4.6 4.2h28.6c2.4 0 4.4-1.8 4.4-4.2v-27.1c0-.8-.6-1.7-1.4-1.7h-10.8c-1.6 0-2.9-1.1-2.9-2.6v-10.7c0-.9-.6-1.7-1.4-1.7z"/><path d="m30.4 22.9c-.1 0-.2 0-.3 0l-7.7 2.2c-.8.2-1.4 1.1-1.4 1.9v7.6h-2.3c-1.3 0-2.3 1-2.3 2.3s1.1 2.3 2.3 2.3h1.3c1.3 0 2.3-1.1 2.3-2.3v-7.2l7.6-2.2v5.5h-2.3c-1.3 0-2.3 1-2.3 2.3s1.1 2.3 2.3 2.3h1.6c1.3 0 2.3-1.1 2.3-2.3h.1v-11.2c0-.4-.2-.7-.5-1-.2-.1-.4-.2-.7-.2z"/></svg>