<svg enable-background="new 0 0 48 48" viewBox="0 0 48 48" xmlns="http://www.w3.org/2000/svg"><path d="m32.2 12h7.1c.6 0 1.1-.4 1.3-.8.2-.5.1-1.2-.4-1.6l-7-7.2c-.3-.4-1-.5-1.5-.4-.5.2-.8.7-.8 1.3v7.1c-.2 1 .5 1.6 1.3 1.6z"/><path d="m25.2 2.5v9.6c0 2.9 2.5 5.4 5.4 5.4h9.6v26.1c0 1-.9 1.9-1.9 1.9h-28.6c-1 0-1.9-.9-1.9-1.9v-39.2c0-1 .9-1.9 1.9-1.9zm1.1-2.5h-16.6c-2.4 0-4.4 2-4.4 4.4v39.1c0 2.4 2 4.4 4.4 4.4h28.6c2.4 0 4.4-2 4.4-4.4v-27.1c0-.8-.6-1.4-1.4-1.4h-10.7c-1.6 0-2.9-1.3-2.9-2.9v-10.7c0-.8-.6-1.4-1.4-1.4z"/><path d="m24.8 33.1-2-1.6v2.6c0 .2-.2.3-.3.3h-1.6c-.2 0-.3-.2-.3-.3v-1.3h-1.3c-1 0-1.8-.8-1.8-1.8s.8-1.8 1.8-1.8h1.3v-1.3c0-.2.2-.3.3-.3h1.6c.2 0 .3.2.3.3v2.6l7.6-6v12.7z"/><path d="m29.1 27.3v7.6l-3.5-2.8-1.3-1 1.3-1zm-7.5 3.3v1h-2.2c-.3 0-.5-.2-.5-.5s.2-.5.5-.5zm8.8-7.2c-.3 0-.5.1-.7.3l-5.6 4.4c0-.8-.7-1.6-1.6-1.6h-1.6c-.8 0-1.6.7-1.6 1.6-1.7 0-3 1.3-3 3s1.3 3 3 3c0 .8.7 1.6 1.6 1.6h1.6c.8 0 1.6-.7 1.6-1.6l5.6 4.4c.2.1.5.3.7.3s.3 0 .5-.1c.5-.2.7-.6.7-1.1v-13c0-.5-.4-.8-.7-1.1-.1 0-.3-.1-.5-.1z"/></svg>