<svg enable-background="new 0 0 48 48" viewBox="0 0 48 48" xmlns="http://www.w3.org/2000/svg"><path d="m39.6 8h-31.1c-1.5 0-2.4 0-2.4 2.6v3.4h36v-3.5c-.1-2.5-.9-2.5-2.5-2.5z"/><path d="m33.6 4h-19.2c-1.7 0-2.4 0-2.4 2.2h24c0-2.1-.8-2.2-2.4-2.2z"/><path d="m45.3 18.5-2.1 22.7c-.1.3-.1.4-.2.5-.1 0-.2 0-.4 0h-37.4c-.1 0-.3 0-.4 0 0-.1-.1-.2-.1-.5l-2.1-22.7h1.3 40.1zm-1.4-6.6v4.1h-40v-4l-1.9 1.2c-1.8 1.1-2.3 1.9-1.9 5.2l2.2 23.1c.5 2.6 2 2.6 3 2.6h37.4c1 0 2.5-.1 3-2.6l2.2-23c.5-3.2-.1-4.3-1.8-5.4z"/></svg>