<svg enable-background="new 0 0 48 48" viewBox="0 0 48 48" xmlns="http://www.w3.org/2000/svg"><path d="m19.7 6.2c.4 0 .6.2.8.4l1.6 2.9.7 1.3h1.5 20.9c.3 0 .4.2.4.5v3.5c-.2 0-.4 0-.5 0h-42.2-.2-.2v-3.5c0-.2.4-.5.5-.5h2.5v-2.5-2.1zm0-2.5h-15.1c-.9 0-1.6.8-1.6 1.6v3c-1.4 0-3 1.3-3 3v7.4h.2c.5-1.4 1.4-1.4 2.3-1.4h.4 42.1c1.1 0 2.3 0 2.8 1.4h.2v-7.4c0-1.7-1.2-3-2.9-3h-20.9l-1.7-3c-.4-.7-1.4-1.6-2.8-1.6z"/><path d="m45.1 17.3c.1.1.4.5.4 1.2v22.1c0 .6-.3 1-.4 1h-42.1c-.2 0-.5-.4-.5-1v-22.1c0-.7.4-1.1.6-1.2zm0-2.5h-42.1c-1.4 0-3 1.6-3 3.7v22.1c0 2.1 1.3 3.5 3 3.5h42.1c1.7 0 2.9-1.6 2.9-3.5v-22.1c0-2.1-1.2-3.7-2.9-3.7z"/><path d="m16.1 34.1-1.3 3.6c-.1.1 0 .4 0 .5.1.1.4.1.5.1l3.8-1.2z"/><path d="m29.4 20.7c-.3 0-.6.1-.8.4l-11.8 11.7 3.5 3.5 11.7-11.8c.5-.4.5-1.2 0-1.7l-1.8-1.8c-.2-.2-.5-.3-.8-.3z"/></svg>