<svg enable-background="new 0 0 48 48" viewBox="0 0 48 48" xmlns="http://www.w3.org/2000/svg"><path d="m2.9 13.6h39.1c1.1 0 2.3 0 2.8 1.4h.2v-7.4c0-1.7-1.2-3-2.9-3h-17.9l-1.7-3c-.5-.7-1.4-1.6-3-1.6h-15c-.8 0-1.5.7-1.5 1.6v3c-1.4 0-3 1.3-3 3v7.4h.2c.6-1.4 1.7-1.4 2.7-1.4z"/><path d="m45 28.1v-8.5c0-1.7-1.2-3-2.9-3h-39.1c-1.6 0-3 1.3-3 3v18c0 1.7 1.3 2.9 3 2.9h21.8c1.8 4.4 6.1 7.4 11.2 7.4 6.6 0 12-5.4 12-12 0-2.9-1.2-5.6-3-7.8zm-9 15.4c-4.1 0-7.6-3.4-7.6-7.6 0-4.1 3.4-7.6 7.6-7.6 4.1 0 7.6 3.4 7.6 7.6s-3.5 7.6-7.6 7.6z"/><path d="m39.1 34.5h-.1v-1.5c0-1.7-1.3-3-3-3s-3 1.3-3 3v1.4h-.1c-.7 0-1.3.6-1.3 1.3v3.4c0 .7.6 1.3 1.3 1.3h6.4c.7 0 1.3-.6 1.3-1.3v-3.4c0-.5-.8-1.2-1.5-1.2zm-1.5 0h-3v-1.5c0-.8.7-1.6 1.6-1.6s1.6.7 1.6 1.6v1.4h-.2z"/></svg>