<svg enable-background="new 0 0 48 48" viewBox="0 0 48 48" xmlns="http://www.w3.org/2000/svg"><path d="m19.7 6.2c.4 0 .6.2.8.4l1.6 2.9.7 1.3h1.5 20.9c.3 0 .4.2.4.5v3.5c-.2 0-.4 0-.5 0h-42.2-.2-.2v-3.5c0-.2.4-.5.5-.5h2.5v-2.5-2.1zm0-2.5h-15.1c-.9 0-1.6.8-1.6 1.6v3c-1.4 0-3 1.3-3 3v7.4h.2c.5-1.4 1.4-1.4 2.3-1.4h.4 42.1c1.1 0 2.3 0 2.8 1.4h.2v-7.4c0-1.7-1.2-3-2.9-3h-20.9l-1.7-3c-.4-.7-1.4-1.6-2.8-1.6z"/><path d="m45.1 17.3c.1.1.4.5.4 1.2v22.1c0 .6-.3 1-.4 1h-42.1c-.2 0-.5-.4-.5-1v-22.1c0-.7.4-1.1.6-1.2zm0-2.5h-42.1c-1.4 0-3 1.6-3 3.7v22.1c0 2.1 1.3 3.5 3 3.5h42.1c1.7 0 2.9-1.6 2.9-3.5v-22.1c0-2.1-1.2-3.7-2.9-3.7z"/><path d="m16.6 25.4c-1 0-1.8-.8-1.8-1.7s.8-1.8 1.8-1.8 1.8.8 1.8 1.8-.8 1.7-1.8 1.7z"/><path d="m16.6 23.2c.3 0 .5.2.5.5s-.2.5-.5.5-.5-.2-.5-.5.2-.5.5-.5m0-2.5c-1.7 0-3 1.3-3 3s1.3 3 3 3 3-1.3 3-3-1.4-3-3-3z"/><path d="m15.2 36.1v-.2h-.4l3.2-4h.1s.1.1.2.1l2.8 3.5 5.9-7.3h.1s.1 0 .2.1l6.2 7.9h-18.3z"/><path d="m27 30.1 3.8 4.8h-7.6zm-9 3.7.9 1.1h-1.7zm9-6.9c-.4 0-.8.1-1.1.5l-4.9 6.1-1.9-2.4c-.2-.2-.7-.5-1.1-.5s-.8.1-1.1.5l-3.7 4.7c-.2.2-.2.6-.1.8.2.2.5.5.8.5v.2h20.2c.4 0 .7-.1.8-.5s.1-.7-.1-1l-6.7-8.5c-.3-.1-.6-.4-1.1-.4z"/></svg>