<svg enable-background="new 0 0 48 48" viewBox="0 0 48 48" xmlns="http://www.w3.org/2000/svg"><path d="m45.1 8.3h-20.9l-1.7-3c-.5-.7-1.4-1.6-2.9-1.6h-15c-.9 0-1.6.7-1.6 1.6v3c-1.4 0-3 1.3-3 3v7.4h.2c.6-1.6 1.7-1.4 2.6-1.4h42.2c1.1 0 2.3 0 2.8 1.4h.2v-7.4c0-1.7-1.2-3-2.9-3z"/><path d="m45.1 20.3h-42.1c-1.4 0-3 1.3-3 3v18c0 1.7 1.3 2.9 3 2.9h42.1c1.7 0 2.9-1.3 2.9-2.9v-18c0-1.7-1.2-3-2.9-3zm-30.2 20.7c-.1 0-.4 0-.5-.1 0-.1-.1-.4 0-.5l1.3-3.6 3 3zm16.8-13.7-11.8 11.7-3.5-3.5 11.8-11.8c.5-.5 1.2-.5 1.7 0l1.8 1.8c.5.6.5 1.4 0 1.8z"/></svg>