<svg enable-background="new 0 0 48 48" viewBox="0 0 48 48" xmlns="http://www.w3.org/2000/svg"><path d="m19.7 6.7c.4 0 .6.2.8.4l1.6 2.9.7 1.3h1.5 20.9c.3 0 .4.2.4.5v3.5c-.2 0-.4 0-.5 0h-42.2-.2-.2v-3.5c0-.2.4-.5.5-.5h2.5v-2.5-2.1zm0-2.5h-15.1c-.9 0-1.6.7-1.6 1.6v3c-1.4 0-3 1.3-3 3v7.4h.2c.5-1.4 1.4-1.4 2.3-1.4h.4 42.1c1.1 0 2.3 0 2.8 1.4h.2v-7.4c0-1.7-1.2-3-2.9-3h-20.9l-1.7-3c-.4-.7-1.4-1.6-2.8-1.6z"/><path d="m45.1 18.5c.3 0 .4.2.4.6v21.3c0 .1 0 .5-.4.5h-42.1c-.3 0-.5-.1-.5-.5v-21.3c0-.2.4-.6.5-.6zm0-2.9h-42.1c-1.4 0-3 1.5-3 3.5v21.3c0 2 1.3 3.4 3 3.4h42.1c1.7 0 2.9-1.5 2.9-3.4v-21.3c0-2-1.2-3.5-2.9-3.5z"/><path d="m29.3 22.1h-1-8.2-1.4c-.8 0-1.4.7-1.4 1.4v1.4 2.7c.9 0 1.5-.5 1.7-1.3l.3-1.4h3.4v10.9h-1.4c-.8 0-1.4.7-1.4 1.4h2.7 2.7 2.7c0-.8-.7-1.4-1.4-1.4h-1.4v-10.9h3.4l.3 1.4c.2.8 1 1.3 1.7 1.3v-2.7-1.4c.1-.7-.5-1.4-1.3-1.4z"/></svg>