<svg enable-background="new 0 0 48 48" viewBox="0 0 48 48" xmlns="http://www.w3.org/2000/svg"><path d="m45.1 8.3h-20.9l-1.7-3c-.5-.7-1.4-1.6-2.9-1.6h-15c-.9 0-1.6.7-1.6 1.6v3c-1.4 0-3 1.3-3 3v7.4h.2c.6-1.6 1.7-1.4 2.6-1.4h42.2c1.1 0 2.3 0 2.8 1.4h.2v-7.4c0-1.7-1.2-3-2.9-3z"/><path d="m45.1 20.3h-42.1c-1.4 0-3 1.3-3 3v18c0 1.7 1.3 2.9 3 2.9h42.1c1.7 0 2.9-1.3 2.9-2.9v-18c0-1.7-1.2-3-2.9-3zm-14.7 13.2-9.3 6.5c-.2.2-.7.2-1.1.1-.2-.1-.6-.5-.6-.8v-13c0-.4.2-.6.6-.8.2-.1.7-.1 1 0l9.2 6.5c.2.1.4.5.4.7.1.3 0 .7-.2.8z"/></svg>