<svg enable-background="new 0 0 48 48" viewBox="0 0 48 48" xmlns="http://www.w3.org/2000/svg"><path d="m19.7 6.3c.4 0 .6.2.8.4l1.6 2.9.7 1.3h1.5 20.9c.3 0 .4.1.4.4v3.4c-.2 0-.4 0-.5 0h-42.2c-.1 0-.2 0-.4 0v-3.4c0-.3.3-.5.6-.5h2.5v-2.5-2zm0-2.5h-15.1c-.8 0-1.4.6-1.4 1.4v3c-1.7 0-3.1 1.3-3.1 3v7.3h.2c.6-1.4 1.7-1.4 2.6-1.4h42.1c1.1 0 2.3 0 2.8 1.4h.2v-7.3c0-1.7-1.2-2.9-2.9-2.9h-20.9l-1.7-3c-.4-.6-1.4-1.5-2.8-1.5z"/><path d="m45.1 17.1c.1.1.4.5.4 1.2v22.4c0 .6-.2 1-.4 1h-42.1c-.2 0-.5-.4-.5-1v-22.4c0-.6.4-1.1.6-1.2zm0-2.5h-42.1c-1.4 0-3 1.6-3 3.7v22.4c0 2.1 1.3 3.5 3 3.5h42.1c1.7 0 2.9-1.5 2.9-3.5v-22.4c0-1.9-1.2-3.7-2.9-3.7z"/><path d="m17.9 23.6c-.3 0-.7.1-1 .4l-4.4 4.4c-.6.5-.6 1.4 0 1.9l4.4 4.4c.2.2.6.4 1 .4s.7-.1 1-.4c.6-.5.6-1.3 0-1.9l-3.5-3.5 3.5-3.5c.6-.5.6-1.3 0-1.9-.3-.1-.6-.3-1-.3z"/><path d="m26.2 21.2c-.5 0-1 .3-1.2.9l-5.4 13.6c-.4.7 0 1.6.7 1.8.1.1.4.1.5.1.6 0 1.1-.4 1.3-.8l5.4-13.6c.4-.7 0-1.6-.7-1.8-.2-.1-.4-.2-.6-.2z"/><path d="m29.2 23.6c-.3 0-.7.1-1 .4-.6.5-.6 1.3 0 1.9l3.5 3.5-3.5 3.5c-.6.5-.6 1.3 0 1.9.2.2.6.4 1 .4s.7-.1 1-.4l4.4-4.4c.6-.6.6-1.4 0-1.9l-4.5-4.5c-.2-.2-.5-.4-.9-.4z"/></svg>