<svg enable-background="new 0 0 48 48" viewBox="0 0 48 48" xmlns="http://www.w3.org/2000/svg"><path d="m19.6 2.5c.1 0 .6 0 .9.4l1.6 2.9.7 1.3h1.5 17.9c.3 0 .4.2.4.5v3.5c-.2 0-.4 0-.5 0h-39.2c-.1 0-.2 0-.4 0v-3.5c0-.2.4-.5.5-.5h2.5v-2.5-2.1zm0-2.5h-15c-.9 0-1.6.7-1.6 1.6v3c-1.4 0-3 1.3-3 3v7.4h.2c.6-1.4 1.7-1.4 2.6-1.4h39.2c1.1 0 2.3 0 2.8 1.4h.2v-7.4c0-1.7-1.2-3-2.9-3h-17.9l-1.7-3c-.4-.8-1.4-1.6-2.9-1.6z"/><path d="m42.1 14.1c.3 0 .4.2.4.5v13.5.1c-1.8-1.5-4-2.4-6.5-2.4-5.5 0-10.1 4.5-10.1 10.1 0 .7.1 1.4.2 2.1h-1.3-21.8c-.3 0-.5-.1-.5-.4v-23c0-.3.3-.5.5-.5h39.1m0-2.5h-39.1c-1.6 0-3 1.3-3 3v23c0 1.7 1.3 2.9 3 2.9h21.8c1.8 4.4 6.1 7.4 11.2 7.4 6.6 0 12-5.4 12-12 0-2.9-1.2-5.6-3-7.8v-13.5c0-1.7-1.2-3-2.9-3zm-6.1 31.9c-4.1 0-7.6-3.4-7.6-7.6 0-4.1 3.4-7.6 7.6-7.6 4.1 0 7.6 3.4 7.6 7.6s-3.5 7.6-7.6 7.6z"/><path d="m39.1 34.5h-.1v-1.5c0-1.7-1.3-3-3-3s-3 1.3-3 3v1.4h-.1c-.7 0-1.3.6-1.3 1.3v3.4c0 .7.6 1.3 1.3 1.3h6.4c.7 0 1.3-.6 1.3-1.3v-3.4c0-.5-.8-1.2-1.5-1.2zm-1.5 0h-3v-1.5c0-.8.7-1.6 1.6-1.6s1.6.7 1.6 1.6v1.4h-.2z"/></svg>