<svg enable-background="new 0 0 48 48" viewBox="0 0 48 48" xmlns="http://www.w3.org/2000/svg"><path d="m21.1 6.9c.4 0 .6.2.8.4l1.6 2.9.7 1.3h1.5 19.3c.3 0 .5.2.5.5v28.6c0 .3-.2.5-.5.5h-42c-.3 0-.5-.2-.5-.5v-28.6c0-.2.4-.5.5-.5h2.5v-2.5-2.1zm-5.6 16.2h-.5-4.7l2.6 3.9 6 9 2.1 3 2.1-3.1 6.1-9 2.7-3.9h-4.7-.5v-3.8c0-2.3-1.9-4.2-4.2-4.2h-2.8c-2.3 0-4.2 1.9-4.2 4.2zm5.6-18.7h-16.5c-.9.2-1.6.8-1.6 1.6v3c-1.4 0-3 1.3-3 3v28.6c0 1.7 1.3 3 3 3h42c1.7 0 3-1.3 3-3v-28.6c0-1.7-1.3-3-3-3h-19.3l-1.7-3c-.5-.7-1.4-1.6-2.9-1.6zm-.1 30.2-6-9h3v-6.3c0-.8.7-1.7 1.7-1.7h2.8c.8 0 1.7.7 1.7 1.7v6.3h3z"/></svg>