<svg enable-background="new 0 0 48 48" viewBox="0 0 48 48" xmlns="http://www.w3.org/2000/svg"><path d="m45.1 8.2h-20.7l-1.8-3c-.4-.7-1.3-1.6-2.9-1.6h-15.1c-.9 0-1.6.7-1.6 1.6v3c-1.6 0-3 1.4-3 3v7.6h.2c.6-1.6 1.7-1.4 2.6-1.4h42.2c1.1 0 2.3 0 2.8 1.4h.2v-7.6c0-1.6-1.2-3-2.9-3z"/><circle cx="24" cy="32.4" r="4.4"/><path d="m45.1 20.3-42.1.1c-1.4 0-3 1.3-3 3v18c0 1.7 1.3 3 3 3h42.1c1.7 0 2.9-1.3 2.9-3v-18c0-1.7-1.2-3.1-2.9-3.1zm-12.1 13.5h-1.7c-.2 1-.6 1.8-1.1 2.6l1.2 1.2-2.2 2.2-1.2-1.2c-.8.5-1.7 1-2.6 1.1v1.7h-3v-1.7c-1-.2-1.8-.6-2.6-1.1l-1.2 1.2-2.2-2.2 1.2-1.2c-.5-.8-1-1.7-1.1-2.6h-1.7v-3h1.7c.2-1 .6-1.8 1.1-2.6l-1.2-1.2 2.2-2.2 1.2 1.2c.8-.5 1.7-1 2.6-1.1v-1.7h3v1.8c1 .2 1.8.6 2.6 1.1l1.2-1.2 2.2 2.2-1.2 1.2c.5.8 1 1.7 1.1 2.6h1.7z"/></svg>