<svg enable-background="new 0 0 48 48" viewBox="0 0 48 48" xmlns="http://www.w3.org/2000/svg"><path d="m19.7 6.2c.4 0 .6.2.8.4l1.6 2.9.7 1.3h1.5 20.9c.3 0 .4.2.4.5v3.5c-.2 0-.4 0-.5 0h-42.2-.2-.2v-3.5c0-.2.4-.5.5-.5h2.5v-2.5-2.1zm0-2.5h-15.1c-.9 0-1.6.7-1.6 1.6v3c-1.4 0-3 1.3-3 3v7.4h.2c.5-1.4 1.4-1.4 2.3-1.4h.4 42.1c1.1 0 2.3 0 2.8 1.4h.2v-7.4c0-1.7-1.2-3-2.9-3h-20.9l-1.7-3c-.4-.7-1.4-1.6-2.8-1.6z"/><path d="m45.1 17.2c.1.1.4.6.4 1.3v22.1c0 .7-.3 1.1-.4 1.2h-42.1c-.1 0-.5-.4-.5-1.2v-22.1c0-.7.5-1.2.7-1.3zm0-2.5h-42.1c-1.4.1-3 1.8-3 3.8v22.1c0 2.1 1.3 3.7 3 3.7h42.1c1.7 0 2.9-1.6 2.9-3.7v-22.1c0-2-1.2-3.8-2.9-3.8z"/><path d="m30.8 23.5h-14.5c-1.6 0-3 .7-4.1 1.8s-1.7 2.6-1.7 4.2c0 .8 0 1.6 1.6 1.6 1.4 0 1.4-.6 1.4-1.4 0-.7.4-1.6.8-2 .6-.6 1.3-1 2-1h14.7c1.9 0 2.2 2.2 2.2 3s-.2 3-2.2 3h-11.8c-.4 0-.7-.4-.7-.7 0-.1.1-.4.2-.5s.4-.2.5-.2h8.4c.8 0 1.6-.7 1.6-1.6 0-.8-.7-1.6-1.6-1.6h-8.4c-1.1 0-1.9.4-2.6 1.1-.7.6-1.1 1.7-1.1 2.6 0 2 1.7 3.7 3.7 3.7h11.8c3.1 0 5.2-2.4 5.2-5.9v-.1c-.1-3.6-2.2-6-5.4-6z"/></svg>