<svg enable-background="new 0 0 48 48" viewBox="0 0 48 48" xmlns="http://www.w3.org/2000/svg"><path d="m45.1 8.3h-20.9l-1.7-3c-.5-.7-1.4-1.6-2.9-1.6h-15c-.9 0-1.6.7-1.6 1.6v3c-1.4 0-3 1.3-3 3v7.4h.2c.6-1.6 1.7-1.4 2.6-1.4h42.2c1.1 0 2.3 0 2.8 1.4h.2v-7.4c0-1.7-1.2-3-2.9-3z"/><path d="m45.1 20.3h-42.1c-1.4 0-3 1.3-3 3v18c0 1.7 1.3 2.9 3 2.9h42.1c1.7 0 2.9-1.3 2.9-2.9v-18c0-1.7-1.2-3-2.9-3zm-27.1 3c1.7 0 3 1.3 3 3s-1.3 3-3 3-3-1.3-3-3 1.3-3 3-3zm-2.6 16.4c-.4 0-.6-.2-.8-.5-.1-.2-.1-.6.1-.8l3.7-4.7c.2-.4.7-.5 1.1-.5s.8.2 1.1.5l1.9 2.4 4.9-6.1c.2-.4.7-.5 1.1-.5.5 0 .8.2 1.1.5l6.7 8.5c.2.2.2.6.1 1s-.5.5-.8.5h-20.2z"/></svg>