<svg enable-background="new 0 0 48 48" viewBox="0 0 48 48" xmlns="http://www.w3.org/2000/svg"><path d="m45.1 8.3h-20.9l-1.7-3c-.5-.7-1.4-1.6-2.9-1.6h-15c-.9 0-1.6.7-1.6 1.6v3c-1.4 0-3 1.3-3 3v7.4h.2c.6-1.6 1.7-1.4 2.6-1.4h42.2c1.1 0 2.3 0 2.8 1.4h.2v-7.4c0-1.7-1.2-3-2.9-3z"/><path d="m45.1 20.2h-42.1c-1.4.1-3 1.4-3 3.1v18c0 1.7 1.3 3 3 3h42.1c1.7 0 2.9-1.3 2.9-3v-18c0-1.7-1.2-3.1-2.9-3.1zm-7.5 12.1v.1c0 3.5-2 5.9-5.2 5.9h-11.8c-2 0-3.7-1.7-3.7-3.7 0-1 .4-2 1.1-2.6.7-.7 1.6-1.1 2.6-1.1h8.4c.8 0 1.6.7 1.6 1.6 0 .8-.7 1.6-1.6 1.6h-8.4c-.1 0-.4.1-.5.2s-.2.4-.2.5c0 .4.4.7.7.7h11.8c1.9 0 2.2-2.2 2.2-3s-.2-3-2.2-3h-14.5c-.7 0-1.4.4-2 1-.5.5-.8 1.3-.8 2 0 .8 0 1.4-1.4 1.4-1.6 0-1.6-.7-1.6-1.6 0-1.6.6-3.1 1.7-4.2s2.5-1.8 4.1-1.8h14.5c3 0 5.2 2.4 5.2 6 0-.1 0 0 0 0z"/></svg>