<svg enable-background="new 0 0 48 48" viewBox="0 0 48 48" xmlns="http://www.w3.org/2000/svg"><path d="m19.7 6.2c.4 0 .6.2.8.4l1.6 2.9.7 1.3h1.5 20.9c.3 0 .4.2.4.5v3.5c-.2 0-.4 0-.5 0h-42.2-.2-.2v-3.5c0-.2.4-.5.5-.5h2.5v-2.5-2.1zm0-2.5h-15.1c-.9 0-1.6.7-1.6 1.6v3c-1.4 0-3 1.3-3 3v7.4h.2c.5-1.4 1.4-1.4 2.3-1.4h.4 42.1c1.1 0 2.3 0 2.8 1.4h.2v-7.4c0-1.7-1.2-3-2.9-3h-20.9l-1.7-3c-.4-.7-1.4-1.6-2.8-1.6z"/><path d="m45.1 17.2c.1.1.4.5.4 1.2v22.2c0 .8-.3 1.1-.4 1.2h-42.1c-.1 0-.5-.4-.5-1.2v-22.2c0-.7.4-1.1.6-1.2zm0-2.5h-42.1c-1.4 0-3 1.6-3 3.7v22.2c0 2.1 1.3 3.7 3 3.7h42.1c1.7 0 2.9-1.6 2.9-3.7v-22.2c0-2-1.2-3.7-2.9-3.7z"/><path d="m32.6 30h-2.9c-.1 1.7-1 3.4-2.4 4.3-.7.5-1.7.7-2.7.7-1.1 0-2.3-.3-3.3-1l.8-1.3c.4-.5.1-.8-.5-.8h-5.6c-.6 0-.8.5-.6 1l2.3 5.2c.1.3.3.5.5.5s.3-.1.5-.3l.8-1.3c1.4 1 3 1.5 4.7 1.5 1.6 0 3.3-.5 4.8-1.5 2.3-1.7 3.5-4.3 3.6-7z"/><path d="m29.8 21.2c-.2 0-.3.1-.5.3l-.8 1.3c-1.4-1-3-1.5-4.7-1.5-1.6 0-3.3.5-4.8 1.5-2.5 1.7-3.7 4.4-3.6 7.3h2.9c-.1-1.9.7-3.8 2.4-4.9.6-.5 1.5-.7 2.5-.7 1.2 0 2.5.4 3.6 1.1l-.8 1.1c-.4.5-.1.8.5.8h5.5c.6 0 .8-.2.5-.6l-2.3-5.3c-.1-.2-.3-.4-.4-.4z"/></svg>