<svg enable-background="new 0 0 48 48" viewBox="0 0 48 48" xmlns="http://www.w3.org/2000/svg"><path d="m19.7 6.8c.4 0 .6.2.8.4l1.6 2.9.7 1.3h1.5 20.9c.2 0 .4.3.4.5v3.5c-.2 0-.4 0-.5 0h-42.2-.2-.2v-3.5c0-.2.4-.5.5-.5h2.5v-2.5-2.1zm0-2.5h-15.1c-.9 0-1.6.7-1.6 1.5v3c-1.4 0-3 1.3-3 3v7.4h.2c.5-1.4 1.4-1.4 2.3-1.4h.4 42.1c1.1 0 2.3 0 2.8 1.4h.2v-7.4c0-1.6-1.2-3-2.9-3h-20.9l-1.7-3c-.4-.7-1.4-1.5-2.8-1.5z"/><path d="m45.1 18.9c.3 0 .4.2.4.6v20.9c0 .1 0 .5-.4.5h-42.1c-.3 0-.5-.1-.5-.5v-20.9c0-.2.4-.6.5-.6zm0-2.9h-42.1c-1.4 0-3 1.5-3 3.5v20.9c0 2 1.3 3.4 3 3.4h42.1c1.7 0 2.9-1.5 2.9-3.4v-20.9c0-1.9-1.2-3.5-2.9-3.5z"/><path d="m29.7 36.6-1.7-1.9.5-.4-2.1-2.5c0 1.5-.6 3.1-1.7 4.2l.4.6-2.3 1.4-1.3-2.2 2.2-1.3.2.4c1-1.1 1.4-2.7 1-4.1l-.3.2-1.3-2.2.3-.2c-.5-.5-1.1-.8-1.8-1s-1.4-.1-2.1.1l.2.3-2.2 1.3-1.3-2.2 2.2-1.3.4.7c.9-.3 1.8-.4 2.8-.2l-1-1.2-.8.3-1.7-2 1.9-1.7 1.7 1.9-.5.4 3.1 3.5c.1.1.2.1.2.2l.7-.4 1.3 2.2-.3.2 3.1 3.6.5-.4 1.7 1.9z"/></svg>