<svg enable-background="new 0 0 48 48" viewBox="0 0 48 48" xmlns="http://www.w3.org/2000/svg"><path d="m19.7 6.1c.5 0 .6.2.6.2v.1.1l1.8 3 .7 1.2h1.4 20.8c.2 0 .4.3.4.5v3.6c-.2 0-.4 0-.5 0h-42-.2-.2v-3.6c0-.2.3-.5.5-.5h2.5v-2.5-2.1zm0-2.5h-15.1c-.9 0-1.6.7-1.6 1.6v3c-1.6 0-3 1.4-3 3v7.6h.2c.5-1.4 1.4-1.4 2.3-1.4h.4 42.1c1.1 0 2.3 0 2.8 1.4h.2v-7.6c0-1.6-1.2-3-2.9-3h-20.7l-1.8-3c-.4-.8-1.4-1.6-2.9-1.6z"/><path d="m45.1 17.1c.1.1.4.6.4 1.4v22.2c0 .8-.3 1.2-.4 1.2h-42.1c-.1 0-.5-.4-.5-1.2v-22.2c0-.7.4-1.1.6-1.2zm0-2.5-42.1.2c-1.4 0-3 1.6-3 3.7v22.2c0 2.1 1.3 3.7 3 3.7h42.1c1.7 0 2.9-1.6 2.9-3.7v-22.2c0-2.1-1.2-3.9-2.9-3.9z"/><path d="m23.8 37.9v-1.4l-.9-.2c-.8-.2-1.5-.5-2.3-1l-.8-.5-1 1-.4-.4 1-1-.5-.8c-.4-.8-.8-1.5-.9-2.2l-.1-1.1h-1.5v-.5h1.4l.2-.9c.2-.8.5-1.5 1-2.3l.5-.8-1-1 .4-.4 1 1 .8-.5c.8-.4 1.5-.8 2.2-.9l1.1-.1v-1.5h.5v1.4l.9.2c.8.2 1.5.5 2.3 1l.8.5 1-1 .4.4-1 1 .5.8c.4.8.8 1.5.9 2.2l.1 1.1h1.5v.5h-1.4l-.2.9c-.2.8-.5 1.5-1 2.3l-.5.8 1 1-.4.4-1-1-.8.5c-.8.4-1.5.8-2.2.9l-1.1.1v1.5zm.2-12.4c-2.5 0-4.6 2.1-4.6 4.6s2.1 4.6 4.6 4.6 4.6-2.1 4.6-4.6-2.1-4.6-4.6-4.6z"/><path d="m25.5 21h-3v1.7c-1 .1-1.8.6-2.6 1.1l-1.2-1.2-2.2 2.2 1.2 1.2c-.5.8-.8 1.7-1.1 2.6h-1.7v3h1.7c.1 1 .6 1.8 1.1 2.6l-1.2 1.2 2.2 2.2 1.2-1.2c.8.5 1.7.8 2.6 1.1v1.7h3v-1.7c1-.1 1.8-.6 2.6-1.1l1.2 1.2 2.2-2.2-1.2-1.2c.5-.8.8-1.7 1.1-2.6h1.7v-3h-1.7c-.1-1-.6-1.8-1.1-2.6l1.2-1.2-2.2-2.2-1.2 1.2c-.8-.5-1.7-.8-2.6-1.1zm-1.5 12.4c-1.8 0-3.3-1.5-3.3-3.3s1.5-3.3 3.3-3.3 3.3 1.5 3.3 3.3-1.5 3.3-3.3 3.3z"/></svg>