<svg enable-background="new 0 0 48 48" viewBox="0 0 48 48" xmlns="http://www.w3.org/2000/svg"><path d="m45.1 8.3h-20.9l-1.7-3c-.5-.7-1.4-1.6-2.9-1.6h-15c-.9 0-1.6.7-1.6 1.6v3c-1.4 0-3 1.3-3 3v7.4h.2c.6-1.4 1.7-1.4 2.6-1.4h42.2c1.1 0 2.3 0 2.8 1.4h.2v-7.4c0-1.7-1.2-3-2.9-3z"/><path d="m45.1 20.3h-42.1c-1.4 0-3 1.3-3 3v18c0 1.7 1.4 2.9 3 2.9h42c1.7 0 2.9-1.3 2.9-2.9v-18c.1-1.7-1.1-3-2.8-3zm-15.1 14.9c0 .7-.7 1.4-1.6 1.4-.5 0-.8-.2-1.2-.5l-5 2c-1.3.5-3 .2-4.2-.7l-5.4-4.2c-.1-.1-.1-.2-.1-.4 0-.1.1-.2.2-.2h7.7c.2.6 1 1.1 1.7 1.1 1.1 0 1.9-.8 1.9-1.8s-.8-1.8-1.9-1.8c-.7 0-1.4.5-1.7 1.2h-7.7c-.1 0-.2-.1-.2-.2s0-.2.1-.4l5.4-4.1c1.2-1 2.9-1.2 4.3-.6l4.9 2c.2-.4.7-.6 1.3-.6.8 0 1.6.6 1.6 1.4v6.2h-.1zm4.6.7c0 .4-.4.7-.7.7h-1.6c-.4 0-.7-.4-.7-.7v-7.7c0-.4.4-.7.7-.7h1.6c.4 0 .7.4.7.7z"/></svg>