<svg enable-background="new 0 0 48 48" viewBox="0 0 48 48" xmlns="http://www.w3.org/2000/svg"><path d="m19.7 6.2c.4 0 .6.2.8.4l1.6 2.9.7 1.3h1.5 20.9c.3 0 .4.2.4.5v3.5c-.2 0-.4 0-.5 0h-42.2-.2-.2v-3.5c0-.2.4-.5.5-.5h2.5v-2.5-2.1zm0-2.5h-15.1c-.9 0-1.6.7-1.6 1.6v3c-1.4 0-3 1.3-3 3v7.4h.2c.5-1.4 1.4-1.4 2.3-1.4h.4 42.1c1.1 0 2.3 0 2.8 1.4h.2v-7.4c0-1.7-1.2-3-2.9-3h-20.9l-1.7-3c-.4-.7-1.4-1.6-2.8-1.6z"/><path d="m45.1 17.2c.1.1.4.5.4 1.2v22.2c0 .8-.3 1.2-.4 1.2h-42.1c-.1 0-.5-.4-.5-1.2v-22.2c0-.7.4-1.1.6-1.2zm0-2.5h-42.1c-1.4 0-3 1.6-3 3.7v22.2c0 2.1 1.3 3.7 3 3.7h42.1c1.7 0 2.9-1.6 2.9-3.7v-22.2c0-2.1-1.2-3.7-2.9-3.7z"/><path d="m28.5 37.3c-1 0-1.8-.8-1.8-1.8v-.9l-5.9-4-.7.5c-.1.1-.3.2-.6.2-1 0-1.8-.8-1.8-1.8s.8-1.8 1.8-1.8c.3 0 .5.1.6.1l.7.5 5.9-4.1v-.9c0-1 .8-1.8 1.8-1.8s1.8.8 1.8 1.8-.8 1.8-1.8 1.8c-.3 0-.5-.1-.6-.2l-.7-.5-5.9 4v1.9l5.9 4 .7-.5c.1-.1.3-.1.6-.1 1 0 1.8.8 1.8 1.8s-.8 1.8-1.8 1.8z"/><path d="m28.5 22.9c.3 0 .5.2.5.5s-.2.5-.5.5l-.5-.3v-.2c0-.3.2-.5.5-.5m-9 6.1.5.3v.2.2l-.5.3c-.3 0-.5-.2-.5-.5s.2-.5.5-.5m9 6c.3 0 .5.2.5.5s-.2.5-.5.5-.5-.2-.5-.5v-.2zm0-14.6c-1.7 0-3 1.3-3 3v.2l-4.7 3.2c-.4-.2-.8-.4-1.3-.4-1.7 0-3 1.3-3 3s1.3 3 3 3c.5 0 1-.1 1.3-.4l4.7 3.1v.2c0 1.7 1.3 3 3 3s3-1.3 3-3-1.3-3-3-3c-.5 0-1 .1-1.3.4l-4.7-3.1c0-.1 0-.1 0-.2s0-.1 0-.4l4.7-3.1c.4.2.8.4 1.3.4 1.7 0 3-1.3 3-3s-1.3-2.9-3-2.9z"/></svg>