<svg enable-background="new 0 0 48 48" viewBox="0 0 48 48" xmlns="http://www.w3.org/2000/svg"><path d="m45.1 8.4h-20.9l-1.7-3c-.5-.7-1.4-1.6-2.9-1.6h-15c-.8 0-1.4.6-1.4 1.4v3c-1.7 0-3.1 1.3-3.1 3v7.3h.2c.6-1.4 1.7-1.4 2.6-1.4h42.1c1.1 0 2.3 0 2.8 1.4h.2v-7.3c0-1.6-1.2-2.8-2.9-2.8z"/><path d="m45.1 20h-42.1c-1.4 0-3 1.3-3 3v18.2c0 1.7 1.3 2.9 3 2.9h42.1c1.7 0 2.9-1.2 2.9-2.9v-18.2c0-1.5-1.2-3-2.9-3zm-26.7 14.8c.6.6.6 1.4 0 1.9-.2.2-.6.4-1 .4s-.7-.1-1-.4l-4.4-4.4c-.6-.5-.6-1.4 0-1.9l4.4-4.4c.6-.5 1.4-.5 1.9 0 .6.6.6 1.4 0 1.9l-3.5 3.5zm8.6-9.7-5.4 13.6c-.2.5-.7.8-1.3.8-.1 0-.4 0-.5-.1-.7-.2-1.1-1.1-.7-1.8l5.4-13.6c.2-.7 1.1-1.1 1.8-.7.7.2 1.1 1.1.7 1.8zm7.1 7.2-4.4 4.4c-.2.2-.6.4-1 .4s-.7-.1-1-.4c-.6-.6-.6-1.4 0-1.9l3.5-3.5-3.5-3.5c-.6-.6-.6-1.4 0-1.9s1.4-.5 1.9 0l4.4 4.4c.7.5.7 1.4.1 2z"/></svg>