<svg enable-background="new 0 0 48 48" viewBox="0 0 48 48" xmlns="http://www.w3.org/2000/svg"><path d="m19.7 6.2c.4 0 .6.2.8.4l1.6 2.9.7 1.3h1.5 20.9c.2 0 .4.3.4.5v3.5c-.2 0-.4 0-.5 0h-42.2-.2-.2v-3.5c0-.3.3-.5.5-.5h2.5v-2.5-2.1zm0-2.5h-15.1c-.9 0-1.6.8-1.6 1.6v3c-1.6 0-3 1.3-3 3v7.4h.2c.5-1.4 1.4-1.4 2.3-1.4h.4 42.1c1.1 0 2.3 0 2.8 1.4h.2v-7.4c0-1.6-1.2-3-2.9-3h-20.9l-1.7-3c-.4-.7-1.4-1.6-2.8-1.6z"/><path d="m45.1 17.2c.1.1.4.5.4 1.2v22.2c0 .6-.3 1-.4 1.1h-42.1c-.2 0-.5-.4-.5-1.1v-22.2c0-.7.4-1.2.5-1.2zm0-2.5h-42.1c-1.6 0-3 1.6-3 3.7v22.2c0 2.1 1.3 3.6 3 3.6h42.1c1.7 0 2.9-1.6 2.9-3.6v-22.2c0-2-1.2-3.7-2.9-3.7z"/><path d="m32.1 22.1c-.5 0-1 .2-1.3.5l-9.8 9.8-4-4c-.4-.4-.8-.5-1.3-.5s-1 .2-1.3.5c-.2.4-.5.8-.5 1.3s.2 1 .6 1.3c4.1 4.1 5.2 5.2 5.5 5.4.2.2.7.4 1.1.4.5 0 1-.1 1.3-.5l11-11c.4-.4.6-.8.5-1.3 0-.5-.2-1-.6-1.3-.3-.4-.7-.6-1.2-.6z"/></svg>