<svg enable-background="new 0 0 48 48" viewBox="0 0 48 48" xmlns="http://www.w3.org/2000/svg"><path d="m1.3 7.6c0-.9 1-1.8 1.8-1.8h1.3v-4.2c0-.2.2-.3.3-.3h15c1.1 0 1.7.6 2 1l2 3.6h18.6c1 0 1.6.7 1.6 1.8v4.9c-.6-.2-1.3-.2-1.8-.2h-39.2c-.4 0-1 0-1.6.2z"/><path d="m19.6 2.5c.1 0 .6 0 .9.4l1.6 2.9.7 1.3h1.5 17.9c.3 0 .4.2.4.5v3.5c-.2 0-.4 0-.5 0h-39.2c-.1 0-.2 0-.4 0v-3.5c0-.2.4-.5.5-.5h2.5v-2.5-2.1zm0-2.5h-15c-.9 0-1.6.7-1.6 1.6v3c-1.4 0-3 1.3-3 3v7.4h.2c.6-1.4 1.7-1.4 2.6-1.4h39.2c1.1 0 2.3 0 2.8 1.4h.2v-7.4c0-1.7-1.2-3-2.9-3h-17.9l-1.7-3c-.4-.8-1.4-1.6-2.9-1.6z"/><path d="m36 46.6c-4.4 0-8.4-2.6-10-6.7l-.3-.8h-22.7c-1 0-1.8-.7-1.8-1.6v-18c0-1 .9-1.8 1.8-1.8h39.1c1 0 1.6.7 1.6 1.8v9l.3.3c1.7 2.1 2.7 4.6 2.7 7 .1 6-4.8 10.8-10.7 10.8zm0-19.5c-4.9 0-8.8 4-8.8 8.8 0 4.9 4 8.8 8.8 8.8s8.8-4 8.8-8.8c0-4.9-3.9-8.8-8.8-8.8z"/><path d="m42.1 19.1c.3 0 .4.2.4.5v8.5.1c-1.8-1.5-4-2.4-6.5-2.4-5.5 0-10.1 4.5-10.1 10.1 0 .7.1 1.4.2 2.1h-1.3-21.8c-.3 0-.5-.1-.5-.4v-18c0-.3.3-.5.5-.5zm0-2.5h-39.1c-1.6 0-3 1.3-3 3v18c0 1.7 1.3 2.9 3 2.9h21.8c1.8 4.4 6.1 7.4 11.2 7.4 6.6 0 12-5.4 12-12 0-2.9-1.2-5.6-3-7.8v-8.5c0-1.7-1.2-3-2.9-3zm-6.1 26.9c-4.1 0-7.6-3.4-7.6-7.6 0-4.1 3.4-7.6 7.6-7.6 4.1 0 7.6 3.4 7.6 7.6s-3.5 7.6-7.6 7.6z"/><path d="m39 34.6h-6c-.8 0-1.6.7-1.6 1.6s.7 1.6 1.6 1.6h6c.8 0 1.6-.7 1.6-1.6 0-1-.8-1.6-1.6-1.6z"/></svg>