<svg enable-background="new 0 0 48 48" viewBox="0 0 48 48" xmlns="http://www.w3.org/2000/svg"><path d="m45.1 8.3h-20.9l-1.7-3c-.5-.7-1.4-1.6-2.9-1.6h-15c-.9 0-1.6.7-1.6 1.6v3c-1.4 0-3 1.3-3 3v7.4h.2c.6-1.6 1.7-1.4 2.6-1.4h42.2c1.1 0 2.3 0 2.8 1.4h.2v-7.4c0-1.7-1.2-3-2.9-3z"/><path d="m45.1 20.3h-42.1c-1.4 0-3 1.3-3 3v18c0 1.7 1.3 3 3 3h42.1c1.7 0 2.9-1.3 2.9-3v-18c0-1.7-1.2-3-2.9-3zm-16.3 18.7c-3 2-6.7 1.9-9.5 0l-.8 1.3c-.4.5-.7.5-1-.1l-2.3-5.2c-.2-.5 0-1 .6-1h5.6c.6 0 .8.4.5.8l-.8 1.3c2 1.3 4.6 1.2 6 .2s2.3-2.6 2.4-4.3h2.9c-.1 2.9-1.3 5.4-3.6 7zm3.5-9.2h-5.6c-.6 0-.8-.4-.5-.8l.8-1.1c-2-1.3-4.7-1.4-6.1-.4-1.7 1.1-2.5 3-2.4 4.9h-2.9c-.1-2.9 1.1-5.6 3.6-7.3 3-2 6.7-1.9 9.5 0l.8-1.3c.4-.5.7-.5 1 .1l2.3 5.3c.3.3.1.6-.5.6z"/></svg>