<svg enable-background="new 0 0 48 48" viewBox="0 0 48 48" xmlns="http://www.w3.org/2000/svg"><path d="m19.7 6.2c.4 0 .6.2.8.4l1.6 2.9.7 1.3h1.5 20.9c.3 0 .4.2.4.5v3.5c-.2 0-.4 0-.5 0h-42.2c-.1 0-.2 0-.4 0v-3.5c0-.2.4-.5.5-.5h2.5v-2.5-2.1zm0-2.5h-15.1c-.9 0-1.6.8-1.6 1.6v3c-1.4 0-3 1.3-3 3v7.4h.2c.6-1.4 1.7-1.4 2.6-1.4h42.2c1.1 0 2.3 0 2.8 1.4h.2v-7.4c0-1.7-1.2-3-2.9-3h-20.9l-1.7-3c-.4-.7-1.4-1.6-2.8-1.6z"/><path d="m45.2 17.2c.1.1.3.4.3 1.1v.1.1 22.2c0 .6-.3 1-.4 1.1l-42.1-.1c-.1 0-.5-.3-.5-1.1v-22.2c0-.7.4-1.1.6-1.2zm0-2.5h-42.2c-1.4 0-3 1.6-3 3.7v22.2c0 2.1 1.4 3.6 3 3.6h42.1c1.7 0 2.9-1.6 2.9-3.6v-22.2c.1-2-1.1-3.7-2.8-3.7z"/><path d="m21.3 34.5c-.7 0-1.5-.3-2-.7l-3.3-2.5h4.3c.6.7 1.5 1.1 2.4 1.1 1.7 0 3.2-1.4 3.2-3s-1.4-3-3.2-3c-1 0-1.8.5-2.4 1.2h-4.3l3.2-2.4c.6-.4 1.2-.7 1.9-.7.4 0 .8.1 1.2.2l5.9 2.4.6-.9h.3c.1 0 .3.1.3.2v5h-.1v1.3s-.2.2-.3.2-.3-.1-.5-.3l-.5-.4-5.7 2.3c-.3 0-.7 0-1 0z"/><path d="m26.7 27.7 1.4.6v1.7h-.1v.7l-1.2.5-.3.1c.3-.6.5-1.3.5-2 0-.5-.1-1.1-.3-1.6m-7 4.8c.3.3.7.5 1.1.7-.3-.1-.6-.2-.8-.4l-.4-.3zm1.5-9.4c-1 0-1.9.3-2.7.9l-5.4 4.1c-.1.1-.1.2-.1.4 0 .1.1.2.2.2h7.7c.2-.7 1-1.2 1.7-1.2 1.1 0 1.9.8 1.9 1.8s-.8 1.8-1.9 1.8c-.7 0-1.4-.5-1.7-1.1h-7.7c-.1 0-.2.1-.2.2s0 .2.1.4l5.4 4.2c.8.6 1.8 1 2.8 1 .5 0 1-.1 1.4-.2l5-2c.4.2.7.5 1.2.5.8 0 1.6-.7 1.6-1.4h.1v-6.2c0-.8-.7-1.4-1.6-1.4-.6 0-1.1.2-1.3.6l-4.9-2c-.5-.5-1.1-.6-1.6-.6z"/><path d="m33.3 26.1h.5v6.6h-.5z"/><path d="m34.3 24.9h-1.6c-.4 0-.7.4-.7.7v7.7c0 .4.4.7.7.7h1.6c.4 0 .7-.4.7-.7v-7.7c0-.4-.3-.7-.7-.7z"/></svg>