<svg enable-background="new 0 0 48 48" viewBox="0 0 48 48" xmlns="http://www.w3.org/2000/svg"><path d="m45.1 8.3h-20.9l-1.7-3c-.5-.7-1.4-1.6-2.9-1.6h-15c-.9 0-1.6.7-1.6 1.6v3c-1.4 0-3 1.3-3 3v7.4h.2c.6-1.6 1.7-1.4 2.6-1.4h42.2c1.1 0 2.3 0 2.8 1.4h.2v-7.4c0-1.7-1.2-3-2.9-3z"/><path d="m45.1 20.3h-42.1c-1.4 0-3 1.3-3 3v18c0 1.7 1.3 3 3 3h42.1c1.7 0 2.9-1.3 2.9-3v-18c0-1.7-1.2-3-2.9-3zm-24.1 12v.2l4.7 3.1c.4-.2.8-.4 1.3-.4 1.7 0 3 1.3 3 3s-1.3 3-3 3-3-1.3-3-3c0-.1 0-.1 0-.2l-4.7-3.1c-.4.2-.8.4-1.3.4-1.7 0-3-1.3-3-3s1.3-3 3-3c.5 0 1 .1 1.3.4l4.7-3.2c0-.1 0-.1 0-.2 0-1.7 1.3-3 3-3s3 1.3 3 3-1.3 3-3 3c-.5 0-1-.1-1.3-.4l-4.7 3z"/></svg>