<svg enable-background="new 0 0 48 48" viewBox="0 0 48 48" xmlns="http://www.w3.org/2000/svg"><path d="m42 25.6v-21.2c0-2.4-2-4.4-4.4-4.4h-33.2c-2.4 0-4.4 2-4.4 4.4v33c0 2.6 2 4.6 4.4 4.6h21.1c2 3.6 6 6 10.4 6 6.6 0 12-5.4 12-12 .1-4.4-2.3-8.3-5.9-10.4zm-34.9 2.6c.1.4.4.4.7.4h18.8c-.7 1-1.3 1.9-1.8 3h-18.8c-.8 0-1.4-.6-1.4-1.4v-24.2c0-.8.6-1.4 1.4-1.4h30c.8 0 1.4.6 1.4 1.4v18.1c-.4-.1-.9-.1-1.4-.1-1 0-2 .1-2.9.4l-6.7-10c-.5-.7-1.2-.7-1.7 0l-4.3 6.8c-.5.7-1.3.8-1.9.2l-1.3-1.3c-.6-.6-1.6-.6-2.3 0l-7.8 7.2c-.1.4-.1.5 0 .9zm28.9 15.4c-4.1 0-7.6-3.4-7.6-7.6 0-4.1 3.4-7.6 7.6-7.6 4.1 0 7.6 3.4 7.6 7.6 0 4.1-3.5 7.6-7.6 7.6z"/><circle cx="12" cy="12" r="4.6"/><path d="m38.9 34.6.1-1.6c0-1.7-1.3-3-3-3s-3 1.3-3 3v1.6h-.4c-.7 0-1.1.6-1.1 1.3v3.4c0 .7.4 1.3 1.1 1.3h6.4c.7 0 1.6-.6 1.6-1.3v-3.4c0-.9-1-1.3-1.7-1.3zm-1.3 0h-3v-1.6c0-.8.7-1.6 1.6-1.6s1.6.7 1.6 1.6v1.6z"/></svg>