<svg enable-background="new 0 0 48 48" viewBox="0 0 48 48" xmlns="http://www.w3.org/2000/svg"><path d="m41.8 21.7-2.4-3.2c-.1-.2-.1-.5 0-.7l2.3-3.2c.2-.2.1-.7-.2-.8l-3.5-1.9c-.2-.1-.4-.4-.4-.6l.6-4c0-.4-.2-.7-.6-.7l-4-.1c-.2 0-.5-.2-.6-.5l-1.1-3.8c-.1-.4-.5-.5-.8-.4l-3.6 1.6c-.2.1-.5 0-.7-.1l-2.6-3c-.2-.2-.6-.2-1 0l-2.6 3c-.1.2-.5.2-.7.1l-3.7-1.6c-.4-.1-.7 0-.8.4l-1.1 3.8c-.1.2-.2.5-.5.5l-4 .2c-.4-.1-.6.3-.6.6l.7 4c0 .2-.1.5-.2.6l-3.5 1.9c-.4.1-.4.6-.2.8l2.4 3.2c.1.2.1.5 0 .7l-2.4 3.3c-.2.2-.1.7.2.8l3.5 1.9c.2.1.4.4.4.6l-.6 4c0 .4.2.7.6.7l4 .1c.2 0 .5.2.6.5l1.1 3.8c.1.4.5.5.8.4l3.6-1.6c.2-.1.5 0 .7.1l2.6 3c.2.2.6.2 1 0l2.6-3c.1-.2.5-.2.7-.1l3.7 1.6c.4.1.7 0 .8-.4l1.1-3.8c.1-.2.2-.5.5-.5l4-.2c.4 0 .6-.4.6-.7l-.7-4c0-.2.1-.5.2-.6l3.5-1.9c.4-.2.4-.5.3-.8zm-17.8 7.3c-5.9 0-10.8-4.8-10.8-10.8s4.8-10.7 10.8-10.7 10.8 4.8 10.8 10.8c0 5.8-4.8 10.7-10.8 10.7z"/><path d="m33.7 36c-.6.6-1.3 1-2.2 1-.4 0-.6 0-.8-.1l-2.6-.9-1.9 1.8c-.1 0-.1.1-.2.1l3.1 9.7c.1.4.6.5.7.1l2.3-2.9c.1-.1.4-.2.5-.1l3.6 1.1c.4.1.6-.2.6-.6z"/><path d="m20 36-2.5.7c-.2.1-.6.1-.8.1-.8 0-1.7-.4-2.2-1l-3 9.2c-.1.4.2.6.6.6l3.6-1.1c.1 0 .4 0 .5.1l2.3 2.9c.2.2.7.2.7-.1l3.1-9.7c-.1 0-.1-.1-.2-.1z"/><path d="m31 16-6.1-1.9c-.3-.1-.7-.1-1 0l-6.1 1.9c-.5.2-.5.8 0 1l1.1.3c-.2.3-.4.6-.4 1-.2.1-.4.3-.4.6 0 .2.1.4.3.6l-.6 2.5c0 .2.1.4.3.4h1.2c.2 0 .4-.2.3-.4l-.6-2.5c.2-.1.3-.3.3-.6s-.1-.5-.3-.6c0-.3.2-.6.5-.8l4.3 1.3c.2.1.6.1 1 0l6.2-1.8c.5-.2.5-.8 0-1zm-5.9 3.5c-.6.2-1.2.1-1.4 0l-3.2-1-.3 2.5c0 .8 1.9 1.4 4.2 1.4s4.2-.6 4.2-1.4l-.3-2.5z"/></svg>