<svg enable-background="new 0 0 48 48" viewBox="0 0 48 48" xmlns="http://www.w3.org/2000/svg"><path d="m23.7 2.8 1.6 1.8.3.3.4.2c.3.2.8.4 1.4.4.4 0 .7-.1 1-.2l2.1-.9.7 2.3c.4 1.1 1.4 1.9 2.4 1.9h2.4l-.4 2.4v.1.1c0 .9.6 1.9 1.5 2.4l2 1.1-1.3 1.9-.1.1-.1.1c-.4.8-.4 1.7 0 2.5l.1.2.1.1 1.4 1.8-2.2 1.2-.3.1-.1.3c-.6.6-.8 1.4-.8 2v.2.2l.4 2.4-2.4.1c-.6 0-1.6.3-2.2 1.6l-.1.2-.1.2-.7 2.3-2.2-.9c-.4-.2-.9-.2-1.1-.2-.8 0-1.5.4-2 1l-1.4 1.5-1.6-1.8-.3-.3-.4-.2c-.2-.1-.7-.3-1.3-.3-.4 0-.7.1-1 .2l-2.1.9-.7-2.3c-.4-1.1-1.4-1.9-2.4-1.9l-2.4-.1.4-2.4v-.1-.1c0-.9-.6-1.9-1.5-2.4l-2-1.1 1.4-2 .1-.1.1-.1c.4-.8.4-1.7 0-2.5l-.1-.2-.2-.2-1.4-1.8 2-1.1.3-.1.2-.2c.6-.6.8-1.4.8-2v-.2-.2l-.4-2.3 2.4-.1c.6 0 1.6-.3 2.2-1.6l.1-.2.1-.2.7-2.3 2.2.9c.4.2.9.2 1.1.2.8 0 1.5-.4 2-1zm.3 26.9c6.3 0 11.5-5.1 11.5-11.4s-5.2-11.5-11.5-11.5c-6.4 0-11.5 5-11.5 11.4 0 6.3 5.2 11.5 11.5 11.5m-.2-29.5c-.2 0-.4 0-.6.1l-2.6 3c-.1.1-.2.2-.4.2-.1 0-.2 0-.3-.1l-3.7-1.6c-.1 0-.2 0-.3 0-.3 0-.5.1-.5.4l-1.1 3.8c-.1.2-.2.5-.5.5l-4 .2h-.1c-.3 0-.5.3-.5.6l.7 4c0 .2-.1.5-.2.6l-3.5 1.9c-.4.1-.4.6-.2.8l2.4 3.2c.1.2.1.5 0 .7l-2.4 3.3c-.2.2-.1.7.2.8l3.5 1.9c.2.1.4.4.4.6l-.6 4c0 .4.2.7.6.7l4 .1c.2 0 .5.2.6.5l1.1 3.8c.1.3.3.4.6.4h.2l3.6-1.6h.2c.2 0 .4.1.5.1l2.6 3c.1.1.3.2.4.2.2 0 .4 0 .6-.2l2.6-3c.1-.1.2-.2.4-.2.1 0 .2 0 .3.1l3.7 1.6h.3c.3 0 .5-.1.5-.4l1.1-3.8c.1-.2.2-.5.5-.5l4-.2c.4 0 .6-.4.6-.7l-.7-4c0-.2.1-.5.2-.6l3.5-1.9c.4-.2.4-.5.3-.8l-2.4-3.2c-.1-.2-.1-.5 0-.7l2.3-3.2c.2-.2.1-.7-.2-.8l-3.5-1.9c-.2-.1-.4-.4-.4-.6l.6-4c0-.4-.2-.7-.6-.7l-4-.1c-.2 0-.5-.2-.6-.5l-1.1-3.8c-.1-.3-.3-.4-.6-.4-.1 0-.2 0-.2 0l-3.6 1.6c-.1 0-.1 0-.2 0-.2 0-.4-.1-.5-.1l-2.6-3c-.1-.1-.3-.1-.4-.1zm.2 27.5c-5.2 0-9.5-4.2-9.5-9.5s4.2-9.4 9.5-9.4 9.5 4.2 9.5 9.5c0 5.1-4.2 9.4-9.5 9.4z"/><path d="m28.6 38.3 1.4.5c.5.2 1 .2 1.5.2.4 0 .7 0 1.1-.1l1.4 4.1-.6-.2c-.3-.1-.6-.2-.9-.2-.7 0-1.3.3-1.8.7l-.1.1-.1.1-.4.6-1.8-5.6zm5.1-2.3c-.6.6-1.3 1-2.2 1-.4 0-.6 0-.8-.1l-2.6-.9-1.9 1.8c-.1 0-.1.1-.2.1l3.1 9.7c.1.2.2.4.4.4.1 0 .3-.1.3-.3l2.3-2.9c.1-.1.2-.1.4-.1h.1l3.6 1.1h.1c.3 0 .5-.3.5-.6z"/><path d="m19.6 38.2.4.3-1.7 5.4-.4-.6-.1-.1-.1-.1c-.7-.7-1.6-.7-1.9-.7h-.3l-.3.1-.8.2 1.4-4.2c.3.1.7.1 1 .1.5 0 1 0 1.5-.2zm-5.1-2.4-3 9.2c-.1.4.2.6.6.6l3.6-1.1c.1 0 .4 0 .5.1l2.3 2.9c.1.1.2.1.4.1s.3-.1.3-.2l3.1-9.7c-.1 0-.1-.1-.2-.1l-2.1-1.6-2.5.7c-.2.1-.6.1-.8.1-.8 0-1.7-.4-2.2-1z"/></svg>