<svg enable-background="new 0 0 48 48" viewBox="0 0 48 48" xmlns="http://www.w3.org/2000/svg"><path d="m12.2 13.3h-10.6c-.9 0-1.6.7-1.6 1.6v30.8c0 .8.7 1.6 1.6 1.6h10.7c.8 0 1.6-.7 1.6-1.6v-30.8c-.1-.9-.8-1.6-1.7-1.6zm-1.5 30.9h-7.6v-27.8h7.6z"/><path d="m46.4 21.5h-10.6c-.8 0-1.6.7-1.6 1.6v22.7c0 .8.7 1.6 1.6 1.6h10.7c.8 0 1.6-.7 1.6-1.6v-22.8c-.1-.8-.8-1.5-1.7-1.5zm-9.1 3.1h2.4l-2.4 2.4zm0 4.9 4.9-4.9h2.5l-7.3 7.3v-2.4zm7.6 14.7h-2.4l2.4-2.4zm0-5-4.9 5h-2.5l7.3-7.3zm0-4.9-7.6 7.6v-2.5l7.6-7.6zm0-5-7.6 7.6v-2.5l7.6-7.6z"/><path d="m29.3.7h-10.7c-.8 0-1.6.7-1.6 1.6v43.3c0 .8.7 1.6 1.6 1.6h10.7c.8 0 1.6-.7 1.6-1.6v-43.3c-.1-.9-.7-1.6-1.6-1.6z"/></svg>