<svg enable-background="new 0 0 48 48" viewBox="0 0 48 48" xmlns="http://www.w3.org/2000/svg"><path d="m28.1 21.8s-1.1 9.9 6.4 10c7.3-.1 6.4-10 6.4-10-.4-6.6-5.8-6.5-6.4-6.5-.6-.1-6.2-.1-6.4 6.5z"/><path d="m44.6 34.8c-3.4-1.3-5.3-2.5-5.3-2.5l-2.5 8.2-.4 1.1-1.2-3.2c2.6-3.7-.2-3.8-.7-3.8-.5 0-3.4.1-.7 3.8l-1.2 3.2-.4-1.1-2.5-8.2s-1.1.7-2.9 1.6c1.1.8 1.9 2 2.3 3.5.5 1.8.6 3.8.6 6.5v1.1h4.7 13.6c-.1-5.7.2-8.7-3.4-10.2z"/><path d="m13.5 31.7c.1 0 .1 0 0 0 7.5-.1 6.4-10 6.4-10-.4-6.6-5.8-6.5-6.4-6.5-.5 0-6-.1-6.4 6.5.2.1-.9 10 6.4 10z"/><path d="m23.7 34.8c-3.4-1.3-5.3-2.5-5.3-2.5l-2.5 8.2-.4 1.1-1.2-3.2c2.6-3.7-.2-3.8-.7-3.8-.5 0-3.4.1-.7 3.8l-1.2 3.2-.4-1.1-2.5-8.2s-2 1.3-5.3 2.5c-3.7 1.3-3.5 4.3-3.5 10.1h13.6 13.6c0-5.6.3-8.6-3.5-10.1z"/><path d="m16.5 13.5c.7.1 1.8.1 2.8-.6.5.2 1.1.5 1.8.5h6.7c2 0 3.7-1.7 3.7-3.7v-2.9c0-2-1.7-3.7-3.7-3.7h-6.7c-2 0-3.7 1.7-3.7 3.7v2.8c0 .7.2 1.3.5 1.9-.2.5-.7 1.2-1.3 1.6-.3.1-.3.3-.1.4zm11.1-6.2c.1 0 .1 0 .2-.1h.2c.6 0 1.2.5 1.2 1.2s-.5 1.2-1.2 1.2c-.1 0-.1 0-.2 0s-.1 0-.2-.1c-.4-.1-.7-.6-.7-1.1s.2-1 .7-1.1zm-3.1-.3c.6 0 1.2.5 1.2 1.2s-.5 1.2-1.2 1.2-1.2-.5-1.2-1.2c0-.6.6-1.2 1.2-1.2zm-4.7 1c0-.4.2-.7.6-.8.1-.2.3-.2.6-.2.6 0 1.2.5 1.2 1.2s-.5 1.2-1.2 1.2c-.2 0-.4 0-.6-.1-.4-.1-.6-.5-.6-.8z"/></svg>