<svg enable-background="new 0 0 48 48" viewBox="0 0 48 48" xmlns="http://www.w3.org/2000/svg"><path d="m10.9 35.2c-.2 1.2-.1 2.6.3 4.1l1.3 4.6 3-3.7c.2-.3.6-.6.9-.9 1.5 2.3 3.4 4.8 5.1 6.3h-12c-.8 0-1.3-.3-1.9-.9l-.1-.1h-.1c-.1-.1-.3-.2-.3-1.1v-1l.1-1.7v-.1-.1c0-.1 0-.1 0-.2 0-.2.1-.5.1-.8 0-.6.1-1 0-1.4.3-.5.7-1.4 2.1-2.2.3-.1.5-.3.6-.4l.2-.1c.1-.1.3-.2.7-.3m26.2 0c.3.1.6.2.8.3 0 0 .1.1.2.1.1.1.3.2.6.4.7.5 1.6 1.4 2 2.7 0 .2.1.6.2 1.1 0 .3 0 .5.1.6v.2.1.1l.1 1.7v1c0 .3 0 .9-.4 1.2l-.1.1-.1.1c-.5.6-1.4.7-1.8.7h-12.2c1.7-1.5 3.6-4.1 5.1-6.3.3.3.7.6.9.9l3 3.7 1.3-4.6c.4-1.5.5-2.9.3-4.1m-5.1-4.4c0 .2.1.5.1.7.8.6 3.5 2.9 2.3 7.1 0 0-1.9-2.3-3.8-2.5-1.8 3.1-4.9 7.2-6.6 8.3-1.7-1.1-4.8-5-6.6-8.3-1.9.2-3.8 2.5-3.8 2.5-1.2-4.2 1.4-6.5 2.3-7.1 0-.2 0-.5.1-.7-.1 0-6.5 2.2-6.9 2.4-.4.1-.6.4-1 .6-1.7 1.1-2.9 2.5-3.2 4.4.1.2 0 1.3 0 1.3 0 .4-.1.7-.1 1.1l-.1 1.8v1.1c0 1.1.2 2.2 1.1 3 1.1 1.1 2.3 1.6 3.7 1.6h14.6 14.6c1.4 0 2.8-.5 3.7-1.6.8-.8 1.1-1.9 1.1-3 0-.2 0-1.1 0-1.1l-.1-1.8c0-.4-.1-.7-.1-1.1 0 0-.2-1.1-.2-1.3-.5-1.9-1.7-3.4-3.2-4.4-.4-.2-.6-.4-1-.6-.5-.2-6.7-2.3-6.9-2.4z"/><path d="m23.8 38c-3-2.2-3.4-5.3-3.4-6.1l1.1-3.2c.1-.4.1-.8-.2-1.1s-.6-.5-1-.5h-.1c-.1 0-.3 0-.4-.1-.7-.2-1.4-.3-2-.4l-.4-.1c-1.6-.4-3.2-.7-4.4-1.7.8-1.3.9-1.7.9-1.9 0-.1 0-.2 0-.2v-.5c0-.5-.1-1-.2-1.6v-.3c-.1-.4-.2-.7-.3-1.1-.1-.2-.1-.4-.2-.6-.8-1.9-1.1-3.5-1.1-5.1 0-6.7 5.4-12.2 12-12.3 3.2 0 6.3 1.4 8.5 3.8 2.1 2.3 3.2 5.2 3 8.3 0 1.6-.4 3.3-1.1 5.1 0 .1-.1.2-.1.2 0 .2-.1.4-.2.6-.1.3-.2.6-.3 1v.3c-.1.5-.2 1-.2 1.6v.5c0 .2 0 .3.1.5.1.3.5.9.9 1.6-1.4 1.1-3.1 1.4-4.9 1.8-.1 0-.2.1-.3.1-.3.1-.6.2-1.1.2-.2 0-.3 0-.5.1-.1 0-.3 0-.5.1-.1 0-.1 0-.1 0-.4 0-.8.2-1 .5s-.3.8-.1 1.1l1.1 3.2c-.1.9-.5 3.9-3.5 6.2z"/><path d="m24 2.6c2.9 0 5.7 1.3 7.6 3.4 1.9 2 2.9 4.7 2.7 7.4v.1c0 1.4-.3 2.9-1 4.5-.1.1-.1.3-.1.5 0 .1-.1.3-.1.4-.1.3-.3.7-.4 1.2v.1.2c-.1.6-.2 1.1-.2 1.8v.5c0 .3.1.6.2.9.1.2.2.4.3.7-.9.4-2 .7-3.5 1-.2 0-.4.1-.6.2-.1 0-.4.1-.7.1-.2 0-.3 0-.5.1-.2 0-.5.1-.6.1-.7.1-1.4.4-1.9 1-.5.7-.6 1.5-.3 2.3l1 2.9c-.1.8-.5 2.7-2.2 4.3-1.7-1.6-2.1-3.5-2.2-4.3l1-2.9c.3-.8.2-1.6-.3-2.3-.4-.6-1.1-1-1.9-1-.1 0-.2 0-.4-.1-.7-.2-1.4-.3-2-.4l-.4-.1c-1.1-.2-2.1-.5-3-.9.3-.6.4-.9.4-1.2 0-.2 0-.3 0-.5v-.5c0-.6-.1-1.2-.2-1.8v-.2c0-.1 0-.1 0-.2-.1-.4-.2-.7-.4-1.1-.1-.2-.1-.4-.2-.6 0-.1 0-.1-.1-.2-.7-1.7-1-3.1-1-4.5.3-5.9 5.1-10.8 11-10.9m0-2.5c-7.3.1-13.2 6.1-13.2 13.5 0 2 .5 3.8 1.2 5.5.2.6.4 1.1.5 1.5.1.6.2 1.1.2 1.6v.5c-.1.5-1.1 2-1.3 2.3 1.7 1.9 4 2.3 6.2 2.8.7.1 1.3.2 2 .4.2 0 .5.1.7.1l-1.2 3.4s0 4.9 4.7 7.8c4.7-3 4.7-7.8 4.7-7.8l-1.2-3.4c.2 0 .5-.1.7-.1.7-.1 1.4-.1 2-.4 2.3-.5 4.5-1 6.2-2.8-.1-.2-1.1-1.8-1.3-2.3 0-.1 0-.4 0-.5 0-.5.1-1 .2-1.6.1-.5.4-1.1.5-1.6.7-1.7 1.2-3.6 1.2-5.5.4-7.3-5.5-13.3-12.8-13.4z"/></svg>