<svg enable-background="new 0 0 48 48" viewBox="0 0 48 48" xmlns="http://www.w3.org/2000/svg"><path d="m46.1 43.9c0-.2-.1-.4-.1-.6-.5-1.9-1.6-5.3-2-6.7 0-.2-.1-.5-.2-.7-.4-.7-.8-1.2-1.4-1.6s-.1-.1-.2-.1c0 0-.1 0-.1-.1-1.2-.6-4.9-2-4.9-2-1.9-.8-3.8-1.6-5.8-2.2-.4 1.4-3.7 11.3-4.2 12.6l-.6-9.3c.1-.2.2-.5.4-.7l1.4-2.8c-1 .8-2.5 1.3-4.1 1.3s-3-.5-4.1-1.3l1.3 2.8c.1.2.2.5.4.7l-.5 9.1c-.7-1.3-4.1-11.2-4.4-12.6-1.9.7-4 1.4-5.8 2.2s-3.7 1.6-4.9 2c0 0-.1 0-.1.1-.1 0-.2.1-.2.1-.6.4-1.1 1-1.4 1.6-.1.2-.2.5-.2.7-.5 1.6-1.6 4.9-2 6.7-.4.3-.4.4-.4.6v.6c0 2 1.6 3.6 3.6 3.6h3.5 14.9.2.2 14.9 3.5c2 0 3.6-1.6 3.6-3.6-.3-.1-.3-.2-.3-.4z"/><path d="m33.4 12.8c0-.6.1-3 .1-3.5 0-5.2-4.2-9.4-9.4-9.4-.1 0-.2 0-.2 0-.1 0-.1 0-.1 0-5.3 0-9.5 4.2-9.5 9.4 0 .5.1 2.9.1 3.5-.2 0-2.3-.5-2 2 .5 5.3 2.5 4.3 2.5 4.3 1 3.2 2.5 5.3 4.1 6.6 2.4 2 4.7 2.3 4.7 2.3h.2.2s2.3-.2 4.7-2.3c1.6-1.3 3.1-3.4 4.1-6.6.1 0 2 1.1 2.5-4.3.3-2.5-1.7-2-2-2z"/></svg>