<svg enable-background="new 0 0 48 48" viewBox="0 0 48 48" xmlns="http://www.w3.org/2000/svg"><path d="m16.9 25.7c.2-1.1.8-2.2 1.7-3-1.4-1-2.5-2.2-3.4-3.6h2.6c.4 1.2.8 2.2 1.3 3 .4-.4.7-.6 1.1-.8.2-.1.4-.2.6-.4-.4-.6-.6-1.2-.8-1.8h3v1.1h.5.6.8v-1.1h3c-.2.6-.5 1.2-.8 1.8 0 0 .1 0 .1.1.6.4 1.1.8 1.4 1.2.5-.8 1-1.9 1.3-3h2.6c-.8 1.4-1.9 2.6-3.2 3.5l.7.7c.5.6.8 1.3 1 2.3 3.7-2.4 6.2-6.6 6.2-11.4 0-7.4-6.1-13.6-13.6-13.6s-13.4 6.1-13.4 13.6c.2 4.8 2.9 9 6.7 11.4zm16.8-14.4c.2 1 .4 1.9.4 2.9s-.1 1.9-.4 2.8h-3c.1-.8.2-1.8.2-2.9s-.1-2-.2-2.9c0 .1 3 .1 3 .1zm-.8-2.1h-2.6c-.6-1.8-1.3-3.2-2.2-4.4 2 .9 3.7 2.5 4.8 4.4zm-7.8-4.8c1 1 2.2 2.5 3 4.8h-3zm0 6.9h3.6c.1.8.2 1.8.2 2.9s-.1 2-.2 2.9h-3.6zm-2.1 5.7h-3.6c-.1-.8-.2-1.8-.2-2.9s.1-2 .2-2.9h3.6zm0-7.8h-3c.8-2.3 2-3.8 3-4.8zm-3-4.3c-.8 1.2-1.7 2.6-2.2 4.4h-2.6c1.1-2 2.8-3.6 4.8-4.4zm-6.1 9.2c0-1 .1-1.9.4-2.9h3c-.1.8-.2 1.8-.2 2.9s.1 2 .2 2.9h-3c-.3-.9-.4-1.9-.4-2.9z"/><path d="m45.6 40.5c-2.3-.8-3.6-1.8-3.6-1.8l-1.7 5.6-.2.7-.7-2.2c1.8-2.5-.1-2.6-.5-2.6-.4 0-2.3.1-.5 2.6l-.7 2.2-.4-.7-1.8-5.5s-.7.5-2 1.1c-.4-.2-.7-.5-1.2-.7-2.6-1.1-4.3-2-4.3-2l-2 6.6-.2.8-1.2-2.6c2.2-3-.1-3.1-.6-3.1-.4 0-2.8.1-.6 3.1l-1 2.6-.2-.8-2-6.6s-1.6 1.1-4.3 2c-.5.1-.8.4-1.2.7-1.3-.6-2-1.1-2-1.1l-1.8 5.5-.2.7-.7-2.2c1.8-2.5-.1-2.6-.5-2.6-.4 0-2.3.1-.5 2.6l-.7 2.2-.4-.7-1.9-5.4s-1.3.8-3.6 1.8c-2.5 1-2.3 3-2.4 6.8h8.8.5 3.7 5.5 4.9.6 5.5 5.5 3.2.5 9.3c0-4 .1-6-2.4-7z"/><path d="m37.6 26.3c-.4.1-.7.4-1.1.5-.4.2-.7.6-1.1.8-.5.5-1 1.2-1.2 2-.1.6-.1 1.3 0 1.9 0 .2.1.4.1.6-.4 0-.8.2-.4 1.7.4 1.1.6 1.4.8 1.4.2 1.3 1.2 3 2.9 3.5.7.2 1.4.2 2 0 1.6-.6 2.6-2.3 2.9-3.5.2 0 .5-.4.8-1.4.5-1.4 0-1.7-.4-1.7.1-.2.1-.4.1-.6.6-3.8-1.3-4-1.3-4s-.4-.6-1.2-1.1c-.6-.4-1.3-.6-2.4-.5.1.2-.3.2-.5.4z"/><path d="m5.4 35.4c.2 1.3 1.2 3 2.9 3.5.7.2 1.4.2 2 0 1.6-.6 2.6-2.3 2.9-3.5.2 0 .5-.4.8-1.4.5-1.4 0-1.7-.4-1.7.1-.2.1-.4.1-.6.6-3.8-1.3-4-1.3-4s-.4-.6-1.2-1.1c-.6-.4-1.3-.6-2.4-.5-.4 0-.6.1-1 .1-.4.1-.7.4-1.1.5-.4.2-.7.6-1.1.8-.5.5-1 1.2-1.2 2-.1.6-.1 1.3 0 1.9 0 .2.1.4.1.6-.4 0-.8.2-.4 1.7.8 1.3 1.1 1.7 1.3 1.7z"/><path d="m18.5 31.4c.4 1.3.7 1.7 1 1.7.2 1.6 1.4 3.5 3.4 4.2.8.2 1.7.2 2.5 0 1.9-.7 3.1-2.6 3.4-4.2.2 0 .6-.4 1-1.7.5-1.8 0-2-.5-2 .1-.2.1-.5.2-.7.7-4.6-1.4-4.8-1.4-4.8s-.4-.7-1.3-1.3c-.7-.4-1.6-.7-2.8-.6-.4 0-.7.1-1.1.2-.5.1-.8.4-1.2.6-.5.2-.8.6-1.3 1.1-.6.6-1.1 1.4-1.3 2.4-.2.7-.1 1.6 0 2.3 0 .2.1.5.2.7-.8.1-1.4.3-.8 2.1z"/></svg>