<svg enable-background="new 0 0 48 48" viewBox="0 0 48 48" xmlns="http://www.w3.org/2000/svg"><path d="m19.6 2.5c4.6 0 8.8 1.8 12 5 5.9 5.9 6.6 15.4 1.6 22.1l-1.3 1.7 1.5 1.5 1.1 1.1 1.8 1.8.7-.7 8.2 8.2c.5.5.5 1.5 0 1.9-.2.2-.6.3-.9.3-.4 0-.7-.1-.9-.3l-8.2-8.2.7-.7-1.8-1.8-1.1-1.1-1.5-1.5-1.7 1.3c-2.9 2.2-6.4 3.4-10.1 3.4-4.5 0-8.8-1.8-12-5-6.6-6.6-6.6-17.4 0-24.1 3.1-3.1 7.3-4.9 11.9-4.9m-.3 31.8c4 0 7.8-1.6 10.6-4.4 2.8-2.7 4.4-6.4 4.4-10.4s-1.6-8-4.4-10.8-6.6-4.4-10.6-4.4-7.8 1.6-10.6 4.4c-5.8 5.8-5.8 15.4 0 21.2 2.8 2.8 6.6 4.4 10.6 4.4m.3-34.3c-5 0-10 1.9-13.8 5.7-7.6 7.6-7.6 20 0 27.6 3.8 3.8 8.8 5.7 13.7 5.7 4.1 0 8.2-1.3 11.7-3.9l1.1 1.1-.7.7 10 10c.7.7 1.7 1.1 2.7 1.1s2-.4 2.7-1.1c1.4-1.4 1.4-3.9 0-5.4l-10-10-.7.7-1.1-1.1c5.7-7.6 5.1-18.6-1.8-25.4-3.8-3.8-8.8-5.7-13.8-5.7zm-.3 31.8c-3.2 0-6.4-1.2-8.8-3.7-4.9-4.9-4.9-12.8 0-17.7 2.4-2.4 5.6-3.7 8.8-3.7s6.4 1.2 8.8 3.7c4.9 4.9 4.9 13 0 17.7-2.4 2.5-5.6 3.7-8.8 3.7z"/><path d="m15.4 18.6c.2 1.3 1.2 2.9 2.9 3.5.7.2 1.4.2 2 0 1.6-.6 2.7-2.2 2.9-3.5.2 0 .5-.4.8-1.4.4-1.4 0-1.7-.4-1.7.1-.2.1-.4.1-.6.6-3.9-1.2-4-1.2-4s-.4-.6-1.1-1.1c-.6-.4-1.3-.6-2.4-.5-.4 0-.6.1-1 .1-.4.1-.7.4-1.1.5-.4.2-.7.5-1.1.8-.5.5-1 1.2-1.1 2-.1.6-.1 1.2 0 1.9 0 .2.1.4.1.6-.4 0-.8.1-.4 1.7.5 1.3.9 1.7 1 1.7z"/><path d="m26.3 23.8c-2.3-.9-3.6-1.8-3.6-1.8l-1.7 5.6-.2.7-.8-2.1c1.8-2.5-.1-2.7-.5-2.7-.4 0-2.3.1-.5 2.7l-.7 2.2-.5-.7-1.7-5.5s-1.3.8-3.6 1.8c-1.2.5-1.8 1.2-2 2.2.4.5.7.8 1.1 1.2 4.3 4.3 11.5 4.3 15.8 0 .4-.4.7-.8 1.1-1.2-.4-1.2-1-2-2.2-2.4z"/></svg>