<svg enable-background="new 0 0 48 48" viewBox="0 0 48 48" xmlns="http://www.w3.org/2000/svg"><path d="m43.4 40.6c0-.4-.1-.7-.1-1.1 0 0-.2-1.1-.2-1.3-.5-1.9-1.7-3.4-3.2-4.4-.4-.2-.6-.4-1-.6-.5-.2-6.7-2.3-6.9-2.4 0 .2.1.5.1.7.8.6 3.5 2.9 2.3 7.1 0 0-1.9-2.3-3.8-2.5-1.8 3.1-4.9 7.2-6.6 8.3-1.7-1.1-4.8-5-6.6-8.3-1.9.2-3.8 2.5-3.8 2.5-1.2-4.2 1.4-6.5 2.3-7.1 0-.2 0-.5.1-.7-.1 0-6.5 2.2-6.9 2.4-.4.1-.6.4-1 .6-1.7 1.1-2.9 2.5-3.2 4.4.1.2 0 1.3 0 1.3 0 .4-.1.7-.1 1.1l-.1 1.8v1.1c0 1.1.2 2.2 1.1 3 1.1 1.1 2.3 1.6 3.7 1.6h14.6 14.6c1.4 0 2.8-.5 3.7-1.6.8-.8 1.1-1.9 1.1-3 0-.2 0-1.1 0-1.1s-.1-1.8-.1-1.8z"/><path d="m12.5 20.6c.1.6.2 1.1.2 1.6v.5c-.1.5-1.1 2-1.3 2.3 1.7 1.9 4 2.3 6.2 2.8.7.1 1.3.2 2 .4.2 0 .5.1.7.1l-1.2 3.4s0 4.9 4.7 7.8c4.7-3 4.7-7.8 4.7-7.8l-1.2-3.4c.2 0 .5-.1.7-.1.7-.1 1.4-.1 2-.4 2.3-.5 4.5-1 6.2-2.8-.1-.2-1.1-1.8-1.3-2.3 0-.1 0-.4 0-.5 0-.5.1-1 .2-1.6.1-.5.4-1.1.5-1.6.7-1.7 1.2-3.6 1.2-5.5.4-7.3-5.5-13.3-12.8-13.4-7.3.1-13.2 6.1-13.2 13.5 0 2 .5 3.8 1.2 5.5.2.6.4 1.1.5 1.5z"/></svg>