<svg enable-background="new 0 0 48 48" viewBox="0 0 48 48" xmlns="http://www.w3.org/2000/svg"><path d="m42.5 32.1-1.8-1.8c1.3-1.9 2.3-4.1 2.7-6.3h2.6c1 0 1.8-.8 1.7-1.7v-2.6c0-1-.8-1.8-1.7-1.7h-2.6c-.4-2.4-1.1-4.6-2.4-6.5l2-2c.7-.7.6-1.8 0-2.4l-2-2c-.7-.7-1.8-.6-2.4 0l-1.9 1.9c-1.9-1.3-4-2.2-6.2-2.5v-2.6c0-1-.8-1.8-1.7-1.7h-2.8c-1 0-1.8.8-1.7 1.7v2.6c-2.3.5-4.4 1.4-6.4 2.8l-1.8-1.8c-.7-.7-1.8-.6-2.4 0l-2 2c-.7.7-.6 1.8 0 2.4l1.9 1.9c-1.3 1.9-2.3 4.1-2.7 6.3l-2.9.1c-1 0-1.8.8-1.7 1.7v2.6c0 1 .8 1.8 1.7 1.7h2.6c.2.8.3 1.5.6 2.2l4.5-4.5c-.2-3 1-6.4 3.6-9 4.5-4.5 11.8-4.6 16.2-.3s4.3 11.7-.3 16.2c-2.6 2.6-5.9 3.7-9.3 3.5l-4.6 4.7c.7.3 1.5.5 2.2.6v2.6c0 1 .8 1.8 1.7 1.7h2.6c1 0 1.8-.8 1.7-1.7v-2.6c2.2-.4 4.4-1.4 6.3-2.7l1.9 1.9c.7.7 1.8.6 2.4 0l2-2c1.1-.8 1.1-2 .4-2.7z"/><path d="m34.7 19.8c0-.4-.5-.5-.8-.2l-2.4 2.4c-1.1 1.1-3 1.2-4 .1l-1.4-1.4c-1.1-1.1-1.1-2.9.1-4l2.4-2.4c.3-.3.1-.7-.2-.8-2.3-.3-4.8.4-6.6 2.2-1.7 1.7-2.6 4.2-2.2 6.4.2 1-.2 2-1 2.7l-17.7 17.6c-1.3 1.3-1.4 3.6-.1 4.9s3.5 1.3 4.9-.1l17.6-17.6c.7-.7 1.7-1.1 2.7-1 2.3.3 4.7-.5 6.4-2.2 1.8-2 2.6-4.3 2.3-6.6zm-30.4 25.4c-.4.4-1 .4-1.4 0s-.4-1 0-1.4l17.9-17.9c.4-.4 1-.4 1.4 0s.4 1 0 1.4z"/></svg>