<svg enable-background="new 0 0 48 48" viewBox="0 0 48 48" xmlns="http://www.w3.org/2000/svg"><path d="m39.4 32.8c-5-1.9-8-4-8-4l-3.8 12.4-.6 1.6-1.8-4.9c4-5.6-.4-5.9-1.1-5.9-.7 0-5 .2-1.1 5.9l-1.8 4.9-.5-1.7-4-12.2s-3 1.9-8 4c-5.6 1.9-5.2 6.5-5.3 15.1h20.6 20.6c-.1-8.6.3-13.2-5.2-15.2z"/><path d="m24.1 10.2 2.3-2.3c-2.8-1-6-.4-8.2 1.9-3.1 3.1-3.1 8.2 0 11.3s8.2 3.1 11.3 0c2.2-2.2 2.9-5.4 1.9-8.2l-2.3 2.3c.1 1.4-.5 2.9-1.6 4.1-2 2-5.4 2-7.4 0s-2-5.4 0-7.4c1.1-1.3 2.6-1.8 4-1.7z"/><path d="m33.4 25c4.4-4.4 5.2-11 2.2-16.2l-2.2 2.2c1.8 4 1.2 8.8-2 12-4.1 4.1-10.8 4.1-14.9 0s-4.1-10.8 0-14.9c3.2-3.2 8-4 12-2l2.2-2.2c-5.2-3-11.8-2.3-16.2 2.2-5.3 5.3-5.3 13.8 0 19.1 5.1 5 13.6 5 18.9-.2z"/><path d="m24.6 12.8c-.2-.1-.5-.1-.7-.1-1.6 0-2.8 1.2-2.8 2.8s1.2 2.8 2.8 2.8 2.8-1.2 2.8-2.8c0-.2 0-.5-.1-.7l7.7-7.7 1.2.1 3.8-3.8-2.9-.4-.4-3-3.8 3.8.1 1.2z"/></svg>