<svg enable-background="new 0 0 48 48" viewBox="0 0 48 48" xmlns="http://www.w3.org/2000/svg"><path d="m32.2 6.6c.6-1.4 1.3-2.9 2-4.3-7.7-3.3-15.2-3.1-22.4 1.2-7 4.1-10.8 10.4-11.8 18.5 1.7.1 3.2.2 4.8.4.8-12.2 14.4-21.7 27.4-15.8z"/><path d="m47.6 19.9c-1.6.2-3.1.6-4.7.8.8 5.6-.4 10.7-3.7 15.1-3.4 4.4-7.9 6.8-13.6 7.4.1 1.6.2 3.1.4 4.7 11.7-.4 24.3-12.1 21.6-28z"/><path d="m4.7 25.8c-1.4.1-3 .2-4.6.4.4 9.8 8.9 20.7 21.9 21.8.1-1.6.2-3.1.4-4.7-10.2-1.7-16-7.4-17.7-17.5z"/><path d="m39.2 12.4c1.2 1.6 2.2 3.2 2.9 5.2 1.4-.6 3-1.1 4.6-1.7-1.8-4.7-4.7-8.5-8.8-11.5-1 1.3-1.8 2.6-2.8 4 1.5 1.1 2.9 2.4 4.1 4z"/><path d="m26.3 37.8v-1.9c1.6-.4 3.1-1 4.6-1.9l1.3 1.3c.5.5 1.3.5 1.8 0l1.4-1.4c.5-.5.5-1.3 0-1.8l-1.3-1.3c1-1.4 1.6-3 1.8-4.6h1.9c.7 0 1.3-.6 1.3-1.3v-1.9c0-.7-.6-1.3-1.3-1.3h-1.9c-.4-1.6-1-3.1-1.9-4.6l1.3-1.3c.5-.5.5-1.3 0-1.8l-1.4-1.4c-.5-.5-1.3-.5-1.8 0l-1.3 1.3c-1.4-1-2.9-1.6-4.6-1.9v-2c0-.7-.6-1.3-1.3-1.3h-1.9c-.7 0-1.3.6-1.3 1.3v1.9c-1.6.2-3.1 1-4.6 1.9l-1.3-1.3c-.5-.5-1.3-.5-1.8 0l-1.4 1.4c-.5.5-.5 1.3 0 1.8l1.3 1.3c-1 1.4-1.6 3-1.9 4.6h-2c-.7 0-1.3.6-1.3 1.3v1.9c0 .7.6 1.3 1.3 1.3h1.9c.4 1.6 1 3.1 1.9 4.6l-1.3 1.3c-.5.5-.5 1.3 0 1.8l1.4 1.4c.5.5 1.3.5 1.8 0l1.3-1.2c1.4 1 3 1.6 4.6 1.9v1.9c0 .7.6 1.3 1.3 1.3h1.9c.9-.1 1.5-.6 1.5-1.3zm-7-9.1c-2.5-2.5-2.5-6.7 0-9.2s6.7-2.5 9.2 0 2.5 6.7 0 9.2-6.5 2.5-9.2 0z"/></svg>