<svg enable-background="new 0 0 48 48" viewBox="0 0 48 48" xmlns="http://www.w3.org/2000/svg"><path d="m4 46.8c0-8.6.2-11.6 4.6-13.2 3.3-1.3 5.7-2.5 7.2-3.3l3.5 11.1 1.6 5.3 3-8.4 2.9 8.1 1.8-5 3.5-11.2c1.4.8 3.9 2 7.1 3.3 4.2 1.6 4.4 4.4 4.6 12.4v.8h-39.8zm19.8-9.8c-1.4-2-1.6-3.1-1.4-3.5.2-.3.9-.5 1.4-.5s1.3.2 1.5.5c.1.1.4 1-1.4 3.5l-.1.1z"/><path d="m32.9 32.1c1.5.8 3.5 1.7 6 2.7 3.3 1.2 3.6 3.5 3.7 10.8h-14.1l.7-2 .6-1.7zm-17.9 0 3.1 9.7.5 1.7.6 2.1h-13.9c0-7.7.5-9.6 3.7-10.7 2.6-1.1 4.6-2.1 6-2.8m8.9 2.1h.2c0 .1-.1.3-.2.5-.1-.2-.1-.4-.2-.5zm0 7.8.5 1.5.7 2h-1.1-1.4l.7-2zm7.5-13.6-4 12.6-.6 1.7-1.8-5c4.1-5.7-.4-6-1.1-6s-5.1.2-1.1 6l-1.8 5-.5-1.7-4-12.6s-3.1 2-8.3 4c-5.7 2-5.4 6.7-5.4 15.6h21.2 21.1c-.2-8.8.2-13.5-5.4-15.6-5.1-2-8.3-4-8.3-4z"/><path d="m10.8 16.5h1.9c.2 1.4.8 2.9 1.7 4.1l-1.3 1.3c-.5.5-.5 1.2 0 1.7l1.4 1.4c.5.5 1.2.5 1.7 0l1.3-1.3c1.2.8 2.6 1.4 4.1 1.7v1.9c0 .7.6 1.2 1.2 1.2h2c.7 0 1.2-.6 1.2-1.2v-1.9c1.4-.2 2.9-.8 4.1-1.7l1.3 1.3c.5.5 1.2.5 1.7 0l1.4-1.4c.5-.5.5-1.2 0-1.7l-1.4-1.4c.8-1.2 1.4-2.6 1.7-4.1h1.9c.7 0 1.2-.6 1.2-1.2v-2c0-.7-.6-1.2-1.2-1.2h-1.9c-.2-1.4-.8-2.9-1.7-4.1l1.3-1.3c.5-.5.5-1.2 0-1.7l-1.4-1.5c-.5-.5-1.2-.5-1.7 0l-1.3 1.3c-1.2-.8-2.6-1.4-4.1-1.7v-1.9c0-.7-.6-1.2-1.2-1.2h-2c-.7 0-1.2.6-1.2 1.2v1.9c-1.4.2-2.9.8-4.1 1.7l-1.3-1.3c-.5-.5-1.2-.5-1.7 0l-1.4 1.5c-.5.5-.5 1.2 0 1.7l1.3 1.3c-.8 1.2-1.4 2.6-1.7 4.1h-1.8c-.7 0-1.2.6-1.2 1.2v2c0 .7.5 1.3 1.2 1.3zm13-8.8c3.6 0 6.5 2.9 6.5 6.5s-2.9 6.5-6.5 6.5-6.5-2.9-6.5-6.5c-.1-3.6 2.9-6.5 6.5-6.5z"/></svg>