<svg enable-background="new 0 0 48 48" viewBox="0 0 48 48" xmlns="http://www.w3.org/2000/svg"><path d="m15.4 32.9c1.2 3.6 3.2 9.4 3.8 10.5.4.8 1.3 1.3 2.2 1.3.2 0 .4 0 .5-.1 1.1-.2 1.9-1.2 2-2.3l.4-6.7.4 6.9c.1 1.2 1 2.1 2.1 2.3h.4c1 0 2-.6 2.3-1.6.4-1 2.3-6.8 3.5-10.3 1.1.4 2.1.9 3.2 1.3h.1c1.2.5 3.3 1.3 4.3 1.7.2.1.3.2.5.3.1.1.2.2.4.5 0 .1 0 .2.1.3.2.5.4 1.4.7 2.3.4 1.4.9 3 1.2 4.2 0 .2.1.3.1.4 0 .2.1.4.2.7-.2.3-.5.6-1 .6h-3.5-14.9-.2-.2-14.9-3.5c-.6 0-1-.4-1.1-1 .2-.2.3-.5.3-.8.3-1.3 1.1-3.7 1.6-5.3.1-.4.3-.8.4-1.2 0-.1.1-.3.1-.4.1-.2.3-.4.4-.5.1 0 .2-.1.2-.1 1.5-.6 4.3-1.8 4.7-1.9 1-.2 2.1-.7 3.2-1.1m13-3.2c-1 .8-2.5 1.3-4.1 1.3s-3-.5-4.1-1.3l1.3 2.8c.1.2.2.5.4.7l-.5 9.1c-.7-1.3-4.1-11.2-4.4-12.6-1.9.7-4 1.4-5.8 2.2 0 0-3.7 1.6-4.9 2 0 0-.1 0-.1.1-.1 0-.2.1-.2.1-.6.4-1.1 1-1.4 1.6-.1.2-.2.5-.2.7-.5 1.6-1.6 4.9-2 6.7-.4.3-.4.4-.4.6v.6c0 2 1.6 3.6 3.6 3.6h3.5 14.9.2s.1 0 .2 0h14.9 3.5c2 0 3.6-1.6 3.6-3.6-.2-.2-.2-.2-.3-.4 0-.2-.1-.4-.1-.6-.5-1.9-1.6-5.3-2-6.7 0-.2-.1-.5-.2-.7-.4-.7-.8-1.2-1.4-1.6 0 0-.1-.1-.2-.1 0 0-.1 0-.1-.1-1.2-.6-4.9-2-4.9-2-1.9-.8-3.8-1.6-5.8-2.2-.4 1.4-3.7 11.3-4.2 12.6l-.6-9.3c.1-.2.2-.5.4-.7z"/><path d="m24.1 2.4c3.8 0 6.9 3.1 6.9 6.9v1.5c0 1-.1 1.6-.1 2 0 1.2.8 2.2 1.9 2.4-.1.7-.2 1.1-.3 1.4-.9.1-1.8.8-2 1.7-.7 2.4-1.9 4.3-3.3 5.4 0 0 0 0-.1.1-1.5 1.3-2.9 1.6-3.2 1.7-.4-.1-1.8-.5-3.3-1.7-1.4-1.1-2.5-3-3.3-5.4-.2-.7-.7-1.3-1.4-1.6-.2-.1-.4-.1-.6-.2-.1-.3-.2-.7-.3-1.4 1.1-.3 1.9-1.2 1.9-2.4 0-.3 0-1-.1-2 0-.7 0-1.3 0-1.5 0-3.9 3.1-6.9 7-6.9h.1.2m0-2.5c-.1 0-.2 0-.2 0-.1 0-.1 0-.1 0-5.3 0-9.5 4.2-9.5 9.4 0 .5.1 2.9.1 3.5-.1 0-.3 0-.5 0-.7 0-1.7.3-1.5 2 .4 3.8 1.5 4.4 2.1 4.4.2 0 .4-.1.4-.1 1 3.2 2.5 5.3 4.1 6.6 2.4 2 4.7 2.3 4.7 2.3h.2s.1 0 .2 0c0 0 2.3-.2 4.7-2.3 1.6-1.3 3.1-3.4 4.1-6.6 0 0 .2.1.5.1.6 0 1.7-.6 2-4.4.2-1.8-.7-2-1.4-2-.3 0-.5 0-.6 0 0-.6.1-3 .1-3.5 0-5.2-4.2-9.4-9.4-9.4z"/></svg>