<svg enable-background="new 0 0 48 48" viewBox="0 0 48 48" xmlns="http://www.w3.org/2000/svg"><path d="m47 41.5-10-10-.7.7-1.1-1.1c5.7-7.6 5.1-18.6-1.8-25.4-7.6-7.6-20-7.6-27.6 0s-7.6 20 0 27.6c7 7 17.8 7.6 25.4 1.8l1.1 1.1-.7.7 10 10c1.4 1.4 4 1.4 5.4 0s1.4-3.9 0-5.4zm-18.1-12.6c-5.3 5.3-13.9 5.3-19.2 0s-5.3-13.9 0-19.2 13.9-5.3 19.2 0 5.3 14.1 0 19.2z"/><path d="m15.4 18.6c.2 1.3 1.2 2.9 2.9 3.5.7.2 1.4.2 2 0 1.6-.6 2.7-2.2 2.9-3.5.2 0 .5-.4.8-1.4.4-1.4 0-1.7-.4-1.7.1-.2.1-.4.1-.6.6-3.9-1.2-4-1.2-4s-.4-.6-1.1-1.1c-.6-.4-1.3-.6-2.4-.5-.4 0-.6.1-1 .1-.4.1-.7.4-1.1.5-.4.2-.7.5-1.1.8-.5.5-1 1.2-1.1 2-.1.6-.1 1.2 0 1.9 0 .2.1.4.1.6-.4 0-.8.1-.4 1.7.5 1.3.9 1.7 1 1.7z"/><path d="m26.3 23.8c-2.3-.9-3.6-1.8-3.6-1.8l-1.7 5.6-.2.7-.8-2.1c1.8-2.5-.1-2.7-.5-2.7-.4 0-2.3.1-.5 2.7l-.7 2.2-.5-.7-1.7-5.5s-1.3.8-3.6 1.8c-1.2.5-1.8 1.2-2 2.2.4.5.7.8 1.1 1.2 4.3 4.3 11.5 4.3 15.8 0 .4-.4.7-.8 1.1-1.2-.4-1.2-1-2-2.2-2.4z"/></svg>