<svg enable-background="new 0 0 48 48" viewBox="0 0 48 48" xmlns="http://www.w3.org/2000/svg"><path d="m46.2 22.2h-2c-.8-9.7-8.6-17.5-18.4-18.4v-2c0-1-.8-1.8-1.8-1.8s-1.8.8-1.8 1.8v2c-9.7.9-17.5 8.7-18.4 18.4h-2c-1 0-1.8.8-1.8 1.8s.8 1.8 1.8 1.8h2c.8 9.7 8.6 17.5 18.4 18.4v2c0 1 .8 1.8 1.8 1.8s1.8-.8 1.8-1.8v-2c9.7-.8 17.5-8.6 18.4-18.4h2c1 0 1.8-.8 1.8-1.8s-.8-1.8-1.8-1.8zm-7.6 3.6h2.2c-.8 7.8-7.2 14.2-15 15v-2c0-1-.8-1.8-1.8-1.8s-1.8.8-1.8 1.8v2c-7.8-.8-14.2-7.2-15-15h2c1 0 1.8-.8 1.8-1.8s-.8-1.8-1.8-1.8h-2c.8-7.8 7.2-14.2 15-15v2c0 1 .8 1.8 1.8 1.8s1.8-.8 1.8-1.8v-2c7.8.8 14.2 7.2 15 15h-2c-1 0-1.8.8-1.8 1.8s.7 1.8 1.6 1.8z"/><path d="m24 13.9c-5.5 0-10.1 4.4-10.1 10.1s4.5 10.1 10.1 10.1 10.1-4.5 10.1-10.1-4.6-10.1-10.1-10.1zm2.9 14.1c-.5.5-1 .8-1.7 1.1-.2.1-.5.2-.4.5v.8c0 .2-.1.4-.4.4-.4 0-.6 0-1 0-.2 0-.4-.1-.4-.5 0-.2 0-.5 0-.6 0-.5 0-.5-.5-.6-.6-.1-1.2-.2-1.7-.5-.5-.2-.5-.4-.4-.7.1-.4.1-.6.2-1s.2-.5.6-.2c.6.4 1.2.5 1.9.6.5 0 .8 0 1.2-.1.7-.4.8-1.2.2-1.7-.2-.1-.5-.4-.7-.4-.6-.2-1.3-.5-1.9-.8-1.1-.7-1.8-1.4-1.7-2.6.1-1.3.8-2.2 2.2-2.6.5-.2.5-.1.5-.7 0-.2 0-.4 0-.6 0-.4.1-.5.5-.5h.4c.8 0 .8 0 .8.8 0 .6 0 .6.6.7.5.1 1 .2 1.3.4.2.1.4.2.2.5-.1.4-.2.7-.4 1.1.2.2.1.2-.3.1-.7-.4-1.4-.5-2.2-.5-.2 0-.4 0-.6.1-.6.2-.7 1-.2 1.4.2.2.6.4 1 .5.6.2 1.2.5 1.7.7 1.9 1.3 2.4 3.4 1.2 4.9z"/></svg>