<svg enable-background="new 0 0 48 48" viewBox="0 0 48 48" xmlns="http://www.w3.org/2000/svg"><path d="m9.4 24.6-3.1 1.3c-.5.2-.7.7-.6 1.2.2.5.7.7 1.2.6l3.1-1.3c.5-.2.7-.7.6-1.2-.1-.6-.6-.9-1.2-.6z"/><path d="m37.2 14.1c.2.5.7.7 1.2.6l3.1-1.3c.5-.2.7-.7.6-1.2-.2-.5-.7-.7-1.2-.6l-3.1 1.3c-.6.1-.9.7-.6 1.2z"/><path d="m9.6 19.6c0-.5-.5-1-1-1h-3.3c-.6 0-1 .4-1 1 0 .5.5 1 1 1h3.4c.5-.1.9-.4.9-1z"/><path d="m42.7 18.6h-3.4c-.6 0-1 .4-1 1 0 .5.5 1 1 1h3.4c.5 0 1-.5 1-1-.1-.5-.4-1-1-1z"/><path d="m35.4 9.5 2.4-2.4c.4-.4.4-1 0-1.3-.4-.4-1-.4-1.3 0l-2.4 2.4c-.5.4-.5 1 0 1.3.3.4.9.4 1.3 0z"/><path d="m29.4 6.4c.5.2 1.1 0 1.3-.5l1.3-3.1c.2-.5 0-1.1-.5-1.3s-1.1 0-1.3.5l-1.3 3.1c-.4.6-.1 1.1.5 1.3z"/><path d="m23.9 5.3c.5 0 1-.5 1-1v-3.3c0-.5-.5-1-1-1s-1 .5-1 1v3.4c0 .6.4.9 1 .9z"/><path d="m17.1 5.9c.2.5.7.7 1.2.6.5-.2.7-.7.6-1.2l-1.3-3.1c-.2-.5-.7-.7-1.2-.6-.5.2-.7.7-.6 1.2z"/><path d="m12.4 9.6c.4.5 1 .5 1.3 0 .4-.4.4-1 0-1.3l-2.4-2.4c-.4-.4-1-.4-1.3 0-.4.4-.4 1 0 1.3z"/><path d="m41.6 26-3.1-1.3c-.5-.2-1.1 0-1.3.5s0 1.1.5 1.3l3.1 1.3c.5.2 1.1 0 1.3-.5.2-.4 0-1-.5-1.3z"/><path d="m6.3 13.6 3.1 1.3c.5.2 1.1 0 1.3-.5s0-1.1-.5-1.3l-3.1-1.3c-.5-.2-1.1 0-1.3.5-.2.4 0 1 .5 1.3z"/><path d="m31.7 41.8h-1.3v-2.8h-13v2.9h-1.3c-.5 0-1 .5-1 1s.5 1 1 1h1.3c.4 2.4 2.4 4.3 4.9 4.3h3c2.5 0 4.5-1.8 4.9-4.2h1.3c.5 0 1-.5 1-1 .1-.8-.4-1.2-.8-1.2z"/><path d="m23.8 9.6c5.6 0 10.3 4.5 10.4 9.9 0 2.3-.8 4.4-2.3 6.3-2.1 2.7-3.5 5.6-4.3 8.5h-6.9c-.9-3.1-2.4-6.1-4.4-8.7-1.5-1.9-2.1-4-2.1-6.4.1-5.1 4.2-9.3 9.3-9.6zm0-2.5c-.2 0-.4 0-.5 0-6.3.4-11.6 5.6-11.7 12.1-.1 3 .8 5.7 2.6 8 2.2 2.9 3.7 6.2 4.4 9.7h10.9c.6-3.5 2.2-6.7 4.3-9.5 1.8-2.2 2.9-4.9 2.9-7.9-.1-6.8-5.9-12.4-12.9-12.4z"/><path d="m25 26.6v.7c0 .6-.5 1-1 1s-1-.5-1-1v-.7c-.6-.1-1.1-.5-1.6-1-.4-.4-.4-1.1 0-1.4.4-.4 1.1-.4 1.4 0 .2.4.7.5 1.1.5.8 0 1.4-.7 1.4-1.4 0-.8-.7-1.4-1.4-1.4-1.9 0-3.5-1.6-3.5-3.5 0-1.6 1.1-2.9 2.5-3.4v-.7c0-.6.5-1 1-1s1 .5 1 1v.7c.6.1 1.1.5 1.6 1 .4.4.4 1.1 0 1.4-.4.4-1.1.4-1.4 0-.3-.3-.7-.5-1.1-.5-.8 0-1.4.7-1.4 1.4s.7 1.4 1.4 1.4c1.9 0 3.5 1.6 3.5 3.5 0 1.6-1.1 3-2.5 3.4z"/></svg>