<svg enable-background="new 0 0 48 48" viewBox="0 0 48 48" xmlns="http://www.w3.org/2000/svg"><path d="m39.5 30.3c.5-1.1.5-2 .1-2.9-.1-.4-.4-.6-.6-.8-.5-.5-1-.7-1.3-1 .2-1.1.2-1.9-.2-2.6-.1-.2-.2-.4-.5-.6-1.2-1.2-2-1-2-1s.5-1.9-1-3.4c-1.4-1.3-2.8-.8-4 .4l-5.9 5.9c-.8-.4-2.2-1.1-3.5-1-2.4.2-3 1.9-3.4 3.2-.7 3-.5 7.6-1.4 9.3-1.1 2.2-3.1 4-3.1 4l8.2 8.2c3.4-3.4 6.5-4.2 8.9-5.2 5.4-2.3 8.1-4.9 9.4-6.4 2.9-3 .7-5.5.3-6.1z"/><path d="m19.6 6.3 5.3-1.4c-.2-.6-.7-1.3-1.1-1.8-1.2-1.6-3-2.6-5.1-3.1-.2 0-.5 0-.6.2-.1.1-.2.4-.1.6z"/><path d="m18.5 17.2 4.3 5.5 5.8-5.3-4-5.1c.7-1.3 1-2.9 1-4.3 0-.2-.1-.4-.2-.5s-.4-.1-.6-.1l-10.7 3-3.1-8.2c-.1-.2-.2-.4-.5-.4s-.5 0-.6.2c-3.2 3.4-3.5 8.5-.7 12 1.7 2.2 4.3 3.5 7.1 3.5.8-.1 1.5-.2 2.2-.3z"/></svg>