<svg enable-background="new 0 0 48 48" viewBox="0 0 48 48" xmlns="http://www.w3.org/2000/svg"><path d="m32.2 19.8s.1 0 0 0c.4.4.4.9.3 1l-1.4 4.1 3.8-1c.1 0 .1.1.2.2l.1.1c0 .1 0 .3-.1.9l-.1 1.3.9.9c.3.3.6.5.9.7.2.1.3.2.4.3 0 0 .1.1.1.1.1.2.1.3-.1.8l-.6 1.3.8 1.2c0 .1.1.1.2.2.7.9 1 1.5-.2 2.7v.1c-1.9 2.2-4.8 4.2-8.5 5.7-.4.2-.7.3-1.1.4-1.8.7-4.2 1.6-6.7 3.6l-4.8-4.8c.6-.8 1.3-1.7 1.9-2.8.7-1.4.9-3.4 1.1-5.8.1-1.4.2-2.9.5-4 .4-1.2.6-1.3 1.2-1.4h.1c.6 0 1.6.5 2.1.7l1.6.8 1.3-1.3 5.9-5.9c0 .1.1-.1.2-.1m.1-2.6c-.8 0-1.6.5-2.3 1.2l-5.9 5.9c-.7-.4-2-1-3.2-1-.1 0-.2 0-.3 0-2.4.2-3 1.9-3.4 3.2-.7 3-.5 7.6-1.4 9.3-1.1 2.2-3.1 4-3.1 4l8.2 8.2c3.4-3.4 6.5-4.2 8.9-5.2 5.4-2.3 8.1-4.9 9.4-6.4 2.9-3 .7-5.5.3-6.1.5-1.1.5-2 .1-2.9-.1-.4-.4-.6-.6-.8-.5-.5-1-.7-1.3-1 .2-1.1.2-1.9-.2-2.6-.1-.2-.2-.4-.5-.6-.9-.9-1.6-1-1.9-1-.1 0-.1 0-.1 0s.5-1.9-1-3.4c-.6-.5-1.2-.8-1.7-.8z"/><path d="m18.7 0c-.2 0-.5 0-.6.2-.1.1-.2.4-.1.6l1.6 5.5 5.3-1.4c-.2-.6-.7-1.3-1.1-1.8-1.2-1.6-3-2.6-5.1-3.1z"/><path d="m19 15.9-.7.1c-.7.1-1.4.2-2.1.3-2.4 0-4.6-1.1-6-3-2.2-2.8-2.2-6.7 0-9.6l3.1 8.3 11-3.1c-.1 1.1-.4 2.1-.8 2.9l-.4.7 3.8 4.8-3.9 3.6z"/><path d="m10 6.7 1.7 4.6.8 2.1 2.2-.6 7.9-2.2c-.1.2-.1.4-.2.5l-.8 1.4 1 1.3 2.6 3.3-2.1 1.9-2.6-3.4-.9-1.1-1.4.2c-.6.1-1.3.2-2 .3-2 0-3.8-1-5-2.6-1.4-1.6-1.7-3.7-1.2-5.7m.5-4.9c-.3 0-.5 0-.6.2-3.2 3.4-3.5 8.5-.7 12 1.7 2.2 4.3 3.5 7.1 3.5.8-.1 1.5-.2 2.2-.3l4.3 5.5 5.8-5.3-4-5.1c.7-1.3 1-2.9 1-4.3 0-.2-.1-.4-.2-.5s-.4-.1-.6-.1l-10.7 3-3.1-8.2c-.1-.2-.2-.4-.5-.4z"/></svg>