<svg enable-background="new 0 0 48 48" viewBox="0 0 48 48" xmlns="http://www.w3.org/2000/svg"><path d="m26.2 2.4c8.7 0 15.8 7.2 15.8 16.1 0 4.3-1.9 8.6-5.2 11.7l-.8.7v1.1 9.9.6.1l-16.6 2.7v-3.6-2.9l-2.9.4-5 .8c-.7-.1-1.3-.6-1.3-1.4v-3.6-3.1-2.5h-2.5-1.3l3.5-6.9.3-.5v-.6-.6-2.4c0-6.2 3.6-11.9 9.2-14.4 2.2-1.1 4.4-1.6 6.8-1.6m0-2.5c-2.8 0-5.4.6-7.8 1.8-6.4 2.9-10.7 9.3-10.7 16.7v2.4.6l-3.7 7.2c-1 1.8 0 3.3 1.9 3.3h1.8v3.1 3.6c0 2.2 1.7 3.9 3.9 3.9l5.3-.8v5.3c0 .5.5 1 1.1 1h.2l19-3.1c.7-.1 1.3-.8 1.3-1.6v-.8-.6-9.9c3.6-3.4 6-8.2 6-13.5 0-10.3-8.2-18.6-18.3-18.6z"/><circle cx="25.7" cy="28.2" r="2.2"/><path d="m25.7 24.5c.9 0 1.7-.8 1.7-1.7l.3-12c0-1.1-.9-2.2-2-2.2s-2 .9-2 2.2l.3 12c-.4.9.6 1.7 1.7 1.7z"/></svg>