<svg enable-background="new 0 0 48 48" viewBox="0 0 48 48" xmlns="http://www.w3.org/2000/svg"><path d="m26.2-.1c-2.8 0-5.4.6-7.8 1.8-6.4 2.9-10.7 9.3-10.7 16.7v2.4.6l-3.7 7.2c-1 1.8 0 3.3 1.9 3.3h1.8v3.1 3.6c0 2.2 1.7 3.9 3.9 3.9l5.3-.8v5.3c0 .6.6 1.1 1.3 1l19-3.1c.7-.1 1.3-.8 1.3-1.6v-.8-.6-9.9c3.6-3.4 6-8.2 6-13.5 0-10.3-8.2-18.6-18.3-18.6zm-.5 7.5c1.1 0 2 1.1 2 2.2l-.3 12c0 .9-.8 1.7-1.7 1.7-1.1 0-2-.8-1.7-1.7l-.3-12c-.1-1.3.9-2.2 2-2.2zm0 21.8c-1.2 0-2.2-1-2.2-2.2s1-2.2 2.2-2.2 2.2 1 2.2 2.2c-.1 1.2-1 2.2-2.2 2.2z"/></svg>