<svg enable-background="new 0 0 48 48" viewBox="0 0 48 48" xmlns="http://www.w3.org/2000/svg"><path d="m29.3 33.5c-1.6.5-3.3.7-4.8.7-4.1 0-8.1-1.6-11-4.6-2.9-2.9-4.6-6.9-4.6-11s1.6-8.1 4.6-11c2.9-2.9 6.9-4.5 11-4.5 2.1 0 4 .4 5.8 1.1 1.9.7 3.6 1.9 5.2 3.4 2.7 2.7 4.2 6.2 4.5 9.9.2 2.9-.4 5.7-1.7 8.2l2.2 2.2c1.7-2.8 2.7-6.2 2.7-9.7 0-10.2-8.2-18.4-18.4-18.4-2.9 0-5.6.6-8 1.8-6.3 3-10.7 9.4-10.7 16.7v2.4.6l-3.7 7.1c-1 1.8 0 3.3 2.1 3.3h1.8v3.1 3.6c0 2.2 1.7 3.9 3.9 3.9l5.3-.8v5.3c0 .7.6 1.1 1.3 1l19.2-3.3c.7-.1 1.3-.8 1.3-1.6v-.9-.7-3.7l-5.6-5.1c-.8.4-1.5.7-2.4 1z"/><path d="m45.3 35.8-8.9-8.9-.5.5-.5-.5c4-5.3 3.5-12.8-1.2-17.6-5.3-5.3-13.8-5.3-19.1 0s-5.3 13.8 0 19.1c4.8 4.8 12.3 5.2 17.6 1.2l.5.5-.5.5 8.9 8.9c1 1 2.7 1 3.7 0 .9-1.1.9-2.8 0-3.7zm-13.4-9.8c-4 4-10.6 4-14.6 0s-4-10.6 0-14.6 10.6-4 14.6 0 3.9 10.6 0 14.6z"/><circle cx="24.5" cy="18.6" r="1.7"/><circle cx="29.7" cy="18.6" r="1.7"/><circle cx="19.3" cy="18.6" r="1.7"/></svg>