<svg enable-background="new 0 0 48 48" viewBox="0 0 48 48" xmlns="http://www.w3.org/2000/svg"><path d="m26.2 2.4c8.7 0 15.8 7.1 15.9 15.8 0 4.5-1.9 8.7-5.2 11.9l-.8.7v1.1 9.8.7.1l-16.7 2.6v-3.6-2.9l-2.9.4-5.1.8c-.7-.1-1.3-.6-1.3-1.4v-3.6-3.1-2.5h-2.4-1.3l3.5-6.7.3-.5v-.6-.6-2.4c0-6.1 3.6-11.8 9.2-14.3 2.2-1.2 4.4-1.7 6.8-1.7m0-2.5c-2.8 0-5.4.6-7.9 1.8-6.3 2.9-10.6 9.3-10.6 16.6v2.4.6l-3.7 7.1c-1 1.8 0 3.3 1.9 3.3h1.8v3.1 3.6c0 2.2 1.7 3.9 3.9 3.9l5.3-.8v5.3c0 .6.5 1 1.1 1h.2l19.1-3c.7-.1 1.3-.8 1.3-1.6v-.8-.7-9.8c3.6-3.4 6-8.2 6-13.7-.1-10.1-8.3-18.3-18.4-18.3z"/><path d="m29.7 17.8c-1.8 3.3-3.7 6.4-5.6 9.7-.1.2-.2.5-.6.4s-.2-.4-.2-.6c.1-.8.2-1.6.5-2.4.2-1.5.6-2.9.8-4.2 0-.1 0-.2 0-.4-.1 0-.4 0-.5 0-1.1 0-2.1 0-3.1 0-.6 0-.7-.2-.5-.8 1.8-3.3 3.7-6.4 5.6-9.7.1-.2.2-.5.6-.4s.2.4.2.6c-.1.8-.2 1.6-.5 2.4-.2 1.5-.6 2.9-.8 4.2v.4h.5 3.1c.7-.1.8.2.5.8z"/></svg>