<svg enable-background="new 0 0 48 48" viewBox="0 0 48 48" xmlns="http://www.w3.org/2000/svg"><path d="m31 21.5c-.4.4-.5.7-.5 1.1 0 .5.1.8.5 1.2l1 1c.2.2.6.5 1 .5.1.4.2.6.5 1l.8.8c.4.4.8.5 1.3.5s1-.2 1.3-.5l7.1-7.1c.7-.7.7-1.8 0-2.5l-.8-.8c-.2-.2-.6-.4-1-.5-.1-.4-.2-.7-.5-1l-1-1c-.6-.6-1.7-.6-2.3 0l-7.9-7.9c.3-.4.5-.8.5-1.1 0-.5-.1-.8-.5-1.2l-1-1c-.2-.2-.6-.4-1-.5-.1-.4-.2-.7-.5-1l-.8-.8c-.7-.7-1.8-.7-2.5 0l-7.1 7.1c-.7.7-.7 1.8 0 2.5l.8.8c.2.2.6.5 1 .5.1.4.2.6.5 1l1 1c.6.6 1.7.6 2.3 0l1.3 1.3c.2.2.2.6 0 .8l-6 5.9-.6-.6c-1-1-2.5-1-3.4 0-1 1-1 2.4 0 3.4l.6.6-7.2 7.2c-.5.5-1 .7-1.6.8l-2.3.6c-.8.2-1.7.7-2.3 1.3l-.2.2c-1 1-1.4 2.2-1.4 3.5s.5 2.5 1.4 3.5l1 1c1 1 2.2 1.4 3.5 1.4s2.5-.5 3.5-1.4l.2-.2c.6-.6 1.1-1.4 1.3-2.3l.6-2.3c.1-.6.5-1.1.8-1.6l7.2-7.2.6.6c1 1 2.5 1 3.4 0 .5-.5.7-1.1.7-1.7s-.2-1.2-.7-1.7l-.6-.6 5.8-5.8c.2-.2.6-.2.8 0zm3.4 3.3 7.1-7.1h.1.1l.8.8c.1.1.1.2 0 .2l-7.1 7.1c-.1.1-.1.1-.2 0l-.8-.8c-.1 0-.1-.2 0-.2zm-7.5-21.8-7.1 7.1c-.1.1-.1.1-.2 0l-.8-.8c-.1-.1-.1-.2 0-.2l7.1-7.1h.1l.8.8c.1.1.1.2.1.2z"/><path d="m42.4 41.4h-7.2c-3.1 0-5.6 2.5-5.6 5.6v.8h18.4v-.8c0-3.1-2.5-5.6-5.6-5.6z"/><path d="m33.6 39c-.5 0-.8.4-.8.8 0 .5.4.8.8.8h10.4c.5 0 .8-.4.8-.8 0-.5-.4-.8-.8-.8z"/></svg>