<svg enable-background="new 0 0 48 48" viewBox="0 0 48 48" xmlns="http://www.w3.org/2000/svg"><path d="m3.1 9.9 6.1 3.5c.5-1.6 1.2-3 2.1-4.3l-5.8-3.4c-.6-.3-1.4-.1-1.7.5l-1.2 2c-.3.6-.1 1.4.5 1.7zm6.8 14.7-6.8 3.9c-.6.3-.8 1.1-.4 1.6l1.2 2.1c.3.6 1.1.8 1.6.4l7.1-4.1c-.1-.1-.1-.2-.2-.2-1.1-1.1-1.9-2.4-2.5-3.7zm35-14.7c.6-.3.8-1.1.4-1.6l-1.2-2.1c-.3-.6-1.1-.8-1.6-.4l-5.8 3.3c.9 1.3 1.6 2.8 2.1 4.3zm-36.4 6.9h-7.3c-.7 0-1.2.5-1.2 1.2v2.4c0 .7.5 1.2 1.2 1.2h7.6c-.3-1.5-.5-3.2-.3-4.8zm38.3 0h-7.3c.1 1.1.2 2.4-.4 4.8h7.7c.7 0 1.2-.5 1.2-1.2v-2.4c0-.7-.5-1.2-1.2-1.2zm-1.9 11.7-6.9-4c-.6 1.3-1.4 2.6-2.3 3.7-.1.1-.2.2-.3.3l7.1 4.1c.6.3 1.3.1 1.6-.4l1.2-2.1c.4-.5.2-1.2-.4-1.6zm-20.9-23.7c-7.7 0-13.2 6.2-13.2 13.2 0 3.3 1.2 6.4 3.3 8.7 1.2 1.4 3.2 4.4 3.9 6.9v.1h12s0 0 0-.1c.7-2.5 2.7-5.4 3.9-6.9 2-2.3 3.3-5.4 3.3-8.7 0-7.3-5.9-13.2-13.2-13.2zm0 7.2c-3.3 0-6 2.7-6 6 0 .7-.5 1.2-1.2 1.2s-1.2-.5-1.2-1.2c0-4.6 3.8-8.4 8.4-8.4.7 0 1.2.5 1.2 1.2s-.5 1.2-1.2 1.2zm-6 26.9c0 .5.1.9.4 1.3l1.3 1.9c.4.7 1.2 1.1 2 1.1h4.6c.8 0 1.6-.4 2-1.1l1.3-1.9c.3-.4.4-.9.4-1.3v-2.9h-12z"/></svg>