<svg enable-background="new 0 0 48 48" viewBox="0 0 48 48" xmlns="http://www.w3.org/2000/svg"><path d="m16.5 42.6c0 .6.2 1.2.5 1.7l1.6 2.4c.6.8 1.5 1.3 2.5 1.3h5.8c1 0 1.9-.5 2.5-1.3l1.6-2.4c.3-.5.5-1.1.5-1.7v-3.6h-15zm-9-26.1c0 4.2 1.5 8 4.1 10.9 1.5 1.8 4 5.5 4.9 8.6v.1h15s0 0 0-.1c.9-3.1 3.3-6.8 4.9-8.6 2.5-2.9 4.1-6.7 4.1-10.9 0-9.1-7.4-16.5-16.6-16.5-9.5 0-16.4 7.8-16.4 16.5zm16.5-7.5c-4.1 0-7.5 3.4-7.5 7.5 0 .8-.7 1.5-1.5 1.5s-1.5-.7-1.5-1.5c0-5.8 4.7-10.5 10.5-10.5.8 0 1.5.7 1.5 1.5s-.7 1.5-1.5 1.5z"/></svg>