<svg enable-background="new 0 0 48 48" viewBox="0 0 48 48" xmlns="http://www.w3.org/2000/svg"><path d="m47.5 39.2-14.5-11.3c.3-.5.7-.9 1-1.2 2-2.3 3.3-5.4 3.3-8.7 0-7.3-5.9-13.2-13.2-13.2-8.3 0-11.7 7-11.7 7.1l-9-6.8c-.5-.4-1.3-.4-1.7.2l-1.4 1.9c-.4.5-.3 1.3.2 1.7l44.1 34.1c.5.4 1.3.3 1.7-.2l1.5-1.9c.4-.6.3-1.3-.3-1.7zm-23.5-27.2c-2.8 0-5.1 1.9-5.8 4.5l-2-1.6c1.2-3.1 4.3-5.3 7.8-5.3.7 0 1.2.5 1.2 1.2s-.5 1.2-1.2 1.2zm-6 24v2.9c0 .5.1.9.4 1.3l1.3 1.9c.4.7 1.2 1.1 2 1.1h4.6c.8 0 1.6-.4 2-1.1l1.3-1.9c.3-.4.4-.9.4-1.3v-1.1l-2.2-1.8zm-5.7-12c.5 1 1.1 1.8 1.8 2.6 1.2 1.4 3.2 4.4 3.9 6.9v.1h6.7z"/></svg>