<svg enable-background="new 0 0 48 48" viewBox="0 0 48 48" xmlns="http://www.w3.org/2000/svg"><path d="m3.4 29c-.6.3-.8 1.1-.4 1.6l.6 1c.3.6 1.1.8 1.6.4l7-4c-.8-.9-1.5-1.9-2-3zm5-11.6h-7.2c-.7 0-1.2.5-1.2 1.2v1.2c0 .7.5 1.2 1.2 1.2h7.5c-.2-1.2-.3-2.4-.3-3.6zm9.6 21.8c0 .2.1.5.2.7l1.8 2.8c.2.3.6.5 1 .5h6c.4 0 .8-.2 1-.5l1.8-2.8c.1-.2.2-.4.2-.7v-3.2h-12zm-14.6-29.8 5.9 3.4c.4-1.1 1-2.2 1.6-3.2l-5.7-3.4c-.6-.3-1.4-.1-1.7.5l-.6 1c-.3.6-.1 1.3.5 1.7zm41.2 0c.6-.3.8-1.1.4-1.6l-.6-1c-.3-.6-1.1-.8-1.6-.4l-5.7 3.3c.7 1 1.2 2.1 1.6 3.2zm0 19.6-6.8-3.9c-.5 1.1-1.2 2.1-2 3l7 4c.6.3 1.3.1 1.6-.4l.6-1c.4-.6.2-1.3-.4-1.7zm2.2-11.6h-7.2v.6c0 1-.1 2-.3 3h7.5c.7 0 1.2-.5 1.2-1.2v-1.2c0-.7-.5-1.2-1.2-1.2zm-22.8-6.6c-4 0-7.2 3.2-7.2 7.2 0 .7.5 1.2 1.2 1.2s1.2-.5 1.2-1.2c0-2.6 2.2-4.8 4.8-4.8.7 0 1.2-.5 1.2-1.2s-.5-1.2-1.2-1.2zm0-6c-7.7 0-13.2 6.2-13.2 13.2 0 3.3 1.2 6.4 3.3 8.7 1.2 1.4 3.2 4.4 3.9 6.9h3.6c0-.4-.1-.7-.2-1.1-.4-1.3-1.7-4.9-4.7-8.2-1.5-1.8-2.4-4-2.4-6.3 0-5.5 4.5-9.6 9.6-9.6 5.3 0 9.6 4.3 9.6 9.6 0 2.3-.8 4.6-2.4 6.3-2.9 3.3-4.2 6.9-4.7 8.2-.1.3-.2.7-.2 1.1h3.8c.7-2.5 2.7-5.5 3.9-6.9 2-2.3 3.3-5.4 3.3-8.7 0-7.3-5.9-13.2-13.2-13.2z"/></svg>