<svg enable-background="new 0 0 48 48" viewBox="0 0 48 48" xmlns="http://www.w3.org/2000/svg"><path d="m23.2 27.7h1.5c.4 0 .8-.3.8-.8v-1.5c2.2-.1 4-1.9 4-4.2 0-1.9-1.2-3.5-3-4.1l-4.2-1.3c-.5-.1-.8-.6-.8-1.2 0-.7.5-1.2 1.1-1.2h2.6c.4 0 .8.1 1.2.3.3.2.7.2.9-.1l1.1-1.1c.3-.3.3-.9-.1-1.1-.9-.6-1.9-1-2.9-1.1v-1.3c0-.4-.3-.8-.8-.8h-1.5c-.4 0-.8.3-.8.8v1.5c-2.2.1-4 1.9-4 4.2 0 1.9 1.2 3.5 3 4.1l4.2 1.3c.5.1.8.6.8 1.2 0 .7-.5 1.2-1.1 1.2h-2.6c-.4 0-.8-.1-1.2-.3-.3-.2-.7-.2-.9.1l-1.1 1.1c-.3.3-.3.9.1 1.1.9.6 1.9 1 2.9 1.1v1.4c.1.4.4.7.8.7zm-6.7 15.3c0 .3.1.6.3.8l2.3 3.5c.3.4.7.7 1.2.7h7.4c.5 0 1-.3 1.2-.7l2.3-3.5c.2-.2.3-.5.3-.8v-4h-15zm7.5-43c-9.6 0-16.5 7.8-16.5 16.5 0 4.2 1.5 8 4.1 10.9 1.6 1.8 4 5.5 4.9 8.6h4.5c0-.4-.1-.9-.2-1.3-.5-1.7-2.1-6.1-5.8-10.3-1.9-2.2-3-5-3-7.9 0-6.9 5.6-12 12-12 6.6 0 12 5.4 12 12 0 2.9-1.1 5.7-3 7.9-3.7 4.2-5.3 8.6-5.8 10.3-.1.4-.2.8-.2 1.3h4.5c.9-3.1 3.4-6.9 4.9-8.6 2.5-2.9 4.1-6.7 4.1-10.9 0-9.1-7.4-16.5-16.5-16.5z"/></svg>