<svg enable-background="new 0 0 48 48" viewBox="0 0 48 48" xmlns="http://www.w3.org/2000/svg"><path d="m16.5 42.6c0 .6.2 1.2.5 1.7l1.6 2.4c.6.8 1.5 1.3 2.5 1.3h5.8c1 0 1.9-.5 2.5-1.3l1.6-2.4c.3-.5.5-1.1.5-1.7v-3.6h-15zm7.4-42.6c-9.5 0-16.4 7.8-16.4 16.5 0 4.2 1.5 8 4.1 10.9 1.5 1.8 4 5.5 4.9 8.6v.1h15s0 0 0-.1c.9-3.1 3.3-6.8 4.9-8.6 2.5-2.9 4.1-6.7 4.1-10.9 0-9.1-7.4-16.5-16.6-16.5zm1.6 24v1.5c0 .4-.3.7-.7.7h-1.5c-.4 0-.7-.3-.7-.7v-1.5c-1.1-.1-2.1-.4-2.9-1.1-.4-.3-.4-.8-.1-1.1l1.1-1.1c.3-.2.6-.3.9-.1.4.2.8.3 1.2.3h2.6c.6 0 1.1-.6 1.1-1.2s-.3-1-.8-1.2l-4.2-1.3c-1.7-.5-3-2.2-3-4.1 0-2.3 1.8-4.2 4-4.2v-1.4c0-.4.3-.7.7-.7h1.5c.4 0 .7.3.7.7v1.5c1.1.1 2.1.4 2.9 1.1.4.3.4.8.1 1.1l-1.1 1.1c-.3.2-.6.3-.9.1-.4-.2-.8-.3-1.2-.3h-2.6c-.6 0-1.1.6-1.1 1.2s.3 1 .8 1.2l4.2 1.3c1.7.5 3 2.2 3 4.1 0 2.2-1.8 4-4 4.1z"/></svg>