<svg enable-background="new 0 0 48 48" viewBox="0 0 48 48" xmlns="http://www.w3.org/2000/svg"><path d="m18.8 13.1 1.9 1.5c.9-.8 2-1.3 3.3-1.3.7 0 1.2-.5 1.2-1.2s-.5-1.2-1.2-1.2c-2.1-.1-3.9.8-5.2 2.2zm5.2-4.7c5.3 0 9.6 4.3 9.6 9.6 0 1.9-.6 3.8-1.7 5.3l2.8 2.2c1.5-2.1 2.4-4.7 2.4-7.6 0-7.3-5.9-13.2-13.2-13.2-1.3 0-6.1.1-10 4.6l2.8 2.2c3-3 6.4-3.1 7.3-3.1zm-6 30.8c0 .2.1.5.2.7l1.8 2.8c.2.3.6.5 1 .5h6c.4 0 .8-.2 1-.5l1.8-2.8c.1-.2.2-.4.2-.7v-3.2h-12zm3.6-5.6c0-.4-.1-.7-.2-1.1-.3-1-1.2-3.4-3-6l-7.4-5.7c.5 2.2 1.5 4.2 3 5.9 1.2 1.4 3.2 4.4 3.9 6.9zm25.9 6.5-44.8-35c-.5-.5-1.3-.4-1.7.1l-.7 1c-.4.5-.3 1.3.2 1.7l44.8 35.1c.5.4 1.3.3 1.7-.2l.7-.9c.4-.6.4-1.4-.2-1.8z"/></svg>