<svg enable-background="new 0 0 48 48" viewBox="0 0 48 48" xmlns="http://www.w3.org/2000/svg"><path d="m7.6 20.2v.2.1.1.1.1.2s0 .1-.1.1v.1l-.1.1c0 .1-.1.1-.1.2-.5.6-1.2 1-2 1-1.4 0-2.6-1.2-2.6-2.6 0-1 .5-1.7 1.1-2.2.5-.4 1-.5 1.4-.5h.1c1.3 0 2.5 1 2.6 2.3v.2.1c-.3.1-.3.2-.3.4zm14.2 6.4c-1.2 0-2.3-1-2.3-2.3s1-2.3 2.3-2.3 2.3 1 2.3 2.3c0 1.4-1.1 2.3-2.3 2.3zm11.6-3.8c0-.1.1-.1.4-.1h3.5c.5.4 1.7 1.3 2.4 2.4.5.6.8 1.4 1.2 2.2h-3.9c-1.2 0-2.3-.7-2.8-1.8l-.8-2.2c0-.4 0-.5 0-.5zm5.7 12.6.4 1.8h-10.5l.4-1.8h.2zm-10.5-13.3c1.2 0 2.3 1 2.3 2.3s-1 2.3-2.3 2.3c-1.2 0-2.3-1-2.3-2.3 0-1.4.9-2.3 2.3-2.3zm18.3-13.6h-20.7-2.2-20.8c-.6 0-1 .5-1 1.1s.5 1.1 1.1 1.1h19.6v4h-5.3c-1.3 0-2.4 1.1-2.4 2.4v1 .1h-5.6c-.6-1.7-2.2-3-4.1-3.2l-1.1-2.4c-.1-.4-.6-.7-1.1-.7h-1.6c-.4 0-.7.1-.8.5-.2.2-.2.6-.1 1l.8 3.1c-1 1-1.6 2.2-1.6 3.5 0 2.8 2.2 4.9 4.9 4.9 1.2 0 2.4-.5 3.2-1.2l7.1 1.6c1.8 5.4 6.5 9.4 12 10.2l-.4 1.9v.1h-2.4c-.6 0-1.1.5-1.1 1.1s.5 1.1 1.1 1.1h19.4c.6 0 1.1-.5 1.1-1.1s-.5-1.1-1.1-1.1h-2.2v-.1l-.4-1.9c1.6-.5 2.6-1.9 2.6-3.6v-.1c0-1.2-.1-2.3-.5-3.4v-.1s0 0 0-.1c-.5-1.6-1.1-2.8-1.9-4-.1-.1-.1-.2-.2-.4s-.4-.5-.5-.6c-.7-.8-1.6-1.7-2.4-2.3-.1-.1-.2-.1-.2-.1h-.1c-1.9-1.3-4.3-2.2-6.7-2.3 0-.1 0-.1 0-.2v-1c0-1.3-1.1-2.4-2.4-2.4h-1.8v-4h19.7c.6 0 1.1-.5 1.1-1.1.1-.7-.4-1.3-1-1.3zm-42 12.9c-.8 0-1.4-.7-1.4-1.4s.7-1.4 1.4-1.4 1.4.7 1.4 1.4-.5 1.4-1.4 1.4z"/></svg>