<svg enable-background="new 0 0 48 48" viewBox="0 0 48 48" xmlns="http://www.w3.org/2000/svg"><path d="m19.8 19.6-.4.2h7.6v1l.1.9v1.9h.1c.3 4.7 1.2 8.9 2.7 12.4 1.9 4.6 3.6 7.7 4.7 9.5h-18.1-9.2c1.1-1.9 2.7-4.9 4.5-9.3 2.6-6.3 2.9-13.3 2.8-16.4h1.2v-.2zm11.4-19.5c-3.6 0-6.6 3-6.6 6.6 0 .5 0 1 .1 1.4-.4.1-.7.4-1 .5-1.1-.6-2.3-.8-3.5-.8-4.1 0-7.5 3.4-7.5 7.5 0 .7.1 1.4.2 2-.2 0-.4.1-.6.4-.2.2-.4.5-.2.8 0 .1.6 9-2.6 16.8-3.2 7.9-5.8 11.1-5.8 11.1-.2.4-.4.8-.1 1.2.2.2.6.4 1 .4h11.9 20.7 6.3c.5 0 .8-.2 1-.6.1-.3.1-.8-.3-1.2 0 0-2-2.8-4.8-9.5-2.6-6.7-2.2-14.3-2.2-14.4 0-.4-.1-.6-.2-.8-.2-.2-.5-.4-.8-.4h-6.6c0-1.7 0-2.8 0-2.8 0-.4-.1-.6-.2-.8-.1-.1-.2-.2-.5-.2 1.4-.8 2.5-2.3 2.6-4 3.5-.2 6.3-3.1 6.3-6.6 0-3.6-3-6.6-6.6-6.6zm-7.4 11c.3 0 .6-.1.8-.3.5-.5 1.1-.7 1.7-.7.4 0 .7-.2.8-.6.2-.4.2-.7 0-1.1-.2-.6-.4-1.2-.4-1.8 0-2.4 1.9-4.3 4.3-4.3s4.3 1.9 4.3 4.3-1.9 4.3-4.4 4.3c-.2 0-.5 0-.7 0-.4 0-.7.1-1 .4-.2.2-.4.6-.2 1v.5c.3 1.4-.9 2.8-2.5 2.8h-.1c-.5 0-1 .4-1.2.8-.1.2-.1.5-.2.7h-9.5c-.2-.6-.4-1.3-.4-2 0-2.9 2.3-5.2 5.2-5.2 1.1 0 2 .4 2.9 1 .2.2.4.2.6.2zm13.9 34.7c-.7-1.1-2.9-4.3-5.5-10.7-1.7-4.1-2.3-8.5-2.5-11.8h5.4c0 2.5.1 8.5 2.3 14.2 1.6 4 3 6.6 3.8 8.2h-3.5zm2.2-37.4c-1.8 0-3.4 1.4-3.4 3.2s1.4 3.4 3.4 3.4c1.9 0 3.4-1.4 3.4-3.4s-1.6-3.2-3.4-3.2zm0 4.3c-.6 0-1.1-.5-1.1-1.1s.5-1.1 1.1-1.1 1.1.5 1.1 1.1-.5 1.1-1.1 1.1z"/><path d="m21 30.8h3.5c.4 0 .7.2 1 .6.3.3.3.7.2 1l-4.6 8.5c-.2.4-.6.6-1 .6-.1 0-.2 0-.2 0-.5-.1-.8-.6-.8-1.1v-4.7h-2.8c-.4 0-.7-.2-1-.5-.2-.4-.2-.7-.1-1.1l3.8-9c.2-.5.7-.7 1.2-.6s.8.6.8 1.1"/></svg>