<svg enable-background="new 0 0 48 48" viewBox="0 0 48 48" xmlns="http://www.w3.org/2000/svg"><path d="m44.1 31.8c-1 .7-2.2.4-2.2-1.1v-3.7c0-1.1-1-2-2-2h-2.6c.2.6.5 1.2.5 1.9 0 2.3-1.8 4-4.2 4.1h-.1-.1c-2.4-.1-4.2-1.8-4.2-4.1 0-.6.1-1.3.5-1.9h-2.7c-1.1 0-2 .8-2 2v3.7c0 1.6-1.3 1.9-2.2 1.1-1.4-1.3-3.7-.6-3.8 1.8.1 2.4 2.3 3 3.8 1.8.8-.8 2.2-.5 2.2 1.1v3.5c0 1.1.8 2 2 2h3.7c1.6 0 1.9 1.3 1.1 2.2-1.3 1.4-.6 3.7 1.8 3.8 2.4-.1 3-2.4 1.8-3.8-1-1-.6-2.3 1-2.3h3.6c1.1 0 2-.8 2-2v-3.6c0-1.6 1.2-1.9 2.2-1.1 1.4 1.3 3.7.6 3.7-1.8-.2-2.2-2.4-2.9-3.8-1.6z"/><path d="m44.1 12.7c-1 .8-2.2.5-2.2-1.1v-3.6c0-1.1-1-1.9-2-1.9h-3.6c-1.6 0-1.9-1.2-1.1-2.2 1.2-1.4.5-3.7-1.8-3.8-2.4.1-3 2.3-1.8 3.8.9.8.5 2.1-1 2.1h-3.7c-1.1 0-2 1-2 2v2.6c.6-.2 1.2-.5 1.9-.5 2.3 0 4 1.8 4.1 4.2v.1c-.1 2.4-1.8 4.2-4.1 4.2-.6 0-1.3-.1-1.9-.5v2.6c0 1.1.8 2 2 2h3.7c1.6 0 1.9 1.3 1.1 2.2-1.3 1.4-.6 3.7 1.8 3.8 2.4-.1 3-2.3 1.8-3.8-.8-.8-.5-2.2 1.1-2.2h3.6c1.1 0 2-.8 2-2v-3.7c0-1.6 1.3-1.9 2.2-1.1 1.4 1.3 3.7.6 3.8-1.8-.2-2-2.5-2.7-3.9-1.4z"/><path d="m21.1 24.9h-3.7c-1.6 0-1.9-1.3-1.1-2.2 1.3-1.4.6-3.7-1.8-3.8-2.4.1-3 2.3-1.8 3.8.8.8.5 2.2-1.1 2.2h-3.5c-1.1 0-2 .8-2 2v3.7c0 1.6-1.3 1.9-2.2 1.1-1.4-1.3-3.7-.7-3.8 1.7.1 2.3 2.4 3 3.8 1.7 1-.7 2.2-.4 2.2 1.1v3.7c0 1.1.8 2 2 2h3.6c1.6 0 1.9 1.2 1.1 2.2-1.3 1.4-.6 3.7 1.8 3.8 2.4-.1 3-2.3 1.8-3.8-.8-1-.5-2.2 1.1-2.2h3.7c1.1 0 2-1 2-2v-2.6c-.6.2-1.2.5-1.9.5-2.3 0-4-1.8-4.1-4.2v-.1-.1c.1-2.4 1.8-4.2 4.1-4.2.6 0 1.3.1 1.9.5v-2.7c-.2-1.2-1-2.1-2.1-2.1z"/><path d="m25.2 12.7c-.8.8-2.2.5-2.2-1.1v-3.5c0-1.1-.8-2-2-2h-3.7c-1.6 0-1.9-1.3-1.1-2.2 1.3-1.4.7-3.7-1.7-3.8-2.4.1-3 2.4-1.8 3.8.9.8.5 2.1-1 2.1h-3.7c-1 0-2 .9-2 2.1v3.6c0 1.6-1.2 1.9-2.2 1.1-1.4-1.3-3.7-.6-3.8 1.8.2 2.3 2.4 3 3.8 1.7 1-.7 2.2-.5 2.2 1.1v3.6c0 1.1 1 2 2 2h2.6c-.2-.6-.5-1.2-.5-1.9 0-2.3 1.8-4 4.2-4.1h.1.1c2.4.1 4.2 1.8 4.2 4.1 0 .6-.1 1.3-.5 1.9h2.8c1.1 0 2-.8 2-2v-3.7c0-1.6 1.3-1.9 2.2-1.1 1.4 1.3 3.7.6 3.8-1.8-.1-2.3-2.4-3-3.8-1.7z"/></svg>