<svg enable-background="new 0 0 48 48" viewBox="0 0 48 48" xmlns="http://www.w3.org/2000/svg"><path d="m42.3 8.9v1.5 2.5 2.4 15 1.6 2.5 1.5h-36.6v-27zm-12.6 25.5c3.1 0 6.2-1.3 8.5-3.5 2.2-2.2 3.5-5.3 3.5-8.5 0-3.3-1.3-6.3-3.6-8.5-2.2-2.2-5.3-3.5-8.4-3.5s-6.2 1.3-8.5 3.5c-2.2 2.2-3.5 5.3-3.5 8.5s1.3 6.2 3.5 8.5c2.3 2.2 5.4 3.5 8.5 3.5m18.3-31.2h-48v38.4h1.6v3.2h8v-3.2h28.8v3.2h8v-3.2h1.6zm-46.4 36.8v-35.2h44.8v5.6h-1.6v-2.4c0-.8-.7-1.6-1.6-1.6h-38.4c-.8.1-1.6.8-1.6 1.6v28.8c0 .8.7 1.6 1.6 1.6h38.4c.8 0 1.6-.7 1.6-1.6v-2.4h1.6v5.6h-8-28.8zm43.2-27.2v-.8h1.6v.8zm-15.1 19.1c-2.6 0-5-1.1-6.7-2.8s-2.8-4.1-2.8-6.7 1.1-5 2.8-6.7 4.1-2.8 6.7-2.8 5 1.1 6.7 2.8c1.8 1.7 2.8 4.1 2.8 6.7s-1.1 5-2.8 6.7-4.1 2.8-6.7 2.8zm15.1-1.6v-16h1.6v16zm0 2.5v-.8h1.6v.8z"/><circle cx="29.6" cy="22.4" r="1.6"/><path d="m28.9 14.4c-1.6.1-3.1.8-4.2 1.8l.5.5c.4.4.4.8 0 1.1-.2.1-.5.2-.7.2s-.4-.1-.6-.2l-.5-.5c-1 1.2-1.6 2.6-1.8 4.2h.7c.5 0 .8.4.8.8 0 .5-.4.8-.8.8h-.7c.1 1.6.8 3.1 1.8 4.2l.5-.5c.2-.2.4-.3.6-.3s.4.1.5.3c.2.4.4.8 0 1.1l-.5.5c1.2 1 2.6 1.6 4.2 1.8v-.7c0-.5.4-.8.8-.8s.8.4.8.8v.7c1.6-.1 3.1-.8 4.2-1.8l-.4-.4c-.4-.4-.4-.8 0-1.1.2-.2.4-.3.6-.3s.4.1.5.3l.5.5c1-1.2 1.6-2.6 1.8-4.2h-.7c-.5 0-.8-.4-.8-.8 0-.5.4-.8.8-.8h.7c-.1-1.6-.8-3.1-1.8-4.2l-.4.5c-.1.1-.4.2-.6.2s-.4-.1-.6-.2c-.4-.4-.4-.8 0-1.1l.5-.5c-1.2-1-2.6-1.6-4.2-1.8v.7c0 .5-.4.8-.8.8s-.7-.5-.7-.8zm.7 11.1c-1.8 0-3.2-1.4-3.2-3.2s1.4-3.2 3.2-3.2 3.2 1.4 3.2 3.2-1.5 3.2-3.2 3.2z"/><path d="m13.3 13.6c-.4 0-.8.3-.8.8v.8c-.4 0-.8.3-.8.8 0 .4.3.8.8.8v11.2c-.4 0-.8.3-.8.8 0 .4.3.7.8.8v.8c0 .5.4.9.8.9s.8-.3.8-.8v-16.1c0-.4-.4-.8-.8-.8z"/><path d="m9.3 13.5c-.4 0-.8.3-.8.8v16c0 .4.4.8.8.8s.8-.3.8-.8v-.7c.4 0 .8-.3.8-.8s-.3-.8-.8-1.1v-11c.4 0 .8-.3.8-.8 0-.4-.3-.8-.8-.8v-.8c0-.4-.4-.8-.8-.8z"/></svg>