<svg enable-background="new 0 0 48 48" viewBox="0 0 48 48" xmlns="http://www.w3.org/2000/svg"><path d="m48 3.2h-48v38.4h1.6v3.2h8v-3.2h28.8v3.2h8v-3.2h1.6zm-1.6 9.6h-1.6v-.8h1.6zm0 17.5h-1.6v-16h1.6zm-1.6 1.7h1.6v.8h-1.6zm1.6 8h-8-28.8-8v-35.2h44.8v5.6h-1.6v-2.4c0-.8-.7-1.6-1.6-1.6h-38.4c-.8.1-1.6.8-1.6 1.6v28.8c0 .8.7 1.6 1.6 1.6h38.4c.8 0 1.6-.7 1.6-1.6v-2.4h1.6zm-7.2-17.6c0 2.6-1.1 5-2.8 6.7-1.7 1.7-4.1 2.8-6.7 2.8s-5-1.1-6.7-2.8c-1.7-1.7-2.8-4.1-2.8-6.7s1.1-5 2.8-6.7c1.7-1.7 4.1-2.8 6.7-2.8s5 1.1 6.7 2.8c1.8 1.7 2.8 4.1 2.8 6.7zm-28 7.2c0-.5.4-.8.8-.8v-11.2c-.5 0-.8-.4-.8-.8 0-.5.4-.8.8-.8v-.8c0-.5.4-.8.8-.8s.8.4.8.8v16.1c0 .5-.4.8-.8.8s-.8-.4-.8-.9v-.8c-.5-.1-.8-.4-.8-.8zm-.8 0c0 .5-.4.8-.8.8v.7c0 .5-.4.8-.8.8s-.8-.4-.8-.8v-16c0-.5.4-.8.8-.8s.8.4.8.8v.8c.5 0 .8.4.8.8 0 .5-.4.8-.8.8v11c.5.3.8.6.8 1.1z"/><circle cx="29.6" cy="22.4" r="1.6"/><path d="m35.3 17.9c-.1.1-.4.2-.6.2s-.4-.1-.6-.2c-.4-.4-.4-.8 0-1.1l.5-.5c-1.2-1-2.6-1.6-4.2-1.8v.7c0 .5-.4.8-.8.8s-.7-.5-.7-.8v-.8c-1.6.1-3.1.8-4.2 1.8l.5.5c.4.4.4.8 0 1.1-.2.1-.5.2-.7.2s-.4-.1-.6-.2l-.5-.5c-1 1.2-1.6 2.6-1.8 4.2h.7c.5 0 .8.4.8.8 0 .5-.4.8-.8.8h-.7c.1 1.6.8 3.1 1.8 4.2l.5-.5c.4-.4.8-.4 1.1 0 .2.4.4.8 0 1.1l-.5.5c1.2 1 2.6 1.6 4.2 1.8v-.7c0-.5.4-.8.8-.8s.8.4.8.8v.7c1.6-.1 3.1-.8 4.2-1.8l-.4-.4c-.4-.4-.4-.8 0-1.1.4-.4.8-.4 1.1 0l.5.5c1-1.2 1.6-2.6 1.8-4.2h-.7c-.5 0-.8-.4-.8-.8 0-.5.4-.8.8-.8h.7c-.1-1.6-.8-3.1-1.8-4.2zm-5.7 7.6c-1.8 0-3.2-1.4-3.2-3.2s1.4-3.2 3.2-3.2 3.2 1.4 3.2 3.2-1.5 3.2-3.2 3.2z"/></svg>