<svg enable-background="new 0 0 48 48" viewBox="0 0 48 48" xmlns="http://www.w3.org/2000/svg"><path d="m40.9 7.1c-9.4-9.5-24.5-9.5-33.8 0-9.1 9-9.4 23.4-1.1 32.7l.2.2c-1 1.9-2.5 4.3-4.9 5.6-.8.4-.6 1.7.2 1.8 2.8.5 6.6 0 10.2-2.8 9.3 5.5 21.3 4.3 29.2-3.6 9.5-9.4 9.5-24.6 0-33.9zm-6.9 22.8c0 .2-.2.5-.5.5h-13.1v1.6c0 .4-.4.5-.6.4l-5.6-3.5c-.2-.1-.2-.5 0-.7l5.6-3.5c.2-.1.6 0 .6.4v1.7h13.1c.2 0 .5.2.5.5zm-.2-10.2-5.6 3.5c-.2.1-.6 0-.6-.4v-1.7h-13.1c-.2 0-.5-.2-.5-.5v-2.5c0-.2.2-.5.5-.5h13.1v-1.6c0-.4.4-.5.6-.4l5.6 3.5c.3.1.3.5 0 .6z"/></svg>