<svg enable-background="new 0 0 48 48" viewBox="0 0 48 48" xmlns="http://www.w3.org/2000/svg"><path d="m24 2.5c5.7 0 11.1 2.3 15.2 6.4 4.1 4 6.4 9.4 6.4 15.1 0 5.8-2.3 11.2-6.4 15.3-4 4-9.4 6.3-15.1 6.3-3.9 0-7.7-1.1-11.1-3-.4-.2-.8-.3-1.3-.3s-1.1.2-1.5.5c-1.2 1-2.6 1.7-4 2 1-1.2 1.7-2.5 2.2-3.5s.3-2.2-.4-2.9l-.1-.1c-7.5-8.4-7-21.2 1.1-29.2 3.9-4.4 9.3-6.6 15-6.6m-9.8 27.3c-.7.7-1 1.7-1 2.7s.5 1.9 1.3 2.6c.7.7 1.6 1 2.5 1 1.1 0 2.1-.5 2.9-1.4l13.9-16.7c.7-.7 1-1.7 1-2.7s-.5-1.9-1.3-2.6c-.7-.7-1.6-1-2.5-1-1.1 0-2.1.5-2.9 1.4zm.5-6.7c3.1 0 5.6-2.5 5.6-5.6s-2.5-5.6-5.6-5.6-5.6 2.5-5.6 5.6c0 2.9 2.5 5.4 5.6 5.6zm18.5 13.2c3.1 0 5.7-2.5 5.7-5.7s-2.5-5.6-5.7-5.6-5.7 2.5-5.7 5.7 2.6 5.6 5.7 5.6m-9.2-36.3c-6.1 0-12.2 2.3-16.9 7.1-9.1 9-9.4 23.4-1.1 32.7l.2.2c-1 1.9-2.5 4.3-4.9 5.6-.8.4-.6 1.6.2 1.8.6.1 1.2.1 1.9.1 2.5 0 5.5-.7 8.3-2.9 3.8 2.3 8.1 3.4 12.3 3.4 6.1 0 12.2-2.3 16.9-7 9.5-9.4 9.5-24.6 0-33.9-4.7-4.8-10.8-7.1-16.9-7.1zm-6.9 33.7c-.3 0-.6-.1-.9-.4-.6-.5-.6-1.3-.1-1.8l14-16.8c.3-.3.6-.5.9-.5s.6.1.9.4c.6.5.6 1.3.1 1.8l-14 16.8c-.3.3-.6.5-.9.5zm-2.4-13.1c-1.7-.1-3.1-1.5-3.1-3.1 0-1.7 1.4-3.1 3.1-3.1s3.1 1.4 3.1 3.1c.1 1.6-1.4 3.1-3.1 3.1zm18.5 13.2c-1.7 0-3.2-1.4-3.2-3.2 0-1.7 1.4-3.2 3.2-3.2 1.7 0 3.2 1.4 3.2 3.2s-1.4 3.2-3.2 3.2z"/></svg>