<svg enable-background="new 0 0 48 48" viewBox="0 0 48 48" xmlns="http://www.w3.org/2000/svg"><path d="m18.5 18c-.8-.8-2.3-.8-3.1 0s-.8 2.3 0 3.1 2.3.8 3.1 0c.9-.9.9-2.3 0-3.1z"/><path d="m29.5 26.9c-.8.8-.8 2.3 0 3.1s2.3.8 3.1 0 .8-2.3 0-3.1c-.9-.9-2.2-.9-3.1 0z"/><path d="m40.9 7.1c-9.4-9.5-24.5-9.5-33.8 0-9.1 9-9.4 23.4-1.1 32.7l.2.2c-1 1.9-2.5 4.3-4.9 5.6-.8.4-.6 1.6.2 1.8 2.8.4 6.6 0 10.2-2.8 9.3 5.5 21.3 4.3 29.2-3.6 9.5-9.4 9.5-24.6 0-33.9zm-29.3 12.5c0-2.9 2.4-5.3 5.3-5.3s5.3 2.4 5.3 5.3-2.4 5.3-5.3 5.3c-2.9-.1-5.3-2.5-5.3-5.3zm6.4 13.6c-.5.6-1.3.6-1.8.1-.6-.5-.6-1.3-.1-1.8l14-16.8c.5-.6 1.3-.6 1.8-.1.6.5.6 1.3.1 1.8zm13.1.6c-2.9 0-5.3-2.4-5.3-5.3s2.4-5.3 5.3-5.3 5.3 2.4 5.3 5.3-2.4 5.3-5.3 5.3z"/></svg>