<svg enable-background="new 0 0 48 48" viewBox="0 0 48 48" xmlns="http://www.w3.org/2000/svg"><path d="m24 2.5c5.7 0 11.1 2.3 15.2 6.4 4.1 4 6.4 9.4 6.4 15.1 0 5.8-2.3 11.2-6.4 15.3-4 4-9.4 6.3-15.1 6.3-3.9 0-7.7-1.1-11.1-3l-1.5-.9-1.3 1c-1.4 1.1-2.8 1.7-4 2.1 1-1.2 1.7-2.5 2.3-3.5l.9-1.6-1.4-1.5-.1-.1c-7.5-8.4-7-21.2 1.1-29.2 3.9-4.2 9.3-6.4 15-6.4m0-2.5c-6.1 0-12.2 2.3-16.9 7.1-9.1 9-9.4 23.4-1.1 32.7l.2.2c-1 1.9-2.5 4.3-4.9 5.6-.8.4-.6 1.7.2 1.8.6.1 1.3.2 2 .2 2.5 0 5.4-.8 8.2-3 3.8 2.3 8.1 3.4 12.3 3.4 6.1 0 12.2-2.3 16.9-7 9.5-9.4 9.5-24.6 0-33.9-4.7-4.8-10.8-7.1-16.9-7.1z"/><path d="m34 29.9c0 .2-.2.5-.5.5h-13.1v1.6c0 .4-.4.5-.6.4l-5.6-3.5c-.2-.1-.2-.5 0-.7l5.6-3.5c.2-.1.6 0 .6.4v1.7h13.1c.2 0 .5.2.5.5z"/><path d="m33.8 19.7-5.6 3.5c-.2.1-.6 0-.6-.4v-1.7h-13.1c-.2 0-.5-.2-.5-.5v-2.5c0-.2.2-.5.5-.5h13.1v-1.6c0-.4.4-.5.6-.4l5.6 3.5c.3.1.3.5 0 .6z"/></svg>