<svg enable-background="new 0 0 48 48" viewBox="0 0 48 48" xmlns="http://www.w3.org/2000/svg"><path d="m3.2 35.8v7.8c0 .5.4.8.8.8h6c.5 0 .8-.4.8-.8v-13.7l-4.3 4.3c-.8 1-2 1.5-3.3 1.6z"/><path d="m14 29.8v13.8c0 .5.4.8.8.8h6c.5 0 .8-.4.8-.8v-8.2c-1.3 0-2.6-.6-3.6-1.6z"/><path d="m24.7 34.6v9c0 .5.4.8.8.8h6c.5 0 .8-.4.8-.8v-16.6l-6.9 6.9c-.1.2-.3.4-.7.7z"/><path d="m42.8 16.8-7.3 7.2v19.6c0 .5.4.8.8.8h6c.5 0 .8-.4.8-.8v-26.3c-.2-.1-.4-.4-.5-.4v-.1z"/><path d="m47.7 4c-.4-.4-.7-.5-1.3-.5h-.1c-2.8.1-5.7.2-8.4.4-.4 0-.8 0-1.3.5-.1.1-.2.2-.4.5-.4.8.1 1.4.5 1.8l.7.7c.5.5 1 1 1.4 1.4l-17 17-7.6-7.6c-.5-.5-1.1-.7-1.7-.7s-1.2.2-1.7.7l-10 10.1c-1 1-1 2.5 0 3.5l.4.4c.5.5 1.1.7 1.7.7s1.2-.2 1.7-.7l7.9-7.9 7.6 7.6c.5.5 1.1.7 1.7.7s1.2-.2 1.7-.7l19.1-19.1 2.2 2.2c.2.2.6.6 1.2.6.2 0 .5 0 .7-.2.1-.1.2-.2.4-.4.5-.5.5-1 .5-1.4.1-1.8.1-3.6.2-5.4l.2-2.8c0-.6-.1-1-.3-1.4z"/></svg>