<svg enable-background="new 0 0 48 48" viewBox="0 0 48 48" xmlns="http://www.w3.org/2000/svg"><path d="m6.1 28.3h-5c-.6 0-1.1.5-1.1 1.1v2.2 9.2 2.2c0 .5.5 1 1.1 1h5c.6 0 1.1-.5 1.1-1.1v-2.2-9.2-2.2c0-.5-.5-1-1.1-1z"/><path d="m16.3 22.3h-5c-.6 0-1.1.5-1.1 1.1v8.2 3.2 8.2c0 .6.5 1.1 1.1 1.1h5c.6 0 1.1-.5 1.1-1.1v-8.2-3.2-8.2c.1-.6-.5-1.1-1.1-1.1z"/><path d="m27.7 25.5v-9h3.5c.6 0 1.1-.7.7-1.2l-7.1-11.4c-.4-.5-1.1-.5-1.4 0l-7.1 11.4c-.4.6 0 1.2.7 1.2h3.4v26.5c0 .6.5 1.1 1.1 1.1h5c.6 0 1.1-.5 1.1-1.1-2-2.3-3.2-5.4-3.2-8.6 0-3.6 1.3-6.6 3.3-8.9z"/><path d="m37.7 26.9c4 0 7.3 3.3 7.3 7.3s-3.3 7.3-7.3 7.3-7.3-3.3-7.3-7.3 3.3-7.3 7.3-7.3m0-3c-5.8 0-10.3 4.7-10.3 10.3s4.6 10.3 10.3 10.3 10.3-4.7 10.3-10.3-4.7-10.3-10.3-10.3z"/><path d="m40 37c-.4.4-.8.7-1.3.8-.3.1-.4.1-.3.4v.7c0 .1-.1.3-.3.4-.3 0-.5 0-.7 0s-.4 0-.4-.3c0-.1 0-.4 0-.5 0-.4 0-.4-.4-.4-.4-.1-.9-.1-1.3-.4-.4-.1-.4-.3-.3-.5.1-.3.1-.5.1-.7.1-.3.1-.4.4-.1.4.3 1 .4 1.4.4s.6 0 1-.1c.5-.3.6-.9.1-1.3-.1-.1-.4-.3-.5-.4-.5-.1-1-.4-1.5-.6-.8-.4-1.3-1-1.2-1.9.1-1 .6-1.7 1.6-2.1.4-.1.4-.1.4-.5 0-.1 0-.3 0-.4 0-.4.1-.4.4-.4h.3c.6 0 .6 0 .6.6 0 .4 0 .4.4.5s.7.1 1 .3c.1.1.3.1.1.4-.1.3-.1.5-.3.9.1.2 0 .2-.3 0-.5-.3-1-.4-1.6-.4-.1 0-.3 0-.4.1-.5.1-.5.8-.1 1 .1.1.4.3.7.4.4.1.9.4 1.3.6 1.7.7 2 2.3 1.1 3.5z"/></svg>