<svg enable-background="new 0 0 48 48" viewBox="0 0 48 48" xmlns="http://www.w3.org/2000/svg"><path d="m29.7 25.6c-.4 0-.6.2-.7.5s0 .6.2.8l13.4 12.4c3.1-3.8 5-8.5 5.4-13.6z"/><path d="m24 3.1c9.9 0 18.4 7.1 20.5 16.5h-21c-.6 0-1.3.2-1.8.6l-16.9 12.3c-1.2-2.6-1.8-5.5-1.8-8.5 0-11.6 9.5-20.9 21-20.9m0-3c-13.2 0-24 10.6-24 23.9 0 4.8 1.4 9.2 3.8 12.9l19.3-14.1c.2-.2.6-.2.8-.2h23.9c-.6-12.6-11-22.5-23.8-22.5z"/><path d="m25.1 27c-.7-.6-1.7-.7-2.5-.1l-16.9 12.4c4.3 5.3 11 8.6 18.3 8.6 6.3 0 12.2-2.5 16.5-6.6z"/></svg>