<svg enable-background="new 0 0 48 48" viewBox="0 0 48 48" xmlns="http://www.w3.org/2000/svg"><path d="m2.4 44.9c0 .7.6 1.3 1.3 1.3h5.5c.7 0 1.3-.6 1.3-1.3v-23.2l-8.2-8.2v31.4z"/><path d="m13.7 24.8v20c0 .7.6 1.3 1.3 1.3h5.5c.7 0 1.3-.6 1.3-1.3v-13.6c-1.4-.1-2.6-.8-3.6-1.8z"/><path d="m36.4 36.5v8.5c0 .7.6 1.3 1.3 1.3h5.5c.7 0 1.3-.6 1.3-1.3v-8c-2.5-.1-4.9-.2-7.4-.4-.3-.1-.5-.1-.7-.1z"/><path d="m33 27.7-2.2-2.2-3.8 3.9c-.6.6-1.3 1.1-2 1.4v14.2c0 .7.6 1.3 1.3 1.3h5.5c.7 0 1.3-.6 1.3-1.3v-10.2c-.4-.5-.7-1-1-1.4-.4-1-1.1-3.4.9-5.7z"/><path d="m48 31.3-.1-2.9c-.1-1.9-.1-3.8-.2-5.8 0-.5-.1-1-.6-1.4-.1-.1-.2-.2-.5-.4-.2-.1-.5-.2-.7-.2-.6 0-1 .4-1.2.6l-.7.6c-.5.5-1 1-1.6 1.6l-.1.1-9.7-9.7c-.5-.5-1.1-.7-1.8-.7s-1.3.2-1.8.7l-6.4 6.6-17.8-17.9c-.5-.5-1.1-.7-1.8-.7s-1.3.2-1.8.7l-.5.5c-1 1-1 2.6 0 3.6l20 20c.5.5 1.1.7 1.8.7s1.3-.2 1.8-.7l6.5-6.5 7.4 7.4c-.5.5-1.1 1.1-1.6 1.6l-.6.9c-.2.2-1 1-.5 1.8.1.2.2.4.4.5.5.5 1 .5 1.3.5 3 .1 5.9.2 8.9.4h.1c.6 0 1.1-.1 1.3-.5.4-.3.5-.8.5-1.4z"/></svg>