<svg enable-background="new 0 0 48 48" viewBox="0 0 48 48" xmlns="http://www.w3.org/2000/svg"><path d="m42.8 2.2-41.2 14c-1.2.5-1.9 1.8-1.4 3 .4 1 1.3 1.6 2.3 1.6.2 0 .5 0 .7-.1l42.2-14.5c-1.8-.6-2.7-2.4-2.6-4z"/><path d="m47.8 4.2c.2-.4.2-.7.1-1.2s-.4-.6-.7-.8l-5.9-2c-.5-.1-1 0-1.3.4-.4.4-.5.8-.4 1.3l2.4 7.1c.1.5.6.8 1.1.8.5.1 1-.1 1.2-.6z"/><path d="m0 27.7v17c0 1.9 1.4 3.3 3.2 3.3h3.2c1.8 0 3.2-1.4 3.2-3.2v-20.3l-9 3.1c-.1.1-.4.1-.6.1z"/><path d="m12.7 44.8c0 1.8 1.4 3.2 3.2 3.2h3.2c1.8 0 3.2-1.4 3.2-3.2v-24.8l-9.6 3.4z"/><path d="m25.4 44.8c0 1.8 1.4 3.2 3.2 3.2h3.2c1.8 0 3.2-1.4 3.2-3.2v-29.2l-9.4 3.4v25.8z"/><path d="m38.3 14.5v30.1c0 1.8 1.4 3.2 3.2 3.2h3.2c1.8 0 3.2-1.4 3.2-3.2v-33.3z"/></svg>