<svg enable-background="new 0 0 48 48" viewBox="0 0 48 48" xmlns="http://www.w3.org/2000/svg"><path d="m24 3c11.5 0 21 9.5 21 21s-9.5 21-21 21-21-9.5-21-21 9.4-21 21-21m0-3c-13.2 0-24 10.8-24 24s10.8 24 24 24 24-10.8 24-24-10.8-24-24-24z"/><path d="m24 16.6c-4.2 0-7.6 3.4-7.6 7.6h4.6c0-1.7 1.3-3 3-3s3 1.3 3 3-1.3 3-3 3h-6.8c1.2 2.6 3.8 4.6 6.8 4.6 4.2 0 7.6-3.4 7.6-7.6s-3.4-7.6-7.6-7.6z"/><path d="m25.6 24c0 .8-.7 1.6-1.6 1.6h-16.4v-3h16.4c.8 0 1.6.6 1.6 1.4z"/><path d="m13.6 25.6c0 .8-.7 1.6-1.6 1.6h-6.2c-.2 0-.4-.1-.5-.4-.1-.2 0-.5.1-.6l2-2-2-2c-.1-.1-.2-.4-.1-.6s.2-.4.5-.4h6.2c.8 0 1.6.7 1.6 1.6z"/><path d="m24 7.6c-7.6 0-13.9 5-15.8 12h3.1c1.8-5.3 6.8-9 12.7-9 7.4 0 13.6 6 13.6 13.6s-6 13.6-13.6 13.6c-5.9 0-10.8-3.7-12.7-9h-3.1c1.9 7 8.3 12 15.8 12 9.1 0 16.6-7.4 16.6-16.6s-7.5-16.6-16.6-16.6z"/></svg>