<svg enable-background="new 0 0 48 48" viewBox="0 0 48 48" xmlns="http://www.w3.org/2000/svg"><path d="m40.9 7.1-3.4 3.4c3.5 3.5 5.6 8.3 5.6 13.6 0 10.6-8.6 19.2-19.2 19.2s-19.1-8.7-19.1-19.3c0-9.8 7.3-17.9 16.8-19.1v4.8c-6.8 1.2-12 7.1-12 14.2 0 7.9 6.5 14.4 14.4 14.4s14.4-6.5 14.4-14.4c0-4-1.6-7.6-4.2-10.2l-3.4 3.3c1.7 1.8 2.8 4.2 2.8 6.8 0 5.3-4.3 9.6-9.6 9.6s-9.6-4.3-9.6-9.6c0-4.4 3.1-8.2 7.2-9.2v5.2c-1.4.8-2.4 2.4-2.4 4.1 0 2.6 2.2 4.8 4.8 4.8s4.8-2.2 4.8-4.8c0-1.8-1-3.4-2.4-4.1v-19.8h-2.4c-13.2 0-24 10.8-24 24s10.8 24 24 24 24-10.8 24-24c0-6.6-2.6-12.6-7.1-16.9z"/></svg>