<svg enable-background="new 0 0 48 48" viewBox="0 0 48 48" xmlns="http://www.w3.org/2000/svg"><path d="m38.7 5.1.5 21.1.1 4 3.5-1.8 2.7-1.4v15.9h-43v-11.7l8.8-4.4v1.7 4l3.6-1.8 7-3.5 1-.5v1.8 4l3.6-1.8 7.8-3.8 1.4-.7v-1.5l.5-19.7h2.5m1.3-2.4h-5.1c-.7 0-1.2.6-1.2 1.2l-.5 20.9-7.8 3.8v-15c0-.7-.6-1.2-1.2-1.2h-2.2c-.7 0-1.2.6-1.2 1.2v11.5l-7 3.5v-3.8c0-.4-.2-.8-.6-1-.2-.1-.5-.1-.7-.1s-.3 0-.5.1l-11.4 5.7c-.4.3-.6.6-.6 1.1v13.8c0 .6.5 1.1 1 1.1h.2 45.6c.7 0 1.2-.6 1.2-1.2v-19.4c0-.5-.2-.8-.4-1.1-.2-.1-.5-.1-.7-.1s-.3 0-.5.1l-4.7 2.4-.5-22.3c0-.7-.6-1.2-1.2-1.2z"/><path d="m8.4 36.5h-3.2v4.4h3.2z"/><path d="m17.1 36.5h-3.2v4.4h3.2z"/><path d="m25.8 36.5h-3.2v4.4h3.2z"/><path d="m34.4 36.5h-3.2v4.4h3.2z"/></svg>