<svg enable-background="new 0 0 48 48" viewBox="0 0 48 48" xmlns="http://www.w3.org/2000/svg"><path d="m44 5.3h-40c-2.2 0-4 1.8-4 4v29.3c0 2.2 1.8 4 4 4h40c2.2 0 4-1.8 4-4v-29.3c0-2.2-1.8-4-4-4zm0 33.4h-40v-29.4h40zm-26.7-14.7c2.9 0 5.3-2.4 5.3-5.3s-2.4-5.3-5.3-5.3-5.3 2.3-5.3 5.3 2.4 5.3 5.3 5.3zm-7.4 10.7h14.9c1 0 1.9-.7 1.9-1.6v-1.6c0-2.6-2.5-4.8-5.6-4.8-.9 0-1.6.7-3.7.7-2.2 0-2.8-.7-3.7-.7-3.1 0-5.6 2.1-5.6 4.8v1.6c-.1.9.7 1.6 1.8 1.6zm20.1-5.4h9.3c.4 0 .7-.3.7-.7v-1.3c0-.4-.3-.7-.7-.7h-9.3c-.4 0-.7.3-.7.7v1.3c0 .4.3.7.7.7zm0-5.3h9.3c.4 0 .7-.3.7-.7v-1.3c0-.4-.3-.7-.7-.7h-9.3c-.4 0-.7.3-.7.7v1.3c0 .4.3.7.7.7zm0-5.3h9.3c.4 0 .7-.3.7-.7v-1.3c0-.4-.3-.7-.7-.7h-9.3c-.4 0-.7.3-.7.7v1.3c0 .4.3.7.7.7z"/></svg>