<svg enable-background="new 0 0 48 48" viewBox="0 0 48 48" xmlns="http://www.w3.org/2000/svg"><path d="m44 5.3h-40c-2.2 0-4 1.8-4 4v29.3c0 2.2 1.8 4 4 4h40c2.2 0 4-1.8 4-4v-29.3c0-2.2-1.8-4-4-4zm-29.3 8c2.9 0 5.3 2.4 5.3 5.3s-2.4 5.4-5.3 5.4-5.3-2.4-5.3-5.3 2.3-5.4 5.3-5.4zm9.3 19.8c0 .9-.8 1.6-1.9 1.6h-14.9c-1 0-1.9-.7-1.9-1.6v-1.6c0-2.6 2.5-4.8 5.6-4.8h.4c1 .4 2.1.7 3.3.7s2.3-.2 3.3-.7h.4c3.1 0 5.6 2.1 5.6 4.8v1.6zm18.7-4.4c0 .4-.3.7-.7.7h-12c-.4 0-.7-.3-.7-.7v-1.3c0-.4.3-.7.7-.7h12c.4 0 .7.3.7.7zm0-5.4c0 .4-.3.7-.7.7h-12c-.4 0-.7-.3-.7-.7v-1.3c0-.4.3-.7.7-.7h12c.4 0 .7.3.7.7zm0-5.3c0 .4-.3.7-.7.7h-12c-.4 0-.7-.3-.7-.7v-1.3c0-.4.3-.7.7-.7h12c.4 0 .7.3.7.7z"/></svg>