<svg enable-background="new 0 0 48 48" viewBox="0 0 48 48" xmlns="http://www.w3.org/2000/svg"><path d="m45 36c-2.6 0-2.9-3-7-3s-4.4 3-7 3-2.9-3-7-3c-4 0-4.4 3-7 3s-2.9-3-7-3-4.4 3-7 3v-7.5c0-2.5 2-4.5 4.5-4.5h1.5v-13.5h6v13.5h6v-13.5h6v13.5h6v-13.5h6v13.5h1.5c2.5 0 4.5 2 4.5 4.5zm0 12h-42v-9c4.1 0 4.4-3 7-3s2.9 3 7 3c4 0 4.4-3 7-3s2.9 3 7 3 4.4-3 7-3 2.9 3 7 3zm-33-39c-1.7 0-3-1.3-3-3 0-2.9 3-2.2 3-6 1.1 0 3 2.8 3 5.3s-1.3 3.7-3 3.7zm12 0c-1.7 0-3-1.3-3-3 0-2.9 3-2.2 3-6 1.1 0 3 2.8 3 5.3s-1.3 3.7-3 3.7zm12 0c-1.7 0-3-1.3-3-3 0-2.9 3-2.2 3-6 1.1 0 3 2.8 3 5.3s-1.3 3.7-3 3.7z"/></svg>