<svg enable-background="new 0 0 48 48" viewBox="0 0 48 48" xmlns="http://www.w3.org/2000/svg"><path d="m21 6c0-2.9 3-2.2 3-6 1.1 0 3 2.8 3 5.3s-1.3 3.7-3 3.7-3-1.3-3-3zm15 3c1.7 0 3-1.3 3-3.8s-1.9-5.2-3-5.2c0 3.8-3 3.1-3 6 0 1.7 1.3 3 3 3zm9 16.5v22.5h-42v-22.5c0-2.5 2-4.5 4.5-4.5h2.3v-10.5h4.5v10.5h7.5v-10.5h4.5v10.5h7.5v-10.5h4.5v10.5h2.3c2.4 0 4.4 2 4.4 4.5zm-37.5.6v5.3c.8.7 1.4 1.2 2.5 1.2 2.4 0 2.8-3 7-3 4.1 0 4.7 3 7 3 2.4 0 2.8-3 7-3s4.6 3 7 3c1.1 0 1.7-.6 2.5-1.2v-5.3c0-.3-.3-.6-.6-.6h-31.9c-.2 0-.5.3-.5.6zm33 17.4v-7.6c-.7.3-1.5.5-2.5.5-4.2 0-4.6-3-7-3s-2.8 3-7 3c-4.1 0-4.7-3-7-3-2.4 0-2.8 3-7 3-1 0-1.8-.2-2.5-.5v7.6zm-28.5-34.5c1.7 0 3-1.3 3-3.8s-1.9-5.2-3-5.2c0 3.8-3 3.1-3 6 0 1.7 1.3 3 3 3z"/></svg>