<svg enable-background="new 0 0 48 48" viewBox="0 0 48 48" xmlns="http://www.w3.org/2000/svg"><path d="m31.4 6.7c.6 0 1.3.7 1.3 1.3v4.6 3.2h3.3 7.6c.6 0 1.2.7 1.2 1.2v4.3h-41.6v-4.2c0-.6.7-1.3 1.3-1.3h7.5 3.2v-3.2-4.6c0-.6.7-1.3 1.3-1.3zm13.4 22.9v10.4c0 .6-.7 1.3-1.3 1.3h-38.9c-.6 0-1.3-.7-1.3-1.3v-10.4h11.3v1.4c0 2.6 2.2 4.8 4.8 4.8h9c2.6 0 4.8-2.2 4.8-4.8v-1.3zm-13.4-26.1h-14.8c-2.4 0-4.6 2.1-4.6 4.5v4.6h-7.4c-2.4 0-4.6 2.2-4.6 4.6v7.4h48v-7.6c0-2.3-2-4.4-4.4-4.4h-7.6v-4.6c0-2.4-2.2-4.5-4.6-4.5zm16.6 22.9h-18.1v4.6c0 .8-.7 1.6-1.6 1.6h-9c-.8 0-1.6-.7-1.6-1.6v-4.6h-17.7v13.6c0 2.4 2.2 4.6 4.6 4.6h38.9c2.4 0 4.6-2.2 4.6-4.6v-13.6z"/><path d="m18 9h12v3h-12z"/></svg>