<svg enable-background="new 0 0 48 48" viewBox="0 0 48 48" xmlns="http://www.w3.org/2000/svg"><path d="m31.4 5.1c.5 0 1 .5 1 1v4.5 3.6h3.6 7.5c.5 0 1 .4 1 1v26.8c0 .5-.5 1-1 1h-39c-.5 0-1-.5-1-1v-26.9c0-.5.5-1 1-1h7.5 3.6v-3.6-4.5c0-.6.5-1 1.1-1h14.7m0-3.5h-14.9c-2.5.1-4.5 2-4.5 4.5v4.5h-7.5c-2.5 0-4.5 2-4.5 4.5v27c0 2.5 2 4.5 4.5 4.5h38.9c2.5 0 4.5-2 4.5-4.5v-27c-.1-2.5-2.2-4.4-4.5-4.4h-7.5v-4.6c0-2.5-2-4.5-4.5-4.5z"/><path d="m18 9.1h12v3h-12z"/><path d="m33 32.2c0 .4-.4.7-.7.7h-5.3v5.3c0 .4-.4.7-.7.7h-4.5c-.4 0-.7-.4-.7-.7v-5.3h-5.3c-.4 0-.7-.4-.7-.7v-4.5c0-.4.4-.7.7-.7h5.2v-5.3c0-.4.4-.7.7-.7h4.5c.4 0 .7.4.7.7v5.3h5.3c.4 0 .7.4.7.7v4.5z"/></svg>