<svg enable-background="new 0 0 48 48" viewBox="0 0 48 48" xmlns="http://www.w3.org/2000/svg"><path d="m24.1 8.9c1.1 0 1.9.1 2.6.4l2 .6.3-.3 1.8 1.3c1.6 1.2 2.9 2.6 3.8 4.2l1.1 1.8h.3l.4 2.3c.1.7.2 1.4.2 2.2v2.6 1.8 3.6 2.6c0 .7-.1 1.3-.2 2.2l-.4 2.2h-.1l-1.1 1.8c-2.4 4-6.4 6.2-10.8 6.2s-8.4-2.3-10.8-6.4l-1.1-1.8h-.1l-.4-2.2c-.1-.7-.2-1.4-.2-2.2v-2.6-3.6-1.6-2.8c0-.7.1-1.3.2-2.2l.4-2.2h.1l1.1-1.7c1.1-1.8 2.3-3 4-4.2l2-1.4.1.1 1.8-.4c1.1-.1 2.1-.3 3-.3m9.5-8.9-5.8 5.8c-1.2-.4-2.4-.5-3.7-.5s-2.5.2-3.7.5l-6-5.8-3.7 3.7 4.3 4.3c-2 1.4-3.6 3.1-4.9 5.3h-7.5v5.3h5.5c-.1.8-.2 1.7-.2 2.6v2.8h-5.3v5.3h5.3v2.6c0 1 .1 1.8.2 2.6h-5.5v5.3h7.4c3 5 8 8.2 14 8.2s11-3.2 13.9-8h7.4v-5.3h-5.5c.1-.8.2-1.7.2-2.6v-2.6h5.3v-5.5h-5.3v-2.6c0-1-.1-1.8-.2-2.6h5.5v-5.4h-7.4c-1.2-2-2.9-3.8-4.8-5.3l4.3-4.3z"/><path d="m29.4 29.8h-10.8v5.2h10.8z"/><path d="m29.4 17.8h-10.8v5.2h10.8z"/></svg>