<svg enable-background="new 0 0 48 48" viewBox="0 0 48 48" xmlns="http://www.w3.org/2000/svg"><path d="m0 0h48v48h-48z" fill="none"/><path d="m45.4 13.3h-7.4c-1.2-2-2.9-3.8-4.8-5.3l4.3-4.3-3.9-3.7-5.8 5.8c-1.2-.4-2.4-.5-3.7-.5s-2.5.2-3.7.5l-6-5.8-3.7 3.7 4.3 4.3c-2 1.4-3.6 3.1-4.9 5.3h-7.5v5.3h5.5c-.1.8-.2 1.7-.2 2.6v2.8h-5.3v5.3h5.3v2.6c0 1 .1 1.8.2 2.6h-5.5v5.3h7.4c3 5 8 8.2 14 8.2s11-3.2 13.9-8h7.4v-5.3h-5.5c.1-.8.2-1.7.2-2.6v-2.6h5.3v-5.5h-5.3v-2.6c0-1-.1-1.8-.2-2.6h5.5v-5.5zm-16.1 21.4h-10.7v-5.3h10.7zm0-10.7h-10.7v-5.3h10.7z"/></svg>