<svg enable-background="new 0 0 48 48" viewBox="0 0 48 48" xmlns="http://www.w3.org/2000/svg"><path d="m20.8 0h-19c-.9 0-1.6.8-1.6 1.7v19c0 1 .7 1.7 1.7 1.7h19c1 0 1.7-.7 1.7-1.7v-19c-.2-.9-.9-1.7-1.8-1.7zm-4 12.7h-11c-.8 0-1.6-.7-1.6-1.6-.1-.8.6-1.6 1.6-1.6h11c.8 0 1.6.7 1.6 1.6s-.7 1.6-1.6 1.6z"/><path d="m20.8 25.5h-19c-1 0-1.7.7-1.7 1.7v19c0 1 .7 1.7 1.7 1.7h19c1 0 1.7-.7 1.7-1.7v-19.1c-.1-.8-.8-1.6-1.7-1.6zm-4 12.9h-4v4c0 .8-.7 1.6-1.6 1.6s-1.7-.7-1.7-1.6v-4h-3.7c-.8 0-1.6-.7-1.6-1.6s.7-1.6 1.6-1.6h3.8v-4c0-.8.7-1.6 1.6-1.6s1.6.7 1.6 1.6v4h4.1c.8 0 1.6.7 1.6 1.6s-.8 1.6-1.7 1.6z"/><path d="m46.3.2h-19c-1 0-1.7.7-1.7 1.7v19c0 1 .7 1.7 1.7 1.7h19c1 0 1.7-.7 1.7-1.7v-19c-.2-.9-.9-1.7-1.7-1.7zm-4.6 16c-.4.4-.7.5-1.1.5s-.8-.1-1.1-.5l-2.8-2.8-2.8 2.8c-.4.4-.7.5-1.1.5s-.8-.1-1.1-.5c-.6-.6-.6-1.7 0-2.3l2.8-2.8-3-2.8c-.6-.6-.6-1.7 0-2.3s1.7-.6 2.3 0l2.8 2.8 2.8-2.8c.6-.6 1.7-.6 2.3 0s.6 1.7 0 2.3l-2.7 2.9 2.8 2.8c.5.5.5 1.6-.1 2.2z"/><path d="m46.3 25.7h-19c-1 0-1.7.7-1.7 1.7v19c0 1 .7 1.7 1.7 1.7h19c1 0 1.7-.7 1.7-1.7v-19c-.2-1-.9-1.7-1.7-1.7zm-4.1 16.5h-11c-.8 0-1.6-.7-1.6-1.6s.7-1.6 1.6-1.6h11c.8 0 1.6.7 1.6 1.6.1.9-.6 1.6-1.6 1.6zm0-7.9h-11c-.8 0-1.6-.7-1.6-1.6 0-.8.7-1.6 1.6-1.6h11c.8 0 1.6.7 1.6 1.6s-.6 1.6-1.6 1.6z"/></svg>