<svg enable-background="new 0 0 48 48" viewBox="0 0 48 48" xmlns="http://www.w3.org/2000/svg"><path d="m19.6 3v16.4h-16.4v-16.4zm1.2-3h-19c-.9 0-1.6.8-1.6 1.7v19c0 1 .7 1.7 1.7 1.7h19c1 0 1.7-.7 1.7-1.7v-19c-.2-.9-.9-1.7-1.8-1.7z"/><path d="m19.5 28.5v16.4h-16.4v-16.4zm1.3-3h-19c-1 0-1.7.7-1.7 1.7v19c0 1 .7 1.7 1.7 1.7h19c1 0 1.7-.7 1.7-1.7v-19.1c-.1-.8-.8-1.6-1.7-1.6z"/><path d="m44.9 3.2v16.4h-16.4v-16.4zm1.4-3h-19c-1 0-1.7.7-1.7 1.7v19c0 1 .7 1.7 1.7 1.7h19c1 0 1.7-.7 1.7-1.7v-19c-.2-.9-.9-1.7-1.7-1.7z"/><path d="m44.9 28.7v16.4h-16.4v-16.4zm1.4-3h-19c-1 0-1.7.7-1.7 1.7v19c0 1 .7 1.7 1.7 1.7h19c1 0 1.7-.7 1.7-1.7v-19c-.2-1-.9-1.7-1.7-1.7z"/><path d="m40.2 6.4c-.4 0-.7.1-1 .4l-2.4 2.4-2.4-2.4c-.2-.2-.6-.4-1-.4s-.7.1-1 .4c-.5.5-.5 1.4 0 2l2.6 2.4-2.4 2.4c-.5.5-.5 1.4 0 2 .2.4.6.4 1 .4s.6-.1 1-.4l2.4-2.4 2.4 2.4c.2.4.6.4 1 .4s.6-.1 1-.4c.5-.5.5-1.4 0-2l-2.4-2.4 2.4-2.4c.5-.5.5-1.4 0-2-.5-.3-.9-.4-1.2-.4z"/><path d="m15.5 10.1h-8.4c-.7 0-1.3.6-1.2 1.2 0 .6.6 1.2 1.2 1.2h8.4c.6 0 1.2-.6 1.2-1.2s-.6-1.2-1.2-1.2z"/><path d="m11.3 31.3c-.6 0-1.2.6-1.2 1.2v3h-3c-.6 0-1.2.6-1.2 1.2s.6 1.2 1.2 1.2h2.9v3c0 .6.6 1.2 1.3 1.2s1.2-.6 1.2-1.2v-3h3.1c.6 0 1.2-.6 1.2-1.2s-.6-1.2-1.2-1.2h-3.1v-3c0-.6-.6-1.2-1.2-1.2z"/><path d="m41 33.6h-8.4c-.7 0-1.3.6-1.2 1.2 0 .6.6 1.2 1.2 1.2h8.4c.6 0 1.2-.6 1.2-1.2s-.6-1.2-1.2-1.2z"/><path d="m41 38h-8.4c-.7 0-1.3.6-1.2 1.2 0 .6.6 1.2 1.2 1.2h8.4c.6 0 1.2-.6 1.2-1.2s-.6-1.2-1.2-1.2z"/></svg>