<svg enable-background="new 0 0 48 48" viewBox="0 0 48 48" xmlns="http://www.w3.org/2000/svg"><path d="m28.6 26.4h3.2v6.3l5.3 3.1-1.7 2.9-7-4v-8.3zm8.8-11.2h-30.8v24.3h10.2c-1-2-1.4-4.2-1.4-6.6 0-8.4 6.9-15.3 15.3-15.3 2.4 0 4.6.5 6.6 1.4v-3.6-.2zm-30.8 28.8c-2.4 0-4.3-1.9-4.3-4.3v-31c0-2.4 1.9-4.3 4.3-4.3h2.2v-4.5h4.3v4.3h17.4v-4.3h4.3v4.3h2.2c2.4 0 4.3 1.9 4.3 4.3v13.5c2.6 2.8 4.3 6.5 4.3 10.7 0 8.4-6.9 15.3-15.3 15.3-4.2 0-7.9-1.7-10.7-4.3h-13zm24.3-21.8c-5.9 0-10.6 4.7-10.6 10.6s4.7 10.6 10.6 10.6 10.6-4.7 10.6-10.6-4.9-10.6-10.6-10.6z"/></svg>