<svg enable-background="new 0 0 48 48" viewBox="0 0 48 48" xmlns="http://www.w3.org/2000/svg"><path d="m40.8 43.2v-28.8h-33.6v28.8zm-7.2-43.2h4.8v4.8h2.4c2.6 0 4.8 2.2 4.8 4.8v33.6c0 2.6-2.2 4.8-4.8 4.8h-33.6c-2.6 0-4.8-2.2-4.8-4.8v-33.6c0-2.6 2.2-4.8 4.8-4.8h2.4v-4.8h4.8v4.8h19.2z"/><path d="m25.6 23.5 3.7 3.7c.1.1.1.4 0 .6l-9.3 9.3-3.8.5c-.5 0-1-.4-.8-.8l.5-3.8 9.2-9.2c0-.4.2-.4.5-.3zm6.6-.8-2-2c-.6-.6-1.7-.6-2.3 0l-1.6 1.6c-.1.1-.1.4 0 .6l3.7 3.7c.1.1.4.1.6 0l1.6-1.6c.7-.8.7-1.7 0-2.3z"/></svg>