<svg enable-background="new 0 0 48 48" viewBox="0 0 48 48" xmlns="http://www.w3.org/2000/svg"><path d="m17.8 26.8 6-6c.2-.2.2-.5 0-.7l-1.1-1.1c-.2-.2-.5-.2-.7 0l-4.5 4.4-1.9-2c-.2-.2-.5-.2-.7 0l-1.2 1.2c-.2.2-.2.5 0 .7l3.5 3.5c.1.2.4.2.6 0zm19.7-20.8h-7.5c0-3.3-2.7-6-6-6s-6 2.7-6 6h-7.5c-2.5 0-4.5 2-4.5 4.5v33c0 2.5 2 4.5 4.5 4.5h27c2.5 0 4.5-2 4.5-4.5v-33c0-2.5-2-4.5-4.5-4.5zm-13.5-1.5c.8 0 1.5.7 1.5 1.5s-.7 1.5-1.5 1.5-1.5-.7-1.5-1.5.7-1.5 1.5-1.5zm13.5 38.3c0 .4-.3.8-.8.8h-25.4c-.4 0-.8-.3-.8-.8v-31.5c0-.4.3-.8.8-.8h3.7v3c0 .8.7 1.5 1.5 1.5h15c.8 0 1.5-.7 1.5-1.5v-3h3.8c.4 0 .8.3.8.8v31.5zm-21-12c-1.2 0-2.3 1-2.3 2.3 0 1.2 1 2.3 2.3 2.3s2.3-1 2.3-2.3-1.1-2.3-2.3-2.3zm15.8-8.3h-5.9c-.1.2-.2.4-.3.5l-2.5 2.5h8.8c.4 0 .8-.3.8-.8v-1.5c-.2-.4-.5-.7-.9-.7zm0 9h-10.5c-.4 0-.8.3-.8.8v1.5c0 .4.3.8.8.8h10.5c.4 0 .8-.3.8-.8v-1.5c-.1-.5-.4-.8-.8-.8z"/></svg>