<svg enable-background="new 0 0 48 48" viewBox="0 0 48 48" xmlns="http://www.w3.org/2000/svg"><path d="m37.5 6h-7.5c0-3.3-2.7-6-6-6s-6 2.7-6 6h-7.5c-2.5 0-4.5 2-4.5 4.5v33c0 2.5 2 4.5 4.5 4.5h27c2.5 0 4.5-2 4.5-4.5v-33c0-2.5-2-4.5-4.5-4.5zm-13.5-2.2c1.2 0 2.3 1 2.3 2.3s-1 2.3-2.3 2.3-2.3-1-2.3-2.3 1.1-2.3 2.3-2.3zm0 14.2c3.3 0 6 2.7 6 6s-2.7 6-6 6-6-2.7-6-6 2.7-6 6-6zm10.5 22.2c0 1-.9 1.8-2.1 1.8h-16.8c-1.2 0-2.1-.8-2.1-1.8v-1.8c0-3 2.8-5.4 6.3-5.4h.5c2.4 1 5.1 1 7.5 0h.5c3.5 0 6.3 2.4 6.3 5.4z"/></svg>