<svg enable-background="new 0 0 48 48" viewBox="0 0 48 48" xmlns="http://www.w3.org/2000/svg"><path d="m31.2 21.2c-.4-.4-1-.4-1.3 0l-8.3 8.2-3.6-3.6c-.4-.4-1-.4-1.3 0l-2.2 2.2c-.4.4-.4 1 0 1.3l6.4 6.5c.4.4 1 .4 1.3 0l11.1-11c.4-.4.4-1 0-1.3zm6.3-15.2h-7.5c0-3.3-2.7-6-6-6s-6 2.7-6 6h-7.5c-2.5 0-4.5 2-4.5 4.5v33c0 2.5 2 4.5 4.5 4.5h27c2.5 0 4.5-2 4.5-4.5v-33c0-2.5-2-4.5-4.5-4.5zm-13.5-1.5c.8 0 1.5.7 1.5 1.5s-.7 1.5-1.5 1.5-1.5-.7-1.5-1.5.7-1.5 1.5-1.5zm13.5 38.3c0 .4-.3.8-.8.8h-25.4c-.4 0-.8-.3-.8-.8v-31.5c0-.4.3-.8.8-.8h3.7v3c0 .8.7 1.5 1.5 1.5h15c.8 0 1.5-.7 1.5-1.5v-3h3.8c.4 0 .8.3.8.8v31.5z"/></svg>