<svg enable-background="new 0 0 48 48" viewBox="0 0 48 48" xmlns="http://www.w3.org/2000/svg"><path d="m37.5 6h-7.5c0-3.3-2.7-6-6-6s-6 2.7-6 6h-7.5c-2.5 0-4.5 2-4.5 4.5v33c0 2.5 2 4.5 4.5 4.5h27c2.5 0 4.5-2 4.5-4.5v-33c0-2.5-2-4.5-4.5-4.5zm-13.5-2.2c1.2 0 2.3 1 2.3 2.3s-1 2.3-2.3 2.3-2.3-1-2.3-2.3 1.1-2.3 2.3-2.3zm13.5 39.1c0 .3-.3.6-.6.6h-25.8c-.3 0-.6-.3-.6-.6v-31.8c0-.3.3-.6.6-.6h3.9v3.4c0 .6.5 1.1 1.1 1.1h15.8c.6 0 1.1-.5 1.1-1.1v-3.4h3.9c.3 0 .6.3.6.6zm-9.3-9.9h-.5c-2.4 1-5.1 1-7.5 0h-.5c-3.5 0-6.3 2.4-6.3 5.4v.6c0 .8.7 1.5 1.5 1.5h18c.8 0 1.5-.7 1.5-1.5v-.6c.1-3-2.7-5.4-6.2-5.4zm-4.2-1.5c3.3 0 6-2.7 6-6s-2.7-6-6-6-6 2.7-6 6 2.7 6 6 6z"/></svg>