<svg enable-background="new 0 0 48 48" viewBox="0 0 48 48" xmlns="http://www.w3.org/2000/svg"><path d="m37.5 6h-7.5c0-3.3-2.7-6-6-6s-6 2.7-6 6h-7.5c-2.5 0-4.5 2-4.5 4.5v33c0 2.5 2 4.5 4.5 4.5h27c2.5 0 4.5-2 4.5-4.5v-33c0-2.5-2-4.5-4.5-4.5zm-22.5 33.8c-1.2 0-2.3-1-2.3-2.3s1-2.3 2.3-2.3 2.3 1 2.3 2.3-1.1 2.3-2.3 2.3zm0-9c-1.2 0-2.3-1-2.3-2.3s1-2.3 2.3-2.3 2.3 1 2.3 2.3-1.1 2.3-2.3 2.3zm0-9c-1.2 0-2.3-1-2.3-2.3s1-2.3 2.3-2.3 2.3 1 2.3 2.3-1.1 2.3-2.3 2.3zm9-18c1.2 0 2.3 1 2.3 2.3s-1 2.3-2.3 2.3-2.3-1-2.3-2.3 1.1-2.3 2.3-2.3zm12 34.5c0 .4-.3.8-.8.8h-13.4c-.4 0-.8-.3-.8-.8v-1.5c0-.4.3-.8.8-.8h13.5c.4 0 .8.3.8.8v1.5zm0-9c0 .4-.3.8-.8.8h-13.4c-.4 0-.8-.3-.8-.8v-1.5c0-.4.3-.8.8-.8h13.5c.4 0 .8.3.8.8v1.5zm0-9c0 .4-.3.8-.8.8h-13.4c-.4 0-.8-.3-.8-.8v-1.5c0-.4.3-.8.8-.8h13.5c.4 0 .8.3.8.8v1.5z"/></svg>