<svg enable-background="new 0 0 48 48" viewBox="0 0 48 48" xmlns="http://www.w3.org/2000/svg"><path d="m37.5 6h-7.5c0-3.3-2.7-6-6-6s-6 2.7-6 6h-7.5c-2.5 0-4.5 2-4.5 4.5v33c0 2.5 2 4.5 4.5 4.5h27c2.5 0 4.5-2 4.5-4.5v-33c0-2.5-2-4.5-4.5-4.5zm-13.5-2.2c1.2 0 2.3 1 2.3 2.3s-1 2.3-2.3 2.3-2.3-1-2.3-2.3 1.1-2.3 2.3-2.3zm-11.9 15.8 1.2-1.2c.2-.2.5-.2.7 0l1.9 2 4.5-4.4c.2-.2.5-.2.7 0l1.2 1.2c.2.2.2.5 0 .7l-6 6c-.2.2-.5.2-.7 0l-3.5-3.5c-.1-.3-.1-.6 0-.8zm2.9 17.2c-1.2 0-2.3-1-2.3-2.3s1-2.3 2.3-2.3 2.3 1 2.3 2.3-1.1 2.3-2.3 2.3zm21-1.5c0 .4-.3.8-.8.8h-13.4c-.4 0-.8-.3-.8-.8v-1.5c0-.4.3-.8.8-.8h13.5c.4 0 .8.3.8.8v1.5zm0-12c0 .4-.4.8-.9.8h-14.7l3-3h11.6c.5 0 .9.3.9.8z"/></svg>