<svg enable-background="new 0 0 48 48" viewBox="0 0 48 48" xmlns="http://www.w3.org/2000/svg"><path d="m23.9 2.9c1.1 0 2.3.1 3.4.2v3.3 1.9l1.8.7c1.8.7 3.6 1.6 4.9 2.9l1.6 1.4 1.7-1 2.9-1.7c1.5 1.7 2.5 3.7 3.3 5.7l-2.9 1.6-1.8 1 .5 2.1c.3 1.9.3 3.9 0 5.7l-.5 2.1 1.7 1 3 1.7c-.8 2.1-1.8 4-3.3 5.7l-2.9-1.7-1.7-1-1.3 1.5c-1.5 1.3-3.1 2.3-4.9 2.9l-1.9.8v1.9 3.4c-1 .2-2.2.2-3.2.2-1.1 0-2.3-.1-3.4-.2v-3.3-1.9l-1.9-.8c-1.8-.7-3.6-1.6-4.9-2.9l-1.6-1.4-1.7 1-2.9 1.7c-1.5-1.8-2.5-3.7-3.3-5.7l2.9-1.7 1.7-1-.3-1.9c-.3-1.9-.3-3.8 0-5.6l.5-2.1-1.8-1-3-1.7c.8-2.1 1.9-4 3.3-5.8l3 1.7 1.7 1 1.6-1.4c1.5-1.3 3.1-2.3 4.9-2.9l1.8-.7v-2.1-3.4c.8-.1 2-.2 3-.2m.1 31.6c5.8 0 10.5-4.7 10.5-10.5s-4.7-10.5-10.5-10.5-10.5 4.7-10.5 10.5 4.7 10.5 10.5 10.5m-.1-34.4c-1.7 0-3.6.2-5.2.6-.6.1-.9.6-.9 1.1v4.7c-2.2.8-4.1 1.9-5.8 3.4l-4.2-2.4c-.1-.1-.3-.1-.5-.1-.3 0-.7.1-.9.3-2.4 2.6-4.2 5.7-5.3 9.2-.1.6.1 1.1.6 1.4l4.1 2.4c-.5 2.2-.5 4.5 0 6.8l-3.9 2.4c-.6.3-.7.8-.6 1.4 1 3.4 2.9 6.5 5.3 9.2.2.2.5.3.8.3.2 0 .5 0 .6-.1l4.1-2.4c1.7 1.5 3.7 2.6 5.8 3.4v4.7c0 .6.3 1 .9 1.1 1.7.3 3.6.6 5.4.6s3.6-.2 5.2-.6c.6-.1.9-.6.9-1.1v-4.7c2.2-.8 4.1-1.9 5.8-3.4l4.1 2.4c.1.1.3.1.5.1.3 0 .7-.1.9-.3 2.4-2.6 4.2-5.7 5.3-9.2.1-.6-.1-1.1-.6-1.4l-4.1-2.4c.5-2.3.5-4.6 0-6.9l4-2.3c.6-.3.7-.8.6-1.4-1-3.4-2.9-6.5-5.3-9.2-.2-.2-.5-.3-.8-.3-.2 0-.5 0-.6.1l-4.1 2.4c-1.7-1.5-3.7-2.6-5.8-3.4v-4.7c0-.6-.3-1-.9-1.1-1.9-.4-3.6-.6-5.4-.6zm.1 31.6c-4.2 0-7.7-3.4-7.7-7.7s3.4-7.7 7.7-7.7 7.7 3.4 7.7 7.7-3.5 7.7-7.7 7.7z"/></svg>