<svg enable-background="new 0 0 48 48" viewBox="0 0 48 48" xmlns="http://www.w3.org/2000/svg"><path d="m42.2 27.4 4.1 2.4c.5.2.7.8.6 1.4-1 3.4-2.9 6.5-5.3 9.2-.3.3-.9.5-1.4.2l-4.1-2.4c-1.7 1.5-3.7 2.6-5.8 3.4v4.7c0 .6-.3 1-.9 1.1-3.3.8-7 .8-10.5 0-.6-.1-.9-.6-.9-1.1v-4.7c-2.2-.8-4.1-1.9-5.8-3.4l-4.2 2.4c-.5.2-1 .2-1.4-.2-2.4-2.6-4.2-5.7-5.3-9.2-.1-.6 0-1 .6-1.4l3.9-2.4c-.5-2.3-.5-4.6 0-6.8l-4.1-2.4c-.5-.2-.7-.7-.6-1.3 1-3.4 2.9-6.5 5.3-9.2.5-.3 1-.5 1.5-.2l4.1 2.4c1.7-1.5 3.7-2.6 5.8-3.4v-4.7c0-.6.3-1 .9-1.1 3.3-.8 7-.8 10.5 0 .6.1.9.6.9 1.1v4.7c2.2.8 4.1 1.9 5.8 3.4l4.1-2.4c.5-.2 1-.2 1.4.2 2.4 2.6 4.2 5.7 5.3 9.2.1.6 0 1-.6 1.4l-4 2.3c.6 2.2.6 4.5.1 6.8zm-10.5-3.4c0-4.2-3.4-7.7-7.7-7.7s-7.7 3.4-7.7 7.7 3.4 7.7 7.7 7.7 7.7-3.5 7.7-7.7z"/></svg>