<svg enable-background="new 0 0 48 48" viewBox="0 0 48 48" xmlns="http://www.w3.org/2000/svg"><path d="m37.6 6.9.5.8.3.7.8-.1c.3 0 .7-.1 1-.1s.7 0 1 .1l.8.1.3-.7.5-.8c.6.2 1.1.6 1.6.9l-.4.8-.3.7.5.6c.5.6.8 1.1.9 1.6l.2.8h.7 1c.1.6 0 1.1 0 1.8h-1-.8l-.2.8c-.1.5-.5 1-.9 1.6l-.5.6.3.7.5.8c-.5.3-1 .7-1.6.9l-.5-.8-.2-.7-.8.3c-.3 0-.7.1-1 .1s-.7 0-1-.1l-.8-.1-.3.7-.5.8c-.6-.2-1.1-.6-1.6-.9l.5-.8.3-.7-.3-.7c-.6-.6-.9-1.1-1-1.6l-.2-.8h-.8-.9c-.1-.6 0-1.1 0-1.8h.9.8l.2-.8c.1-.5.5-1 .9-1.6l.5-.6-.3-.7-.6-.7c.5-.4 1-.7 1.5-1.1m2.8 10.2c1.4 0 2.7-.8 3.3-2 .7-1.4.5-3-.6-4.2l-.1-.2-.1-.1c-.8-.6-1.7-.9-2.6-.9-1.5 0-2.7.8-3.3 2-.7 1.4-.5 2.8.6 4.2l.1.1.1.1c.7.6 1.6 1 2.6 1m-2.8 11.1.5.8.3.7.8-.1c.3 0 .7-.1 1-.1s.7 0 1 .1l.8.1.3-.7.5-.8c.6.2 1.1.6 1.6.9l-.4.8-.5.9.5.6c.5.6.8 1.1.9 1.6l.2.8h.8.9c.1.6 0 1.1 0 1.8h-.9-.8l-.2.8c-.1.5-.5 1-.9 1.6l-.5.6.3.7.5.8c-.5.3-1 .7-1.6.9l-.5-.8-.2-.7-.8.1c-.3 0-.7.1-1 .1s-.7 0-1-.1l-.8-.1-.4.7-.5.8c-.6-.2-1.1-.6-1.6-.9l.5-.8.3-.7-.2-.7c-.5-.6-.8-1.1-.9-1.6l-.2-.8h-.8-.9c-.1-.6 0-1.1 0-1.8h.9.8l.2-.8c.1-.5.5-1 .9-1.6l.5-.6-.4-.7-.5-.8c.5-.3 1-.6 1.5-1m2.8 10.1c1.4 0 2.7-.8 3.3-2 .7-1.4.5-3-.6-4.2l-.1-.1-.1-.1c-.8-.6-1.7-.9-2.6-.9-1.5 0-2.7.8-3.3 2-.7 1.4-.5 3 .6 4.2l.1.1.1.1c.7.6 1.6.9 2.6.9m-2.5-32.5c-.1 0-.2 0-.3 0-.8.3-1.6.8-2.3 1.4-.4.3-.5.8-.3 1.1l.6 1c-.5.6-.9 1.3-1.1 1.9h-1.1c-.5 0-.8.3-.9.8-.1.9-.1 1.7 0 2.6.1.3.5.7.9.7h1.1c.2.7.7 1.4 1.1 1.9l-.6 1c-.2.3-.1.9.2 1.1.7.6 1.5 1 2.3 1.4.1.1.2.1.3.1.2 0 .6-.2.7-.5l.6-1c.3 0 .8.1 1.1.1s.8 0 1.1-.1l.6 1.1c.1.2.3.3.7.3h.3c.8-.3 1.6-.8 2.3-1.4.3-.3.5-.8.2-1.1l-.6-1c.5-.6.9-1.3 1.1-1.9h1.1c.5 0 .8-.3.9-.8.1-.9.1-1.7 0-2.6-.1-.3-.5-.7-.9-.7h-1c-.2-.7-.7-1.4-1.1-1.9l.6-1c.2-.3.1-.9-.2-1.1-.7-.6-1.5-1-2.3-1.4-.1-.1-.2-.1-.3-.1-.2 0-.6.2-.7.5l-.6 1c-.3 0-.8-.1-1.1-.1s-.8 0-1.1.1l-.6-1.1c-.2-.2-.4-.3-.7-.3zm2.5 10.1c-.6 0-1.3-.2-1.9-.7-1.7-2.2-.2-4.4 1.8-4.4.6 0 1.3.2 1.9.7 1.7 2 .1 4.4-1.8 4.4zm-2.5 11.2c-.1 0-.2 0-.3 0-.8.3-1.6.8-2.3 1.4-.3.3-.5.8-.2 1.1l.6 1c-.5.6-.9 1.3-1.1 1.9h-1.1c-.5 0-.8.3-.9.8-.1.9-.1 1.7 0 2.6.1.3.5.7.9.7h1.1c.2.7.7 1.4 1.1 1.9l-.6 1c-.2.3-.1.9.2 1.1.7.6 1.5 1 2.3 1.4.1.1.2.1.3.1.2 0 .6-.2.7-.5l.6-1c.3 0 .8.1 1.1.1s.8 0 1.1-.1l.6 1.1c.1.2.3.3.7.3h.3c.8-.3 1.6-.8 2.3-1.4.3-.3.5-.8.2-1.1l-.6-1c.5-.6.9-1.3 1.1-1.9h1.1c.5 0 .8-.3.9-.8.1-.9.1-1.7 0-2.6-.1-.3-.5-.7-.9-.7h-1.1c-.2-.7-.7-1.4-1.1-1.9l.6-1c.2-.3.1-.9-.2-1.1-.7-.6-1.5-1-2.3-1.4-.1-.1-.2-.1-.3-.1-.2 0-.6.2-.7.5l-.6 1c-.3 0-.8-.1-1.1-.1s-.8 0-1.1.1l-.6-1.1c-.2-.2-.4-.3-.7-.3zm2.5 10.1c-.6 0-1.3-.2-1.9-.7-1.7-2-.2-4.4 1.8-4.4.6 0 1.3.2 1.9.7 1.7 2 .1 4.4-1.8 4.4z"/><path d="m15.4 10.2c.7 0 1.4 0 1.9.1v1.9 1.6l1.5.6c1.4.6 2.3 1.1 3.2 1.8l1.3 1.1 1.5-.9 1.6-1c.8 1 1.6 2 2 3.2l-2 1.3-1.5.8.3 1.6c.2 1.1.2 2.3 0 3.4l-.3 1.7 1.6.8 1.9 1c-.6 1-1.3 2-2.2 3.1l-1.6-1-1.5-.9-1.3 1.1c-.9.9-2.3 1.5-3.2 1.8l-1.4.6v1.5 1.9c-.6.1-1.1.1-1.7.1-.7 0-1.3 0-1.8-.1v-1.9-1.6l-1.5-.6c-1.4-.6-2.3-1.1-3.2-1.8l-1.3-1.1-1.4.8-1.4.9c-.8-1-1.6-2-2-3.1l1.9-1 1.2-.5-.2-1.6c-.2-1.3-.2-2.6 0-3.9l.2-1.5-1.5-.8-1.9-1c.5-.9 1.1-1.9 2-3.1l1.6 1 1.5.9 1.3-1.1c.9-.9 2.3-1.5 3.2-1.8l1.4-.6v-1.5-2c.6-.2 1.2-.2 1.8-.2m0 21.3c1.8 0 3.6-.7 5.1-1.8l.2-.2.2-.2c2-2.6 2.4-5.7 1.1-8.4-1.3-2.5-3.9-4.2-6.7-4.2-1.8 0-3.5.7-5.1 1.8l-.2.2-.2.2c-2 2.6-2.4 5.8-1 8.4 1.3 2.6 3.8 4.2 6.6 4.2m0-23.5c-.9 0-1.8.1-2.7.2-.8.2-1.4.9-1.4 1.7v2.4c-1.4.6-2.7 1.3-3.9 2.3l-2-1.3c-.2-.2-.6-.2-.9-.2-.5 0-.9.2-1.3.6-1.1 1.4-2.3 3-3 4.7-.2.8.1 1.6.8 2l2.4 1.3c-.2 1.5-.2 3.1 0 4.6l-2.4 1.3c-.8.3-1.1 1.3-.8 2 .6 1.7 1.8 3.3 3 4.7.3.3.9.6 1.4.6.2 0 .6-.1.8-.2l2-1.1c1.1 1 2.4 1.7 3.9 2.3v2.1c0 .9.7 1.6 1.5 1.7.9.1 1.8.2 2.7.2s1.8-.1 2.7-.2c.8-.1 1.4-.9 1.4-1.7v-2.4c1.4-.6 2.7-1.3 3.9-2.3l2 1.3c.2.2.6.2.9.2.5 0 .9-.2 1.3-.6 1.1-1.4 2.4-3 3.1-4.7.2-.8-.1-1.5-.8-2l-2.5-1.3c.3-1.5.3-3 0-4.4l2.5-1.5c.7-.3 1-1.3.7-2-.6-1.7-1.8-3.3-3-4.7-.3-.3-.9-.6-1.4-.6-.2 0-.6.1-.8.2l-2 1.3c-1.1-1-2.4-1.7-3.9-2.3v-2.3c0-.9-.7-1.6-1.5-1.7-.8-.2-1.7-.2-2.7-.2zm0 21.2c-4 0-6.9-4.7-3.8-8.9 1.3-.9 2.5-1.4 3.8-1.4 4 0 7.1 4.7 3.8 8.9-1.3 1.1-2.6 1.4-3.8 1.4z"/></svg>