<svg enable-background="new 0 0 48 48" viewBox="0 0 48 48" xmlns="http://www.w3.org/2000/svg"><path d="m38.4 19.2-.6 1.1c-.2.4-.7.6-1.1.4-.8-.4-1.7-.8-2.4-1.4-.4-.2-.5-.8-.2-1.2l.6-1.1c-.5-.6-1-1.3-1.2-2h-1.2c-.5 0-.8-.4-1-.7-.1-1-.1-1.8 0-2.8.1-.5.5-.8 1-.8h1.2c.2-.7.7-1.4 1.2-2l-.6-1.1c-.2-.6-.1-1 .2-1.4.7-.6 1.6-1.1 2.4-1.4.5-.1 1 0 1.1.4l.6 1.2c.8-.1 1.6-.1 2.4 0l.6-1.1c.2-.4.7-.6 1.1-.4.8.4 1.7.8 2.4 1.4.4.2.5.8.2 1.2l-.6 1.1c.5.6 1 1.3 1.2 2h1.3c.5 0 .8.4 1 .7.1 1 .1 1.8 0 2.8-.1.5-.5.8-1 .8h-1.2c-.2.7-.7 1.4-1.2 2l.6 1.1c.2.4.1.8-.2 1.2-.7.6-1.6 1.1-2.4 1.4-.5.1-1 0-1.1-.4l-.6-1.2c-.9.3-1.6.3-2.5.2zm-.7-4.5c2.9 2.3 6.3-1.1 4-4-3-2.1-6.3 1.1-4 4zm-8.8 11.6 2.5 1.3c.7.5 1.1 1.3.8 2.2-.7 1.8-2 3.5-3.2 4.9-.6.7-1.6.8-2.3.4l-2.2-1.3c-1.2 1.1-2.6 1.8-4.1 2.4v2.5c0 .8-.6 1.7-1.4 1.8-1.8.4-3.9.4-5.7 0-.8-.1-1.6-.8-1.6-1.8v-2.5c-1.6-.6-2.9-1.3-4.1-2.4l-2.2 1.2c-.7.5-1.7.2-2.3-.4-1.2-1.4-2.5-3.1-3.1-4.9-.4-.8 0-1.8.8-2.2l2.5-1.3c-.2-1.6-.2-3.2 0-4.8l-2.3-1.4c-.7-.5-1.1-1.3-.8-2.2.7-1.8 1.9-3.5 3.1-4.9.6-.7 1.6-.8 2.3-.4l2.2 1.3c1.2-1.1 2.6-1.8 4.1-2.4v-2.4c0-.8.6-1.6 1.4-1.8 1.8-.4 3.9-.4 5.8 0 .8.1 1.5.8 1.5 1.8v2.5c1.6.6 2.9 1.3 4.1 2.4l2.2-1.3c.7-.5 1.7-.2 2.3.4 1.2 1.4 2.5 3.1 3.1 4.9.4.8 0 1.8-.7 2.2l-2.6 1.6c.3 1.5.3 3-.1 4.6zm-8.8 1.6c4.5-5.8-2.2-12.4-7.9-7.9-4.5 5.8 2.2 12.3 7.9 7.9zm18.3 13.8-.6 1.1c-.2.4-.7.6-1.1.4-.8-.4-1.7-.8-2.4-1.4-.4-.2-.5-.8-.2-1.2l.6-1.1c-.5-.6-1-1.3-1.2-2h-1.2c-.5 0-.8-.4-1-.7-.1-1-.1-1.8 0-2.8.1-.5.5-.8 1-.8h1.2c.2-.7.7-1.4 1.2-2l-.6-1.1c-.2-.4-.1-.8.2-1.2.7-.6 1.6-1.1 2.4-1.4.5-.1 1 0 1.1.4l.6 1.2c.8-.1 1.6-.1 2.4 0l.6-1.1c.2-.4.7-.6 1.1-.4.8.4 1.7.8 2.4 1.4.4.2.5.8.2 1.2l-.6 1.1c.5.6 1 1.3 1.2 2h1.3c.5 0 .8.4 1 .7.1 1 .1 1.8 0 2.8-.1.5-.5.8-1 .8h-1.2c-.2.7-.7 1.4-1.2 2l.6 1.1c.2.4.1.8-.2 1.2-.7.6-1.6 1.1-2.4 1.4-.5.1-1 0-1.1-.4l-.6-1.2c-.9.1-1.6.1-2.5 0zm-.7-4.5c2.9 2.3 6.3-1.1 4-4-3-2.2-6.3 1.1-4 4z"/></svg>