<svg enable-background="new 0 0 48 48" viewBox="0 0 48 48" xmlns="http://www.w3.org/2000/svg"><path d="m24 0c-13.3 0-24 10.7-24 24s10.7 24 24 24 24-10.8 24-24-10.8-24-24-24zm0 43.2c-10.6 0-19.2-8.6-19.2-19.2s8.6-19.2 19.2-19.2 19.2 8.6 19.2 19.2-8.6 19.2-19.2 19.2zm-4.6-22c.1-.7.4-1.4.7-2 .4-.6.8-1.1 1.4-1.4.6-.4 1.3-.6 2.2-.6.6 0 1.1.1 1.6.4s1 .5 1.2.8c.2.4.6.8.8 1.3s.4 1 .4 1.6h4.3c0-1.1-.2-2.2-.6-3.1-.4-1-1-1.8-1.7-2.4s-1.6-1.2-2.6-1.6-2.2-.6-3.4-.6c-1.6 0-2.9.2-4.1.8-1.2.5-2.2 1.3-2.9 2.2-.7.8-1.3 2-1.7 3.2s-.7 2.5-.7 3.8v.6c0 1.4.2 2.8.6 4s1 2.3 1.7 3.2c.7 1 1.7 1.7 2.9 2.2s2.5.8 4.1.8c1.1 0 2.2-.2 3.1-.6 1-.4 1.8-.8 2.6-1.6.8-.7 1.3-1.4 1.8-2.3s.7-1.8.7-2.8h-4.3c0 .5-.1 1-.4 1.4-.2.5-.5.8-.8 1.1-.4.2-.7.6-1.2.7s-1 .2-1.4.2c-.8 0-1.6-.2-2.2-.6s-1.1-.8-1.4-1.4c-.4-.6-.6-1.3-.7-2.2-.1-.8-.1-1.6-.1-2.4v-.6c-.1-.5 0-1.2.1-2.1z"/></svg>