<svg enable-background="new 0 0 48 48" viewBox="0 0 48 48" xmlns="http://www.w3.org/2000/svg"><path d="m37.8 11.9v30.4c0 1.4-1 2.4-2.4 2.4h-22.7c-1.4 0-2.4-1-2.4-2.4v-30.4l12.4.9h.3.3zm3.1-3.3-18 1.1-15.8-1.1v33.9c0 3.2 2.5 5.6 5.6 5.6h22.7c3.2 0 5.6-2.5 5.6-5.6z"/><path d="m30 2.6 2 2.4.8.9h1.1 7.3v1.4h-34.5v-1.4h7.4 1.1l.8-.9 2-2.4zm1.1-2.5h-14.2l-2.8 3.3h-10v6.5h39.6v-6.5h-9.8z"/><path d="m23.9 22.2v3.5l4.7-4.7-4.7-4.6v3.5c-5.1 0-9.2 4.1-9.2 9.2 0 1.9.5 3.5 1.5 4.9l1.7-1.7c-.5-1-.8-2-.8-3.2-.1-3.8 3-6.9 6.8-6.9zm7.8 2.1-1.7 1.7c.5 1 .8 2 .8 3.2 0 3.8-3.1 6.9-6.9 6.9v-3.5l-4.7 4.7 4.7 4.6v-3.5c5.1 0 9.2-4.1 9.2-9.2 0-1.9-.5-3.5-1.4-4.9z"/></svg>