<svg enable-background="new 0 0 48 48" viewBox="0 0 48 48" xmlns="http://www.w3.org/2000/svg"><path d="m24 0c-13.2 0-24 10.8-24 24s10.8 24 24 24 24-10.8 24-24-10.8-24-24-24zm-2.5 44.4c-4.6-.6-8.8-2.6-12-5.9-3.8-3.8-6-9-6-14.5 0-4.9 1.7-9.6 4.9-13.3.1 1 .2 2 .2 2.8-.2 2.8-.5 4.4 1.2 6.8.6 1 .7 2.2 1.1 3.2.2 1.1 1.4 1.6 2.3 2.2 1.7 1.3 3.2 2.8 5 3.8 1.2.7 1.9 1.1 1.6 2.5-.2 1.1-.4 1.8-1 2.9-.1.4.7 2.3 1 2.6.8.8 1.7 1.7 2.6 2.4 1.4 1.3-.2 2.8-.9 4.5zm17-5.9c-3 3-6.6 4.9-10.7 5.6.6-1.4 1.6-2.6 2.5-3.4.8-.6 1.8-1.8 2.3-2.8s1-1.8 1.6-2.6c.8-1.2-2-3.1-2.9-3.6-2-.8-3.6-2.2-5.4-3.4-1.3-1-4 .5-5.4-.1-2-.8-3.7-2.4-5.4-3.7-1.8-1.3-1.7-3-1.7-4.9 1.4 0 3.5-.4 4.3.7.2.4 1.3 1.9 2 1.4.6-.5-.4-2.3-.6-2.8-.6-1.3 1.3-1.9 2.3-2.8 1.3-1.2 4-3.1 3.7-4-.1-.6-2.7-3-4.1-2.6-.2 0-2.2 2-2.5 2.4 0-.7 0-1.3 0-2 0-.4-.8-.8-.7-1.1.1-.7 2-1.9 2.5-2.5-.4-.3-1.5-1.3-1.8-1.1-.8.4-1.8.6-2.6 1 0-.2 0-.6-.1-.8 1.7-.7 3.4-1.2 5.3-1.6l1.7.6 1.2 1.3 1.2 1.2 1 .4 1.6-1.4-.4-1.1v-1.2c3.1.5 6.1 1.7 8.8 3.5-.5 0-1 .1-1.6.2-.2-.1-.6-.2-.8-.4.7 1.7 1.6 3.2 2.3 4.8.8 1.7 2.8 3.5 3.1 5.4.4 2.2.1 4.1.4 6.6.2 2.4 2.8 5.2 2.8 5.2s1.2.4 2.2.2c-1.5 3.5-3.4 6.8-6.1 9.4z"/></svg>