<svg enable-background="new 0 0 48 48" viewBox="0 0 48 48" xmlns="http://www.w3.org/2000/svg"><path d="m0 0h48v48h-48zm0 0h48v48h-48zm0 0h48v48h-48zm0 0h48v48h-48z" fill="none"/><path d="m30.1 10.5c6.3 1.8 11.7 6.2 14.5 12.4-1 2.2-2.4 4.3-4.1 6.1l-3-3c.2-1 .4-2 .4-3.1 0-5.5-3.1-10.1-7.8-12.4m-19.1 3 1.6 1.6-.8 1.8c-1.1 2-1.6 4.2-1.4 6.3 0 5.1 2.9 9.7 7.1 12-6.2-1.8-11.4-6.2-14.1-12.3 1.6-3.4 3.8-6.3 6.7-8.5zm9.5 9.6 3.5 3.5c-1.9-.2-3.3-1.6-3.5-3.5m11.5 11.4c-.2.1-.5.2-.7.4zm-27-31.2-2.8 2.8 4.9 4.9 1 1c-3.6 2.8-6.5 6.6-8.1 10.9 3.7 9.6 13 16.3 23.9 16.3 3.4 0 6.6-.6 9.6-1.8l1 1 6.3 6.3 2.8-2.8zm19.1 30.6c-6 0-10.9-4.9-10.9-10.9-.1-1.8.4-3.5 1.1-4.9l3.4 3.4c-.1.5-.1 1-.1 1.4 0 3.6 2.9 6.6 6.6 6.6.5 0 1-.1 1.4-.1l3.4 3.4c-1.5.7-3.2 1.1-4.9 1.1zm-.1-27.2c-3 0-6 .6-8.6 1.6l4.7 4.7c1.2-.6 2.5-.8 4-.8 6 0 10.9 4.9 10.9 10.9 0 1.4-.2 2.8-.7 4l6.3 6.3c3.2-2.8 5.9-6.3 7.4-10.3-3.9-9.7-13.1-16.4-24-16.4zm-.1 9.6-.2.1 6.8 6.8v-.4c0-3.5-2.9-6.5-6.6-6.5z"/></svg>