<svg enable-background="new 0 0 48 48" viewBox="0 0 48 48" xmlns="http://www.w3.org/2000/svg"><path d="m0 0h48v48h-48z" fill="none"/><path d="m30.1 11.5c6.5 1.7 11.9 6.3 14.7 12.5-2.8 6.1-8.2 10.6-14.5 12.5 4.6-2.3 7.7-7 7.7-12.5s-3.3-10.2-7.9-12.5m-12.2 0c-4.7 2.3-7.8 7.1-7.8 12.5s3.2 10.2 7.8 12.5c-6.5-1.7-11.9-6.3-14.7-12.5 2.8-6.2 8.2-10.8 14.7-12.5m6.1 8.9c2 0 3.6 1.6 3.6 3.6s-1.6 3.6-3.6 3.6-3.6-1.6-3.6-3.6 1.6-3.6 3.6-3.6m0-12.7c-10.9 0-20.3 6.7-24 16.3 3.7 9.6 13.1 16.3 24 16.3s20.3-6.8 24-16.3c-3.7-9.6-13.1-16.3-24-16.3zm0 27.2c-6 0-10.9-4.9-10.9-10.9s4.9-10.9 10.9-10.9 10.9 4.9 10.9 10.9-4.9 10.9-10.9 10.9zm0-17.5c-3.6 0-6.6 2.9-6.6 6.6s2.9 6.6 6.6 6.6 6.6-2.9 6.6-6.6-3-6.6-6.6-6.6z"/></svg>