<svg enable-background="new 0 0 48 48" viewBox="0 0 48 48" xmlns="http://www.w3.org/2000/svg"><path d="m0 0h48v48h-48zm0 0h48v48h-48zm0 0h48v48h-48zm0 0h48v48h-48z" fill="none"/><path d="m24 12c6 0 10.9 4.9 10.9 10.9 0 1.4-.2 2.8-.7 4l6.3 6.3c3.2-2.8 5.9-6.3 7.4-10.3-3.8-9.5-13-16.2-23.9-16.2-3 0-6 .6-8.6 1.6l4.7 4.7c1.2-.7 2.5-1 3.9-1zm-21.8-5.9 4.9 4.9 1 1c-3.6 2.8-6.5 6.6-8.1 10.9 3.7 9.6 13 16.3 23.9 16.3 3.4 0 6.6-.6 9.6-1.8l1 1 6.3 6.3 2.8-2.8-38.6-38.6zm12.1 12 3.4 3.4c-.1.5-.1 1-.1 1.4 0 3.6 2.9 6.6 6.6 6.6.5 0 1-.1 1.4-.1l3.4 3.4c-1.4.7-3.1 1.2-4.8 1.2-6 0-10.9-4.9-10.9-10.9-.2-1.8.3-3.5 1-5zm9.4-1.6 6.8 6.8v-.4c0-3.6-2.9-6.6-6.6-6.6z"/></svg>