<svg enable-background="new 0 0 48 48" viewBox="0 0 48 48" xmlns="http://www.w3.org/2000/svg"><path d="m34.8 1.8c-4.2 0-8.2 1.9-10.8 5-2.6-3.1-6.6-5-10.8-5-7.4 0-13.2 5.8-13.2 13.3 0 9.2 8.2 16.6 20.5 27.9l3.5 3.1 3.5-3.1c12.3-11.3 20.5-18.6 20.5-27.9 0-7.4-5.8-13.3-13.2-13.3zm-9.4 38.1-.4.4-1 .8-1-.8-.5-.5c-5.8-5.4-10.8-10-14.2-14-3.2-4-4.7-7.3-4.7-10.7 0-2.6 1-5 2.8-6.8s4.2-2.8 6.7-2.8c3 0 6 1.4 7.9 3.7l2.9 3.4 2.9-3.4c1.9-2.4 4.9-3.7 7.9-3.7 2.6 0 5 1 6.7 2.8 1.8 1.8 2.8 4.2 2.8 6.8 0 3.4-1.4 6.6-4.7 10.7-3.1 4.1-8.2 8.7-14.1 14.1z"/></svg>