<svg enable-background="new 0 0 48 48" viewBox="0 0 48 48" xmlns="http://www.w3.org/2000/svg"><path d="m24 0c-13.2 0-24 10.8-24 24s10.8 24 24 24 24-10.8 24-24-10.8-24-24-24zm19.1 16.3-6.6 2c-.7-1.6-1.6-2.9-2.8-4.1s-2.5-2.2-4.1-2.8l2-6.6c2.5 1 4.9 2.5 6.8 4.6 2.2 2 3.7 4.4 4.7 6.9zm-19.1 18c-5.6 0-10.3-4.6-10.3-10.3s4.5-10.3 10.3-10.3 10.3 4.5 10.3 10.3-4.7 10.3-10.3 10.3zm-14.5-24.8c2-2 4.3-3.5 6.8-4.6l2 6.6c-1.6.7-2.9 1.6-4.1 2.8s-2.2 2.5-2.8 4.1l-6.6-2c1.1-2.6 2.6-5 4.7-6.9zm-4.6 22.2 6.6-2c.7 1.6 1.6 2.9 2.8 4.1s2.5 2.2 4.1 2.8l-2 6.6c-2.5-1-4.9-2.5-6.8-4.6-2.2-2-3.7-4.4-4.7-6.9zm33.6 6.8c-2 2-4.3 3.5-6.8 4.6l-2-6.6c1.6-.7 2.9-1.6 4.1-2.8s2.2-2.5 2.8-4.1l6.6 2c-1.1 2.6-2.6 5-4.7 6.9z"/></svg>