<svg enable-background="new 0 0 48 48" viewBox="0 0 48 48" xmlns="http://www.w3.org/2000/svg"><path d="m23.4 15-15.4 12.7v13.7c0 .7.6 1.3 1.3 1.3h9.4c.7 0 1.3-.6 1.3-1.3v-7.9c0-.7.6-1.3 1.3-1.3h5.3c.7 0 1.3.6 1.3 1.3v7.9c0 .7.6 1.3 1.3 1.3h9.4c.7 0 1.3-.6 1.3-1.3v-13.7l-15.3-12.7c-.4-.2-.8-.2-1.2 0zm24.2 8.6-7-5.8v-11.4c0-.6-.5-1-1-1h-4.6c-.6 0-1 .5-1 1v6l-7.4-6.1c-1.4-1.2-3.6-1.2-5 0l-21.2 17.3c-.4.4-.5 1-.1 1.4l2.2 2.5c.4.5 1 .5 1.4.1l19.6-16.2c.4-.2 1-.2 1.3 0l19.6 16.2c.5.4 1.1.2 1.4-.1l2.2-2.6c.1-.3.1-.9-.4-1.3z"/></svg>