<svg enable-background="new 0 0 48 48" viewBox="0 0 48 48" xmlns="http://www.w3.org/2000/svg"><path d="m5.3 28.7v15.3c0 .7.6 1.3 1.3 1.3h34.6c.7 0 1.3-.6 1.3-1.3v-15.3c-.5-.5-3.6-3.3-18.5-16.5-15.1 13.4-18.2 16-18.7 16.5zm26.1-2.3c2.3 1.9 2.4 5.4.4 7.4l-7.1 7.1c-.5.5-1.2.5-1.7 0l-7-7.1c-2-2-1.9-5.5.4-7.4 2-1.7 4.9-1.3 6.8.5l.7.7.7-.7c1.9-1.8 4.8-2.2 6.8-.5zm-26.1 2.3c0-.1-.2.1 0 0zm42.2-6.4-4.9-4.3v-11.3c0-.7-.6-1.3-1.3-1.3h-5.3c-.7 0-1.3.6-1.3 1.3v4.3l-8.4-7.4c-1.3-1.2-3.2-1.2-4.4 0l-21.5 18.7c-.6.5-.6 1.3-.1 1.9l1.8 2c.5.6 1.3.6 1.9.1l19.1-16.7c.5-.5 1.2-.5 1.8 0l19.1 16.8c.6.5 1.4.5 1.9-.1l1.8-2c.4-.5.3-1.4-.2-2zm-4.9 6.3c.2.2 0 0 0 0z"/></svg>