<svg enable-background="new 0 0 48 48" viewBox="0 0 48 48" xmlns="http://www.w3.org/2000/svg"><path d="m44 5.3h-40c-2.2 0-4 1.8-4 4v29.3c0 2.2 1.8 4 4 4h40c2.2 0 4-1.8 4-4v-29.3c0-2.2-1.8-4-4-4zm0 33.4h-18.7c.1-.4.1.3.1-1.9 0-2.6-2.5-4.8-5.6-4.8-.9 0-1.6.7-3.7.7-2.2 0-2.8-.7-3.7-.7-3.1 0-5.6 2.1-5.6 4.8 0 2.2 0 1.5.1 1.9h-2.9v-24h40zm-14-6.7h9.3c.4 0 .7-.3.7-.7v-1.3c0-.4-.3-.7-.7-.7h-9.3c-.4 0-.7.3-.7.7v1.3c0 .4.3.7.7.7zm0-5.3h9.3c.4 0 .7-.3.7-.7v-1.3c0-.4-.3-.7-.7-.7h-9.3c-.4 0-.7.3-.7.7v1.3c0 .4.3.7.7.7zm0-5.4h9.3c.4 0 .7-.3.7-.7v-1.3c0-.4-.3-.7-.7-.7h-9.3c-.4 0-.7.3-.7.7v1.3c0 .4.3.7.7.7zm-14 8c2.9 0 5.3-2.4 5.3-5.3s-2.4-5.3-5.3-5.3-5.3 2.4-5.3 5.3 2.4 5.3 5.3 5.3z"/></svg>