<svg enable-background="new 0 0 48 48" viewBox="0 0 48 48" xmlns="http://www.w3.org/2000/svg"><path d="m44 5.3h-40c-2.2 0-4 1.8-4 4v1.3h48v-1.3c0-2.2-1.8-4-4-4zm-44 33.4c0 2.2 1.8 4 4 4h40c2.2 0 4-1.8 4-4v-25.4h-48zm29.3-19.4c0-.4.3-.7.7-.7h12c.4 0 .7.3.7.7v1.3c0 .4-.3.7-.7.7h-12c-.4 0-.7-.3-.7-.7zm0 5.4c0-.4.3-.7.7-.7h12c.4 0 .7.3.7.7v1.3c0 .4-.3.7-.7.7h-12c-.4 0-.7-.3-.7-.7zm0 5.3c0-.4.3-.7.7-.7h12c.4 0 .7.3.7.7v1.3c0 .4-.3.7-.7.7h-12c-.4 0-.7-.3-.7-.7zm-14.6-11.3c2.9 0 5.3 2.4 5.3 5.3s-2.4 5.3-5.3 5.3-5.4-2.4-5.4-5.3 2.4-5.3 5.4-5.3zm-9.1 17c.7-2.1 2.7-3.7 5.1-3.7h.7c1 .4 2.1.7 3.3.7s2.3-.3 3.3-.7h.7c2.4 0 4.4 1.5 5.1 3.7.3.8-.4 1.6-1.3 1.6h-15.6c-.9 0-1.6-.8-1.3-1.6z"/></svg>