<svg enable-background="new 0 0 48 48" viewBox="0 0 48 48" xmlns="http://www.w3.org/2000/svg"><path d="m12 20.1s-.4 1.6-.6 2.5l-.8 2.8h2.8l-.8-2.8c-.3-.9-.6-2.5-.6-2.5zm34.2-8.1h-44.4c-1 0-1.8.8-1.8 1.8v20.4c0 1 .8 1.8 1.8 1.8h44.4c1 0 1.8-.8 1.8-1.8v-20.4c0-1-.8-1.8-1.8-1.8zm-28.7 19.2h-1.7c-.4 0-.7-.3-.9-.6l-.7-2.4h-4.5l-.7 2.4c-.1.4-.5.7-.9.7h-1.6c-.6 0-1.1-.6-.9-1.2l4.3-12.6c.1-.4.5-.6.9-.6h2.4c.4 0 .7.2.9.6l4.2 12.5c.2.6-.2 1.2-.8 1.2zm27.5 1.8h-21v-18h21z"/><path d="m34.3 25.2c-1.2 0-1.8.6-1.8 1.7 0 1 .9 1.7 1.7 1.7h3.1v2.4h-3.2c-2.3 0-4.1-1.8-4.1-3.9 0-1.8 1.1-3.6 3-4-.2-.4-.5-.9-.5-1.7 0-2.2 1.9-3.2 3.5-3.2 1.1 0 2.2.4 3 1.5l-1.4 1.8c-.5-.8-1.1-.8-1.4-.8-.2 0-1.1.1-1.1 1s.7 1.4 1.9 1.4h2v2.4h-4.7z"/></svg>