<svg enable-background="new 0 0 48 48" viewBox="0 0 48 48" xmlns="http://www.w3.org/2000/svg"><path d="m11.4 22.5c-.3-.9-.6-2.5-.6-2.5s-.3 1.6-.6 2.5l-.8 2.8h2.9zm34.8-10.5h-21v24h21c1 0 1.8-.8 1.8-1.8v-20.4c0-1-.8-1.8-1.8-1.8zm-1.8 9c0 .5-.4.9-.9.9h-.9c-.5 1.8-1.6 3.6-3.2 5.2.6.5 1.3.9 2 1.4.4.3.5.8.3 1.2l-.6 1c-.3.4-.8.6-1.3.3-.9-.6-1.8-1.2-2.7-1.9-.8.7-1.7 1.3-2.7 1.9-.4.3-1 .1-1.3-.3l-.6-1c-.2-.4-.1-1 .3-1.2.7-.4 1.4-.9 2-1.4-.6-.6-1.1-1.3-1.6-1.9-.3-.4-.2-1 .3-1.3l.5-.3.5-.3c.4-.2.9-.1 1.2.3.4.5.8 1.1 1.3 1.6 1-1.1 1.8-2.2 2.3-3.2h-8.6c-.5 0-.9-.4-.9-.9v-1.2c0-.5.4-.9.9-.9h4.8v-1.2c0-.5.4-.9.9-.9h1.2c.5 0 .9.4.9.9v1.2h4.8c.5 0 .9.4.9.9v1.1zm-44.4-7.2v20.4c0 1 .8 1.8 1.8 1.8h21v-24h-21c-1 0-1.8.8-1.8 1.8zm4.4 16.2 4.3-12.7c.1-.4.5-.6.9-.6h2.4c.4 0 .7.2.9.6l4.3 12.7c.2.6-.2 1.2-.9 1.2h-1.7c-.4 0-.7-.3-.9-.6l-.7-2.4h-4.5l-.7 2.4c-.1.4-.5.7-.9.7h-1.6c-.6-.1-1.1-.7-.9-1.3z"/></svg>