<svg enable-background="new 0 0 48 48" viewBox="0 0 48 48" xmlns="http://www.w3.org/2000/svg"><path d="m12 20.1s-.4 1.6-.6 2.5l-.8 2.8h2.8l-.8-2.8c-.3-.9-.6-2.5-.6-2.5zm34.2-8.1h-44.4c-1 0-1.8.8-1.8 1.8v20.4c0 1 .8 1.8 1.8 1.8h44.4c1 0 1.8-.8 1.8-1.8v-20.4c0-1-.8-1.8-1.8-1.8zm-28.7 19.2h-1.7c-.4 0-.7-.3-.9-.6l-.7-2.4h-4.5l-.7 2.4c-.1.4-.5.7-.9.7h-1.6c-.6 0-1.1-.6-.9-1.2l4.3-12.6c.1-.4.5-.6.9-.6h2.4c.4 0 .7.2.9.6l4.2 12.5c.2.6-.2 1.2-.8 1.2zm27.5 1.8h-21v-18h21zm-17.1-11.1h8.3c-.5 1-1.1 1.9-1.9 2.9-.5-.6-1-1.2-1.4-1.8-.3-.4-.8-.5-1.2-.3l-1 .6c-.4.3-.6.8-.3 1.3.5.7 1.1 1.5 1.8 2.3-.7.6-1.4 1.1-2.2 1.6-.4.3-.5.8-.3 1.2l.6 1c.3.4.8.6 1.3.3.9-.6 1.8-1.3 2.7-2 .8.7 1.7 1.4 2.6 2 .4.3 1 .1 1.3-.3l.6-1c.2-.4.1-.9-.3-1.2-.7-.4-1.4-1-2-1.6.1-.1.2-.2.3-.4 1.3-1.5 2.2-3.1 2.8-4.6h1c.5 0 .9-.4.9-.9v-1.2c0-.5-.4-.9-.9-.9h-4.8v-1.2c0-.5-.4-.9-.9-.9h-1.2c-.5 0-.9.4-.9.9v1.2h-4.8c-.5 0-.9.4-.9.9v1.2c-.1.5.3.9.8.9z"/></svg>