<svg enable-background="new 0 0 48 48" viewBox="0 0 48 48" xmlns="http://www.w3.org/2000/svg"><path d="m14.2 2.6c3.2 0 6.1 1.2 8.4 3.4 3.2 3.4 4.2 8.3 2.6 12.6l-.6 1.4 1.1 1.1 19.8 19.7-4.7 4.7-19.8-19.7-1.1-1.1-1.4.6c-1.3.6-2.8.8-4.3.8-3.1 0-6-1.2-8.3-3.5-2.8-2.8-3.8-6.4-3.4-10l6.7 6.7 1.7 1.7 1.7-1.7 6.6-6.6 1.7-1.7-1.7-1.8-6.6-6.7c.5.1 1.1.1 1.6.1m0-2.4c-2.2 0-4.2.5-6.2 1.3l9.5 9.5-6.6 6.6-9.5-9.5c-2.5 5.3-1.7 11.8 2.8 16.2 2.8 2.8 6.4 4.1 10 4.1 1.8 0 3.5-.4 5.2-1l19.9 19.9c.4.4 1 .6 1.6.6s1.1-.2 1.4-.6l5.2-5.2c.8-.5.8-1.9 0-2.9l-20-19.9c1.9-5 .8-11-3.1-15.1-2.9-2.7-6.5-4-10.2-4z"/><path d="m0 0h48v48h-48z" fill="none"/></svg>