<svg enable-background="new 0 0 48 48" viewBox="0 0 48 48" xmlns="http://www.w3.org/2000/svg"><path d="m37.6 16.4c-.1-.5-.7-.8-1.3-.6-.5.1-.8.7-.6 1.3s.2 1.2.2 1.9c0 1.9-.7 3-1.1 3-.2-.1-.6-.2-1-.1-.2.1-.5.4-.6.7-1.4 5.6-5.2 9.5-9.5 9.5s-8-3.8-9.5-9.5c-.1-.4-.4-.6-.6-.7s-.7-.1-1 .1c-.2 0-1-1.1-1-3 0-.7.1-1.3.2-1.9.1-.5-.1-1.1-.6-1.3-.5-.1-1.1.1-1.3.6-.2.7-.4 1.7-.4 2.5 0 2.8 1.2 4.9 2.9 5 1.8 6 6.2 10 11.2 10s9.2-4 11.2-10c1.7-.1 2.9-2.2 2.9-5 .3-.8.2-1.6-.1-2.5z"/><path d="m39.2 33.2-5.2-1.8c-.4-.1-.8 0-1.1.2-2.5 2.8-5.6 4.3-9 4.3s-6.5-1.6-9-4.3c-.2-.2-.7-.4-1.1-.2l-5.2 1.8c-5.1 1.8-8.6 6.8-8.6 12.3v1.4c0 .6.5 1.1 1 1.1h46c.6 0 1-.5 1-1v-1.4c0-5.6-3.5-10.6-8.8-12.4z"/><path d="m24 0c-7.7 0-14 6.2-14 14 0 1 .1 1.9.4 3 .1.5.5.8 1 .8 1.1 0 2.5.2 2.5.2.2 0 .6 0 .8-.2s.4-.5.4-.8c-.1-2 0-4.2.2-4.9h.1c3.5 0 5.2-1.1 6-2.5 2.2 2.2 6.5 4.2 10.7 4.4.2 1.7 1 3.4 1 3.5.1.4.5.6 1 .6h.1l2.6-.2c.5 0 .8-.4.8-.8.2-1.1.4-2 .4-3 0-7.9-6.3-14.1-14-14.1z"/><path d="m20 16c-2.3 0-4 1.3-4 3s1.8 3 4 3 4-1.3 4-3-1.8-3-4-3zm0 4c-1.2 0-2-.6-2-1s.8-1 2-1 2 .6 2 1-.8 1-2 1z"/><path d="m28 16c-2.3 0-4 1.3-4 3s1.8 3 4 3c2.3 0 4-1.3 4-3s-1.8-3-4-3zm0 4c-1.2 0-2-.6-2-1s.8-1 2-1 2 .6 2 1-.8 1-2 1z"/><path d="m25.7 18.2-1-1c-.4-.4-1.1-.4-1.4 0l-1 1c-.4.4-.4 1.1 0 1.4.4.4 1.1.4 1.4 0l.2-.2.2.2c.2.2.5.2.7.2s.5-.1.7-.2c.5-.3.5-.9.2-1.4z"/><path d="m37.9 15.6c-.2-.5-.8-.7-1.3-.5l-6 3c-.5.2-.7.8-.5 1.3.1.4.5.6.8.6.1 0 .4 0 .5-.1l6-3c.5-.2.8-.8.5-1.3z"/><path d="m17.3 18-6-2c-.5-.1-1.1.1-1.3.6-.1.5.1 1.1.6 1.3l6 2h.4c.4 0 .8-.2 1-.7.1-.4-.1-1-.7-1.2z"/><ellipse cx="20" cy="19.1" rx="2.5" ry="1.2"/><ellipse cx="28.1" cy="19.1" rx="2.5" ry="1.2"/></svg>