<svg enable-background="new 0 0 48 48" viewBox="0 0 48 48" xmlns="http://www.w3.org/2000/svg"><path d="m36.6 15.8c-.1 0-.3 0-.4.1-.5.1-.8.7-.6 1.3s.2 1.2.2 1.9c0 1.9-.7 3-1.1 3-.2-.1-.4-.2-.6-.2-.1 0-.2 0-.3 0-.2.1-.5.4-.6.7-1.4 5.6-5.2 9.5-9.5 9.5s-8-3.8-9.5-9.5c-.1-.4-.4-.6-.6-.7-.1 0-.2-.1-.4-.1s-.4.1-.6.2c-.2 0-1-1.1-1-3 0-.7.1-1.3.2-1.9.1-.5-.1-1.1-.6-1.3-.1 0-.2 0-.3 0-.4 0-.9.2-1.1.6-.2.7-.4 1.7-.4 2.5 0 2.8 1.2 4.9 2.9 5 1.8 6 6.2 10 11.2 10s9.2-4 11.2-10c1.7-.1 2.9-2.2 2.9-5 .2-.8.1-1.7-.2-2.5.1-.3-.3-.6-.8-.6z"/><path d="m13.9 34.1c2.9 2.9 6.4 4.4 10.1 4.4s7.2-1.5 10.1-4.4l4.3 1.5c4.2 1.4 7 5.4 6.9 9.9h-42.8c0-4.5 2.8-8.4 7.1-9.9zm19.9-2.7c-.3 0-.6.1-.8.3-2.5 2.8-5.6 4.3-9 4.3s-6.5-1.6-9-4.3c-.2-.2-.5-.3-.8-.3-.1 0-.2 0-.3 0l-5.2 1.8c-5.2 1.8-8.7 6.8-8.7 12.3v1.4c0 .6.5 1.1 1 1.1h46c.6 0 1-.5 1-1v-1.4c0-5.6-3.5-10.6-8.8-12.4l-5.2-1.8s-.1 0-.2 0z"/><path d="m24 2.5c3.1 0 6 1.2 8.2 3.4 2.1 2.2 3.3 5 3.2 8.1 0 .4 0 .8-.1 1.3-5.5-.5-11.3-4.4-13.9-7.2l-2.9-3.1-1.3 4.1c-.8 2.6-3 4.4-4.7 5.4 0-.2 0-.3 0-.5 0-6.3 5.1-11.5 11.5-11.5m0-2.5c-7.7 0-14 6.2-14 14 0 1 .1 1.9.4 3 .1.2.2.5.5.7.1.1.3.1.4.1s.3 0 .4-.1c.2-.1 6.2-2.5 7.9-7.9 3.1 3.4 10.3 8 17 8 .5 0 .8-.4 1-.8.2-1.1.4-2 .4-3 0-7.8-6.3-14-14-14z"/><path d="m10.5 23.9 3 4c-1.5-.3-3.2-.8-4.3-1.3.5-.8.9-1.7 1.3-2.7m.5-10.8c-.5 0-1 .5-1 1 0 3.2-1.8 10.3-3.7 12.2-.4.4-.4 1.1 0 1.4 2.2 2.2 9.7 3.2 10.6 3.2h.1c.4 0 .7-.2.8-.5.2-.4.1-.7-.1-1.1l-5.7-7.6v-7.7c0-.6-.5-.9-1-.9z"/><path d="m37.6 23.8c.4 1 .8 2 1.3 2.8-.9.4-2.3.9-4.3 1.3zm-.5-10.7c-.5 0-1.1.4-1.1 1v7.7l-5.8 7.7c-.2.4-.2.7-.1 1.1.2.4.5.5.8.5h.1c.8-.1 8.4-1.1 10.6-3.2.5-.4.5-1.1.1-1.4-1.9-2.1-3.7-9.3-3.7-12.5 0-.6-.4-.9-.9-.9z"/></svg>