<svg enable-background="new 0 0 48 48" viewBox="0 0 48 48" xmlns="http://www.w3.org/2000/svg"><path d="m13.9 34.1c2.9 2.9 6.4 4.4 10.1 4.4s7.2-1.5 10.1-4.4l4.3 1.5c4.2 1.4 7 5.4 6.9 9.9h-42.8c0-4.5 2.8-8.4 7.1-9.9zm19.9-2.7c-.3 0-.6.1-.8.3-2.5 2.8-5.6 4.3-9 4.3s-6.5-1.6-9-4.3c-.2-.2-.5-.3-.8-.3-.1 0-.2 0-.3 0l-5.2 1.8c-5.2 1.8-8.7 6.8-8.7 12.3v1.4c0 .6.5 1.1 1 1.1h46c.6 0 1-.5 1-1v-1.4c0-5.6-3.5-10.6-8.8-12.4l-5.2-1.8s-.1 0-.2 0z"/><path d="m35 10c-.5 0-1 .5-1 1v3 .7.2c0 .2.1.6.2.8.2.2.4.3.6.3h.3c.2.1 1 1.2 1 3 0 1.9-.7 3-1.1 3-.2-.1-.4-.2-.6-.2-.1 0-.2 0-.3 0-.2.1-.5.4-.6.7-1.5 5.7-5.2 9.5-9.5 9.5s-8-3.8-9.5-9.5c-.1-.4-.4-.6-.6-.7-.1 0-.3-.1-.4-.1-.2 0-.4.1-.5.2-.2 0-1-1.1-1-3 0-1.8.7-2.9 1-3 .2 0 .6-.1.8-.2.2-.2.4-.5.2-.8v-.2c0-.2 0-.5 0-.7v-3c0-.6-.5-1-1-1-.4 0-1 .4-1 1v3 .2c-1.2.6-2 2.5-2 4.7 0 2.8 1.2 4.9 2.9 5 1.8 6 6.2 10 11.2 10s9.4-4 11.2-10c1.7-.1 2.9-2.2 2.9-5 0-2.2-.8-4-2-4.7 0-.1 0-.2 0-.4v-3c-.2-.5-.7-.8-1.2-.8z"/><path d="m24.9 6.8-16.4-1.9 14.5-3.6h.1l17 1.8-15 3.7z"/><path d="m23.1 2.5 9.8 1-8 2-9.5-1.1zm.1-2.5c-.1 0-.2 0-.4 0l-16.1 4.1c-.5.1-.7.5-.7.9s.4 1 .8 1l18 2h.2.2l16-4c.6-.2.8-.6.8-1.1s-.4-.8-.8-1z"/><path d="m35 3c-.6 0-1 .5-1 1l-20 1c0-.5-.5-1-1-1-.6 0-1 .5-1 1v1.6l13 1.4h.2l10.8-2.6v-1.4c0-.5-.5-1-1-1z"/><path d="m36 7.3-10.3 2.7c-.2 0-.5.1-.7.1-.1 0-.2 0-.4 0l-12.6-1.6v2.4c0 .4.1.7.5.8.1.1 3.5 2.2 11.5 2.2s11.4-2 11.5-2.2c.2-.2.5-.5.5-.8z"/><path d="m41 11-2 2 2 4 2-4z"/><path d="m41 2c-.6 0-1 .5-1 1v7.6l-1.7 1.7c-.3.3-.3.7-.1 1.1l2 4c.1.4.5.6.8.6s.7-.2.8-.6l2-4c.1-.4.1-.8-.2-1.2l-1.6-1.6v-7.6c0-.6-.5-1-1-1zm0 12.8-.8-1.6.8-.8.8.8z"/></svg>