<svg enable-background="new 0 0 48 48" viewBox="0 0 48 48" xmlns="http://www.w3.org/2000/svg"><path d="m39.2 33.2-5.2-1.8c-.4-.1-.8 0-1.1.2-2.4 2.6-5.8 6.2-9.1 6.2s-6.6-3.6-9-6.2c-.2-.2-.7-.4-1.1-.2l-5.2 1.8c-5 1.8-8.5 6.8-8.5 12.3v1.4c0 .6.5 1.1 1 1.1h46c.6 0 1-.5 1-1v-1.4c0-5.6-3.5-10.6-8.8-12.4z"/><path d="m12.8 24c.2.8.5 1.6.8 2.4 2 4.7 5.6 9.6 10.4 9.6s8.5-5.2 10.4-10c.2-.7.5-1.3.7-2 1.7-.1 2.9-2.2 2.9-5 0-.8-.1-1.6-.4-2.3.2-1 .4-1.9.4-2.8 0-7.7-6.3-13.9-14-13.9s-13.9 6.1-14 13.9v.1.1c0 .8.1 1.7.2 2.6-.2.7-.4 1.4-.4 2.3.2 2.8 1.5 4.9 3 5zm12.2 6h-2c-.6 0-1-.5-1-1s.5-1 1-1h2c.6 0 1 .5 1 1s-.4 1-1 1zm-10-13 .7-8c.1-1.7 1.7-3.1 3.4-3.1.6 0 1.2.4 1.8 1 .8 1 2.2 1 3.1 1 1 0 1.9-.4 2.6-1.1.8-.4 1.7-.8 2.9-.8 1.4 0 2.6 1.1 2.6 2.5.2 3.6.8 8.6.8 8.6 0 .1 0 .2.1.4l-.6.6c-.7-1.2-2-2-3.5-2-1.6 0-3 1-3.6 2.3-.3-.3-.8-.4-1.3-.4s-1 .1-1.4.4c-.6-1.3-2-2.3-3.6-2.3s-2.8.8-3.5 2l-.6-.6c.1-.1.1-.3.1-.5zm16 3c0 1.1-.8 2-2 2-1.1 0-2-.8-2-2 0-1.1.8-2 2-2s2 .8 2 2zm-10 0c0 1.1-.8 2-2 2-1.1 0-2-.8-2-2 0-1.1.8-2 2-2s2 .8 2 2zm-8.9-2.2h.2l2.6 2.6c.2 2 1.9 3.5 4 3.5s3.7-1.6 4-3.6c.1-.1.5-.5 1.1-.5.5 0 .8.2 1.1.5.2 2 1.9 3.6 4 3.6s3.7-1.6 4-3.5l2.6-2.6h.3c.1.4.1.7.1 1.2 0 1.9-.7 3-1.1 3-.2-.1-.6-.2-1-.1-.2.1-.5.4-.6.7-.2.8-.5 1.7-.8 2.5l-.4.2-.1.1c-1.5 1.6-1.5 1.6-3.1 1.6-.6 0-1-.5-1.7-1.1-.8-.8-1.7-1.9-3.3-1.9s-2.5 1.1-3.4 1.9c-.7.7-1 1.1-1.6 1.1-1.6 0-1.6 0-3.1-1.6l-.1-.1c-.1-.1-.2-.1-.4-.2-.4-.8-.6-1.7-.8-2.5-.1-.4-.4-.6-.6-.7s-.7-.1-1 .1c-.2 0-1-1.1-1-3 0-.4 0-.8.1-1.2z"/><circle cx="29" cy="20" r="2.7"/><circle cx="19" cy="20" r="2.7"/></svg>