<svg enable-background="new 0 0 48 48" viewBox="0 0 48 48" xmlns="http://www.w3.org/2000/svg"><path d="m29.3 2.5c3.5 0 4.8 1.4 5.5 2.4 1.2 1.9.6 2.7.2 3.2l-.7.7-.7.7-.1.9-.2 3.7-.1 1.7 1.5.7c.3.2.4.2.6.4v.2l-.5 4c0 .1-.2.3-.5.4l-1.5.5-.2 1.6c-.3 2.2-1.4 4.5-3.1 6.2l-1 1 .3 1.3.6 2.6.3 1.5 1.5.4 7.7 1.9c3.4.8 5.9 3.6 6.4 6.9h-42.7c.5-3.5 3-6.4 6.5-7.2l7.7-1.9 1.4-.4.4-1.4.7-2.8.3-1.3-.9-1c-1.7-1.8-2.8-4-3.1-6l-.2-1.8-1.8-.4c-.2 0-.4-.2-.4-.3l-.5-4c0-.1 0-.3 0-.3.1-.1.2-.2.2-.2l2-.5-.2-2.2-.1-.9c-.1-1-.3-2.4-.3-2.9 0-2.4 0-5.3 7.3-5.4h.8l.6-.4c2.5-1.6 5-1.6 6.3-1.6m0-2.5c-1.4 0-4.6 0-7.6 2-8.5.2-9.7 4.1-9.7 8 0 .8.2 2.9.4 4.1-.5.1-1 .5-1.3.8-.6.6-.8 1.6-.7 2.4l.5 4c.1 1.3 1.2 2.3 2.4 2.5.4 2.8 1.8 5.4 3.7 7.4l-.8 2.8-7.7 1.9c-5 1.2-8.5 5.7-8.5 10.9 0 .7.5 1.2 1 1.2h46c.6 0 1-.5 1-1 .1-5.2-3.4-9.7-8.4-10.9l-7.7-1.9-.6-2.6c2-2 3.5-4.8 3.8-7.7 1.1-.4 2-1.3 2.2-2.5l.5-4c.1-.8-.1-1.7-.7-2.3-.4-.4-.7-.6-1.2-.8l.2-3.7.7-.7c1.1-1.2 2-3.2.1-6.2-1.6-2.5-4.1-3.7-7.6-3.7z"/></svg>