<svg enable-background="new 0 0 48 48" viewBox="0 0 48 48" xmlns="http://www.w3.org/2000/svg"><path d="m37.2 14.5c-.4-.3-.7-.5-1.2-.5-.6 0-1 .5-1 1s.4 1 .8 1c.1.4.1 1.6.1 2.5v.5c0 1.9-.7 3-1.1 3-.2-.1-.6-.2-1-.1-.2.1-.5.4-.6.7-1.4 5.6-5.2 9.5-9.5 9.5s-8-3.8-9.5-9.5c-.1-.4-.4-.5-.6-.7-.2-.1-.7-.1-1 .1-.2 0-1-1.1-1-3v-.5c0-.8 0-2 .1-2.5.5-.1.8-.5.8-1 0-.6-.5-1-1-1s-1 .1-1.2.5c-.7.7-.7 2.2-.7 4v.5c0 2.8 1.2 4.9 2.9 5 1.8 6 6.2 10 11.2 10s9.4-4 11.2-10c1.7-.1 2.9-2.2 2.9-5v-.5c.2-1.8.2-3.3-.6-4z"/><path d="m28.4 10c-1.1 1.2-2.6 2-4.4 2s-3.4-.8-4.4-2c-1 1.1-1.6 2.4-1.6 4 0 3.4 2.6 6 6 6s6-2.6 6-6c0-1.5-.6-3-1.6-4z"/><path d="m37.4 13.1-1.4-.7c-.1-5.2-2.4-8.6-6-9.8v3.4c0 .8-.1 1.6-.5 2.3 1.6 1.4 2.4 3.5 2.4 5.8 0 2-.8 3.8-2 5.3.7-.2 1.3-.6 2-1l5.5-3.5c.4-.2.5-.5.5-.8.1-.5-.1-.8-.5-1z"/><path d="m18.5 8.3c-.4-.7-.5-1.5-.5-2.3v-3.5c-3.6 1.2-5.9 4.8-6 9.8l-1.4.7c-.4.1-.5.5-.6.8 0 .4.1.7.5.8l5.5 3.5c.6.4 1.3.7 2 1-1.2-1.4-2-3.2-2-5.3 0-2 .9-4.1 2.5-5.5z"/><path d="m24 8c-1.1 0-2 .2-2.9.7.7.8 1.8 1.3 2.9 1.3s2.2-.5 2.9-1.2c-.9-.5-1.8-.8-2.9-.8z"/><path d="m27.6 1.2c-.1 0-1.6-1.2-3.6-1.2s-3.6 1.2-3.6 1.2c-.2.2-.4.5-.4.8v4c0 .4.1.7.1 1.1 1.3-.6 2.5-1.1 3.9-1.1s2.8.4 3.8 1.1c.2-.4.2-.7.2-1.1v-4c0-.3-.2-.6-.4-.8z"/><circle cx="24" cy="14" r="6"/><path d="m33 31.7c-2.5 2.8-5.6 4.3-9 4.3s-6.5-1.6-9-4.3c-.2-.2-.6-.4-1-.2v16.5h20v-16.6c-.4 0-.8 0-1 .3z"/><path d="m36 32.3v15.7h2v-15z"/><path d="m48 46.8-1.3-6.8c-.5-2.3-2-4.2-4.2-5.2l-2.4-1v14.2h7c.4 0 .6-.1.7-.4.2-.2.2-.6.2-.8z"/><path d="m5.6 34.8c-2.2.8-3.7 2.8-4.2 5.2l-1.4 6.8c0 .2 0 .6.2.8.2.3.5.4.8.4h7v-14.2z"/><path d="m10 33v15h2v-15.7z"/></svg>