<svg enable-background="new 0 0 48 48" viewBox="0 0 48 48" xmlns="http://www.w3.org/2000/svg"><path d="m15 25c-.1 0-.2 0-.4.1-.5.2-.8.7-.6 1.3 1.1 3.1 4.7 7.7 10 7.7.6 0 1-.5 1-1 0-.7-.4-1.1-1-1.1-4.2 0-7.2-3.8-8-6.4-.2-.3-.6-.6-1-.6z"/><path d="m24 0c-6.5 0-11.4 5.9-12 9.8-.1.6.2 1.1.8 1.1h.2c.5 0 1-.4 1-.8.4-2.8 4.3-8.2 10-8.2.6 0 1-.5 1-1 0-.4-.4-.9-1-.9z"/><path d="m37.2 10.5c-.3 4.1-.8 8.2-1.5 9.9-.4 1-.9 1.9-1.4 2.7-.2-.8-.6-1.6-1.1-2.2v-.1l-.1-.1c-.2-.2-.3-.3-.5-.4.2-.3.4-.6.6-1l.2-.1c1-.4 1.7-1.2 1.9-2.2.3-.9.1-1.9-.5-2.8-.2-.3-.3-.5-.6-.7 1.3-.7 2.2-1.8 3-3m1.9-10.5c-.6 0-1 .4-1.1.8-.4 3.2-2.7 11.2-6.9 11.2-1.4 0-2.8.5-3.7 1.6-2.4 2.5-2.3 7.3-2.3 7.4 0 .5.5 1 1 1h4c.6 0 1 .1 1.3.5 1 1.1.8 3.5.7 4.3 0 .5.1.8.6 1.1.1.1.2.1.5.1.2 0 .5-.1.7-.2.1-.1 2.5-2.5 4.2-6.4 1.9-4.4 2-19.8 2-20.4-.1-.5-.5-1-1-1zm-11.1 19c-.5 0-.8-.4-1-.7-.1-.5.1-1 .5-1.1l4-2c.1-.1.3-.1.4-.1.4 0 .7.2.9.6.4.5.2 1.1-.4 1.3l-1.6.7c0 .1.1.2.1.4 0 .6-.5 1-1 1h-1.9z"/><path d="m10.9 10.5c.8 1.2 1.7 2.3 2.8 3-.3.3-.6.6-.8 1-.4.8-.5 1.8-.1 2.7.3.8.9 1.5 1.7 1.9l.3.2c.1.4.4.7.6 1-.2.1-.4.3-.6.5l-.1.1-.1.1c-.5.6-.8 1.2-1 1.9-.4-.7-.9-1.5-1.3-2.4-.7-1.8-1.1-5.9-1.4-10m-1.9-10.5c-.5 0-1 .5-1 1 0 .6.1 16 2 20.4 1.7 3.8 4.1 6.2 4.2 6.4.3.2.6.2.8.2.6 0 1-.5 1-1 0-.1 0-.2-.1-.4-.1-1-.1-3.1.7-4.1.4-.4.7-.5 1.3-.5h4c.5 0 1-.5 1-1 .2-.2.4-5-2-7.6-1-1.1-2.3-1.6-3.7-1.6-4.2 0-6.5-8-7-11.2-.2-.2-.6-.6-1.2-.6zm9 19c-.6 0-1-.5-1-1v-.4l-1.4-.7c-.5-.2-.7-.8-.5-1.3.2-.4.5-.6.9-.6.1 0 .3 0 .4.1l1.9 1 2 1c.5.2.7.7.6 1.2s-.5.7-1 .7z"/><path d="m33 25c-.4 0-.8.3-1 .7-.8 2.4-3.8 6.4-8 6.4-.6 0-1 .5-1 1s.5 1 1 1c5.3 0 8.9-4.6 10-7.7.1-.5-.1-1.1-.6-1.2-.1-.2-.3-.2-.4-.2z"/><path d="m24 0c-.6 0-1 .5-1 1s.5 1 1 1c5.8 0 9.6 5.4 10 8.2.1.5.5.8 1 .8.6 0 1.1-.5 1-1.1-.6-4-5.5-9.9-12-9.9z"/><path d="m26 26h-4c-.6 0-1 .5-1 1s.5 1 1 1h4c.6 0 1-.5 1-1s-.5-1-1-1z"/><path d="m1.2 41.8c-.4.1-.7.4-.8.7-.2 1.2-.4 2.2-.4 3v1.4c0 .6.5 1.1 1 1.1h3.2c.4 0 .7-.2.8-.5.2-.4.2-.7 0-1.1l-2.9-4.2c-.2-.3-.5-.4-.9-.4z"/><path d="m13.1 34 3.8 11.5h-7.1l-6.4-9.5zm.8-2.7-13.2 2.7c-.4.1-.6.2-.7.6 0 .4 0 .7.1 1l8 12c.3.2.5.4.9.4h10c.4 0 .6-.1.8-.4.2-.4.2-.6.1-1l-4.8-14.6c-.1-.4-.6-.7-1.2-.7z"/><path d="m46.6 41.7c-.3 0-.7.2-.8.5l-2.8 4.2c-.2.4-.2.7 0 1.1.1.4.5.5.8.5h3.2c.6 0 1-.5 1-1v-1.4c0-1-.1-1.9-.4-3.1-.1-.4-.4-.7-.8-.7-.1-.1-.1-.1-.2-.1z"/><path d="m34.7 34 9.6 1.9-6.3 9.4h-7zm-.9-2.7c-.4 0-.8.3-1 .7l-4.8 14.7c-.1.4 0 .6.1.8.2.2.5.4.8.4h10c.4 0 .6-.1.8-.5l8-12c.2-.1.2-.5.1-.8-.1-.4-.4-.5-.7-.6l-13.1-2.7c-.1 0-.2 0-.2 0z"/><path d="m21.8 38.2c.7.1 1.4.2 2.1.2.6 0 1.3 0 1.9-.1l-2 6.2zm6.5-3.1c-.1 0-.2 0-.3 0-1.3.5-2.7.7-4 .7s-2.7-.2-4-.7c-.1 0-.2 0-.3 0-.3 0-.5.1-.8.3-.2.2-.4.7-.2 1.1l3.1 9.6c.1.2.1.6.1 1 0 .6.5 1 1 1h2c.6 0 1-.5 1-1 0-.4 0-.7.1-1l3.1-9.6c.4-.4.2-.7 0-1.1-.2-.2-.5-.3-.8-.3z"/><path d="m22.1 20c-.2 0-.5.1-.7.3-.5.4-.5 1-.1 1.4.1.1 1.2 1.3 2.8 1.3s2.6-1.2 2.8-1.4c.4-.4.2-1.1-.1-1.3-.2-.2-.4-.2-.6-.2-.3 0-.6.1-.8.3 0 0-.5.6-1.2.6s-1.2-.6-1.2-.6c-.4-.3-.7-.4-.9-.4z"/></svg>