<svg enable-background="new 0 0 48 48" viewBox="0 0 48 48" xmlns="http://www.w3.org/2000/svg"><path d="m24 2.5c2.2 0 2.7.4 3.8 1.4l.7.7h1 .6c3.2 0 3.5 7.3 3.5 10.5 0 7.3 1.8 11.4 3.1 13.4-1.7.7-3.6 1.2-5.7 1.5l-2.6.4.5 2.6.4 1.8.3 1.6 1.5.4 7.7 1.9c3.4.8 5.9 3.6 6.4 6.9h-42.6c.6-3.4 3.1-6.1 6.5-7l7.7-1.9 1.4-.4.4-1.4.5-1.8.7-2.7-2.7-.4c-2.7-.4-4.5-1-5.7-1.4 1.3-2 3.1-6.1 3.1-13.5 0-10.4 7.6-12.6 9.5-12.6m0-2.5c-3.7 0-12 3.7-12 15 0 10.2-3.6 13.2-3.6 13.2-.2.2-.4.5-.4.8 0 .4.2.6.5.8.1.1 2.8 1.7 8.2 2.5l-.5 1.8-7.7 1.9c-5 1.3-8.5 5.9-8.5 11 0 .5.5 1 1 1h46c.6 0 1-.5 1-1 .1-5.2-3.4-9.7-8.4-10.9l-7.7-1.9-.4-1.8c5.3-.8 8-2.5 8.2-2.5.2-.1.5-.5.5-.8 0-.4-.1-.6-.4-.8 0 0-3.6-3-3.6-13.2 0-8.6-2-13-6-13h-.6c-1.6-1.5-2.7-2.1-5.6-2.1z"/></svg>