<svg enable-background="new 0 0 48 48" viewBox="0 0 48 48" xmlns="http://www.w3.org/2000/svg"><path d="m27.6 34.2c-.2-.2-.6-.2-.8-.1l-2.8.8-2.6-.8c-.4-.1-.6 0-.8.1s-.4.5-.4.8v2c0 .4.1.6.4.8.2.2.6.2.8.1l2.6-.8 2.6.8h.4c.2 0 .4-.1.6-.2.2-.2.4-.5.4-.8v-2c0-.2-.2-.6-.4-.7z"/><path d="m33.4 32c-.5-.2-1-.1-1.3.4l-8 12.7-8.2-12.7c-.2-.5-.8-.6-1.3-.4l-6.5 3.2c.4 1.7 1.4 7.2 1.8 12.6h28.1c.4-5.5 1.4-10.9 1.8-12.6zm1.5 12h-4c-.6 0-1-.5-1-1s.5-1 1-1h4c.6 0 1 .5 1 1 0 .6-.4 1-1 1z"/><path d="m6.3 36.2-2 1.1c-1.3.6-2.3 1.8-2.6 3.2l-1.7 6.2c-.1.2 0 .6.1.8.3.4.6.5.9.5h6.8c-.2-4.8-1.1-9.7-1.5-11.8z"/><path d="m47.9 46.4-1.4-6c-.4-1.4-1.3-2.6-2.6-3.2l-2-1.1c-.5 2-1.3 7-1.7 11.8h6.8c.6 0 1-.5 1-1 0-.1 0-.3-.1-.5z"/><path d="m41.8 26.3c-1.9-1.9-3.7-9-3.7-12.2 0-7.8-6.4-14-14-14s-14 6.1-14 13.9c0 3.2-1.8 10.3-3.7 12.2-.4.4-.4 1.1 0 1.4 2.2 2.2 9.7 3.1 10.6 3.2 2 1.9 4.4 3 7 3s5-1.1 7-3h.1c.8-.1 8.4-1.1 10.6-3.2.4-.2.4-1 .1-1.3zm-6.9-4.3c-.2-.1-.6-.2-.8-.1s-.5.4-.6.7c-1.5 5.6-5.2 9.4-9.5 9.4s-8-3.8-9.5-9.5c-.1-.4-.4-.6-.6-.7s-.7-.1-1 .1c-.2 0-1-1.1-1-3 0-.5 0-1.1.1-1.4 1.4-.7 6-3.1 7.4-7.7 3 3.2 9.7 7.7 16.3 8 .1.4.1.8.1 1.2.2 2-.5 3.1-.9 3z"/></svg>