<svg enable-background="new 0 0 48 48" viewBox="0 0 48 48" xmlns="http://www.w3.org/2000/svg"><path d="m14.4 22.3c-.2-.5-1-.6-1.4-.2-.2 0-1-1.1-1-3 0-.7.1-1.3.2-1.9.1-.5-.1-1.1-.6-1.3-.5-.1-1.1.1-1.3.6-.2.7-.3 1.6-.3 2.5 0 2.9 1.3 5 3 5 .4 0 .7-.1 1.1-.4.5-.2.7-.8.3-1.3z"/><path d="m37.6 16.4c-.1-.5-.7-.8-1.3-.6-.5.1-.8.7-.6 1.3s.2 1.2.2 1.9c0 1.9-.7 3-1 3 0 0 0 0-.1 0-.5-.2-1.1-.1-1.3.4s-.1 1.1.4 1.3c.4.2.7.4 1.1.4 1.7 0 3-2.2 3-5 0-1-.1-1.8-.4-2.7z"/><path d="m39.2 33.2-5.2-1.8c-.4-.1-.8 0-1.1.2-2.5 2.8-5.6 4.3-9 4.3s-6.5-1.6-9-4.3c-.2-.2-.7-.4-1.1-.2l-5.2 1.8c-5.1 1.8-8.6 6.8-8.6 12.3v1.4c0 .6.5 1.1 1 1.1h46c.6 0 1-.5 1-1v-1.4c0-5.6-3.5-10.6-8.8-12.4z"/><path d="m24 0c-7.7 0-14 6.2-14 14 0 1 .1 1.9.4 3 .1.5.5.8 1 .8 1.1 0 2.5.2 2.5.2h.1c.6 0 1-.5 1-1 0-.1 0-.2 0-.4-.1-2 0-4 .2-4.7h.1c3.5 0 5.2-1.1 6-2.5 2.2 2.2 6.5 4.2 10.7 4.4.2 1.7 1 3.4 1 3.5.1.4.5.6 1 .6h.1l2.6-.2c.5 0 .8-.4.8-.8.2-1.1.4-2 .4-3 .1-7.7-6.2-13.9-13.9-13.9z"/><path d="m34.7 21.8c-.4-.1-.6 0-.8.2-.1 0-.4.1-.5.2-1.6 1.7-2.4 1.8-4.4 1.8-.7 0-1.2-.4-1.8-.8-.7-.5-1.6-1.2-3.2-1.2s-2.4.7-3.2 1.2c-.6.4-1.1.8-1.8.8-1.8 0-2.8-.1-4.3-1.7-.1-.1-.1-.1-.2-.2l-.5-.3c-.4-.1-.7-.1-1.1.1s-.5.6-.4 1c1.7 6.6 6.2 10.9 11.4 10.9s9.7-4.4 11.4-10.9c.2-.3-.1-.9-.6-1.1zm-9.7 6.2h-2c-.6 0-1-.5-1-1 0-.6.5-1 1-1h2c.6 0 1 .5 1 1 0 .6-.4 1-1 1z"/></svg>