<svg enable-background="new 0 0 48 48" viewBox="0 0 48 48" xmlns="http://www.w3.org/2000/svg"><path d="m35 14c-.5 0-1 .5-1 1 0 .4 0 1.6-.1 1.9 0 .4.1.6.2.8.2.2.4.3.6.3h.3c.2.1 1 1.2 1 3 0 1.9-.7 3-1.1 3-.2-.1-.4-.2-.6-.2-.1 0-.2 0-.3 0-.2.1-.5.4-.6.7-1.4 5.6-5.2 9.5-9.5 9.5s-8-3.8-9.5-9.5c-.1-.4-.4-.6-.6-.7-.1 0-.2-.1-.4-.1s-.4.1-.6.2c-.2 0-1-1.1-1-3 0-1.8.7-2.9 1-3 .2 0 .6-.1.8-.2.2-.2.4-.5.2-.8 0-.4-.1-1.6-.1-1.9 0-.6-.5-1-1-1-.6 0-1 .5-1 1v1.2c-1.2.6-2 2.5-2 4.8 0 2.8 1.2 4.9 2.9 5 1.8 6 6.2 10 11.2 10s9.4-4 11.2-10c1.7-.1 2.9-2.2 2.9-5 .1-2.3-.7-4.1-1.9-4.7 0-.5 0-1.1 0-1.3 0-.6-.5-1-1-1z"/><path d="m32.1 14.5c-1.7.5-4.4 1-8 1-3.7 0-6.4-.5-8-1zm2.9-3.5c-.6 0-1 .5-1 1h-20c0-.6-.5-1-1-1-.6 0-1 .5-1 1v3c0 .4.2.7.5.8.2.2 4.2 2.2 11.6 2.2s11.3-2 11.5-2.2c.4-.1.5-.5.5-.8v-3c-.1-.6-.6-1-1.1-1z"/><path d="m24 2.5c1.5 0 2.9.6 3.9 1.7l1.3 1.4 1.7-.8c.3-.1.6-.2 1.2-.2 1.9 0 3.4 1.5 3.4 3.5s-1.5 3.5-3.5 3.5c-.4 0-.7 0-1-.1v-1.6h-2.5-9-1.1c.1-.2.1-.5.1-.7 0-.1.1-.6.4-1 1.1-.9 1.4-2.4 1-3.7l.2-.3c1-1.1 2.4-1.7 3.9-1.7m0-2.5c-2.2 0-4.2.8-5.8 2.5-.7-.3-1.4-.5-2.2-.5-3.4 0-6 2.6-6 6s2.6 6 6 6c1.1 0 2-.2 3-.8.4-.2.5-.5.5-.8h9c0 .4.1.7.5.8 1 .6 1.9.8 3 .8 3.4 0 6-2.6 6-6s-2.7-6-6-6c-.8 0-1.6.1-2.3.5-1.5-1.7-3.5-2.5-5.7-2.5zm-9 10c-.6 0-1-.5-1-1.1 0-.1.1-2.3 1.8-4 .2-.2.5-.3.7-.3.3 0 .5.1.7.3.4.5.4 1.1-.1 1.4-1 1.1-1.1 2.7-1.1 2.7 0 .5-.5 1-1 1z"/><path d="m15.9 30c-.3 0-.7.2-.8.5l-1.8 3.4c-.2.5-.1 1.1.4 1.3.1.1.4.1.5.1.4 0 .7-.2.8-.5l1.8-3.4c.4-.5.1-1.1-.4-1.3-.1-.1-.3-.1-.5-.1z"/><path d="m32.1 30.1c-.2 0-.3.1-.5.2-.5.2-.7.8-.4 1.3l1.8 3.4c.2.4.5.5.8.5.1 0 .4 0 .5-.1.5-.2.6-.8.4-1.3l-1.8-3.4c-.2-.4-.5-.6-.8-.6z"/><path d="m34.1 36.1 4.3 1.5c3.9 1.3 6.4 4.2 6.9 7.8h-18.9v-5.2c2.8-.4 5.5-1.9 7.7-4.1m-.3-2.7c-.3 0-.6.1-.8.3-2.5 2.8-5.8 4.3-9.1 4.3v10h23c.6 0 1-.5 1-1 .1-5.4-3.2-10-8.6-11.8l-5.2-1.8c-.1 0-.2 0-.3 0z"/><path d="m13.9 36.1c1.6 1.6 3.6 2.8 5.6 3.6v5.8h-16.9c.6-3.6 3.1-6.6 7-7.9zm.3-2.7c-.1 0-.2 0-.3 0l-5.2 1.8c-5.3 1.9-8.7 6.4-8.7 11.8 0 .5.5 1 1 1h21v-10.2c-2.5-.5-5-1.9-7-4.1-.2-.2-.5-.3-.8-.3z"/><path d="m24 26c-.8 0-1.7.5-2.5 1-.9.5-1.5.8-1.9.8-.3 0-.6-.2-.9-.5-.2-.2-.4-.3-.7-.3s-.5.1-.7.3c-.4.4-.4 1.1 0 1.4.7.7 1.6 1.1 2.3 1.1 1.2 0 2.2-.6 3-1.1.5-.4 1.1-.7 1.4-.7.6 0 1-.5 1-1 0-.6-.4-1-1-1z"/><path d="m23.9 25.9c-.6 0-1 .5-1 1 0 .6.5 1 1 1 .4 0 1 .4 1.4.7.7.5 1.8 1.1 3 1.1.7 0 1.6-.2 2.3-1.1.5-.2.5-.8.1-1.3-.2-.2-.4-.3-.7-.3s-.5.1-.7.3c-.3.3-.6.5-.9.5-.5 0-1-.3-1.9-.8-.9-.6-1.7-1.1-2.6-1.1z"/></svg>