<svg enable-background="new 0 0 48 48" viewBox="0 0 48 48" xmlns="http://www.w3.org/2000/svg"><path d="m24 36c-.7 0-1.3-.1-2-.2v12.2h4v-12.2c-.7.1-1.3.2-2 .2z"/><path d="m15 31.7c-.2-.4-.7-.4-1.1-.2l-8.3 3.4c-2.2.8-3.7 2.8-4.2 5.2l-1.4 6.7c0 .2 0 .6.2.8.2.3.5.4.8.4h19v-12.7c-1.9-.7-3.6-1.9-5-3.6z"/><path d="m48 46.8-1.3-6.8c-.5-2.3-2-4.2-4.2-5.2l-8.3-3.4c-.4-.1-.8 0-1.1.2-1.4 1.6-3.2 2.8-5 3.5v12.9h19c.2 0 .6-.1.7-.4.2-.2.2-.6.2-.8zm-10-5.8c0 .2-.1.5-.2.7l-2 2c-.3.3-.5.3-.8.3s-.5-.1-.7-.2l-2-2c-.3-.3-.3-.5-.3-.8v-2c0-.6.5-1 1-1h4c.6 0 1 .5 1 1z"/><path d="m34 40v.6l1 1 1-1v-.6z"/><path d="m24 6v1z"/><path d="m37 6c-1.1 0-2.8-1.1-4.6-2.3-2.5-1.8-5.4-3.7-8.4-3.7s-5.9 1.9-8.4 3.7c-1.8 1.2-3.5 2.3-4.6 2.3-.6 0-1 .5-1 1v2c0 .4.1.7.1 1h27.6c.1-.4.1-.6.1-1v-2c.2-.5-.2-1-.8-1zm-11 0c0 1.1-.8 2-2 2s-2-1-2-2v-1c0-.6.5-1 1-1h2c.6 0 1 .5 1 1z"/><path d="m12.4 12c0 .1 0 .1.1.2 1.1 1.8 4.8 3.8 11.6 3.8s10.6-2 11.6-3.8c0-.1 0-.1.1-.2z"/><path d="m36 14.3c0-.1 0-.2 0-.4 0-.6-.1-1.3-.2-2h-2c.1.7.2 1.3.2 2v.7.2c0 .2.1.6.2.8.2.2.5.4.8.2.2.1 1 1.2 1 3 0 1.9-.7 3-1.1 3-.2-.1-.6-.2-1-.1-.2.1-.5.4-.6.7-1.4 5.6-5.2 9.5-9.5 9.5s-8-3.8-9.5-9.5c-.1-.4-.4-.6-.6-.7s-.7-.1-1 .1c-.2 0-1-1.1-1-3 0-1.8.7-2.9 1-3 .2 0 .6-.1.8-.2.2-.2.4-.5.2-.8v-.2c0-.2 0-.5 0-.7 0-.6.1-1.3.2-2h-2c-.1.7-.2 1.3-.2 2v.2c-1.2.6-2 2.5-2 4.7 0 2.8 1.2 4.9 2.9 5 1.8 6 6.2 10 11.2 10s9.4-4 11.2-10c1.7-.1 2.9-2.2 2.9-5 .1-2-.7-3.8-1.9-4.5z"/></svg>