<svg enable-background="new 0 0 48 48" viewBox="0 0 48 48" xmlns="http://www.w3.org/2000/svg"><path d="m47.6 38.2-9.6-5.8-2-31.5c0-.4-.2-.7-.6-.8-.4-.1-.8 0-1.1.2l-3.5 3.5c-1.2-.6-3.6-1.7-6.9-1.7s-5.6 1.1-6.9 1.7l-3.5-3.5c-.1-.2-.5-.3-.9-.2s-.6.5-.6.8l-1.9 31.5-9.6 5.8c-.3.1-.5.5-.5.8v8.1c0 .5.5 1 1 1h46c.6 0 1-.5 1-1v-8.1c0-.3-.2-.7-.4-.8zm-31.5-23.7c.2-.5.8-.7 1.3-.5l1.9 1 2 1c.4.2.6.7.5 1.1-.1.5-.5.7-1 .7h-2c-.6 0-1-.5-1-1v-.4l-1.4-.7c-.3-.1-.6-.7-.3-1.2zm10.6 17.5h-5.4l-5.2-3.5 1.6-6.4 6 1.7h.6l6-1.7 1.6 6.4zm4.8-16.2-1.6.7c0 .1.1.2.1.4 0 .6-.5 1-1 1h-2c-.5 0-.8-.4-1-.7-.1-.5.1-1 .5-1.1l4-2c.5-.2 1.1 0 1.3.5.4.4.1 1-.3 1.2z"/><path d="m26.1 26h-4c-.6 0-1 .5-1 1s.5 1 1 1h4c.6 0 1-.5 1-1s-.6-1-1-1z"/></svg>