<svg enable-background="new 0 0 48 48" viewBox="0 0 48 48" xmlns="http://www.w3.org/2000/svg"><path d="m34 22.1c-.4 0-.9.3-1 .7-1.4 5.6-4.9 9.2-9 9.2s-7.6-3.6-9-9.2c-.1-.4-.6-.7-1-.7-.1 0-.1 0-.2 0-.5.1-.8.7-.7 1.2 1.7 6.6 5.9 10.8 10.9 10.8s9.4-4.1 10.9-10.8c.2-.6-.1-1.1-.7-1.2-.1 0-.1 0-.2 0z"/><path d="m8.8 10.4.3 1.2-.4-.7zm.2-6.3c-.5 0-.8.2-1 .7l-2 6c-.1.2 0 .6.1.8l4 6c.2.2.5.5.8.5.2 0 .4 0 .6-.1.5-.5.6-1.1.4-1.6l-.9-1.2v-1.2h.2c.5-.1.8-.7.7-1.2l-2-8c-.1-.5-.4-.7-.9-.7z"/><path d="m39.2 10.2.1.3-.3.5zm-.2-6.2c-.5 0-.8.4-1 .7l-2 8c-.1.5.2 1.1.7 1.2h.2v1.2l-.8 1.2c-.4.5-.2 1.1.2 1.4.1.1.4.1.6.1.4 0 .6-.1.8-.5l4-6c.2-.1.2-.5.2-.7l-2-6c-.1-.4-.5-.6-.9-.6z"/><path d="m18 16c-2 0-2 .7-2 1s0 1 2 1c1.9 0 3-.7 3-1 0-.2-1.1-1-3-1z"/><path d="m24 7.8-.8 2.2h1.6z"/><path d="m26.8 2.9c5 1.3 8.7 5.8 8.7 11.1-.9-1.3-2.6-2.4-5.3-2.4l-2.9-7.9v-.1-.1c-.2-.2-.3-.4-.5-.6m-5.7 0c-.2.3-.3.6-.4.9l-2.9 7.8c-2.7.1-4.4 1.1-5.3 2.4 0-5.4 3.7-9.9 8.6-11.1m-8.5 17.4c.4.5.9 1 1.5 1.4h-.3-.1c-.1 0-.3 0-.5 0-.2-.2-.5-.7-.6-1.4m22.8 0c-.1.7-.4 1.2-.6 1.4h-.5-.4c.6-.5 1.1-.9 1.5-1.4m-11.4-20.3c-7.7 0-14 6.2-14 14 0 .8.1 1.7.4 2.8-.2.7-.4 1.4-.4 2.3 0 2.9 1.3 5 3.1 5 .2 0 .4.1.7.1.1 0 .3 0 .4-.1 2.9-.1 8.5-1.6 9.8-1.9 1.3.4 7 1.9 9.8 1.9h.5s.4 0 .7 0c1.7 0 3-2.2 3-5 0-.8-.1-1.6-.4-2.3.2-1.1.4-1.9.4-2.8 0-7.8-6.3-14-14-14zm-3.1 14c-.1 0-.2 0-.3 0-.5-.2-.7-.7-.6-1.3l3-8c.1-.4.5-.6.9-.6s.8.2 1 .6l3 8c.2.5-.1 1.1-.6 1.3-.1 0-.2.1-.4.1-.4 0-.8-.2-1-.6l-.3-1.5h-3.1l-.5 1.3c-.2.4-.6.7-1.1.7zm9.1 6c-2.9 0-5-1.3-5-3s2.2-3 5-3c3.7 0 4 2.3 4 3s-.3 3-4 3zm-12 0c-3.7 0-4-2.3-4-3s.2-3 4-3c2.9 0 5 1.3 5 3s-2.1 3-5 3z"/><path d="m30 16c-1.9 0-3 .7-3 1s1.1 1 3 1c2 0 2-.7 2-1s0-1-2-1z"/><path d="m24 43.2-1.1 2.2c-.1.4-.5.6-.8.6h-2.6l1.3 1.3c.2.2.2.5.2.7h6c0-.2.1-.5.2-.7l1.3-1.3h-2.5c-.4 0-.7-.2-.8-.6z"/><path d="m34.2 34.1 8.3 2.9c1.8.6 3 2.3 3 4.2v4.2h-11c.1-.5 0-1.1-.2-1.7l-.1-.3-.2-.1c-.7-1.1-1.9-1.7-3-1.7h-2.9l-1-2.1c-.2-.4-.5-.8-.9-1.1 2.9-.6 5.6-2 8-4.3m-20.3 0c2.3 2.3 5 3.7 7.8 4.2-.4.3-.7.7-.9 1.2l-1 2.1h-2.9c-1.6 0-2.9.9-3.3 2.3-.2.5-.2 1.1-.1 1.7h-10.9v-4.2c0-1.9 1.2-3.6 3-4.2zm20-2.7c-.3 0-.6.1-.8.3-2.6 2.7-5.7 4.3-9.1 4.3s-6.5-1.6-9-4.3c-.2-.2-.5-.3-.8-.3-.1 0-.2 0-.3 0l-9.1 3.2c-2.8 1-4.7 3.6-4.7 6.6v5.8c-.1.5.4 1 .9 1h17.2l.2-.1-2.2-2.2c-.2-.2-.4-.7-.2-1.1s.5-.6 1-.6h4.4l1.7-3.5c.2-.4.5-.5.9-.5s.7.2.9.5l1.7 3.5h4.4c.4 0 .7.2 1 .6.1.4.1.8-.2 1.1l-2.4 2.3h17.6c.6 0 1-.5 1-1v-5.8c0-3-1.9-5.6-4.7-6.6l-9.1-3.2c-.1 0-.2 0-.3 0z"/><path d="m26 26h-4c-.6 0-1 .5-1 1s.5 1 1 1h4c.6 0 1-.5 1-1s-.5-1-1-1z"/></svg>