<svg enable-background="new 0 0 48 48" viewBox="0 0 48 48" xmlns="http://www.w3.org/2000/svg"><path d="m34.1 34.1 4.3 1.5c4.2 1.4 7 5.4 6.9 9.9h-42.8c0-4.5 2.8-8.4 7.1-9.9l4.3-1.5c2.8 2.8 6.4 4.4 10.2 4.4 3.6 0 7.1-1.5 10-4.4m-.3-2.7c-.3 0-.6.1-.8.3-2.5 2.8-5.6 4.3-9 4.3s-6.6-1.6-9-4.3c-.2-.2-.5-.3-.8-.3-.1 0-.2 0-.3 0l-5.2 1.8c-5.2 1.8-8.7 6.8-8.7 12.3v1.4c0 .6.5 1.1 1 1.1h46c.6 0 1-.5 1-1v-1.4c0-5.6-3.5-10.6-8.8-12.4l-5.2-1.8s-.1 0-.2 0z"/><path d="m24 2.5c5.9 0 9.2 4.8 9.5 8l.2 1.5 1.4.5c.2.1.3.2.3.2v.2.1.1c0 .2-.1.4-.2.4-1.1-.4-4.5-1.6-9-1.9.8-.6 1.3-1.6 1.3-2.7 0-1.9-1.6-3.5-3.5-3.5-2.4 0-5 .3-7.7.9 1.5-2.1 4.1-3.8 7.7-3.8m-10.6 9.8c.3.3.6.5.9.7-.7.2-1.2.4-1.5.5-.2-.1-.3-.2-.3-.5 0-.2 0-.4.4-.5zm10.6-12.3c-7.2 0-11.5 5.8-12 10.2-1 .4-2 1.2-2 2.9 0 2.2 1.8 3 3 3 .1 0 .2 0 .5-.1-.1 0 4.5-2 10.5-2s10.6 2 10.6 2c.1 0 .2.1.4.1 1.2 0 3-.8 3-3 .1-1.7-1-2.5-1.9-2.9-.6-4.4-4.9-10.2-12.1-10.2zm-8 10.9c-.5 0-.8-.2-1-.7s.1-1.1.7-1.2c.1 0 4-1.1 8.3-1.1.6 0 1 .5 1 1s-.4 1.1-1 1.1c-4 0-7.7 1-7.8 1-.1-.1-.1-.1-.2-.1z"/><path d="m24.1 22.7c.7 1.3 2 1.9 4 1.9 1.8 0 3.4-.4 4.7-1.1-1.5 4.9-5 8.2-8.8 8.2s-7.3-3.3-8.8-8.2v-.1c1.4.8 3.1 1.3 4.8 1.3s3.3-.3 4.1-2m10.9-8.7c-.5 0-1 .2-1.1.7.5.6.8 1.4 1 2.4 0-.1 0-.1.1-.2-.5 2.5-2.9 5.2-7 5.2-1.7 0-1.8-.4-2-1.2-.1-.5-.5-.7-1-.7h-2c-.5 0-.8.4-1 .8-.2.8-.2 1.2-2 1.2-5.2 0-6.9-4.9-7-4.9.1-.8.5-1.7 1-2.4-.1-.5-.6-.7-1.1-.7-1.7 0-3 2.2-3 5s1.2 4.9 2.9 5c1.8 6 6.2 10 11.2 10 4.9 0 9.4-4 11.2-10 1.7-.1 2.9-2.2 2.9-5-.1-3-1.4-5.2-3.1-5.2z"/></svg>