<svg enable-background="new 0 0 48 48" viewBox="0 0 48 48" xmlns="http://www.w3.org/2000/svg"><path d="m34.2 22.1c-.5-.1-1.1.2-1.2.7-1.4 5.6-4.9 9.2-9 9.2s-7.6-3.6-9-9.2c-.1-.5-.7-.8-1.2-.7s-.8.7-.7 1.2c1.7 6.6 5.9 10.8 10.9 10.8s9.4-4.1 10.9-10.8c.3-.6-.1-1.1-.7-1.2z"/><path d="m11.9 16.4-.9-1.2v-1.2h.2c.5-.1.8-.7.7-1.2l-2-8c-.1-.5-.4-.7-.9-.7s-.8.2-1 .7l-2 6c-.1.2 0 .6.1.8l4 6c.2.2.5.5.8.5.2 0 .4 0 .6-.1.5-.5.6-1.1.4-1.6z"/><path d="m42 10.7-2-6c-.2-.5-.6-.7-1-.7-.5 0-.8.4-1 .7l-2 8c-.1.5.2 1.1.7 1.2h.2v1.2l-.8 1.2c-.4.5-.2 1.1.2 1.4.1.1.4.1.6.1.4 0 .6-.1.8-.5l4-6c.3 0 .3-.4.3-.6z"/><path d="m18 16c-2 0-2 .7-2 1 0 .2 0 1 2 1 1.9 0 3-.7 3-1 0-.2-1.1-1-3-1z"/><path d="m24 7.8-.8 2.2h1.6z"/><path d="m38 14c0-7.8-6.4-14-14-14s-14 6.2-14 14c0 .8.1 1.7.4 2.8-.2.7-.4 1.4-.4 2.3 0 2.9 1.3 5 3.1 5 .4 0 .6.1 1.1 0 2.9-.1 8.5-1.6 9.8-1.9 1.3.4 7 1.9 9.8 1.9h.5.7c1.7 0 3-2.2 3-5 0-.8-.1-1.6-.4-2.3.3-1.1.4-1.9.4-2.8zm-20 6c-3.7 0-4-2.3-4-3s.2-3 4-3c2.9 0 5 1.3 5 3s-2.1 3-5 3zm4.4-8-.4 1.3c-.2.5-.7.7-1.3.6-.5-.2-.7-.7-.6-1.3l3-8c.2-.8 1.6-.8 1.9 0l3 8c.2.5-.1 1.1-.6 1.3-.1 0-.2.1-.4.1-.4 0-.8-.2-1-.6l-.4-1.4zm7.6 8c-2.9 0-5-1.3-5-3s2.2-3 5-3c3.7 0 4 2.3 4 3 0 .8-.3 3-4 3z"/><path d="m30 16c-1.9 0-3 .7-3 1 0 .2 1.1 1 3 1 2 0 2-.7 2-1s0-1-2-1z"/><path d="m26 46c-.4 0-.7-.2-.8-.6l-1.2-2.2-1.1 2.2c-.1.4-.5.6-.8.6h-2.6l1.3 1.3c.2.2.2.5.2.7h6c0-.2.1-.5.2-.7l1.3-1.3z"/><path d="m43.3 34.7-9.1-3.2c-.4-.1-.8 0-1.1.2-2.6 2.7-5.7 4.3-9.1 4.3s-6.5-1.6-9-4.3c-.2-.2-.7-.4-1.1-.2l-9.1 3.2c-2.8 1-4.7 3.6-4.7 6.6v5.7c-.1.5.4 1 .9 1h17.2l.2-.1-2.2-2.2c-.2-.2-.4-.7-.2-1.1.1-.4.5-.6 1-.6h4.4l1.7-3.5c.4-.7 1.4-.7 1.8 0l1.7 3.5h4.4c.4 0 .7.2 1 .6.1.4.1.8-.2 1.1l-2.4 2.3h17.6c.6 0 1-.5 1-1v-5.8c0-2.9-1.9-5.6-4.7-6.5z"/><path d="m26 26h-4c-.6 0-1 .5-1 1s.5 1 1 1h4c.6 0 1-.5 1-1s-.5-1-1-1z"/></svg>