<svg enable-background="new 0 0 48 48" viewBox="0 0 48 48" xmlns="http://www.w3.org/2000/svg"><path d="m33.7 4.5 1.7 28.1.1 1.3 1.1.7 8.8 5.3v5.7h-43v-5.7l8.9-5.3 1.1-.7.1-1.3 1.7-28.1 1.1 1.1 1.3 1.3 1.7-.9c.7-.3 2.8-1.4 5.7-1.4s5 1.1 5.7 1.4l1.6.8 1.3-1.3zm-9.8 16.9-5.6-1.6-2.5-.7-.6 2.5-1.6 6.4-.4 1.7 1.4 1 5.2 3.5.6.4h.8 5.4.8l.6-.4 5.2-3.5 1.4-1-.4-1.7-1.6-6.4-.6-2.5-2.5.7zm11.2-21.4c-.3 0-.6.1-.8.3l-3.5 3.5c-1.2-.6-3.6-1.7-6.9-1.7s-5.6 1.1-6.9 1.7l-3.5-3.5c0-.2-.3-.3-.6-.3-.1 0-.2 0-.3 0-.4.2-.6.6-.6.9l-1.9 31.5-9.6 5.8c-.3.1-.5.5-.5.8v8.1c0 .5.5 1 1 1h46c.6 0 1-.5 1-1v-8.1c.1-.4-.1-.7-.4-.8l-9.6-5.8-2-31.5c0-.4-.2-.7-.6-.8-.1-.1-.2-.1-.3-.1zm-11.5 23.9h.6l6-1.7 1.6 6.4-5.1 3.4h-5.4l-5.2-3.5 1.6-6.4z"/><path d="m26.1 26h-4c-.6 0-1 .5-1 1s.5 1 1 1h4c.6 0 1-.5 1-1s-.6-1-1-1z"/><path d="m17 11.9c-.4 0-.7.2-.9.6-.2.5 0 1.1.4 1.2l1.4.7v.4c0 .5.4 1 1 1h2c.5 0 .8-.2 1-.7.1-.4-.1-.8-.5-1.1l-2-1-1.9-1c-.2 0-.4-.1-.5-.1z"/><path d="m30.9 11.9c-.1 0-.3 0-.4.1l-4 2c-.4.1-.6.6-.5 1.1.1.4.5.7 1 .7h2c.5 0 1-.4 1-1 0-.1-.1-.2-.1-.4l1.6-.7c.5-.2.7-.8.4-1.3-.3-.3-.6-.5-1-.5z"/></svg>