<svg enable-background="new 0 0 48 48" viewBox="0 0 48 48" xmlns="http://www.w3.org/2000/svg"><path d="m36 14c-.6 0-1 .5-1 1s.4 1 .8 1c.1.4.1 1.6.1 2.5v.5c0 1.9-.7 3-1.1 3-.2-.1-.4-.2-.6-.2-.1 0-.2 0-.3 0-.2.1-.5.4-.6.7-1.4 5.6-5.2 9.5-9.5 9.5s-8-3.8-9.5-9.5c-.1-.4-.4-.5-.6-.7-.1 0-.2-.1-.4-.1s-.4.1-.6.2c-.2 0-1-1.1-1-3v-.5c0-.8 0-2 .1-2.5.5-.1.8-.5.8-1 0-.6-.5-1-1-1s-1 .1-1.2.5c-.7.7-.7 2.2-.7 4v.6c0 2.8 1.2 4.9 2.9 5 1.8 6 6.2 10 11.2 10s9.4-4 11.2-10c1.7-.1 2.9-2.2 2.9-5v-.5c0-1.8 0-3.2-.8-4-.3-.3-.6-.5-1.1-.5z"/><path d="m20.5 13.7c1.1.5 2.3.8 3.5.8s2.4-.3 3.5-.8v.2c0 2-1.5 3.5-3.5 3.5s-3.5-1.5-3.5-3.5c0 0 0-.1 0-.2m7.9-3.7c-1.1 1.2-2.6 2-4.4 2s-3.4-.8-4.4-2c-1 1.1-1.6 2.4-1.6 4 0 3.4 2.6 6 6 6s6-2.6 6-6c0-1.5-.6-3-1.6-4z"/><path d="m32.4 7.6c.1.1.2.3.2.4-.1-.1-.2-.2-.2-.3s0-.1 0-.1m-2.4-5.1v3.5c0 .8-.1 1.6-.5 2.3 1.6 1.4 2.4 3.5 2.4 5.8 0 2-.8 3.8-2 5.3.7-.2 1.3-.6 2-1l5.5-3.5c.4-.2.5-.5.5-.8.1-.5-.1-.7-.5-1l-1.4-.7c-.1-5.2-2.4-8.7-6-9.9z"/><path d="m15.6 7.6c0 .1-.1.2-.1.2.1 0 .1-.1.1-.2m2.4-5.1c-3.6 1.2-5.9 4.8-6 9.8l-1.4.7c-.4.1-.5.5-.6.8 0 .4.1.7.5.8l5.5 3.5c.6.4 1.3.7 2 1-1.2-1.4-2-3.2-2-5.3 0-2.2 1-4.2 2.5-5.6-.4-.6-.5-1.4-.5-2.2z"/><path d="m24 8c-1.1 0-2 .2-2.9.7.7.8 1.8 1.3 2.9 1.3s2.2-.5 2.9-1.2c-.9-.5-1.8-.8-2.9-.8z"/><path d="m24 2.5c.6 0 1.1.2 1.5.4v.7c-.5-.1-1-.1-1.5-.1s-1 0-1.5.1v-.8c.4-.1.9-.3 1.5-.3m0-2.5c-2 0-3.6 1.2-3.6 1.2-.2.2-.4.5-.4.8v4c0 .4.1.7.1 1.1 1.3-.6 2.5-1.1 3.9-1.1s2.8.4 3.8 1.1c.2-.4.2-.7.2-1.1v-4c0-.4-.1-.6-.4-.8-.1 0-1.6-1.2-3.6-1.2z"/><circle cx="24" cy="14" r="4.8"/><path d="m24 10.5c1.9 0 3.5 1.6 3.5 3.5s-1.6 3.5-3.5 3.5-3.5-1.5-3.5-3.5 1.6-3.5 3.5-3.5m0-2.5c-3.3 0-6 2.7-6 6s2.7 6 6 6 6-2.7 6-6-2.7-6-6-6z"/><path d="m31.6 36.2v9.3h-15v-9.2c2.3 1.5 4.8 2.2 7.5 2.2 2.6 0 5.2-.8 7.5-2.3m-17.3-4.8c-.1 0-.2 0-.3 0v16.6h20v-16.6c-.5 0-.8 0-1.1.2-2.5 2.8-5.6 4.3-9 4.3s-6.5-1.6-9-4.3c-.1-.1-.3-.2-.6-.2z"/><path d="m36 32.3v15.7h2v-15z"/><path d="m42.6 37.8c.8.7 1.4 1.6 1.6 2.7l1 5.1h-2.6zm-2.5-4v14.2h7c.4 0 .6-.1.7-.4.2-.2.2-.6.2-.8l-1.3-6.8c-.5-2.3-2-4.2-4.2-5.2z"/><path d="m5.4 37.8v7.7h-2.6l1.1-5c.2-1.1.8-2.1 1.5-2.7m2.5-4-2.3 1c-2.2.8-3.7 2.8-4.2 5.2l-1.4 6.8c0 .2 0 .6.2.8.2.3.5.4.8.4h7v-14.2z"/><path d="m12 32.3-2 .7v15h2z"/></svg>