<svg enable-background="new 0 0 48 48" viewBox="0 0 48 48" xmlns="http://www.w3.org/2000/svg"><path d="m39.2 33.2-5.2-1.8c-.4-.1-.8 0-1.1.2-2.5 2.8-5.6 4.3-9 4.3s-6.5-1.6-9-4.3c-.2-.2-.7-.4-1.1-.2l-5.2 1.8c-5.1 1.8-8.6 6.8-8.6 12.3v1.4c0 .6.5 1.1 1 1.1h46c.6 0 1-.5 1-1v-1.4c0-5.6-3.5-10.6-8.8-12.4z"/><path d="m36 14.3c0-.1 0-.2 0-.4v-3c0-.6-.5-1-1-1s-1 .5-1 1v3 .7.2c0 .2.1.6.2.8.2.2.5.4.8.2.2.1 1 1.2 1 3 0 1.9-.7 3-1.1 3-.2-.1-.6-.2-1-.1-.2.1-.5.4-.6.7-1.3 5.8-5 9.6-9.3 9.6s-8-3.8-9.5-9.5c-.1-.4-.4-.6-.6-.7-.4-.1-.7-.1-1 .1-.2 0-1-1.1-1-3 0-1.8.7-2.9 1-3 .2 0 .6-.1.8-.2.2-.2.4-.5.2-.8v-.2c0-.2 0-.5 0-.7v-3c0-.6-.5-1-1-1s-.9.4-.9 1v3 .2c-1.2.6-2 2.5-2 4.7 0 2.8 1.2 4.9 2.9 5 1.8 6 6.2 10 11.2 10s9.4-4 11.2-10c1.7-.1 2.9-2.2 2.9-5-.2-2.1-1-3.9-2.2-4.6z"/><path d="m42 2.9c0-.5-.4-.8-.8-1l-18-1.9c-.1 0-.2 0-.4 0l-16.1 4.1c-.5.1-.7.5-.7.9 0 .5.4 1 .8 1l18 2h.2.2l16-4c.6-.2.8-.6.8-1.1z"/><path d="m35 3c-.6 0-1 .5-1 1l-20 1c0-.5-.5-1-1-1-.6 0-1 .5-1 1v1.6l13 1.4h.2l10.8-2.6v-1.4c0-.5-.5-1-1-1z"/><path d="m25.7 10c-.2 0-.5.1-.7.1-.1 0-.2 0-.4 0l-12.6-1.6v2.4c0 .4.1.7.5.8.1.1 3.5 2.2 11.5 2.2s11.4-2 11.5-2.2c.2-.2.5-.5.5-.8v-3.6z"/><path d="m41 11-2 2 2 4 2-4z"/><path d="m43.7 12.2-1.7-1.6v-7.6c0-.6-.5-1-1-1-.6 0-1 .5-1 1v7.6l-1.7 1.7c-.3.3-.3.7-.1 1.1l2 4c.1.4.5.6.8.6.4 0 .7-.2.8-.6l2-4c.2-.3.2-.8-.1-1.2zm-2.7 2.6-.8-1.6.8-.8.8.8z"/></svg>