<svg enable-background="new 0 0 48 48" viewBox="0 0 48 48" xmlns="http://www.w3.org/2000/svg"><path d="m39.2 33.2-5.2-1.8c-.4-.1-.8 0-1.1.2-2.5 2.8-5.6 4.3-9 4.3s-6.6-1.6-9-4.3c-.2-.2-.7-.4-1.1-.2l-5.2 1.8c-5.1 1.8-8.6 6.8-8.6 12.3v1.4c0 .6.5 1.1 1 1.1h46c.6 0 1-.5 1-1v-1.4c0-5.6-3.5-10.6-8.8-12.4z"/><path d="m36 10.2c-.5-4.4-4.8-10.2-12-10.2s-11.5 5.8-12 10.2c-1 .4-2 1.2-2 2.9 0 2.2 1.8 3 3 3 .1 0 .2 0 .5-.1-.1 0 4.5-2 10.5-2s10.6 2 10.6 2c.1 0 .2.1.4.1 1.2 0 3-.8 3-3 0-1.7-1-2.5-2-2.9zm-12-.2c-4 0-7.7 1-7.8 1s-.1 0-.2 0c-.5 0-.8-.2-1-.7-.1-.5.1-1.1.7-1.2.1 0 4-1.1 8.3-1.1.6 0 1 .5 1 1 0 .4-.4 1-1 1z"/><path d="m35 14c-.5 0-1 .2-1.1.7.5.6.8 1.4 1 2.4 0-.1 0-.1.1-.2-.5 2.5-2.9 5.2-7 5.2-1.7 0-1.8-.4-2-1.2-.1-.5-.5-.7-1-.7h-2c-.5 0-.8.4-1 .8-.2.8-.2 1.2-2 1.2-5.3 0-7-5-7-4.9.1-.8.5-1.7 1-2.4-.1-.5-.6-.7-1.1-.7-1.7 0-3 2.2-3 5s1.2 4.9 2.9 5c1.8 6 6.2 10 11.2 10s9.4-4 11.2-10c1.7-.1 2.9-2.2 2.9-5-.1-3-1.4-5.2-3.1-5.2z"/></svg>