<svg enable-background="new 0 0 48 48" viewBox="0 0 48 48" xmlns="http://www.w3.org/2000/svg"><path d="m24 32c-4.2 0-7.2-3.8-8-6.4-.2-.5-.7-.8-1.3-.6-.5.2-.8.7-.6 1.3 1.1 3.1 4.7 7.7 10 7.7.6 0 1-.5 1-1-.1-.6-.5-1-1.1-1z"/><path d="m24 0c-6.5 0-11.4 5.9-12 9.8-.1.6.2 1.1.8 1.1h.2c.5 0 1-.4 1-.8.4-2.8 4.3-8.2 10-8.2.6 0 1-.5 1-1 0-.4-.4-.9-1-.9z"/><path d="m39.1 0c-.6 0-1 .4-1.1.8-.4 3.2-2.7 11.2-6.9 11.2-1.4 0-2.8.5-3.7 1.6-2.4 2.5-2.3 7.3-2.3 7.4 0 .5.5 1 1 1h4c.6 0 1 .1 1.3.5 1 1.1.8 3.5.7 4.3 0 .5.1.8.6 1.1.1.1.2.1.5.1.2 0 .5-.1.7-.2.1-.1 2.5-2.5 4.2-6.4 1.9-4.4 2-19.8 2-20.4-.1-.5-.5-1-1-1zm-6.7 16.9-1.6.7c0 .1.1.2.1.4 0 .6-.5 1-1 1h-2c-.5 0-.8-.4-1-.7-.1-.5.1-1 .5-1.1l4-2c.5-.2 1.1 0 1.3.5.4.4.3 1-.3 1.2z"/><path d="m20.8 13.6c-1-1.1-2.3-1.6-3.7-1.6-4.2 0-6.5-8-7-11.2-.1-.4-.5-.8-1.1-.8-.5 0-1 .5-1 1 0 .6.1 16 2 20.4 1.7 3.8 4.1 6.2 4.2 6.4.3.2.6.2.8.2.6 0 1-.5 1-1 0-.1 0-.2-.1-.4-.1-1-.1-3.1.7-4.1.4-.4.7-.5 1.3-.5h4c.5 0 1-.5 1-1 .1-.1.3-4.9-2.1-7.4zm.2 4.6c-.1.5-.5.7-1 .7h-2c-.6 0-1-.5-1-1v-.4l-1.4-.7c-.5-.2-.7-.8-.5-1.3s.8-.7 1.3-.5l1.9 1 2 1c.6.3.8.8.7 1.2z"/><path d="m33.4 25.1c-.5-.2-1.1.1-1.3.6-.8 2.4-3.8 6.4-8 6.4-.6 0-1 .5-1 1s.5 1 1 1c5.3 0 8.9-4.6 10-7.7 0-.6-.3-1.2-.7-1.3z"/><path d="m36 9.8c-.6-3.9-5.5-9.8-12-9.8-.6 0-1 .5-1 1s.5 1 1 1c5.8 0 9.6 5.4 10 8.2.1.5.5.8 1 .8.6-.1 1.1-.6 1-1.2z"/><path d="m26 26h-4c-.6 0-1 .5-1 1s.5 1 1 1h4c.6 0 1-.5 1-1s-.5-1-1-1z"/><path d="m5 46.4-2.9-4.2c-.2-.4-.6-.5-1-.5-.4.1-.7.4-.8.7-.2 1.2-.4 2.2-.4 3v1.4c.1.7.6 1.2 1.1 1.2h3.2c.4 0 .7-.2.8-.5.3-.3.3-.7 0-1.1z"/><path d="m19.9 46.7-4.8-14.7c-.1-.5-.6-.7-1.2-.7l-13.2 2.7c-.4.1-.6.2-.7.6 0 .4 0 .7.1 1l8 12c.3.2.5.4.9.4h10c.4 0 .6-.1.8-.4s.2-.6.1-.9z"/><path d="m47.6 42.5c-.1-.4-.4-.7-.8-.7-.4-.1-.8.1-1 .5l-2.8 4.1c-.2.4-.2.7 0 1.1.1.4.5.5.8.5h3.2c.6 0 1-.5 1-1v-1.4c0-1-.1-1.9-.4-3.1z"/><path d="m47.9 34.6c-.1-.4-.4-.5-.7-.6l-13.2-2.7c-.5-.1-1 .2-1.2.7l-4.8 14.7c-.1.4 0 .6.1.8.2.2.5.4.8.4h10c.4 0 .6-.1.8-.5l8-12c.3-.1.3-.5.2-.8z"/><path d="m29 35.4c-.2-.2-.7-.4-1.1-.2-2.6 1-5.4 1-8 0-.4-.1-.7 0-1.1.2-.2.2-.4.7-.2 1.1l3.1 9.6c.1.2.1.6.1 1 0 .6.5 1 1 1h2c.6 0 1-.5 1-1 0-.4 0-.7.1-1l3.1-9.6c.4-.4.3-.7 0-1.1z"/><path d="m26.6 20.3c-.5-.4-1.1-.2-1.4.1 0 0-.5.6-1.2.6s-1.2-.6-1.2-.6c-.4-.5-1-.5-1.4-.1-.5.4-.5 1-.1 1.4.1.1 1.2 1.3 2.8 1.3s2.6-1.2 2.8-1.4c.2-.4.1-1.1-.3-1.3z"/></svg>