<svg enable-background="new 0 0 48 48" viewBox="0 0 48 48" xmlns="http://www.w3.org/2000/svg"><path d="m34.7 16.1c-.6 0-1 .6-.8 1.1 0 .5.5.9.9.9h.2c.2.1 1 1.2 1 3 0 1.9-.7 3-1.1 3-.2-.1-.4-.2-.6-.2-.1 0-.2 0-.3 0-.2.1-.5.4-.6.7-1.4 5.6-5.1 9.4-9.4 9.4s-8-3.8-9.4-9.4c-.1-.4-.4-.6-.6-.7-.1 0-.2-.1-.4-.1s-.4.1-.6.2c-.2 0-1-1.1-1-3 0-1.8.7-2.9 1-3 .6 0 1.1-.4 1.2-.8 0-.6-.2-1.1-.8-1.1-.1 0-.2 0-.4 0-1.7 0-3 2.1-3 5 0 2.7 1.2 4.9 2.9 5 1.8 6 6.2 9.9 11.1 9.9s9.3-3.9 11.1-9.9c1.7-.1 2.9-2.1 2.9-5 0-3-1.2-5-3.3-5z"/><path d="m19.1 21.8c-1.2 0-1.7-.5-1.7-1.7 0-.3 0-.5 0-.7s0-.6 0-.7.5-.3 2.7-.3 2.6.4 2.7.4c.1.1 0 .6 0 .8v.5c0 .4-1.8 1.7-3.7 1.7z"/><path d="m20.1 19.6c.7 0 1.1 0 1.4.1-.4.3-1.4.8-2.4.8-.2 0-.4 0-.4 0 0-.1-.1-.2-.1-.4 0-.1 0-.3 0-.4.3-.1.8-.1 1.5-.1m0-2.5c-4.8 0-3.9 1.3-3.9 3s.8 3 3 3 4.9-1.4 4.9-3 .5-3-4-3z"/><path d="m24.4 17.1c-.7-.7-2-1.1-4.3-1.1-2.4 0-3.7.4-4.4 1.1s-.6 1.7-.6 2.4v.6c0 2.5 1.4 3.9 3.9 3.9s6-1.6 6-3.9c0-.1 0-.4 0-.5.1-.9.1-1.7-.6-2.5zm-1.4 2.4v.6c0 .8-2 2-3.9 2-1.4 0-2-.6-2-2 0-.2 0-.5 0-.7 0-.4 0-.7 0-.8.1-.1.6-.5 3-.5 2.3 0 2.7.4 2.9.5z"/><path d="m20.1 16c-2.4 0-3.7.4-4.4 1.1s-.6 1.7-.6 2.4v.6c0 2.5 1.4 3.9 3.9 3.9s6-1.6 6-3.9c0-.1 0-.4 0-.5.1-.8.1-1.7-.6-2.5-.8-.8-2.1-1.1-4.3-1.1zm-1 6.1c-1.4 0-2-.6-2-2 0-.2 0-.5 0-.7 0-.4 0-.7 0-.8.1-.1.6-.5 3-.5 2.3 0 2.7.4 2.9.5.1.1.1.5.1 1v.6c-.1.7-2.1 1.9-4 1.9z"/><path d="m29 21.8c-1.8 0-3.6-1.1-3.6-1.7 0-.2 0-.4 0-.7 0-.2 0-.6 0-.7s.4-.3 2.7-.3 2.7.4 2.7.4v.7.7c0 1.1-.6 1.6-1.8 1.6z"/><path d="m28.1 19.6c.7 0 1.1 0 1.4.1v.4c0 .2 0 .4-.1.4s-.2 0-.4 0c-1 0-2-.5-2.4-.8v-.1zm0-2.5c-4.7 0-3.9 1.3-3.9 3s2.7 3 4.9 3c2.1 0 3-1.3 3-3s.6-3-4-3z"/><path d="m32.5 17.1c-.7-.7-2-1.1-4.4-1.1-2.3 0-3.6.4-4.3 1.1s-.7 1.7-.6 2.4v.5c0 2.5 3.5 3.9 6 3.9s4.1-1.6 4.1-3.9c0-.2 0-.4 0-.6-.2-.7-.2-1.5-.8-2.3zm-1.5 2.2v.7c0 1.4-.6 2-2 2-1.9 0-3.9-1.2-3.9-2 0-.2 0-.4 0-.6 0-.5 0-.8.1-1 .1-.1.7-.5 2.9-.5 2.4 0 2.9.4 3 .5-.1.2-.1.6-.1.9z"/><path d="m28.1 16c-2.3 0-3.6.4-4.3 1.1s-.7 1.7-.6 2.4v.5c0 2.5 3.5 3.9 6 3.9s4.1-1.6 4.1-3.9c0-.2 0-.4 0-.6-.1-.6-.1-1.4-.7-2.3-.8-.8-2.2-1.1-4.5-1.1zm.9 6.1c-1.9 0-3.9-1.2-3.9-2 0-.2 0-.4 0-.6 0-.5 0-.8.1-1 .1-.1.7-.5 2.9-.5 2.4 0 2.9.4 3 .5v.8.7c-.1 1.5-.7 2.1-2.1 2.1z"/><path d="m28.1 2.6c.6 0 1.9 1.2 3.2 3.5-.2.1-.3.2-.5.4-.2.1-1.9 1.1-6.6 1.1s-6.4-.9-6.6-1c-.2-.2-.4-.3-.6-.5 1.3-2.3 2.6-3.4 3.1-3.4 1 0 1.7.4 2.6 1.1l1.7 1.2 1.5-1.5c.3-.4 1.1-.9 2.2-.9m7.2 9c3.3.6 5 1.2 5.7 1.5-1.9 1.1-8.1 2.4-17 2.4s-15.1-1.3-16.9-2.4c.7-.3 2.3-.9 5.7-1.5 1.5 1.5 5.1 2.9 11.3 2.9 6.5.1 9.7-1.5 11.2-2.9m-7.2-11.5c-1.8 0-3.2.8-3.9 1.6-1-.7-2.3-1.6-4.1-1.6-2.9 0-5.6 4.3-7.2 9-7.6 1.3-8.7 2.6-8.7 3.9-.1 3.9 12.4 5 19.8 5s19.9-1.1 19.9-5c0-1.2-1.1-2.6-8.7-3.9-1.5-4.7-4.4-9-7.1-9zm-4.1 12c-7.5 0-9.6-2.1-9.7-2.4-.4-.5-.2-1.1.1-1.4.2-.2.4-.3.6-.3.3 0 .6.1.8.3s1.9 1.7 8.3 1.7c6.6 0 8.2-1.7 8.2-1.7.2-.2.5-.3.7-.3s.5.1.7.2c.3.5.3 1.1 0 1.5-.3.2-2.2 2.4-9.7 2.4z"/><path d="m5.9 39.5 2.2 2.2c.6.6 1.2 1 2 1.3.3.7.8 1.6 1.8 2.4h-9.3c.3-2.3 1.5-4.3 3.3-5.9m.2-2.9c-.2 0-.4.1-.6.2-3.5 2.2-5.5 5.9-5.5 10 .1.6.6 1.1 1.1 1.1h15.8c.5 0 .8-.2 1-.7.1-.4 0-.8-.4-1.1l-3.9-2.6c-.6-.5-1.1-1.1-1.2-1.8-.1-.4-.4-.6-.6-.7l-.6-.2c-.5-.1-.8-.4-1.2-.7l-3.1-3.1c-.3-.3-.5-.4-.8-.4z"/><path d="m35.7 32.7 2.5.8-3.2 3.2-1.9.6-.8.3zm-23.2.1 3.3 4.7-1-.3-1.9-.6-3-3zm4 5.8 1.9 2.8-1.9-1.3v-.5zm14.9.2v.8.5l-1.7 1.1zm3.7-8.9c-.3 0-.6.1-.8.4l-10.3 14.8-10.1-14.7c-.2-.3-.5-.4-.8-.4-.1 0-.2 0-.3 0l-6 2c-.4 0-.6.2-.7.6s0 .7.2 1l5 5c.1.1.2.2.4.2l2.3.7v1.3c0 .4.1.6.5.8l9 6s.1.1.2.1.2.1.4.1.2 0 .4-.1c.1 0 .1 0 .1-.1l9-6c.2-.2.5-.5.5-.8v-1.3l2.3-.7c.1 0 .2-.1.4-.2l5-5c.4-.2.4-.6.4-1-.1-.4-.4-.6-.6-.7l-6-2c-.3 0-.4 0-.5 0z"/><path d="m41.9 39.6c1.8 1.5 3 3.5 3.4 5.7h-9.1c.8-.6 1.4-1.4 1.8-2.3.6-.3 1.2-.6 1.7-1.2zm-.1-3c-.3 0-.5.1-.7.3l-3.1 3.1c-.4.4-.7.6-1.2.7l-.4.1c-.4.1-.6.4-.6.7-.1.7-.6 1.4-1.2 1.8l-3.9 2.7c-.4.2-.5.7-.4 1.1.1.5.5.7 1 .7h15.7c.6 0 1-.5 1-1-.1-4.1-2.1-7.6-5.6-10-.2-.1-.4-.2-.6-.2z"/></svg>