<svg enable-background="new 0 0 48 48" viewBox="0 0 48 48" xmlns="http://www.w3.org/2000/svg"><path d="m27.1 34c-.1 0-.2 0-.3.1l-2.8.8-2.6-.8c-.1 0-.2 0-.3 0-.2 0-.4.1-.6.2s-.4.5-.4.8v2c0 .4.1.6.4.8.1.1.3.2.5.2.1 0 .2 0 .3-.1l2.6-.8 2.6.8h.4c.2 0 .4-.1.6-.2.2-.2.4-.5.4-.8v-2c0-.2-.1-.6-.4-.7 0-.2-.2-.3-.4-.3z"/><path d="m14.5 34.9 6.7 10.5h-9.1c-.3-3.5-.9-6.7-1.3-8.7zm18.9 0 3.6 1.8c-.2.9-.4 2-.6 3.3-.5-.2-1-.3-1.5-.3h-4c-.2 0-.4 0-.6 0zm-5.8 9.1c.1.5.4 1 .7 1.3h-1.6zm5.3-12.1c-.3 0-.6.2-.8.5l-8 12.7-8.2-12.7c-.2-.3-.5-.5-.8-.5-.2 0-.3 0-.5.1l-6.5 3.2c.4 1.7 1.4 7.2 1.8 12.6h28.1c.4-5.5 1.4-10.9 1.8-12.6l-6.4-3.2c-.2 0-.4-.1-.5-.1zm-1.9 12.1c-.6 0-1-.5-1-1s.5-1 1-1h4c.6 0 1 .5 1 1s-.4 1-1 1z"/><path d="m4.5 40.2c.2 1.5.5 3.4.7 5.3h-2.3l1.1-4.3c.1-.4.2-.7.5-1m1.8-4-2 1.1c-1.3.6-2.3 1.8-2.6 3.2l-1.7 6.2c-.1.2 0 .6.1.8.3.4.6.5.9.5h6.8c-.2-4.8-1.1-9.7-1.5-11.8z"/><path d="m43.5 40.1c.2.3.4.6.5.9l1 4.4h-2.2c.2-1.9.5-3.8.7-5.3m-1.7-4c-.5 2-1.3 7-1.7 11.8h6.8c.6 0 1-.5 1-1 .1-.1.1-.4 0-.5l-1.4-6c-.4-1.4-1.3-2.6-2.6-3.2z"/><path d="m24 2.5c6.4 0 11.5 5.2 11.5 11.5 0 .4 0 .8.1 1.3-5.9-.5-11.8-4.6-14.2-7.2l-2.9-3.1-1.3 4.1c-.6 2-2.2 3.8-4.6 5.3 0-.1 0-.2 0-.4 0-6.3 5.1-11.5 11.4-11.5m13.4 20.7c.4 1.2.9 2.4 1.5 3.4-.9.4-2.5.9-4.8 1.4.6-1.1 1.1-2.3 1.5-3.5.7-.2 1.3-.7 1.8-1.3m-26.7.1c.5.6 1 1 1.7 1.1.4 1.3.9 2.5 1.5 3.5-2.3-.5-3.8-.9-4.7-1.3.6-.9 1.1-2.1 1.5-3.3m13.3-23.3c-7.7 0-13.9 6.2-13.9 14 0 3.2-1.8 10.3-3.7 12.2-.4.4-.4 1.1 0 1.4 2.2 2.2 9.7 3.1 10.6 3.2 2 1.9 4.4 3 7 3s5-1.1 7-3h.1c.8-.1 8.4-1.1 10.6-3.2.5-.4.5-1.1.1-1.4-1.9-1.9-3.7-9-3.7-12.2-.1-7.8-6.4-14-14.1-14zm-11 22c-.2 0-1-1.1-1-3 0-.5 0-1.1.1-1.4 1.4-.7 6-3.1 7.4-7.7 3 3.2 9.7 7.7 16.3 8 .1.4.1.8.1 1.2 0 1.8-.6 2.9-1 2.9 0 0 0 0-.1 0-.2-.1-.4-.2-.6-.2-.1 0-.2 0-.2 0-.2.1-.5.4-.6.7-1.4 5.7-5.1 9.5-9.4 9.5s-8-3.8-9.5-9.5c-.1-.4-.4-.6-.6-.7-.1 0-.2-.1-.4-.1-.2.1-.4.1-.5.3z"/></svg>