<svg enable-background="new 0 0 48 48" viewBox="0 0 48 48" xmlns="http://www.w3.org/2000/svg"><path d="m34.2 34.1 4.3 1.5c4.2 1.4 7 5.4 6.9 9.9h-42.9c0-4.5 2.8-8.4 7-9.9l4.3-1.5c2.6 2.9 6.1 6.3 10.2 6.3s7.6-3.5 10.2-6.3m-.4-2.7c-.3 0-.6.1-.8.3-2.4 2.6-5.8 6.2-9.1 6.2s-6.6-3.6-9-6.2c-.2-.2-.5-.3-.8-.3-.1 0-.2 0-.3 0l-5.2 1.8c-5.1 1.8-8.6 6.8-8.6 12.3v1.4c0 .6.5 1.1 1 1.1h46c.6 0 1-.5 1-1v-1.4c0-5.6-3.5-10.6-8.8-12.4l-5.2-1.8s-.1 0-.2 0z"/><path d="m24 2.5c1.7 0 3.3.4 4.8 1-1.1.1-2.2.4-3.3 1l-.4.2-.2.3c-.3.3-.7.3-.9.3-.3 0-1.1 0-1.2-.1l-.1-.1-.1-.1c-1-1-2.1-1.6-3.2-1.7 1.5-.5 3-.8 4.6-.8m10.8 7.3c.5 1.3.8 2.7.8 4.1 0 .4 0 .9-.1 1.3h-.1c-.2-1.3-.5-3.5-.6-5.4m-21.7.5-.4 5h-.1c0-.4-.1-.8-.1-1.1v-.2-.1c0-1.2.2-2.5.6-3.6m15.3 19.1c.2 0 .4.1.6.1h.7c-1.6 2.3-3.6 4-5.8 4s-4.3-1.7-5.8-4h.8.5c.2 1.7 1.7 3 3.4 3h2c1.1 0 2.1-.5 2.8-1.3.6-.5.8-1.1.8-1.8m-4.4-29.4c-7.7 0-13.9 6.1-14 13.9v.1.1c0 .8.1 1.7.2 2.6-.2.7-.4 1.4-.4 2.3.1 2.8 1.4 4.8 3 4.9.2.8.5 1.6.8 2.4 2 4.8 5.6 9.7 10.4 9.7s8.5-5.2 10.4-10c.2-.7.5-1.3.7-2 1.7-.1 2.9-2.2 2.9-5 0-.8-.1-1.6-.4-2.3.2-1 .4-1.9.4-2.8 0-7.7-6.3-13.9-14-13.9zm-8.5 18.1-.6-.6c.1-.1.1-.3.1-.5l.7-8c.1-1.7 1.7-3.1 3.4-3.1.6 0 1.2.4 1.8 1 .8 1 2.2 1 3.1 1 1 0 1.9-.4 2.6-1.1.8-.4 1.7-.8 2.9-.8 1.4 0 2.6 1.1 2.6 2.5.2 3.6.8 8.6.8 8.6 0 .1 0 .2.1.4l-.6.6c-.7-1.2-2-2-3.5-2-1.6 0-3 1-3.6 2.3-.3-.3-.8-.4-1.3-.4s-1 .1-1.4.4c-.6-1.3-2-2.3-3.6-2.3s-2.8.8-3.5 2zm13.5 5.8c2 0 3.7-1.6 4-3.5l2.6-2.6h.4c.1.4.1.7.1 1.2 0 1.9-.7 3-1.1 3-.2-.1-.4-.2-.6-.2-.1 0-.2 0-.3 0-.2.1-.5.4-.6.7-.2.8-.5 1.7-.8 2.5l-.4.2-.1.1c-1.6 1.7-1.6 1.7-3.2 1.7-.6 0-1-.5-1.7-1.1-.8-.8-1.7-1.9-3.3-1.9s-2.5 1.1-3.4 1.9c-.7.7-1 1.1-1.6 1.1-1.6 0-1.6 0-3.1-1.6l-.1-.1c-.1-.1-.2-.1-.4-.2-.4-.8-.6-1.7-.8-2.5-.1-.4-.4-.6-.6-.7-.1 0-.2-.1-.4-.1s-.4.1-.6.2c-.2 0-1-1.1-1-3 0-.4 0-.7.1-1.2h.2l2.6 2.6c.2 2 1.9 3.5 4 3.5s3.7-1.6 4-3.6c.1-.1.5-.5 1.1-.5.5 0 .8.2 1.1.5.2 2 1.9 3.6 3.9 3.6zm-.1-1.8c-1.1 0-2-.8-2-2 0-1.1.8-2 2-2s2 .8 2 2c.1 1-.8 2-2 2zm-9.9 0c-1.1 0-2-.8-2-2 0-1.1.8-2 2-2s2 .8 2 2c0 1-.8 2-2 2zm3.9 7.9c-.6 0-1-.5-1-1s.5-1 1-1h2c.6 0 1 .5 1 1 .1.5-.4 1-1 1z"/><path d="m29.8 29.4s-5.6 9-11.6 0l5.6 2.4z" fill="none" stroke="#000" stroke-miterlimit="10" stroke-width="2.5"/><path d="m29.2 2.4h-9.9v2.9h9.9z"/><path d="m12.4 10.3-.6 4.9 1.5.2.6-4.9z"/><path d="m35.3 9.6-1.5.1.8 6.2 1.4-.2z"/><g stroke="#000" stroke-miterlimit="10" stroke-width="2.5"><circle cx="29" cy="20" r="2.7"/><circle cx="19" cy="20" r="2.7"/></g></svg>