<svg enable-background="new 0 0 48 48" viewBox="0 0 48 48" xmlns="http://www.w3.org/2000/svg"><path d="m37.6 16.4c-.1-.5-.7-.8-1.3-.6-.5.1-.8.7-.6 1.3s.2 1.2.2 1.9c0 1.9-.7 3-1.1 3-.2-.1-.6-.2-1-.1-.2.1-.5.4-.6.7-1.4 5.6-5.2 9.5-9.5 9.5s-8-3.8-9.5-9.5c-.1-.4-.4-.6-.6-.7s-.7-.1-1 .1c-.2 0-1-1.1-1-3 0-.7.1-1.3.2-1.9.1-.5-.1-1.1-.6-1.3-.5-.1-1.1.1-1.3.6-.2.7-.4 1.7-.4 2.5 0 2.8 1.2 4.9 2.9 5 1.8 6 6.2 10 11.2 10s9.2-4 11.2-10c1.7-.1 2.9-2.2 2.9-5 .3-.8.2-1.6-.1-2.5z"/><path d="m39.2 33.2-5.2-1.8c-.4-.1-.8 0-1.1.2-2.5 2.8-5.6 4.3-9 4.3s-6.5-1.6-9-4.3c-.2-.2-.7-.4-1.1-.2l-5.2 1.8c-5.1 1.8-8.6 6.8-8.6 12.3v1.4c0 .6.5 1.1 1 1.1h46c.6 0 1-.5 1-1v-1.4c0-5.6-3.5-10.6-8.8-12.4z"/><path d="m24 0c-7.7 0-14 6.2-14 14 0 1 .1 1.9.4 3 .1.2.2.5.5.7.2.1.6.1.8 0s6.2-2.5 7.9-7.9c3.1 3.4 10.3 8 17 8 .5 0 .8-.4 1-.8.2-1.1.4-2 .4-3 0-7.8-6.3-14-14-14z"/><path d="m17.8 29.4-5.8-7.7v-7.7c0-.6-.5-1-1-1s-1 .5-1 1c0 3.2-1.8 10.3-3.7 12.2-.4.4-.4 1.1 0 1.4 2.2 2.2 9.7 3.2 10.6 3.2h.1c.4 0 .7-.2.8-.5.3-.2.2-.5 0-.9z"/><path d="m41.8 26.3c-2-1.9-3.8-9.1-3.8-12.3 0-.6-.5-1-1-1s-1.1.4-1.1 1v7.7l-5.8 7.7c-.2.4-.2.7-.1 1.1.2.4.5.5.8.5h.1c.8-.1 8.4-1.1 10.6-3.2.6-.4.6-1.2.3-1.5z"/></svg>