<svg enable-background="new 0 0 48 48" viewBox="0 0 48 48" xmlns="http://www.w3.org/2000/svg"><path d="m39.5 36.1-7.7-1.9-.6-2.6c2-2 3.5-4.8 3.8-7.7 1.1-.4 2-1.3 2.2-2.5l.5-4c.1-.8-.1-1.7-.7-2.3-.4-.4-.7-.6-1.2-.8l.2-3.7.7-.7c1.1-1.2 2-3.2.1-6.2-1.5-2.5-4-3.7-7.5-3.7-1.4 0-4.6 0-7.6 2-8.5.2-9.7 4.1-9.7 8 0 .8.2 2.9.4 4.1-.5.1-1 .5-1.3.8-.6.6-.8 1.6-.7 2.4l.5 4c.1 1.3 1.2 2.3 2.4 2.5.4 2.8 1.8 5.4 3.7 7.4l-.8 2.8-7.7 1.9c-5 1.2-8.5 5.7-8.5 10.9 0 .7.5 1.2 1 1.2h46c.6 0 1-.5 1-1 0-5.1-3.5-9.7-8.5-10.9z"/></svg>