<svg enable-background="new 0 0 48 48" viewBox="0 0 48 48" xmlns="http://www.w3.org/2000/svg"><path d="m27.6 34.2c-.2-.2-.6-.2-.8-.1l-2.8.8-2.6-.8c-.4-.1-.6 0-.8.1-.2.2-.4.5-.4.8v2c0 .4.1.6.4.8.2.2.6.2.8.1l2.6-.8 2.6.8h.4c.2 0 .4-.1.6-.2.2-.2.4-.5.4-.8v-2c0-.2-.2-.6-.4-.7z"/><path d="m33.5 32c-.5-.2-1-.1-1.3.4l-8.2 12.7-8.2-12.7c-.2-.5-.8-.6-1.3-.4l-6.5 3.2c.4 1.7 1.4 7.2 1.8 12.6h28.2c.4-5.5 1.4-10.9 1.8-12.6zm1.4 12h-4c-.6 0-1-.5-1-1 0-.6.5-1 1-1h4c.6 0 1 .5 1 1 .1.6-.4 1-1 1z"/><path d="m6.3 36.2-2 1.1c-1.3.6-2.3 1.8-2.6 3.2l-1.7 6.2c-.1.2 0 .6.2.8.2.4.5.5.8.5h6.8c-.2-4.8-1.1-9.7-1.5-11.8z"/><path d="m47.9 46.4-1.4-6c-.4-1.4-1.3-2.6-2.6-3.2l-2-1.1c-.5 2-1.3 7-1.7 11.8h6.8c.6 0 1-.5 1-1 0-.1 0-.2-.1-.5z"/><path d="m37.6 16.4c-.1-.5-.7-.8-1.3-.6-.5.1-.8.7-.6 1.3s.2 1.2.2 1.9c0 1.9-.7 3-1.1 3-.2-.1-.6-.2-1-.1-.2.1-.5.4-.6.7-1.4 5.6-5.2 9.5-9.5 9.5s-8-3.8-9.5-9.5c-.1-.4-.4-.6-.6-.7s-.7-.1-1 .1c-.2 0-1-1.1-1-3 0-.7.1-1.3.2-1.9.1-.5-.1-1.1-.6-1.3-.5-.1-1.1.1-1.3.6-.2.7-.4 1.7-.4 2.5 0 2.8 1.2 4.9 2.9 5 1.8 6 6.2 10 11.2 10s9.2-4 11.2-10c1.7-.1 2.9-2.2 2.9-5 .2-.8.1-1.6-.1-2.5z"/><path d="m24 0c-7.7 0-14 6.2-14 14 0 1 .1 1.9.4 3 .1.5.5.8 1 .8 1.1 0 2.5.2 2.5.2h.1c.6 0 1-.5 1-1 0-.1 0-.2 0-.4-.1-2 0-4 .2-4.7h.1c3.5 0 5.2-1.1 6-2.5 2.2 2.2 6.5 4.2 10.7 4.4.2 1.7 1 3.4 1 3.5.1.4.5.6 1 .6h.1l2.6-.2c.5 0 .8-.4.8-.8.2-1.1.4-2 .4-3 0-7.7-6.2-13.9-13.9-13.9z"/></svg>