<svg enable-background="new 0 0 48 48" viewBox="0 0 48 48" xmlns="http://www.w3.org/2000/svg"><path d="m36.6 30.8c1.9-1.9 3.4-4.2 4.3-6.8h1c.8 0 1.5-.7 1.5-1.5v-9c0-.8-.7-1.5-1.5-1.5h-1.1c-2.3-7-9-12-16.8-12s-14.5 5-16.9 12h-1.1c-.8 0-1.5.7-1.5 1.5v9c0 .8.7 1.5 1.5 1.5h1.1c.9 2.6 2.4 4.9 4.3 6.8-4.9 1.8-8.4 6.3-8.4 11.8v3.2c0 1.2 1 2.2 2.3 2.2s2.3-1 2.3-2.3v-3.2c0-4.5 3.6-8.1 8.1-8.1h1.2c2.2 1 4.6 1.5 7.2 1.5s5-.5 7.2-1.5h1.2c4.5 0 8.1 3.6 8.1 8.1v3.2c0 1.2 1 2.3 2.3 2.3s2.3-1 2.3-2.3v-3.2c-.2-5.4-3.7-9.9-8.6-11.7zm-12.6.7c-7.4 0-13.5-6.1-13.5-13.5s6.1-13.5 13.5-13.5 13.5 6.1 13.5 13.5-6.1 13.5-13.5 13.5zm7.5 7.5h-15c-1.7 0-3 1.3-3 3v6h4.5v-4.5c0-.8.7-1.5 1.5-1.5s1.5.7 1.5 1.5v4.5h13.5v-6c0-1.7-1.3-3-3-3zm-3 6c-.8 0-1.5-.7-1.5-1.5s.7-1.5 1.5-1.5 1.5.7 1.5 1.5-.7 1.5-1.5 1.5zm1.5-33h-12c-2.5 0-4.5 2-4.5 4.5v1.5c0 5 4 9 9 9h3c5 0 9-4 9-9v-1.5c0-2.5-2-4.5-4.5-4.5zm-7.9 8.6-1.1 3.4-1.1-3.4-3.4-1.1 3.4-1.1 1.1-3.4 1.1 3.4 3.4 1.1z"/></svg>