<svg enable-background="new 0 0 48 48" viewBox="0 0 48 48" xmlns="http://www.w3.org/2000/svg"><path d="m27.1 34c-.1 0-.2 0-.3.1l-2.8.8-2.6-.8c-.1 0-.2 0-.3 0-.2 0-.4.1-.6.2-.2.2-.4.5-.4.8v2c0 .4.1.6.4.8.1.1.3.2.5.2.1 0 .2 0 .3-.1l2.6-.8 2.6.8h.4c.2 0 .4-.1.6-.2.2-.2.4-.5.4-.8v-2c0-.2-.1-.6-.4-.7 0-.2-.2-.3-.4-.3z"/><path d="m14.5 34.9 6.7 10.5h-9.1c-.3-3.5-.9-6.7-1.3-8.7zm19 0 3.5 1.8c-.2.9-.4 2-.6 3.3-.5-.2-1-.3-1.5-.3h-4c-.2 0-.3 0-.5 0zm-5.9 9.2c.1.5.4.9.7 1.3h-1.6zm5.4-12.2c-.3 0-.6.2-.8.5l-8.2 12.7-8.2-12.7c-.2-.3-.5-.5-.8-.5-.2 0-.3 0-.5.1l-6.5 3.2c.4 1.7 1.4 7.2 1.8 12.6h28.2c.4-5.5 1.4-10.9 1.8-12.6l-6.3-3.2c-.2 0-.3-.1-.5-.1zm-2 12.1c-.6 0-1-.5-1-1 0-.6.5-1 1-1h4c.6 0 1 .5 1 1 .1.5-.4 1-1 1z"/><path d="m4.5 40.2c.2 1.5.5 3.4.7 5.3h-2.3l1.1-4.3c.1-.4.2-.7.5-1m1.8-4-2 1.1c-1.3.6-2.3 1.8-2.6 3.2l-1.7 6.2c-.1.2 0 .6.2.8.2.4.5.5.8.5h6.8c-.2-4.8-1.1-9.7-1.5-11.8z"/><path d="m43.5 40.1c.2.3.4.6.5.9l1 4.4h-2.2c.2-1.9.5-3.8.7-5.3m-1.7-4c-.5 2-1.3 7-1.7 11.8h6.8c.6 0 1-.5 1-1 .1-.1.1-.2 0-.5l-1.4-6c-.4-1.4-1.3-2.6-2.6-3.2z"/><path d="m36.6 15.8c-.1 0-.3 0-.4.1-.5.1-.8.7-.6 1.3s.2 1.2.2 1.9c0 1.9-.7 3-1.1 3-.2-.1-.4-.2-.6-.2-.1 0-.2 0-.3 0-.2.1-.5.4-.6.7-1.4 5.6-5.2 9.5-9.5 9.5s-8-3.8-9.5-9.5c-.1-.4-.4-.6-.6-.7-.1 0-.2-.1-.4-.1s-.4.1-.6.2c-.2 0-1-1.1-1-3 0-.7.1-1.3.2-1.9.1-.5-.1-1.1-.6-1.3-.1 0-.2 0-.3 0-.4 0-.9.2-1.1.6-.2.7-.4 1.7-.4 2.5 0 2.8 1.2 4.9 2.9 5 1.8 6 6.2 10 11.2 10s9.2-4 11.2-10c1.7-.1 2.9-2.2 2.9-5 .1-.8 0-1.7-.2-2.5.1-.3-.3-.6-.8-.6z"/><path d="m24 2.5c3.1 0 5.9 1.2 8.1 3.4 2.1 2.2 3.3 5.1 3.2 8.2 0 .5 0 .9-.1 1.5h-.3c-.2-.5-.4-1.2-.5-1.8l-.3-2-2-.1c-3.7-.2-7.4-2.1-9.1-3.7l-2.3-2.3-1.6 2.8c-.2.3-.7 1.3-3.8 1.3h-.1-1.8c1.7-4.3 5.8-7.3 10.6-7.3m-10.8 7.5-.3.8c.1-.3.2-.5.3-.8m10.8-10c-7.7 0-14 6.2-14 14 0 1 .1 1.9.4 3 .1.5.5.8 1 .8 1.1 0 2.5.2 2.5.2h.1c.6 0 1-.5 1-1 0-.1 0-.2 0-.4-.1-2 0-4 .2-4.7h.1c3.5 0 5.2-1.1 6-2.5 2.2 2.2 6.5 4.2 10.7 4.4.2 1.7 1 3.4 1 3.5.1.4.5.6 1 .6h.1l2.6-.2c.5 0 .8-.4.8-.8.2-1.1.4-2 .4-3 0-7.7-6.2-13.9-13.9-13.9z"/></svg>