<svg enable-background="new 0 0 48 48" viewBox="0 0 48 48" xmlns="http://www.w3.org/2000/svg"><path d="m42.4 39.4.3.1c.6.3 1.1.8 1.2 1.6l1.1 4.3h-7.2l.3-.1c1.7-.3 3.1-1.4 3.8-3.1.5-.9.6-1.8.5-2.8m-3-4.1c-.3 0-.5.1-.8.4-.4.4-.4.8-.1 1.2l1.1 1.8c.5.8.5 1.8.1 2.6s-1.1 1.6-2 1.7l-3.4.8c-.1 0-.2.1-.4.1l-3.5 2.3c-.4.2-.5.7-.4 1.1s.6.7 1.1.7h15.9c.4 0 .6-.1.8-.4.2-.2.2-.6.2-.8l-1.6-6.2c-.4-1.4-1.3-2.6-2.6-3.2l-4-1.9c-.1-.2-.2-.2-.4-.2z"/><path d="m15.1 35.8 3.5 5.4-2.4-1.6-.4-.2-.4-.1-2-.5zm17.9.1 1.7 3-1.6.4-.4.1-.4.2-3.1 2.1zm-18-4c-.4 0-.7.2-.8.5l-4 7c-.1.2-.1.6 0 .8s.4.5.7.6l3.8 1 8.9 5.9h.1c.1.1.4.1.5.1s.4 0 .5-.1h.1l8.9-5.9 3.8-1c.4-.1.6-.2.7-.6-.2-.1-.2-.5-.4-.7l-4-7c-.1-.4-.5-.5-.8-.5s-.7.1-.8.5l-8.2 12.6-8.2-12.7c-.2-.2-.4-.5-.8-.5z"/><path d="m5.5 39.4c-.1.9 0 1.9.4 2.8.7 1.6 2 2.7 3.7 3.1l.4.1h-7.1l1-4.3c.2-.7.6-1.3 1.2-1.6zm3-4.1c-.1 0-.3 0-.5.1l-4 1.9c-1.3.6-2.3 1.8-2.6 3.2l-1.4 6.3c-.1.2 0 .6.2.8.2.3.5.4.8.4h15.8c.6 0 1-.5 1-1 .1-.5-.2-.8-.6-1l-3.2-2.2c-.1-.1-.2-.1-.4-.1l-3.4-.8c-1-.2-1.7-.8-2-1.7-.4-.8-.4-1.8.1-2.6l1.1-1.8c.2-.4.1-.8-.1-1.2-.3-.2-.5-.3-.8-.3z"/><path d="m36.6 15.8c-.1 0-.3 0-.4.1-.5.1-.8.7-.6 1.3s.2 1.2.2 1.9c0 1.9-.7 3-1.1 3-.2-.1-.4-.2-.6-.2-.1 0-.2 0-.3 0-.4.1-.5.4-.6.7-1.4 5.6-5.2 9.5-9.5 9.5s-8-3.8-9.5-9.5c-.1-.4-.4-.6-.6-.7-.1 0-.2-.1-.4-.1s-.4.1-.6.2c-.2 0-1-1.1-1-3 0-.7.1-1.3.2-1.9.1-.5-.1-1.1-.6-1.3-.1 0-.2 0-.3 0-.4 0-.9.2-1.1.6-.2.7-.4 1.7-.4 2.5 0 2.8 1.2 4.9 2.9 5 1.8 6 6.2 10 11.1 10s9.2-4 11.1-10c1.7-.1 2.9-2.2 2.9-5 .2-.8.1-1.7-.2-2.5.3-.3-.1-.6-.6-.6z"/><path d="m24 2.5c3.1 0 6 1.2 8.2 3.4 2.1 2.2 3.3 5 3.2 8.1 0 .4 0 .8-.1 1.3-5.5-.5-11.3-4.4-13.9-7.2l-2.9-3.1-1.3 4.1c-.8 2.6-3 4.4-4.7 5.4 0-.2 0-.3 0-.5 0-6.3 5.1-11.5 11.5-11.5m0-2.5c-7.7 0-14 6.2-14 14 0 1 .1 1.9.4 3 .1.2.2.5.5.7.1.1.3.1.4.1s.3 0 .4-.1c.2-.1 6.2-2.5 7.9-7.9 3.1 3.4 10.3 8 17 8 .5 0 .8-.4 1-.8.2-1.1.4-2 .4-3 0-7.7-6.3-14-14-14z"/><path d="m10.5 23.9 3 4c-1.5-.3-3.2-.8-4.3-1.3.5-.8.9-1.7 1.3-2.7m.6-10.8c-.5 0-1 .5-1 1 0 3.2-1.8 10.3-3.7 12.2-.4.4-.4 1.1 0 1.4 2.2 2.2 9.7 3.2 10.5 3.2h.1c.4 0 .7-.2.8-.5.2-.4.1-.7-.1-1.1l-5.7-7.6v-7.7c0-.5-.5-.9-.9-.9z"/><path d="m37.6 23.8c.4 1 .8 2 1.3 2.8-.9.4-2.2.8-4.3 1.3zm-.5-10.7c-.5 0-1.1.4-1.1 1v7.7l-5.8 7.7c-.2.4-.2.7-.1 1.1s.5.5.8.5h.1c.8-.1 8.4-1.1 10.5-3.2.5-.4.5-1.1.1-1.4-1.8-2.1-3.6-9.3-3.6-12.5 0-.5-.4-.9-.9-.9z"/></svg>