<svg enable-background="new 0 0 48 48" viewBox="0 0 48 48" xmlns="http://www.w3.org/2000/svg"><path d="m36 16.3c0-.5 0-1.1 0-1.3 0-.6-.5-1-1-1s-1 .5-1 1c0 .4 0 1.6-.1 1.9 0 .4.1.6.2.8.2.2.5.4.8.2.2.1 1 1.2 1 3 0 1.9-.7 3-1.1 3-.2-.1-.6-.2-1-.1-.2.1-.5.4-.6.7-1.4 5.6-5.2 9.5-9.5 9.5s-8-3.8-9.5-9.5c-.1-.4-.4-.6-.6-.7s-.7-.1-1 .1c-.2 0-1-1.1-1-3 0-1.8.7-2.9 1-3 .2 0 .6-.1.8-.2.2-.2.4-.5.2-.8 0-.4-.1-1.6-.1-1.9 0-.6-.5-1-1-1-.6 0-1 .5-1 1v1.2c-1.2.6-2 2.5-2 4.8 0 2.8 1.2 4.9 2.9 5 1.8 6 6.2 10 11.2 10s9.4-4 11.2-10c1.7-.1 2.9-2.2 2.9-5 .3-2.3-.5-4.1-1.7-4.7z"/><path d="m35 11c-.6 0-1 .5-1 1h-20c0-.6-.5-1-1-1-.6 0-1 .5-1 1v3c0 .4.2.7.5.8.2.2 4.2 2.2 11.6 2.2s11.3-2 11.5-2.2c.4-.1.5-.5.5-.8v-3c-.1-.6-.6-1-1.1-1z"/><path d="m32 2c-.8 0-1.6.1-2.3.5-1.5-1.7-3.5-2.5-5.7-2.5s-4.2.8-5.8 2.5c-.7-.3-1.4-.5-2.2-.5-3.4 0-6 2.6-6 6s2.6 6 6 6c1.1 0 2-.2 3-.8.4-.2.5-.5.5-.8h9c0 .4.1.7.5.8 1 .6 1.9.8 3 .8 3.4 0 6-2.6 6-6s-2.7-6-6-6zm-14.8 4.4c-1.1 1-1.2 2.6-1.2 2.6 0 .5-.5 1-1 1-.6 0-1-.5-1-1.1 0-.1.1-2.3 1.8-4 .4-.4 1.1-.4 1.4 0 .4.5.4 1.1 0 1.5z"/><path d="m16.4 30.1c-.5-.2-1.1-.1-1.3.4l-1.8 3.4c-.2.5-.1 1.1.4 1.3.1.1.4.1.5.1.4 0 .7-.2.8-.5l1.8-3.4c.4-.4.1-1-.4-1.3z"/><path d="m34.7 34-1.8-3.4c-.2-.5-.8-.7-1.3-.4-.5.2-.7.8-.4 1.3l1.8 3.4c.2.4.5.5.8.5.1 0 .4 0 .5-.1.5-.3.6-.9.4-1.3z"/><path d="m39.2 35.3-5.2-1.8c-.4-.1-.8 0-1.1.2-2.5 2.8-5.8 4.3-9.1 4.3v10h23c.6 0 1-.5 1-1 .2-5.4-3.2-9.9-8.6-11.7z"/><path d="m15 33.7c-.2-.2-.7-.4-1.1-.2l-5.2 1.8c-5.3 1.8-8.7 6.3-8.7 11.7 0 .5.5 1 1 1h21v-10.2c-2.6-.5-5.1-1.9-7-4.1z"/><path d="m24 26c-.8 0-1.7.5-2.5 1-1.6 1-2.2 1.1-2.9.4-.4-.4-1.1-.4-1.4 0-.4.4-.4 1.1 0 1.4.7.7 1.6 1.1 2.3 1.1 1.2 0 2.2-.6 3-1.1.5-.4 1.1-.7 1.4-.7.6 0 1-.5 1-1 .1-.7-.3-1.1-.9-1.1z"/><path d="m30.7 27.2c-.4-.4-1.1-.4-1.4 0-.7.7-1.3.6-2.9-.4-.8-.5-1.6-1-2.5-1-.6 0-1 .5-1 1 0 .6.5 1 1 1 .4 0 1 .4 1.4.7.7.5 1.8 1.1 3 1.1.7 0 1.6-.2 2.3-1.1.5-.2.5-.8.1-1.3z"/></svg>