<svg enable-background="new 0 0 48 48" viewBox="0 0 48 48" xmlns="http://www.w3.org/2000/svg"><path d="m36.6 15.8c-.1 0-.3 0-.4.1-.5.1-.8.7-.6 1.3s.2 1.2.2 1.9c0 1.9-.7 3-1.1 3-.2-.1-.4-.2-.6-.2-.1 0-.2 0-.3 0-.2.1-.5.4-.6.7-1.4 5.6-5.2 9.5-9.5 9.5s-8-3.8-9.5-9.5c-.1-.4-.4-.6-.6-.7-.1 0-.2-.1-.4-.1s-.4.1-.6.2c-.2 0-1-1.1-1-3 0-.7.1-1.3.2-1.9.1-.5-.1-1.1-.6-1.3-.1 0-.2 0-.3 0-.4 0-.9.2-1.1.6-.2.7-.4 1.7-.4 2.5 0 2.8 1.2 4.9 2.9 5 1.8 6 6.2 10 11.2 10s9.4-4 11.2-10c1.7-.1 2.9-2.2 2.9-5 .2-.8.1-1.7-.2-2.5.1-.3-.3-.6-.8-.6z"/><path d="m13.9 34.1c2.9 2.9 6.4 4.4 10.1 4.4s7.2-1.5 10.1-4.4l4.3 1.5c4.2 1.4 7 5.4 6.9 9.9h-42.8c0-4.5 2.8-8.4 7.1-9.9zm19.9-2.7c-.3 0-.6.1-.8.3-2.5 2.8-5.6 4.3-9 4.3s-6.5-1.6-9-4.3c-.2-.2-.5-.3-.8-.3-.1 0-.2 0-.3 0l-5.2 1.8c-5.2 1.8-8.7 6.8-8.7 12.3v1.4c0 .6.5 1.1 1 1.1h46c.6 0 1-.5 1-1v-1.4c0-5.6-3.5-10.6-8.8-12.4l-5.2-1.8s-.1 0-.2 0z"/><path d="m24 2.5c3.1 0 6.1 1.3 8.2 3.5s3.2 5 3.1 8c0 .5 0 .9-.1 1.5h-.3c-.2-.5-.4-1.2-.5-1.8l-.3-2-2-.1c-3.7-.2-7.4-2.1-9.1-3.7l-2.3-2.3-1.6 2.8c-.2.3-.7 1.3-3.8 1.3h-.1-1.8c1.7-4.3 5.8-7.2 10.6-7.2m-10.8 7.5-.3.9c.1-.4.2-.7.3-.9m10.8-10c-7.7 0-14 6.2-14 14 0 1 .1 1.9.4 3 .1.5.5.8 1 .8 1.1 0 2.5.2 2.5.2h.1c.6 0 1-.5 1-1 0-.1 0-.2 0-.4-.1-2 0-4 .2-4.7h.1c3.5 0 5.2-1.1 6-2.5 2.2 2.2 6.5 4.2 10.7 4.4.2 1.7 1 3.4 1 3.5.1.4.5.6 1 .6h.1l2.6-.2c.5 0 .8-.4.8-.8.2-1.1.4-2 .4-3 .1-7.7-6.2-13.9-13.9-13.9z"/></svg>