<svg enable-background="new 0 0 48 48" viewBox="0 0 48 48" xmlns="http://www.w3.org/2000/svg"><path d="m6 13.2c2 0 3.6 1.6 3.6 3.6s-1.6 3.6-3.6 3.6-3.6-1.6-3.6-3.6 1.6-3.6 3.6-3.6m0-2.4c-3.4 0-6 2.6-6 6s2.6 6 6 6 6-2.6 6-6-2.6-6-6-6z"/><path d="m16.8 3.6c2 0 3.6 1.6 3.6 3.6s-1.6 3.6-3.6 3.6-3.6-1.6-3.6-3.6 1.6-3.6 3.6-3.6m0-2.4c-3.4 0-6 2.6-6 6s2.6 6 6 6 6-2.6 6-6-2.6-6-6-6z"/><path d="m31.2 3.6c2 0 3.6 1.6 3.6 3.6s-1.6 3.6-3.6 3.6-3.6-1.6-3.6-3.6 1.6-3.6 3.6-3.6m0-2.4c-3.4 0-6 2.6-6 6s2.6 6 6 6 6-2.6 6-6-2.6-6-6-6z"/><path d="m42 13.2c2 0 3.6 1.6 3.6 3.6s-1.6 3.6-3.6 3.6-3.6-1.6-3.6-3.6 1.6-3.6 3.6-3.6m0-2.4c-3.4 0-6 2.6-6 6s2.6 6 6 6 6-2.6 6-6-2.6-6-6-6z"/><path d="m24 22.2h1.1c.1 0 .4.1.5.1l.2.1c.8.2 1.8 1 2.8 2.2 1.1 1.2 1.9 2.3 2.9 3.4s1.9 2.3 3.1 3.6l.4.4c3.1 3.1 5.2 5.4 4.9 8.3-.4 1.1-1.2 2.8-3.2 3.4h-.1c-.7 0-2-.1-3.5-.4-2.5-.4-5.8-.7-9.1-.7h-.2-.2c-3.5 0-6.6.5-9.1.7-1.4.2-2.8.4-3.5.4h-.1c-1.9-.5-2.9-2-3.2-3.4-.2-2.9 1.8-5.2 4.9-8.3l.6-.6c1.1-1.2 2.2-2.4 3.1-3.6 1-1.2 1.9-2.3 2.9-3.4 1.1-1.2 2-1.9 3-2.3.1 0 .2-.1.2-.1h.1c.4.2 1 .2 1.5.2m0-3c-.6 0-1.3 0-1.9.1-.2 0-.5.1-.8.2-1.7.6-3.1 1.9-4.2 3.1-2.2 2.4-3.8 4.6-6 7-3.1 3.1-7 6.6-6.4 11.5.7 2.4 2.4 4.9 5.6 5.6h.7c2.3 0 7.2-1.1 12.6-1.1h.2s.1 0 .2 0c5.3 0 10.3 1.1 12.6 1.1h.7c3.1-.7 4.9-3.1 5.6-5.6.7-4.9-3.1-8.4-6.2-11.5-2.2-2.4-3.8-4.6-6-7-1.1-1.3-2.5-2.6-4.2-3.1-.2-.1-.5-.1-.8-.2-.4-.1-1.1-.1-1.7-.1z"/></svg>