<svg enable-background="new 0 0 48 48" viewBox="0 0 48 48" xmlns="http://www.w3.org/2000/svg"><circle cx="6" cy="16.8" r="6"/><circle cx="16.8" cy="7.2" r="6"/><circle cx="31.2" cy="7.2" r="6"/><circle cx="42" cy="16.8" r="6"/><path d="m36.8 29.6c-2.2-2.4-3.8-4.6-6-7-1.1-1.3-2.5-2.6-4.2-3.1-.2-.1-.5-.1-.8-.2-.5-.1-1.2-.1-1.8-.1s-1.3 0-1.9.1c-.2 0-.5.1-.8.2-1.7.6-3.1 1.9-4.2 3.1-2.2 2.4-3.8 4.6-6 7-3.1 3.1-7 6.6-6.4 11.5.7 2.4 2.4 4.9 5.6 5.6 1.8.4 7.3-1.1 13.3-1.1h.2s.1 0 .2 0c6 0 11.5 1.4 13.3 1.1 3.1-.7 4.9-3.1 5.6-5.6.9-4.9-2.9-8.4-6.1-11.5z"/></svg>