<svg enable-background="new 0 0 48 48" viewBox="0 0 48 48" xmlns="http://www.w3.org/2000/svg"><path d="m12 0h-12v12h12zm-3 9h-6v-6h6z"/><path d="m36 0v12h12v-12zm9 9h-6v-6h6z"/><path d="m0 48h12v-12h-12zm3-9h6v6h-6z"/><path d="m36 48h12v-12h-12zm3-9h6v6h-6z"/><path d="m7.6 16.4h-3v4.6h4.4v-1.6h4.6v-3h-4.6z"/><path d="m10.6 21h7.6v4.6h-7.6z"/><path d="m16.6 9h3v7.6h-3z"/><path d="m30 30v-4.6-4.4-3h-1.4v-1.6h-3v1.6h-6v7.4h3v4.6z"/><path d="m22.6 15h9v-7.6h-6v-3h-4.6v4.6h1.6z"/><path d="m43.6 21h-3v-3h-4.6v3h-3v7.4h10.6z"/><path d="m27 39v-1.6-3h-9v4.6h3v6h-1.4v3h9v-3h-1.6z"/><path d="m30 33h3v12h-3z"/><path d="m13.6 42h4.6v4.6h-4.6z"/><path d="m18 33v-4.6h-6v1.6h-3v-4.6h-7.4v7.6h6 1.4 3 3z"/><path d="m15 1.4h4.6v4.6h-4.6z"/><path d="m37.6 30h7.6v3h-7.6z"/><path d="m43.6 15h3v3h-3z"/><path d="m27 1.4h6v4.6h-6z"/><path d="m33 15h1.6v4.6h-1.6z"/><path d="m37.6 13.4h3v3h-3z"/><path d="m4.6 4.4h3v3h-3z"/><path d="m4.6 40.4h3v3h-3z"/><path d="m40.6 4.4h3v3h-3z"/><path d="m40.6 40.4h3v3h-3z"/></svg>