<svg enable-background="new 0 0 48 48" viewBox="0 0 48 48" xmlns="http://www.w3.org/2000/svg"><path d="m22.1 18.8-4.2-1.3c-.5-.1-.8-.6-.8-1.2 0-.7.5-1.2 1.1-1.2h2.6c.5 0 .8.1 1.2.4.4.2.7.1 1-.1l1.1-1.1c.4-.4.4-.8 0-1.1-.8-.6-1.9-1-3-1.1v-1.6c0-.4-.4-.7-.7-.7h-1.4c-.4 0-.7.4-.7.7v1.6c-2.2 0-4 1.9-4 4.2 0 1.9 1.2 3.6 3 4.1l4.2 1.3c.5.1.8.6.8 1.2 0 .7-.5 1.2-1.1 1.2h-2.6c-.5 0-.8-.1-1.2-.4-.4-.2-.7-.1-1 .1l-1.1 1.1c-.4.4-.4.8 0 1.1.8.6 1.9 1 3 1.1v1.6c0 .4.4.7.7.7h1.4c.4 0 .7-.4.7-.7v-1.6c2.2 0 4-1.9 4-4.2-.1-2-1.3-3.6-3-4.1zm25.5 25.2-11.4-11.4c-.2-.2-.5-.4-.8-.4h-1.2c3-3.5 4.8-7.9 4.8-12.7 0-10.8-8.8-19.4-19.4-19.4s-19.6 8.7-19.6 19.4 8.8 19.4 19.4 19.4c4.9 0 9.4-1.8 12.7-4.8v1.2c0 .4.1.6.4.8l11.4 11.4c.5.5 1.2.5 1.6 0l2.2-2.2c.4-.1.4-.8-.1-1.3zm-28-9.5c-8.3 0-15-6.7-15-15s6.7-15 15-15 15 6.7 15 15c-.2 8.4-6.8 15-15 15z"/></svg>