<svg enable-background="new 0 0 48 48" viewBox="0 0 48 48" xmlns="http://www.w3.org/2000/svg"><path d="m19.6 10.5c-3.8 0-7 3.1-7 7 0 3.1 4.6 8.8 6.2 10.8.4.4.8.4 1.2.1l.1-.1c1.7-2 6.2-7.7 6.2-10.8.1-3.9-3-7-6.7-7zm0 9c-1.2 0-2.3-1-2.3-2.3 0-1.2 1-2.3 2.3-2.3 1.2 0 2.3 1 2.3 2.3-.2 1.3-1.1 2.3-2.3 2.3zm28 24.5-11.4-11.4c-.2-.2-.5-.4-.8-.4h-1.2c3-3.5 4.8-7.9 4.8-12.7 0-10.8-8.8-19.4-19.4-19.4s-19.6 8.7-19.6 19.4 8.8 19.4 19.4 19.4c4.9 0 9.4-1.8 12.7-4.8v1.2c0 .4.1.6.4.8l11.4 11.4c.5.5 1.2.5 1.6 0l2.2-2.2c.4-.1.4-.8-.1-1.3zm-28-9.5c-8.3 0-15-6.7-15-15s6.7-15 15-15 15 6.7 15 15c-.2 8.4-6.8 15-15 15z"/></svg>