<svg enable-background="new 0 0 48 48" viewBox="0 0 48 48" xmlns="http://www.w3.org/2000/svg"><path d="m29.3 18.4v2.3c0 .6-.5 1.1-1.1 1.1h-6.4v6.4c0 .6-.5 1.1-1.1 1.1h-2.3c-.6 0-1.1-.5-1.1-1.1v-6.4h-6.3c-.6 0-1.1-.5-1.1-1.1v-2.3c0-.6.5-1.1 1.1-1.1h6.4v-6.4c0-.6.5-1.1 1.1-1.1h2.3c.6 0 1.1.5 1.1 1.1v6.4h6.4c.5 0 1 .5 1 1.1zm18.3 27.2-2 2c-.5.5-1.2.5-1.6 0l-11.4-11.4c-.2-.2-.4-.5-.4-.8v-1.2c-3.5 3-7.9 4.8-12.7 4.8-10.7 0-19.4-8.8-19.4-19.4s8.7-19.6 19.4-19.6 19.5 8.8 19.5 19.4c0 4.9-1.8 9.4-4.8 12.7h1.2c.2 0 .6.1.8.4l11.4 11.4c.5.5.5 1.2 0 1.7zm-13.1-26c0-8.3-6.7-15-15-15s-15 6.7-15 15 6.7 15 15 15 15-6.8 15-15z"/></svg>