<svg enable-background="new 0 0 48 48" viewBox="0 0 48 48" xmlns="http://www.w3.org/2000/svg"><path d="m0 0h48v48h-48z" fill="none"/><path d="m27.8 2.4 13 13v21l-3.8-3.9c1-1.9 1.4-4.1 1.4-6.2 0-7.9-6.5-14.4-14.4-14.4s-14.4 6.5-14.4 14.4 6.5 14.4 14.4 14.4c2.2 0 4.3-.5 6.2-1.4l6.2 6.2h-26.8c-1.3 0-2.4-1.1-2.4-2.4v-38.3c0-1.3 1.1-2.4 2.4-2.4zm-3.8 19.2c2.6 0 4.8 2.2 4.8 4.8s-2.2 4.8-4.8 4.8-4.8-2.2-4.8-4.8 2.2-4.8 4.8-4.8m4.8-21.6h-19.2c-2.6 0-4.8 2.2-4.8 4.8v38.4c0 2.6 2.2 4.8 4.8 4.8h28.8c1.1 0 2-.4 2.9-1l-10.7-10.6c-1.9 1.3-4.2 2-6.6 2-6.6 0-12-5.4-12-12s5.4-12 12-12 12 5.4 12 12c0 2.4-.7 4.7-2 6.6l9.2 9.2v-27.8zm-4.8 19.2c-4 0-7.2 3.2-7.2 7.2s3.2 7.2 7.2 7.2 7.2-3.2 7.2-7.2-3.2-7.2-7.2-7.2z"/></svg>