<svg enable-background="new 0 0 48 48" viewBox="0 0 48 48" xmlns="http://www.w3.org/2000/svg"><path d="m37.5 46.9c-.7 0-1.4-.2-2.3-.8l-9.4-6.6c-1-.6-2.8-.6-3.7 0l-9.4 6.6c-1.7 1.2-3.2 1.1-4.1 0-.6-.7-.6-1.8-.2-3l3.4-10.9c.4-1.1-.2-2.8-1.2-3.5l-9.1-6.8c-1.8-1.3-1.7-2.6-1.4-3.2.2-.6.8-1.7 3.1-1.8l11.4-.1c1.2 0 2.6-1.1 3-2.2l3.7-10.8c.7-2.2 1.9-2.4 2.6-2.4s1.9.4 2.6 2.4l3.7 10.8c.4 1.1 1.8 2.2 3 2.2l11.4.1c2.3 0 2.9 1.1 3.1 1.8s.2 1.9-1.4 3.2l-9.1 6.7c-1 .7-1.4 2.4-1.2 3.5l3.4 10.9c.4 1.3.4 2.3-.2 3-.4.5-1 .9-1.7.9z"/></svg>