<svg enable-background="new 0 0 48 48" viewBox="0 0 48 48" xmlns="http://www.w3.org/2000/svg"><path d="m46.7 25.1-8.7-3.3c-.3-.1-.9-.3-1.7 0l-8.6 3.4c-.8.3-1.3 1.1-1.3 1.9 0 8.4 5.2 14.2 10 16 .7.3 1.3.1 1.7 0 3.8-1.5 10-6.7 10-16-.1-.9-.6-1.7-1.4-2zm-9.5 14.4v-14.2l7.2 2.8c-.5 6.5-4.6 10.1-7.2 11.4zm-10.5.1h-23.1v-1.9c0-3.6 2.9-6.5 6.5-6.5 1.1 0 2.9 1.2 6.7 1.2 3.5 0 5.3-1 6.4-1.2-.2-1.1-.3-2.3-.4-3.6-1.9.2-3 1.1-6 1.1-3.5 0-4.6-1.2-6.7-1.2-5.6.1-10.1 4.6-10.1 10.2v1.9c0 2 1.6 3.6 3.6 3.6h26.3c-1.1-1-2.2-2.2-3.2-3.6zm-9.9-13.2c6 0 10.8-4.8 10.8-10.8s-4.8-10.8-10.8-10.8-10.8 4.8-10.8 10.8 4.8 10.8 10.8 10.8zm0-18c4 0 7.2 3.2 7.2 7.2s-3.2 7.2-7.2 7.2-7.2-3.2-7.2-7.2 3.2-7.2 7.2-7.2z"/></svg>