<svg enable-background="new 0 0 48 48" viewBox="0 0 48 48" xmlns="http://www.w3.org/2000/svg"><path d="m4.2 9.4.6.2v3.5c-.7.4-1.1 1.1-1.1 1.9s.4 1.4 1 1.8l-1.5 5.8c0 .7.3 1.4.8 1.4h4c.5 0 .9-.7.7-1.3l-1.5-5.8c.6-.4 1-1.1 1-1.8 0-.8-.5-1.5-1.1-1.9v-2.9l4.4 1.3c-.6 1.5-1 3.2-1 5 0 7.4 6 13.4 13.5 13.4s13.5-6 13.5-13.5c0-1.8-.4-3.4-1-5l7.3-2.2c1.7-.5 1.7-3.3 0-3.8l-18.2-5.3c-.5-.1-1.1-.2-1.6-.2s-1.1.1-1.6.2l-18.2 5.4c-1.6.5-1.6 3.3 0 3.8zm19.8 16.1c-5 0-9-4-9-9 0-1.3.3-2.6.8-3.7l6.6 2c1.4.4 2.5.2 3.2 0l6.6-2c.5 1.1.8 2.4.8 3.7 0 5-4 9-9 9zm-.3-21c.1 0 .3-.1.6 0l10 3-10 3c-.2.1-.4.1-.6 0l-10-3zm9.2 25.6-8.9 7.4-8.9-7.4c-6.7.2-12.1 5.7-12.1 12.5v.9c0 2.5 2 4.5 4.5 4.5h33c2.5 0 4.5-2 4.5-4.5v-.9c0-6.8-5.4-12.3-12.1-12.5zm-11.1 13.4h-14.3v-.9c0-3.8 2.6-7 6.2-7.8l8.1 6.7zm18.7 0h-14.2v-2l8.1-6.7c3.6.9 6.2 4 6.2 7.8v.9z"/></svg>