<svg enable-background="new 0 0 48 48" viewBox="0 0 48 48" xmlns="http://www.w3.org/2000/svg"><path d="m25.5 39.6h-21.9v-1.9c0-3.6 2.9-6.5 6.5-6.5 1.1 0 2.9 1.2 6.7 1.2 3.2 0 5.3-.9 6-1.1 0-.6 0-1.9.5-3.7-2.1.1-3.1 1.2-6.5 1.2-3.5 0-4.6-1.2-6.7-1.2-5.6 0-10.1 4.5-10.1 10.1v1.9c0 2 1.6 3.6 3.6 3.6h25.7c-1.5-1-2.8-2.2-3.8-3.6zm-8.7-13.2c6 0 10.8-4.8 10.8-10.8s-4.9-10.8-10.8-10.8-10.8 4.8-10.8 10.8 4.8 10.8 10.8 10.8zm0-18c4 0 7.2 3.2 7.2 7.2s-3.2 7.2-7.2 7.2-7.2-3.2-7.2-7.2 3.2-7.2 7.2-7.2zm29 24.4c.2-1.1.2-2.1 0-3.2l1.9-1.1c.2-.1.3-.4.2-.6-.5-1.6-1.4-3.1-2.5-4.3-.2-.2-.5-.2-.7-.1l-1.9 1.1c-.8-.7-1.8-1.2-2.8-1.6v-2.2c0-.3-.2-.5-.4-.5-1.7-.4-3.4-.4-5 0-.2.1-.4.3-.4.5v2.2c-1 .4-2 .9-2.8 1.6l-1.9-1.1c-.2-.1-.5-.1-.7.1-1.1 1.2-2 2.7-2.5 4.3-.1.2 0 .5.2.6l1.9 1.1c-.2 1.1-.2 2.1 0 3.2l-1.9 1.1c-.2.1-.3.4-.2.6.5 1.6 1.4 3.1 2.5 4.3.2.2.5.2.7.1l1.9-1.1c.8.7 1.8 1.2 2.8 1.6v2.2c0 .3.2.5.4.5 1.7.4 3.4.4 5 0 .2-.1.4-.3.4-.5v-2.2c1-.4 2-.9 2.8-1.6l1.9 1.1c.2.1.5.1.7-.1 1.1-1.2 2-2.7 2.5-4.3.1-.2 0-.5-.2-.6zm-8.6 2c-2 0-3.6-1.6-3.6-3.6s1.6-3.6 3.6-3.6 3.6 1.6 3.6 3.6-1.6 3.6-3.6 3.6z"/></svg>