<svg enable-background="new 0 0 48 48" viewBox="0 0 48 48" xmlns="http://www.w3.org/2000/svg"><path d="m36 31.5c-3.8 0-4.5-.1-6.8.6-1.6.6-3.4.9-5.2.9s-3.6-.3-5.2-.9c-2.3-.8-3-.6-6.8-.6-6.6 0-12 5.4-12 12v1.5c0 1.7 1.3 3 3 3h42c1.7 0 3-1.3 3-3v-1.5c0-6.6-5.4-12-12-12zm7.5 12h-39c0-2 .8-3.9 2.2-5.3s3.3-2.2 5.3-2.2c3.9 0 3.8-.1 5.3.4 2.2.7 4.4 1.1 6.7 1.1s4.5-.4 6.7-1.1c1.5-.5 1.5-.4 5.3-.4 4.1 0 7.5 3.4 7.5 7.5zm-19.5-13.5c8.3 0 15-6.7 15-15s-6.7-15-15-15-15 6.7-15 15 6.7 15 15 15zm0-25.5c5.8 0 10.5 4.7 10.5 10.5s-4.7 10.5-10.5 10.5-10.5-4.7-10.5-10.5 4.7-10.5 10.5-10.5z"/></svg>