<svg enable-background="new 0 0 48 48" viewBox="0 0 48 48" xmlns="http://www.w3.org/2000/svg"><path d="m32.9 30-8.9 8.9-8.9-8.9c-6.7.3-12.1 5.8-12.1 12.5 0 3 2.4 5.5 5.5 5.5h31.1c3 0 5.5-2.4 5.5-5.5-.1-6.7-5.5-12.2-12.2-12.5zm-24.4 13.5c-.5 0-1-.4-1-1 0-3.6 2.4-6.8 6-7.8l8.7 8.7h-13.7zm31 0h-13.7l8.7-8.7c3.5.9 6 4.1 6 7.8 0 .5-.4.9-1 .9zm-31.1-16.5h7.7c2.1 1.8 4.8 3 7.9 3s5.8-1.2 7.9-3h7.7c.8 0 1.5-.7 1.5-1.5 0-.2-.1-.5-.2-.7-1.4-2.8-2.9-5.8-4-9-.7-2.2-1-4.5-1-6.8v-3.5c0-.6-.4-1.2-1-1.4l-10.9-4.1-11 4.1c-.6.2-1 .8-1 1.4v3.6c0 2.3-.3 4.6-1 6.8-1 3.1-2.5 6.2-4 9-.4.7-.1 1.6.7 2 .3 0 .5.1.7.1zm8.1-19.7 7.5-2.8 7.5 2.8v5.4h-6.2v-1.2h2c.3 0 .5-.2.5-.5v-1.5c0-.3-.2-.5-.5-.5h-2v-2c0-.3-.2-.5-.5-.5h-1.6c-.3 0-.5.2-.5.5v2h-2c-.3 0-.5.2-.5.5v1.5c0 .3.2.5.5.5h2v1.2h-6.3v-5.4zm0 9.2h15v1.5c0 4.1-3.4 7.5-7.5 7.5s-7.5-3.4-7.5-7.5z"/></svg>