<svg enable-background="new 0 0 48 48" viewBox="0 0 48 48" xmlns="http://www.w3.org/2000/svg"><path d="m24 28.8c0-.8.2-1.6.6-2.3-.4 0-.7-.1-1.1-.1h-1.3c-1.7.8-3.5 1.2-5.5 1.2s-3.8-.4-5.5-1.2h-1.3c-5.4 0-9.9 4.5-9.9 10.1v3.1c0 2 1.6 3.6 3.6 3.6h21.1c-.4-.7-.7-1.5-.7-2.4zm-7.2-4.8c5.3 0 9.6-4.3 9.6-9.6s-4.3-9.6-9.6-9.6-9.6 4.3-9.6 9.6 4.3 9.6 9.6 9.6zm28.8 2.4h-2.4v-3.6c0-3.3-2.7-6-6-6s-6 2.7-6 6v3.6h-2.4c-1.3 0-2.4 1.1-2.4 2.4v12c0 1.3 1.1 2.4 2.4 2.4h16.8c1.3 0 2.4-1.1 2.4-2.4v-12c0-1.3-1.1-2.4-2.4-2.4zm-6 0h-4.8v-3.6c0-1.3 1.1-2.4 2.4-2.4s2.4 1.1 2.4 2.4z"/></svg>