<svg enable-background="new 0 0 48 48" viewBox="0 0 48 48" xmlns="http://www.w3.org/2000/svg"><path d="m16.8 24c5.3 0 9.6-4.3 9.6-9.6s-4.3-9.6-9.6-9.6-9.6 4.3-9.6 9.6 4.3 9.6 9.6 9.6zm6.7 2.4h-1.3c-1.7.8-3.5 1.2-5.5 1.2s-3.8-.4-5.5-1.2h-1.3c-5.4 0-9.9 4.5-9.9 10.1v3.1c0 2 1.6 3.6 3.6 3.6h20.6c-.2-.5-.2-1-.2-1.6l.5-4.6.1-.8.6-.6 5.8-5.8c-1.8-2.1-4.5-3.4-7.5-3.4zm3.4 10.9-.5 4.6c-.1.8.6 1.4 1.3 1.3l4.6-.5 10.3-10.3-5.4-5.4zm20.6-12.3-2.8-2.8c-.7-.7-1.8-.7-2.5 0l-2.9 2.8-.3.3 5.4 5.4 3.1-3.1c.7-.8.7-1.9 0-2.6z"/></svg>