<svg enable-background="new 0 0 48 48" viewBox="0 0 48 48" xmlns="http://www.w3.org/2000/svg"><path d="m26.9 37.3-.5 4.6c-.1.8.6 1.4 1.3 1.3l4.6-.5 10.3-10.3-5.3-5.4zm20.6-12.3-2.8-2.8c-.7-.7-1.8-.7-2.5 0l-3.2 3.1 5.4 5.4 3.1-3.1c.7-.8.7-1.9 0-2.6zm-30.7 1.4c6 0 10.8-4.8 10.8-10.8 0-5.9-4.9-10.8-10.8-10.8-6 0-10.8 4.8-10.8 10.8 0 5.9 4.9 10.8 10.8 10.8zm-.3-18c4.2-.2 7.7 3.3 7.5 7.5-.2 3.7-3.2 6.7-6.9 6.9-4.2.2-7.7-3.3-7.5-7.5.2-3.7 3.2-6.7 6.9-6.9zm-6.4 22.8c1.1 0 2.9 1.2 6.7 1.2 3.9 0 5.6-1.2 6.7-1.2 1.3 0 2.4.4 3.4 1l2.6-2.6c-1.7-1.3-3.7-2-6-2-2.2 0-3.2 1.2-6.7 1.2s-4.6-1.2-6.7-1.2c-5.6 0-10.1 4.5-10.1 10.1v1.9c0 2 1.6 3.6 3.6 3.6h19.4c-.3-1.1-.2-1.5.1-3.6h-19.5v-1.9c0-3.6 2.9-6.5 6.5-6.5z"/></svg>