<svg enable-background="new 0 0 48 48" viewBox="0 0 48 48" xmlns="http://www.w3.org/2000/svg"><path d="m7.2 21.6c2.6 0 4.8-2.2 4.8-4.8s-2.2-4.8-4.8-4.8-4.8 2.2-4.8 4.8 2.2 4.8 4.8 4.8zm33.6 0c2.6 0 4.8-2.2 4.8-4.8s-2.2-4.8-4.8-4.8-4.8 2.2-4.8 4.8 2.2 4.8 4.8 4.8zm2.4 2.4h-4.8c-1.3 0-2.5.5-3.4 1.4 3 1.7 5.2 4.6 5.6 8.2h4.9c1.3 0 2.4-1.1 2.4-2.4v-2.4c.1-2.6-2.1-4.8-4.7-4.8zm-19.2 0c4.6 0 8.4-3.8 8.4-8.4s-3.8-8.4-8.4-8.4-8.4 3.8-8.4 8.4 3.8 8.4 8.4 8.4zm5.8 2.4h-.6c-1.6.8-3.3 1.2-5.1 1.2s-3.6-.5-5.1-1.2h-.6c-4.8 0-8.6 3.9-8.6 8.6v2.2c0 2 1.6 3.6 3.6 3.6h21.6c2 0 3.6-1.6 3.6-3.6v-2.2c-.2-4.7-4.1-8.6-8.8-8.6zm-16.8-1c-.9-.9-2.1-1.4-3.4-1.4h-4.8c-2.6 0-4.8 2.2-4.8 4.8v2.4c0 1.3 1.1 2.4 2.4 2.4h4.9c.5-3.6 2.7-6.5 5.7-8.2z"/></svg>