<svg enable-background="new 0 0 48 48" viewBox="0 0 48 48" xmlns="http://www.w3.org/2000/svg"><path d="m24 25.5c-3.6 0-6.6-2.5-7.3-6h-4.5c.7 5.9 5.7 10.5 11.8 10.5s11.1-4.6 11.8-10.5h-4.5c-.7 3.5-3.7 6-7.3 6zm8.4 7.5c-2.7 0-4 1.5-8.4 1.5s-5.7-1.5-8.4-1.5c-7 0-12.6 5.6-12.6 12.6 0 1.3 1.1 2.4 2.4 2.4h37.2c1.3 0 2.4-1.1 2.4-2.4 0-7-5.6-12.6-12.6-12.6zm-24.6 10.5c1-3.5 4.2-6 7.8-6 1.4 0 3.6 1.5 8.4 1.5s7-1.5 8.4-1.5c3.7 0 6.9 2.5 7.8 6zm3.4-27h25.5c.4 0 .8-.3.8-.8v-3c0-.4-.3-.8-.8-.8h-.7c0-4.4-2.7-8-6.4-9.6l-2.6 5.2v-6c0-.8-.7-1.5-1.5-1.5h-3c-.8 0-1.5.7-1.5 1.5v6l-2.6-5.1c-3.7 1.6-6.4 5.2-6.4 9.6h-.8c-.4 0-.8.3-.8.8v3c.1.4.4.7.8.7z"/></svg>