<svg enable-background="new 0 0 48 48" viewBox="0 0 48 48" xmlns="http://www.w3.org/2000/svg"><path d="m14.4 24c4.6 0 8.4-3.8 8.4-8.4s-3.8-8.4-8.4-8.4-8.4 3.8-8.4 8.4 3.8 8.4 8.4 8.4zm5.8 2.4h-.6c-1.6.8-3.3 1.2-5.1 1.2s-3.6-.5-5.1-1.2h-.8c-4.7 0-8.6 3.9-8.6 8.6v2.2c0 2 1.6 3.6 3.6 3.6h21.6c2 0 3.6-1.6 3.6-3.6v-2.2c0-4.7-3.9-8.6-8.6-8.6zm15.8-2.4c4 0 7.2-3.2 7.2-7.2s-3.2-7.2-7.2-7.2-7.2 3.2-7.2 7.2 3.2 7.2 7.2 7.2zm3.6 2.4h-.3c-1 .4-2.1.6-3.3.6s-2.3-.2-3.3-.6h-.3c-1.5 0-2.9.4-4.2 1.2 1.8 2 3 4.6 3 7.5v2.9.5h13.2c2 0 3.6-1.6 3.6-3.6 0-4.7-3.8-8.5-8.4-8.5z"/></svg>