<svg enable-background="new 0 0 48 48" viewBox="0 0 48 48" xmlns="http://www.w3.org/2000/svg"><path d="m6 19.5c2 0 3.8-.6 5.3-1.7 1.7 5.3 6.7 9.2 12.7 9.2 7.5 0 13.5-6 13.5-13.5s-6-13.5-13.5-13.5c-5.1 0-9.5 2.9-11.8 7.1-1.6-1.6-3.8-2.6-6.2-2.6 0 3.1 1.6 5.9 4 7.5-2.4 1.6-4 4.4-4 7.5zm18-15c3.3 0 6.2 1.8 7.7 4.5h-15.4c1.5-2.7 4.4-4.5 7.7-4.5zm9 9c0 5-4 9-9 9s-9-4-9-9zm.5 13.6-9.5 7.4-9.5-7.4c-6.4.6-11.5 5.9-11.5 12.5v3.9c0 2.5 2 4.5 4.5 4.5h33c2.5 0 4.5-2 4.5-4.5v-3.9c0-6.6-5.1-11.9-11.5-12.5zm-11.7 16.4h-14.3v-3.9c0-3.6 2.4-6.7 5.8-7.7l8.4 6.6v5zm18.7 0h-14.2v-5.1l8.4-6.6c3.4 1 5.8 4.1 5.8 7.7z"/></svg>