<svg enable-background="new 0 0 48 48" viewBox="0 0 48 48" xmlns="http://www.w3.org/2000/svg"><path d="m45.6 26.4h-2.4v-3.6c0-3.3-2.7-6-6-6s-6 2.7-6 6v3.6h-2.4c-1.3 0-2.4 1.1-2.4 2.4v12c0 1.3 1.1 2.4 2.4 2.4h16.8c1.3 0 2.4-1.1 2.4-2.4v-12c0-1.3-1.1-2.4-2.4-2.4zm-10.8-3.6c0-1.3 1.1-2.4 2.4-2.4s2.4 1.1 2.4 2.4v3.6h-4.8zm9.6 16.8h-14.4v-9.6h14.4zm-21.6 0h-19.2v-1.9c0-3.6 2.9-6.5 6.5-6.5 1.1 0 2.9 1.2 6.7 1.2 3.2 0 5.2-.9 6-1.1v-2.5c0-.4 0-.8.1-1.1-2 .2-3 1.1-6.1 1.1-3.5 0-4.6-1.2-6.7-1.2-5.6 0-10.1 4.5-10.1 10.1v1.9c0 2 1.6 3.6 3.6 3.6h19.7c-.6-1.4-.5-2.3-.5-3.6zm-6-34.8c-6 0-10.8 4.8-10.8 10.8s4.8 10.8 10.8 10.8 10.8-4.8 10.8-10.8-4.8-10.8-10.8-10.8zm0 18c-4 0-7.2-3.2-7.2-7.2s3.2-7.2 7.2-7.2 7.2 3.2 7.2 7.2-3.2 7.2-7.2 7.2z"/></svg>