<svg enable-background="new 0 0 48 48" viewBox="0 0 48 48" xmlns="http://www.w3.org/2000/svg"><path d="m11.2 16.5h25.5c.4 0 .8-.3.8-.8v-3c0-.4-.3-.8-.8-.8h-.7c0-4.2-2.5-8-6.4-9.7l-2.6 5.3v-6c0-.8-.7-1.5-1.5-1.5h-3c-.8 0-1.5.7-1.5 1.5v6l-2.6-5.2c-3.9 1.7-6.4 5.5-6.4 9.7h-.8c-.4 0-.8.3-.8.8v3c.1.4.4.7.8.7zm21.2 16.5h-1.6c-4.3 2-9.3 2-13.7 0h-1.6c-6.9 0-12.5 5.6-12.5 12.6 0 1.3 1.1 2.4 2.4 2.4h37.2c1.3 0 2.4-1.1 2.4-2.4 0-7-5.6-12.6-12.6-12.6zm-8.4-3c6.1 0 11.1-4.6 11.8-10.5h-23.6c.7 5.9 5.7 10.5 11.8 10.5z"/></svg>