<svg enable-background="new 0 0 48 48" viewBox="0 0 48 48" xmlns="http://www.w3.org/2000/svg"><path d="m45.8 32.8c.2-1.1.2-2.1 0-3.2l1.9-1.1c.2-.1.3-.4.2-.6-.5-1.6-1.4-3.1-2.5-4.3-.2-.2-.5-.2-.7-.1l-1.9 1.1c-.8-.7-1.8-1.2-2.8-1.6v-2.2c0-.3-.2-.5-.4-.5-1.7-.4-3.4-.4-5 0-.2.1-.4.3-.4.5v2.2c-1 .4-2 .9-2.8 1.6l-1.9-1.1c-.2-.1-.5-.1-.7.1-1.1 1.2-2 2.7-2.5 4.3-.1.2 0 .5.2.6l1.9 1.1c-.2 1.1-.2 2.1 0 3.2l-1.9 1.1c-.2.1-.3.4-.2.6.5 1.6 1.4 3.1 2.5 4.3.2.2.5.2.7.1l1.9-1.1c.8.7 1.8 1.2 2.8 1.6v2.2c0 .3.2.5.4.5 1.7.4 3.4.4 5 0 .2-.1.4-.3.4-.5v-2.2c1-.4 2-.9 2.8-1.6l1.9 1.1c.2.1.5.1.7-.1 1.1-1.2 2-2.7 2.5-4.3.1-.2 0-.5-.2-.6zm-8.6 2c-2 0-3.6-1.6-3.6-3.6s1.6-3.6 3.6-3.6 3.6 1.6 3.6 3.6-1.6 3.6-3.6 3.6zm-20.4-10.8c5.3 0 9.6-4.3 9.6-9.6s-4.3-9.6-9.6-9.6-9.6 4.3-9.6 9.6 4.3 9.6 9.6 9.6zm15.1 17c-.2-.1-.3-.2-.5-.3l-.6.3c-.5.3-1 .4-1.5.4-.8 0-1.6-.3-2.2-.9-1.4-1.5-2.4-3.3-3-5.2-.4-1.3.1-2.7 1.3-3.4l.6-.3c0-.2 0-.4 0-.6l-.6-.3c-1.2-.7-1.8-2.1-1.3-3.4.1-.2.2-.4.2-.7-.3 0-.6-.1-.9-.1h-1.3c-1.7.8-3.5 1.2-5.5 1.2s-3.8-.4-5.5-1.2h-1.1c-5.5-.1-10 4.4-10 10v3.1c0 2 1.6 3.6 3.6 3.6h26.4c.8 0 1.5-.2 2-.6-.1-.3-.2-.6-.2-.9v-.7z"/></svg>