<svg enable-background="new 0 0 48 48" viewBox="0 0 48 48" xmlns="http://www.w3.org/2000/svg"><path d="m46.7 25.1-8.7-3.3c-.3-.1-.9-.3-1.7 0l-8.6 3.4c-.8.3-1.3 1.1-1.3 1.9 0 8.4 5.2 14.2 10 16 .7.3 1.3.1 1.7 0 3.8-1.5 10-6.7 10-16-.1-.9-.6-1.7-1.4-2zm-9.5 14.4v-14.2l7.2 2.8c-.5 6.5-4.6 10.1-7.2 11.4zm-20.4-15.5c5.3 0 9.6-4.3 9.6-9.6s-4.3-9.6-9.6-9.6-9.6 4.3-9.6 9.6 4.3 9.6 9.6 9.6zm7.2 3c0-.2.1-.4.1-.5-.2 0-.4-.1-.6-.1h-1.3c-1.7.8-3.5 1.2-5.5 1.2s-3.8-.4-5.5-1.2h-1.3c-5.4 0-9.9 4.5-9.9 10.1v3.1c0 2 1.6 3.6 3.6 3.6h26.4c.5 0 1-.1 1.4-.3-4-3.2-7.4-8.8-7.4-15.9z"/></svg>