<svg enable-background="new 0 0 48 48" viewBox="0 0 48 48" xmlns="http://www.w3.org/2000/svg"><path d="m24 9.7c3.2 0 5.9 2.7 5.9 5.9s-2.7 5.9-5.9 5.9-5.9-2.7-5.9-5.9 2.7-5.9 5.9-5.9m16.8 4.8c1.2 0 2.3 1.1 2.3 2.3s-1.1 2.3-2.3 2.3-2.3-1.1-2.3-2.3 1.1-2.3 2.3-2.3m-33.6 0c1.2 0 2.3 1.1 2.3 2.3s-1.1 2.3-2.3 2.3-2.3-1.1-2.3-2.3 1.1-2.3 2.3-2.3m36 12c.6 0 1.2.3 1.6.7.2.2.6.8.6 1.5v2.3h-2.8c-.5-1.7-1.3-3.2-2.5-4.6h3.1m-35.4.1c-1.1 1.4-2 2.9-2.5 4.6h-2.8v-2.3c0-1.2 1.1-2.3 2.3-2.3zm22 2.4c3.3 0 6.1 2.8 6.3 6.2v2.1c0 .6-.5 1.1-1.1 1.1h-21.6c-.6 0-1.1-.5-1.1-1.1v-2.2c0-3.4 2.7-6.1 6.1-6.1h.1c1.4.6 3.4 1.2 5.6 1.2 2 0 3.9-.4 5.7-1.2zm-5.8-21.7c-4.6 0-8.4 3.8-8.4 8.4s3.8 8.4 8.4 8.4 8.4-3.8 8.4-8.4-3.8-8.4-8.4-8.4zm16.8 4.8c-2.6 0-4.8 2.2-4.8 4.8s2.2 4.8 4.8 4.8 4.8-2.2 4.8-4.8-2.2-4.8-4.8-4.8zm-33.6 0c-2.6 0-4.8 2.2-4.8 4.8s2.2 4.8 4.8 4.8 4.8-2.2 4.8-4.8-2.2-4.8-4.8-4.8zm36 12h-4.8c-1.3 0-2.5.5-3.4 1.4 3 1.7 5.2 4.6 5.6 8.2h4.9c1.3 0 2.4-1.1 2.4-2.4v-2.4c.1-2.6-2.1-4.8-4.7-4.8zm-33.6 0h-4.8c-2.6 0-4.8 2.2-4.8 4.8v2.4c0 1.3 1.1 2.4 2.4 2.4h4.9c.5-3.6 2.7-6.5 5.7-8.2-.9-.9-2.1-1.4-3.4-1.4zm20.2 2.4h-.6c-1.6.8-3.3 1.2-5.1 1.2s-3.6-.5-5.1-1.2h-.6c-4.8 0-8.6 3.9-8.6 8.6v2.2c0 2 1.6 3.6 3.6 3.6h21.6c2 0 3.6-1.6 3.6-3.6v-2.2c-.2-4.7-4.1-8.6-8.8-8.6z"/></svg>