<svg enable-background="new 0 0 48 48" viewBox="0 0 48 48" xmlns="http://www.w3.org/2000/svg"><path d="m24 9.3c-5.1 0-9.3 4.2-9.3 9.3s4.2 9.3 9.3 9.3 9.3-4.2 9.3-9.3-4.2-9.3-9.3-9.3zm0 13.9c-2.6 0-4.6-2.1-4.6-4.6s2.1-4.6 4.6-4.6 4.6 2.1 4.6 4.6-2 4.6-4.6 4.6zm0-23.2c-13.3 0-24 10.7-24 24s10.7 24 24 24 24-10.7 24-24-10.7-24-24-24zm0 43.4c-4.8 0-9.2-1.8-12.6-4.7 1.4-2.2 3.9-3.7 6.7-3.8 2 .6 3.9.9 5.9.9s3.8-.3 5.9-.9c2.8.1 5.3 1.6 6.7 3.8-3.4 2.9-7.8 4.7-12.6 4.7zm15.7-8.2c-2.4-3-6-5-10.2-5-1 0-2.5.9-5.6.9-3 0-4.6-.9-5.6-.9-4.2 0-7.8 2-10.2 5-2.1-3.1-3.5-7-3.5-11.2 0-10.7 8.7-19.4 19.4-19.4s19.4 8.7 19.4 19.4c0 4.2-1.4 8.1-3.7 11.2z"/></svg>