<svg enable-background="new 0 0 48 48" viewBox="0 0 48 48" xmlns="http://www.w3.org/2000/svg"><path d="m8.4 27h7.7c2.1 1.8 4.8 3 7.9 3s5.8-1.2 7.9-3h7.7c.8 0 1.5-.7 1.5-1.5 0-.2-.1-.5-.2-.7-1.4-2.8-2.9-5.8-4-9-.7-2.2-1-4.5-1-6.8v-4.5l-11.9-4.5-12 4.5v4.6c0 2.3-.3 4.6-1 6.8-1 3.1-2.5 6.2-4 9-.4.7-.1 1.6.7 2 .3 0 .5.1.7.1zm11.9-20.3c0-.3.2-.5.5-.5h2v-2c0-.3.2-.5.5-.5h1.6c.3 0 .5.2.5.5v2h2c.3 0 .5.2.5.5v1.6c0 .3-.2.5-.5.5h-2v2c0 .3-.2.5-.5.5h-1.6c-.3 0-.5-.2-.5-.5v-2h-2c-.3 0-.5-.2-.5-.5zm-3.8 8.3h15v3c0 4.1-3.4 7.5-7.5 7.5s-7.5-3.4-7.5-7.5zm16.4 15-8.9 8.9-8.9-8.9c-6.7.3-12.1 5.8-12.1 12.5 0 3 2.4 5.5 5.5 5.5h31.1c3 0 5.5-2.4 5.5-5.5-.1-6.7-5.5-12.2-12.2-12.5z"/></svg>