<svg enable-background="new 0 0 48 48" viewBox="0 0 48 48" xmlns="http://www.w3.org/2000/svg"><path d="m36 24c4 0 7.2-3.2 7.2-7.2s-3.2-7.2-7.2-7.2-7.2 3.2-7.2 7.2 3.2 7.2 7.2 7.2zm0-10.8c2 0 3.6 1.6 3.6 3.6s-1.6 3.6-3.6 3.6-3.6-1.6-3.6-3.6 1.6-3.6 3.6-3.6zm-15.6 12.3c-.9 0-1.8.1-2.7.4-1.1.3-2.2.5-3.4.5s-2.3-.2-3.4-.5c-.9-.3-1.8-.4-2.7-.4-2.7 0-5.4 1.2-6.9 3.5-.9 1.4-1.5 3-1.5 4.8v3.4c0 2 1.6 3.6 3.6 3.6h21.6c2 0 3.6-1.6 3.6-3.6v-3.4c0-1.8-.5-3.4-1.5-4.8-1.3-2.3-4-3.5-6.7-3.5zm4.8 11.7h-21.6v-3.4c0-2.2 1.4-4 3.3-4.7.8-.3 1.6-.3 2.4 0 1.7.6 3.4.9 5.1.9s3.4-.3 5.1-.9c.8-.3 1.6-.3 2.4 0 1.9.7 3.3 2.6 3.3 4.7zm-10.8-13.2c4.6 0 8.4-3.8 8.4-8.4s-3.8-8.4-8.4-8.4-8.4 3.8-8.4 8.4 3.8 8.4 8.4 8.4zm0-13.2c2.6 0 4.8 2.2 4.8 4.8s-2.2 4.8-4.8 4.8-4.8-2.2-4.8-4.8 2.2-4.8 4.8-4.8zm32.4 17.8c-1.3-1.9-3.5-2.9-5.8-2.9-2.1 0-2.6.8-5 .8s-2.9-.8-5-.8c-1 0-2 .2-2.9.6.4.4.8.9 1.2 1.4s.6 1.1.9 1.7c.2-.1.5-.1.8-.1 1.3 0 2.2.8 5 .8s3.7-.8 5-.8c1.2 0 2.2.5 2.8 1.3.4.6.6 1.3.6 2v2.2h-13.2v2.4c0 .4 0 .8-.1 1.2h13.9c1.7 0 3-1.3 3-3v-2.8c0-1.5-.5-2.9-1.2-4z"/></svg>