<svg enable-background="new 0 0 48 48" viewBox="0 0 48 48" xmlns="http://www.w3.org/2000/svg"><path d="m32.9 30-8.9 9-8.9-9c-6.7.3-12.1 5.8-12.1 12.6v.9c0 2.5 2 4.5 4.5 4.5h33c2.5 0 4.5-2 4.5-4.5v-.9c0-6.8-5.4-12.3-12.1-12.6zm-28.6-22.5.6.1v5.5c-.7.4-1.1 1.1-1.1 1.9s.4 1.4 1 1.8l-1.5 5.8c-.1.7.2 1.4.7 1.4h4c.5 0 .9-.7.7-1.3l-1.5-5.8c.6-.4 1-1.1 1-1.8 0-.8-.5-1.5-1.1-1.9v-5l6.2 1.5c-.8 1.6-1.3 3.4-1.3 5.3 0 6.6 5.4 12 12 12s12-5.4 12-12c0-1.9-.5-3.7-1.3-5.3l9-2.2c1.7-.4 1.7-2.5 0-3l-17.8-4.3c-1.2-.3-2.5-.3-3.7 0l-17.9 4.3c-1.7.4-1.7 2.6 0 3z"/></svg>