<svg enable-background="new 0 0 48 48" viewBox="0 0 48 48" xmlns="http://www.w3.org/2000/svg"><path d="m0 0h48v48h-48z" fill="none"/><path d="m24 4.3 4.8 4.9.8.8h1.2 7v6.8 1.2l.8.8 4.9 4.9-4.8 4.8-.8.8v1.2 7h-7-1.2l-.8.8-4.9 5.5-4.8-4.8-.8-.8h-1.2-7v-7-1.2l-.8-.8-5-5.2 4.9-4.8.8-.8v-1.2-7h6.8 1.2l.9-.8zm-10.9 29.1h3.6 3.3 1.8l.6-1.7.6-1.8h2.1l.6 1.8.6 1.7h1.8 3.4 3.6l-1.2-3.3-5.7-15.8-.6-1.7h-1.8-3.5-1.8l-.6 1.7-5.7 15.8zm10.9-33.4-7.1 7.1h-9.8v10l-7.1 6.9 7.1 7.1v10h10l7 7 7.1-7.1h10v-10l7-7-7.1-7.1v-9.8h-10.1zm-7.4 30.9 5.7-15.8h3.5l5.7 15.8c-.1 0-3.4 0-3.4 0l-1.2-3.5h-5.7l-1.2 3.5zm7.4-12.4-2 6.5h4z"/></svg>