<svg enable-background="new 0 0 48 48" viewBox="0 0 48 48" xmlns="http://www.w3.org/2000/svg"><path d="m0 0h48v48h-48z" fill="none"/><path d="m24 4.3 4.8 4.9.8.8h1.2 7v6.8 1.2l.8.8 4.9 4.9-4.9 4.9-.8.8v1.2 4.9 1.9h-6.8-1.2l-.8.8-5 5.6-4.8-4.8-.8-.8h-1.2-7v-7-1.2l-.8-.8-5-5.2 4.9-4.8.8-.8v-1.2-7h6.8 1.2l.9-.8zm-1.4 32.3h3c7 0 12.6-5.6 12.6-12.6s-5.6-12.6-12.6-12.6h-3v3 19.2zm1.4-36.6-7.1 7.1h-9.8v10l-7.1 6.9 7.1 7.1v10h10l7 7 7.1-7.1h10c-.1 0-.1-9.8-.1-9.8l6.9-7.2-7.1-7.1v-9.8h-9.9zm1.6 33.6v-19.2c5.4 0 9.6 4.2 9.6 9.6s-4.2 9.6-9.6 9.6z"/><path d="m24 36.8c-6.5-.7-11.4-6.1-11.4-12.8s4.9-12.1 11.4-12.8z"/><path d="m22.6 13v22c-4.9-1.3-8.4-5.6-8.4-11s3.4-9.7 8.4-11m3-3.4c-8 0-14.4 6.4-14.4 14.4s6.4 14.4 14.4 14.4z"/></svg>