<svg enable-background="new 0 0 48 48" viewBox="0 0 48 48" xmlns="http://www.w3.org/2000/svg"><path d="m0 0h48v48h-48z" fill="none"/><path d="m24 4.3 4.8 4.9.8.8h1.2 7v6.8 1.2l.8.8 4.9 4.9-4.9 4.9-.8.8v1.2 4.9 1.9h-6.8-1.2l-.8.8-5 5.6-4.8-4.8-.8-.8h-1.2-7v-7-1.2l-.8-.8-5-5.2 4.9-4.8.8-.8v-1.2-7h6.8 1.2l.9-.8zm0 31.7c6.6 0 12-5.4 12-12s-5.4-12-12-12-12 5.4-12 12 5.4 12 12 12m0-36-7.1 7.1h-9.8v10l-7.1 6.9 7.1 7.1v10h10l7 7 7.1-7.1h10c-.1 0-.1-9.8-.1-9.8l6.9-7.2-7.1-7.1v-9.8h-9.9zm0 33c-5 0-9-4-9-9s4-9 9-9 9 4 9 9-4 9-9 9z"/></svg>