<svg enable-background="new 0 0 48 48" viewBox="0 0 48 48" xmlns="http://www.w3.org/2000/svg"><path d="m0 0h48v48h-48z" fill="none"/><path d="m24 4.3 4.8 4.9.8.8h1.2 7v6.8 1.2l.8.8 4.9 4.9-4.8 4.8-.8.8v1.2 7h-7-1.2l-.8.8-4.9 5.5-4.8-4.8-.8-.8h-1.2-7v-7-1.2l-.8-.8-5-5.2 4.9-4.8.8-.8v-1.2-7h6.8 1.2l.9-.8zm0-4.3-7.1 7.1h-9.8v10l-7.1 6.9 7.1 7.1v10h10l7 7 7.1-7.1h10v-10l7-7-7.1-7.1v-9.8h-10.1z"/><path d="m24 34c5.5 0 10-4.5 10-10s-4.5-10-10-10-10 4.5-10 10 4.5 10 10 10"/><path d="m24 21.5c1.4 0 2.5 1.2 2.5 2.5s-1.2 2.5-2.5 2.5-2.5-1.2-2.5-2.5 1.1-2.5 2.5-2.5"/><path d="m24 31.5c-4.2 0-7.5-3.3-7.5-7.5s3.3-7.5 7.5-7.5 7.5 3.3 7.5 7.5-3.3 7.5-7.5 7.5z"/><path d="m24 19c-2.8 0-5 2.3-5 5s2.3 5 5 5 5-2.3 5-5-2.2-5-5-5z"/></svg>