<svg enable-background="new 0 0 48 48" viewBox="0 0 48 48" xmlns="http://www.w3.org/2000/svg"><path d="m0 0h48v48h-48z" fill="none"/><path d="m0 0h48v48h-48z" fill="none"/><path d="m0 37.1v6.6h6.6c0-3.6-3-6.6-6.6-6.6zm0-8.8v4.3c6 0 10.9 4.9 10.9 10.9h4.3c0-8.3-6.8-15.2-15.2-15.2zm39.3-15.2h-30.6v3.6c8.7 2.8 15.5 9.6 18.3 18.3h12.3zm-39.3 6.6v4.3c10.8 0 19.7 8.8 19.7 19.7h4.3c0-13.3-10.8-24-24-24zm43.7-15.4h-39.4c-2.4 0-4.3 1.9-4.3 4.3v6.6h4.3v-6.6h39.3v30.7h-15.3v4.3h15.3c2.4 0 4.3-1.9 4.3-4.3v-30.6c.2-2.4-1.8-4.4-4.2-4.4z"/></svg>