<svg enable-background="new 0 0 48 48" viewBox="0 0 48 48" xmlns="http://www.w3.org/2000/svg"><path d="m30.6 6.6c9.6 0 17.4 7.8 17.4 17.4s-7.8 17.4-17.4 17.4-17.5-7.8-17.5-17.4 7.8-17.4 17.5-17.4zm0 4.3c-7.2 0-13.1 5.9-13.1 13.1s5.9 13.1 13.1 13.1 13.1-5.9 13.1-13.1-5.9-13.1-13.1-13.1zm-2.3 4.3h3.2v8.3l5 5-2.3 2.3-6-6c.1 0 .1-9.6.1-9.6zm-26.1 21.9c-1.2 0-2.2-1-2.2-2.2s1-2.2 2.2-2.2h8.4c.7 1.6 1.6 3 2.5 4.3h-10.9zm2.1-10.9c-1.2 0-2.2-1-2.2-2.2s1-2.2 2.2-2.2h4.4v2.2l.1 2.2zm2.3-11c-1.2 0-2.2-1-2.2-2.2s1-2.2 2.2-2.2h6.6c-1 1.3-1.9 2.8-2.5 4.3h-4.1z"/></svg>