<svg enable-background="new 0 0 48 48" viewBox="0 0 48 48" xmlns="http://www.w3.org/2000/svg"><path d="m0 0h48v48h-48z" fill="none"/><path d="m24.4 10c9.1 0 16.4 7.3 16.4 16.4 0 2-.4 3.9-1.1 5.7l3.5 3.5c1.4-2.8 2.1-5.9 2.1-9.2 0-11.7-9.5-21.2-21.2-21.2-3.3 0-6.4.8-9.2 2.1l3.5 3.5c2.1-.4 3.9-.8 6-.8zm23.6-.5-11-9.1-3.1 3.5 10.8 9.1zm-44.9-8.1-3.1 3 3.2 3.1-2.6 2.1 3.3 3.3 2.6-2.1 1.9 1.9c-3.2 3.7-5.2 8.5-5.2 13.8 0 11.7 9.5 21.2 21.2 21.2 5.3 0 10.2-2 13.8-5.2l5.1 5.2 3-3-41-41zm31.9 37.7c-2.8 2.4-6.5 3.8-10.5 3.8-9.1 0-16.5-7.3-16.5-16.4 0-4 1.4-7.7 3.8-10.5-.1.1 23.2 23.1 23.2 23.1zm-20-35.4-3.3-3.3-2 1.6 3.3 3.3s2-1.6 2-1.6z"/></svg>