<svg enable-background="new 0 0 48 48" viewBox="0 0 48 48" xmlns="http://www.w3.org/2000/svg"><path d="m0 0h48v48h-48z" fill="none"/><path d="m4.3 10.9h39.2v-4.3h-39.2c-2.4 0-4.3 1.9-4.3 4.3v26.2c0 2.4 1.9 4.3 4.3 4.3h8.8v-4.3h-8.8zm21.9 13.1h-8.8v3.8c-1.3 1.2-2.2 2.9-2.2 4.8s.8 3.6 2.2 4.8v3.8h8.8v-3.8c1.3-1.2 2.2-2.9 2.2-4.8s-.8-3.6-2.2-4.8zm-4.4 12c-1.8 0-3.2-1.4-3.2-3.2s1.4-3.2 3.2-3.2 3.2 1.4 3.2 3.2c.1 1.8-1.4 3.2-3.2 3.2zm24-20.8h-13c-1.1 0-2.2 1.1-2.2 2.2v21.8c0 1.1 1.1 2.2 2.2 2.2h13.1c1.1 0 2.2-1.1 2.2-2.2v-21.8c-.1-1.1-1.2-2.2-2.3-2.2zm-2.1 21.9h-8.8v-17.4h8.8z"/></svg>