<svg enable-background="new 0 0 48 48" viewBox="0 0 48 48" xmlns="http://www.w3.org/2000/svg"><path d="m37.9 5.9c-.2 0-.4 0-.6-.1-4.5-2.4-8.5-3.4-13.3-3.4s-9.2 1.1-13.3 3.4c-.6.3-1.3.1-1.7-.5s-.1-1.3.5-1.7c4.4-2.4 9.3-3.6 14.5-3.6s9.6 1.1 14.5 3.7c.6.4.8 1.1.5 1.7-.2.2-.6.5-1.1.5zm-34.3 12.6c-.2 0-.5-.1-.7-.2-.5-.4-.7-1.1-.2-1.7 2.4-3.4 5.4-6 9-7.9 7.6-4 17.2-4 24.7 0 3.6 1.8 6.6 4.4 9 7.8.4.6.2 1.3-.2 1.7-.5.4-1.3.2-1.7-.2-2.2-3-4.9-5.4-8.2-7.1-6.8-3.5-15.7-3.5-22.6 0-3.2 1.7-6 4.1-8.2 7.1-.2.4-.5.5-.9.5zm15 29c-.4 0-.6-.1-.8-.4-2-2.2-3.2-3.5-4.8-6.4-1.7-3-2.5-6.6-2.5-10.4 0-7.1 6.1-13 13.6-13s13.6 5.8 13.6 13c0 .6-.6 1.2-1.2 1.2s-1.2-.6-1.2-1.2c0-5.8-5-10.6-11.2-10.6s-11.2 4.7-11.2 10.6c0 3.5.7 6.6 2.3 9.2 1.6 2.8 2.5 4 4.4 5.8.5.5.5 1.2 0 1.7-.4.4-.6.5-1 .5zm17.2-4.4c-2.9 0-5.4-.7-7.4-2.2-3.6-2.4-5.8-6.4-5.8-10.6 0-.6.6-1.2 1.2-1.2s1.2.6 1.2 1.2c0 3.4 1.8 6.6 4.7 8.5 1.7 1.2 3.7 1.7 6.1 1.7.6 0 1.6 0 2.5-.2.6-.1 1.3.4 1.4 1s-.4 1.3-1 1.4c-1.4.4-2.6.4-2.9.4zm-4.8 4.9c-.1 0-.2 0-.4 0-3.8-1.1-6.4-2.4-8.9-5-3.4-3.4-5.2-7.8-5.2-12.5 0-4 3.4-7.1 7.4-7.1s7.4 3.1 7.4 7.1c0 2.5 2.3 4.7 5 4.7 2.8 0 5-2 5-4.7 0-9-7.8-16.4-17.4-16.4-6.8 0-13.1 3.8-15.8 9.7-1 1.9-1.4 4.2-1.4 6.7 0 1.9.1 4.8 1.6 8.6.2.6-.1 1.3-.7 1.6-.6.1-1.4-.1-1.6-.9-1.2-3.1-1.8-6.2-1.8-9.5 0-2.9.6-5.5 1.7-7.8 3.2-6.7 10.3-11 18-11 10.9 0 19.8 8.4 19.8 18.8 0 4-3.4 7.1-7.4 7.1s-7.4-3.1-7.4-7.1c0-2.5-2.3-4.7-5-4.7s-5 2-5 4.7c0 4.1 1.6 7.9 4.4 10.8 2.3 2.3 4.4 3.5 7.9 4.4.6.2 1.1.8.8 1.4-.1.7-.6 1.1-1 1.1z"/><path d="m0 0h48v48h-48z" fill="none"/></svg>