<svg enable-background="new 0 0 48 48" viewBox="0 0 48 48" xmlns="http://www.w3.org/2000/svg"><path d="m0 0h48v48h-48z" fill="none"/><path d="m43.6 21.8c-1-9.1-8.3-16.3-17.3-17.3v-4.5h-4.3v4.4c-2.5.2-4.8 1-6.8 2.2l3.2 3.2c1.8-.7 3.7-1.2 5.8-1.2 8.4 0 15.2 6.8 15.2 15.2 0 2-.4 4-1.2 5.8l3.2 3.2c1.1-2.2 1.8-4.4 2.2-6.8h4.4v-4.3c0 .1-4.4.1-4.4.1zm-39.3-14.6 4.4 4.4c-2.2 2.8-3.8 6.4-4.3 10.2h-4.4v4.3h4.4c1 9.1 8.3 16.3 17.3 17.3v4.6h4.3v-4.4c3.8-.5 7.3-2 10.2-4.3l4.4 4.4 2.8-2.8-36.2-36.6zm29.1 28.9c-2.5 2-5.8 3.2-9.4 3.2-8.4 0-15.2-6.8-15.2-15.2 0-3.5 1.2-6.7 3.2-9.4z"/></svg>