<svg enable-background="new 0 0 48 48" viewBox="0 0 48 48" xmlns="http://www.w3.org/2000/svg"><path d="m38.4 3c1 0 1.8.8 1.8 1.8v38.4c0 1-.8 1.8-1.8 1.8h-28.8c-1 0-1.8-.8-1.8-1.8v-38.4c0-1 .8-1.8 1.8-1.8zm-14.4 22.1c2.6 0 4.8-2.2 4.8-4.8s-2.2-4.8-4.8-4.8-4.8 2.2-4.8 4.8 2.2 4.8 4.8 4.8m14.4-25.1h-28.8c-2.6 0-4.8 2.2-4.8 4.8v38.4c0 2.6 2.2 4.8 4.8 4.8h28.8c2.6 0 4.8-2.2 4.8-4.8v-38.4c0-2.6-2.2-4.8-4.8-4.8zm-14.4 22.1c-1 0-1.8-.8-1.8-1.8s.8-1.8 1.8-1.8 1.8.8 1.8 1.8c0 .9-.8 1.8-1.8 1.8z"/><path d="m12.4 38c-1.4 0-2.4 1.1-2.4 2.4s1.1 2.4 2.4 2.4 2.4-1.1 2.4-2.4-1.1-2.4-2.4-2.4z"/><path d="m25 24.8 4.7 17.4 7.4-3.2-9.6-15.5-2.3 1c-.2 0-.4.2-.2.3z"/><path d="m24 9.6c6 0 10.8 4.8 10.8 10.8s-4.8 10.8-10.8 10.8-10.8-4.8-10.8-10.8 4.8-10.8 10.8-10.8m0-3c-7.6 0-13.8 6.2-13.8 13.8s6.2 13.8 13.8 13.8 13.8-6.2 13.8-13.8-6.2-13.8-13.8-13.8z"/></svg>