<svg enable-background="new 0 0 48 48" viewBox="0 0 48 48" xmlns="http://www.w3.org/2000/svg"><path d="m9.6 0h28.8c2.6 0 4.8 2.2 4.8 4.8v38.4c0 2.6-2.2 4.8-4.8 4.8h-28.8c-2.6 0-4.8-2.2-4.8-4.8v-38.4c0-2.6 2.2-4.8 4.8-4.8zm14.4 4.8c-7.9 0-14.4 6.5-14.4 14.4s6.5 14.4 14.6 14.4l-2.2-5.4c-.7-1.2-.2-2.6.8-3.2l2-1.2c1.2-.7 2.6-.2 3.2.8l4.6 5.8c3.2-2.6 5.4-6.7 5.4-11.3.4-7.8-6.1-14.3-14-14.3zm0 12c1.3 0 2.4 1.1 2.4 2.4s-1.1 2.4-2.4 2.4-2.4-1.1-2.4-2.4 1.1-2.4 2.4-2.4zm-12 21.6c-1.3 0-2.4 1.1-2.4 2.4s1.1 2.4 2.4 2.4 2.4-1.1 2.4-2.4-1.1-2.4-2.4-2.4zm12.2-11.4 6 15.1 6.2-3.6-10-12.7z"/></svg>