<svg enable-background="new 0 0 48 48" viewBox="0 0 48 48" xmlns="http://www.w3.org/2000/svg"><path d="m35.2 10.9c.4 0 .7.2.8.5l4.7 7h-33.4l4.7-7c.1-.2.6-.5.8-.5zm8.7 16.1c.6 0 1.1.5 1.1 1v8c0 .5-.5 1-1 1h-40c-.5 0-1-.5-1-1v-8c0-.5.5-1 1-1zm-8.7-19.1h-22.4c-1.3 0-2.6.7-3.4 1.8l-8 12.1c.8-.4 1.7-.5 2.5-.5h40.1c.8 0 1.8.1 2.5.5l-8-12.1c-.7-1.1-2-1.8-3.3-1.8zm8.7 16.1h-39.9c-2.2 0-4 1.8-4 4v8c0 2.2 1.8 4 4 4h40c2.2 0 4-1.8 4-4v-8c0-2.2-1.8-4-4.1-4z"/><path d="m36.9 29.5c-.7 0-1.2.5-1.2 1.2s.5 1.2 1.2 1.2 1.2-.5 1.2-1.2-.5-1.2-1.2-1.2z"/><path d="m32.3 29.5c-.7 0-1.2.5-1.2 1.2s.5 1.2 1.2 1.2 1.2-.5 1.2-1.2-.6-1.2-1.2-1.2z"/></svg>