<svg enable-background="new 0 0 48 48" viewBox="0 0 48 48" xmlns="http://www.w3.org/2000/svg"><path d="m0 0h48v48h-48z" fill="none"/><path d="m23.8 2.2c11 0 21 10 21 21v17.4c0 2.9-3.4 5.2-6.3 5.2h-5.2v-15.3h5.4 2.2v-2.2-4.9c0-11.2-6.8-18.3-17.2-18.3s-17 7.2-17 18.2v4.9 2.2h2.2 5.4v15.1h-5.4c-2.7.1-6.1-2.2-6.1-5.1v-17.2c.1-10.9 10.1-21 21-21m0-2.2c-12.2 0-23.2 11.1-23.2 23.2v17.2c0 4.1 4.4 7.5 8.5 7.5h7.5v-19.6h-7.6v-4.9c0-9.6 5.5-16.1 15-16.1s15 6.7 15 16.1v4.9h-7.6v19.7h7.5c4.1 0 8.5-3.3 8.5-7.5v-17.3c-.4-12.1-11.3-23.2-23.6-23.2z"/></svg>