<svg enable-background="new 0 0 48 48" viewBox="0 0 48 48" xmlns="http://www.w3.org/2000/svg"><path d="m24 1.9c9.7 0 18.6 8.9 18.6 18.6v15.4c0 2.6-3 4.6-5.6 4.6h-4.6v-13.5h4.8 2v-2-4.4c0-9.9-5.9-16.3-15.3-16.3s-15.2 6.5-15.2 16.4v4.3 2h2 4.8v13.4h-4.6c-2.5.1-5.5-2-5.5-4.5v-15.4c.1-9.7 8.9-18.6 18.6-18.6m0-1.9c-10.8 0-20.6 9.8-20.6 20.5v15.3c0 3.6 3.9 6.6 7.6 6.6h6.6v-17.4h-6.7v-4.4c0-8.4 4.9-14.3 13.3-14.3s13.2 5.9 13.2 14.4v4.4h-6.7v17.4h6.6c3.6 0 7.6-2.9 7.6-6.6v-15.4c-.4-10.8-10.1-20.5-20.9-20.5z"/><path d="m42.6 48v-12.5h2.1v10.4c0 1.2-1 2.1-2.1 2.1z"/><path d="m44.7 45.9c0 1.2-1 2.1-2.1 2.1h-10.4v-2.1z"/></svg>