<svg enable-background="new 0 0 48 48" viewBox="0 0 48 48" xmlns="http://www.w3.org/2000/svg"><path d="m0 0h48v48h-48z" fill="none"/><path d="m30 18h-6l-1.9-6-1.9 6h-6.2l4.9 3.5-1.9 5.7 4.9-3.6 4.9 3.6-1.8-5.7zm0 0h-6l-1.9-6-1.9 6h-6.2l4.9 3.5-1.9 5.7 4.9-3.6 4.9 3.6-1.8-5.7zm16 4h-10c-1.1 0-2 .8-2 2v18c0 1.1 1 2 2 2h10c1.1 0 2-1 2-2v-18c0-1.1-.8-2-2-2zm0 18h-10v-14h10zm-6-36h-36c-2.2 0-4 1.8-4 4v24c0 2.2 1.8 4 4 4h14v4h-4v4h16v-4h-4v-4h4v-4h-26v-24h36v10h4v-10c0-2.2-1.8-4-4-4zm-16 14-1.9-6-1.9 6h-6.2l4.9 3.5-1.9 5.7 4.9-3.6 4.9 3.6-1.8-5.7 5-3.5z"/></svg>