<svg enable-background="new 0 0 48 48" viewBox="0 0 48 48" xmlns="http://www.w3.org/2000/svg"><path d="m43.2 7.2h-38.4c-2.6 0-4.8 2.2-4.8 4.8v24c0 2.6 2.2 4.8 4.8 4.8h38.4c2.6 0 4.8-2.2 4.8-4.8v-24c0-2.6-2.2-4.8-4.8-4.8zm-21.6 7.2h4.8v4.8h-4.8zm0 7.2h4.8v4.8h-4.8zm-7.2-7.2h4.8v4.8h-4.8zm0 7.2h4.8v4.8h-4.8zm-2.4 4.8h-4.8v-4.8h4.8zm0-7.2h-4.8v-4.8h4.8zm21.6 16.8h-19.2v-4.8h19.2zm0-9.6h-4.8v-4.8h4.8zm0-7.2h-4.8v-4.8h4.8zm7.2 7.2h-4.8v-4.8h4.8zm0-7.2h-4.8v-4.8h4.8z"/><path d="m0 0h48v48h-48zm0 0h48v48h-48z" fill="none"/></svg>