<svg enable-background="new 0 0 48 48" viewBox="0 0 48 48" xmlns="http://www.w3.org/2000/svg"><path d="m24 48 9.6-9.6h-19.2z"/><path d="m43.2 3c1 0 1.8.8 1.8 1.8v24c0 1-.8 1.8-1.8 1.8h-38.4c-1 0-1.8-.8-1.8-1.8v-24c0-1 .8-1.8 1.8-1.8zm0-3h-38.4c-2.6 0-4.8 2.2-4.8 4.8v24c0 2.6 2.2 4.8 4.8 4.8h38.4c2.6 0 4.8-2.2 4.8-4.8v-24c0-2.6-2.2-4.8-4.8-4.8z"/><path d="m26.4 6v4.8h-4.8v-4.8"/><path d="m26.4 13.2v4.8h-4.8v-4.8"/><path d="m19.2 6v4.8h-4.8v-4.8"/><path d="m19.2 13.2v4.8h-4.8v-4.8"/><path d="m12 13.2v4.8h-4.8v-4.8"/><path d="m12 6v4.8h-4.8v-4.8"/><path d="m33.6 22.8v4.8h-19.2v-4.8"/><path d="m33.6 13.2v4.8h-4.8v-4.8"/><path d="m33.6 6v4.8h-4.8v-4.8"/><path d="m40.8 13.2v4.8h-4.8v-4.8"/><path d="m40.8 6v4.8h-4.8v-4.8"/></svg>