<svg enable-background="new 0 0 48 48" viewBox="0 0 48 48" xmlns="http://www.w3.org/2000/svg"><path d="m0 0h48v48h-48z" fill="none"/><path d="m45.7 7.8 2.3-2.3c-3.7-3.7-8.5-5.5-13.3-5.5s-9.6 1.8-13.3 5.5l2.2 2.2c3.1-3 7.1-4.6 11.2-4.6s7.9 1.6 10.9 4.7zm-2.1 1.9c-2.4-2.4-5.7-3.7-8.9-3.7s-6.5 1.2-8.9 3.7l2.2 2.2c1.8-1.8 4.2-2.8 6.7-2.8 2.4 0 4.8 1 6.6 2.8 0 .1 2.3-2.2 2.3-2.2zm-.9 16.9h-5.3v-10.6h-5.3v10.7h-26.8c-3 0-5.3 2.4-5.3 5.3v10.7c0 3 2.4 5.4 5.3 5.4h37.3c3 0 5.3-2.4 5.3-5.3v-10.8c.1-3-2.3-5.4-5.2-5.4zm-29.4 13.4h-5.3v-5.3h5.3zm9.4 0h-5.3v-5.3h5.3zm9.3 0h-5.3v-5.3h5.3z"/></svg>