<svg enable-background="new 0 0 48 48" viewBox="0 0 48 48" xmlns="http://www.w3.org/2000/svg"><path d="m2.8 0h42.4c1.4 0 2.6 1 2.6 2.2v8.8c0 1.2-1.2 2.2-2.6 2.2h-42.4c-1.4 0-2.6-1-2.6-2.2v-8.8c-.1-1.2 1.1-2.2 2.6-2.2zm0 17.4h42.4c1.4 0 2.6 1 2.6 2.2v8.8c0 1.2-1.2 2.2-2.6 2.2h-42.4c-1.4 0-2.6-1-2.6-2.2v-8.8c-.1-1.1 1.1-2.2 2.6-2.2zm0 17.5h42.4c1.4 0 2.6 1 2.6 2.2v8.8c0 1.2-1.2 2.2-2.6 2.2h-42.4c-1.4 0-2.6-1-2.6-2.2v-8.8c-.1-1.2 1.1-2.2 2.6-2.2zm13.3-26.1h2.6v-4.5h-2.6zm0 17.4h2.6v-4.3h-2.6zm0 17.5h2.6v-4.3h-2.6zm-10.7-39.4v4.3h5.4v-4.3zm0 17.5v4.3h5.4v-4.3zm0 17.4v4.3h5.4v-4.3z"/></svg>