<svg enable-background="new 0 0 48 48" viewBox="0 0 48 48" xmlns="http://www.w3.org/2000/svg"><path d="m26.4 38.4h2.4c1.3 0 2.4 1.1 2.4 2.4h16.8v4.8h-16.8c0 1.3-1.1 2.4-2.4 2.4h-9.6c-1.3 0-2.4-1.1-2.4-2.4h-16.8v-4.8h16.8c0-1.3 1.1-2.4 2.4-2.4h2.4v-4.8h-16.8c-1.3 0-2.4-1.1-2.4-2.4v-9.6c0-1.3 1.1-2.4 2.4-2.4h38.4c1.3 0 2.4 1.1 2.4 2.4v9.6c0 1.3-1.1 2.4-2.4 2.4h-16.8zm-21.6-38.4h38.4c1.3 0 2.4 1.1 2.4 2.4v9.6c0 1.3-1.1 2.4-2.4 2.4h-38.4c-1.3 0-2.4-1.1-2.4-2.4v-9.6c0-1.3 1.1-2.4 2.4-2.4zm12 9.6h2.4v-4.8h-2.4zm0 19.2h2.4v-4.8h-2.4zm-9.6-24v4.8h4.8v-4.8zm0 19.2v4.8h4.8v-4.8z"/></svg>