<svg enable-background="new 0 0 48 48" viewBox="0 0 48 48" xmlns="http://www.w3.org/2000/svg"><path d="m4.3 0h34.9c1.2 0 2.2 1 2.2 2.2v8.8c0 1.2-1 2.2-2.2 2.2h-34.9c-1.2 0-2.2-1-2.2-2.2v-8.8c.1-1.2 1-2.2 2.2-2.2zm0 17.4h34.9c1.2 0 2.2 1 2.2 2.2v1.4l-5.4-2.4-14.2 6.4v5.5h-17.5c-1.2 0-2.2-1-2.2-2.2v-8.8c.1-1 1-2.1 2.2-2.1zm0 17.5h17.5c.2 4.9 2.2 9.6 5.4 13.1h-22.8c-1.2 0-2.2-1-2.2-2.2v-8.8c0-1.1.9-2.1 2.1-2.1zm10.9-26.1h2.2v-4.5h-2.2zm0 17.4h2.2v-4.3h-2.2zm0 17.5h2.2v-4.3h-2.2zm-8.6-39.4v4.3h4.3v-4.3zm0 17.5v4.3h4.3v-4.3zm0 17.4v4.3h4.3v-4.3zm29.4-15.2 9.8 4.3v6.6c0 6-4.2 11.8-9.8 13.1-5.6-1.3-9.8-7.1-9.8-13.1v-6.6zm0 4.2-5.4 2.4v5.8c0 3.4 2.3 6.5 5.4 7.3z"/></svg>