<svg enable-background="new 0 0 48 48" viewBox="0 0 48 48" xmlns="http://www.w3.org/2000/svg"><path d="m43.2 2.4v9.6h-38.4v-9.6zm0 19.2v9.6h-16.8-2.4v2.4 4.8 2.4h2.4 2.4v2.4h2.4 14.4-14.4-2.4v2.4h-9.6v-2.4-2.4h2.4 2.4v-2.4-4.8-2.4h-2.4-16.8v-9.6zm0-21.6h-38.4c-1.3 0-2.4 1.1-2.4 2.4v9.6c0 1.3 1.1 2.4 2.4 2.4h38.4c1.3 0 2.4-1.1 2.4-2.4v-9.6c0-1.3-1.1-2.4-2.4-2.4zm0 19.2h-38.4c-1.3 0-2.4 1.1-2.4 2.4v9.6c0 1.3 1.1 2.4 2.4 2.4h16.8v4.8h-2.4c-1.3 0-2.4 1.1-2.4 2.4h-16.8v4.8h16.8c0 1.3 1.1 2.4 2.4 2.4h9.6c1.3 0 2.4-1.1 2.4-2.4h16.8v-4.8h-16.8c0-1.3-1.1-2.4-2.4-2.4h-2.4v-4.8h16.8c1.3 0 2.4-1.1 2.4-2.4v-9.6c0-1.3-1.1-2.4-2.4-2.4z"/><path d="m17 4.7h2.4v4.8h-2.4z"/><path d="m17 23.9h2.4v4.8h-2.4z"/><path d="m7.4 4.7h4.8v4.8h-4.8z"/><path d="m7.4 23.9h4.8v4.8h-4.8z"/></svg>