<svg enable-background="new 0 0 48 48" viewBox="0 0 48 48" xmlns="http://www.w3.org/2000/svg"><path d="m45 15h-42c-1.7 0-3-1.3-3-3v-6c0-1.7 1.3-3 3-3h42c1.7 0 3 1.3 3 3v6c0 1.7-1.3 3-3 3zm-4.4-8.3c-1.2 0-2.3 1-2.3 2.3s1 2.3 2.3 2.3 2.3-1 2.3-2.3-1.1-2.3-2.3-2.3zm-6 0c-1.2 0-2.3 1-2.3 2.3s1 2.3 2.3 2.3c1.2 0 2.3-1 2.3-2.3s-1.1-2.3-2.3-2.3zm10.4 23.3h-42c-1.7 0-3-1.3-3-3v-6c0-1.7 1.3-3 3-3h42c1.7 0 3 1.3 3 3v6c0 1.7-1.3 3-3 3zm-4.4-8.3c-1.2 0-2.3 1-2.3 2.3s1 2.3 2.3 2.3 2.3-1 2.3-2.3-1.1-2.3-2.3-2.3zm-6 0c-1.2 0-2.3 1-2.3 2.3s1 2.3 2.3 2.3c1.2 0 2.3-1 2.3-2.3s-1.1-2.3-2.3-2.3zm10.4 23.3h-42c-1.7 0-3-1.3-3-3v-6c0-1.7 1.3-3 3-3h42c1.7 0 3 1.3 3 3v6c0 1.7-1.3 3-3 3zm-4.4-8.3c-1.2 0-2.3 1-2.3 2.3s1 2.3 2.3 2.3 2.3-1 2.3-2.3-1.1-2.3-2.3-2.3zm-6 0c-1.2 0-2.3 1-2.3 2.3s1 2.3 2.3 2.3c1.2 0 2.3-1 2.3-2.3s-1.1-2.3-2.3-2.3z"/></svg>