<svg enable-background="new 0 0 48 48" viewBox="0 0 48 48" xmlns="http://www.w3.org/2000/svg"><path d="m45 5.4c.4 0 .6.2.6.6v6c0 .4-.2.6-.6.6h-42c-.4 0-.6-.2-.6-.6v-6c0-.4.2-.6.6-.6zm0 15c.4 0 .6.2.6.6v6c0 .4-.2.6-.6.6h-42c-.4 0-.6-.2-.6-.6v-6c0-.4.2-.6.6-.6zm0 15c.4 0 .6.2.6.6v6c0 .4-.2.6-.6.6h-42c-.4 0-.6-.2-.6-.6v-6c0-.4.2-.6.6-.6zm0-32.4h-42c-1.7 0-3 1.3-3 3v6c0 1.7 1.3 3 3 3h42c1.7 0 3-1.3 3-3v-6c0-1.7-1.3-3-3-3zm0 15h-42c-1.7 0-3 1.3-3 3v6c0 1.7 1.3 3 3 3h42c1.7 0 3-1.3 3-3v-6c0-1.7-1.3-3-3-3zm0 15h-42c-1.7 0-3 1.3-3 3v6c0 1.7 1.3 3 3 3h42c1.7 0 3-1.3 3-3v-6c0-1.7-1.3-3-3-3z"/><circle cx="40.6" cy="9" r="2.3"/><circle cx="34.6" cy="9" r="2.3"/><circle cx="40.6" cy="24" r="2.3"/><circle cx="34.6" cy="24" r="2.3"/><circle cx="40.6" cy="39" r="2.3"/><circle cx="34.6" cy="39" r="2.3"/></svg>