<svg enable-background="new 0 0 48 48" viewBox="0 0 48 48" xmlns="http://www.w3.org/2000/svg"><path d="m38.4 3c1 0 1.8.8 1.8 1.8v38.4c0 1-.8 1.8-1.8 1.8h-28.8c-1 0-1.8-.8-1.8-1.8v-27.6l12.6-12.6zm0-3h-19.2l-14.4 14.4v28.8c0 2.6 2.2 4.8 4.8 4.8h28.8c2.6 0 4.8-2.2 4.8-4.8v-38.4c0-2.6-2.2-4.8-4.8-4.8z"/><path d="m16.8 34.8h-4.8v4.8h4.8z"/><path d="m36 34.8h-4.8v4.8h4.8z"/><path d="m16.8 20.4h-4.8v9.6h4.8z"/><path d="m26.4 30h-4.8v9.6h4.8z"/><path d="m26.4 20.4h-4.8v4.8h4.8z"/><path d="m36 20.4h-4.8v9.6h4.8z"/></svg>