<svg enable-background="new 0 0 48 48" viewBox="0 0 48 48" xmlns="http://www.w3.org/2000/svg"><path d="m9.7 8.8h-3.1v34.9c0 2.4 1.9 4.3 4.3 4.3h21.8v-3.1h-23z"/><path d="m37.6 2.6c.7 0 1.6.7 1.6 1.6v33.6c0 .8-.6 1.6-1.6 1.6h-20.2c-.7 0-1.6-.7-1.6-1.6v-33.6c0-.8.6-1.6 1.6-1.6zm-10.1 13.1c3 0 5.3-2.5 5.3-5.5s-2.5-5.4-5.3-5.4-5.3 2.5-5.3 5.5 2.4 5.4 5.3 5.4m0 21.7c5.3 0 9.5-4.4 9.5-10s-4.3-10-9.5-10-9.5 4.6-9.5 10 4.3 10 9.5 10m0-11.7c.8 0 1.7.8 1.7 1.8 0 .8-.7 1.8-1.7 1.8s-1.7-.8-1.7-1.8.7-1.8 1.7-1.8m10.1-25.7h-20.2c-2.2 0-4 1.9-4 4.2v33.6c0 2.3 1.8 4.2 4 4.2h20c2.2 0 4-1.9 4-4.2v-33.6c.1-2.3-1.7-4.2-3.8-4.2zm-10.1 13.2c-1.6 0-2.8-1.4-2.8-3s1.3-3 2.8-3 2.8 1.4 2.8 3-1.4 3-2.8 3zm0 21.5c-4 0-7.1-3.2-7.1-7.3s3.1-7.3 7.1-7.3 7.1 3.2 7.1 7.3-3.2 7.3-7.1 7.3zm0-11.7c-2.3 0-4.2 2-4.2 4.3s1.9 4.3 4.2 4.3 4.2-2 4.2-4.3-1.9-4.3-4.2-4.3z"/></svg>