<svg enable-background="new 0 0 48 48" viewBox="0 0 48 48" xmlns="http://www.w3.org/2000/svg"><path d="m37.5 0h-18.3c-2.2 0-4 1.8-4 4v31.4c0 2.2 1.8 4 4 4h18.4c2.2 0 4-1.8 4-4v-31.4c-.2-2.2-1.9-4-4.1-4zm-9.2 4.3c2.4 0 4.3 1.9 4.3 4.3s-1.9 4.4-4.3 4.4-4.3-1.8-4.3-4.2 1.9-4.5 4.3-4.5zm0 29.5c-4.8 0-8.8-4-8.8-8.8s4-8.8 8.8-8.8 8.8 4 8.8 8.8-3.9 8.8-8.8 8.8zm0-14.1c-3 0-5.4 2.4-5.4 5.4s2.4 5.4 5.4 5.4 5.4-2.4 5.4-5.4-2.4-5.4-5.4-5.4zm-17.4-10.9h-4.3v34.9c0 2.4 1.9 4.3 4.3 4.3h21.8v-4.3h-21.8z"/></svg>