<svg enable-background="new 0 0 48 48" viewBox="0 0 48 48" xmlns="http://www.w3.org/2000/svg"><path d="m43.2 14c1.6 0 2.8 1.2 2.8 2.8v24c0 1.6-1.2 2.8-2.8 2.8h-38.4c-1.6 0-2.8-1.2-2.8-2.8v-24c0-1.6 1.2-2.8 2.8-2.8h14 4.3l.6.5.5-.5h3zm-33.6 28.4h21.4c3.6 0 6.5-2.9 6.5-6.5v-14.9c0-3.1-2.5-5.8-5.8-5.8h-22.8c-3 0-5.5 2.5-5.5 5.5v15.4c0 3.5 2.7 6.3 6.2 6.3m23.6-40-9.6 9.4-10-8.4-1 1.2 6.2 7.4h-14c-2.6 0-4.8 2.2-4.8 4.8v24c0 2.6 2.2 4.8 4.8 4.8h38.4c2.6 0 4.8-2.2 4.8-4.8v-24c0-2.6-2.2-4.8-4.8-4.8h-16l7.1-7.3zm-23.6 37.9c-2.3 0-4.2-1.9-4.2-4.2v-15.3c0-1.9 1.6-3.5 3.5-3.5h22.8c2 0 3.7 1.7 3.7 3.7v15c0 2.4-2 4.4-4.4 4.4h-21.4z"/><circle cx="38.5" cy="19" r="2"/><circle cx="38.5" cy="25" r="2"/></svg>