<svg enable-background="new 0 0 48 48" viewBox="0 0 48 48" xmlns="http://www.w3.org/2000/svg"><path d="m21 3.5v16.9c-3.5-1.2-6-4.6-6-8.5s2.5-7.1 6-8.4m15 11.5c4 0 7.2 2.5 8.5 6h-17c1.3-3.5 4.5-6 8.5-6m-15.5 12c-1.2 3.5-4.6 6-8.5 6s-7.2-2.5-8.5-6zm6.5.5c3.5 1.2 6 4.6 6 8.5s-2.5 7.2-6 8.5zm-3-27.5c-6.6 0-12 5.4-12 12s5.4 12 12 12zm12 12c-6.6 0-12 5.4-12 12h24c0-6.6-5.4-12-12-12zm-12 12h-24c0 6.6 5.4 12 12 12s12-5.4 12-12zm0 0v24c6.6 0 12-5.4 12-12s-5.4-12-12-12z"/><path d="m0 0h48v48h-48z" fill="none"/></svg>