<svg enable-background="new 0 0 48 48" viewBox="0 0 48 48" xmlns="http://www.w3.org/2000/svg"><path d="m4.8 4.8h16.8v-4.8h-16.8c-2.6 0-4.8 2.2-4.8 4.8v16.8h4.8zm14.4 21.6-9.6 12h28.8l-7.2-9.6-4.9 6.5zm16.8-10.8c0-2-1.6-3.6-3.6-3.6s-3.6 1.6-3.6 3.6 1.6 3.6 3.6 3.6 3.6-1.6 3.6-3.6zm7.2-15.6h-16.8v4.8h16.8v16.8h4.8v-16.8c0-2.6-2.2-4.8-4.8-4.8zm0 43.2h-16.8v4.8h16.8c2.6 0 4.8-2.2 4.8-4.8v-16.8h-4.8zm-38.4-16.8h-4.8v16.8c0 2.6 2.2 4.8 4.8 4.8h16.8v-4.8h-16.8z"/><path d="m0 0h48v48h-48z" fill="none"/></svg>