<svg enable-background="new 0 0 48 48" viewBox="0 0 48 48" xmlns="http://www.w3.org/2000/svg"><path d="m24 12.6c2.3 0 4.2 1.9 4.2 4.2s-1.9 4.2-4.2 4.2-4.2-1.9-4.2-4.2 1.9-4.2 4.2-4.2m13.2 24.8 2.8 4.7v.1.1c.1.1.2.4.2.8 0 1-.8 1.8-1.8 1.8h-28.8c-1 0-1.8-.8-1.8-1.8 0-.5.1-.7.2-.8v-.1-.1l2.8-4.7c4 2.5 8.5 3.8 13.2 3.8 4.7.2 9.2-1.1 13.2-3.8m-13.2-37.4c-9.3 0-16.8 7.6-16.8 16.8s7.5 16.8 16.8 16.8 16.8-7.6 16.8-16.8-7.6-16.8-16.8-16.8zm0 30c-6.6 0-13.2-6.6-13.2-13.2s6.6-13.2 13.2-13.2 13.2 6.6 13.2 13.2-6.6 13.2-13.2 13.2zm0-20.4c-4 0-7.2 3.2-7.2 7.2s3.2 7.2 7.2 7.2 7.2-3.2 7.2-7.2-3.3-7.2-7.2-7.2zm14.1 23.5c-3.8 3.2-8.8 5.3-14.2 5.3s-10.3-2-14-5.3l-4.4 7.6c-.5.7-.7 1.6-.7 2.5 0 2.6 2.2 4.8 4.8 4.8h28.9c2.6 0 4.8-2.2 4.8-4.8 0-1-.2-1.8-.7-2.5z"/></svg>