<svg enable-background="new 0 0 48 48" viewBox="0 0 48 48" xmlns="http://www.w3.org/2000/svg"><path d="m12.4 32.5c-.6-1.3-.6-1.7.7-2.2 2.5-.7.7.9 4.2 4.8v-9.1c.1-4.9 4.3-9 9.4-9 5.3 0 9.4 4.2 9.4 9.4 0 6.1-5.9 11-12.5 9.1-1-.4-.2-3.1.9-2.8 5.2 0 8.7-1 8.7-6.3 0-5.9-7.5-8.7-11.3-4.3-2.3 2.6-1.7 4-1.7 15.3 4.9 3.1 11.5 2.1 15.6-2 2.5-2.5 3.7-5.6 3.7-9.1s-1.3-6.6-3.8-9.1-5.6-3.7-9.1-3.7-6.6 1.3-9.1 3.7c0 0-1.6 1.6-2.1 2.3-.4.5-.6.9-2 .6-.6-.1-1.3-.6-1.3-1.1v-18c0-.5.4-1 1-1h23.4c.9 0 .9 1.1.9 1.5s0 1.5-.9 1.5h-21.5v12.9c10-10.7 27.5-3.5 27.5 10.5 0 17.3-23.9 21.5-30.1 6.1zm6.1-25.3c0 .4.5 2.3 1.5 2 12.1-4.7 19.6 3.9 20.4 3.9.5 0 2.2-1.5 1.3-2.2-9.1-8.7-22.8-5.5-23.2-3.7zm22 32.2c-10.7 10.7-29.1 5.9-32.3-10.1 0-1.2-2.9-.7-2.8.4 2.3 16.8 23.9 24.9 37.1 11.8.7-.9-1.3-3-2-2.1zm-17.4-10.6c0 .4.4.7.5.9.2.2.6.4.9.4.4 0 .2 0 2.2-1.8 2 1.8 1.8 1.8 2.2 1.8.5 0 1.8-1 1-1.7l-1.7-1.7 1.7-1.7c.6-.6-1-2.1-1.6-1.5l-1.6 1.7c-1.8-1.8-1.8-1.8-2.1-1.8-.5 0-1.7 1.1-1.2 1.7l1.7 1.7c-1.8 1.5-2 1.7-2 2z"/></svg>