<svg enable-background="new 0 0 48 48" viewBox="0 0 48 48" xmlns="http://www.w3.org/2000/svg"><path d="m42.7 24-1.2 14.7c-.4 3.8-6 3.2-5.6-.5l1-11.5-3.9.3c1 1.9 1.4 4.1 1.4 6.5 0 3.8-1.6 7.3-4 9.9l-3.7-3.7c5.4-6 1.2-15.7-6.9-15.7-2.4 0-4.7 1-6.3 2.4l-3.6-3.6c2-1.9 4.7-3.2 7.7-3.7l7.1-8-4-2.3-4.8 4.3c-2.8 2.5-6.6-1.7-3.8-4.2l6.3-5.6c.8-1.1 2.2-1.2 3.2-.6l13 7.5c1.6 1 1.9 3.4.6 4.9l-5.5 6.2 9.9-.6c1.9.1 3.2 1.5 3.1 3.3zm-6.1-14.5c2.6 0 4.8-2.2 4.8-4.8s-2.2-4.8-4.8-4.8-4.8 2.2-4.8 4.8 2.3 4.8 4.8 4.8zm-16.8 33.3c-7.5 0-12-8.5-7.8-14.6l-3.6-3.7c-1.9 2.5-3.1 5.6-3.1 9 0 12.1 14 18.8 23.5 11.4l-3.7-3.7c-1.5 1-3.3 1.6-5.3 1.6z"/></svg>