<svg enable-background="new 0 0 48 48" viewBox="0 0 48 48" xmlns="http://www.w3.org/2000/svg"><path d="m21.6 0h4.8v4.9h1.2c2 0 3.6 1.7 3.6 3.6v8.5l-1.1 1.1 4 7c2.6-2.6 4.3-6.4 4.3-10.4h4.9c0 5.9-2.6 11.2-6.7 14.8l7.7 13.2.4 5.4-4.6-3-7.4-13c-2.6 1.3-5.5 2-8.6 2s-6-.7-8.6-2l-7.6 12.9-4.6 3 .2-5.4 14.2-24.5-1-1.1v-8.5c0-2 1.7-3.6 3.6-3.6h1.2v-4.9zm-3.8 27.8c1.9.8 4 1.4 6.2 1.4 2.3 0 4.3-.5 6.2-1.4l-3.6-6.1c-1.4 1.4-3.8 1.4-5.3 0zm6.2-18.1c-1.3 0-2.4 1.1-2.4 2.4s1.1 2.4 2.4 2.4 2.4-1.1 2.4-2.4-1.1-2.4-2.4-2.4z"/></svg>