<svg enable-background="new 0 0 48 48" viewBox="0 0 48 48" xmlns="http://www.w3.org/2000/svg"><path d="m0 0h48v48h-48z" fill="none"/><path d="m12 36c0 1.1.8 2 2 2h2v7c0 1.7 1.3 3 3 3s3-1.3 3-3v-7h4v7c0 1.7 1.3 3 3 3s3-1.3 3-3v-7h2c1.1 0 2-.8 2-2v-20h-24zm-5-20c-1.7 0-3 1.3-3 3v14c0 1.7 1.3 3 3 3s3-1.3 3-3v-14c0-1.6-1.4-3-3-3zm34 0c-1.7 0-3 1.3-3 3v14c0 1.7 1.3 3 3 3s3-1.3 3-3v-14c0-1.6-1.4-3-3-3zm-9.9-11.7 2.6-2.6c.4-.4.4-1 0-1.4-.4-.4-1-.4-1.4 0l-3 3c-1.6-.8-3.4-1.2-5.3-1.2s-3.7.5-5.3 1.2l-3-3c-.4-.4-1-.4-1.4 0s-.4 1 0 1.4l2.6 2.6c-3 2.2-4.9 5.8-4.9 9.7h24c0-3.9-1.9-7.5-4.9-9.7zm-11.1 5.7h-2v-2h2zm10 0h-2v-2h2z"/></svg>