<svg enable-background="new 0 0 48 48" viewBox="0 0 48 48" xmlns="http://www.w3.org/2000/svg"><path d="m24 10.9.8-1.6c.6-1 1.8-1.3 2.6-.7s1.3 1.8.7 2.8l-8.4 14.6h6.1c2 0 3.1 2.3 2.3 4h-18c-1.1 0-1.9-.8-1.9-1.9s.8-1.9 1.9-1.9h5l6.5-11.2-2-3.5c-.6-1-.2-2.2.7-2.8 1-.6 2.2-.2 2.8.7zm-7.7 21.1-1.9 3.2c-.6 1-1.8 1.3-2.8.7s-1.3-1.8-.7-2.6l1.4-2.4c1.7-.5 3.1-.1 4 1.1zm16.5-6h5.2c1.1 0 1.9.8 1.9 1.9s-.8 2-2 2h-2.9l1.9 3.4c.6 1 .2 2.2-.7 2.6-1 .6-2.2.2-2.8-.7-3.2-5.6-5.6-9.8-7.3-12.6-1.7-2.9-.5-5.8.7-6.7 1.4 2.3 3.3 5.7 6 10.1zm-8.8-26c-13.2 0-24 10.8-24 24s10.8 24 24 24 24-10.8 24-24-10.8-24-24-24zm20.9 24c0 11.5-9.4 20.9-20.9 20.9s-20.9-9.4-20.9-20.9 9.4-20.9 20.9-20.9 20.9 9.3 20.9 20.9z"/></svg>