<svg enable-background="new 0 0 48 32" viewBox="0 0 48 32" xmlns="http://www.w3.org/2000/svg"><path d="m8.7 8.8c-.6.7-1.4 1.2-2.4 1-.1-.8.4-1.8.9-2.4.6-.7 1.6-1.2 2.4-1.2.1.9-.4 1.8-.9 2.6m.9 1.2c-1.3-.1-2.4.7-3 .7s-1.6-.7-2.7-.7c-1.3 0-2.6.7-3.2 2-1.4 2.4-.4 6 1 7.9.7 1 1.4 2 2.5 2 1 0 1.4-.6 2.6-.6s1.6.7 2.7.7 1.8-1 2.4-1.9c.7-1.1 1.1-2.2 1.1-2.3 0 0-2-.8-2.2-3.2 0-2 1.7-3 1.7-3-1-1.4-2.4-1.5-2.9-1.6m7.4-2.7v14.7h2.3v-5h3.1c2.9 0 4.9-1.9 4.9-4.8s-1.9-4.8-4.8-4.8zm2.3 1.9h2.7c1.9 0 3.1 1.1 3.1 2.9s-1.1 2.9-3.1 2.9h-2.6v-5.8zm12.3 12.8c1.4 0 2.8-.7 3.4-1.9v1.8h2v-7.3c0-2.2-1.7-3.5-4.3-3.5-2.4 0-4.2 1.3-4.2 3.2h2c.1-.8 1-1.4 2.2-1.4 1.4 0 2.2.6 2.2 1.8v.8l-2.9.1c-2.6.1-4.1 1.2-4.1 3.1.1 2.1 1.5 3.3 3.7 3.3zm.6-1.7c-1.2 0-1.9-.6-1.9-1.4 0-1 .7-1.4 2.2-1.6l2.4-.1v.8c-.1 1.3-1.2 2.3-2.7 2.3zm7.6 5.6c2.2 0 3.2-.8 4.2-3.4l4-11.2h-2.4l-2.6 8.8-2.6-8.6h-2.4l3.8 10.7-.2.6c-.4 1.1-1 1.6-1.9 1.6-.1 0-.5 0-.7 0v1.8c.1-.4.6-.3.8-.3z"/></svg>