<svg enable-background="new 0 0 48 34" viewBox="0 0 48 34" xmlns="http://www.w3.org/2000/svg"><path d="m13.6 14.1c0 1.7.8 2.4.8 2.9 0 .2-.1.4-.4.5l-1 .7c-.1.1-.2.1-.5.1 0 0-.6.1-1.6-1.9-1.1 1.4-2.9 2.3-4.7 2.2-1.2.1-4.6-.7-4.3-4.2-.1-2.9 2.5-4.7 5.3-4.6.5 0 1.6 0 3.5.5v-1.3c.3-2-1-3.5-3.3-3.2-.1 0-1.4 0-3.4.7-.6.2-.6.2-.9.2-.6 0-.4-1.6-.2-1.8.4-.5 2.6-1.3 4.9-1.3 1.6-.1 3 .4 4.2 1.3 1 1.1 1.4 2.5 1.3 4zm-6.5 2.4c2.4 0 3.5-1.4 3.7-2.3.2-.7.1-1.2.1-2-.7-.1-1.8-.4-3-.4-1.1-.1-3.2.5-3.1 2.4-.1 1.2.8 2.4 2.3 2.3zm12.8 1.6c-.6 0-.8-.4-1-.7l-3.7-12.3c-.1-.2-.1-.5-.1-.6 0-.2.1-.4.2-.4h1.7c.6-.1.8.5 1 .7l2.6 10.6 2.5-10.6c0-.2.2-.8 1-.7h1.3c.1 0 .8 0 1 .7l2.5 10.7 2.8-10.7c0-.1.2-.8 1-.7h1.4c.1 0 .5-.1.4.6 0 .1.2-.8-4 12.7-.1.4-.4.8-1 .7h-1.4c-.8.1-1-.7-1-.8l-2.5-10.3-2.4 10.3c0 .1-.1.8-1 .8zm20.5.5c-.5 0-2.5 0-4.3-1-.4-.1-.6-.5-.6-.8v-.8c0-.6.5-.5.7-.5.7.4 1.2.5 2.2.7 2.8.6 4-.1 4.2-.4 1-.6 1.1-1.9.4-2.6-.8-.6-1.2-.7-4-1.6-.4-.1-3.2-1.1-3.2-4 0-2.2 1.9-4.2 5.2-4.2 1 0 3.5.4 4.2 1.2.1.1.1.4.1.5v.9c0 .4-.1.5-.4.5-.6-.1-1.6-.8-3.7-.8-.5 0-3 .1-2.9 1.9 0 1.4 2 1.9 2.3 2 2.8.8 3.6 1 4.7 2.2 1.3 1.7.6 3.6.4 4.2-1.6 2.8-5.3 2.6-5.3 2.6zm3 7.8c-5.3 3.8-12.8 6-19.4 6-8.8 0-17.3-3.1-23.7-9-.5-.5 0-1.1.5-.7 7.1 4.1 15.4 6.3 23.7 6.3 6.2 0 12.4-1.3 18.1-3.7.9-.5 1.7.5.8 1.1zm2.2-2.4c-.7-.8-4.4-.4-6.1-.2-.5 0-.6-.4-.1-.7 3-2.2 7.9-1.6 8.5-.8.6.7-.1 5.6-3 8-.5.4-.8.1-.6-.4.6-1.6 1.9-5.1 1.3-5.9z"/></svg>