<svg enable-background="new 0 0 48 48" viewBox="0 0 48 48" xmlns="http://www.w3.org/2000/svg"><path d="m42.2 25.2c-.1-1.4-.6-2.6-1.4-3.4s-2-1.2-3.4-1.2-2.5.4-3.4 1.2c-.8.8-1.3 1.9-1.4 3.4m15.2-.6c.1 1 .2 2.4.2 4.2h-15.6c.1 2.2.8 3.6 2.3 4.6.8.5 1.9.8 3.1.8 1.3 0 2.3-.4 3.1-1 .5-.4.8-.8 1.2-1.4h5.8c-.1 1.3-.8 2.5-2 3.8-1.9 2-4.6 3.1-8 3.1-2.9 0-5.4-.8-7.6-2.6s-3.3-4.5-3.3-8.5c0-3.7 1-6.6 3-8.5 1.9-2 4.6-3 7.7-3 1.8 0 3.5.4 5 1 1.4.7 2.8 1.7 3.7 3.1.6 1.3 1.1 2.7 1.4 4.4zm-29.6 4.9c0-1.6-.6-2.6-1.9-3.2-.7-.4-1.7-.5-3-.5h-6.5v7.9h6.4c1.3 0 2.3-.1 3-.5 1.3-.7 2-1.9 2-3.7zm-11.4-8.6h6.4c1.3 0 2.4-.2 3.1-.7.8-.5 1.2-1.3 1.2-2.6 0-1.4-.5-2.3-1.6-2.8-1-.4-2-.5-3.5-.5h-5.6m16.5 11.3c.7 1.2 1.2 2.6 1.2 4.3 0 1.8-.5 3.4-1.3 4.8-.6 1-1.3 1.7-2.2 2.4-1 .7-2 1.2-3.4 1.4-1.3.2-2.8.4-4.2.4h-13.4v-29.8h14.4c3.6 0 6.2 1.1 7.7 3.2 1 1.3 1.3 2.8 1.3 4.6s-.5 3.2-1.4 4.4c-.5.6-1.3 1.2-2.3 1.7 1.7.5 2.9 1.4 3.6 2.6zm20-12.3h-12v-3h12z"/></svg>