<svg enable-background="new 0 0 48 48" viewBox="0 0 48 48" xmlns="http://www.w3.org/2000/svg"><path d="m15.5 10.9c0 2.2-1.6 4.6-6.8 4.6h-6.5l1.9-8.3h6.4c3.9 0 5 2.2 5 3.7zm11.9-3.7h-6.4l-1.8 8.4h6.6c5 0 6.6-2.4 6.6-4.6 0-1.6-1.1-3.8-5-3.8zm-19.1 12.4h-6.4l-1.9 8.2h6.6c5.3 0 6.8-2.2 6.8-4.6-.1-1.5-1.2-3.6-5.1-3.6zm16.9 0h-6.4l-1.8 8.2h6.6c5 0 6.6-2.2 6.6-4.6 0-1.5-1.2-3.6-5-3.6zm17.8-5.1h-6.4l-1.8 8.3h6.6c5 0 6.6-2.2 6.6-4.6 0-1.5-1.2-3.7-5-3.7zm-2.7 12.9h-6.3l-1.8 8.3h6.6c5.3 0 6.6-2.2 6.6-4.6 0-1.5-1.1-3.7-5.1-3.7zm-17.7 5h-6.4l-1.8 8.4h6.6c5.3 0 6.6-2.4 6.6-4.6 0-1.5-1.1-3.8-5-3.8z"/></svg>