<svg enable-background="new 0 0 48 48" viewBox="0 0 48 48" xmlns="http://www.w3.org/2000/svg"><path d="m22.8 33.6 1 5.9c-.6.4-1.7.6-3 1s-3 .5-4.8.5c-5.3-.1-9.2-1.7-12-4.7-2.6-3.1-4-7.1-4-11.8.1-5.5 1.7-9.8 4.9-12.8 3.1-3.1 7.1-4.5 11.8-4.6 1.8 0 3.4.1 4.7.5 1.3.2 2.3.6 2.9 1l-1.4 6-2.5-.8c-1-.2-2-.4-3.4-.4-2.8 0-5 .8-7 2.6-1.8 1.8-2.8 4.4-2.8 8 0 3.2.8 5.9 2.6 7.7 1.7 1.9 4.1 2.8 7.2 2.9l3.2-.2c1-.3 1.9-.6 2.6-.8zm5.8 7.2 1.6-9.6h-3.6l.7-4.8h3.6l.7-4.8h-3.6l.7-4.8h3.6l1.6-9.6h4.8l-1.4 9.6h2.4l1.6-9.6h4.7l-1.6 9.6h3.6l-.7 4.8h-3.6l-.7 4.8h3.6l-.7 4.8h-3.6l-1.6 9.6h-4.8l1.6-9.6h-2.5l-1.6 9.6zm7-14.4h2.4l.7-4.8h-2.4z"/></svg>