<svg enable-background="new 0 0 48 48" viewBox="0 0 48 48" xmlns="http://www.w3.org/2000/svg"><path d="m16.8 24c0 4 3.2 7.2 7.2 7.2s7.2-3.2 7.2-7.2-3.2-7.2-7.2-7.2-7.2 3.2-7.2 7.2z"/><path d="m47.6 19.9c-.2-1.1-.5-2.2-.7-3.1.3 1 .6 2 .7 3.1-.2-1.1-.5-2.2-.7-3.1h-16.7c2 1.8 3.4 4.3 3.4 7.2 0 1.8-.5 3.4-1.3 4.8l-10.9 19.1c.8.1 1.6.1 2.6.1.7 0 1.4 0 2.2-.1 1.1-.1 2.2-.2 3.2-.5 10.7-2.4 18.6-12 18.6-23.4 0-1.5-.1-2.8-.4-4.1z"/><path d="m24 33.6c-3.6 0-6.6-1.9-8.3-4.8l-11-19.1c-1.1 1.4-2 3.1-2.8 4.8-1.2 2.9-1.9 6.1-1.9 9.5 0 6.7 2.8 12.8 7.2 17.2 3.1 3.1 7.1 5.3 11.6 6.2l8.3-14.4c-.9.3-2 .6-3.1.6z"/><path d="m6.4 7.8 8.3 14.3c.8-4.3 4.7-7.7 9.4-7.7h22c-.7-1.6-1.7-3.2-2.8-4.7 1.1 1.4 2 3.1 2.8 4.7-.7-1.6-1.7-3.2-2.8-4.7-4.4-5.9-11.5-9.6-19.3-9.6-2.9 0-5.5.5-8 1.4-3.8 1.3-7 3.4-9.6 6.3z"/></svg>