<svg enable-background="new 0 0 48 48" viewBox="0 0 48 48" xmlns="http://www.w3.org/2000/svg"><path d="m19.8 32.3.8 5c-.6.2-1.4.6-2.6.8s-2.6.4-4.2.4c-4.6-.1-8-1.4-10.4-4.1-2.2-2.5-3.4-5.8-3.4-9.9.1-4.8 1.6-8.5 4.2-11.2 2.8-2.6 6.1-4 10.3-4 1.6 0 2.9.1 4.1.4 1.1.2 1.9.5 2.5.8l-1.3 5.2-2.2-.7c-.8-.2-1.8-.4-2.9-.4-2.4 0-4.4.7-6 2.3s-2.4 3.8-2.4 7c0 2.9.7 5 2.3 6.7 1.4 1.6 3.6 2.4 6.2 2.5l2.8-.2c.9-.1 1.6-.4 2.2-.6zm1.1-10.3h4.2v-4.2h4.2v4.2h4.2v4.2h-4.2v4.2h-4.2v-4.2h-4.2zm14.6 0h4.1v-4.2h4.2v4.2h4.2v4.2h-4.2v4.2h-4.2v-4.2h-4.2v-4.2z"/></svg>