<svg enable-background="new 0 0 48 48" viewBox="0 0 48 48" xmlns="http://www.w3.org/2000/svg"><path d="m23.8 20-3.2 1.7c-1-1.9-2.4-1.9-2.6-1.9-2.2 0-3.2 1.4-3.2 4.2 0 2.3.8 4.2 3.2 4.2 1.4 0 2.4-.7 3-2l3 1.6c-.6 1.1-2.5 3.7-6.4 3.7-2.2 0-7.2-1-7.2-7.4 0-5.6 4.2-7.4 7.1-7.4 2.9-.1 5.1 1.1 6.3 3.3zm13.9 0-3.1 1.7c-1-1.9-2.5-1.9-2.8-1.9-2.2 0-3.2 1.4-3.2 4.2 0 2.3.8 4.2 3.2 4.2 1.4 0 2.4-.7 3-2l3 1.6c-.2.4-2 3.7-6.2 3.7-2.2 0-7.2-1-7.2-7.4 0-5.6 4.2-7.4 7.1-7.4s4.9 1.1 6.2 3.3zm-13.7-20c-13.9 0-24 11.2-24 24 0 13.4 11 24 24 24 12.6 0 24-9.7 24-24 0-13.3-10.3-24-24-24zm0 43.7c-10.8 0-19.7-9-19.7-19.7 0-10.2 8.3-19.7 19.7-19.7 10.9 0 19.7 8.7 19.7 19.7 0 11.9-9.6 19.7-19.7 19.7z"/></svg>