<svg enable-background="new 0 0 48 48" viewBox="0 0 48 48" xmlns="http://www.w3.org/2000/svg"><path d="m30.9 22.7c0 1.5-1 2.6-2.4 2.6s-2.4-1.1-2.4-2.6 1-2.6 2.4-2.6 2.4 1.3 2.4 2.6zm-11.2-2.6c-1.4 0-2.4 1.3-2.4 2.6 0 1.5 1.1 2.6 2.4 2.6 1.4 0 2.4-1.1 2.4-2.6.1-1.3-1.1-2.6-2.4-2.6zm25.3-15.2v43.1c-6.1-5.4-4.1-3.5-11.1-10.1l1.3 4.5h-27.3c-2.7 0-4.9-2.2-4.9-4.9v-32.6c0-2.7 2.3-4.9 4.9-4.9h32.1c2.7 0 5 2.2 5 4.9zm-6.8 22.8c0-7.8-3.4-13.9-3.4-13.9-3.4-2.6-6.7-2.5-6.7-2.5l-.3.3c4.1 1.3 5.9 3.1 5.9 3.1-5.7-3.1-12.3-3.1-17.9-.7-.9.5-1.4.7-1.4.7s1.9-1.9 6.3-3.2l-.2-.3s-3.3-.1-6.7 2.5c0 0-3.4 6.3-3.4 13.9 0 0 2.1 3.4 7.3 3.7 0 0 .9-1 1.6-1.9-3.1-.8-4.2-2.7-4.2-2.7.3.2.9.6 1 .6 4 2.3 9.8 3 15 .8.8-.3 1.8-.8 2.7-1.4 0 0-1.1 1.9-4.3 2.9.7.9 1.6 1.9 1.6 1.9 5-.3 7.1-3.8 7.1-3.8z"/></svg>