<svg enable-background="new 0 0 48 48" viewBox="0 0 48 48" xmlns="http://www.w3.org/2000/svg"><path d="m26.2 22.6h-4.9v-4.4h4.9zm0-15.4h-4.9v4.6h4.9zm5.9 10.9h-4.9v4.4h4.9zm-11.7-5.4h-4.9v4.6h4.9zm5.8 0h-4.9v4.6h4.9zm20.8 7.5c-1.1-.7-3.6-1-5.5-.6-.2-1.8-1.2-3.4-3.1-4.8l-1.2-.8-.7 1.1c-1.3 2-1.8 5.5-.2 7.8-.6.4-1.9.8-3.6.8h-32.6c-.6 3.8.5 8.8 3.4 12.1 2.8 3.2 7 4.9 12.4 4.9 11.8 0 20.6-5.4 24.6-15.4 1.6 0 5 0 6.9-3.4.1-.2.5-1 .6-1.3zm-38.4-2.1h-4.9v4.4h4.9zm5.9 0h-4.9v4.4h4.9zm5.9 0h-4.9v4.4h4.9zm-5.9-5.4h-4.9v4.6h4.9z"/></svg>