<svg enable-background="new 0 0 48 48" viewBox="0 0 48 48" xmlns="http://www.w3.org/2000/svg"><path d="m34.6 39.4c-1-4.6-2.2-8.8-3.4-12.6 1.2-.1 2.5-.2 3.8-.2 2.3 0 4.7.2 7.3.8-.8 5-3.7 9.2-7.7 12zm-10.6 3.3c-4.2 0-8-1.3-11.2-3.7.7-1.1 2-3.2 4.3-5.4 2.3-2.3 5.5-4.6 9.7-5.9 1.4 4 2.8 8.5 3.7 13.7-1.9.8-4.1 1.3-6.5 1.3zm-18.7-18.7c0-.1 0-.1 0-.2h2c3.7 0 10.3-.4 17-2.4.4.8.7 1.6 1.1 2.5-4.4 1.4-7.9 3.8-10.6 6.2-2.5 2.3-4.2 4.6-5.2 6-2.6-3.3-4.3-7.5-4.3-12.1zm10.4-16.8c1.3 1.6 4 4.9 6.7 10.2-5.6 1.7-11.4 2-14.8 2-.1 0-.2 0-.2 0-.6 0-1.1 0-1.4 0 1.2-5.4 4.8-9.8 9.7-12.2zm8.3-1.9c4.4 0 8.5 1.6 11.6 4.1-2.4 2.9-5.6 5-9.2 6.6-2.4-4.8-4.8-8.2-6.5-10.2 1.5-.4 2.8-.5 4.1-.5zm14.8 7.2c2.4 3 3.8 6.6 4 10.7-2.8-.6-5.3-.8-7.7-.8-1.9 0-3.7.1-5.4.5-.4-1-.8-2-1.2-2.9 3.7-1.9 7.3-4.2 10.3-7.5zm-14.8-12.5c-13.2 0-24 10.8-24 24s10.8 24 24 24 24-10.8 24-24-10.8-24-24-24z"/></svg>