<svg enable-background="new 0 0 48 48" viewBox="0 0 48 48" xmlns="http://www.w3.org/2000/svg"><path d="m43.8 30.8c0 1.4-.5 4-1.4 5.8-1 1.8-1.8 2.3-3.2 2.3-1.8-.2-4.9-5.3-7.2-5.5-2.8 0-8.4 5.8-13.2 5.8-2.8 0-3.7-.5-4.4-1-1.4-1-2-2.5-2-4.4 0-3.7 3.5-7 7.7-7 5.5 0 9.2 5.5 11.9 5.3 2.3 0 6.7-4.4 9-4.4 2-.8 2.8 1.7 2.8 3.1zm-9-21.8c-2.5-1.4-4.7-2.3-7.2-3.7-1.4-1-3.5-3.2-5.3-5.3-.7 3.2-1.2 4.4-2.5 5.5-2.5 1.8-3.7 2.5-6 3.5-1.8 1-10.9 6.5-10.9 18.4.1 11.8 10.3 20.6 21.2 20.6 11.2 0 20.9-8.2 20.9-20.4.5-12.2-8.6-17.6-10.2-18.6z"/></svg>