<svg enable-background="new 0 0 48 48" viewBox="0 0 48 48" xmlns="http://www.w3.org/2000/svg"><path d="m31.1 3.8c.1-1.2 2-1.3 3.6-.8.1 0 2.5 1 1.8 1.4-2.7-.7-5.5 1.8-5.4-.6zm-19.6.6c3-.8 6 1.9 5.9-.7-.1-1.3-2.3-1.4-3.8-1 0 .1-2.8 1.1-2.1 1.7zm20.2 10.2c-.8 0-1.6.7-1.6 1.6 0 .8.7 1.6 1.6 1.6.8 0 1.6-.7 1.6-1.6 0-.8-.7-1.6-1.6-1.6zm-15.5 0c-.8 0-1.6.7-1.6 1.6 0 .8.7 1.6 1.6 1.6.8 0 1.6-.7 1.6-1.6 0-.8-.8-1.6-1.6-1.6zm30.9 15.9c-1 2.3-4 1.1-6.3-.1-1.3 6.7-5.7 10.8-12.3 12 0 .1-.2 0 2.3.1 3.2.1 6.1-.2 9.5-.7-1.9-1.3-1.1-3.6-1-3.7s1.4.1 2 1.1c.8-1.2 2.8-1.4 2.9-1.3s.6 2-.7 3.4c.5-.1.8-.1 1-.2s1.7 1.1.2 1.3c-1.4.2-2.2.5-4.6 1.1-4.5 1.1-8.3 1.2-11.4 1.2l.1 1.1c.4 1.8-2.3 2.4-2.6.6.1 1.7-2.6 2.2-2.8-.1v.5c-.1 1.8-2.8 1.7-2.8 0-.7 1.3-2.8.6-2.5-.8l.1-1.2c-3.6.1-5.8.2-6 .2-2 0-2-3 0-3 .2 0 2.6.1 6.1.2-5.9-1.4-10.1-5.3-11.2-11.4-2.4 1.2-5.5 2.6-6.6.1-1-2.4 2-4.1 6.5-7.1.1-.6.1-1.3.2-1.9-1.4-1.9-1.1-3.5-1.6-5.9-1.7.2-2.3-.8-2.3-2.3 0-.7.2-1.4.2-1.4.1-.1 1-.2 1.2-.2.6-3.1 4.9-3.2 8.8-3.4 1.9-2.2 4.3-4 7.8-4.7-1.2-1.8 0-3.8 0-3.8.1-.1 2 .4 2.5 2.3.5-.8 1.8-1.1 1.9-1.1s.6 1.4-.5 2.5c3.8.4 7 2.4 9.3 4.9 3.5.1 7 .6 7.5 3.2.2 0 1.1.1 1.2.2 0 0 .2.8.2 1.4 0 1.3-.6 2.4-2.3 2.3-.4 1.7-.2 3.2-.8 4.6.2 1.1.4 2.3.5 3.5 4 2.5 7.3 4.1 6.3 6.5zm-26.3-15.9c.1-4.2-3.7-4.1-7.6-3.8-2 .1-3.7.2-4.5 1.3-1.1 2 .6 9 2.3 9.9 1 .5 7.1.7 8.4-.7.8-1 1.5-4.9 1.4-6.7zm5 5.7c-.4-1.2-.6-2.9-1.4-3.1-.2 0-.8 0-1.1 0-1 .2-1.1 2.2-1.7 3.6 1.4 0 1.9 1 2.3 1 .5-.1.6-1.2 1.9-1.5zm13.3-8.2c-.6-1.2-2.4-1.2-4.5-1.3-3.8-.2-7.6-.4-7.5 3.8 0 1.8.5 5.7 1.3 6.6 1.2 1.4 7.5 1.2 8.4.7 1.4-.7 3.3-7.6 2.3-9.8z"/></svg>