<svg enable-background="new 0 0 48 32" viewBox="0 0 48 32" xmlns="http://www.w3.org/2000/svg"><path d="m6.1 12.2c-1.8 0-3.6 1.1-3.6 3.1h7c0-1.8-1.3-3.1-3.4-3.1zm.1-1.6c4.4 0 5.8 3 5.9 4.9v-9.1h2.4v6s1.1-1.8 4.3-1.8c3.6 0 5.6 2.5 5.6 5.6 0 .4 0 .7-.1 1.1.6-1.6 2.5-2.4 5.9-2.4h3v-.5c0-1.4-1.3-2.3-3-2.3-2.5 0-2.8 1.7-2.8 1.7h-2.4c0-.5.4-3.2 5.4-3.2 1.7 0 3.6.4 4.6 1.8l-.7-1.3h3l4.1 8.2 4.1-8.2h2.5l-7.4 14.5h-2.8l2.2-4.1-4.6-8.5c.2.5.4 1.1.4 1.8v5.3c0 .6.1 1.6.1 1.6h-2.3s0-.7 0-1.6c0 0-1.2 1.9-4.7 1.9-2.6 0-4.6-1.2-4.6-3.6 0-.1 0-.2 0-.4-.7 2.4-2.8 4-5.4 4-3.2 0-4.4-1.8-4.4-1.8 0 .7-.1 1.4-.1 1.4h-2.4s0-1.1 0-1.8v-2.8h-9.6c0 2 1.6 3.5 3.7 3.5 2.6 0 3.1-1.8 3.1-1.8h2.5s-.4 3.4-5.5 3.4c-4.3-.1-6.2-2.3-6.2-5.7 0-4.4 2.9-5.8 6.2-5.8zm12 1.7c-2.5 0-3.7 2-3.7 4 0 2.2 1.3 4.1 3.7 4.1 2 0 3.7-1.6 3.7-4.1.2-2.3-1.4-4-3.7-4zm15.2 4.2c-3.8 0-6.5 0-6.5 1.9 0 1.1.7 1.9 2.6 1.9 3.4 0 3.8-2.3 3.8-3.1.1 0 .1-.7.1-.7z"/></svg>