<svg enable-background="new 0 0 48 48" viewBox="0 0 48 48" xmlns="http://www.w3.org/2000/svg"><path d="m31.5 23.2s.5-3.1 2.3-3.1 4.2 4.1 4.2 4.1-5.7-1-6.5-1zm9.3-16.7c-.8-1.5-5.1-3.1-7.4-3.1s-5.8 0-5.8 0-1.9-3.4-6.2-3.4c-4.4 0-4.1 1.9-4.1 3.6v6.7l-2 2h-9.3s-2.6 1.7-2.6 5.4 1.2 16.6 8.9 17.8c9.1 1.4 10.7-2.9 10.7-3.4 0-2.2 0-5.4 0-5.4s2.6 5 6.7 5 6.4 2.3 6.4 4.7 0 4.4 0 4.4 0 3-2.4 3-5 0-5 0-1.7-1.3-1.7-3.1.8-2.3 1.8-2.3 1.7.1 1.7.1v-3.7s-7.7 0-7.7 5.8c0 5.9 4 7.3 7.2 7.3s5.2 0 5.2 0 9.4-1.2 9.4-19.8c-.1-18.5-2.9-20.2-3.8-21.6zm-27.6 3.8h-7.8l9.7-9.8v7.9z"/></svg>