<svg enable-background="new 0 0 48 32" viewBox="0 0 48 32" xmlns="http://www.w3.org/2000/svg"><path d="m43.9 18.2 4-4.5h-4.7l-1.7 1.9-1.7-1.9h-8.8v-1.1h4.2v-3.7h-11.3v5.6c-.7-.8-1.6-1.1-2.6-1.1-2.1 0-3.8 1.5-4.3 3.3-1.4-4.5-7.3-4.3-9.2-1v-1.8h-4.1v-2h4.5v-3.1h-8.2v13.9h3.7v-5.8h3.7c-.1.4-.2.8-.2 1.4 0 5.5 7.7 6.9 9.8 1.8h-3.1c-1.1 1.6-3.4.6-3.4-1h6.4c.3 2.3 2.1 4.3 4.5 4.3 1 0 2-.5 2.6-1.4v.9h16l1.7-1.9 1.7 1.9h4.6zm-33.5-1.3c.4-2 3.1-1.9 3.4 0zm11.5 3.8c-2.6 0-2.5-4.7 0-4.7 2.5-.1 2.6 4.7 0 4.7zm12.6 1.4h-7.1v-12.6h7.1v2.3h-4.2v2.5h4.2v2.1h-4.2v3.3h4.2zm-3.4-3v-1.9h4.2v-3.3l3.8 4.3-3.8 4.3v-3.3h-4.2zm10.4.8-2 2.2h-2.8l3.4-3.9-3.4-3.9h2.9l2 2.2 1.9-2.2h2.9l-3.4 3.9 3.4 3.9h-3z"/></svg>