<svg enable-background="new 0 0 48 48" viewBox="0 0 48 48" xmlns="http://www.w3.org/2000/svg"><path d="m15.3 19.4h10.3l-1.6 5.7h-8.5v17.5c0 .8-.4 1.1.5 1.1l6.6.6v3.8h-20v-4l3.2-.4c.8-.1 1.1-.4 1.1-1.2v-17.1c0-.4-.5-.4-.8-.4h-3.5v-5.6h4.3v-3.2c0-7.6 4.1-10.7 11.8-10.7 5.2 0 9.8 1.2 9.8 8l-7.7 1c0-2.9-.7-3.5-2.5-3.5-2.8 0-2.9 1.6-2.9 4.2v3.6c.1.3-.5.6-.1.6zm30 28.7h-15.6v-3.7l3.1-.4c.8-.1 1.2-.2 1.2-1.1v-16.5c0-.6-.5-1.1-1.1-1.2l-3.7-1 1.1-4.4h12.2v23.2c0 .8-.4 1 .5 1.1l2.4.4v3.7h-.1zm-3.3-38.5 1.3 5-1.1 1.1-4.8-2.5-4.8 2.5-1.1-1.1 1.3-5-3.4-4.1.6-1.1h4.2l2.4-4.3h1.4l2.4 4.3h4.2l.5 1.4z"/></svg>