<svg enable-background="new 0 0 48 48" viewBox="0 0 48 48" xmlns="http://www.w3.org/2000/svg"><path d="m45.9 27h-2.6c-.2 0-.5.2-.5.5v3h-3.5v-16.9c0-.2-.2-.5-.5-.5h-2.5c-.2 0-.5.2-.5.5v3h-3.5v-3c0-.2-.2-.5-.5-.5h-2.5c-.2 0-.5.2-.5.5v3h-3.5v-3c0-.6-.7-.5-1.1-.5v-3.5c.7-.2 1.6-.4 2.4-.4 1.1 0 1.9.4 3 .4.5 0 2.6-.1 2.6-.7v-5.5c0-.2-.2-.5-.5-.5-.5 0-1.4.4-2.3.4-1 0-1.9-.4-3-.4-.7 0-1.6.1-2.3.2v-.3c.5-.2.8-.7.8-1.3 0-1.9-3-1.9-3 0 0 .6.4 1.1.8 1.3v10.5c-.4 0-1.1-.1-1.1.5v3h-3.5v-3c0-.2-.2-.5-.5-.5h-2.5c-.2 0-.5.2-.5.5v3h-2.6v-3c0-.2-.2-.5-.5-.5h-2.5c-.2 0-.5.2-.5.5v16.7h-3.5v-3c0-.3-.2-.5-.5-.5h-2.5c-.2 0-.5.2-.5.5v20.5h17.2v-9c0-6.9 10.3-6.9 10.3 0v9h17.2v-20.5c.1-.3 0-.5-.3-.5zm-27.1-.4c0 .2-.2.5-.5.5h-2.5c-.2 0-.5-.2-.5-.5v-6c0-.2.2-.5.5-.5h2.5c.2 0 .5.2.5.5zm13.8 0c0 .2-.2.5-.5.5h-2.5c-.2 0-.5-.2-.5-.5v-6c0-.2.2-.5.5-.5h2.5c.2 0 .5.2.5.5z"/></svg>