<svg enable-background="new 0 0 48 48" viewBox="0 0 48 48" xmlns="http://www.w3.org/2000/svg"><path d="m20.3 14.9h-7.4c-3.7-1-12.2-.7-12.2 7 0 2.9 1.4 4.8 3.2 5.8-2.4 2.2-3.5 3.1-3.5 4.6 0 1.1.4 2 1.7 2.5-1.3 1.3-2 2.2-2 4 0 3 2.6 4.8 9.5 4.8 6.6 0 10.4-2.5 10.4-6.8 0-5.5-4.2-5.3-14.2-5.9l1.2-2c2.5.7 11.2 1 11.2-6.4 0-1.8-.7-3-1.4-3.8l3.5-.2zm-6 22.7c0 3-9.8 3-9.8.2 0-.7.5-1.4 1-2 7.2.4 8.8.2 8.8 1.8zm-4.7-12.6c-4.9 0-4.7-6.7.1-6.7 4.6-.1 4.7 6.7-.1 6.7zm12.5 9.3v-3c2.5-.4 2.5-.2 2.5-1.1v-11.1c0-.8-.2-.7-2.5-1.6l.4-3.1h7.9v15.8c0 .6 0 .7.6.7l1.9.2v3zm4.9-22.9c-2.2 0-3.5-1.2-3.5-3.5s1.2-3.4 3.5-3.4c2.2 0 3.5 1.2 3.5 3.4s-1.3 3.5-3.5 3.5zm21 21.5c-1.7.8-4.1 1.6-6.2 1.6-4.6 0-6.2-1.8-6.2-6.1v-10c0-.5.1-.4-3-.4v-3.4c3.4-.4 4.7-2 5.2-6.2h3.6c0 6.1-.1 5.8.4 5.8h5.2v3.8h-5.6v9.1c0 .6-.5 4.8 5.6 2.5z"/></svg>