<svg enable-background="new 0 0 48 48" viewBox="0 0 48 48" xmlns="http://www.w3.org/2000/svg"><path d="m39.4 0c-10 0-11.9 14.3-6.2 14.3s16.2-14.3 6.2-14.3zm-15.4 1.8c-.1 0-.4 0-.5 0-5.6.7-3.6 10.6-.6 10.7 2.8.1 6-10.7 1.1-10.7zm-9.7 3.8c-.2 0-.6.1-1 .2-4.6 1.9-.7 9.6 1.8 9 2.3-.4 2.7-9.3-.8-9.2zm-7.2 6c-.4 0-.8.1-1.3.5-3.6 2.5 1.2 8.5 3.4 7.6 1.8-.9.6-7.9-2.1-8.1zm20 4.6c-7.7.1-17.4 4-19.1 11.5-1.9 8.5 7.7 20.3 17.8 20.3 4.9 0 10.7-4.4 11.8-10.2.8-4.3-9.6-2.6-9.2.2.5 3.5-2.5 5.2-5.4 2.9-9.2-7.1 15.4-10.6 13.7-20.2-.6-2.9-4.7-4.5-9.6-4.5z"/></svg>