<svg enable-background="new 0 0 48 48" viewBox="0 0 48 48" xmlns="http://www.w3.org/2000/svg"><path d="m0 0h48v48h-48zm40 12h-17.6l7.6 26-4 4h14c1.1 0 2-.9 2-2v-26c0-1.1-.9-2-2-2z" fill="none"/><path d="m43.2 7.2h-21.8l-2.2-7.2h-14.4c-2.6 0-4.8 2.2-4.8 4.8v31.2c0 2.6 2.2 4.8 4.8 4.8h16.8l2.4 7.2h19.2c2.6 0 4.8-2.2 4.8-4.8v-31.2c0-2.6-2.2-4.8-4.8-4.8zm-30.8 23c-5.4 0-9.8-4.4-9.8-9.8s4.4-9.8 9.8-9.8c2.5 0 4.8.8 6.6 2.5l.1.1-2.9 2.9-.1-.1c-.7-.6-1.9-1.4-3.6-1.4-3.1 0-5.8 2.6-5.8 5.8s2.5 5.6 5.8 5.6 4.7-2.2 5.2-3.5h-5.3v-3.7h9.5v.2c.1.5.1 1 .1 1.4-.2 5.9-4 9.8-9.6 9.8zm14.5-4c.8 1.4 1.8 2.9 2.9 4.1l-1.3 1.3zm1.8-2h-2.4l-.7-2.5h9.6s-.8 3.1-3.7 6.6c-1.4-1.4-2.2-2.9-2.8-4.1zm16.9 19c0 1.3-1.1 2.4-2.4 2.4h-16.8l4.8-4.8-1.9-6.6 2.2-2.2 6.5 6.5 1.8-1.8-6.5-6.5c2.2-2.5 3.8-5.4 4.6-8.4h3v-2.5h-8.9v-2.5h-2.5v2.5h-4.7l-2.8-9.7h21.1c1.3 0 2.4 1.1 2.4 2.4v31.2z"/></svg>