<svg enable-background="new 0 0 48 48" viewBox="0 0 48 48" xmlns="http://www.w3.org/2000/svg"><path d="m32.3 26.4-2.3-1.7c-.7-.6-1.2-1.1-1.2-1.8 0-.8.6-1.4 1.3-2.2 2.5-1.9 5.6-4.3 5.6-9.4 0-3.4-1.4-5.6-2.9-7.2h1.7l7.5-4.1h-16.7c-3.1 0-7.8.4-11.8 3.6-2.8 2.3-4.3 5.5-4.3 8.9 0 2.6 1.1 5.3 3 7.2 2.6 2.6 6 3.2 8.4 3.2h.6c-.1.4-.1.8-.1 1.3 0 1.3.5 2.4 1 3.2-3 .2-7.3.8-10.6 2.8-5.1 2.8-5.5 7-5.5 8.2 0 4.8 4.4 9.6 14.4 9.6 11.4 0 17.4-6.2 17.4-12.4.1-4.6-2.8-6.9-5.5-9.2zm-15.7-16.9c0-1.7.4-2.9 1.2-3.8.8-1 2.2-1.7 3.6-1.7 2.5 0 4.1 1.9 5 3.5 1.2 1.9 1.9 4.6 1.9 6.7 0 .6 0 2.5-1.3 3.7-.8.8-2.3 1.4-3.6 1.4-2.5 0-4.2-1.8-5-3.4-1.4-2.2-1.8-4.7-1.8-6.4zm15.1 28.5c0 3.5-3.1 5.5-8.3 5.5-6 0-10.1-2.5-10.1-6.4 0-3.2 2.6-4.6 4.7-5.3 2.4-.7 5.5-1 6.2-1h1.1c4.8 3.3 6.4 4.6 6.4 7.2z"/></svg>