<svg enable-background="new 0 0 48 48" viewBox="0 0 48 48" xmlns="http://www.w3.org/2000/svg"><path d="m31 28.5c0-7.2-11.7-11.8-11.7-19.7 0-4.5 3.7-8.5 4.4-8.8v1c0 8.9 16.4 14.9 16.4 26 0 4.8-3.6 7.7-7.4 10.5-7.3 4.5-8.7 6.9-8.7 8.4 0 1 .6 1.7.6 2.2-1.5-1.7-1.9-3-1.9-4.5 0-2.9 2.5-5.5 5-8.4 1.3-2.2 3.3-4.3 3.3-6.7zm-22.9-3.9c1.4-6.5 8.7-12.1 10.5-12.7l-.4.7c-.3.6-.4 1.1-.4 1.7 0 4.3 6.1 10.7 6.3 11.3.3.6.4 1 .4 1.5 0 1.9-1.7 4.1-1.9 4.1-.3 0-6.3-5.4-6.5-8.5-.7 1.1-1 2.2-1 3.3 0 4 4.7 9.4 4.7 9.4 0 1.1-3.6 5.1-4 5.1-.1 0-.3-.1-.4-.3-4.2-3.9-7.4-8.3-7.4-13.2-.1-.7 0-1.6.1-2.4z"/></svg>