<svg enable-background="new 0 0 48 48" viewBox="0 0 48 48" xmlns="http://www.w3.org/2000/svg"><path d="m13.9 0h20.2c7.7 0 13.9 6.2 13.9 13.9v20.2c0 7.7-6.2 13.9-13.9 13.9h-20.2c-7.7 0-13.9-6.2-13.9-13.9v-20.2c0-7.7 6.2-13.9 13.9-13.9zm-.5 4.8c-4.8 0-8.6 3.8-8.6 8.6v21.1c0 4.8 3.8 8.6 8.6 8.6h21.1c4.8 0 8.6-3.8 8.6-8.6v-21.1c0-4.8-3.8-8.6-8.6-8.6zm23.2 3.6c1.7 0 3 1.3 3 3s-1.3 3-3 3-3-1.3-3-3 1.3-3 3-3zm-12.6 3.6c6.6 0 12 5.4 12 12s-5.4 12-12 12-12-5.4-12-12 5.4-12 12-12zm0 4.8c-4 0-7.2 3.2-7.2 7.2s3.2 7.2 7.2 7.2 7.2-3.2 7.2-7.2-3.2-7.2-7.2-7.2z" fill="#0d0e0e"/></svg>