<svg enable-background="new 0 0 48 48" viewBox="0 0 48 48" xmlns="http://www.w3.org/2000/svg"><circle cx="23.9" cy="23.9" r="10"/><path d="m14.2 14c2.6-2.6 6.1-4.1 9.8-4.1s7.2 1.4 9.8 4.1c1.7 1.7 2.9 3.7 3.5 6h10.7v-14.1c0-3.4-2.5-5.9-5.9-5.9h-36c-3.3 0-6.1 2.5-6.1 5.9v14.1h10.7c.6-2.2 1.8-4.3 3.5-6zm29.8-3.6c0 .8-.7 1.6-1.6 1.6h-4.8c-.8 0-1.6-.7-1.6-1.6v-4.8c0-.8.7-1.6 1.6-1.6h4.8c.8 0 1.6.7 1.6 1.6z"/><path d="m34 33.8c-2.6 2.6-6.1 4.1-9.8 4.1s-7.2-1.4-9.8-4.1c-2.8-2.6-4.2-6.2-4.2-9.8h-10.2v17.9c0 3.3 2.8 6.1 6.1 6.1h36c3.4 0 5.9-2.8 5.9-6.1v-17.9h-10c0 3.6-1.4 7.2-4 9.8z"/></svg>