<svg enable-background="new 0 0 48 48" viewBox="0 0 48 48" xmlns="http://www.w3.org/2000/svg"><path d="m43.7 0h-39.4c-2.4 0-4.3 1.9-4.3 4.3v39.4c0 2.4 1.9 4.3 4.3 4.3h39.4c2.4 0 4.3-1.9 4.3-4.3v-39.4c0-2.4-1.9-4.3-4.3-4.3zm-24.9 12.1c0 2.5-2.4 2.9-2.9 2.9-1.6 0-2.9-1.3-2.9-2.9.1-3.7 5.8-3.7 5.8 0zm16.8 24.9c-7 0-3.6-8-2.6-11.4 1.6-4.9-4.8-6.4-6.4.1l-2.8 11h-4.8l.8-3.5c-3.2 5.6-10 4.8-10-.4 0-1.6.1-1.6 2.5-11.2h-3.3l1.1-3.8h7.9c-3.6 14.3-3.5 13.6-3.5 14.8 0 2.3 4.4 1.4 6.1-2.5l2.2-8.5h-3.5l1.1-3.8h7.3l-1 4.3c4.3-8 13.7-5.2 10.9 4.1-1.6 5.5-1.6 5.4-1.6 6.4 0 1.7 1.9 2.4 3.4-1.8l1.9.7c-1.1 3.8-3.1 5.5-5.7 5.5z"/></svg>