<svg enable-background="new 0 0 48 48" viewBox="0 0 48 48" xmlns="http://www.w3.org/2000/svg"><path d="m44.1 38.1c-.7 2.9-2.9 4.5-5.9 5-2.6.5-4.8.6-6.8-1.1-2.5-2.2-2.5-5.6-.2-7.9 1.8-1.7 4.3-2 8.1-2.8.6-.1 1.2-.2 1.7-.8.7-.7.5-.5.5-17.2 0-1.2-.6-1.6-1.8-1.3-.9.1-19.7 3.7-19.7 3.7-1.1.2-1.4.6-1.4 1.8 0 24.8.1 23.7-.2 25.4-.5 1.9-1.7 3.4-3.2 4.2-1.8 1-5 1.4-6.7 1.1-4.5-.8-6.2-6.1-3.1-9.2 1.8-1.7 4.3-2 8.1-2.8.6-.1 1.2-.2 1.7-.8 1.1-1.2.2-27.2.6-28.6.1-.6.4-1 .7-1.3.5-.4 1.2-.6 1.4-.6 21.5-4.1 24.2-4.5 24.5-4.5 1.2-.1 1.9.6 1.9 1.9-.1 36.4 0 34.5-.2 35.8z"/></svg>