<svg enable-background="new 0 0 48 48" viewBox="0 0 48 48" xmlns="http://www.w3.org/2000/svg"><path d="m31.7 29.3c1-.6 2.2-1.2 2.2-1.2s-3.6.6-7.2 1c-4.4.4-9.1.5-11.5.1-5.6-.7 3.1-2.9 3.1-2.9s-3.4-.2-7.6 1.8c-4.9 2.5 12.2 3.6 21 1.2zm-8-3c-1.8-4-7.8-7.6 0-13.7 9.7-7.5 4.8-12.6 4.8-12.6 2 7.9-7.1 10.3-10.3 15.2-2.3 3.4 1.1 7 5.5 11.1zm10.8-16.5s-16.4 4.1-8.5 13.2c2.3 2.6-.6 5-.6 5s5.9-3 3.1-6.8c-2.5-3.6-4.4-5.4 6-11.4zm-.6 25.3c0 .1-.1.1-.2.2 12-3.1 7.6-11.1 1.8-9.1-.4.1-.6.4-.7.6.4-.1.7-.2 1.1-.2 2.9-.6 7 3.9-2 8.5zm4.4 5.9s1.3 1.1-1.4 2c-5.4 1.7-22.5 2.2-27.3.1-1.7-.7 1.4-1.8 2.5-2s1.7-.2 1.7-.2c-1.9-1.3-12.3 2.6-5.3 3.7 19 3.1 34.7-1.4 29.8-3.6zm-21-3.9c-7.3 2 4.4 6.4 13.9 2.3-1-.4-1.8-.8-2.6-1.3-4.2.8-6.1.8-10 .5-3.1-.5-1.3-1.5-1.3-1.5zm16.9 9.1c-7.3 1.4-16.4 1.2-21.8.4 0 0 1.1 1 6.8 1.3 8.6.6 21.9-.4 22.2-4.4-.1-.1-.7 1.5-7.2 2.7zm-4-13.1c-5.5 1.1-8.8 1.1-12.8.6-3.1-.4-1.1-1.8-1.1-1.8-8.2 2.6 4.6 5.8 15.8 2.4-.7-.2-1.3-.7-1.9-1.2z"/></svg>