<svg enable-background="new 0 0 48 48" viewBox="0 0 48 48" xmlns="http://www.w3.org/2000/svg"><path d="m0 0h48v48h-48zm12.6 40.1c1.1 2.3 3.1 4.1 6.7 4.1 4 0 6.7-2.2 6.7-6.8v-15.3h-4.4v15.4c0 2.3-1 2.9-2.4 2.9-1.6 0-2.2-1.1-2.9-2.3zm16-.5c1.3 2.6 4.1 4.6 8.2 4.6 4.3 0 7.4-2.3 7.4-6.2 0-3.7-2.2-5.4-6-7.1l-1-.5c-1.9-.8-2.8-1.4-2.8-2.8 0-1.1.8-1.9 2.2-1.9 1.3 0 2.2.6 2.9 1.9l3.5-2.3c-1.4-2.6-3.6-3.6-6.4-3.6-4.1 0-6.6 2.5-6.6 6 0 3.7 2.2 5.4 5.4 6.8l1.1.5c2 1 3.2 1.4 3.2 3 0 1.3-1.2 2.3-3.1 2.3-2.3 0-3.5-1.2-4.4-2.8z"/></svg>