<svg enable-background="new 0 0 48 48" viewBox="0 0 48 48" xmlns="http://www.w3.org/2000/svg"><g transform="translate(384 48)"><path d="m-365.2-42h-8.5v22.9c0 5.7-1.9 7.2-5.3 7.2-1.6 0-3-.2-4.1-.6l-1 6.6c1.6.6 4 .8 5.9.8 7.7 0 13-3.6 13-14.1z"/><path d="m-346.4-42.9c-8.3 0-13.6 4.7-13.6 10.9 0 5.4 4.1 8.8 10 10.9 4.2 1.6 5.9 2.9 5.9 5.1 0 2.4-1.9 4-5.7 4-3.4 0-6.5-1.2-8.7-2.3l-1.7 6.7c2 1.1 5.8 2.3 9.7 2.3 9.7 0 14.3-5.2 14.3-11.3 0-5.2-2.9-8.5-9.1-10.9-4.7-1.8-6.6-2.9-6.6-5.2 0-1.8 1.7-3.5 5.2-3.5 3.4 0 5.8 1.2 7.1 1.8l2-6.9c-1.8-.9-4.7-1.6-8.8-1.6z"/></g></svg>