<svg enable-background="new 0 0 48 48" viewBox="0 0 48 48" xmlns="http://www.w3.org/2000/svg"><path d="m.2 6.4c0-3.6 2.9-6.5 6.3-6.5 3.2 0 5.9 2.4 6.3 5.4 3.5-.8 7.2.1 10.3 3.2l-4.8 4.8c-2.2-2.2-4.5-1.8-5.9-.4-1.6 1.6-1.6 4.1 0 5.6l10.7 10.7-4.7 4.8c-9.3-9.3-5.3-5.3-10.7-10.7-3-3-3.8-7.1-2.8-10.8-2.7-.5-4.7-3-4.7-6.1zm13.7 12.5 4.8 4.8c1.1-1.1 9.6-9.6 10.7-10.7 1.6-1.6 4.1-1.6 5.5 0 1.3 1.3 1.8 3.7-.4 5.9l4.7 4.8c3.4-3.4 4.1-7.2 3.1-10.8 3.1-.5 5.5-3.1 5.5-6.3 0-3.6-2.9-6.5-6.3-6.5-3.2 0-5.9 2.4-6.3 5.5-3.6-1.1-7.7-.1-10.5 2.6-2 2-7.7 7.7-10.8 10.7zm28.5 16.2c.8-3.5-.1-7.3-2.8-10.1-1.3-1.3.5.5-10.7-10.7l-4.8 4.8 10.7 10.7c1.6 1.6 1.6 4.1 0 5.5-1.3 1.3-3.7 1.8-5.9-.4l-4.7 4.8c3 3.2 7.3 4.2 11 3 .6 2.9 3.2 5.1 6.3 5.1 3.5 0 6.3-2.9 6.3-6.5.1-3-2.3-5.7-5.4-6.2zm-9-5.6-4.7-4.8c-9.3 9.2-5.4 5.4-10.7 10.7-1.6 1.6-4.1 1.6-5.5 0-1.4-1.4-1.8-3.8.4-5.9l-4.7-4.8c-3.1 3.3-4 7-3 10.6-3.1.6-5.2 3.2-5.2 6.2 0 3.6 2.9 6.5 6.4 6.5 3.1 0 5.6-2.2 6.2-5 3.5.8 7.3-.1 10.1-2.8 3.4-3.5 1.4-1.3 10.7-10.7z"/></svg>