<svg enable-background="new 0 0 48 48" viewBox="0 0 48 48" xmlns="http://www.w3.org/2000/svg"><path d="m32.8 34.9c2 0 3.7-.7 5-2s2-3 2-4.9-.7-3.6-2.2-4.9c-1.4-1.3-3.1-2-5.1-2-1.9 0-3.5.6-4.9 1.9l-9.6 8.1c-.8.8-1.9 1.3-3.2 1.3-1.2 0-2.3-.5-3.2-1.3-.8-.8-1.3-1.9-1.3-3.1s.5-2.2 1.3-3.1c.8-.8 1.9-1.3 3.2-1.3 1.2 0 2.3.5 3.2 1.3l1.6 1.3 1.9-1.8-1.7-1.4c-1.3-1.3-3.1-2-5-2s-3.6.7-5 2-2.2 3-2.2 4.9.7 3.6 2.2 4.9c1.4 1.3 3.1 2 5.1 2 1.9 0 3.5-.6 4.9-1.9l9.6-8.1c.8-.8 1.9-1.2 3.2-1.2 1.2 0 2.3.5 3.2 1.3.8.8 1.3 1.9 1.3 3.1s-.5 2.2-1.3 3.1c-.8.8-1.9 1.3-3.2 1.3-1.1 0-2.2-.5-3.2-1.4l-1.6-1.3-1.8 1.7 1.7 1.4c1.4 1.5 3.2 2.1 5.1 2.1zm5.9-14.9c2.5.2 4.8 1.2 6.6 3.1s2.8 4.2 2.8 6.8c0 2.8-1 5.1-3 7.1-1.9 1.9-4.3 3-7.1 3h-26c-3.4 0-6.1-1.2-8.5-3.5s-3.5-5.1-3.5-8.4c0-2.9 1.1-5.5 3.1-7.9s4.5-3.7 7.5-4c1.3-2.4 3.1-4.4 5.5-5.9 2.4-1.6 4.9-2.3 7.8-2.3 3.4 0 6.5 1.2 9.5 3.6 2.9 2.3 4.6 5.2 5.3 8.4z"/></svg>