<svg enable-background="new 0 0 48 48" viewBox="0 0 48 48" xmlns="http://www.w3.org/2000/svg"><path d="m42.9 22.4c-.4-.2-.5-.5-.6-1-.2-1.4-.4-2.9-.7-4.2-3.1-8.4-13.1-12.1-21-7.7-2.3 1.3-4.2 3.1-5.5 5.4-.2-.1-.5-.2-.7-.4-2.5-1.1-5-.8-7.2.7s-3.1 3.8-2.8 6.5c0 .2-.1.6-.4.8-3.4 2.5-4.8 6.6-3.6 10.6 1.2 3.8 4.9 6.8 9 7 2.5.1 5.2 0 7.7 0h21.5c4.4 0 8.2-3.1 9.2-7.4.9-3.9-1-8.1-4.9-10.3zm1.8 13.4c-1.6 1.9-3.6 3-6 3-4.8.1-9.7 0-14.5 0 0 0-13.8 0-13.9 0-3.7 0-6.5-1.7-8-5-1.6-3.5-.4-7.7 2.9-9.8.8-.6 1-1.1.8-2-.5-2.3.4-4.1 2.3-5.4s4.1-1.3 6.1-.2c.8.5 1.2 1 1.9-.2 1.2-2.3 2.9-4 5.2-5.2 8.3-4.6 19.4.6 19.6 11.3 0 .7.2 1.1.8 1.3 4.6 2.2 6.1 8.1 2.8 12.2zm-7.5-6.9c-.5 2.6-3 4.7-5.6 4.7-1.4 0-2.8-.6-3.7-1.6-2.4-2.2-6-6.4-8.2-7.9-1.7-1.3-3.6-1.1-5.2.4-4.2 3.7 1.3 10.3 5.6 6.6.4-.4.7-.8 1.1-1.1.7-.5 1.8-.1 1.1 1-1.4 2.3-4.2 3.2-6.7 2.5-2.4-.7-4.2-3-4.1-6 .1-1.9 1.1-3.6 3-4.8 1.9-1.1 4-1.1 5.6.2 4.3 3.2 6.5 7 9.1 8.6 2 1.3 4.6.6 5.9-1.4 2.4-4.2-2.9-8.9-6.7-5.4-.4.4-.6.7-1 1-1 .6-1.4-.4-1.1-.8 1.8-2.4 4.3-3.5 7.1-2.4 2.8.8 4.4 3.5 3.8 6.4z"/></svg>