<svg enable-background="new 0 0 48 48" viewBox="0 0 48 48" xmlns="http://www.w3.org/2000/svg"><path d="m10 6h4v4h-4v10c0 2.2-1.8 4-4 4 2.2 0 4 1.8 4 4v10h4v4h-4c-2.2-.5-4-1.8-4-4v-8c0-2.2-1.8-4-4-4h-2v-4h2c2.2 0 4-1.8 4-4v-8c0-2.2 1.8-4 4-4zm28 0c2.2 0 4 1.8 4 4v8c0 2.2 1.8 4 4 4h2v4h-2c-2.2 0-4 1.8-4 4v8c0 2.2-1.8 3.5-4 4h-4v-4h4v-10c0-2.2 1.8-4 4-4-2.2 0-4-1.8-4-4v-10h-4v-4zm-14 24c1.1 0 2 .8 2 2s-.8 2-2 2-2-.8-2-2 .9-2 2-2zm-8 0c1.1 0 2 .8 2 2s-.8 2-2 2-2-.8-2-2 .9-2 2-2zm16 0c1.1 0 2 .8 2 2s-.8 2-2 2-2-1-2-2 .8-2 2-2z"/></svg>