<svg enable-background="new 0 0 48 48" viewBox="0 0 48 48" xmlns="http://www.w3.org/2000/svg"><path d="m19.2 16.3s12.7-16.3 15.3-16.3c2.2 0 4 .7 5.5 2.3 1.6 1.6 2.4 3.4 2.4 5.5 0 1.6-.4 3-1.2 4.2l-7.9 11.5 9.7 12.3c1 1.2 1.4 2.6 1.4 4.3 0 2.2-.7 4.1-2.3 5.6-1.6 1.6-3.4 2.3-5.5 2.3-2.4 0-4.2-.7-5.4-2.3l-12.1-15v8.3c0 2.3-.4 4.2-1.2 5.4-1.4 2.4-3.6 3.5-6.5 3.5-2.5 0-4.5-.8-6-2.6-1.2-1.4-1.9-3.6-1.9-6.2v-30.3c0-2.5.7-4.5 2-6.1 1.6-1.8 3.5-2.6 5.9-2.6s4.3.8 5.9 2.5c.8 1 1.4 1.9 1.7 2.9.2.6.2 1.8.2 3.4z"/></svg>