<svg enable-background="new 0 0 48 48" viewBox="0 0 48 48" xmlns="http://www.w3.org/2000/svg"><path d="m24.1 0c-.5 0-1 .2-1.3.7-1.8 1.8-3.7 3.7-5.5 5.5-.5.5-.6.7-1.1 1.2-.6.5-.8 1.2-.8 1.9 0 2.8.1 5.5.1 8.4s0 5.9 0 8.8c0 .2 0 .4.1.6.1.7.6.8 1.1.4 2.6-2.6 4.9-5 7.6-7.7l8.9-8.9c.8-.8.8-1.9 0-2.8-2.5-2.5-5-5-7.6-7.4-.6-.5-1.1-.7-1.5-.7zm14.4 14.5c-.5 0-.8.2-1.3.6-2.5 2.5-5 5-7.6 7.6-.8.8-.8 1.8 0 2.6 2.5 2.5 5 5 7.4 7.6.8.8 1.8.8 2.6 0 2.4-2.4 4.8-4.8 7.3-7.3.4-.4.7-.7.8-1.2v-.7c-.1-.5-.5-.8-.8-1.2-2.4-2.4-4.8-4.9-7.3-7.3-.2-.4-.6-.7-1.1-.7zm-30.2 1c-.2-.1-.5.1-.6.2-2.5 2.5-4.7 4.8-7.2 7.3-.6.6-.6 1.4 0 1.9l4.1 4.1 3.2 3.2c.4.4.6.4.8-.1.1-.2.1-.5.1-.7 0-2.5 0-4.6 0-7.2s0-5.2 0-7.8c0-.1 0-.4-.1-.6 0 0-.1-.2-.3-.3zm15.9 13.4c-.5 0-1 .2-1.3.6-2.5 2.5-5 5.2-7.4 7.7-.8.8-.8 1.8 0 2.6 2.4 2.4 4.9 4.8 7.3 7.3.4.4.7.7 1.2.8h.6c.5-.1.8-.5 1.2-.8 2.4-2.5 4.9-4.9 7.3-7.3.9-.8.9-1.8-.1-2.7-2.5-2.5-5-5-7.4-7.6-.5-.3-1-.6-1.4-.6z"/></svg>