<svg enable-background="new 0 0 48 48" viewBox="0 0 48 48" xmlns="http://www.w3.org/2000/svg"><path d="m47.8 22.9c-.4-.4-4.7-5.9-5.5-6.8s-1.2-.7-1.7-.7c-.5.1-6 1-6.7 1.1-.6.1-1.1.4-.6 1 .4.5 4 5.6 4.8 6.8l-14.5 3.5-11.6-19.3c-.5-.7-.6-1-1.6-.8-1.1 0-9.1.7-9.6.7-.6 0-1.2.2-.6 1.7s9.7 21 10 21.5c.2.6 1 1.4 2.4 1.1 1.6-.4 7.1-1.8 10.1-2.6 1.6 2.9 4.8 8.6 5.4 9.5.8 1.1 1.3 1 2.5.6 1-.2 15-5.3 15.6-5.6.6-.2 1-.5.6-1.1-.4-.5-4-5.4-6-8 1.3-.4 6-1.6 6.6-1.8.6-.1.8-.4.4-.8zm-26.4 5.4c-.1 0-8.3 2-8.8 2s-.5 0-.5-.1-9.7-19.9-9.8-20.1-.1-.5 0-.5 7.7-.7 7.9-.7.2 0 .4.2c0 0 10.7 18.4 10.8 18.7.2.4.1.5 0 .5zm22.9 4.4c.1.2.2.4-.1.5-.4.1-13.8 4.7-14 4.8s-.5.1-.8-.4c-.4-.5-4.7-8-4.7-8l14.2-3.7c.4-.1.5-.2.7.1.2.4 4.6 6.5 4.7 6.7zm1-10.1c-.4.1-5.5 1.3-5.5 1.3l-4.3-5.9c-.1-.1-.2-.4.1-.4.4 0 5-.8 5.2-.8s.4-.1.7.2c.4.4 4 5 4.1 5.2.2.2-.1.4-.3.4z"/></svg>