<svg enable-background="new 0 0 48 48" viewBox="0 0 48 48" xmlns="http://www.w3.org/2000/svg"><path d="m38.4 38.3c-5 0-7.7-2.5-9.5-6.8l-.5-1.2-4.6-10.4c-1.6-3.7-5.3-6.2-9.5-6.2-5.7-.1-10.3 4.5-10.3 10.3s4.7 10.4 10.4 10.4c4 0 7.4-2.3 9.2-5.6l1.8 4.3c-2.6 3.2-6.7 5.3-11.2 5.3-7.8 0-14.2-6.5-14.2-14.4s6.4-14.4 14.3-14.4c6 0 10.8 3.2 13.2 8.9.2.5 2.6 6.1 4.7 10.9 1.3 3 2.4 4.9 6 5 3.5.1 6-2 6-4.8 0-2.6-1.8-3.4-4.9-4.3-5.6-1.8-8.5-3.7-8.5-8.2 0-4.3 3-7.3 7.7-7.3 3.1 0 5.4 1.4 7 4.2l-3.1 1.6c-1.2-1.7-2.4-2.3-4.1-2.3-2.3 0-3.8 1.6-3.8 3.7 0 3 2.6 3.4 6.4 4.7 4.9 1.7 7.3 3.5 7.3 8.2-.2 4.8-4.4 8.4-9.8 8.4z"/></svg>