<svg enable-background="new 0 0 48 48" viewBox="0 0 48 48" xmlns="http://www.w3.org/2000/svg"><path d="m45.9 21.3c0-1.5.2-2.4.2-4.1 0-2.5-.9-3.4-3.1-3.4h-1.5v1.8h.5c1 0 1.3.3 1.3 1.7 0 1.3-.1 2.4-.1 3.9 0 1.8.6 2.5 1.7 2.7v.1c-1.1.2-1.7 1-1.7 2.7 0 1.4.1 2.5.1 3.9s-.2 1.7-1.3 1.7h-.5v1.9h1.5c2.1 0 3.1-.8 3.1-3.4 0-1.7-.2-2.5-.2-4.1 0-.8.5-1.7 2.1-1.7v-2c-1.6 0-2.1-.9-2.1-1.7zm-7.9 2.4c-1.1-.5-2.3-.8-2.3-1.5 0-.6.5-.9 1.4-.9s1.7.3 2.5 1l1.6-2.1c-1-.8-2.3-1.5-4.1-1.5-2.6 0-4.4 1.5-4.4 3.6 0 1.9 1.7 3 3.1 3.4 1.3.5 2.4.9 2.4 1.7 0 .6-.5 1-1.5 1s-1.9-.3-3.1-1.3l-1.6 2.3c1.1 1 3 1.7 4.4 1.7 3.2 0 4.8-1.7 4.8-3.8s-1.6-3.1-3.2-3.6zm-26.8 4.4c-.2 0-.7-.2-.7-1v-13.2h-5.6c-2.2 0-3.1.8-3.1 3.4 0 1.7.2 2.6.2 4.1 0 .8-.5 1.7-2.1 1.7v2.1c1.5 0 2.1.9 2.1 1.7 0 1.5-.2 2.3-.2 4 0 2.5.9 3.4 3.1 3.4h1.5v-1.8h-.5c-1 0-1.3-.3-1.3-1.7s.1-2.4.1-3.9c0-1.8-.6-2.5-1.7-2.7v-.2c1.1-.2 1.7-1 1.7-2.7 0-1.4-.1-2.5-.1-3.9s.2-1.7 1.3-1.7h1v11.3c0 2.4.8 4 3.2 4 .8 0 1.4-.1 1.7-.2l-.3-2.5c-.1-.2-.2-.2-.3-.2zm17.3-4.4c-1.3-.5-2.3-.8-2.3-1.5 0-.6.5-.9 1.4-.9s1.7.3 2.5 1l1.6-2.1c-1-.8-2.3-1.5-4.1-1.5-2.6 0-4.4 1.5-4.4 3.6 0 1.9 1.7 3 3.1 3.4 1.3.5 2.4.9 2.4 1.7 0 .6-.5 1-1.5 1s-1.9-.3-3.1-1.3l-1.5 2.3c1.1 1 3 1.7 4.4 1.7 3.2 0 4.8-1.7 4.8-3.8-.1-2.2-1.8-3.1-3.3-3.6zm-11.6-5.2c-2.9 0-5.6 2.4-5.6 6.2 0 3.9 2.5 6.2 5.9 6.2 1.4 0 3-.5 4.2-1.4l-1.1-2.1c-.9.5-1.7.8-2.5.8-1.6 0-2.7-.8-3.1-2.5h7.1c0-.2.1-.8.1-1.5 0-3.2-1.7-5.7-5-5.7zm-2.3 4.9c.2-1.6 1.1-2.3 2.3-2.3 1.4 0 1.9 1 1.9 2.3z"/></svg>