<svg enable-background="new 0 0 48 48" viewBox="0 0 48 48" xmlns="http://www.w3.org/2000/svg"><path d="m23.6 11.5c.1 0 .1.1.2.1s.2 0 .2-.1-.1-.2-.2-.2c-.1-.1-.4-.1-.5 0 0 0-.1.1 0 .1 0 0 .3 0 .3.1zm-2.1.2c.1 0 .2-.1.2-.1.1 0 .2 0 .4-.1v-.1c-.1-.1-.4 0-.5 0s-.4.1-.2.2c-.1.1.1.1.1.1zm20.8 26.2c-.4-.4-.5-1.1-.7-1.8-.1-.7-.4-1.6-1-2-.1-.1-.2-.2-.4-.2-.1-.1-.2-.1-.4-.2.8-2.5.5-5.2-.4-7.5-1.1-2.9-2.9-5.3-4.3-7-1.6-2-3.1-4-3.1-6.7.1-4.4.6-12.4-7-12.5-9.6 0-7.2 9.7-7.3 12.7-.1 2.2-.6 4-2.2 6.1-1.8 2.2-4.3 5.5-5.4 9.1-.6 1.7-.8 3.4-.6 5.1-.6.6-1.1 1.3-1.6 1.9-.4.4-1 .6-1.6.7s-1.4.4-1.7 1.2c-.2.4-.2.7-.2 1.2 0 .4 0 .7.1 1.1.1.7.2 1.4.1 1.9-.5 1.3-.6 2.3-.2 3s1.1 1 1.9 1.2c1.7.4 3.8.2 5.5 1.2 1.8 1 3.7 1.3 5.3 1 1.1-.2 1.9-.8 2.4-1.9 1.2 0 2.5-.5 4.6-.6 1.4-.1 3.1.5 5.2.4 0 .2.1.5.2.6.7 1.6 2.3 2.3 3.7 2.2 1.6-.1 3.2-1.1 4.6-2.6 1.3-1.6 3.4-2.2 4.8-3 .7-.5 1.2-1 1.3-1.7-.1-1-.5-1.8-1.6-2.9zm-18.4-29.8c1-2 3.2-2 4.1 0 .6 1.3.4 2.9-.4 3.8-.1-.1-.6-.2-1.2-.5.1-.1.2-.2.4-.5.5-1.1 0-2.5-.8-2.5-.7 0-1.3 1-1.1 2.2-.4-.2-.8-.4-1.2-.4-.1-.7-.1-1.4.2-2.1zm-3.8-1.1c1 0 1.9 1.3 1.8 3.1-.4.1-.7.2-1 .5.1-.8-.4-1.9-.8-1.8-.8.1-1 2-.1 2.6.1.1.1 0-.6.5-1.6-1.3-1.1-4.9.7-4.9zm-1.3 5.7c.6-.5 1.3-1 1.3-1 .5-.4 1.3-1.3 2.6-1.3.7 0 1.4.2 2.4.8.6.4 1.1.4 2.2.8.8.4 1.3 1 1 1.7-.2.7-1.1 1.3-2.2 1.7-1.1.5-1.8 1.6-3.6 1.6-.4 0-.6-.1-.8-.2-.7-.4-1.2-1-1.9-1.4-.8-.5-1.2-1-1.3-1.4-.2-.5-.1-1 .3-1.3zm.3 31.4c-.2 3.2-4.1 3.2-7.1 1.7-2.8-1.4-6.5-.6-7.2-2-.2-.5-.2-1.2.2-2.5.2-.7 0-1.4 0-2.3-.1-.7-.1-1.4.1-1.9.4-.7.9-.9 1.5-1.1 1-.4 1.1-.4 1.8-1 .5-.5.8-1.2 1.3-1.7s1-.7 1.7-.6 1.4.6 2 1.4l1.8 3.4c.9 1.9 4 4.7 3.9 6.6zm-.1-2.4c-.4-.6-.8-1.3-1.3-1.8.7 0 1.3-.2 1.6-.8.2-.6 0-1.4-.7-2.3-1.3-1.7-3.6-3-3.6-3-1.4-.8-2-1.8-2.4-2.8s-.2-2.2 0-3.2c.5-2.2 1.8-4.2 2.5-5.5.2-.1.1.2-.8 1.9-.8 1.6-2.3 5.1-.2 7.7 0-1.9.5-4 1.3-5.8 1.1-2.5 3.5-7.1 3.7-10.6.1.1.5.2.6.4.5.2.7.6 1.2 1 1.2 1 2.6.8 4 .1.6-.4 1.1-.7 1.4-.8 1-.2 1.7-.8 2-1.4.7 2.9 2.4 7 3.5 9 .6 1.1 1.7 3.4 2.2 6 .4 0 .6 0 1.1.1 1.3-3.4-1.1-7-2.2-7.9-.5-.5-.5-.6-.2-.6 1.2 1.1 2.8 3.1 3.2 5.5.2 1.1.4 2.3 0 3.4 1.6.6 3.4 1.7 2.9 3.2-.2 0-.2 0-.4 0 .2-1-.4-1.7-2.2-2.4-1.8-.8-3.4-.8-3.6 1.2-1.1.4-1.7 1.3-2 2.5-.2 1.1-.4 2.3-.4 3.7 0 .7-.4 1.7-.6 2.8-2.9 1.9-7.1 2.8-10.6.4zm24.2-1c-.1 1.6-3.8 1.9-5.9 4.3-1.2 1.4-2.8 2.3-4.1 2.4s-2.5-.5-3.1-1.8c-.5-1.1-.2-2.2.1-3.4.4-1.3.8-2.6 1-3.8.1-1.4.1-2.6.4-3.6.2-1 .6-1.6 1.3-1.9h.1c.1 1.2.7 2.5 1.8 2.8 1.2.4 2.9-.7 3.6-1.6.8 0 1.4-.1 2.2.5 1 .8.7 2.9 1.6 3.8.6.9 1 1.8 1 2.3zm-24.1-26.9c.2.1.5.5.7.7.6.5 1.4 1 2.5 1s2.2-.6 3-1c.5-.2 1.1-.6 1.4-1 .4-.4.6-.6.2-.6s-.2.2-.6.5c-.4.2-1 .7-1.3 1-.7.4-1.8 1-2.8 1s-1.8-.5-2.3-1c-.2-.2-.5-.5-.7-.6-.1-.1-.1-.5-.4-.5.1-.1.1.3.3.5z"/></svg>