<svg enable-background="new 0 0 48 48" viewBox="0 0 48 48" xmlns="http://www.w3.org/2000/svg"><path d="m35.4 22.7h1c.1-.4.2-1.1 0-1.9-.2-1.2-.6-1.8-1.2-1.7s-.7 1-.5 2c.2.7.5 1.2.7 1.6zm-5.8.8c.5.2.7.4.8.2.2-.2-.4-1-1.3-1.4-1.1-.5-2.3-.4-3.2.4-.4.2-.6.6-.6.7.1.4 1.1-.2 2.4-.4.9.2 1.5.4 1.9.5zm-.9.6c-1 .1-1.6.7-1.4 1.1.1 0 .1.1.6-.1.6-.2 1.3-.4 2-.2h.5c.1-.3-.6-.9-1.7-.8zm5.7 1.8c.4-.7-1.2-1.4-1.6-.7-.2.7 1.3 1.4 1.6.7zm1.7-2.1c-.8 0-.8 1.7 0 1.7.8-.1.8-1.7 0-1.7zm-23.2 8.3c-.1 0-.6.1-1-.2-.6-.8 1.2-2.2.4-3.8-1-1.9-3-1.4-3.7-.6-1 1.1-1 2.5-.5 2.5.5.1.5-.7.8-1.2.4-.6 1.3-.8 1.9-.4 1.2.8.1 1.9.2 3 .1 1.8 1.9 1.8 2.3 1 0-.1 0-.1 0-.2-.1.1-.1-.2-.4-.1zm32-1.8c-.4-1.2-.2-1-.7-2.2.2-.4 1.7-2.5-.4-4.7-1.1-1.2-3.6-1.8-4.4-2-.1-1.2.5-6.2-2.3-8.9 2.3-2.3 3.6-4.8 3.6-6.9 0-4.2-5.1-5.4-11.5-2.9l-1.3.6s-2.4-2.4-2.5-2.4c-7.3-6.1-29.8 18.9-22.6 25l1.6 1.3c-.5 1.2-.6 2.4-.5 3.6.4 3.6 3.8 6.5 7.2 6.5 6.1 14.2 28.6 14.2 34.4.4.2-.5 1-2.6 1-4.6-.1-1.9-1.1-2.8-1.6-2.8zm-33.8 5.2c-2.4-.1-5-2.3-5.3-4.9-.6-6.6 7.9-8 9-1.3.4 3.2-.6 6.3-3.7 6.2zm-1.9-12.2c-1.7.4-3 1.2-4 2.5-.5-.5-1.4-1.3-1.7-1.6-1.4-2.6 1.6-7.8 3.6-10.7 5.1-7.1 13-12.5 16.6-11.5.6.1 2.5 2.4 2.5 2.4s-3.6 2-7.1 4.8c-4.5 3.5-7.9 8.6-9.9 14.1zm25.4 10.8s-3.8.6-7.4-.7c.7-2.2 2.9.6 10.3-1.4 1.7-.5 3.8-1.4 5.4-2.8.4.8.6 1.7.7 2.6.4-.1 1.6 0 1.2 1.9-.4 2.2-1.2 3.8-2.8 5.4-1 1.1-2 1.9-3.4 2.5-.7.4-1.4.7-2.2 1-5.7 1.9-11.4-.3-13.3-4.6-.1-.4-.2-.7-.4-1.1-.8-2.9-.1-6.3 2-8.6.1-.1.2-.4.2-.5s-.1-.4-.2-.5c-.7-1.1-3.4-2.9-2.8-6.5.4-2.5 2.6-4.3 4.7-4.3h.5c1 0 1.7.1 2.4.2 1.2 0 2.4-.1 3.7-1.2.5-.4.8-.7 1.4-.8.5-.1 1.1 0 1.4.2 1.1.7 1.2 2.4 1.3 3.7 0 .7.1 2.4.1 3 .1 1.2.4 1.3 1 1.4.4.1.6.2 1.1.4 1.4.4 2.3.8 2.8 1.3.2.2.5.6.5 1 .1 1.2-1 2.8-3.8 4.1-5 2.3-9.9 1.6-10.8 1.4-2.2-.2-3.4 2.5-2 4.4 2.4 3.6 13.1 2.2 16.2-2.3.1-.1 0-.1-.1-.1-4.4 3-10.3 4.1-13.7 2.8-.5-.2-1.6-.7-1.7-1.8 4.7 1.4 7.5.1 7.5.1s.5-.2.2-.2zm-16.2-20.6c1.8-2 4-3.8 6-4.9h.1v.1c-.1.2-.5.8-.6 1.3v.1h.1c1.2-.8 3.4-1.7 5.3-1.8 0 0 .1 0 .1.1v.1c-.4.3-.6.5-.8.9v.1c1.3 0 3.1.5 4.4 1.2.1 0 0 .2-.1.2-7.4-1.9-13.2 1.8-14.5 2.6.1.1 0 .1 0 0z"/></svg>