<svg enable-background="new 0 0 48 36" viewBox="0 0 48 36" xmlns="http://www.w3.org/2000/svg"><path d="m23.8 32.7c-.1 0-.3 0-.5-.1l-1.5-.9c-.2-.1-.1-.1 0-.2.2-.1.3-.1.7-.3h.1l1.1.7h.1l4.3-2.5.1-.1v-5s0-.1-.1-.1l-4.3-2.5h-.1l-4.3 2.3-.1.1v5s0 .1.1.1l1.1.7c.7.3 1-.1 1-.5v-4.9c0-.1 0-.1.1-.1h.6c.1 0 .1 0 .1.1v4.9c0 .9-.5 1.4-1.3 1.4-.2 0-.5 0-1-.2l-1-.7c-.2-.1-.5-.5-.5-.8v-5c0-.3.2-.7.5-.8l4.3-2.5c.2-.1.7-.1.9 0l4.3 2.5c.2.1.5.5.5.8v5c0 .3-.2.7-.5.8l-4.3 2.5c-.2.1-.3.3-.4.3zm3.4-5c0-.9-.7-1.1-1.9-1.4-1.4-.2-1.5-.2-1.5-.6 0-.2.1-.6 1.1-.6.9 0 1.3.2 1.4.8 0 .1.1.1.1.1h.6.1c-.1-1-.8-1.5-2.2-1.5-1.3 0-1.9.6-1.9 1.4 0 .9.7 1.3 1.9 1.4 1.4.1 1.5.3 1.5.6 0 .5-.3.7-1.3.7-1.1 0-1.4-.2-1.5-.8 0-.1-.1-.1-.1-.1h-.7c-.1 0-.1 0-.1.1 0 .7.3 1.6 2.3 1.6 1.4-.2 2.2-.7 2.2-1.7zm4.1-3.7c0 .5-.3.8-.8.8s-.8-.3-.8-.8.3-.8.8-.8c.5-.1.8.2.8.8zm-.1 0c0-.3-.3-.7-.7-.7-.3 0-.7.3-.7.7 0 .3.3.7.7.7s.7-.4.7-.7zm-.3.4h-.2s0-.2 0-.3c0 0 0-.1-.1-.1h-.1v.3h-.2v-.9h.3c.1 0 .3 0 .3.2s-.1.2-.2.2c.1 0 .1.1.1.2.1.2.1.3.1.4zm-.3-.7c0-.1-.1-.1-.1-.1h-.1v.2h.1c.1.1.1-.1.1-.1zm-20.3-10.7c0-.2-.1-.3-.2-.5l-4.6-2.6c-.1 0-.1-.1-.2-.1-.2 0-.3 0-.3.1l-4.6 2.6c-.3.2-.4.4-.4.5v7.2c0 .1 0 .2.1.2s.2 0 .2 0l2.7-1.6c.2-.1.3-.2.3-.5v-3.3c0-.2.1-.3.2-.5l1.1-.7c.1 0 .2-.1.2-.1.1 0 .2 0 .2.1l1.1.7c.3 0 .5.2.5.5v3.3c0 .2.1.3.2.5l2.7 1.6h.2c.1 0 .1-.1.1-.2zm25.1-7.8v13.3c0 .2-.1.3-.2.5l-4.6 2.6c-.2.1-.3.1-.6 0l-4.6-2.6c-.2-.1-.2-.2-.2-.5v-5.3c0-.2.1-.3.2-.5l4.6-2.6c.2-.1.3-.1.6 0l1.1.7c.1.1.3 0 .3-.1v-7.1c0-.2.2-.3.5-.2l2.7 1.5c.1 0 .2.2.2.3zm-3.4 9.7s0-.1-.1-.1l-1.6-.9h-.1l-1.6.9-.1.1v1.8s0 .1.1.1l1.6.9h.1l1.6-.9.1-.1zm15.8-.1c.2-.1.2-.2.2-.5v-1.3c0-.2-.1-.3-.2-.5l-4.6-2.5c-.2-.1-.3-.1-.6 0l-4.6 2.6c-.2.1-.2.2-.2.5v5.3c0 .2.1.3.2.5l4.6 2.6c.1.1.3.1.6 0l2.7-1.5c.2-.1.2-.3 0-.5l-4.6-2.6c-.2-.1-.2-.2-.2-.2v-1.7c0-.1 0-.2.1-.2l1.5-.8h.2l1.5.8c.1 0 .1.1.1.2v1.3c0 .2.2.3.5.2zm-5.9.4v1.1.1l.9.5h.2l.9-.5s0 0 0-.1v-1-.1l-.9-.5h-.1zm-19 3.2v-5.3c0-.2-.1-.3-.3-.5l-4.7-2.6c-.1-.1-.3-.1-.6 0l-4.6 2.6c-.2.1-.3.2-.3.5v5.3c0 .2.1.3.3.5l4.6 2.6c.2.1.3.1.6 0l4.6-2.6c.1-.1.2-.2.2-.3.2-.1.2-.1.2-.2z"/></svg>