<svg enable-background="new 0 0 48 48" viewBox="0 0 48 48" xmlns="http://www.w3.org/2000/svg"><path d="m24 0c-.6 0-1.3.1-1.8.5l-17.6 10.2c-1.2.6-1.8 1.9-1.8 3.2v20.3c0 1.3.7 2.5 1.8 3.2l4.6 2.6c2.3 1.1 3 1.1 4.1 1.1 3.4 0 5.3-2 5.3-5.5v-20c0-.2-.2-.5-.5-.5h-2.3c-.2 0-.5.2-.5.5v20c0 1.6-1.6 3.1-4.2 1.8l-4.8-2.8c-.2 0-.3-.2-.3-.4v-20.4c0-.2.1-.4.2-.5l17.6-10.1c.1-.1.4-.1.6 0l17.6 10.1c.1.1.2.2.2.5v20.3c0 .2-.1.4-.2.5l-17.6 10.2c-.1.1-.4.1-.6 0l-4.6-2.6c-.1-.1-.4-.1-.5 0-1.2.7-1.4.8-2.6 1.2-.2.1-.7.2.1.7l5.9 3.5c.6.4 1.2.5 1.8.5s1.3-.1 1.8-.5l17.6-10.2c1.1-.6 1.8-1.9 1.8-3.2v-20.4c0-1.3-.7-2.5-1.8-3.2l-17.5-10.1c-.5-.4-1.2-.5-1.8-.5zm4.7 14.5c-5 0-8 2.2-8 5.6 0 3.8 3 4.9 7.8 5.4 5.8.6 6.2 1.4 6.2 2.5 0 1.9-1.6 2.8-5.3 2.8-4.7 0-5.6-1.2-6-3.5 0-.2-.2-.5-.5-.5h-2.3c-.2 0-.5.2-.5.5 0 3 1.6 6.5 9.4 6.5 5.5 0 8.8-2.2 8.8-6s-2.5-4.8-7.9-5.5c-5.5-.7-6-1.1-6-2.4 0-1.1.5-2.5 4.6-2.5 3.6 0 4.9.8 5.5 3.2 0 .2.2.4.5.4h2.3c.1 0 .2 0 .4-.1s.1-.2.1-.4c-.6-4.1-3.5-6-9.1-6z"/></svg>