<svg enable-background="new 0 0 48 48" viewBox="0 0 48 48" xmlns="http://www.w3.org/2000/svg"><path d="m24 32.8c1.2 1.8 2.9 3.4 4.8 4.3l-4.8 4.8-4.8-4.8c1.9-1.1 3.6-2.5 4.8-4.3zm10.9-10.6c-2.4 0-4.3 1.9-4.3 4.3s1.9 4.3 4.3 4.3 4.3-1.9 4.3-4.3c0-2.3-1.9-4.3-4.3-4.3zm-21.8 0c-2.4 0-4.3 1.9-4.3 4.3s1.9 4.3 4.3 4.3 4.3-1.9 4.3-4.3c.1-2.3-1.9-4.3-4.3-4.3zm21.8-5.4c4.8 0 8.8 3.8 8.8 8.8 0 4.8-3.8 8.8-8.8 8.8-4.8 0-8.8-3.8-8.8-8.8.1-4.8 4-8.8 8.8-8.8zm-21.8 0c4.8 0 8.8 3.8 8.8 8.8 0 4.8-3.8 8.8-8.8 8.8s-8.8-3.8-8.8-8.8c.1-4.8 4-8.8 8.8-8.8zm-10.3-16.8c3.8 8 1.1 14.2-1.6 20-.8 1.7-1.2 3.6-1.2 5.4 0 7.2 5.9 13.1 13.1 13.1.5 0 1 0 1.3-.1l6.5 6.5 3.1 3.1 3.1-3.1 6.5-6.5c.5 0 1 .1 1.3.1 7.2 0 13.1-5.9 13.1-13.1 0-1.9-.4-3.7-1.2-5.4-2.5-6-5.3-12-1.6-20-5.7 4.6-13.9 8-21.2 8s-15.5-3.4-21.2-8z" fill="#0d0e0e"/></svg>