<svg enable-background="new 0 0 48 48" viewBox="0 0 48 48" xmlns="http://www.w3.org/2000/svg"><path d="m15.5 28.3c-.4 2-1.8 11.5-2.3 14.1 0 .2-.1.2-.4.2h-7.7c-.8 0-1.4-.7-1.3-1.4l6.2-39.3c.1-1 1.1-1.8 2.2-1.8 16.1 0 17.5-.4 21.6 1.2 6.4 2.5 7 8.4 4.7 14.9-2.3 6.6-7.7 9.5-14.9 9.6-4.8 0-7.5-.9-8.1 2.5zm26-15.2c-.2-.1-.2-.2-.4.1-.2 1.2-.5 2.4-1 3.6-4.2 12-15.9 11-21.6 11-.6 0-1.1.4-1.2 1-2.4 14.9-2.9 18-2.9 18-.1.7.4 1.3 1.1 1.3h6.7c1 0 1.7-.7 1.8-1.6.1-.6-.1.6 1.6-9.7.5-2.3 1.6-2 3.1-2 7.6 0 13.3-3 15.1-11.9.9-3.7.7-7.7-2.3-9.8z"/></svg>