<svg enable-background="new 0 0 48 48" viewBox="0 0 48 48" xmlns="http://www.w3.org/2000/svg"><path d="m24 12.6c12.8 0 22.8 5.4 22.8 11.4s-9.8 11.4-22.8 11.4c-12.8 0-22.8-5.4-22.8-11.4s10-11.4 22.8-11.4m0-1.2c-13.2 0-24 5.6-24 12.6s10.8 12.6 24 12.6 24-5.6 24-12.6-10.8-12.6-24-12.6zm-7.7 11.6c-.6 3-2.6 2.8-5.3 2.8l1.1-5.3c2.9-.1 4.8-.3 4.2 2.5zm-9 8.1h2.8l.6-3.4c3.1 0 5 .2 6.7-1.4 1.9-1.8 2.5-5 1.1-6.6-.7-.8-1.9-1.2-3.5-1.2h-5.3zm13.9-16.1h2.8l-.6 3.4c2.4 0 4.6-.1 5.6.8 1.1 1.1.6 2.3-.6 8.5h-2.8c1.2-6 1.3-6.5 1-7-.6-.4-1.4-.4-3.7-.4l-1.4 7.2h-2.8zm16.7 8c-.6 3.1-2.8 2.8-5.3 2.8l1-5.4c2.9 0 4.8-.2 4.3 2.6zm-9.1 8.1h2.8l.6-3.4c3.2 0 5 .2 6.7-1.4 1.9-1.8 2.5-5 1.1-6.6-.7-.8-1.9-1.2-3.5-1.2h-5.3z"/></svg>