<svg enable-background="new 0 0 48 48" viewBox="0 0 48 48" xmlns="http://www.w3.org/2000/svg"><path d="m24 36.1c-13.2 0-24-5.4-24-12.1s10.8-12.1 24-12.1 24 5.4 24 12.1-10.8 12.1-24 12.1zm-10.4-15.8c1.1 0 1.8.2 2.2.6s.5 1.1.2 2c-.2 1-.6 1.8-1.2 2.2-.6.5-1.4.6-2.6.6h-1.8l1.1-5.5h2.2v.1zm-7 11h2.9l.7-3.5h2.4c1.1 0 1.9-.1 2.6-.4s1.3-.6 1.9-1.2c.5-.5.8-1 1.2-1.4.2-.5.5-1.1.6-1.8.4-1.6.1-2.8-.7-3.6-.7-.8-1.9-1.3-3.6-1.3h-5.5zm14.5-16.7-2.5 13.2h2.9l1.4-7.6h2.3c.7 0 1.2.1 1.4.4.2.2.2.7.1 1.3l-1.1 5.9h2.9l1.2-6.1c.2-1.2.1-2.2-.6-2.8-.6-.6-1.7-.8-3.4-.8h-2.5l.7-3.5zm14.9 5.7c1.1 0 1.8.2 2.2.6s.5 1.1.2 2c-.2 1-.6 1.8-1.2 2.2-.6.5-1.4.6-2.6.6h-1.8l1.1-5.5h2.1zm-7 11h2.9l.7-3.5h2.4c1.1 0 1.9-.1 2.6-.4s1.3-.6 1.9-1.2c.5-.5.8-1 1.2-1.4.2-.5.5-1.1.6-1.8.4-1.6.1-2.8-.7-3.6-.7-.8-1.9-1.3-3.6-1.3h-5.5z"/></svg>