<svg enable-background="new 0 0 48 48" viewBox="0 0 48 48" xmlns="http://www.w3.org/2000/svg"><path d="m27.4 38c-2.6 0-5.3-1.1-7.1-3.1l-3.1 10.7-.2.7h-.1c-.6 1.1-1.8 1.8-3.1 1.8-2 0-3.7-1.7-3.7-3.7 0-.1 0-.4 0-.5l.2-.6 6.1-18.4s-.7-2-.7-4.9c0-5.7 3.1-7.4 5.5-7.4s4.7.8 4.7 4.3c0 4.4-3 6.7-3 9.9 0 2.5 2 4.4 4.4 4.4 7.8 0 10.5-5.9 10.5-11.4 0-7.3-6.2-13.2-14-13.2s-14 5.9-14 13.2c0 2.3.6 4.4 1.8 6.5.4.5.5 1.1.5 1.7 0 1.8-1.4 3.4-3.4 3.4-1.2 0-2.3-.6-2.9-1.7-1.8-3-2.8-6.3-2.8-9.8.4-11 9.7-19.9 21-19.9s20.6 8.9 20.6 19.8c0 8.7-5.4 18.2-17.2 18.2z"/></svg>