<svg enable-background="new 0 0 48 48" viewBox="0 0 48 48" xmlns="http://www.w3.org/2000/svg"><path d="m18 5.5c3.4.6 8.2 2 10.8 3 6.6 2.3 8.9 5 8.9 11.5 0 6.2-3.8 8.5-8.8 6.2v-11.5c0-1.3-.2-2.6-1.6-3-1-.4-1.6.6-1.6 1.9v29l-7.7-2.5zm9.2 31.9 12.6-4.4c1.4-.5 1.7-1.2.5-1.6s-3.2-.2-4.7.2l-8.4 3v-4.6l.5-.1s2.4-.8 5.9-1.2c3.4-.4 7.6 0 10.8 1.3 3.7 1.2 4.1 2.9 3.1 4.1s-3.2 2-3.2 2l-17 5.9v-4.6zm-23.6-.5c-3.8-1.1-4.4-3.2-2.6-4.6 1.6-1.2 4.3-2 4.3-2l11.2-4v4.6l-8 2.9c-1.5.5-1.8 1.2-.6 1.6s3.2.2 4.7-.2l3.8-1.4v4.1l-.8.1c-3.8.6-7.9.3-12-1.1z"/></svg>