<svg enable-background="new 0 0 48 48" viewBox="0 0 48 48" xmlns="http://www.w3.org/2000/svg"><path d="m47.1 18.1c-.8-3.4-2.4-5.7-5.7-5.7h-4.3v5c0 4-3.4 7.3-7.2 7.3h-11.4c-3.1 0-5.7 2.6-5.7 5.7v10.9c0 3.1 2.6 4.9 5.7 5.7 3.6 1.1 7.1 1.2 11.4 0 2.9-.8 5.7-2.5 5.7-5.7v-4.3h-11.4v-1.4h17.1c3.4 0 4.5-2.3 5.7-5.7 1.3-3.7 1.2-7.2.1-11.8zm-16.4 21.7c1.2 0 2.2 1 2.2 2.2s-1 2.2-2.2 2.2-2.2-1-2.2-2.2c.1-1.2 1-2.2 2.2-2.2zm-12.7-16.6h11.4c3.2 0 5.7-2.6 5.7-5.7v-11c0-3.1-2.6-5.4-5.7-6-3.8-.6-8-.6-11.4 0-4.8.8-5.7 2.6-5.7 6v4.3h11.4v1.4h-15.7c-3.4 0-6.2 2-7.2 5.7-1.1 4.3-1.1 7.1 0 11.6.8 3.4 2.8 5.7 6.1 5.7h4v-5.3c-.1-3.4 3.2-6.7 7.1-6.7zm-.7-15.2c-1.2 0-2.2-1-2.2-2.2s1-2.2 2.2-2.2 2.2 1 2.2 2.2-1 2.2-2.2 2.2z"/></svg>