<svg enable-background="new 0 0 49 48" viewBox="0 0 49 48" xmlns="http://www.w3.org/2000/svg"><path d="m39.8 16.6c-.5-.1-1-.4-1.6-.5.1-.4.1-.7.2-1.1 1.2-5.6.4-10-2.1-11.5s-6.5 0-10.5 3.6c-.4.4-.8.7-1.2 1.1-.2-.2-.5-.5-.7-.7-4.3-3.8-8.5-5.4-11.1-3.8-2.4 1.4-3.2 5.6-2.2 10.9.1.5.2 1.1.4 1.6-.6.1-1.2.4-1.8.6-5 1.7-8.6 4.4-8.6 7.3s3.8 5.9 9 7.7c.5.1.8.2 1.3.4-.1.6-.2 1.1-.4 1.7-1 5.1-.2 9.3 2.3 10.8 2.5 1.4 6.8 0 10.9-3.7.4-.2.6-.6 1-1 .4.4.8.8 1.3 1.2 4 3.5 7.9 4.8 10.4 3.5 2.5-1.4 3.4-5.9 2.3-11.3-.1-.4-.1-.8-.2-1.3.4-.1.6-.1.8-.2 5.4-1.8 9.3-4.7 9.3-7.7-.1-3.2-3.8-5.9-8.8-7.6zm-12.7-8c3.5-3 6.7-4.2 8.3-3.4 1.6 1 2.2 4.5 1.2 9.3-.1.4-.1.6-.2 1-2-.5-4.2-.8-6.3-1-1.2-1.8-2.5-3.4-4-4.9.3-.3.6-.7 1-1zm-10.8 20.1c.5.8 1 1.7 1.4 2.4-1.4-.1-2.9-.4-4.3-.7.4-1.3 1-2.8 1.6-4.2.3.9.8 1.8 1.3 2.5zm-2.9-11.3c1.3-.4 2.8-.6 4.3-.7-.5.7-1 1.6-1.4 2.4-.5.8-1 1.6-1.3 2.4-.6-1.3-1.2-2.8-1.6-4.1zm2.5 6.5c.6-1.3 1.3-2.5 2-3.8.7-1.2 1.4-2.4 2.3-3.6 1.4-.1 2.9-.1 4.3-.1s2.9 0 4.3.1c.8 1.2 1.6 2.4 2.3 3.6s1.4 2.5 2 3.8c-.6 1.3-1.3 2.5-2 3.8-.7 1.2-1.4 2.4-2.3 3.6-1.4.1-2.9.1-4.3.1s-2.9 0-4.3-.1c-.8-1.2-1.6-2.4-2.3-3.6s-1.2-2.5-2-3.8zm16.9 4.8c.5-.8 1-1.7 1.3-2.5.6 1.3 1.1 2.8 1.6 4.2-1.4.4-2.9.6-4.4.7.7-.8 1.2-1.6 1.5-2.4zm1.5-7.1c-.5-.8-.8-1.7-1.3-2.4-.5-.8-1-1.6-1.4-2.4 1.6.2 3 .5 4.3.7-.6 1.4-1.2 2.7-1.6 4.1zm-9.7-10.5c1 1.1 1.9 2.2 2.8 3.4-1.8-.1-3.7-.1-5.5 0 .7-1.3 1.7-2.5 2.7-3.4zm-10.8-5.8c1.6-1 5 .4 8.7 3.6.2.2.5.5.7.6-1.4 1.6-2.8 3.2-4.1 4.9-2.2.2-4.2.5-6.3 1-.1-.5-.2-1-.4-1.4-.8-4.5-.2-7.8 1.4-8.7zm-2.4 24.7c-.4-.1-.7-.2-1.2-.4-2-.6-4.3-1.7-5.9-2.9-1-.6-1.6-1.7-1.8-2.8 0-1.7 3-4 7.2-5.4.5-.2 1.1-.4 1.7-.5.6 2 1.4 4.1 2.3 6-.9 1.9-1.6 4-2.3 6zm10.9 9.1c-1.6 1.4-3.4 2.5-5.3 3.4-1.1.5-2.3.6-3.4.1-1.4-.8-2.2-4.2-1.3-8.6.1-.5.2-1.1.4-1.6 2 .5 4.2.7 6.3 1 1.2 1.8 2.6 3.5 4.1 5-.2.2-.5.4-.8.7zm2.4-2.3c-1-1-1.9-2.2-2.9-3.4h2.8c1 0 1.9 0 2.9-.1-.9 1.4-1.9 2.4-2.8 3.5zm12.2 2.9c-.1 1.2-.6 2.2-1.6 2.9-1.4.8-4.7-.2-8.1-3.2-.4-.4-.8-.7-1.2-1.1 1.4-1.6 2.8-3.2 4-5 2.2-.1 4.3-.5 6.3-1 .1.4.1.7.2 1.2.6 2 .6 4 .4 6.2zm1.7-10.1c-.2.1-.5.1-.8.2-.6-2-1.4-4.1-2.4-6 1-1.9 1.7-3.8 2.3-5.9.5.1 1 .2 1.4.5 4.3 1.6 7.4 3.7 7.4 5.4 0 1.9-3.3 4.3-7.9 5.8zm-14-1.4c2.4 0 4.3-1.9 4.3-4.3s-1.9-4.3-4.3-4.3-4.3 1.9-4.3 4.3 1.9 4.3 4.3 4.3z"/></svg>