<svg enable-background="new 0 0 48 48" viewBox="0 0 48 48" xmlns="http://www.w3.org/2000/svg"><path d="m48 22.8c0-3.4-2.6-6-6-6-1.4 0-2.9.5-3.8 1.4-3.6-2.2-7.9-3.6-13-3.8l2.6-9.6 8.2 2.4c0 2.6 2.2 4.8 4.8 4.8s4.8-2.2 4.8-4.8-2.2-4.8-4.8-4.8c-1.7 0-3.4 1-4.1 2.4l-9.6-2.4c-.7-.2-1.2.2-1.4 1l-2.9 11c-4.8.2-9.4 1.7-13 3.8-1-1-2.4-1.4-3.8-1.4-3.4 0-6 2.6-6 6 0 2.2 1 3.8 2.6 5l-.2 2.2c0 8.6 9.6 15.6 21.6 15.6s21.6-7 21.6-15.6l-.2-2.2c1.6-1.2 2.6-2.8 2.6-5zm-31.2.7c1.7 0 2.9 1.4 2.9 2.9s-1.2 2.9-2.9 2.9-2.9-1.2-2.9-2.9 1.2-2.9 2.9-2.9zm16.3 13c-4.3 2.6-13.9 2.6-18.2 0-.5-.5-.7-1.2-.2-1.7s1.2-.7 1.7-.2c2.9 2.2 12.5 2.2 15.4 0 .5-.5 1.2-.2 1.7.2s.1 1.2-.4 1.7zm-1.9-7.2c-1.7 0-2.9-1.4-2.9-2.9 0-1.7 1.4-2.9 2.9-2.9 1.7 0 2.9 1.4 2.9 2.9 0 1.7-1.2 2.9-2.9 2.9z"/></svg>