<svg enable-background="new 0 0 48 48" viewBox="0 0 48 48" xmlns="http://www.w3.org/2000/svg"><path d="m24 5.6c-13.2 0-24 7.1-24 16 0 7.9 8.5 14.5 19.8 15.8v5.1h8.1v-5c2-.2 4-.6 5.7-1.2l3.4 6.2h9.2l-5.5-9.3c4.5-2.9 7.3-6.9 7.3-11.5-.1-9-10.8-16.1-24-16.1zm3.7 6.2c10.1 0 17.5 3.4 17.5 11 0 4.2-2.2 7.1-5.7 8.7-.2-.1-.4-.2-.5-.4-.8-.5-2.3-.8-2.3-.8s7.2-.5 7.2-7.7c0-7.1-7.4-7.2-7.4-7.2h-16.7v17.1c-6.1-1.8-10.3-5.5-10.3-9.9 0-5.9 8.1-10.8 18.2-10.8zm.4 9.6h4.9s2.3-.1 2.3 2.3c0 2.3-2.3 2.3-2.3 2.3h-4.9zm-.2 10.5h2.2c.5 0 .6.1 1.1.5.2.2.6.7.8 1.1-1.3.1-2.8.2-4.2.2z"/></svg>