<svg enable-background="new 0 0 48 48" viewBox="0 0 48 48" xmlns="http://www.w3.org/2000/svg"><path d="m48 30.9c-.1-1.3-.8-2.3-1.9-3 .2.2.5.4 0 0-.7-.5-.4-.2 0 0-2.6-1.9-6.1-1.4-9.1-.5-1.2-1.9-1.2-3.3-.6-5.4.1-.2 0-.4-.2-.5-.7-.2-1.7-.1-2.3 0-.2.1-.4.1-.5.4-.5 2.3-1.9 4.3-3.2 6.2-1-1.8-.8-3.1-.2-4.9.1-.2 0-.4-.2-.5-.7-.4-1.7-.1-2.4 0-.8.2-2 4.2-2.4 4.9-.8 1.7-1.6 4.2-2.9 5.5-1.2-1.4 2.1-4.8 1.1-6.1-.4-.5-1.1-.5-1.4 0 .1-.7.1-1.2 0-1.8-.2-.6-.7-1-1.4-1-1.7 0-3.1 1.3-4.2 2.5-1 1.1-3.5 1.8-4.9 2.5-2.4-2-7.4-4.2-7.5-7.6-.1-3.9 4.5-6.6 7.6-8.1 4.1-2 10.3-4.7 14.8-2.4 1.2.6 1.7 1.9 1.3 3.1-.8 3.2-4.4 5.4-7.5 6.3-1.6.5-3.2.8-4.8.7-2.1-.1-3.8-1.4-4.1-1.6-.2 0-.1.2-.1.4 2.3 5.8 13.5 1.6 16.4-1.4 1.4-1.4 2.3-2.9 2.6-5 .5-2.6-1.4-4.2-2.9-4.9-7.3-3.2-17.3 1.2-22.8 5.6-2.4 1.9-5.4 5-3.9 8.2 1.4 3.6 6.1 5.4 9 7.5-2.4 1.2-5.4 2.4-6.9 4.7-.8 1.3-1.2 2.6-.6 4.1 1.2 2.6 5.5 1.4 7.3.4 1.7-1.1 2.7-2.4 3.2-4.2.4-1.6.4-3.1-.4-4.7l2.6-1.3c-.7 2.1-1.1 4.9.5 6.8.6.8 2.1.8 2.7 0 .8-1.1 1.3-2.3 1.9-3.5-.1.8-.1 1.9.1 2.6.4.8 1.1 1.1 1.9.5 2.5-1.7 4.1-6.4 5.3-9.2.4 1.2.7 2.3 1.3 3.3.1.2.1.5-.1.7-1 1-3.1 2.6-3.2 4.1 0 .4.1.6.5.7 1.4.2 3.1-.2 4.3-1.1s1.7-1.9 1.3-3.3c-.5-1.9 1.1-4.1 2.4-5.7.2 1.2.6 2.4 1.3 3.5-1.2 1.1-3 2.6-2.7 4.4.1.6.7 1.1 1.3 1 1.4-.4 2.7-1 3.7-2 .8-1 .6-2.1.1-3.2 2.3-.6 4.5-.7 6.7 0 1.1.4 1.9 1 2.5 1.9.6 1.2.2 2.3-1 3-.4.2-.5.4-.4.5s.5.2 1.2-.2c.8-.5 1.3-1.2 1.4-2 .4-.4.4-.7.4-.9zm-37.2 2.4c-.1 1.6-.8 2.7-2.1 3.8-.7.6-1.6 1.1-2.5 1.1-.8.1-1.6-.1-1.7-1.1-.1-2.5 3.8-5.1 6-5.8.3.7.4 1.3.3 2zm9.6-6.8c-.4 2-1.4 5.8-3 7.3-.2.2-.4.2-.6-.2-1-2.3.4-6.9 3.1-7.6.4.1.5.2.5.5zm6.6 7.6c.8-.8 1.6-1.7 2.4-2.5 0 1-1.7 2.8-2.4 2.5zm7.5-1.7c-.2.1-.7.2-.7.1-.1-1.1 1.1-2.3 1.9-2.9.4 1.2-.1 2.3-1.2 2.8z"/></svg>