<svg enable-background="new 0 0 48 48" viewBox="0 0 48 48" xmlns="http://www.w3.org/2000/svg"><path d="m23 10.2-7.1 3v-12l-5.7 19.8 5.8-2.5v13.5zm-8.7-10.1-.1.5-1.6 5.5c-4.2 1.6-7.2 5.6-7.2 10.4 0 5.4 3.6 10 8.8 11v5.6c-8.2-.9-14.2-8-14.2-16.4s6.2-15.4 14.3-16.6zm32.5 46.7c-1.2 1.2-2.4 1.3-3 1.1s-2.9-2-6.4-4.7c-3.5-2.5-3.5-3.7-4.4-5.9-1-2.2-3.1-4.4-6-5.5l-1-1.6c-2.5 1.8-5.5 2.8-8.5 3l.2-.7 1.7-5.2c4.8-1.2 8.4-5.6 8.4-10.9 0-5.6-4-10.7-10-11.2v-5.2c8.6.5 15.5 7.8 15.5 16.7 0 3.5-1.2 6.7-3 9.5l1.6 1c1.1 2.9 3.2 5 5.5 6 2.2 1 3.4 1 5.9 4.4 2.5 3.5 4.4 5.8 4.7 6.2.1.6 0 1.8-1.2 3zm-1-1.8c0-.5-.4-.8-.8-.8-.5 0-.8.4-.8.8 0 .5.4.8.8.8s.8-.4.8-.8z"/></svg>