<svg enable-background="new 0 0 48 48" viewBox="0 0 48 48" xmlns="http://www.w3.org/2000/svg"><path d="m38.2 31.7c-2.2 0-4.2.8-5.8 2.4-.5.5-.8.8-1.1 1.4l-14-8.5c.4-1 .6-1.9.6-3s-.2-2-.6-3l14-8.5c1.4 2.3 4 3.7 6.8 3.7 4.4 0 8.2-3.6 8.2-8.2s-3.7-8-8.2-8-8.2 3.6-8.2 8.2c0 1.1.2 2 .6 2.9l-14 8.5c-1.4-2.2-4-3.7-6.8-3.7-4.4 0-8.2 3.6-8.2 8.2s3.6 8.2 8.2 8.2c2.9 0 5.4-1.4 6.8-3.7l14 8.5c-.4 1-.6 1.9-.6 2.9 0 2.2.8 4.2 2.4 5.8s3.6 2.4 5.8 2.4 4.2-.8 5.8-2.4 2.4-3.6 2.4-5.8-.8-4.2-2.4-5.8c-1.5-1.7-3.5-2.5-5.7-2.5z"/></svg>