<svg enable-background="new 0 0 48 48" viewBox="0 0 48 48" xmlns="http://www.w3.org/2000/svg"><path d="m40.1 7.9c5.5 5.5 7.6 13.1 6.2 20.2 1.1 1.9 1.7 4.2 1.7 6.5 0 7.4-6 13.4-13.3 13.4-2.4 0-4.6-.6-6.5-1.7-7.1 1.3-14.6-.8-20.2-6.2-5.5-5.5-7.5-13.1-6.2-20.2-1.2-2-1.8-4.2-1.8-6.6 0-7.3 6-13.3 13.3-13.3 2.4 0 4.6.6 6.5 1.7 7.2-1.3 14.8.8 20.3 6.2zm-16 29.9c7.7 0 11.4-3.7 11.4-8.6 0-3.2-1.4-6.6-7.3-7.9l-5.3-1.3c-2-.5-4.3-1.1-4.3-3s1.7-3.2 4.6-3.2c5.9 0 5.4 4.1 8.3 4.1 1.6 0 2.9-1 2.9-2.5 0-3.6-5.9-6.4-10.8-6.4-5.4 0-11.2 2.3-11.2 8.4 0 2.9 1.1 6 6.8 7.4l7.2 1.8c2.2.5 2.8 1.8 2.8 2.9 0 1.8-1.8 3.6-5.2 3.6-6.5 0-5.5-4.9-9-4.9-1.6 0-2.6 1.1-2.6 2.6.1 3 3.7 7 11.7 7z"/></svg>