<svg enable-background="new 0 0 48 48" viewBox="0 0 48 48" xmlns="http://www.w3.org/2000/svg"><path d="m10.1 30.4c0 2.8-2.3 5-5 5s-5-2.3-5-5 2.3-5 5-5h5zm2.5 0c0-2.8 2.3-5 5-5s5 2.3 5 5v12.6c0 2.8-2.3 5-5 5s-5-2.3-5-5zm5-20.3c-2.8 0-5-2.3-5-5s2.3-5 5-5 5 2.3 5 5v5zm0 2.5c2.8 0 5 2.3 5 5s-2.3 5-5 5h-12.6c-2.8 0-5-2.3-5-5s2.3-5 5-5zm20.3 5c0-2.8 2.3-5 5-5s5 2.3 5 5-2.3 5-5 5h-5zm-2.5 0c0 2.8-2.3 5-5 5s-5-2.3-5-5v-12.6c0-2.8 2.3-5 5-5s5 2.3 5 5zm-5 20.3c2.8 0 5 2.3 5 5s-2.3 5-5 5-5-2.3-5-5v-5zm0-2.5c-2.8 0-5-2.3-5-5s2.3-5 5-5h12.6c2.8 0 5 2.3 5 5s-2.3 5-5 5z"/></svg>