<svg enable-background="new 0 0 48 48" viewBox="0 0 48 48" xmlns="http://www.w3.org/2000/svg"><path d="m47.8 25.4c-.7-2-2.9-3.1-4.9-2.4l-4.9 1.6-3.2-9.6 4.9-1.6c2-.7 3.1-2.9 2.5-4.9-.7-2-2.9-3.1-4.9-2.4l-4.9 1.6-1.7-5c-.7-2-2.9-3.1-4.9-2.4s-3.1 2.9-2.5 4.9l1.7 5-10 3.4-1.8-5.2c-.7-2-2.9-3.1-4.9-2.4s-3.1 2.9-2.5 5l1.7 5-4.8 1.6c-2 .7-3.1 2.9-2.5 4.9.5 1.6 2 2.5 3.6 2.6.7.1 1.3-.1 6.2-1.8l3.2 9.6-4.8 1.7c-2 .7-3.1 2.9-2.5 4.9.5 1.5 2.1 2.5 3.6 2.6.7.1 1.3-.1 6.2-1.8l1.7 5c.6 1.8 2.6 3.1 4.9 2.4 2-.7 3.1-2.9 2.5-4.9l-1.7-5 10.1-3.4 1.6 5c.6 1.8 2.6 3.1 4.9 2.4 2-.7 3.1-2.9 2.5-4.9l-1.7-5 4.9-1.6c2-.5 3-2.8 2.4-4.9zm-27.2 5.1-3.2-9.7 9.9-3.4 3.2 9.7z"/></svg>