<svg enable-background="new 0 0 48 48" viewBox="0 0 48 48" xmlns="http://www.w3.org/2000/svg"><path d="m47.9 36.9c-.5 1.1-2.6 2-6.3 2.6-.2.2-.3 1.4-.6 2.3-.1.6-.6.8-1.1.8-.9 0-1.8-.5-3.6-.5-2.5 0-3.4.6-5.3 1.9-2.1 1.5-4.2 2.7-7 2.6-2.9.2-5.4-1.6-6.9-2.6-1.9-1.4-2.8-1.9-5.3-1.9-1.8 0-2.9.5-3.6.5-.8 0-1-.5-1.1-.9-.2-.9-.5-2-.6-2.3-1.9-.3-6.3-1-6.4-3 0-.5.3-.9.8-1 6.6-1.1 9.5-7.8 9.6-8 .3-.7.5-1.4.2-1.8-.5-1.1-2.5-1.5-3.4-1.8-2.3-.9-2.5-1.9-2.4-2.6.2-1.2 2-1.9 3-1.5.8.3 1.6.6 2.3.6.5 0 .8-.1.9-.2-.2-3.4-.7-8.2.6-10.8 3.2-7.1 9.8-7.7 11.9-7.7h.9c4.9 0 9.6 2.5 11.9 7.7 1.2 2.7.7 7.5.6 10.8.1.1.5.2.8.2.6 0 1.2-.2 2-.6.6-.2 1.4-.2 1.9 0 .9.3 1.5.9 1.5 1.7 0 .9-.8 1.7-2.5 2.4-.2.1-.5.1-.7.2-.9.3-2.3.7-2.7 1.6-.2.5-.1 1 .2 1.8.1.3 3 7 9.6 8 .7 0 1.2.7.8 1.5z"/></svg>