<svg enable-background="new 0 0 48 48" viewBox="0 0 48 48" xmlns="http://www.w3.org/2000/svg"><path d="m23.7 3.4c7 0 12.6 5.4 11.6 12.7-.2 1.6-.3 3.1-.4 4.4 0 0 .2.4 1.2.4.6 0 1.4-.1 2.8-.7.2-.1.4-.1.7-.1.8 0 1.3.6 1.4 1.2 0 .6-.4 1.1-.8 1.3-1.3.7-4.7 1-4.7 3.2s2.2 4.7 4 6.3c1.9 1.7 6.3 2 6.3 2s0 2.1-3.1 2.9c-3.2.8-3.2.6-3.3 1.3-.2 1.4-.1 2.1-1.1 2.1-.1 0-.3 0-.6 0-.8-.1-1.9-.3-3.1-.3-1.1 0-2.3.2-3.4.9-2.3 1.4-4.1 3.3-7.5 3.3s-5.2-1.9-7.5-3.3c-1.1-.7-2.3-.9-3.4-.9-1.2 0-2.2.2-3.1.3-.2 0-.4 0-.6 0-1 0-.9-.7-1.1-2.1-.1-.8-.1-.7-3.3-1.3-3.1-.7-3.1-2.9-3.1-2.9s4.5-.4 6.3-2.1c1.9-1.7 4-4.1 4-6.3s-3.3-2.5-4.7-3.2c-.3-.2-.9-.8-.8-1.3 0-.7.7-1.2 1.4-1.2.2 0 .4 0 .7.1 1.2.4 2.1.7 2.8.7 1 0 1.2-.4 1.2-.4-.1-1.3-.2-2.9-.4-4.4-1-7.1 4.6-12.6 11.6-12.6zm0-1.5c-4.1 0-7.9 1.6-10.4 4.4-2.3 2.8-3.4 6.3-2.9 10 .1 1 .2 2.1.3 3-.4 0-1-.2-1.8-.4-.4-.1-.8-.2-1.2-.2-1.6 0-2.9 1.2-3 2.7-.1 1.2.8 2.4 1.8 2.9.5.1.9.2 1.5.4.7.2 1.4.4 1.9.8.4.2.4.4.4.6 0 .9-.7 2.4-3.5 5.1-1 1-3.9 1.6-5.4 1.7h-1.4v1.4c0 .1 0 1 .7 2 .6.8 1.6 1.9 3.8 2.4.6.2 1 .3 1.5.4.2 0 .4.1.7.1v.1c.1.7.1 1.2.4 1.8.2.4.9 1.2 2.2 1.2.2 0 .6 0 .9-.1.1 0 .3 0 .6-.1.7-.1 1.6-.2 2.3-.2 1 0 1.9.2 2.5.7.4.3.9.6 1.3.9 1.8 1.2 3.8 2.7 7 2.7s5.3-1.4 7.1-2.8c.4-.3.9-.7 1.3-.9.7-.4 1.6-.7 2.5-.7.8 0 1.7.1 2.3.2.2 0 .3.1.6.1s.6.1.9.1c1.3 0 1.9-.8 2.2-1.2.2-.6.3-1.1.4-1.8 0 0 0 0 0-.1.2 0 .4-.1.7-.1.4-.1.9-.2 1.6-.3 2.2-.6 3.2-1.6 3.8-2.4.6-1 .7-1.9.7-2v-1.4l-1.4-.1c-1.6-.2-4.4-.8-5.4-1.8-1.7-1.4-3.5-3.5-3.5-5.1 0-.1 0-.2.4-.6.4-.3 1.2-.6 1.9-.8.6-.1 1-.3 1.4-.6.9-.4 1.9-1.6 1.8-2.9-.1-1.6-1.4-2.7-3-2.7-.4 0-.8.1-1.2.2-.8.3-1.3.4-1.8.4.1-.9.2-2 .3-3 .6-3.8-.6-7.3-2.9-10-3-2.5-6.8-4-10.9-4z"/><path d="m23.7 21.4c-2.1 0-4-.8-5.5-2.3-.3-.3-.3-.8 0-1.1s.8-.3 1.1 0c1.2 1.2 2.8 1.9 4.4 1.9 1.7 0 3.2-.7 4.4-1.9.3-.3.8-.3 1.1 0s.3.8 0 1.1c-1.5 1.5-3.5 2.3-5.5 2.3z"/><ellipse cx="19" cy="13.7" rx="1.6" ry="2.3"/><ellipse cx="28.5" cy="13.7" rx="1.6" ry="2.3"/></svg>