<svg enable-background="new 0 0 48 48" viewBox="0 0 48 48" xmlns="http://www.w3.org/2000/svg"><path d="m23 16.4v17.8h19.1c4.1-.2 5.9-2.8 5.9-5.8 0-3.2-2.4-5.9-5.8-5.9-.8 0-1.6.1-2.3.5-.5-5.2-4.8-9.1-10.2-9.1-2.5 0-4.9 1-6.7 2.5zm-1.9 2.2c-.6-.4-1.3-.7-2.2-1v16.4h3v-16.6c-.2.4-.5.8-.8 1.2zm-5.1-1.2v16.7h2v-16.6c-.4-.1-.8-.1-1.3-.1-.3 0-.5 0-.7 0zm-4 1.4v15.2h2v-16.1c-.7.2-1.4.6-2 .9zm-3.6 5.5c-.1-.1-.2-.1-.5-.2v10h2v-13.3c-.8 1-1.3 2.2-1.5 3.5zm-4.4-.5v10.2c.5.1 1 .2 1.4.2h.5v-10.6c-.1 0-.4 0-.5 0-.5-.1-1-.1-1.4.2zm-4 5c0 1.7.7 3.1 1.9 4.1v-8.2c-1.2 1-1.9 2.5-1.9 4.1z"/></svg>