<svg enable-background="new 0 0 48 48" viewBox="0 0 48 48" xmlns="http://www.w3.org/2000/svg"><path d="m40.3 14.5c2.4 0 4.3 1.9 4.3 4.3s-1.9 4.3-4.3 4.3-4.3-1.9-4.3-4.3 1.9-4.3 4.3-4.3zm-34.4-1.7c3.4 0 6 2.6 6 6v.6l12.8 6.6c1-.7 2.3-1.2 3.6-1.2l4.3-6c0-4.3 3.5-7.7 7.7-7.7 4.3 0 7.7 3.5 7.7 7.7 0 4.3-3.5 7.7-7.7 7.7l-6 4.3c0 3.4-2.6 6-6 6s-6-2.6-6-6c0-.1 0-.1 0-.2l-13-6.7c-1 .6-2 1-3.2 1-3.4 0-6-2.6-6-6-.2-3.3 2.5-6.1 5.8-6.1zm24.2 16.1c1.3.6 1.8 2.2 1.1 3.5-.6 1.3-2.2 1.8-3.5 1.1l-3.7-1.9c.4 2 2 3.6 4.2 3.6 2.4 0 4.3-1.9 4.3-4.3s-1.9-4.3-4.3-4.3c-.7 0-1.3.1-1.8.4zm-24.2-14.4c-2.4 0-4.3 1.9-4.3 4.3s1.9 4.3 4.3 4.3c.5 0 1-.1 1.4-.2l-2.9-1.4c-1.3-.7-1.8-2.3-1.1-3.5.6-1.3 2.2-1.8 3.5-1.1l3.4 1.8c0-2.4-2-4.2-4.3-4.2zm34.4-1.7c-3.4 0-6 2.6-6 6s2.6 6 6 6 6-2.6 6-6c.1-3.2-2.7-6-6-6z"/></svg>