<svg enable-background="new 0 0 48 48" viewBox="0 0 48 48" xmlns="http://www.w3.org/2000/svg"><path d="m48 9.1c-1.8.8-3.7 1.3-5.7 1.6 2-1.2 3.6-3.1 4.3-5.4-1.9 1.1-4 1.9-6.3 2.4-1.8-1.9-4.3-3.1-7.2-3.1-5.4 0-9.9 4.5-9.9 9.9 0 .7.1 1.6.2 2.3-8-.5-15.3-4.5-20.1-10.5-.8 1.4-1.3 3.1-1.3 4.9 0 3.4 1.7 6.5 4.5 8.2-1.6 0-3.1-.5-4.5-1.2v.1c0 4.8 3.4 8.8 7.9 9.6-.8.2-1.7.4-2.6.4-.6 0-1.2-.1-1.8-.1 1.2 4 4.9 6.7 9.3 6.9-3.4 2.6-7.6 4.2-12.3 4.2-.8 0-1.6 0-2.4-.1 4.3 2.8 9.5 4.5 15.2 4.5 18.2 0 28-15 28-28 0-.5 0-.8 0-1.3 1.7-1.6 3.4-3.4 4.7-5.3z"/></svg>