<svg enable-background="new 0 0 48 48" viewBox="0 0 48 48" xmlns="http://www.w3.org/2000/svg"><path d="m48 12.8c-.2 4.7-3.5 11-9.8 19.2-6.5 8.5-12 12.7-16.6 12.7-2.8 0-5.2-2.6-7.1-7.8-1.3-4.7-2.5-9.4-3.8-14.2-1.5-5.1-3-7.7-4.7-7.7-.4 0-1.6.7-3.7 2.3l-2.3-2.9c2.4-2 4.7-4.2 7-6.2 3.1-2.8 5.5-4.2 7-4.4 3.7-.4 6 2.2 6.8 7.7 1 5.9 1.6 9.6 1.9 11 1.1 4.9 2.3 7.3 3.6 7.3 1 0 2.5-1.6 4.6-4.8s3.1-5.6 3.2-7.3c.2-2.8-.8-4.1-3.2-4.1-1.2 0-2.3.2-3.6.8 2.5-7.7 6.9-11.4 13.6-11.2 5.1.2 7.3 3.4 7.1 9.6z"/></svg>