<svg enable-background="new 0 0 48 48" viewBox="0 0 48 48" xmlns="http://www.w3.org/2000/svg"><path d="m42.8 29.2c3.8 3.6 4.7 5.3 4.8 5.5 1.6 2.6-1.8 2.9-1.8 2.9l-6.4.1s-1.4.2-3.2-1c-2.4-1.7-4.7-5.9-6.5-5.4-1.8.6-1.7 4.4-1.7 4.4s0 .6-.4 1c-.5.5-1.3.4-1.3.4h-2.9s-6.4.7-11.9-5.2c-6-6.4-11.3-18.7-11.3-18.7s-.4-.7 0-1.2 1.4-.5 1.4-.5h6.8s.6.1 1.1.5c.4.2.6.8.6.8s1.1 2.8 2.5 5.3c2.9 4.9 4.2 6 5.2 5.5 1.4-.7 1-7 1-7s0-2.3-.7-3.2c-.6-.7-1.7-1-2.2-1.1-.4 0 .2-1 1.1-1.3 1.2-.6 3.4-.6 6-.6 2 0 2.6.1 3.4.4 2.4.6 1.6 2.8 1.6 8 0 1.7-.4 4.1 1 4.9.5.4 1.8 0 5-5.4 1.6-2.6 2.6-5.6 2.6-5.6s.2-.5.6-.7 1-.1 1-.1h7.2s2.2-.2 2.5.7c.4 1.1-.8 3.5-3.7 7.3-4.8 6.1-5.4 5.5-1.4 9.3z"/></svg>