<svg enable-background="new 0 0 48 48" viewBox="0 0 48 48" xmlns="http://www.w3.org/2000/svg"><path d="m17.4 7.7h13.1l-6.5 6.5zm3.4 21c-.7.7-1.1 1.8-1.1 2.9 0 2.4 1.9 4.3 4.3 4.3s4.3-1.9 4.3-4.3c0-1.2-.5-2.3-1.3-3.1l3.1-3.1c1.6 1.6 2.5 3.7 2.5 6.1 0 4.8-4 8.8-8.8 8.8s-8.8-4-8.8-8.8c0-2.3 1-4.5 2.4-6l15.6-15.5c1.6-1.6 3.7-2.5 6.1-2.5 4.8 0 8.8 4 8.8 8.8s-3.9 8.7-8.7 8.7c-2.4 0-4.6-1-6.1-2.5l3.1-3.1c.8.8 1.9 1.3 3.1 1.3 2.4 0 4.3-1.9 4.3-4.3s-1.9-4.4-4.3-4.4c-1.2 0-2.3.5-3.1 1.3zm-9.1-15.4c-.8-.8-1.9-1.3-3.1-1.3-2.4 0-4.3 1.9-4.3 4.3s1.9 4.3 4.3 4.3c1.2 0 2.3-.5 3.1-1.3l3.1 3.1c-1.5 1.6-3.7 2.6-6.1 2.6-4.8 0-8.7-4-8.7-8.8s4-8.8 8.8-8.8c2.4 0 4.6 1 6.1 2.5l6 6-3.1 3.1z"/></svg>