<svg enable-background="new 0 0 48 48" viewBox="0 0 48 48" xmlns="http://www.w3.org/2000/svg"><path d="m20.3 41.4c-3.6 5.2-10.6 6.4-15.6 2.9s-6.2-10.6-2.6-15.6c2-3 5.4-4.7 8.8-4.8l.1 3.5c-2.2.1-4.3 1.3-5.8 3.4-2.4 3.4-1.7 8.2 1.6 10.6s8 1.4 10.6-2c.7-1.1 1.2-2.3 1.3-3.5v-2.5l13.7-.2.1-.2c1.3-2.3 4.1-3 6.4-1.8 2.2 1.3 3 4.1 1.7 6.4s-4.1 3-6.4 1.8c-1-.6-1.7-1.4-2-2.5l-10 .1c-.2 1.4-1 3-1.9 4.4zm17.7-17.4c6.2.7 10.6 6.4 9.8 12.4-.7 6.1-6.4 10.4-12.6 9.7-3.6-.5-6.6-2.5-8.4-5.4l3-1.8c1.2 1.9 3.2 3.2 5.6 3.5 4.2.5 8-2.4 8.6-6.5.5-4.1-2.5-7.8-6.7-8.3-1.3-.1-2.6 0-3.7.5l-2 1.1-6.4-11.6h-.5c-2.6-.1-4.6-2.3-4.6-4.8.1-2.5 2.3-4.6 4.8-4.4 2.6.1 4.6 2.3 4.6 4.8 0 1.1-.5 2-1.1 2.9l4.7 8.6c1.6-.7 3.3-.9 4.9-.7zm-23.1-6.7c-2.4-5.8.1-12.4 5.7-14.8s12.2.4 14.6 6.1c1.4 3.4 1.1 7.1-.5 10l-3-1.8c1.1-1.9 1.2-4.4.2-6.7-1.7-4-6.1-5.8-9.8-4.2-3.8 1.6-5.5 6.1-3.8 10 .7 1.6 1.8 2.9 3.2 3.7l1 .5-7.5 12.3c.1.1.1.2.2.4 1.2 2.3.4 5-1.9 6.2s-5 .4-6.2-1.9-.4-5 1.9-6.2c1-.5 2-.6 3-.5l5.6-9.1c-1.2-1.1-2.1-2.5-2.7-4z"/></svg>