<svg enable-background="new 0 0 48 48" viewBox="0 0 48 48" xmlns="http://www.w3.org/2000/svg"><path d="m18 4.8c-10 0-18 6.5-18 14.4 0 4.6 2.6 8.5 6.7 11.2l-1.9 5.6 6-3.6c2.2.7 4.4 1.2 7 1.2-.6-1.6-1-3.1-1-4.8 0-7.9 7.6-14.4 16.8-14.4.5 0 1 0 1.3.1-2.4-5.6-9-9.7-16.9-9.7zm-7.2 6c1.3 0 2.4 1.1 2.4 2.4s-1.1 2.4-2.4 2.4-2.4-1.1-2.4-2.4 1.1-2.4 2.4-2.4zm12 0c1.3 0 2.4 1.1 2.4 2.4s-1.1 2.4-2.4 2.4-2.4-1.1-2.4-2.4 1.1-2.4 2.4-2.4zm10.8 6c-7.9 0-14.4 5.4-14.4 12s6.5 12 14.4 12c1.6 0 3.1-.2 4.6-.6l5 3-1.6-4.6c3.7-2.2 6.4-5.8 6.4-10 0-6.4-6.5-11.8-14.4-11.8zm-4.8 6c1.3 0 2.4 1.1 2.4 2.4s-1.1 2.4-2.4 2.4-2.4-1.1-2.4-2.4 1.1-2.4 2.4-2.4zm9.6 0c1.3 0 2.4 1.1 2.4 2.4s-1.1 2.4-2.4 2.4-2.4-1.1-2.4-2.4 1.1-2.4 2.4-2.4z"/></svg>