<svg enable-background="new 0 0 48 48" viewBox="0 0 48 48" xmlns="http://www.w3.org/2000/svg"><path d="m19.1 13.1c-.5-1.2-1-1.1-1.3-1.1-.4 0-.6 0-1.1 0-.4 0-1.1.1-1.7.7s-2.2 1.9-2.3 4.9c-.1 2.9 1.9 5.9 2.3 6.2.2.4 4 6.7 10 9.4s6 1.8 7.2 1.8c1.1 0 3.6-1.3 4.2-2.6s.6-2.5.5-2.9c-.1-.2-.5-.4-1.1-.7-.6-.4-3.5-1.9-4.1-2-.6-.2-1-.4-1.3.2-.5.6-1.7 1.9-2 2.3-.4.4-.7.5-1.3.1s-2.5-1.1-4.7-3.1c-1.7-1.7-2.9-3.6-3.2-4.2s0-1 .4-1.2c.2-.2.6-.7 1-1 .4-.4.5-.6.6-1 .2-.4.1-.7 0-1.1-.6-.5-1.6-3.5-2.1-4.7z"/><path d="m24.5 3.5c5.4 0 10.4 2 14.3 5.9 3.8 3.7 5.9 8.8 5.9 14s-2 10.3-5.9 14c-3.8 3.7-8.9 5.9-14.3 5.9-3.4 0-6.7-.8-9.7-2.5l-1.3-.7-1.5.5-6.6 2 2-6.1.5-1.6-.7-1.2c-1.9-3.1-2.9-6.6-2.9-10.3 0-5.3 2-10.3 5.9-14.2 3.8-3.7 8.9-5.7 14.3-5.7m0-3.5c-13.1 0-23.7 10.4-23.7 23.4 0 4.4 1.2 8.5 3.4 12.1l-4.2 12.5 13.1-4.2c3.4 1.8 7.2 2.9 11.4 2.9 12.9.1 23.5-10.5 23.5-23.3 0-13-10.6-23.4-23.5-23.4z"/></svg>