<svg enable-background="new 0 0 48 48" viewBox="0 0 48 48" xmlns="http://www.w3.org/2000/svg"><path d="m38 35.3h-4.6v-14.8h4.6zm.4-20.1c0 1.4-1.2 2.6-2.6 2.6s-2.6-1.2-2.6-2.6 1.2-2.6 2.6-2.6c1.4-.1 2.6 1.1 2.6 2.6zm9.1 20.1h-4.5v-14.8h4.6v14.8zm.5-20.1c0 1.4-1.2 2.6-2.6 2.6s-2.6-1.2-2.6-2.6 1.2-2.6 2.6-2.6c1.4-.1 2.6 1.1 2.6 2.6zm-21.8-1.3h4.8l-5 17.9s-.7 3.7-3.6 3.7-3.6-3.7-3.6-3.7l-3.2-11.6-3.2 11.6s-.7 3.7-3.6 3.7-3.8-3.7-3.8-3.7l-5-17.9h4.8l4.2 15.9 3.4-12.8c.7-3.2 3.2-3.2 3.2-3.2s2.4 0 3.2 3.2l3.4 12.8z"/></svg>