<svg enable-background="new 0 0 48 48" viewBox="0 0 48 48" xmlns="http://www.w3.org/2000/svg"><path d="m31.1 39.5-6.1-14.5c-2.4 4.8-5.2 9.7-7.4 14.5h-1.1c-3.5-8.2-7.3-16.4-10.7-24.6-.9-2-3.8-5.2-5.8-5.2 0-.2 0-.7 0-1.1h12.1v1.1c-1.4.1-3.8 1-3.2 2.5 1.7 3.7 7.8 18 9.4 21.6 1.2-2.3 4.3-8.2 5.6-10.7-1.1-2.2-4.4-10-5.4-12-.7-1.3-2.8-1.4-4.2-1.4 0-.4 0-.6 0-1.1h10.7v1c-1.4 0-2.8.6-2.2 1.9 1.4 3 2.3 5.2 3.6 7.9.5-.8 2.5-5.3 3.6-7.6.6-1.6-.4-2.2-2.9-2.2 0-.2 0-.7 0-1h9.2v1c-1.7.1-3.5 1-4.3 2.4l-4.4 9.1c.5 1.2 4.8 10.7 5.2 11.8l9.2-21.2c-.6-1.7-2.8-2-3.6-2.2 0-.2 0-.7 0-1.1l9.6.2v1c-2.2.1-3.4 1.2-4.2 3-1.9 4.3-7.8 18-11.6 26.9z"/></svg>