<svg enable-background="new 0 0 48 48" viewBox="0 0 48 48" xmlns="http://www.w3.org/2000/svg"><path d="m24 0c-13.2 0-24 10.8-24 24s10.8 24 24 24 24-10.8 24-24-10.8-24-24-24zm-21.6 24c0-3.1.7-6.1 1.9-8.8l10.3 28.2c-7.2-3.4-12.2-10.9-12.2-19.4zm21.6 21.6c-2.2 0-4.2-.4-6.1-.8l6.5-18.8 6.6 18c0 .1.1.2.1.4-2.2.7-4.6 1.2-7.1 1.2zm3-31.7c1.3-.1 2.5-.2 2.5-.2 1.2-.1 1.1-1.8-.1-1.8 0 0-3.5.2-5.8.2-2.2 0-5.6-.2-5.6-.2-1.2-.1-1.3 1.7-.1 1.8 0 0 1.1.1 2.3.2l3.4 9.2-4.9 14-7.8-23.3c1.3-.1 2.5-.2 2.5-.2 1.2-.1 1.1-1.8-.1-1.8 0 0-3.5.2-5.8.2-.4 0-.8 0-1.4 0 3.8-5.9 10.4-9.7 18-9.7 5.6 0 10.7 2.2 14.5 5.6-.1 0-.2 0-.2 0-2.2 0-3.6 1.8-3.6 3.8 0 1.8 1.1 3.2 2.2 5 .8 1.4 1.8 3.2 1.8 6 0 1.8-.7 4-1.7 7l-2.2 7.2zm7.8 28.7 6.6-19.1c1.2-3.1 1.7-5.5 1.7-7.7 0-.8 0-1.6-.1-2.2 1.7 3.1 2.6 6.6 2.6 10.3 0 8-4.3 15-10.8 18.7z"/></svg>