<svg enable-background="new 0 0 48 48" viewBox="0 0 48 48" xmlns="http://www.w3.org/2000/svg"><path d="m3.4 24c0-3 .6-5.8 1.8-8.4l9.8 26.9c-6.8-3.3-11.6-10.3-11.6-18.5zm34.5-1.1c0 1.8-.7 3.8-1.6 6.6l-2 6.8-7.4-22 2.4-.2c1.1-.1 1-1.8-.1-1.7 0 0-3.4.2-5.5.2l-5.4-.2c-1.1-.1-1.2 1.7-.1 1.7l2.2.2 3.2 8.8-4.6 13.6-7.6-22.3 2.4-.2c1.1-.1 1-1.8-.1-1.7 0 0-3.4.2-5.5.2h-1.4c3.6-5.6 10-9.4 17.2-9.4 5.4 0 10.2 2 13.9 5.4h-.2c-2 0-3.5 1.8-3.5 3.6 0 1.7 1 3.1 2 4.8.8 1.5 1.7 3.3 1.7 5.8zm-13.5 2.9 6.4 17.3.1.2c-2.2.7-4.4 1.2-6.8 1.2-2 0-4-.2-5.8-.8zm17.7-11.6c1.6 2.9 2.5 6.2 2.5 9.8 0 7.6-4.1 14.3-10.2 17.8l6.2-18.2c1.2-2.9 1.6-5.3 1.6-7.3zm-18.1-14.2c13.2 0 24 10.8 24 24s-10.8 24-24 24-24-10.8-24-24 10.8-24 24-24zm0 46.9c12.6 0 22.9-10.3 22.9-22.9s-10.3-22.9-22.9-22.9-22.9 10.3-22.9 22.9 10.3 22.9 22.9 22.9z"/></svg>