<svg enable-background="new 0 0 48 48" viewBox="0 0 48 48" xmlns="http://www.w3.org/2000/svg"><path d="m10.7 4.1c.1-.1.3-.4.5-.4 3.7-2.4 8-3.7 12.8-3.7 4.6 0 8.8 1.2 12.4 3.4.2.1 1 .6 1.3 1.1-3.5-3.8-13.7 4.4-13.7 4.4-3.6-2.8-6.8-4.6-9.2-5.3-2.1-.5-3.4 0-4.1.5zm30.9 3.6c-.1-.1-.2-.2-.4-.4-.8-1-1.9-1.2-2.9-1.1-.8.2-5 1.8-10.1 6.5 0 0 5.6 5.5 9.1 11.2 3.5 5.6 5.5 10.1 4.3 16.2 4-4.2 6.4-9.9 6.4-16.1s-2.4-12-6.4-16.3zm-8.6 18.6c-1.6-1.7-3.8-4.2-6.8-7.2-.6-.6-1.3-1.3-2-2 0 0-1.1 1.1-2.5 2.5-1.8 1.8-4.2 4.3-5.5 5.8-2.5 2.4-9.2 10.4-9.6 14.8 0 0-1.6-3.5 1.8-11.6 2.2-5.3 8.6-13.3 11.4-15.8 0 0-2.5-2.8-5.6-4.7l-.2-.2c-1.6-.8-3.1-1.6-4.7-1.7-1.5.2-2.6 1.4-2.6 1.4-4.2 4.3-6.7 10-6.7 16.4 0 13.2 10.8 24 24 24 7.1 0 13.3-3 17.8-7.8 0 0-.5-3.2-3.7-7.7-.8-1.2-3.7-4.4-5.1-6.2z"/></svg>