<svg enable-background="new 0 0 48 48" viewBox="0 0 48 48" xmlns="http://www.w3.org/2000/svg"><path d="m19.2 31.2 12-7.2-12-7.2zm22.7-4.8 5 4c.5.4.6 1 .2 1.6l-4.8 8.3c-.4.5-.8.7-1.4.5l-6-2.4c-1.6 1.1-2.9 1.9-4.1 2.4l-.8 6.2c-.1.6-.6 1-1.2 1h-9.6c-.6 0-1-.4-1.1-1l-1-6.4c-1.4-.6-2.8-1.4-4.1-2.4l-6 2.4c-.7.2-1.2.1-1.4-.5l-4.8-8.3c-.4-.7-.4-1.2.2-1.6l5-4c0-.4 0-1.1 0-2.2s0-1.8.1-2.4l-5-4c-.5-.4-.6-1-.2-1.6l4.8-8.3c.3-.4.8-.6 1.4-.4l6 2.4c1.6-1.1 2.9-1.9 4.1-2.4l.8-6.3c.1-.6.6-1 1.2-1h9.6c.6 0 1 .4 1.1 1l1 6.4c1.4.6 2.8 1.4 4.1 2.4l6-2.4c.7-.2 1.2-.1 1.4.5l4.8 8.3c.4.7.4 1.2-.2 1.6l-5 4v2.2s0 1.8-.1 2.4z"/></svg>