<svg enable-background="new 0 0 48 32" viewBox="0 0 48 32" xmlns="http://www.w3.org/2000/svg"><path d="m17.9 22.2h-1.8v-1.1c-.7.8-1.3 1.2-1.9 1.2s-1-.2-1.2-.7c-.1-.2-.2-.7-.2-1.4v-7.7h1.8v7.2.7c0 .2.1.4.4.4.4 0 .7-.4 1.1-.8v-7.3h1.8v9.6c-.1-.1 0-.1 0-.1zm-8.2-2.8v-3.8c.1-1-.2-1.4-.7-1.4-.6 0-.8.5-.7 1.4v3.8c-.2 1 .1 1.4.6 1.4.6 0 .8-.5.8-1.4zm1.8-3.8v3.5c0 1.1-.1 1.7-.5 2.3-.5.6-1.3 1-2 1s-1.6-.4-2-1c-.4-.5-.6-1.2-.6-2.3v-3.5c0-1.1.2-1.8.6-2.3.5-.7 1.2-1 2-1 .7 0 1.6.2 2 1 .3.5.5 1.4.5 2.3zm-7.2 1.4v5.3h-1.9v-5.3s-2-6.5-2.4-7.7h2l1.3 5 1.3-5h2zm43.5-6.6s.2 2.3.2 4.6v2.2c0 2.3-.2 4.6-.2 4.6s-.2 1.9-1.1 2.9c-1.1 1.1-2.3 1.2-2.9 1.2-4 .2-10 .2-10 .2s-7.4-.1-9.7-.2c-.6-.1-2-.1-3.1-1.2-.8-.8-1.1-2.9-1.1-2.9s-.2-2.3-.2-4.6v-2.2c0-2.3.2-4.6.2-4.6s.2-1.9 1.1-2.9c1.1-1.1 2.3-1.1 2.9-1.2 4-.2 10-.2 10-.2s6 0 10 .2c.6.1 1.8.1 2.9 1.2.6.8 1 2.9 1 2.9zm-5.7 4.8c0-.8.2-1.1.8-1.1s.8.2.8 1.2v1.1h-1.7v-1.2zm3.5 2.5v-1.9c0-1.1-.2-1.8-.6-2.3-.5-.6-1.2-1-2-1s-1.6.4-2 1c-.4.5-.6 1.3-.6 2.3v3.4c0 1 .2 1.7.6 2.2.5.6 1.2 1 2 1 1 0 1.6-.4 2-1.1.2-.4.4-.6.4-1.1 0-.1.1-.6.1-1.1v-.2h-1.8v1.2c-.1.5-.4.7-.7.7-.6 0-.8-.5-.8-1.3v-1.7c-.1-.1 3.4-.1 3.4-.1zm-8.3 1.7c0 1-.2 1.3-.7 1.3-.2 0-.6-.1-1-.5v-5.8c.2-.2.6-.5 1-.5.5 0 .7.2.7 1.2zm.3-6.9c-.6 0-1.3.4-1.8 1.1v-4.2h-1.7v12.8h1.7v-1c.6.7 1.2 1.1 1.8 1.1.7 0 1.2-.4 1.4-1.1.1-.4.2-1.1.2-1.9v-3.8c0-1-.1-1.6-.2-1.9-.2-.7-.7-1.1-1.4-1.1zm-5.1 9.7v-9.6h-1.8v7.4c-.4.5-.7.8-1 .8-.2 0-.4-.1-.4-.4v-.7-7.1h-1.8v7.6c0 .7.1 1.1.2 1.4.2.5.6.7 1.2.7s1.2-.4 1.9-1.2v1.1zm-6.8 0v-11h2.2v-1.8h-6v1.8h2v11z" fill="#0d0e0e"/></svg>