<svg enable-background="new 0 0 48 48" viewBox="0 0 48 48" xmlns="http://www.w3.org/2000/svg"><path d="m19.2 0h9.6c1.3 0 2.4 1.1 2.4 2.4h14.4v43.2h-4.8c0 1.3-1.1 2.4-2.4 2.4s-2.4-1.1-2.4-2.4h-24c0 1.3-1.1 2.4-2.4 2.4s-2.4-1.1-2.4-2.4h-4.8v-43.2h14.4c0-1.3 1.1-2.4 2.4-2.4zm-12 7.2v9.6h33.6v-9.6zm4.8 2.4c1.3 0 2.4 1.1 2.4 2.4s-1.1 2.4-2.4 2.4-2.4-1.1-2.4-2.4 1.1-2.4 2.4-2.4zm12 0h4.8v2.4h-4.8zm7.2 0h2.4v4.8h-2.4zm4.8 0h2.4v4.8h-2.4zm-12 12c-5.3 0-9.6 4.3-9.6 9.6s4.3 9.6 9.6 9.6 9.6-4.3 9.6-9.6-4.3-9.6-9.6-9.6zm-4.8-12c1.3 0 2.4 1.1 2.4 2.4s-1.1 2.4-2.4 2.4-2.4-1.1-2.4-2.4 1.1-2.4 2.4-2.4z"/></svg>