<svg enable-background="new 0 0 48 48" viewBox="0 0 48 48" xmlns="http://www.w3.org/2000/svg"><path d="m28.4 2.5c.2.3.3.7.3.9v.3h-9.4v-.3c0-.2.2-.6.3-.9zm14.7 16.8v23.8h-2.3-2.5-2.3-24-2.5-2.3-2.3v-23.8h.3 37.6zm-19.1 21.9c5.5 0 10-4.5 10-10s-4.5-10-10-10-10 4.5-10 10 4.5 10 10 10m4.8-41.2h-9.6c-1.3 0-2.4 2.1-2.4 3.4h-14.4v42.2h4.8c0 1.3 1.1 2.4 2.4 2.4s2.4-1.1 2.4-2.4h24c0 1.3 1.1 2.4 2.4 2.4s2.4-1.1 2.4-2.4h4.8v-42.2h-14.4c0-1.3-1.1-3.4-2.4-3.4zm-23.6 16.8v-10.6h37.6v10.6zm18.8 21.9c-4.1 0-7.5-3.4-7.5-7.5s3.4-7.5 7.5-7.5 7.5 3.4 7.5 7.5-3.4 7.5-7.5 7.5zm14.4-29.1h-2.4v4.8h2.4zm-4.8 0h-2.4v4.8h2.4zm-4.8 0h-4.8v2.4h4.8zm-9.6 0c-1.3 0-2.4 1.1-2.4 2.4s1.1 2.4 2.4 2.4 2.4-1.1 2.4-2.4-1.1-2.4-2.4-2.4zm-7.2 0c-1.3 0-2.4 1.1-2.4 2.4s1.1 2.4 2.4 2.4 2.4-1.1 2.4-2.4-1.1-2.4-2.4-2.4z"/></svg>