<svg enable-background="new 0 0 48 48" viewBox="0 0 48 48" xmlns="http://www.w3.org/2000/svg"><path d="m12 8.4-4.8 4.8v2.4h-4.8c-1.3 0-2.4 1.1-2.4 2.4v19.2c0 1.3 1.1 2.4 2.4 2.4h43.2c1.3 0 2.4-1.1 2.4-2.4v-19.2c0-1.3-1.1-2.4-2.4-2.4h-4.8v-2.4l-4.8-4.8zm0 4.8h24v2.4h-24zm9.6 4.8h4.8c.7 0 1.2.5 1.2 1.2s-.5 1.2-1.2 1.2h-4.8c-.7 0-1.2-.5-1.2-1.2s.5-1.2 1.2-1.2zm-8.4 3.6c4 0 7.2 3.2 7.2 7.2s-3.2 7.2-7.2 7.2-7.2-3.2-7.2-7.2 3.2-7.2 7.2-7.2zm21.6 0c4 0 7.2 3.2 7.2 7.2s-3.2 7.2-7.2 7.2-7.2-3.2-7.2-7.2 3.2-7.2 7.2-7.2zm-21.6 3.6c-2 0-3.6 1.6-3.6 3.6s1.6 3.6 3.6 3.6 3.6-1.6 3.6-3.6-1.6-3.6-3.6-3.6zm21.6 0c-2 0-3.6 1.6-3.6 3.6s1.6 3.6 3.6 3.6 3.6-1.6 3.6-3.6-1.6-3.6-3.6-3.6z"/></svg>