<svg enable-background="new 0 0 48 48" viewBox="0 0 48 48" xmlns="http://www.w3.org/2000/svg"><path d="m45.5 18.1v19h-43v-19h4.7 2.5 2.3 24 2.3 2.5zm-9.5-9.7h-24l-4.8 4.8v2.4h-4.8c-1.3 0-2.4 1.1-2.4 2.4v19.2c0 1.3 1.1 2.4 2.4 2.4h43.2c1.3 0 2.4-1.1 2.4-2.4v-19.2c0-1.3-1.1-2.4-2.4-2.4h-4.8v-2.4zm-24 7.2v-2.4h24v2.4z"/><path d="m21.6 20h4.8c.7 0 1.2.5 1.2 1.2s-.5 1.2-1.2 1.2h-4.8c-.7 0-1.2-.5-1.2-1.2s.5-1.2 1.2-1.2z"/><path d="m13 22.8c-3.3 0-6 2.7-6 6s2.7 6 6 6 6-2.7 6-6-2.7-6-6-6zm0 9c-1.7 0-3-1.3-3-3s1.3-3 3-3 3 1.3 3 3-1.3 3-3 3z"/><path d="m36 22.8c-3.3 0-6 2.7-6 6s2.7 6 6 6 6-2.7 6-6-2.7-6-6-6zm0 9c-1.7 0-3-1.3-3-3s1.3-3 3-3 3 1.3 3 3-1.3 3-3 3z"/></svg>