<svg enable-background="new 0 0 48 48" viewBox="0 0 48 48" xmlns="http://www.w3.org/2000/svg"><circle cx="24" cy="26.4" r="7.7"/><path d="m30.1 4.9 3.7 4 .7.8h1.1 7.6c1.3 0 2.3 1 2.3 2.3v28.8c0 1.3-1 2.3-2.3 2.3h-38.4c-1.3 0-2.3-1-2.3-2.3v-28.8c0-1.3 1-2.3 2.3-2.3h7.6 1.1l.7-.8 3.7-4zm-6.1 36c8 0 14.5-6.5 14.5-14.5s-6.5-14.5-14.5-14.5-14.5 6.5-14.5 14.5 6.5 14.5 14.5 14.5m7.2-38.5h-14.4l-4.4 4.8h-7.6c-2.6 0-4.8 2.2-4.8 4.8v28.8c0 2.6 2.2 4.8 4.8 4.8h38.4c2.6 0 4.8-2.2 4.8-4.8v-28.8c0-2.6-2.2-4.8-4.8-4.8h-7.6zm-7.2 36c-6.6 0-12-5.4-12-12s5.4-12 12-12 12 5.4 12 12-5.4 12-12 12z"/><path d="m0 0h48v48h-48z" fill="none"/></svg>