<svg enable-background="new 0 0 48 48" viewBox="0 0 48 48" xmlns="http://www.w3.org/2000/svg"><path d="m0 0h48v48h-48z" fill="none"/><path d="m17.8 20.4 11.4-19.8c-1.7-.4-3.4-.6-5.2-.6-5.8 0-11 2-15.1 5.4l8.8 15.2zm29.1-3.6c-2.1-7.1-7.5-12.6-14.4-15.2l-8.8 15.2zm.6 2.4h-18l.7 1.2 11.4 19.8c4-4.3 6.4-10 6.4-16.2 0-1.7-.1-3.2-.5-4.8zm-31.8 4.8-9.3-16.2c-4 4.3-6.4 10-6.4 16.2 0 1.7.1 3.2.5 4.8h18zm-14.6 7.2c2.2 7.1 7.6 12.6 14.4 15.2l8.8-15.2zm27.1 0-9.4 16.2c1.7.4 3.5.6 5.2.6 5.8 0 11-2 15.1-5.4l-8.8-15.2z"/></svg>