<svg enable-background="new 0 0 48 48" viewBox="0 0 48 48" xmlns="http://www.w3.org/2000/svg"><path d="m0 0h48v48h-48z" fill="none"/><path d="m24 2.5h1.2l-7.5 13.1-5.5-9.5c3.4-2.3 7.6-3.6 11.8-3.6m9.6 2.3c4.2 2.1 7.6 5.5 9.7 9.5h-15.2zm-27.6 7.5 7.5 13 .6 1.1h-11.5c-.1-.7-.1-1.5-.1-2.3 0-4.3 1.2-8.4 3.5-11.8m39.4 9.4c.1.7.1 1.5.1 2.3 0 4.2-1.2 8.2-3.5 11.7l-8.1-14zm-15 10.7 5.5 9.5c-3.5 2.3-7.6 3.6-11.8 3.6-.4 0-.8 0-1.2 0zm-10.5 1.3-5.5 9.5c-4.2-2.1-7.6-5.5-9.7-9.5zm4.1-33.7c-5.8 0-11 2-15.1 5.4l8.8 15.2.1-.2 11.4-19.8c-1.7-.4-3.4-.6-5.2-.6zm8.5 1.6-8.8 15.2h23.2c-2.1-7.1-7.5-12.6-14.4-15.2zm-26.1 6.2c-4 4.3-6.4 10-6.4 16.2 0 1.7.1 3.2.5 4.8h18l-2.8-4.8zm41.1 11.4h-18l.7 1.2 11.4 19.8c4-4.3 6.4-10 6.4-16.2 0-1.7-.1-3.2-.5-4.8zm-17.1 8.2-2.2 3.8-9.4 16.2c1.7.4 3.5.6 5.2.6 5.8 0 11-2 15.1-5.4zm-6.2 3.8h-23.1c2.2 7.1 7.6 12.6 14.4 15.2z"/></svg>