<svg enable-background="new 0 0 48 48" viewBox="0 0 48 48" xmlns="http://www.w3.org/2000/svg"><path d="m0 0h48v48h-48z" fill="none"/><path d="m42.8 2.6h-37.6c-2.8 0-5.2 2.4-5.2 5.4v32.1c0 3 2.4 5.3 5.3 5.3h37.4c3 0 5.3-2.4 5.3-5.3v-32.1c.1-3-2.3-5.4-5.2-5.4zm-21.4 18.8h-4v-1.4h-5.4v8.1h5.3v-1.3h4v2.6c0 1.4-1.2 2.6-2.6 2.6h-8.1c-1.4 0-2.6-1.2-2.6-2.6v-10.7c0-1.4 1.2-2.6 2.6-2.6h8.1c1.4 0 2.6 1.2 2.6 2.6v2.6h.1zm18.6 0h-4v-1.4h-5.3v8.1h5.3v-1.3h4v2.6c0 1.4-1.2 2.6-2.6 2.6h-8.1c-1.4 0-2.6-1.2-2.6-2.6v-10.7c0-1.4 1.2-2.6 2.6-2.6h8.1c1.4 0 2.6 1.2 2.6 2.6z"/></svg>