<svg enable-background="new 0 0 48 48" viewBox="0 0 48 48" xmlns="http://www.w3.org/2000/svg"><path d="m0 0h48v48h-48z" fill="none"/><path d="m42.8 5.1c.7 0 1.4.3 1.9.8s.8 1.2.7 2v32.1c0 1.6-1.2 2.8-2.8 2.8h-37.4c-1.6 0-2.8-1.2-2.8-2.8v-32c0-1.6 1.3-2.9 2.8-2.9zm0-2.5h-37.6c-2.8 0-5.2 2.4-5.2 5.4v32.1c0 3 2.4 5.3 5.3 5.3h37.4c3 0 5.3-2.4 5.3-5.3v-32.1c.1-3-2.3-5.4-5.2-5.4z"/><path d="m18.6 16.1h-8.1c-1.4 0-2.6 1.2-2.6 2.6v10.7c0 1.4 1.2 2.6 2.6 2.6h8.1c1.4 0 2.6-1.2 2.6-2.6v-2.6h-4v1.3h-5.2v-8.1h5.4v1.3h4-.1v-2.6c-.1-1.4-1.3-2.6-2.7-2.6z"/><path d="m37.4 16.1h-8.1c-1.4 0-2.6 1.2-2.6 2.6v10.7c0 1.4 1.2 2.6 2.6 2.6h8.1c1.4 0 2.6-1.2 2.6-2.6v-2.6h-4v1.3h-5.3v-8.1h5.3v1.3h4v-2.6c0-1.4-1.2-2.6-2.6-2.6z"/></svg>