<svg enable-background="new 0 0 48 48" viewBox="0 0 48 48" xmlns="http://www.w3.org/2000/svg"><path d="m45.8 6h-.8v1.9c0 .6-.5 1.1-1.1 1.1h-3.8c-.6 0-1.1-.5-1.1-1.1v-1.9h-30v1.9c0 .6-.5 1.1-1.1 1.1h-3.8c-.6 0-1.1-.5-1.1-1.1v-1.9h-.7c-1.3 0-2.3 1-2.3 2.3v31.5c0 1.2 1 2.2 2.3 2.2h.7v-1.9c0-.6.5-1.1 1.1-1.1h3.8c.6 0 1.1.5 1.1 1.1v1.9h30v-1.9c0-.6.5-1.1 1.1-1.1h3.8c.6 0 1.1.5 1.1 1.1v1.9h.8c1.2 0 2.3-1 2.3-2.3v-31.4c-.1-1.3-1.1-2.3-2.3-2.3zm-36.8 28.9c0 .6-.5 1.1-1.1 1.1h-3.8c-.6 0-1.1-.5-1.1-1.1v-3.8c0-.6.5-1.1 1.1-1.1h3.8c.6 0 1.1.5 1.1 1.1zm0-9c0 .6-.5 1.1-1.1 1.1h-3.8c-.6 0-1.1-.5-1.1-1.1v-3.8c0-.6.5-1.1 1.1-1.1h3.8c.6 0 1.1.5 1.1 1.1zm0-9c0 .6-.5 1.1-1.1 1.1h-3.8c-.6 0-1.1-.5-1.1-1.1v-3.8c0-.6.5-1.1 1.1-1.1h3.8c.6 0 1.1.5 1.1 1.1zm27 19.5c0 .6-.5 1.1-1.1 1.1h-21.8c-.6 0-1.1-.5-1.1-1.1v-9c0-.6.5-1.1 1.1-1.1h21.8c.6 0 1.1.5 1.1 1.1zm0-15.8c0 .6-.5 1.1-1.1 1.1h-21.8c-.6 0-1.1-.5-1.1-1.1v-9c0-.6.5-1.1 1.1-1.1h21.8c.6 0 1.1.5 1.1 1.1zm9 14.3c0 .6-.5 1.1-1.1 1.1h-3.8c-.6 0-1.1-.5-1.1-1.1v-3.8c0-.6.5-1.1 1.1-1.1h3.8c.6 0 1.1.5 1.1 1.1zm0-9c0 .6-.5 1.1-1.1 1.1h-3.8c-.6 0-1.1-.5-1.1-1.1v-3.8c0-.6.5-1.1 1.1-1.1h3.8c.6 0 1.1.5 1.1 1.1zm0-9c0 .6-.5 1.1-1.1 1.1h-3.8c-.6 0-1.1-.5-1.1-1.1v-3.8c0-.6.5-1.1 1.1-1.1h3.8c.6 0 1.1.5 1.1 1.1z"/></svg>