<svg enable-background="new 0 0 48 48" viewBox="0 0 48 48" xmlns="http://www.w3.org/2000/svg"><path d="m45.5 3.8h-1.5-1l-.7.7-11.7 11.8 12.3-12.5zm-22.8 15.3 5 5v.2l-10 19.7s0 0-.1 0c0 0-.1 0-.1-.1l-4.5-9-.4-.8-.8-.4-9.3-4.5zm25.3-17.8h-6.1l-14.9 15 3.6 3.5 13.4-13.4h4zm-25.3 15.3c-.4 0-.7 0-1.1.2l-20.2 10.1c-1 .5-1.4 1.4-1.4 2.3s.5 1.8 1.4 2.3l9.4 4.6 4.6 9.2c.5.8 1.4 1.3 2.3 1.3 1 0 1.8-.5 2.3-1.3l10-20.2.2-1.1c0-.6-.2-1.2-.7-1.7l-5-5c-.5-.5-1.1-.7-1.8-.7z"/><path d="m15.7 24-1.8 1.8 7.2 7.2 1.8-1.8z"/><path d="m12.1 27.6-1.8 1.8 7.2 7.2 1.8-1.8z"/></svg>