<svg enable-background="new 0 0 48 48" viewBox="0 0 48 48" xmlns="http://www.w3.org/2000/svg"><path d="m45.5 3.8h-1.5-1l-.7.7-8.7 8.7s0 0-.1-.1l9.4-9.4h2.6m-22.8 12.7c4.2 0 7.6 3.4 7.6 7.6 0 3.4-2.4 6.5-5.7 7.3l-1.9.5v2 .4c0 5.6-4.5 10.1-10.1 10.1s-10.1-4.7-10.1-10.2 4.5-10.1 10.1-10.1h.4 2l.5-1.9c.7-3.3 3.8-5.7 7.2-5.7m25.3-15.1h-6.1l-12.1 12.1c1.4 1 2.6 2.2 3.6 3.6l10.6-10.6h4zm-25.3 12.6c-4.6 0-8.6 3.1-9.7 7.6h-.4c-7 0-12.6 5.6-12.6 12.6s5.6 12.6 12.6 12.6 12.6-5.7 12.6-12.6v-.4c4.4-1.1 7.6-5.2 7.6-9.7 0-5.5-4.5-10.1-10.1-10.1z"/><path d="m22.3 22.7c.8 0 1.3.6 1.3 1.3s-.6 1.3-1.3 1.3-1.3-.6-1.3-1.3c-.1-.8.6-1.3 1.3-1.3m0-2.5c-2 0-3.8 1.7-3.8 3.8s1.7 3.8 3.8 3.8 3.8-1.7 3.8-3.8-1.7-3.8-3.8-3.8z"/><path d="m9.5 29.6-1.8 1.8 7.2 7.2 1.8-1.8z"/></svg>