<svg enable-background="new 0 0 48 48" viewBox="0 0 48 48" xmlns="http://www.w3.org/2000/svg"><path d="m35.5 43.4c-.6 0-1.3-.1-1.8-.4-1.7-.8-2.8-2-4-5.5-1.2-3.6-3.4-5.3-5.5-7-1.8-1.4-3.7-2.9-5.4-5.9-1.2-2.2-1.9-4.7-1.9-6.7 0-6.5 5-11.5 11.5-11.5s11.6 5.1 11.6 11.6h4.6c0-9.1-7.1-16.2-16.2-16.2s-15.9 7.1-15.9 16.2c0 2.9.8 6.1 2.5 9 2.2 3.8 4.6 5.8 6.6 7.3 1.9 1.4 3.2 2.5 4 4.7 1.4 4.2 3.1 6.6 6.2 8.2 1.2.6 2.5.8 3.8.8 5 0 9.2-4.2 9.2-9.2h-4.6c0 2.5-2.1 4.6-4.7 4.6zm-21.6-40.2-3.2-3.2c-4.7 4.6-7.5 10.9-7.5 18s2.8 13.3 7.5 18l3.2-3.2c-3.7-3.7-6.1-9-6.1-14.8s2.4-10.9 6.1-14.8zm8.9 14.8c0 3.2 2.6 5.8 5.8 5.8s5.8-2.6 5.8-5.8-2.6-5.8-5.8-5.8-5.8 2.6-5.8 5.8z"/><path d="m0 0h48v48h-48z" fill="none"/></svg>