<svg enable-background="new 0 0 48 48" viewBox="0 0 48 48" xmlns="http://www.w3.org/2000/svg"><path d="m0 0h48v48h-48z" fill="none"/><path d="m42.8 5.1c.7 0 1.4.3 1.9.8s.8 1.2.7 2v32.1c0 1.6-1.2 2.8-2.8 2.8h-37.4c-1.6 0-2.8-1.2-2.8-2.8v-32c0-1.6 1.3-2.9 2.8-2.9zm0-2.5h-37.6c-2.8 0-5.2 2.4-5.2 5.4v32.1c0 3 2.4 5.3 5.3 5.3h37.4c3 0 5.3-2.4 5.3-5.3v-32.1c.1-3-2.3-5.4-5.2-5.4z"/><path d="m20.9 31.1h-4v-5.3h-5.4v5.3h-4v-16.2h4v6.8h5.3v-6.8h4v16.2z"/><path d="m36.9 15.1h-8.1c-1.4 0-2.6 1.2-2.6 2.6v10.7c0 1.4 1.2 2.6 2.6 2.6h2v4h4v-4.1h2c1.4 0 2.6-1.2 2.6-2.6v-10.6c.1-1.4-1.1-2.6-2.5-2.6zm-1.4 11.9h-5.3v-8.1h5.3z"/></svg>