<svg enable-background="new 0 0 48 48" viewBox="0 0 48 48" xmlns="http://www.w3.org/2000/svg"><path d="m0 0h48v48h-48z" fill="none"/><path d="m43.2 2.5c1.3 0 2.3 1 2.3 2.3v28.8c0 1.3-1 2.3-2.3 2.3h-28.8c-1.3 0-2.3-1-2.3-2.3v-28.8c0-1.3 1-2.3 2.3-2.3zm-16.9 14.2c-.2 0-.3 0-.5 0-4.2 0-7.5 3.3-7.5 7.5s3.3 7.5 7.5 7.5 7.5-3.3 7.5-7.5v-8.5h3.5 2.5v-2.5-4-2.5h-2.5-8-2.5v2.5zm16.9-16.7h-28.8c-2.6 0-4.8 2.2-4.8 4.8v28.8c0 2.6 2.2 4.8 4.8 4.8h28.8c2.6 0 4.8-2.2 4.8-4.8v-28.8c0-2.6-2.2-4.8-4.8-4.8zm-14.4 20.2v-11h8v4h-6v11c0 2.8-2.2 5-5 5s-5-2.2-5-5 2.2-5 5-5c1.1 0 2.2.4 3 1zm-24-10.6h-4.8v33.6c0 2.6 2.2 4.8 4.8 4.8h33.6v-4.8h-33.6z"/></svg>