<svg enable-background="new 0 0 48 48" viewBox="0 0 48 48" xmlns="http://www.w3.org/2000/svg"><path d="m0 0h48v48h-48z" fill="none"/><path d="m43.2 2.5c1.3 0 2.3 1 2.3 2.3v28.8c0 1.3-1 2.3-2.3 2.3h-28.8c-1.3 0-2.3-1-2.3-2.3v-28.8c0-1.3 1-2.3 2.3-2.3zm0-2.5h-28.8c-2.6 0-4.8 2.2-4.8 4.8v28.8c0 2.6 2.2 4.8 4.8 4.8h28.8c2.6 0 4.8-2.2 4.8-4.8v-28.8c0-2.6-2.2-4.8-4.8-4.8zm-38.4 9.6h-4.8v33.6c0 2.6 2.2 4.8 4.8 4.8h33.6v-4.8h-33.6z"/><path d="m31.2 7.2h-4.8v9.6h-9.6v4.8h9.6v9.6h4.8v-9.6h9.6v-4.8h-9.6z"/></svg>