<svg enable-background="new 0 0 48 48" viewBox="0 0 48 48" xmlns="http://www.w3.org/2000/svg"><path d="m0 0h48v48h-48zm0 0h48v48h-48z" fill="none"/><path d="m38.7 22.9h-3.6c0 1.6-.3 3-.9 4.3l2.6 2.6c1.2-2 1.9-4.3 1.9-6.9zm-8.4.4c0-.1 0-.2 0-.3v-12.7c0-3.5-2.8-6.3-6.3-6.3s-6.3 2.8-6.3 6.3v.4zm-22.6-17.2-2.6 2.7 12.7 12.7v1.5c0 3.5 2.8 6.3 6.3 6.3.5 0 .9-.1 1.4-.2l3.5 3.5c-1.5.7-3.2 1.1-4.9 1.1-5.8 0-11.2-4.4-11.2-10.7h-3.6c0 7.2 5.7 13.1 12.6 14.1v6.9h4.2v-6.9c1.9-.3 3.7-.9 5.3-1.9l8.8 8.8 2.7-2.7z"/></svg>