<svg enable-background="new 0 0 48 48" viewBox="0 0 48 48" xmlns="http://www.w3.org/2000/svg"><path d="m24 2.5c2.8 0 5.1 2.3 5.1 5.2v15.1c0 2.8-2.2 5.1-5.1 5.1-2.8 0-5.1-2.3-5.1-5.2v-15.1c0-2.9 2.3-5.1 5.1-5.1m0 35.5v1.7 5.8-5.9zm0-38c-4.2 0-7.6 3.4-7.6 7.6v15.1c0 4.2 3.4 7.7 7.6 7.7s7.6-3.4 7.6-7.6v-15.1c0-4.3-3.4-7.7-7.6-7.7zm13.4 22.7c0 7.6-6.4 12.8-13.4 12.8s-13.4-5.3-13.4-12.8h-4.2c0 8.6 6.8 15.7 15.1 16.9v8.4h5v-8.3c8.3-1.2 15.1-8.4 15.1-16.9h-4.2z"/><path d="m0 0h48v48h-48z" fill="none"/></svg>