<svg enable-background="new 0 0 48 48" viewBox="0 0 48 48" xmlns="http://www.w3.org/2000/svg"><path d="m15.7 2.5c3.3 0 6.1 2.1 7.1 5h-14.2c1.1-2.9 3.9-5 7.1-5m5.6 12.5c-.1.1-.2.2-.2.2l-.6.6-.1.9-1.9 18.3h-1.3-2.5-.4-1.3l-1.9-18.3-.1-.8-.6-.6c-.1-.1-.2-.2-.2-.2h11.1m-5.6-15.1c-5.5 0-10 4.5-10 10h20c.1-5.5-4.5-10-10-10zm9.7 12.5h-19.4c.5 1.8 1.4 3.3 2.6 4.5l2.1 20.5h3.6v2.5c0 5.5 2.4 7.9 7.9 7.9s7.9-2.4 7.9-7.9v-12.5c0-2.8 3.3-7.1 6.1-7.1h6.1l-1.6-1.5 1.6-1.4h-5c-5.5 0-10 4.5-10 10v12.5c0 2.8-2.3 5-5 5s-5-2.3-5-5v-2.5h3.5l2.1-20.5c1.2-1.2 2.1-2.7 2.5-4.5z"/><path d="m16.1 20c-1.3 0-2.4 1.1-2.4 2.4s1.1 2.4 2.4 2.4 2.4-1.1 2.4-2.4-1.1-2.4-2.4-2.4z"/></svg>