<svg enable-background="new 0 0 48 48" viewBox="0 0 48 48" xmlns="http://www.w3.org/2000/svg"><path d="m15.6 0c5.3 0 9.6 4.3 9.6 9.6h-19.2c0-5.3 4.3-9.6 9.6-9.6zm6.8 16.3-2 19.7h-2.4v2.4c0 2.6 2.2 4.8 4.8 4.8s4.8-2.2 4.8-4.8v-12c0-5.3 4.3-9.6 9.6-9.6h4.8l-2.4 2.4 2.4 2.4h-4.8c-2.6 0-4.8 2.2-4.8 4.8v12c0 5.3-4.3 9.6-9.6 9.6s-9.6-4.3-9.6-9.6v-2.4h-2.4l-2-19.7c-1.2-1.2-2-2.6-2.5-4.3h18.6c-.4 1.7-1.3 3.1-2.5 4.3zm-6.8 2.9c-1.3 0-2.4 1.1-2.4 2.4s1.1 2.4 2.4 2.4 2.4-1.1 2.4-2.4-1.1-2.4-2.4-2.4z"/></svg>