<svg enable-background="new 0 0 48 48" viewBox="0 0 48 48" xmlns="http://www.w3.org/2000/svg"><path d="m36.8 13.1-3.6-7.1h4.4l3.6 7.1z"/><path d="m36.9 7.3 2.3 4.6h-1.6l-2.3-4.6zm1.5-2.5h-7.2l4.8 9.6h7.2z"/><path d="m24.8 13.1-3.6-7.1h4.4l3.6 7.1z"/><path d="m24.9 7.3 2.3 4.6h-1.6l-2.3-4.6zm1.5-2.5h-7.2l4.8 9.6h7.2z"/><path d="m12.8 13.1-3.6-7.1h4.4l3.6 7.1z"/><path d="m12.9 7.3 2.3 4.6h-1.6l-2.3-4.6zm1.5-2.5h-7.2l4.8 9.6h7.2z"/><path d="m4.8 4.8h-.4z"/><path d="m4.8 4.8h-.4z"/><path d="m45.5 7.3v.6l-.3-.6zm-42.3.6 5 10 .7 1.4h1.5 35v19c0 1.3-1 2.3-2.3 2.3h-38.3c-1.3 0-2.3-1-2.3-2.3v-28.7c0-.6.3-1.2.7-1.7m44.8-3.1h-6.9l6 12.1h-36.6l-6-12c-2.5.1-4.5 2.2-4.5 4.7v28.8c0 2.6 2.2 4.8 4.8 4.8h38.4c2.6 0 4.8-2.2 4.8-4.8z"/></svg>