<svg enable-background="new 0 0 48 48" viewBox="0 0 48 48" xmlns="http://www.w3.org/2000/svg"><path d="m0 0h48v48h-48z" fill="none"/><path d="m42.2 3.8 3.3 3.3-20.9 20.9-3.4-3.4 20.9-20.8h.1c-.1 0-.1 0 0 0zm-29.6 27.7c2.8 0 5.1 2.2 5.1 5.1 0 4.2-3.4 7.6-7.6 7.6-1.9 0-3.8-.6-5.5-1.6 1.7-1.3 2.9-3.3 2.9-5.9 0-2.9 2.3-5.2 5.1-5.2m29.5-30.2c-.7 0-1.3.2-1.8.7l-22.7 22.6 7 7 22.7-22.7c1-1 1-2.5 0-3.5l-3.4-3.4c-.5-.4-1.1-.7-1.8-.7zm-29.5 27.7c-4.2 0-7.6 3.4-7.6 7.6 0 3.4-2.9 5-5 5 2.3 3.1 6.4 5 10.1 5 5.6 0 10.1-4.6 10.1-10.1 0-4.1-3.4-7.5-7.6-7.5z"/></svg>