<svg enable-background="new 0 0 48 48" viewBox="0 0 48 48" xmlns="http://www.w3.org/2000/svg"><path d="m24 2.5c6.2 0 12.1 2.4 16.1 6.5 3.4 3.5 5.3 7.9 5.2 12.5 0 6-4.9 10.8-10.8 10.8h-4.7c-3.6 0-6.5 2.9-6.5 6.5 0 1.5.6 3.1 1.5 4.2l.1.1.1.1c.2.2.3.4.3.9 0 .8-.7 1.5-1.5 1.5-11.6-.1-21.3-9.7-21.3-21.6s9.7-21.5 21.5-21.5m0-2.5c-13.2 0-24 10.8-24 24s10.8 24 24 24c2.2 0 4-1.8 4-4 0-1.1-.4-1.9-1.1-2.6-.6-.7-1-1.7-1-2.6 0-2.2 1.8-4 4-4h4.7c7.3 0 13.3-6 13.3-13.3.1-11.9-10.7-21.5-23.9-21.5z"/><path d="m0 0h48v48h-48z" fill="none"/><path d="m11.8 21.4c-1.1 0-1.9-.9-1.9-1.9s.9-1.9 1.9-1.9c1.1 0 1.9.9 1.9 1.9s-.9 1.9-1.9 1.9z"/><path d="m11.8 18.8c.4 0 .7.3.7.7s-.3.7-.7.7-.7-.3-.7-.7.3-.7.7-.7m0-2.5c-1.7 0-3.2 1.5-3.2 3.2s1.5 3.2 3.2 3.2 3.2-1.5 3.2-3.2c0-1.8-1.5-3.2-3.2-3.2z"/><circle cx="18.2" cy="10.8" r="1.9"/><path d="m18.2 10.1c.4 0 .7.3.7.7 0 .3-.2.7-.7.7-.4 0-.7-.3-.7-.7s.3-.7.7-.7m0-2.5c-1.7 0-3.2 1.5-3.2 3.2s1.5 3.2 3.2 3.2c1.8 0 3.2-1.5 3.2-3.2s-1.5-3.2-3.2-3.2z"/><path d="m29 12.8c-1.1 0-1.9-.9-1.9-1.9s.9-1.9 1.9-1.9 1.9.9 1.9 1.9-.8 1.9-1.9 1.9z"/><path d="m29 10.1c.4 0 .7.3.7.7s-.3.7-.7.7-.7-.3-.7-.7.3-.7.7-.7m0-2.5c-1.7 0-3.2 1.5-3.2 3.2s1.5 3.2 3.2 3.2 3.2-1.5 3.2-3.2-1.5-3.2-3.2-3.2z"/><path d="m35.4 21.4c-1.1 0-1.9-.9-1.9-1.9s.9-1.9 1.9-1.9 1.9.9 1.9 1.9c0 1.1-.8 1.9-1.9 1.9z"/><path d="m35.4 18.8c.4 0 .7.3.7.7 0 .3-.2.7-.7.7-.4 0-.7-.3-.7-.7s.3-.7.7-.7m0-2.5c-1.7 0-3.2 1.5-3.2 3.2s1.5 3.2 3.2 3.2c1.8 0 3.2-1.5 3.2-3.2 0-1.8-1.5-3.2-3.2-3.2z"/></svg>