<svg enable-background="new 0 0 48 48" viewBox="0 0 48 48" xmlns="http://www.w3.org/2000/svg"><path d="m24 0c-13.2 0-24 10.8-24 24s10.8 24 24 24c2.2 0 4-1.8 4-4 0-1.1-.4-1.9-1.1-2.6-.6-.7-1-1.7-1-2.6 0-2.2 1.8-4 4-4h4.7c7.3 0 13.3-6 13.3-13.3.1-11.9-10.7-21.5-23.9-21.5zm-14.6 24c-2.2 0-4-1.8-4-4s1.8-4 4-4 4 1.8 4 4-1.9 4-4 4zm7.9-10.7c-2.2 0-4-1.8-4-4s1.8-4 4-4 4 1.8 4 4-1.7 4-4 4zm13.4 0c-2.2 0-4-1.8-4-4s1.8-4 4-4 4 1.8 4 4-1.8 4-4 4zm7.9 10.7c-2.2 0-4-1.8-4-4s1.8-4 4-4 4 1.8 4 4-1.7 4-4 4z"/><path d="m0 0h48v48h-48z" fill="none"/></svg>