<svg enable-background="new 0 0 48 48" viewBox="0 0 48 48" xmlns="http://www.w3.org/2000/svg"><path d="m0 0h48v48h-48z" fill="none"/><path d="m22.9 6.5 3.2 3.3.7.8h1.2 16c.8 0 1.5.7 1.5 1.5v19.9c0 .8-.7 1.5-1.5 1.5h-32c-.8 0-1.5-.7-1.5-1.5v-24c0-.8.7-1.5 1.5-1.5zm-9.9 24.3h5 20 5.1l-3.1-4-5-6.4-1.9-2.5-2 2.4-1.6 1.9-3.1-4-2-2.6-2 2.6-6.4 8.6zm11-26.8h-12c-2.2 0-4 1.8-4 4v24c0 2.2 1.8 4 4 4h32c2.2 0 4-1.8 4-4v-20c0-2.2-1.8-4-4-4h-16zm-6 24.3 6.4-8.6 5 6.4 3.6-4.3 5 6.4h-20zm-14-16.3h-4v10 18c0 2.2 1.8 4 4 4h36v-4h-36z"/></svg>