<svg enable-background="new 0 0 48 48" viewBox="0 0 48 48" xmlns="http://www.w3.org/2000/svg"><path d="m35 35h-21.9v-22h21.9z" fill="none"/><path d="m43.7 6.8c.3 0 .7.2 1.1.6s.6.9.6 1.2v.1.1 30.7c0 .8-1 1.8-1.8 1.8h-39.3c-1 0-1.8-.8-1.8-1.8v-30.8c0-.8 1.1-2 1.8-2h39.4m-21.7 20.3-3-3.6-2-2.4-1.9 2.5-7 9-3.2 4h5.1 28 5l-3-4-9-12-2-2.6-2 2.6zm21.7-22.7h-39.4c-2.2 0-4.3 2.3-4.3 4.4v30.7c0 2.4 1.9 4.3 4.3 4.3h39.3c2.2 0 4.3-2.2 4.3-4.3v-30.7c.2-2.1-2-4.4-4.2-4.4zm-21.7 26.7 7-9 9 12h-28l7-9z"/></svg>