<svg enable-background="new 0 0 48 48" viewBox="0 0 48 48" xmlns="http://www.w3.org/2000/svg"><path d="m28.1 45.8c-.5 1.8-2.3 2.2-4.1 2.2s-3.6-.4-4.1-2.2c-.7-2.8-1.9-9.4-1.9-12.5 0-3.2 2.9-4.1 6-4.1s6 .8 6 4.1c0 3.2-1.2 9.8-1.9 12.5zm-10.4-18.8c-1.8-1.7-2.8-4.2-2.6-6.8.2-4.7 4-8.4 8.6-8.6 5.2-.2 9.4 4 9.4 9 0 2.5-1.1 4.8-2.8 6.5-.2.2-.2.6 0 .8.8.6 1.6 1.4 2 2.4.1.4.6.5.8.1 2.8-2.5 4.3-6.1 4.3-10.2-.1-7.2-6-13-13.1-13.2-7.7 0-13.9 6.1-13.9 13.7 0 3.8 1.7 7.3 4.3 9.8.2.2.7.1.8-.1.5-1 1.1-1.8 2-2.4.4-.3.5-.8.2-1zm6.3-27c-11.6 0-21 9.4-21 21 0 8.4 4.9 15.5 11.8 18.8.4.2.8-.1.8-.6-.2-1.4-.4-2.9-.5-4.2 0-.1-.1-.4-.2-.5-4.4-3-7.3-8-7.3-13.8 0-9 7.4-16.3 16.4-16.4 9.1 0 16.6 7.4 16.6 16.4 0 5.8-3 10.9-7.6 13.9-.1 1.3-.2 2.9-.5 4.4-.1.5.4.8.8.6 6.8-3.4 11.8-10.4 11.8-18.8-.1-11.4-9.5-20.8-21.1-20.8zm0 15c-3.4 0-6 2.6-6 6s2.6 6 6 6 6-2.6 6-6-2.7-6-6-6z"/></svg>