<svg enable-background="new 0 0 48 48" viewBox="0 0 48 48" xmlns="http://www.w3.org/2000/svg"><path d="m39.6 10.7c-.5-3.2-2.8-5-4.7-5.7-1-1.6-3.2-3.4-6.3-3.4-1.4-1.1-3-1.6-4.6-1.6s-3.2.5-4.5 1.5c-1.9 0-4.6.7-6.3 3.4-2.5 1-4.3 3.1-4.7 5.8-2.7 2.5-2.7 5.6-2 7.7l3.7 27c.2 1.5 1.5 2.6 3 2.6h21.8c1.5 0 2.8-1.1 3-2.6l3.7-26.8c1.1-3.5-.4-6.4-2.1-7.9zm-25.2 32.8-3.3-24h4.7l2 24zm11.2 0h-3.2l-2-24h7.3zm8 0h-3.4l2-24h4.7zm-22.9-28.5c.7-1.6 2.1-1.7 2.4-1.8-.5-.9-.5-1.9 0-2.8 1-1.8 2.8-1.6 3.2-1.5 0-1.3.8-2.4 2-2.8.9-.3 2-.1 2.7.5.1-.3.8-2.2 2.8-2.2s2.9 1.8 2.9 2.2c.8-.6 1.8-.8 2.7-.5 1.2.4 2 1.5 2 2.8.4-.1 2.2-.3 3.2 1.5.5.9.5 1.9 0 2.8.7.1 1.8.4 2.4 1.8z"/></svg>