<svg enable-background="new 0 0 48 48" viewBox="0 0 48 48" xmlns="http://www.w3.org/2000/svg"><path d="m41.6 13c-.7-1.1-1.8-1.8-3.1-1.9.6-1.1.6-2.4 0-3.5-.9-1.5-2.6-2.2-4.3-1.9 0-1.6-1.1-3-2.7-3.5-1.2-.4-2.6-.2-3.7.6 0-.1 0-.1-.1-.2-.7-2-2.9-3-5-2.4-1.2.4-2.2 1.3-2.6 2.5-1.1-.8-2.4-1-3.6-.6-1.6.5-2.7 1.9-2.7 3.5-1.6-.3-3.4.4-4.3 1.9-.6 1.1-.7 2.4 0 3.5-1.3.2-2.5.9-3.1 2-.4.7-.4 1.3-.4 2h36c0-.7 0-1.3-.4-2zm-7.2 5-2.6 24h-4.2l2-24h-11.1l2 24h-4.2l-2.6-24h-7.7l4.1 27.4c.2 1.5 1.5 2.6 3 2.6h21.8c1.5 0 2.7-1.1 3-2.6l4.1-27.4z"/></svg>