<svg enable-background="new 0 0 48 48" viewBox="0 0 48 48" xmlns="http://www.w3.org/2000/svg"><path d="m43.2 13.3c1.3 0 2.3 1 2.3 2.3v14.4c0 1.3-1 2.3-2.3 2.3h-2.4-2.5v2.5 2.3h-4.6v-2.3-2.5h-2.5-14.4-2.5v2.5 2.3h-4.6v-2.3-2.5h-2.5-2.4c-1.3 0-2.3-1-2.3-2.3v-14.4c0-1.3 1-2.3 2.3-2.3h20.8c-.6 1.2-1 2.6-1 4.1 0 5 4 9 9 9s9-4 9-9c0-1.5-.4-2.9-1-4.1zm-9.6 2.9c.7 0 1.2.6 1.2 1.2s-.6 1.2-1.2 1.2c-.7 0-1.2-.6-1.2-1.2s.5-1.2 1.2-1.2m0-8.8c-3.7 0-5.4 1.8-7.6 3.4h-21.2c-2.6 0-4.8 2.2-4.8 4.8v14.4c0 2.6 2.2 4.8 4.8 4.8h2.4v2.4c0 1.3 1.1 2.4 2.4 2.4h4.8c1.3 0 2.4-1.1 2.4-2.4v-2.4h14.4v2.4c0 1.3 1.1 2.4 2.4 2.4h4.8c1.3 0 2.4-1.1 2.4-2.4v-2.4h2.4c2.6 0 4.8-2.2 4.8-4.8v-14.4c0-2.6-2.2-4.8-4.8-4.8h-2c-2.2-1.6-3.6-3.4-7.6-3.4zm0 16.5c-3.6 0-6.5-2.9-6.5-6.5s2.9-6.5 6.5-6.5 6.5 2.9 6.5 6.5-2.9 6.5-6.5 6.5zm0-10.2c-2 0-3.7 1.7-3.7 3.7s1.7 3.7 3.7 3.7 3.7-1.7 3.7-3.7-1.7-3.7-3.7-3.7z"/><path d="m15.3 16.5h-9.6v2.4h9.6z"/><path d="m15.3 21.3h-9.6v2.4h9.6z"/><path d="m15.3 26.1h-9.6v2.4h9.6z"/></svg>