<svg enable-background="new 0 0 48 48" viewBox="0 0 48 48" xmlns="http://www.w3.org/2000/svg"><path d="m33.6 8.4c-2.8 0-5.4.8-7.6 2.4h-21.2c-2.6 0-4.8 2.2-4.8 4.8v14.4c0 2.6 2.2 4.8 4.8 4.8h2.4v2.4c0 1.3 1.1 2.4 2.4 2.4h4.8c1.3 0 2.4-1.1 2.4-2.4v-2.4h14.4v2.4c0 1.3 1.1 2.4 2.4 2.4h4.8c1.3 0 2.4-1.1 2.4-2.4v-2.4h2.4c2.6 0 4.8-2.2 4.8-4.8v-14.4c0-2.6-2.2-4.8-4.8-4.8h-2c-2.2-1.6-4.8-2.4-7.6-2.4zm0 3.6c4.7 0 8.4 3.7 8.4 8.4s-3.7 8.4-8.4 8.4-8.4-3.7-8.4-8.4 3.7-8.4 8.4-8.4zm-28.8 3.6h9.6v2.4h-9.6zm28.8 0c-2.6 0-4.8 2.2-4.8 4.8s2.2 4.8 4.8 4.8 4.8-2.2 4.8-4.8-2.2-4.8-4.8-4.8zm-28.8 4.8h9.6v2.4h-9.6zm0 4.8h9.6v2.4h-9.6z"/></svg>