<svg enable-background="new 0 0 48 48" viewBox="0 0 48 48" xmlns="http://www.w3.org/2000/svg"><path d="m44.4 27.7v15.7c0 1.1-.9 2.1-2.1 2.1h-36.6c-1.1 0-2.1-.9-2.1-2.1v-15.7h2.1 27.4 2.1 2.5 4.6.1zm-31.8 15.9c3.9 0 7-3.1 7-7s-3.1-7-7-7-7 3.1-7 7 3.1 7 7 7m20.3-43.6-29 11.8c-1.6.7-2.7 2.2-2.7 4.2v27.5c0 2.5 2 4.6 4.6 4.6h36.6c2.5 0 4.6-2 4.6-4.6v-27.5c0-2.5-2-4.6-4.6-4.6h-26.8l18.8-7.7zm-27.2 25.2v-9.1h36.6v9.1h-.1-4.6v-4.6h-4.6v4.6zm6.9 15.9c-2.5 0-4.5-2.1-4.5-4.5 0-2.5 2.1-4.5 4.5-4.5s4.5 2.1 4.5 4.5-2.1 4.5-4.5 4.5z"/><path d="m0 0h48v48h-48z" fill="none"/></svg>