<svg enable-background="new 0 0 48 48" viewBox="0 0 48 48" xmlns="http://www.w3.org/2000/svg"><path d="m0 0h48v48h-48z" fill="none"/><path d="m28 11.3v25.5h-25.5v-25.5zm-16.9 13.4c-3.1.8-6.2 2.6-6.2 5.8v1.3 2.5h2.5 15.6 2.5v-2.5-1.3c0-3.2-3.1-5-6.2-5.8 1.4-1.2 2.3-2.9 2.3-5 0-3.6-2.8-6.4-6.4-6.4-3.5 0-6.4 2.9-6.4 6.4 0 2.1.9 3.8 2.3 5m36.9-15.9h-4.3v30.6h4.3zm-8.8 0h-4.3v30.5h4.3zm-10.9 0h-26.1c-1.2 0-2.2.9-2.2 2.1v26.2c0 1.2 1 2.2 2.2 2.2h26.2c1.2 0 2.2-1 2.2-2.2v-26.2c0-1.2-1.1-2.1-2.3-2.1zm-13.1 14.8c-2.2 0-3.9-1.7-3.9-3.9s1.8-3.9 3.9-3.9c2.2 0 3.9 1.7 3.9 3.9s-1.7 3.9-3.9 3.9zm-7.8 8.2v-1.3c0-2.6 5.2-3.9 7.8-3.9s7.8 1.3 7.8 3.9v1.3z"/></svg>