<svg enable-background="new 0 0 48 48" viewBox="0 0 48 48" xmlns="http://www.w3.org/2000/svg"><path d="m0 0h48v48h-48z" fill="none"/><path d="m26.5 18.7-7.4-5.5v21.6l7.3-5.5 7.2-5.3zm0 0-7.4-5.5v21.6l7.3-5.5 7.2-5.3zm0 0-7.4-5.5v21.6l7.3-5.5 7.2-5.3zm-5-13.8v-4.8c-4.8.5-9.2 2.4-12.8 5.3l3.3 3.5c2.9-2.2 6-3.5 9.5-4zm-12.7 7.3-3.5-3.3c-2.9 3.5-4.8 7.9-5.3 12.7h4.9c.4-3.5 1.8-6.7 3.9-9.4zm-3.9 14.2h-4.9c.5 4.8 2.4 9.2 5.3 12.8l3.5-3.5c-2.1-2.6-3.5-5.8-3.9-9.3zm3.9 16.2c3.6 2.9 8 4.8 12.8 5.3v-4.9c-3.5-.5-6.7-1.8-9.4-3.8-.1 0-3.4 3.4-3.4 3.4zm39.2-18.6c0 12.4-9.5 22.7-21.5 23.9v-4.9c9.4-1.1 16.7-9.2 16.7-19s-7.3-17.9-16.7-19.1v-4.8c12 1.2 21.5 11.5 21.5 23.9z" fill="#010101"/></svg>