<svg enable-background="new 0 0 48 48" viewBox="0 0 48 48" xmlns="http://www.w3.org/2000/svg"><path d="m45 15.7v-1.6c0-.8-.6-1.4-1.4-1.4h-.1c-.8 0-1.4.6-1.4 1.4v3.1h-1.6c-.8 0-1.4.6-1.4 1.4v3.1h-1.6v-1.6c0-.8-.6-1.4-1.4-1.4h-1.6v-.1c0-.8-.6-1.4-1.4-1.4h-1.6v-3.1c0-.8-.6-1.4-1.4-1.4h-1.6v-6c0-.8-.6-1.4-1.4-1.4h-.1c-.8 0-1.4.6-1.4 1.4v12.1h-3v-1.6c0-.8-.6-1.4-1.4-1.4h-.1c-.8 0-1.4.6-1.4 1.4v4.6h-3v-1.6c0-.8-.6-1.4-1.4-1.4h-1.6v-4.6c0-.8-.6-1.4-1.4-1.4h-1.6v-1.6c0-.8-.6-1.4-1.4-1.4h-.4c-.8 0-1.4.6-1.4 1.4v4.6h-1.6c-.8 0-1.4.6-1.4 1.4v1.6h-1.6c-.8 0-1.4.6-1.4 1.4v1.6c-.8 0-1.4.6-1.4 1.4v1.7c0 .8.6 1.4 1.4 1.4h.1v1.6c0 .8.6 1.4 1.4 1.4h1.6v1.6c0 .8.6 1.4 1.4 1.4h1.6v4.6c0 .8.6 1.4 1.4 1.4h.1c.8 0 1.4-.6 1.4-1.4v-1.6h1.6c.8 0 1.4-.6 1.4-1.4v-4.6h1.6c.8 0 1.4-.6 1.4-1.4v-1.6h3v4.6c0 .8.6 1.4 1.4 1.4h.1c.8 0 1.4-.6 1.4-1.4v-1.6h3v12.1c0 .8.6 1.4 1.4 1.4h.1c.8 0 1.4-.6 1.4-1.4v-6.1h1.6c.8 0 1.4-.6 1.4-1.4v-3.1h1.6c.8 0 1.4-.6 1.4-1.4v-.1h1.6c.8 0 1.4-.6 1.4-1.4v-1.6h1.6v3.1c0 .8.6 1.4 1.4 1.4h1.7v3.1c0 .8.6 1.4 1.4 1.4h.1c.8 0 1.4-.6 1.4-1.4v-1.6h1.6c.8 0 1.4-.6 1.4-1.4v-4.6-4.6-4.6c0-.8-.6-1.4-1.4-1.4z"/></svg>