<svg enable-background="new 0 0 48 48" viewBox="0 0 48 48" xmlns="http://www.w3.org/2000/svg"><path d="m36 2.5c1.3 0 2.3 1 2.3 2.3v38.4c0 1.3-1 2.3-2.3 2.3h-24c-1.3 0-2.3-1-2.3-2.3v-38.4c0-1.3 1-2.3 2.3-2.3zm-12 14.5c3.4 0 6.3-2.8 6.3-6.3s-2.9-6.2-6.3-6.2-6.3 2.8-6.3 6.3 2.9 6.2 6.3 6.2m0 26.5c6.5 0 11.9-5.3 11.9-11.9s-5.4-11.8-11.9-11.8-11.9 5.3-11.9 11.9 5.4 11.8 11.9 11.8m0-15c1.7 0 3.1 1.4 3.1 3.1s-1.4 3.1-3.1 3.1-3.1-1.4-3.1-3.1 1.4-3.1 3.1-3.1m12-28.5h-24c-2.6 0-4.8 2.2-4.8 4.8v38.4c0 2.6 2.2 4.8 4.8 4.8h24c2.6 0 4.8-2.2 4.8-4.8v-38.4c0-2.6-2.2-4.8-4.8-4.8zm-12 14.5c-2.1 0-3.8-1.7-3.8-3.8s1.7-3.7 3.8-3.7 3.8 1.7 3.8 3.8-1.7 3.7-3.8 3.7zm0 26.5c-5.2 0-9.4-4.2-9.4-9.4s4.2-9.4 9.4-9.4 9.4 4.2 9.4 9.4-4.2 9.4-9.4 9.4zm0-15c-3.1 0-5.6 2.5-5.6 5.6s2.5 5.6 5.6 5.6 5.6-2.5 5.6-5.6-2.5-5.6-5.6-5.6z"/></svg>