<svg enable-background="new 0 0 48 48" viewBox="0 0 48 48" xmlns="http://www.w3.org/2000/svg"><path d="m43.2 21.7c1.3 0 2.3 1 2.3 2.3v19.2c0 1.3-1 2.3-2.3 2.3h-38.4c-1.3 0-2.3-1-2.3-2.3v-19.2c0-1.3 1-2.3 2.3-2.3zm-26.8 22.2 3.7-2 11-6 4-2.2-4-2.2-11-6-3.7-2v4.2 12zm22-43.9h-28.8v4.8h28.8zm4.8 9.6h-38.4v4.8h38.4zm0 9.6h-38.4c-2.6 0-4.8 2.2-4.8 4.8v19.2c0 2.6 2.2 4.8 4.8 4.8h38.4c2.6 0 4.8-2.2 4.8-4.8v-19.2c0-2.6-2.2-4.8-4.8-4.8zm-24.3 20.5v-12l11 6z"/><path d="m0 0h48v48h-48z" fill="none"/></svg>