<svg enable-background="new 0 0 48 48" viewBox="0 0 48 48" xmlns="http://www.w3.org/2000/svg"><path d="m0 0h48v48h-48z" fill="none"/><path d="m15.2 22.9c0-1.8-1.4-3.2-3.2-3.2s-3.2 1.4-3.2 3.2 1.4 3.2 3.2 3.2 3.2-1.4 3.2-3.2zm15.4-10.9c0-1.8-1.4-3.2-3.2-3.2h-6.6c-1.8 0-3.2 1.4-3.2 3.2s1.4 3.2 3.2 3.2h6.6c1.6 0 3.2-1.4 3.2-3.2zm-14.3 18.6c-1.8 0-3.2 1.4-3.2 3.2s1.4 3.2 3.2 3.2 3.2-1.4 3.2-3.2c.2-1.8-1.4-3.2-3.2-3.2zm7.7-30.6c-13.2 0-24 10.8-24 24s10.8 24 24 24 24-10.8 24-24-10.8-24-24-24zm0 43.7c-10.8 0-19.7-8.9-19.7-19.7s8.9-19.7 19.7-19.7 19.7 8.9 19.7 19.7-8.9 19.7-19.7 19.7zm12-24c-1.8 0-3.2 1.4-3.2 3.2s1.4 3.2 3.2 3.2 3.2-1.4 3.2-3.2-1.4-3.2-3.2-3.2zm-4.3 10.9c-1.8 0-3.2 1.4-3.2 3.2s1.4 3.2 3.2 3.2 3.2-1.4 3.2-3.2-1.4-3.2-3.2-3.2z"/></svg>