<svg enable-background="new 0 0 48 48" viewBox="0 0 48 48" xmlns="http://www.w3.org/2000/svg"><path d="m21.4 37.3c0 1.4 1.2 2.6 2.6 2.6s2.6-1.2 2.6-2.6-1.2-2.6-2.6-2.6-2.6 1.2-2.6 2.6zm0-37.3v10.7h5.3v-5.2c9 1.3 16 9 16 18.5 0 10.3-8.4 18.7-18.7 18.7s-18.7-8.4-18.7-18.7c0-4.4 1.6-8.5 4.2-11.8l14.5 14.4 3.7-3.7-18.1-18.1c-5.9 4.3-9.6 11.3-9.6 19.2 0 13.2 10.7 24 24 24s24-10.8 24-24-10.8-24-24-24zm18.6 24c0-1.4-1.2-2.6-2.6-2.6s-2.6 1.2-2.6 2.6 1.2 2.6 2.6 2.6 2.6-1.2 2.6-2.6zm-32 0c0 1.4 1.2 2.6 2.6 2.6s2.6-1.2 2.6-2.6-1.2-2.6-2.6-2.6-2.6 1.2-2.6 2.6z"/></svg>