<svg enable-background="new 0 0 48 48" viewBox="0 0 48 48" xmlns="http://www.w3.org/2000/svg"><path d="m37.5 22.9v-.8c0-.6.5-1.1 1.1-1.1h.8c.6 0 1.1.5 1.1 1.1v.8c0 .6-.5 1.1-1.1 1.1h-.8c-.6 0-1.1-.5-1.1-1.1zm1.1 7.1h.8c.6 0 1.1-.5 1.1-1.1v-.8c0-.6-.5-1.1-1.1-1.1h-.8c-.6 0-1.1.5-1.1 1.1v.8c0 .6.5 1.1 1.1 1.1zm-3.4-12.8s-.1-.7-13.5-.7-13.5.7-13.5.7-.7 0-.7 9.8.7 9.8.7 9.8 0 .7 13.5.7 13.5-.7 13.5-.7.7 0 .7-9.8-.7-9.8-.7-9.8zm12.8-3.7v27c0 2.5-2 4.5-4.5 4.5h-1.5v3h-4.5l-1-3h-25l-1 3h-4.5v-3h-1.5c-2.5 0-4.5-2-4.5-4.5v-27c0-2.5 2-4.5 4.5-4.5h13.2l-5.1-5.2c-.9-.9-.9-2.3 0-3.2.9-.9 2.3-.9 3.2 0l8.2 8.4 8.1-8.3c.9-.9 2.3-.9 3.2 0s.9 2.3 0 3.2l-5 5.1h13.2c2.5 0 4.5 2 4.5 4.5zm-4.5 0h-39v27h39z"/></svg>