<svg enable-background="new 0 0 48 48" viewBox="0 0 48 48" xmlns="http://www.w3.org/2000/svg"><path d="m43.5 9h-11.8l3.3-3.9c1.2-1.2 1.2-3.1 0-4.2s-3.1-1.2-4.2 0l-6.9 8-6.9-7.9c-1.2-1.2-3.1-1.2-4.2 0s-1.2 3.1 0 4.2l3.4 3.8h-11.7c-2.5 0-4.5 2-4.5 4.5v27c0 2.4 2 4.5 4.5 4.5h1.5v3h4.5l2-3h23l2 3h4.5v-3h1.5c2.5 0 4.5-2 4.5-4.5v-27c0-2.5-2.1-4.5-4.5-4.5zm-6.8 29.2s0 .7-15.7.7c-14.3.1-14.3-.7-14.3-.7s-.7 0-.7-11.2.7-11.2.7-11.2 0-.8 14.3-.8c15.7 0 15.7.7 15.7.7s.7 0 .7 11.2-.7 11.3-.7 11.3zm6.8-9.4c0 .6-.5 1.1-1.1 1.1h-.7c-.6 0-1.1-.5-1.1-1.1v-.7c0-.6.5-1.1 1.1-1.1h.7c.6 0 1.1.5 1.1 1.1zm0-6c0 .6-.5 1.1-1.1 1.1h-.7c-.6 0-1.1-.5-1.1-1.1v-.7c0-.6.5-1.1 1.1-1.1h.7c.6 0 1.1.5 1.1 1.1z"/></svg>