<svg enable-background="new 0 0 48 48" viewBox="0 0 48 48" xmlns="http://www.w3.org/2000/svg"><path d="m0 0h48v48h-48z" fill="none"/><path d="m43.2 2.5c1.3 0 2.3 1 2.3 2.3v28.8c0 1.3-1 2.3-2.3 2.3h-28.8c-1.3 0-2.3-1-2.3-2.3v-28.8c0-1.3 1-2.3 2.3-2.3zm-21.2 30.2 4-3 11.3-8.5 2.7-2-2.7-2-11.3-8.5-4-3v5 17zm21.2-32.7h-28.8c-2.6 0-4.8 2.2-4.8 4.8v28.8c0 2.6 2.2 4.8 4.8 4.8h28.8c2.6 0 4.8-2.2 4.8-4.8v-28.8c0-2.6-2.2-4.8-4.8-4.8zm-18.7 27.7v-17l11.3 8.5zm-19.7-18.1h-4.8v33.6c0 2.6 2.2 4.8 4.8 4.8h33.6v-4.8h-33.6z"/></svg>