<svg enable-background="new 0 0 48 48" viewBox="0 0 48 48" xmlns="http://www.w3.org/2000/svg"><path d="m0 0h48v48h-48z" fill="none"/><path d="m34.7 10.5c.1 0 .1.1.1.1v9.4 1.9 6 9.4c0 .1-.1.1-.1.1h-32c-.1 0-.1-.1-.1-.1v-26.6c0-.1.1-.1.1-.1h32m10.8 4.8v17.2l-6.4-6.4-2.2-2.2 2.2-2.2zm-10.8-7.4h-32c-1.5 0-2.7 1.2-2.7 2.7v26.6c0 1.5 1.2 2.7 2.6 2.7h32c1.4 0 2.6-1.2 2.6-2.6v-9.4l10.8 10.6v-29.2l-10.7 10.6v-9.4c0-1.4-1.2-2.6-2.6-2.6z"/><path d="m20.1 16.6h-3.7v5.7h-5.6v3.7h5.6v5.6h3.7v-5.6h5.7v-3.7h-5.7z"/></svg>