<svg enable-background="new 0 0 48 48" viewBox="0 0 48 48" xmlns="http://www.w3.org/2000/svg"><path d="m26.3 2.5v4.7 2.5h2.5c3.9 0 7.1 3.2 7.1 7.1v1.5c-3.5 1-6 4.2-6 8.1s2.5 7.1 6 8.1v1.5c0 5.2-4.3 9.5-9.5 9.5h-4.8c-5.2 0-9.5-4.3-9.5-9.5v-1.5c3.5-1 6-4.2 6-8.1s-2.5-7.1-6-8.1v-1.5c0-2.1.8-3.9 2.2-5.2v3.2c0 3.2 2.9 6.1 6.1 6.1h3.6c2.1 0 3.7-1.6 3.7-3.7s-1.6-3.7-3.7-3.7h-2.3v-6.3-4.7zm-6 40.5h2.2 3 2.2l.3-2.1 1-7 .4-2.9h-2.9-5-2.9l.4 2.9 1 7zm6.1-43h-4.8c-1.3 0-2.4 1.1-2.4 2.4v4.8 7.6c0 .7.5 1.2 1.2 1.2h3.6c.7 0 1.2.5 1.2 1.2s-.5 1.2-1.2 1.2h-3.6c-1.8 0-3.6-1.8-3.6-3.6v-7.2c-4.2 1.1-7.2 4.7-7.2 9.2v3.6c3.4 0 6 2.6 6 6s-2.6 6-6 6v3.6c0 6.6 5.4 12 12 12h4.8c6.6 0 12-5.4 12-12v-3.6c-3.4 0-6-2.6-6-6s2.6-6 6-6v-3.6c0-5.3-4.3-9.6-9.6-9.6v-4.8c0-1.3-1.1-2.4-2.4-2.4zm-3.9 40.5-1-7h5l-1 7z"/></svg>