<svg enable-background="new 0 0 48 48" viewBox="0 0 48 48" xmlns="http://www.w3.org/2000/svg"><path d="m10.8 13.2h-3.5c-.8 0-1.6.7-1.6 1.6v.1c0 .8.7 1.6 1.6 1.6h3.5c.8 0 1.6-.7 1.6-1.6v-.1c0-.9-.6-1.6-1.6-1.6z"/><path d="m20.8 13.2h-3.5c-.8 0-1.6.7-1.6 1.6v.1c0 .8.7 1.6 1.6 1.6h3.5c.8 0 1.6-.7 1.6-1.6v-.1c-.1-.9-.8-1.6-1.6-1.6z"/><path d="m20.8 6.6h-3.5c-.8 0-1.6.7-1.6 1.6v.2c0 .8.7 1.6 1.6 1.6h3.5c.8 0 1.6-.7 1.6-1.6v-.1c-.1-1-.8-1.7-1.6-1.7z"/><path d="m20.8 0h-3.5c-.8 0-1.6.7-1.6 1.6v.1c0 .8.7 1.6 1.6 1.6h3.5c.8 0 1.6-.7 1.6-1.6v-.1c-.1-.9-.8-1.6-1.6-1.6z"/><path d="m10.8 28.1h-3.5c-.8 0-1.6.7-1.6 1.6v16.7c0 .8.7 1.6 1.6 1.6h3.5c.8 0 1.6-.7 1.6-1.6v-16.6c0-1-.6-1.7-1.6-1.7z"/><path d="m20.8 19.9h-3.5c-.8 0-1.6.7-1.6 1.6v25c0 .8.7 1.6 1.6 1.6h3.5c.8 0 1.6-.7 1.6-1.6v-25c-.1-1-.8-1.6-1.6-1.6z"/><path d="m30.7 24.8h-3.5c-.8 0-1.6.7-1.6 1.6v20c0 .8.7 1.6 1.6 1.6h3.5c.8 0 1.6-.7 1.6-1.6v-20c0-.8-.7-1.6-1.6-1.6z"/><path d="m40.6 14.9h-3.4c-.8 0-1.6.7-1.6 1.6v29.9c0 .8.7 1.6 1.6 1.6h3.5c.8 0 1.6-.7 1.6-1.6v-30c-.1-.8-.8-1.5-1.7-1.5z"/><path d="m10.8 21.5h-3.5c-.8 0-1.6.7-1.6 1.6v.1c0 .8.7 1.6 1.6 1.6h3.5c.8 0 1.6-.7 1.6-1.6v-.2c0-.8-.6-1.5-1.6-1.5z"/><path d="m30.7 18.2h-3.5c-.8 0-1.6.7-1.6 1.6v.1c0 .8.7 1.6 1.6 1.6h3.5c.8 0 1.6-.7 1.6-1.6v-.1c0-.8-.7-1.6-1.6-1.6z"/><path d="m30.7 10h-3.5c-.8 0-1.6.7-1.6 1.6v.1c0 .8.7 1.6 1.6 1.6h3.5c.8 0 1.6-.7 1.6-1.6v-.1c0-.9-.7-1.6-1.6-1.6z"/><path d="m40.6 8.3h-3.4c-.8 0-1.6.7-1.6 1.6v.1c0 .8.7 1.6 1.6 1.6h3.5c.8 0 1.6-.7 1.6-1.6v-.2c-.1-.8-.8-1.5-1.7-1.5z"/><path d="m40.6 1.7h-3.4c-.8 0-1.6.7-1.6 1.6v.1c0 .8.7 1.6 1.6 1.6h3.5c.8 0 1.6-.7 1.6-1.6v-.2c-.1-.8-.8-1.5-1.7-1.5z"/></svg>