<svg enable-background="new 0 0 48 48" viewBox="0 0 48 48" xmlns="http://www.w3.org/2000/svg"><path d="m8 37.5h-6.4c-.8 0-1.6.7-1.6 1.6v1.8c0 .8.7 1.6 1.6 1.6h6.6c.8 0 1.6-.7 1.6-1.6v-1.8c-.2-.8-.9-1.6-1.8-1.6z"/><path d="m20.9 37.5h-6.6c-.8 0-1.6.7-1.6 1.6v1.8c0 .8.7 1.6 1.6 1.6h6.6c.8 0 1.6-.7 1.6-1.6v-1.8c-.1-.8-.8-1.6-1.6-1.6z"/><path d="m33.7 37.5h-6.6c-.8 0-1.6.7-1.6 1.6v1.8c0 .8.7 1.6 1.6 1.6h6.6c.8 0 1.6-.7 1.6-1.6v-1.8c-.1-.8-.7-1.6-1.6-1.6z"/><path d="m46.4 37.5h-6.6c-.8 0-1.6.7-1.6 1.6v1.8c0 .8.7 1.6 1.6 1.6h6.6c.8 0 1.6-.7 1.6-1.6v-1.8c0-.8-.7-1.6-1.6-1.6z"/><path d="m8 29.6h-6.4c-.8 0-1.6.7-1.6 1.6v1.8c0 .8.7 1.6 1.6 1.6h6.6c.8 0 1.6-.7 1.6-1.6v-1.8c-.2-1-.9-1.6-1.8-1.6z"/><path d="m20.9 29.6h-6.6c-.8 0-1.6.7-1.6 1.6v1.8c0 .8.7 1.6 1.6 1.6h6.6c.8 0 1.6-.7 1.6-1.6v-1.8c-.1-1-.8-1.6-1.6-1.6z"/><path d="m33.7 29.6h-6.6c-.8 0-1.6.7-1.6 1.6v1.8c0 .8.7 1.6 1.6 1.6h6.6c.8 0 1.6-.7 1.6-1.6v-1.8c-.1-1-.7-1.6-1.6-1.6z"/><path d="m46.4 29.6h-6.6c-.8 0-1.6.7-1.6 1.6v1.8c0 .8.7 1.6 1.6 1.6h6.6c.8 0 1.6-.7 1.6-1.6v-1.8c0-1-.7-1.6-1.6-1.6z"/><path d="m8 21.6h-6.4c-.8 0-1.6.7-1.6 1.6v1.8c0 .7.7 1.4 1.6 1.4h6.6c.8 0 1.6-.7 1.6-1.6v-1.8c-.2-.7-.9-1.4-1.8-1.4z"/><path d="m20.9 21.6h-6.6c-.8 0-1.6.7-1.6 1.6v1.8c0 .8.7 1.6 1.6 1.6h6.6c.8 0 1.6-.7 1.6-1.6v-1.8c-.1-.9-.8-1.6-1.6-1.6z"/><path d="m46.4 21.6h-6.6c-.8 0-1.6.7-1.6 1.6v1.8c0 .8.7 1.6 1.6 1.6h6.6c.8 0 1.6-.7 1.6-1.6v-1.8c0-.9-.7-1.6-1.6-1.6z"/><path d="m8 13.6h-6.4c-.8 0-1.6.7-1.6 1.6v1.8c0 .8.7 1.6 1.6 1.6h6.6c.8 0 1.6-.7 1.6-1.6v-1.8c-.2-.9-.9-1.6-1.8-1.6z"/><path d="m46.4 13.6h-6.6c-.8 0-1.6.7-1.6 1.6v1.8c0 .8.7 1.6 1.6 1.6h6.6c.8 0 1.6-.7 1.6-1.6v-1.8c0-.9-.7-1.6-1.6-1.6z"/><path d="m8 5.6h-6.4c-.9 0-1.6.6-1.6 1.5v1.8c0 .8.7 1.6 1.6 1.6h6.6c.8 0 1.6-.7 1.6-1.6v-1.8c-.2-.9-.9-1.5-1.8-1.5z"/></svg>