<svg enable-background="new 0 0 48 48" viewBox="0 0 48 48" xmlns="http://www.w3.org/2000/svg"><path d="m21.5 8.7v30.5l-9-9.1-.7-.7h-1-8.2v-10.9h8.2 1l.7-.7zm2.5-6-13.3 13.3h-10.6v15.9h10.7l13.2 13.4z"/><path d="m0 0h48v48h-48z" fill="none"/><path d="m33.7 28.4c.4-1.4.7-2.9.8-4.3 0-1.4-.2-2.7-.6-4 .5 1.2.8 2.6.8 3.9 0 1.5-.3 3-1 4.4z"/><path d="m29.3 13.3s4.1 5.5 4 10.7-4 10.7-4 10.7c4-2 6.7-6.1 6.7-10.8s-2.8-8.7-6.7-10.6z"/><path d="m32.2 44.9c7.6-2.6 13.7-11.8 13.7-20.9 0-9.3-6-18.3-13.8-20.9l-.2-.4c8.8 3.3 14.9 11.8 14.9 21.3s-6.1 18-14.8 21.3z"/><path d="m29.3.7 2 3.5c7.7 2.2 13.4 11.4 13.4 19.8s-5.6 17.6-13.3 19.8l-2 3.5c10.6-2.4 18.6-11.9 18.6-23.3s-8.1-20.9-18.7-23.3z"/></svg>