<svg enable-background="new 0 0 48 48" viewBox="0 0 48 48" xmlns="http://www.w3.org/2000/svg"><path d="m24.2-.1c-24.1.2-22.9 24-22 26.8.5 1.8 1.3 5.1 2.2 7.5-.1 0-.2 0-.4 0-1.3.4-2.2 1.6-1.8 2.9l1.6 6.4c.2 1 1.1 1.8 2.2 1.8.2 0 .4 0 .6-.1.4-.2.6-.3.9-.6.1.2.1.5.2.7.2.7 1 1.2 1.8 1.1.6-.1 1-.5 1.2-1 .4.7 1 1.3 1.7 1.7 1.1.6 2.4.8 3.6.6 2.5-.6 4.2-3.3 3.5-5.8l-2.3-9.5c-.4-1.2-1.1-2.3-2.2-2.9s-2.4-.8-3.6-.6c-1.4.4-2.5 1.2-3.1 2.4-.4-1.9-.8-3.9-1.2-5.8 0 .1-2.4-19.5 16.9-19.5 19.4 0 16.5 19.5 16.5 19.5-.4 1.9-.8 3.9-1.2 5.8-.6-1.2-1.7-2.1-3.1-2.4-1.2-.2-2.5-.1-3.6.6-1.1.6-1.9 1.7-2.2 2.9l-2.3 9.6c-.6 2.5 1 5.2 3.5 5.8 1.2.2 2.5.1 3.6-.6.7-.4 1.2-1 1.7-1.7.2.5.6 1 1.2 1 .8.1 1.6-.4 1.8-1.1.1-.2.1-.5.2-.7.2.2.6.4.8.5.2 0 .4.1.6.1 1.1 0 2.1-.7 2.3-1.8l1.6-6.4c.4-1.3-.5-2.7-1.8-2.9-.1 0-.1 0-.2 0 .7-2.5 1.9-5.8 2.4-7.5.9-2.8 2.6-26.6-21.6-26.8z"/></svg>