<svg enable-background="new 0 0 48 48" viewBox="0 0 48 48" xmlns="http://www.w3.org/2000/svg"><path d="m24.2 1.4c7.4.1 13 2.5 16.4 7.2 5.2 7 4.1 16.6 3.7 17.7-.2.7-.6 1.8-1 3-.5 1.5-1 3.1-1.5 4.5-.1.5 0 .9.2 1.3.3.4.7.6 1.2.6h.1c.2.1.4.2.4.3.1.1.2.4.1.7l-1.6 6.4c-.1.3-.4.6-.7.6-.1 0-.2-.1-.3-.1s-.2-.1-.2-.1c-.3-.3-.7-.4-1-.4-.1 0-.2 0-.2 0-.5.1-.9.4-1.1.8-.1.3-.2.5-.2.7v.1c0 .1-.1.1-.1.2s-.1.1-.2.1-.1-.1-.1-.2c-.2-.5-.7-.8-1.2-.8h-.1c-.5 0-1 .2-1.2.7-.4.6-.7 1-1.1 1.2-.1 0-.1.1-.2.1-.5.3-1 .5-1.7.5-.3 0-.5 0-.8-.1-1.7-.4-2.8-2.2-2.4-4l2.3-9.5s0 0 0-.1c.2-.8.7-1.5 1.4-1.9 0 0 .1 0 .1-.1.5-.3 1-.5 1.7-.5.3 0 .5 0 .8.1 1 .3 1.7.8 2.1 1.6.3.5.8.8 1.3.8h.2c.6-.1 1.1-.6 1.3-1.2.2-.9.4-1.9.6-2.9s.4-2 .6-2.9c0 0 0 0 0-.1.1-.4 1.3-9.6-4.1-15.8-3.1-3.6-7.8-5.5-14-5.5-6.1 0-10.8 1.8-14 5.5-5.5 6.2-4.5 15.4-4.4 15.8v.1c.2 1 .4 2 .6 2.9s.4 1.9.6 2.9c.1.6.6 1.1 1.3 1.2h.2c.6 0 1.1-.3 1.3-.8.4-.8 1.1-1.4 2.1-1.6.2 0 .4-.1.6-.1.7 0 1.3.2 1.9.5.7.4 1.2 1.1 1.5 2l2.3 9.5v.1c.2.8.1 1.6-.3 2.4-.5.8-1.2 1.3-2 1.6-.2 0-.4.1-.6.1-.7 0-1.3-.2-1.9-.5 0 0 0 0-.1 0-.4-.2-.8-.6-1-1-.3-.5-.8-.8-1.3-.8s-1.1.3-1.3.8c-.1.1-.1.2-.1.2-.1 0-.1 0-.1-.1s0-.1-.1-.2v-.1c0-.2-.1-.4-.2-.7-.2-.4-.6-.7-1.1-.8-.1 0-.2 0-.2 0-.4 0-.8.2-1.1.4 0 0-.1.1-.3.1h-.1c-.4 0-.7-.3-.8-.7l-1.6-6.4c-.1-.5.3-.9.6-1h.1c.5 0 .9-.2 1.2-.6s.4-.9.2-1.4c-.7-2.1-1.5-5-2-6.9l-.1-.5s0 0 0-.1c-.3-1-1.2-10.5 3.9-17.5 3.7-4.7 9.3-7.2 16.8-7.3m0-1.5c-24.1.2-22.9 24.1-22 26.8.5 1.8 1.3 5.1 2.2 7.5-.1 0-.2 0-.4 0-1.3.4-2.2 1.6-1.8 2.9l1.6 6.4c.2 1.1 1.1 1.8 2.2 1.8.2 0 .4 0 .6-.1.4-.1.6-.2.9-.5.1.2.1.5.2.7.2.7.8 1.1 1.6 1.1h.3c.6-.1 1-.5 1.2-1 .4.7 1 1.3 1.7 1.7.8.4 1.7.7 2.7.7.3 0 .6 0 1-.1 2.5-.6 4.2-3.3 3.5-5.8l-2.3-9.5c-.4-1.2-1.1-2.3-2.2-2.9-.8-.4-1.7-.7-2.7-.7-.3 0-.6 0-1 .1-1.4.4-2.5 1.2-3.1 2.4-.4-1.9-.8-3.9-1.2-5.8 0 0-2.4-19.6 16.9-19.6 19.4 0 16.5 19.6 16.5 19.6-.4 1.9-.8 3.9-1.2 5.8-.6-1.2-1.7-2.1-3.1-2.4-.4-.1-.7-.1-1.1-.1-.9 0-1.7.2-2.5.7-1.1.6-1.9 1.7-2.2 2.9l-2.3 9.5c-.6 2.5 1 5.2 3.5 5.8.3.2.6.2 1 .2.9 0 1.7-.2 2.5-.7.7-.4 1.2-1 1.7-1.7.2.5.6 1 1.2 1h.3c.7 0 1.3-.5 1.6-1.1.1-.2.1-.5.2-.7.2.2.6.4.8.5.2 0 .4.1.6.1 1.1 0 2.1-.7 2.3-1.8l1.6-6.4c.4-1.3-.5-2.7-1.8-2.9-.1 0-.1 0-.2 0 .7-2.5 1.9-5.8 2.4-7.5.8-2.8 2.5-26.7-21.7-26.9z"/><g stroke="#000" stroke-linejoin="round" stroke-miterlimit="10" stroke-width="1.5"><ellipse cx="35.5" cy="38.5" rx="2.8" ry="1.4" transform="matrix(.2846 -.9586 .9586 .2846 -11.517 61.5622)"/><ellipse cx="11.3" cy="38.5" rx="1.4" ry="2.8" transform="matrix(.8791 -.4766 .4766 .8791 -16.9793 10.0473)"/></g></svg>