<svg enable-background="new 0 0 48 48" viewBox="0 0 48 48" xmlns="http://www.w3.org/2000/svg"><path d="m44.8 8.5c.4 0 .7.3.7.7v25.1c0 .4-.3.7-.7.7h-41.6c-.4 0-.7-.3-.7-.7v-25.1c0-.4.3-.7.7-.7zm-26.7 22.3 3-1.8 8.1-4.7 3.2-1.8-3.2-1.7-8.1-4.4-3-1.6v3.4 9.1zm26.7-24.8h-41.6c-1.8 0-3.2 1.4-3.2 3.2v25.1c0 1.8 1.4 3.2 3.2 3.2h41.5c1.8 0 3.2-1.4 3.2-3.2v-25.1c.1-1.8-1.3-3.2-3.1-3.2zm-24.7 21.3v-9.1l8.1 4.4zm15.7 12.5h-23.4c-.6 0-1.1.5-1.1 1.1s.5 1.1 1.1 1.1h23c.7 0 1.4-.5 1.4-1.1s-.4-1.1-1-1.1z"/></svg>