<svg enable-background="new 0 0 48 48" viewBox="0 0 48 48" xmlns="http://www.w3.org/2000/svg"><path d="m7.7 24c.7 0 1.3 0 2 .1h.1c.5 0 1-.4 1.1-1s-.4-1.2-1-1.2c-.7-.1-1.6-.2-2.4-.2-.6 0-1.1.5-1.1 1.1.2.7.6 1.2 1.3 1.2z"/><path d="m19.7 32.7c.1.5.6.7 1.1.7h.4c.6-.2.8-.8.7-1.4-.5-1.3-1.1-2.5-1.8-3.6-.4-.5-1.1-.6-1.6-.2s-.6 1-.2 1.6c.5.7 1 1.8 1.4 2.9z"/><path d="m12.9 25.2c1.1.5 2 1.1 2.9 1.8.2.1.5.2.7.2.4 0 .6-.1.8-.4.4-.5.4-1.2-.1-1.6-1.1-.8-2.2-1.6-3.4-2.2-.6-.2-1.2 0-1.4.5-.3.8-.1 1.5.5 1.7z"/><path d="m21.4 35c-.6.1-1 .6-1 1.2l.4 2.2c.1.5.5 1 1.1 1s1-.4 1.1-1l.4-2.2c.1-.6-.4-1.2-1-1.2-.1 0-.4 0-.5 0-.2 0-.4 0-.5 0z"/><path d="m22.8 32.4c.1 0 .2.1.5.1.5 0 .8-.2 1-.7.6-1.3 1.4-2.6 2.4-3.7.4-.5.4-1.1 0-1.6-.5-.4-1.1-.4-1.6 0-1.2 1.3-2.2 2.8-2.8 4.3-.3.7 0 1.4.5 1.6z"/><path d="m29.7 25.6c.1 0 .4 0 .5-.1.2-.1.6-.2.8-.4.8 1.9 2.8 3.2 5.1 3.2 3 0 5.4-2.4 5.4-5.4s-2.5-5.4-5.5-5.4-5.4 2.4-5.4 5.4c-.5.1-1 .4-1.3.6-.5.2-.7 1-.5 1.4.1.4.5.7.9.7z"/><path d="m43.7 0h-39.4c-2.4 0-4.3 1.9-4.3 4.3v39.3c0 2.4 1.9 4.3 4.3 4.3h39.3c2.4 0 4.3-1.9 4.3-4.3v-39.3c.2-2.4-1.8-4.3-4.2-4.3zm-29.6 4.3c.6 0 1.1.5 1.1 1.1s-.5 1.1-1.1 1.1-1.1-.5-1.1-1.1c.1-.6.5-1.1 1.1-1.1zm-4.3 0c.6 0 1.1.5 1.1 1.1s-.5 1.1-1.1 1.1-1.1-.5-1.1-1.1.5-1.1 1.1-1.1zm-4.4 0c.6 0 1.2.5 1.2 1.1s-.6 1.2-1.2 1.2-1.1-.6-1.1-1.2.5-1.1 1.1-1.1zm38.3 39.4h-39.4v-32.8h39.3v32.8z"/></svg>