<svg enable-background="new 0 0 48 48" viewBox="0 0 48 48" xmlns="http://www.w3.org/2000/svg"><path d="m43.7 0h-39.4c-2.4 0-4.3 1.9-4.3 4.3v39.3c0 2.4 1.9 4.3 4.3 4.3h39.3c2.4 0 4.3-1.9 4.3-4.3v-39.3c.2-2.4-1.8-4.3-4.2-4.3zm-29.6 4.3c.6 0 1.1.5 1.1 1.1s-.5 1.1-1.1 1.1-1.1-.5-1.1-1.1c.1-.6.5-1.1 1.1-1.1zm-4.3 0c.6 0 1.1.5 1.1 1.1s-.5 1.1-1.1 1.1-1.1-.5-1.1-1.1.5-1.1 1.1-1.1zm-4.4 0c.6 0 1.2.5 1.2 1.1s-.6 1.2-1.2 1.2-1.1-.6-1.1-1.2.5-1.1 1.1-1.1zm38.3 39.4h-39.4v-32.8h39.3v32.8z"/><path d="m14.5 35.7c2.2 2.9 5.7 4.7 9.5 4.7 6.6 0 12-5.4 12-12s-5.4-12-12-12-12 5.4-12 12c0 2.6.8 5.1 2.3 7.1.1.1.1.2.2.2zm.7-8.4h-1c.2-1.9 1-3.6 2-5.1l.7.7c.2.2.5.4.7.4s.6-.1.7-.4c.5-.5.5-1.1 0-1.6l-.7-.7c1.4-1.1 3.1-1.8 5.1-2v1c0 .6.5 1.1 1.1 1.1s1.1-.5 1.1-1.1v-1c1.9.2 3.6 1 5.1 2l-.7.7c-.5.5-.5 1.1 0 1.6.2.2.5.4.7.4s.6-.1.7-.4l.7-.7c1.1 1.4 1.8 3.1 2 5.1h-1c-.6 0-1.1.5-1.1 1.1s.5 1.1 1.1 1.1h1c-.1.7-.2 1.4-.5 2.2h-6.1c.5-1.4.6-5.8.6-7.1 0-.5-.2-.8-.7-1.1-.4-.1-.8-.1-1.2.2-1 1-4.3 4.3-4.8 5.5-.4.7-.4 1.6-.1 2.4h-6.1c-.2-.7-.4-1.4-.5-2.2h1c.6 0 1.1-.5 1.1-1.1.2-.6-.3-1-.9-1z"/></svg>