<svg enable-background="new 0 0 48 48" viewBox="0 0 48 48" xmlns="http://www.w3.org/2000/svg"><path d="m17 14h-6c-.6 0-1 .5-1 1v11h-3c-.4 0-.7.2-.8.5-.2.4-.2.7 0 1.1l7 10c.2.2.5.5.8.5.4 0 .6-.1.8-.5l7-10c.2-.4.2-.7.1-1.1s-.4-.5-.8-.5h-3.1v-11c0-.6-.5-1-1-1z"/><path d="m37 16h-12c-.6 0-1 .5-1 1 0 .6.5 1 1 1h12c.6 0 1-.5 1-1 0-.6-.4-1-1-1z"/><path d="m37 22h-12c-.6 0-1 .5-1 1 0 .6.5 1 1 1h12c.6 0 1-.5 1-1 0-.6-.4-1-1-1z"/><path d="m38 29c0-.6-.5-1-1-1h-12c-.6 0-1 .5-1 1 0 .6.5 1 1 1h12c.6 0 1-.5 1-1z"/><path d="m24.2 41c0-.1 0-.1-.1-.4-.1-.5-.5-.7-1-.7h-19.1v-29.9h36v19.6c0 .5.2.8.7 1 .6.2 1.2.4 1.8.7.4.1.7.1 1-.1s.5-.5.5-.8v-26.4c0-2.2-1.8-4-4-4h-36c-2.2 0-4 1.8-4 4v36c0 2.2 1.8 4 4 4h20c.4 0 .6-.2.8-.5.2-.2.1-.7 0-1-.2-.5-.4-1-.6-1.5zm-11.2-37c.6 0 1 .5 1 1 0 .6-.5 1-1 1s-1-.4-1-.8c0-.8.5-1.2 1-1.2zm-4 0c.6 0 1 .5 1 1s-.4 1-1 1-1-.5-1-1c0-.6.4-1 1-1zm-4 0c.5 0 1 .4 1 1 0 .5-.5 1-1 1-.6 0-1-.5-1-1 0-.6.4-1 1-1z"/><path d="m47.9 39.6c-1.8-4.7-6-7.7-10.9-7.7s-9.1 2.9-10.9 7.7c-.1.2-.1.5 0 .7 1.7 4.7 5.9 7.7 10.9 7.7s9.1-2.9 10.9-7.7c.1-.2.1-.5 0-.7zm-10.9 6.4c-3.4 0-6-2.6-6-6s2.6-6 6-6 6 2.6 6 6-2.7 6-6 6z"/><circle cx="37" cy="40" r="4"/></svg>