<svg enable-background="new 0 0 48 48" viewBox="0 0 48 48" xmlns="http://www.w3.org/2000/svg"><path d="m24 41.5c.4 0 .7-.2 1-.6.1-.1.1-.4.1-.5 0-.2-.1-.5-.2-.6l-2-3c-.2-.4-.6-.5-1-.5s-.7.2-1 .6l-.9 1.8c-4.7-1.7-8.2-6.1-8.2-11.4 0-4 1.9-7.7 5.3-10 .5-.4.6-1 .2-1.6-.4-.5-1-.6-1.6-.2-4 2.6-6.3 7.1-6.3 11.8.4 7.8 6.8 14.2 14.6 14.2z"/><path d="m25.1 17.8c.2.2.5.5.8.5.4 0 .6-.1.8-.4l1.8-1.8c4.3 1.8 7.5 6.1 7.5 11.2 0 4-1.9 7.7-5.3 10-.5.4-.6 1-.2 1.6.4.5 1 .6 1.6.2 4-2.6 6.3-7.1 6.3-11.8 0-7.8-6.4-14.2-14.2-14.2-.4 0-.7.2-1 .6-.2.4-.1.8 0 1.1z"/><path d="m14.1 27.3v4.3c0 .6.5 1.1 1.1 1.1h3.2c.6 0 1.1-.5 1.1-1.1v-4.3c0-.6-.5-1.1-1.1-1.1h-3.2c-.6 0-1.1.5-1.1 1.1z"/><path d="m21.8 32.8h3.2c.6 0 1.1-.5 1.1-1.1v-6.6c0-.6-.5-1.1-1.1-1.1h-3.2c-.6 0-1.1.5-1.1 1.1v6.6c.1.6.5 1.1 1.1 1.1z"/><path d="m32.8 31.7v-8.8c0-.6-.5-1.1-1.1-1.1h-3.2c-.6 0-1.1.5-1.1 1.1v8.8c0 .6.5 1.1 1.1 1.1h3.2c.6 0 1.1-.5 1.1-1.1z"/><path d="m43.7 0h-39.4c-2.4 0-4.3 1.9-4.3 4.3v39.3c0 2.4 1.9 4.3 4.3 4.3h39.3c2.4 0 4.3-1.9 4.3-4.3v-39.3c.2-2.4-1.8-4.3-4.2-4.3zm-29.6 4.3c.6 0 1.1.5 1.1 1.1s-.5 1.1-1.1 1.1-1.1-.5-1.1-1.1c.1-.6.5-1.1 1.1-1.1zm-4.3 0c.6 0 1.1.5 1.1 1.1s-.5 1.1-1.1 1.1-1.1-.5-1.1-1.1.5-1.1 1.1-1.1zm-4.4 0c.6 0 1.2.5 1.2 1.1s-.6 1.2-1.2 1.2-1.1-.6-1.1-1.2.5-1.1 1.1-1.1zm38.3 39.4h-39.4v-32.8h39.3v32.8z"/></svg>