<svg enable-background="new 0 0 48 48" viewBox="0 0 48 48" xmlns="http://www.w3.org/2000/svg"><path d="m15.7 23.8 6.1 4.1 1.1 7.2c.1.5.4.8.8 1h.2c.4 0 .7-.2 1-.5l2.6-4.5 5.7 3.7c.2.1.4.2.6.2h.4c.4-.1.6-.4.7-.7l6.6-19.7c.1-.4 0-.8-.2-1.1-.4-.2-.7-.4-1.1-.2l-24.1 8.8c-.4.1-.7.5-.7.8-.2.3-.1.7.3.9zm13.5.7-2.8 4.5-1.7 2.8-.6-4z"/><path d="m6.4 25.9c.4.2.7.6 1.1 1 .2.2.5.4.8.4.2 0 .5-.1.7-.2.5-.4.5-1.1.1-1.6s-.8-.8-1.3-1.2-1.1-.3-1.5.2c-.5.4-.3 1 .1 1.4z"/><path d="m15.5 41.2c.6.1 1.3.2 1.9.2s1.3-.1 1.9-.2 1-.7.7-1.3c-.1-.6-.7-1-1.3-.7-.8.2-1.8.2-2.8 0-.6-.1-1.2.1-1.3.7s.3 1.2.9 1.3z"/><path d="m11.1 34.5c-.6.1-1 .7-.8 1.3.2 1.3.8 2.5 1.8 3.5.2.2.5.4.8.4.2 0 .5-.1.7-.2.5-.4.5-1.1 0-1.6-.6-.7-1.1-1.6-1.2-2.4s-.7-1.1-1.3-1z"/><path d="m9.2 29.3c.4.7.5 1.6.6 2.4l.1.6c.1.6.5 1 1.1 1h.1c.6-.1 1.1-.6 1-1.2l-.1-.6c-.1-1-.4-2-.8-3-.2-.6-.8-.8-1.4-.6-.6.3-.8.9-.6 1.4z"/><path d="m23.5 36.3c-.5-.4-1.2-.3-1.5.3l-.4.4c-.1.2-.4.5-.5.6-.4.5-.4 1.1 0 1.6.2.2.5.2.7.2s.6-.1.8-.4c.2-.2.5-.6.7-1l.4-.5c.4-.3.3-1-.2-1.2z"/><path d="m43.7 0h-39.4c-2.4 0-4.3 1.9-4.3 4.3v39.3c0 2.4 1.9 4.3 4.3 4.3h39.3c2.4 0 4.3-1.9 4.3-4.3v-39.3c.2-2.4-1.8-4.3-4.2-4.3zm-29.6 4.3c.6 0 1.1.5 1.1 1.1s-.5 1.1-1.1 1.1-1.1-.5-1.1-1.1c.1-.6.5-1.1 1.1-1.1zm-4.3 0c.6 0 1.1.5 1.1 1.1s-.5 1.1-1.1 1.1-1.1-.5-1.1-1.1.5-1.1 1.1-1.1zm-4.4 0c.6 0 1.2.5 1.2 1.1s-.6 1.2-1.2 1.2-1.1-.6-1.1-1.2.5-1.1 1.1-1.1zm38.3 39.4h-39.4v-32.8h39.3v32.8z"/></svg>