<svg enable-background="new 0 0 48 48" viewBox="0 0 48 48" xmlns="http://www.w3.org/2000/svg"><path d="m19.8 19.2c-.4 0-.7.4-.7.7v3.1h-4.7v-3.1c0-.4-.4-.7-.7-.7-.4 0-.7.4-.7.7v7.9c0 .4.4.7.7.7.4 0 .7-.4.7-.7v-3.4h4.7v3.4c0 .4.4.7.7.7.4 0 .7-.4.7-.7v-7.9c0-.3-.3-.7-.7-.7z"/><path d="m8.4 19.3h-1.8c-.4 0-.7.4-.7.7v8c0 .4.4.7.7.7s.7-.4.7-.7v-2h1.1c2.3 0 3.8-1.3 3.8-3.4-.1-2-1.5-3.3-3.8-3.3zm0 5.3h-1.1v-3.7h1.1c1.6 0 2.3.6 2.3 1.8s-.9 1.9-2.3 1.9z"/><path d="m24.5 19.3h-1.8c-.4 0-.7.4-.7.7v8c0 .4.4.7.7.7s.7-.4.7-.7v-2h1.1c2.3 0 3.8-1.3 3.8-3.4s-1.4-3.3-3.8-3.3zm0 5.3h-1.1v-3.7h1.1c1.6 0 2.3.6 2.3 1.8s-.7 1.9-2.3 1.9z"/><path d="m46.6 5.8h-45.2c-.7 0-1.4.6-1.4 1.5v33.4c0 .8.7 1.4 1.4 1.4h45.1c.8 0 1.4-.7 1.4-1.4v-33.4c.2-.9-.6-1.5-1.3-1.5zm-6 4.2c.8 0 1.6.7 1.6 1.6s-.7 1.6-1.6 1.6c-.8 0-1.6-.7-1.6-1.6s.8-1.6 1.6-1.6zm-4.7 0c.8 0 1.6.7 1.6 1.6s-.7 1.6-1.6 1.6c-.8 0-1.6-.7-1.6-1.6.1-.8.7-1.6 1.6-1.6zm-4.7 0c.8 0 1.6.7 1.6 1.6s-.7 1.6-1.6 1.6-1.6-.7-1.6-1.6c-.1-.8.7-1.6 1.6-1.6zm-28.6 29.8v-21.9h42.7v8.5c-.2-.4-.5-.6-.8-.7l-2.6-1.1c-.2-.1-.5-.1-.7-.1-.7 0-1.4.5-1.7 1.1l-.1.4c-1.2 0-2.3.2-3.4.8l-.4-.2c-.1-.1-.4-.2-.5-.4-.3-.2-.5-.2-.7-.2-.6 0-1.1.2-1.4.6l-1.8 2.2c-.4.4-.5.8-.5 1.3s.2 1 .6 1.3l.4.2c-.4 1.1-.5 2.3-.2 3.5l-.5.3c-.8.5-1.2 1.7-.6 2.5l1.1 1.8h-28.8c0 .2-.1.1-.1.1zm32.8-7c.6-1.6 2.2-2.5 3.8-2.5.6 0 1.1.1 1.6.4 2.2.8 3.2 3.3 2.2 5.3-.6 1.6-2.2 2.5-3.8 2.5-.6 0-1.1-.1-1.6-.4-1.1-.5-1.8-1.2-2.3-2.3-.2-.9-.2-2.1.1-3z"/></svg>