<svg enable-background="new 0 0 48 48" viewBox="0 0 48 48" xmlns="http://www.w3.org/2000/svg"><path d="m9.8 30.6c.5 0 .8-.2 1-.7l3.4 1.2v.6c0 3 2.4 5.4 5.4 5.4 1.9 0 3.6-1 4.6-2.5l6.4 2.2v1.4c0 .6.5 1.1 1.1 1.1s1.1-.5 1.1-1.1v-21.9c0-.6-.5-1.1-1.1-1.1s-1.1.5-1.1 1.1v1.4l-19.7 7c-.1-.4-.6-.7-1-.7-.6 0-1.1.5-1.1 1.1v4.3c-.1.6.4 1.2 1 1.2zm12.3 3.3c-.6.7-1.4 1.1-2.4 1.1-1.8 0-3.1-1.3-3.2-3.1z"/><path d="m36 28.3h4.3c.6 0 1.1-.5 1.1-1.1s-.5-1.1-1.1-1.1h-4.3c-.6 0-1.1.5-1.1 1.1s.5 1.1 1.1 1.1z"/><path d="m36 21.8c.2 0 .6-.1.7-.4l3.2-3.2c.5-.5.5-1.1 0-1.6s-1.1-.5-1.6 0l-3.2 3.2c-.5.5-.5 1.1 0 1.6.3.3.7.4.9.4z"/><path d="m38.6 38c.2.2.5.4.7.4s.6-.1.7-.4c.5-.5.5-1.1 0-1.6l-3.2-3.2c-.5-.5-1.1-.5-1.6 0s-.5 1.1 0 1.6z"/><path d="m43.7 0h-39.4c-2.4 0-4.3 1.9-4.3 4.3v39.3c0 2.4 1.9 4.3 4.3 4.3h39.3c2.4 0 4.3-1.9 4.3-4.3v-39.3c.2-2.4-1.8-4.3-4.2-4.3zm-29.6 4.3c.6 0 1.1.5 1.1 1.1s-.5 1.1-1.1 1.1-1.1-.5-1.1-1.1c.1-.6.5-1.1 1.1-1.1zm-4.3 0c.6 0 1.1.5 1.1 1.1s-.5 1.1-1.1 1.1-1.1-.5-1.1-1.1.5-1.1 1.1-1.1zm-4.4 0c.6 0 1.2.5 1.2 1.1s-.6 1.2-1.2 1.2-1.1-.6-1.1-1.2.5-1.1 1.1-1.1zm38.3 39.4h-39.4v-32.8h39.3v32.8z"/></svg>