<svg enable-background="new 0 0 48 48" viewBox="0 0 48 48" xmlns="http://www.w3.org/2000/svg"><path d="m7.9 42h6c.4 0 .7-.4.7-.7v-13.2c0-.4-.4-.7-.7-.7h-6c-.4 0-.7.4-.7.7v13.2c0 .4.3.7.7.7z"/><path d="m21.8 30.5h11.1c.7 0 1.4-.6 1.4-1.4s-.6-1.4-1.4-1.4h-11.1c-.7 0-1.4.6-1.4 1.4s.7 1.4 1.4 1.4z"/><path d="m21.8 36.2h11.1c.7 0 1.4-.6 1.4-1.4 0-.7-.6-1.4-1.4-1.4h-11.1c-.7 0-1.4.6-1.4 1.4.1.6.7 1.4 1.4 1.4z"/><path d="m21.8 41.7h11.1c.7 0 1.4-.6 1.4-1.4s-.6-1.4-1.4-1.4h-11.1c-.7 0-1.4.6-1.4 1.4s.7 1.4 1.4 1.4z"/><path d="m46.7 1.3h-37.6c-.7 0-1.3.6-1.3 1.3v6.1h-2.6c-.7 0-1.3.6-1.3 1.3v6.1h-2.6c-.7 0-1.3.6-1.3 1.3v27.8c0 .7.6 1.3 1.3 1.3h37.6c.7 0 1.3-.6 1.3-1.3v-6.1h2.5c.7 0 1.3-.6 1.3-1.3v-6.1h2.5c.7 0 1.3-.6 1.3-1.3v-27.7c.3-.8-.3-1.4-1.1-1.4zm-8.3 2.9c.7 0 1.4.6 1.4 1.4 0 .7-.6 1.4-1.4 1.4-.7 0-1.4-.6-1.4-1.4 0-.7.6-1.4 1.4-1.4zm-2.2 16.3c0 .7-.6 1.4-1.4 1.4s-1.4-.6-1.4-1.4c0-.7.6-1.4 1.4-1.4s1.4.6 1.4 1.4zm-1.7-6.1c-.7 0-1.4-.6-1.4-1.4 0-.7.6-1.4 1.4-1.4s1.4.6 1.4 1.4-.6 1.4-1.4 1.4zm-.3-10.2c.7 0 1.4.6 1.4 1.4 0 .7-.6 1.4-1.4 1.4-.7 0-1.4-.6-1.4-1.4.1-.7.7-1.4 1.4-1.4zm-3.8 7.4c.7 0 1.4.6 1.4 1.4 0 .7-.6 1.4-1.4 1.4-.7 0-1.4-.6-1.4-1.4-.1-.8.5-1.4 1.4-1.4zm1.5 8.9c0 .7-.6 1.4-1.4 1.4-.7 0-1.4-.6-1.4-1.4 0-.7.6-1.4 1.4-1.4s1.4.6 1.4 1.4zm-5.5-1.4c.7 0 1.4.6 1.4 1.4 0 .7-.6 1.4-1.4 1.4-.7 0-1.4-.6-1.4-1.4.1-.8.7-1.4 1.4-1.4zm12.5 26.2h-37.5v-20.3h37.5zm-.2-30.9c-.7 0-1.4-.6-1.4-1.4 0-.7.6-1.4 1.4-1.4.7 0 1.4.6 1.4 1.4-.1.8-.7 1.4-1.4 1.4zm4.1 23.4h-2.5v-20.2h2.5zm-.3-30.7c-.7 0-1.4-.6-1.4-1.4 0-.7.6-1.4 1.4-1.4.7 0 1.4.6 1.4 1.4.1.6-.5 1.4-1.4 1.4zm4.1 23.3h-2.5v-20.2h2.5z"/></svg>