<svg enable-background="new 0 0 48 48" viewBox="0 0 48 48" xmlns="http://www.w3.org/2000/svg"><path d="m11.5 19.9c-.1-.2-.5-.5-.7-.5-.4 0-.6.2-.7.5l-4.1 8.9c-.2.4 0 .8.4 1.1.1 0 .2.1.4.1.4 0 .6-.1.7-.5l1.1-2.3h4.7l1.1 2.3c.2.4.7.6 1.1.4s.6-.7.4-1.1zm-2.3 5.7 1.6-3.4 1.6 3.4z"/><path d="m21 19.3h-4c-.5 0-.8.4-.8.8v9c0 .5.4.8.8.8.5 0 .8-.4.8-.8v-3.4h3.2c1.8 0 3.2-1.4 3.2-3.2 0-1.7-1.4-3.2-3.2-3.2zm0 4.8h-3.1v-3.1h3.1c.8 0 1.6.7 1.6 1.6s-.8 1.5-1.6 1.5z"/><path d="m25.7 19.3c-.5 0-.8.4-.8.8v9c0 .5.4.8.8.8.5 0 .8-.4.8-.8v-9c0-.4-.3-.8-.8-.8z"/><path d="m46.6 5.8h-45.2c-.7 0-1.4.6-1.4 1.5v33.4c0 .8.7 1.4 1.4 1.4h45.1c.8 0 1.4-.7 1.4-1.4v-33.4c.2-.9-.6-1.5-1.3-1.5zm-11 27c.6-1.6 2.2-2.5 3.8-2.5.6 0 1.1.1 1.6.4 2.2.8 3.1 3.4 2.2 5.4-.6 1.6-2.2 2.5-3.8 2.5-.6 0-1.1-.1-1.6-.4-1.1-.5-1.8-1.2-2.3-2.3-.4-1-.4-2.2.1-3.1zm5-22.8c.8 0 1.6.7 1.6 1.6s-.7 1.6-1.6 1.6c-.8 0-1.6-.7-1.6-1.6s.8-1.6 1.6-1.6zm-4.7 0c.8 0 1.6.7 1.6 1.6s-.7 1.6-1.6 1.6c-.8 0-1.6-.7-1.6-1.6.1-.8.7-1.6 1.6-1.6zm-4.7 0c.8 0 1.6.7 1.6 1.6s-.7 1.6-1.6 1.6-1.6-.7-1.6-1.6c-.1-.8.7-1.6 1.6-1.6zm-28.6 29.8v-21.9h42.7v8.5c-.2-.2-.5-.5-.8-.6l-2.6-1.1c-.2-.1-.5-.1-.7-.1-.7 0-1.4.5-1.7 1.1l-.2.3c-1.2 0-2.3.2-3.4.8l-.4-.2c-.1-.1-.4-.2-.5-.4-.2-.1-.5-.1-.7-.1-.6 0-1.1.2-1.4.6l-1.8 2c-.4.4-.5.8-.5 1.3s.2 1 .6 1.3l.4.2c-.4 1.1-.5 2.3-.2 3.5l-.4.4c-.8.5-1.2 1.7-.6 2.5l1.1 1.8h-28.8c0 .2-.1.1-.1.1z"/></svg>