<svg enable-background="new 0 0 48 48" viewBox="0 0 48 48" xmlns="http://www.w3.org/2000/svg"><path d="m10.9 32.8c0 .4.1.6.4.8l6.6 5.4c.2.1.5.2.7.2.4 0 .6-.1.8-.4.4-.5.4-1.2-.1-1.6l-5.5-4.6 5.5-4.6c.5-.4.5-1.1.1-1.6s-1.1-.5-1.6-.1l-6.6 5.4c-.2.4-.3.7-.3 1.1z"/><path d="m28.8 28.1 5.5 4.6-5.5 4.7c-.5.4-.5 1.1-.1 1.6.2.2.5.4.8.4.2 0 .5-.1.7-.2l6.6-5.4c.2-.2.4-.5.4-.8 0-.4-.1-.6-.4-.8l-6.7-5.5c-.5-.4-1.2-.4-1.6.1-.3.2-.2.9.3 1.3z"/><path d="m20.3 41.5c.1.1.2.1.5.1.5 0 .8-.2 1-.7l6.6-15.3c.2-.6 0-1.2-.6-1.4s-1.2 0-1.4.6l-6.7 15.2c-.3.5.1 1.2.6 1.5z"/><path d="m7.7 21.8c1.8 0 3.2 1.4 3.2 3.2 0 .6.5 1.1 1.1 1.1s1.1-.5 1.1-1.1c0-1.8 1.4-3.2 3.2-3.2.6 0 1.1-.5 1.1-1.1s-.5-1.1-1.1-1.1c-1.8 0-3.2-1.4-3.2-3.2 0-.6-.5-1.1-1.1-1.1s-1.1.5-1.1 1.1c0 1.8-1.4 3.2-3.2 3.2-.6 0-1.1.5-1.1 1.1s.4 1.1 1.1 1.1z"/><path d="m36 24c.6 0 1.1.5 1.1 1.1s.5 1.1 1.1 1.1 1.1-.5 1.1-1.1.5-1.1 1.1-1.1 1.1-.5 1.1-1.1-.5-1.1-1.1-1.1-1.1-.5-1.1-1.1-.5-1.1-1.1-1.1-1.1.5-1.1 1.1-.5 1.1-1.1 1.1-1 .5-1 1.1.4 1.1 1 1.1z"/><path d="m43.7 0h-39.4c-2.4 0-4.3 1.9-4.3 4.3v39.3c0 2.4 1.9 4.3 4.3 4.3h39.3c2.4 0 4.3-1.9 4.3-4.3v-39.3c.2-2.4-1.8-4.3-4.2-4.3zm-29.6 4.3c.6 0 1.1.5 1.1 1.1s-.5 1.1-1.1 1.1-1.1-.5-1.1-1.1c.1-.6.5-1.1 1.1-1.1zm-4.3 0c.6 0 1.1.5 1.1 1.1s-.5 1.1-1.1 1.1-1.1-.5-1.1-1.1.5-1.1 1.1-1.1zm-4.4 0c.6 0 1.2.5 1.2 1.1s-.6 1.2-1.2 1.2-1.1-.6-1.1-1.2.5-1.1 1.1-1.1zm38.3 39.4h-39.4v-32.8h39.3v32.8z"/></svg>