<svg enable-background="new 0 0 48 48" viewBox="0 0 48 48" xmlns="http://www.w3.org/2000/svg"><path d="m27.3 27.4h-3v-7.2c0-.4-.4-.7-.7-.7-.4 0-.7.4-.7.7v7.9c0 .4.4.7.7.7h3.8c.4 0 .7-.4.7-.7 0-.4-.4-.7-.8-.7z"/><path d="m23.5 19.4c-.4 0-.7.4-.7.7v7.9c0 .4.4.7.7.7h3.8c.4 0 .7-.4.7-.7 0-.4-.4-.7-.8-.7h-3v-7.2c0-.3-.3-.7-.7-.7z"/><path d="m9.1 23.5c-1.3-.5-1.9-.7-1.9-1.5 0-.7 1-1 1.8-1 .6 0 1.3.2 1.7.5.4.2.8.1 1.1-.2.2-.4.1-.8-.2-1.1-.7-.5-1.7-.7-2.5-.7-1.9 0-3.2 1-3.2 2.5 0 2 1.7 2.5 3 2.9 1.4.4 1.8.6 1.8 1.3s-1 1-1.7 1-1.6-.4-2-.8c-.2-.4-.7-.4-1.1 0-.4.2-.4.7 0 1.1.7.8 1.9 1.3 3.1 1.3 1.9 0 3.2-1 3.2-2.4-.2-2-1.9-2.5-3.1-2.9z"/><path d="m9 19.4c-1.9 0-3.2 1-3.2 2.5 0 2 1.7 2.5 3 2.9 1.4.4 1.8.6 1.8 1.3s-1 1-1.7 1-1.6-.4-2-.8c-.2-.2-.4-.3-.6-.3s-.4.1-.6.3c-.4.2-.4.7 0 1.1.7.8 1.9 1.3 3.1 1.3 1.9 0 3.2-1 3.2-2.4-.1-1.9-1.8-2.4-3-2.8-1.2-.5-1.8-.7-1.8-1.5 0-.7 1-1 1.8-1 .6 0 1.3.2 1.7.5.1.1.3.1.4.1.3 0 .5-.1.7-.4.2-.4.1-.8-.2-1.1-.8-.4-1.8-.7-2.6-.7z"/><path d="m16.8 19.4c-2.5 0-4.6 2-4.6 4.4s2 4.4 4.6 4.4c.5 0 .8-.1 1.3-.2l.4.5c.1.1.4.2.6.2.1 0 .4 0 .5-.1.4-.2.4-.7.1-1.1l-.1-.2c1.1-.8 1.8-2.2 1.8-3.6 0-2.2-2.1-4.3-4.6-4.3zm1.7 7-.6-.7c-.2-.4-.7-.4-1.1-.1-.4.2-.4.7-.1 1.1l.2.2h-.1c-1.7 0-3-1.3-3-3 0-1.6 1.3-2.9 3-2.9s3 1.3 3 2.9c0 1.1-.5 1.9-1.3 2.5z"/><path d="m16.8 19.4c-2.5 0-4.6 2-4.6 4.4s2 4.4 4.6 4.4c.5 0 .8-.1 1.3-.2l.4.5c.1.1.4.2.6.2.1 0 .4 0 .5-.1.4-.2.4-.7.1-1.1l-.1-.2c1.1-.8 1.8-2.2 1.8-3.6 0-2.2-2.1-4.3-4.6-4.3zm0 7.5c-1.7 0-3-1.3-3-3 0-1.6 1.3-2.9 3-2.9s3 1.3 3 2.9c0 1.1-.5 1.9-1.3 2.5l-.6-.7c-.1-.2-.3-.3-.6-.3-.2 0-.4.1-.5.2-.4.2-.4.7-.1 1.1l.2.2z"/><path d="m33.7 40.9-2.3-3.6c-.1-.2-.1-.3-.1-.4 0-.2.1-.3.3-.4l1.1-.8-.2-.8c-.2-.9-.1-1.9.2-2.8l.3-.9-1-.7c-.1-.1-.2-.3-.2-.4s0-.3.1-.4l.1-.1 1.9-2.2c.2-.1.3-.2.5-.2h.1s.1.1.1.1l.8 1.1 1-.6c.9-.5 1.7-.7 2.8-.7h.9l.4-1.2s.3-.2.5-.2h.1.1l2.7 1.1c.2.1.3.2.4.3l2.1 2.1v-3-9.7h-45v23.7l.6.7h-.6s-.2-.1-.2-.2v-33.4c0-.1.1-.2.2-.2h45.2.1v.1 33.4s-.1.2-.2.2h-12.8zm5.7-12c-2.2 0-4.3 1.3-5 3.3-.6 1.3-.6 2.7-.1 4 .6 1.4 1.6 2.4 2.9 3 .6.3 1.3.5 2.1.5 2.2 0 4.3-1.3 5-3.3.6-1.2.6-2.7.1-4.1-.5-1.3-1.6-2.4-2.9-2.9-.7-.4-1.3-.5-2.1-.5zm-1.1-15.8c.5.8 1.4 1.3 2.3 1.3 1.5 0 2.8-1.3 2.8-2.8s-1.3-2.8-2.8-2.8c-1 0-1.8.5-2.3 1.3-.5-.8-1.4-1.3-2.3-1.3-1 0-1.9.5-2.4 1.3-.5-.7-1.4-1.3-2.3-1.3s-1.7.4-2.2 1c-.5.5-.7 1.2-.6 1.9 0 1.5 1.3 2.7 2.8 2.7 1 0 1.8-.5 2.3-1.3.5.8 1.4 1.3 2.3 1.3s1.9-.5 2.4-1.3z"/><path d="m45.4 8.3v7h-.1-3.1c1.5-.6 2.5-2.1 2.5-3.8 0-1.3-.7-2.5-1.7-3.3h2.4m-16.7.1c-.2.2-.5.4-.7.6-.7.8-1 1.8-.9 2.8.1 1.6 1.1 3 2.5 3.6h-27-.1v-7zm9.6 6.6c.2.2.5.3.8.4h-1.6c.3-.1.5-.2.8-.4m-4.7 0c.2.2.5.3.8.4h-1.6c.3-.1.5-.2.8-.4m7.9 12.3 2 .8s.1.1.1.1l1.9 1.9v1.6c-.7-1.5-1.9-2.7-3.5-3.4-.2-.1-.5-.2-.7-.3zm-7.2 1.7.4.6c-.3.3-.5.5-.7.8l-.6-.4zm11.1 8v2.8h-2.2c1-.7 1.8-1.7 2.2-2.8zm-12.2 0c.5 1.1 1.3 2 2.2 2.7h-1.1l-.7-1.1-.9-1.4zm13.4-31.1h-45.2c-.7 0-1.4.6-1.4 1.5v33.4c0 .8.7 1.4 1.4 1.4h45.1c.8 0 1.4-.7 1.4-1.4v-33.4c.2-.9-.6-1.5-1.3-1.5zm-6 7.4c-.8 0-1.6-.7-1.6-1.6 0-.8.7-1.6 1.6-1.6.8 0 1.6.7 1.6 1.6s-.8 1.6-1.6 1.6zm-4.7 0c-.8 0-1.6-.7-1.6-1.6 0-.8.6-1.6 1.6-1.6.8 0 1.6.7 1.6 1.6s-.7 1.6-1.6 1.6zm-4.7 0c-.8 0-1.6-.7-1.6-1.6-.1-.8.6-1.6 1.6-1.6.8 0 1.6.7 1.6 1.6s-.7 1.6-1.6 1.6zm-28.5 26.7-.1-.1v-21.9h42.7v8.4c-.2-.2-.5-.5-.8-.6l-2.6-1.1c-.2-.1-.5-.1-.7-.1-.7 0-1.4.5-1.7 1.1l-.1.4c-1.2 0-2.3.2-3.4.8l-.2-.4c-.1-.1-.4-.2-.5-.4-.2-.1-.5-.1-.7-.1-.6 0-1.1.2-1.4.6l-1.9 2.3c-.4.4-.5.8-.5 1.3s.2 1 .6 1.3l.4.2c-.4 1.1-.5 2.3-.2 3.5l-.6.3c-.8.5-1.2 1.7-.6 2.5l1.2 1.9h-28.9zm36.6-1.5c-.6 0-1.1-.1-1.6-.4-1.1-.5-1.8-1.2-2.3-2.3-.4-1-.4-2 .1-3.1.6-1.6 2.2-2.5 3.8-2.5.6 0 1.1.1 1.6.4 2.2.8 3.1 3.4 2.2 5.4-.6 1.6-2.1 2.5-3.8 2.5z"/></svg>