<svg enable-background="new 0 0 48 48" viewBox="0 0 48 48" xmlns="http://www.w3.org/2000/svg"><path d="m43.7 0h-39.4c-2.4 0-4.3 1.9-4.3 4.3v39.3c0 2.4 1.9 4.3 4.3 4.3h39.3c2.4 0 4.3-1.9 4.3-4.3v-39.3c.2-2.4-1.8-4.3-4.2-4.3zm-29.6 4.3c.6 0 1.1.5 1.1 1.1s-.5 1.1-1.1 1.1-1.1-.5-1.1-1.1c.1-.6.5-1.1 1.1-1.1zm-4.3 0c.6 0 1.1.5 1.1 1.1s-.5 1.1-1.1 1.1-1.1-.5-1.1-1.1.5-1.1 1.1-1.1zm-4.4 0c.6 0 1.2.5 1.2 1.1s-.6 1.2-1.2 1.2-1.1-.6-1.1-1.2.5-1.1 1.1-1.1zm38.3 39.4h-39.4v-32.8h39.3v32.8z"/><path d="m21.5 36.5c.4.4 1 .6 1.4.6.5 0 1.1-.2 1.4-.6l8.4-7.7v2.8c0 .6.5 1.1 1.1 1.1h2.2c.6 0 1.1-.5 1.1-1.1v-8.8c0-.6-.5-1.1-1.1-1.1h-8.8c-.6 0-1.1.5-1.1 1.1v2.2c0 .6.5 1.1 1.1 1.1h1.9l-6.3 5.8-10.8-10c-.5-.4-1.1-.4-1.6.1l-1.4 1.6c-.4.5-.4 1.1.1 1.6z"/></svg>