<svg enable-background="new 0 0 48 48" viewBox="0 0 48 48" xmlns="http://www.w3.org/2000/svg"><path d="m31.7 26.2h8.8c.6 0 1.1-.5 1.1-1.1s-.6-1.1-1.2-1.1h-8.8c-.6 0-1.1.5-1.1 1.1.1.6.6 1.1 1.2 1.1z"/><path d="m27.3 32.8h13.1c.6 0 1.1-.5 1.1-1.1s-.5-1.1-1.1-1.1h-13.1c-.6 0-1.1.5-1.1 1.1s.5 1.1 1.1 1.1z"/><path d="m40.4 37.1h-13.1c-.6 0-1.1.5-1.1 1.1s.5 1.1 1.1 1.1h13.1c.6 0 1.1-.5 1.1-1.1s-.5-1.1-1.1-1.1z"/><path d="m43.7 0h-39.4c-2.4 0-4.3 1.9-4.3 4.3v39.3c0 2.4 1.9 4.3 4.3 4.3h39.3c2.4 0 4.3-1.9 4.3-4.3v-39.3c.2-2.4-1.8-4.3-4.2-4.3zm-29.6 4.3c.6 0 1.1.5 1.1 1.1s-.5 1.1-1.1 1.1-1.1-.5-1.1-1.1c.1-.6.5-1.1 1.1-1.1zm-4.3 0c.6 0 1.1.5 1.1 1.1s-.5 1.1-1.1 1.1-1.1-.5-1.1-1.1.5-1.1 1.1-1.1zm-4.4 0c.6 0 1.2.5 1.2 1.1s-.6 1.2-1.2 1.2-1.1-.6-1.1-1.2.5-1.1 1.1-1.1zm38.3 39.4h-39.4v-32.8h39.3v32.8z"/><path d="m15.2 35c4.5 0 8.1-3.4 8.7-7.7h1.2c.6 0 1.1-.5 1.1-1.1 0-6-4.9-10.9-10.9-10.9-.6 0-1.1.5-1.1 1.1v1.2c-4.3.6-7.7 4.2-7.7 8.7.1 4.7 3.9 8.7 8.7 8.7zm-1.1-13v4.2c0 .6.5 1.1 1.1 1.1h4.2c-.5 1.9-2.2 3.2-4.2 3.2-2.4 0-4.3-1.9-4.3-4.3 0-2.1 1.4-3.8 3.2-4.2z"/></svg>