<svg enable-background="new 0 0 48 48" viewBox="0 0 48 48" xmlns="http://www.w3.org/2000/svg"><path d="m31.7 24h6.6c.6 0 1.1-.5 1.1-1.1s-.5-1.1-1.1-1.1h-6.6c-.6 0-1.1.5-1.1 1.1s.5 1.1 1.1 1.1z"/><path d="m27.3 30.6h10.9c.6 0 1.1-.5 1.1-1.1s-.5-1.1-1.1-1.1h-10.9c-.6 0-1.1.5-1.1 1.1 0 .5.5 1.1 1.1 1.1z"/><path d="m27.3 37.1h10.9c.6 0 1.1-.5 1.1-1.1s-.5-1-1.1-1h-10.9c-.6 0-1.1.5-1.1 1.1s.5 1 1.1 1z"/><circle cx="15.2" cy="22.9" r="7.7"/><path d="m20.3 32.1c-.4-.2-.7-.2-1.1-.1-2.5 1.1-5.3 1.1-7.8 0-.4-.1-.7-.1-1.1.1s-.5.6-.5 1v7.5c0 .5.2.8.7 1 .4.1.8.1 1.2-.2l3.6-3.6 3.6 3.6c.2.2.5.4.7.4.1 0 .2 0 .4-.1.4-.1.7-.6.7-1v-7.7c.1-.4-.2-.8-.4-.9z"/><path d="m43.7 0h-39.4c-2.4 0-4.3 1.9-4.3 4.3v39.3c0 2.4 1.9 4.3 4.3 4.3h39.3c2.4 0 4.3-1.9 4.3-4.3v-39.3c.2-2.4-1.8-4.3-4.2-4.3zm-29.6 4.3c.6 0 1.1.5 1.1 1.1s-.5 1.1-1.1 1.1-1.1-.5-1.1-1.1c.1-.6.5-1.1 1.1-1.1zm-4.3 0c.6 0 1.1.5 1.1 1.1s-.5 1.1-1.1 1.1-1.1-.5-1.1-1.1.5-1.1 1.1-1.1zm-4.4 0c.6 0 1.2.5 1.2 1.1s-.6 1.2-1.2 1.2-1.1-.6-1.1-1.2.5-1.1 1.1-1.1zm38.3 39.4h-39.4v-32.8h39.3v32.8z"/></svg>