<svg enable-background="new 0 0 48 48" viewBox="0 0 48 48" xmlns="http://www.w3.org/2000/svg"><path d="m6.9 28.4h4.3v1.4c0 .5.4.8.8.8.5 0 .8-.4.8-.8v-1.4h.8c.5 0 .8-.4.8-.8 0-.5-.4-.8-.8-.8h-.8v-6.5c0-.4-.2-.7-.6-.8s-.7 0-1 .4l-5.2 7.3c-.1.2-.2.6 0 .8.3.2.7.4.9.4zm4.4-5.5v3.8h-2.8z"/><path d="m22 28.4h4.3v1.4c0 .5.4.8.8.8.5 0 .8-.4.8-.8v-1.4h.8c.5 0 .8-.4.8-.8 0-.5-.4-.8-.8-.8h-.7v-6.5c0-.4-.2-.7-.6-.8s-.7 0-1 .4l-5.2 7.3c-.1.2-.2.6 0 .8s.4.4.8.4zm4.3-5.5v3.8h-2.8z"/><path d="m17.9 30.7c3.1 0 3.1-4 3.1-5.7 0-1.4 0-5.7-3.1-5.7s-3.1 4.2-3.1 5.7c-.2 1.8-.2 5.7 3.1 5.7zm0-9.6c.4 0 1.6 0 1.6 4 0 3.7-.8 4-1.6 4s-1.6-.4-1.6-4c0-4 1.1-4 1.6-4z"/><path d="m46.6 5.8h-45.2c-.7 0-1.4.6-1.4 1.5v33.4c0 .8.7 1.4 1.4 1.4h45.1c.8 0 1.4-.7 1.4-1.4v-33.4c.2-.9-.6-1.5-1.3-1.5zm-6 4.2c.8 0 1.6.7 1.6 1.6s-.7 1.6-1.6 1.6c-.8 0-1.6-.7-1.6-1.6s.8-1.6 1.6-1.6zm-4.7 0c.8 0 1.6.7 1.6 1.6s-.7 1.6-1.6 1.6c-.8 0-1.6-.7-1.6-1.6.1-.8.7-1.6 1.6-1.6zm-4.7 0c.8 0 1.6.7 1.6 1.6s-.7 1.6-1.6 1.6-1.6-.7-1.6-1.6c-.1-.8.7-1.6 1.6-1.6zm11.9 25.9c-.6 1.6-2.2 2.5-3.8 2.5-.6 0-1.1-.1-1.6-.4-1.1-.5-1.8-1.2-2.3-2.3-.4-1.1-.4-2.2 0-3.1.6-1.6 2.2-2.5 3.8-2.5.6 0 1.1.1 1.6.4 2.3.8 3.3 3.4 2.3 5.4zm2.3-9.6c-.2-.2-.5-.5-.8-.6l-2.6-1.1c-.2-.1-.5-.1-.7-.1-.7 0-1.4.5-1.7 1.1l-.1.4c-1.2 0-2.3.2-3.4.8l-.4-.4c-.1-.1-.4-.2-.5-.4-.2-.1-.5-.1-.7-.1-.6 0-1.1.2-1.4.6l-1.9 2.3c-.4.4-.5.8-.5 1.3s.2 1 .6 1.3l.4.2c-.4 1.1-.5 2.3-.2 3.5l-.5.3c-.8.5-1.2 1.7-.6 2.5l1.2 1.9h-28.9c-.1 0-.1 0-.1-.1v-21.8h42.7v8.4z"/></svg>