<svg enable-background="new 0 0 48 48" viewBox="0 0 48 48" xmlns="http://www.w3.org/2000/svg"><path d="m47.3 34.1-1.9-.5 1-1.7c.2-.4.1-.8-.1-1.2l-2.9-2.9c-.4-.4-.8-.4-1.2-.1l-1.7 1-.5-1.9c-.1-.5-.5-.7-1-.7h-4c-.5 0-.8.4-1 .7l-.5 1.9-1.8-1.1c-.4-.2-.8-.1-1.2.1l-2.9 2.9c-.4.4-.4.8-.1 1.2l1 1.7-1.9.5c-.5.1-.7.5-.7 1v4c0 .5.4.8.7 1l1.9.5-1 1.8c-.2.4-.1.8.1 1.2l2.9 2.9c.4.4.8.4 1.2.1l1.7-1 .5 1.9c.1.5.5.7 1 .7h4c.5 0 .8-.4 1-.7l.5-1.9 1.7 1c.4.2.8.1 1.2-.1l2.9-2.9c.4-.4.4-.8.1-1.2l-1-1.7 1.9-.5c.5-.1.7-.5.7-1v-4c.1-.5-.3-.9-.6-1zm-10.3 7.9c-2.8 0-5-2.3-5-5 0-2.8 2.3-5 5-5 2.8 0 5 2.3 5 5s-2.3 5-5 5z"/><path d="m25.2 41.4c-.2-.2-.5-.5-.7-.8-.1-.4-.5-.5-.8-.5h-19.7v-30h36v13.6c0 .4.2.7.5.8.4.2.6.5.8.7s.6.5 1 .4h.4.2c.2 0 .6-.1.7-.2.2-.2.4-.5.4-.7v-20.7c0-2.2-1.8-4-4-4h-36c-2.2 0-4 1.8-4 4v36c0 2.2 1.8 4 4 4h20.5c.2 0 .6-.1.7-.4.2-.2.2-.5.2-.7s0-.5 0-.6c.2-.4 0-.7-.2-.9zm-12.2-37.4c.6 0 1 .5 1 1 0 .6-.5 1-1 1s-1-.5-1-1c0-.6.5-1 1-1zm-4 0c.6 0 1 .5 1 1s-.4 1-1 1-1-.5-1-1c0-.6.4-1 1-1zm-4 0c.5 0 1 .4 1 1 0 .5-.5 1-1 1-.6 0-1-.5-1-1 0-.6.4-1 1-1z"/><path d="m26.4 29.3 2.9-2.9c.6-.6 1.6-1 2.5-.8.4 0 .7-.1 1-.4.1-.2.4-.4.7-.6.2-.1.4-.4.4-.5h1.3c.6 0 1-.5 1-1s-.5-1-1-1h-7.6l-2.8-5.4c-.2-.5-.8-.7-1.3-.5s-.7.8-.5 1.3l2.3 4.6h-6.7l2.3-4.6c.2-.5 0-1.1-.5-1.3s-1.1 0-1.3.5l-2.8 5.4h-7.4c-.6 0-1 .5-1 1 0 .6.5 1 1 1h1.3l3.6 10.7c.2.8 1.1 1.3 1.9 1.3h7.3c.6 0 1-.5 1-1 0-1 .5-1.8 1.2-2.4.2-.2.5-.6.4-1-.2-.9.1-1.8.8-2.4z"/></svg>