<svg enable-background="new 0 0 48 48" viewBox="0 0 48 48" xmlns="http://www.w3.org/2000/svg"><path d="m36 35c-.6 0-1 .4-1 1s.5 1.1 1.1 1.1 1.1.5 1.1 1.1.5 1.1 1.1 1.1 1.1-.5 1.1-1.1.5-1.1 1.1-1.1 1.1-.5 1.1-1.1-.6-1-1.2-1-1.1-.5-1.1-1.1-.5-1.1-1.1-1.1-1.1.5-1.1 1.1-.5 1.1-1.1 1.1z"/><path d="m8.7 18.6c1.2 0 2.2 1 2.2 2.2 0 .6.5 1.1 1.1 1.1s1.1-.5 1.1-1.1c0-1.2 1-2.2 2.2-2.2.6 0 1.1-.5 1.1-1.1s-.5-1.1-1.1-1.1c-1.2 0-2.2-1-2.2-2.2 0-.6-.5-1.1-1.1-1.1s-1.1.5-1.1 1.1c0 1.2-1 2.2-2.2 2.2-.6 0-1.1.5-1.1 1.1s.5 1.1 1.1 1.1z"/><path d="m43.7 0h-39.4c-2.4 0-4.3 1.9-4.3 4.3v39.3c0 2.4 1.9 4.3 4.3 4.3h39.3c2.4 0 4.3-1.9 4.3-4.3v-39.3c.2-2.4-1.8-4.3-4.2-4.3zm-29.6 4.3c.6 0 1.1.5 1.1 1.1s-.5 1.1-1.1 1.1-1.1-.5-1.1-1.1c.1-.6.5-1.1 1.1-1.1zm-4.3 0c.6 0 1.1.5 1.1 1.1s-.5 1.1-1.1 1.1-1.1-.5-1.1-1.1.5-1.1 1.1-1.1zm-4.4 0c.6 0 1.2.5 1.2 1.1s-.6 1.2-1.2 1.2-1.1-.6-1.1-1.2.5-1.1 1.1-1.1zm38.3 39.4h-39.4v-32.8h39.3v32.8z"/><path d="m10.9 27.3c0 .2.1.6.4.8l12 10.9c.2.2.5.2.7.2s.5-.1.7-.2l12-10.9c.2-.2.4-.5.4-.8 0-.2-.1-.6-.4-.8l-6.6-6.6c-.2-.2-.5-.4-.7-.4h-10.9c-.2 0-.6.1-.7.4l-6.6 6.6c-.2.3-.3.5-.3.8zm22.3 1-6.4 5.9 2.3-5.9zm-10.6-6.5h2.8l1.4 4.3h-5.7zm-3.8 6.5 2.3 5.9-6.4-5.9z"/></svg>