<svg enable-background="new 0 0 48 48" viewBox="0 0 48 48" xmlns="http://www.w3.org/2000/svg"><path d="m24 33.7c-5.4 0-9.7-4.3-9.7-9.7s4.3-9.7 9.7-9.7 9.7 4.3 9.7 9.7-4.3 9.7-9.7 9.7zm0-17c-4.1 0-7.3 3.2-7.3 7.3s3.2 7.3 7.3 7.3 7.3-3.2 7.3-7.3-3.2-7.3-7.3-7.3zm0 11.9c-2.5 0-4.6-2-4.6-4.6s2-4.6 4.6-4.6 4.6 2 4.6 4.6-2.1 4.6-4.6 4.6zm0-28.6c-13.2 0-24 10.8-24 24s10.8 24 24 24 24-10.8 24-24-10.8-24-24-24zm0 10.3c-7.6 0-13.7 6.1-13.7 13.7 0 .6-.5 1.1-1.1 1.1s-1.1-.5-1.1-1.1c0-8.8 7.1-15.8 15.8-15.8.6 0 1.1.5 1.1 1.1s-.4 1-1 1zm0-4.5c-10.1 0-18.2 8.1-18.2 18.2 0 .6-.5 1.1-1.1 1.1s-1.1-.5-1.1-1.1c0-11.3 9.1-20.4 20.4-20.4.6 0 1.1.5 1.1 1.1s-.5 1.1-1.1 1.1z"/></svg>