<svg enable-background="new 0 0 48 48" viewBox="0 0 48 48" xmlns="http://www.w3.org/2000/svg"><path d="m24 2.5c11.9 0 21.5 9.6 21.5 21.5s-9.6 21.5-21.5 21.5-21.5-9.6-21.5-21.5 9.6-21.5 21.5-21.5m0-2.5c-13.2 0-24 10.8-24 24s10.8 24 24 24 24-10.8 24-24-10.8-24-24-24z"/><path d="m25 17.8c4 0 7.2 3.2 7.2 7.2s-3.2 7.2-7.2 7.2-7.2-3.2-7.2-7.2 3.2-7.2 7.2-7.2m0-2.5c-5.4 0-9.7 4.3-9.7 9.7s4.3 9.7 9.7 9.7 9.7-4.3 9.7-9.7-4.3-9.7-9.7-9.7z"/><path d="m25 22.9c1.1 0 2.1.9 2.1 2.1s-.9 2.1-2.1 2.1-2.1-.9-2.1-2.1 1-2.1 2.1-2.1m0-2.5c-2.5 0-4.6 2-4.6 4.6s2 4.6 4.6 4.6 4.6-2 4.6-4.6-2.1-4.6-4.6-4.6z"/><path d="m25 9.2c-8.8 0-15.8 7-15.8 15.8 0 .6.5 1.1 1.1 1.1s1.1-.5 1.1-1.1c0-7.6 6.1-13.7 13.7-13.7.6 0 1.1-.5 1.1-1.1-.1-.6-.6-1-1.2-1z"/><path d="m25 4.6c-11.3 0-20.4 9.1-20.4 20.4 0 .6.5 1.1 1.1 1.1s1.1-.5 1.1-1.1c0-10.1 8.1-18.2 18.2-18.2.6 0 1.1-.5 1.1-1.1s-.5-1.1-1.1-1.1z"/></svg>