<svg enable-background="new 0 0 48 48" viewBox="0 0 48 48" xmlns="http://www.w3.org/2000/svg"><path d="m23.5 2.6c2.4 0 4.9.9 6.9 2.6 1.6 1.5 2.7 3.5 3.2 5.4l.5 1.9h2c5.2 0 9.5 4.3 9.5 9.5s-4.3 9.5-9.5 9.5h-.2c.1-.8.1-1.5.1-2.2 0-3.4-1.4-6.7-3.7-9.1-2.4-2.4-5.7-3.7-9.1-3.7s-6.7 1.4-9.1 3.7-3.7 5.7-3.7 9.1c0 .6 0 1.4.1 2.2h-.2c-4.2 0-7.8-3.6-7.8-7.8 0-4.3 3.5-7.8 7.8-7.9h.3 2.5v-2.5-.3c.1-5.7 4.7-10.4 10.4-10.4m0-2.5c-7.1 0-12.8 5.8-12.8 12.8v.4c-.1 0-.2 0-.4 0-5.6.2-10.3 4.7-10.3 10.5 0 5.6 4.7 10.3 10.3 10.3h3.6c-.2-.5-.4-1-.6-1.4-.1-.5-.2-1-.4-1.4-.1-.6-.1-1.2-.1-1.8 0-2.8 1.1-5.4 3-7.3s4.6-3 7.3-3 5.4 1.1 7.3 3 3 4.6 3 7.3c0 .6 0 1.2-.1 1.8-.1.5-.2 1-.4 1.4s-.4 1-.6 1.4h3.7c6.6 0 12-5.4 12-12s-5.4-12-12-12c-.6-2.5-2-4.9-4-6.7-2.4-2.1-5.4-3.3-8.5-3.3z"/><path d="m23.3 24.6c2.8 0 5.1 2.2 5.1 5.1 0 .9-.2 1.6-.5 2.3 0 .1-.1.1-.1.2 0 0 0 .1-.1.1l-.7.7-1 .7c-.8.6-1.8.9-2.8.9-2.8 0-5.1-2.2-5.1-5.1 0-2.8 2.3-4.9 5.2-4.9m11.8 13.7 3.5 3.4c.3.3.4.5.4.6l-.1.4v.4c0 .5-.2 1-.5 1.4-.3.2-.6.4-.8.5h-.1-.1c-.1 0-.3.1-.6.1-.5 0-1.1-.2-1.5-.6l-3.4-3.4.5-.5.2-.2.2.2 1.8-1.8zm-11.8-16.2c-4.2 0-7.7 3.1-7.7 7.3s3.4 7.6 7.6 7.6c1.6 0 3-.5 4.2-1.3l1 1 1 1 1.3 1.3-2.3 2.3 5.2 5.2c.8.8 2 1.3 3.2 1.3.6 0 1.2-.1 1.7-.4.6-.2 1.1-.6 1.6-1 .8-.8 1.3-2 1.3-3.2.4-1.1-.1-2.3-1-3.1l-5.4-5.3-2.3 2.3-1.3-1.3-1-1-1-1 .1-.1s0-.1.1-.1l.1-.1v-.1c0-.1.1-.1.1-.2.6-1.1.8-2.3.8-3.5.2-4.2-3.1-7.6-7.3-7.6z"/></svg>