<svg enable-background="new 0 0 48 48" viewBox="0 0 48 48" xmlns="http://www.w3.org/2000/svg"><path d="m24 27.6c4 0 7.3 3.3 7.3 7.3s-3.3 7.4-7.3 7.4-7.3-3.3-7.3-7.3 3.3-7.4 7.3-7.4m0-2.5c-5.4 0-9.8 4.4-9.8 9.8s4.4 9.8 9.8 9.8 9.8-4.4 9.8-9.8-4.4-9.8-9.8-9.8z"/><path d="m23.5 5.6c2.4 0 4.9.9 6.9 2.6 1.6 1.5 2.7 3.5 3.2 5.4l.5 1.9h2c5.1 0 9.5 4.3 9.5 9.4 0 4.1-2.6 7.6-6.3 9-.2-3.8-1.7-7.2-4.4-9.9-2.9-2.9-6.7-4.5-10.8-4.5s-7.9 1.5-10.8 4.5c-2.8 2.8-4.3 6.4-4.4 10.3-3.5-.7-6.3-3.9-6.3-7.7 0-4.2 3.6-7.8 7.8-7.8h.4 2.5v-2.5-.3c-.1-5.7 4.5-10.4 10.2-10.4m0-2.5c-7.1 0-12.8 5.8-12.8 12.8v.4c-.1 0-.2 0-.4 0-5.6 0-10.3 4.7-10.3 10.3s4.7 10.4 10.3 10.4h1.2c-.1-.7-.2-1.4-.2-2.2 0-3.4 1.3-6.6 3.7-9s5.5-3.7 9-3.7c3.4 0 6.6 1.3 9 3.7s3.7 5.5 3.7 9c0 .7-.1 1.4-.2 2.2 6.3-.3 11.5-5.6 11.5-12s-5.4-11.9-12-11.9c-.6-2.5-2-4.9-4-6.7-2.4-2.1-5.4-3.3-8.5-3.3z"/><path d="m26.5 30.4-2.5 2.5-2.5-2.5-2.1 2 2.6 2.4-2.6 2.5 2.1 2.1 2.5-2.6 2.5 2.7 2.1-2-2.6-2.6 2.6-2.5z"/></svg>