<svg enable-background="new 0 0 48 48" viewBox="0 0 48 48" xmlns="http://www.w3.org/2000/svg"><path d="m22.7 2.5c3.2 0 5.9 2.1 6.7 5.1l.5 1.8h1.9c3.3.1 6 2.9 6.1 6.3 0 2-1 3.8-2.6 5h-2.5v-.7-2.5h-2.5-2.8-2.5-1.7-2.5-1.7-2.5-1.7-2.5v2.5.7h-2.4c-1.1-.9-1.8-2.3-1.8-3.9 0-2.8 2.2-5.1 5-5.2l2.4-.1v-2.3c.1-3.6 3.3-6.7 7.1-6.7m0-2.5c-5.2 0-9.5 4.2-9.5 9.2-4.1.1-7.4 3.5-7.4 7.7 0 2.6 1.3 5 3.5 6.4h5.6v-.1-1.4-1.8h2.8v1.7 1.4.1h1.4v-.1-1.4-1.7h2.8v1.7 1.4.1h1.4v-.1-1.4-1.7h2.7v1.7 1.4.1h1.4v-.1-1.4-1.7h2.8v1.7 1.4.1h5.8c2.5-1.6 4.3-4.3 4.3-7.6-.1-4.6-3.8-8.5-8.5-8.6-1.1-4.1-4.8-7-9.1-7z"/><path d="m33.2 26.2h-21.6v3.3h21.6z"/><path d="m28.7 34.8c-.6 2.4-2.6 4.3-5.1 4.8l-.9.2-1.2-.2c-2.6-.4-4.7-2.3-5.3-4.7h12.5m13.5-7.2h-2.8v13c0 2.5-2 4.6-4.6 4.6h-6.6c-2 0-3.8-1.4-4.3-3.2 4.2-.7 7.4-4.4 7.4-8.9v-.8h-18v.8c0 4.6 3.4 8.3 7.7 8.9.6 3.5 3.6 6 7.2 6h6.6c4.1 0 7.3-3.2 7.3-7.3v-13.1z"/></svg>