<svg enable-background="new 0 0 48 48" viewBox="0 0 48 48" xmlns="http://www.w3.org/2000/svg"><path d="m6.7 36.9c-3 0-5.5-2.5-5.5-5.5s2.5-5.5 5.5-5.5c.2 0 .4 0 .6.1.3 0 .6.1.9.1h1.3v-2.1c0-7.1 5.7-12.8 12.8-12.8 5.5 0 10.3 3.5 12.1 8.6l.4 1.1 1.1-.3c.9-.2 1.8-.4 2.6-.4 4.5 0 8.2 3.8 8.2 8.3 0 4.6-3.7 8.4-8.3 8.4z"/><path d="m22.3 12.5c4.9 0 9.3 3.1 11 7.8l.8 2.2 2.2-.6c.8-.2 1.6-.4 2.3-.4 3.8 0 7 3.3 7 7.1 0 3.9-3.2 7.1-7.1 7.1h-31.8c-2.3 0-4.2-1.9-4.2-4.2s1.9-4.2 4.2-4.2h.5c.3 0 .7.1 1.1.1h2.5v-2.5-.9c0-6.5 5-11.5 11.5-11.5m0-2.5c-7.8 0-14 6.2-14 14v.8c-.5 0-1.1-.1-1.6-.1-3.7 0-6.7 3-6.7 6.7s3 6.7 6.7 6.7h31.7c5.3 0 9.6-4.3 9.6-9.6s-4.3-9.6-9.5-9.6c-1 0-1.9.2-2.9.5-1.9-5.5-7.2-9.4-13.3-9.4z"/></svg>