<svg enable-background="new 0 0 48 48" viewBox="0 0 48 48" xmlns="http://www.w3.org/2000/svg"><path d="m22.1 32 2.4 2 .7.6h.9 3.6v3.7 2.5h-11.5v-2.5-6.3zm.9-2.5h-7.3v8.9 5h16.6v-5-6.2h-6.1z"/><path d="m23.5 7.1c2.4 0 4.9.9 6.9 2.6 1.6 1.5 2.7 3.5 3.2 5.4l.4 1.9h2c5.1 0 9.5 4.3 9.5 9.4 0 4.7-3.5 8.6-8 9.4v-3.6-2.8-2.5h-2.5-2.8-4.1l-1.6-1.4-.8-.7-.7-.7h-.9-1.1-7.3-2.7-2.5v2.5 2.8 6.5h-.1c-4.2 0-7.8-3.6-7.8-7.8s3.6-7.8 7.8-7.8h.4 2.5v-2.5-.4c-.1-5.7 4.5-10.3 10.2-10.3m0-2.5c-7.1 0-12.8 5.8-12.8 12.8v.4c-.1 0-.2 0-.4 0-5.6 0-10.3 4.6-10.3 10.3s4.7 10.3 10.3 10.3h2.7v-9-2.8h2.8 7.2 1.1l.8.7 2.3 2h5 2.8v2.8 6.2h1c6.6 0 12-5.4 12-12 0-6.5-5.4-11.9-12-11.9-.6-2.5-2-4.9-4-6.7-2.4-1.9-5.4-3.1-8.5-3.1z"/></svg>