<svg enable-background="new 0 0 48 48" viewBox="0 0 48 48" xmlns="http://www.w3.org/2000/svg"><path d="m24 25.1c-5.4 0-9.8 4.4-9.8 9.8s4.4 9.8 9.8 9.8 9.8-4.4 9.8-9.8-4.4-9.8-9.8-9.8zm4.6 12.4-2 2-2.6-2.6-2.5 2.5-2-2 2.5-2.5-2.5-2.4 2-2 2.5 2.5 2.5-2.5 2 2-2.5 2.4z"/><path d="m36 13.1c-.6-2.5-2-4.9-4-6.7-2.4-2-5.4-3.2-8.5-3.2-7.1 0-12.8 5.8-12.8 12.8v.4c-.1 0-.2 0-.4 0-5.6-.1-10.3 4.6-10.3 10.2s4.7 10.4 10.3 10.4h1.2c-.1-.7-.2-1.4-.2-2.2 0-3.4 1.3-6.6 3.7-9s5.5-3.7 9-3.7c3.4 0 6.6 1.3 9 3.7s3.7 5.5 3.7 9c0 .7-.1 1.4-.2 2.2 6.3-.3 11.5-5.6 11.5-12s-5.4-11.9-12-11.9z"/></svg>