<svg enable-background="new 0 0 48 48" viewBox="0 0 48 48" xmlns="http://www.w3.org/2000/svg"><path d="m36 10.1c-.6-2.5-2-4.9-4-6.7-2.4-2-5.4-3.2-8.5-3.2-7.1 0-12.8 5.8-12.8 12.8v.4c-.1 0-.2 0-.4 0-5.6.1-10.3 4.6-10.3 10.4 0 5.6 4.7 10.3 10.3 10.3h3.6c-.2-.5-.4-1-.6-1.4-.1-.5-.2-1-.4-1.4-.1-.6-.1-1.2-.1-1.8 0-2.8 1.1-5.4 3-7.3s4.6-3 7.3-3 5.4 1.1 7.3 3 3 4.6 3 7.3c0 .6 0 1.2-.1 1.8-.1.5-.2 1-.4 1.4-.1.5-.4 1-.6 1.4h3.7c6.6 0 12-5.4 12-12s-5.4-12-12-12z"/><path d="m40.3 40-5.3-5.2-2.3 2.3-1.3-1.3-1-1-1-1 .1-.1s0-.1.1-.1l.1-.1v-.1c0-.1.1-.1.1-.2.6-1.1.8-2.3.8-3.5 0-4.2-3.4-7.6-7.6-7.6s-7.7 3.1-7.7 7.3 3.7 7.6 7.9 7.6c1.6 0 3-.5 4.2-1.3l1 1 1 1 1.3 1.3-2.3 2.3 5.2 5.2c.8.8 2 1.3 3.2 1.3.6 0 1.2-.1 1.7-.4.6-.2 1.1-.6 1.6-1 .8-.8 1.3-2 1.3-3.2.2-1.2-.2-2.4-1.1-3.2z"/></svg>