<svg enable-background="new 0 0 48 48" viewBox="0 0 48 48" xmlns="http://www.w3.org/2000/svg"><path d="m31.8 7c-1.1-4.1-4.8-7-9.1-7-5.2 0-9.5 4.2-9.5 9.2-4.1.1-7.4 3.5-7.4 7.7 0 2.6 1.3 5 3.5 6.4h5.6v-.1-1.4-1.8h2.8v1.7 1.4.1h1.4v-.1-1.4-1.7h2.8v1.7 1.4.1h1.4v-.1-1.4-1.7h2.7v1.7 1.4.1h1.4v-.1-1.4-1.7h2.8v1.7 1.4.1h5.8c2.5-1.6 4.3-4.3 4.3-7.6-.1-4.6-3.8-8.5-8.5-8.6z"/><path d="m11.6 26.2h21.6v3.4h-21.6z"/><path d="m39.5 27.7v13c0 2.5-2 4.6-4.6 4.6h-6.6c-2 0-3.8-1.4-4.3-3.2 4.2-.7 7.4-4.4 7.4-8.9v-.8h-18v.8c0 4.6 3.4 8.3 7.7 8.9.6 3.5 3.6 6 7.2 6h6.6c4.1 0 7.3-3.2 7.3-7.3v-13h-2.7z"/></svg>