<svg enable-background="new 0 0 48 48" viewBox="0 0 48 48" xmlns="http://www.w3.org/2000/svg"><path d="m45.6 33.8h-3.3v-1.4c0-2.9-2.3-5.2-5.2-5.2h-12v-5.9h7.8c2.4 0 4.5-2 4.5-4.5v-6.8c0-2.4-2-4.5-4.5-4.5h-17.8c-2.4 0-4.5 2-4.5 4.5v6.7c0 2.4 2 4.5 4.5 4.5h7.8v5.9h-12c-2.9 0-5.2 2.3-5.2 5.2v1.4h-3.3c-1.4 0-2.5 1.2-2.5 2.5v3.4c0 1.4 1.2 2.5 2.5 2.5h8.7c1.4 0 2.5-1.2 2.5-2.5v-3.4c0-1.4-1.2-2.5-2.5-2.5h-3.2v-1.4c0-1.6 1.3-2.9 2.9-2.9h12.1v4.3h-3.3c-1.4 0-2.5 1.2-2.5 2.5v3.4c0 1.4 1.2 2.5 2.5 2.5h8.7c1.4 0 2.5-1.2 2.5-2.5v-3.4c0-1.4-1.2-2.5-2.5-2.5h-3.3v-4.3h12c1.6 0 2.9 1.3 2.9 2.9v1.4h-3.3c-1.4 0-2.5 1.2-2.5 2.5v3.4c0 1.4 1.2 2.5 2.5 2.5h8.7c1.4 0 2.5-1.2 2.5-2.5v-3.4c.3-1.2-.9-2.4-2.2-2.4z"/></svg>