<svg enable-background="new 0 0 48 48" viewBox="0 0 48 48" xmlns="http://www.w3.org/2000/svg"><path d="m40.1 7.9v4.9.3 2.5 7.1.3 2.5 7 .3 2.5 4.9h-4.9-2.5-.3-7.1-2.5-.3-7-2.5-.3-4.8v-4.9-2.5-.3-7.1-2.5-.3-7-2.5-.3-4.9h4.9.3 2.5 7.1.3 2.5 7 2.5.3zm-28.8 19.1h2.5 20.4 2.5v-2.5-11.5-2.5h-2.5-20.4-2.5v2.5 11.5zm-.1 10.4h2.5 20.6.1 2.5v-2.5-2.8-2.5h-2.5-20.7-2.5v2.5 2.8zm24-37.4h-2.8v5.4h-7v-5.4h-2.8v5.4h-7.1v-5.4h-2.8v5.4h-7.3v7.4h-5.4v2.8h5.4v7h-5.4v2.8h5.4v7.1h-5.4v2.8h5.4v7.4h7.4v5.3h2.8v-5.4h7v5.4h2.8v-5.4h7.1v5.4h2.8v-5.4h7.4v-7.4h5.3v-2.8h-5.4v-7h5.4v-2.8h-5.4v-7.1h5.4v-2.8h-5.4v-7.3h-7.4zm-21.4 24.5v-11.5h20.4v11.5zm-.1 10.4v-2.8h20.8v2.8h-.1z"/><path d="m17.8 17.1h12.3v3.4h-12.3z"/><path d="m28.8 18.3v.9h-9.8v-.9zm2.5-2.5h-14.7v5.9h14.8v-5.9z"/></svg>