<svg enable-background="new 0 0 48 48" viewBox="0 0 48 48" xmlns="http://www.w3.org/2000/svg"><path d="m24 4.5c9.1 0 16.5 2.6 16.5 5.8v.4c0 3.2-7.4 5.8-16.5 5.8s-16.5-2.6-16.5-5.8v-.4c0-3.2 7.4-5.8 16.5-5.8m16.5 12.7v2.5c0 3.2-7.4 5.8-16.5 5.8s-16.5-2.7-16.5-5.9v-2.5c3.5 2.7 10 3.9 16.5 3.9s13-1.2 16.5-3.8m0 9v2.5c0 3.2-7.4 5.8-16.5 5.8s-16.5-2.6-16.5-5.8v-2.5c3.5 2.6 10 3.8 16.5 3.8s13-1.2 16.5-3.8m0 9v2.6c0 3.2-7.4 5.8-16.5 5.8s-16.5-2.7-16.5-5.9v-2.6c3.5 2.7 10 3.9 16.5 3.9s13-1.2 16.5-3.8m-16.5-35.2c-8.2 0-21 2.2-21 10.3v27.4c0 8.1 12.8 10.3 21 10.3s21-2.2 21-10.3v-27.4c0-8.1-12.8-10.3-21-10.3z"/></svg>