<svg enable-background="new 0 0 48 48" viewBox="0 0 48 48" xmlns="http://www.w3.org/2000/svg"><path d="m13.4 28.6 3-.4c.1.8.3 1.5.7 2.2l-2.5 1.6c-.7.5-.9 1.4-.5 2.1.5.7 1.4.9 2.1.5l2.6-1.7c1.9 1.7 4.5 2.4 6.9 1.7l-9.4-9.6v.1l-3.3.5c-.8.1-1.4.9-1.3 1.8 0 .8.8 1.4 1.7 1.2zm10.6-28.6c-13.3 0-24 10.7-24 24s10.7 24 24 24 24-10.7 24-24-10.7-24-24-24zm0 41.8c-9.8 0-17.8-8-17.8-17.8 0-3.7 1.1-7.2 3.2-10.2l24.8 24.8c-3 2.1-6.5 3.2-10.2 3.2zm14.6-7.6-5.8-5.8 1.9.3h.2c.9 0 1.5-.7 1.5-1.5s-.6-1.4-1.3-1.5l-3.3-.5v-2.2l3.3-.5c.8-.1 1.4-.9 1.3-1.8-.1-.8-.9-1.4-1.8-1.3l-3 .4c-.1-.8-.3-1.5-.7-2.2l2.4-1.6c.7-.5.9-1.4.5-2.1-.5-.7-1.4-.9-2.1-.5l-2.6 1.7c-2.8-2.5-7-2.6-9.9-.3l-5.4-5.4c3-2.1 6.5-3.2 10.2-3.2 9.8 0 17.8 8 17.8 17.8 0 3.7-1.1 7.2-3.2 10.2z"/></svg>