<svg enable-background="new 0 0 48 48" viewBox="0 0 48 48" xmlns="http://www.w3.org/2000/svg"><path d="m10.6 25.5c-.8.1-1.4.9-1.3 1.7s.9 1.4 1.7 1.3l4.1-.6c.1 1.3.4 2.6 1 3.8l-3.3 2.3c-.7.4-1 1.4-.5 2.1.4.7 1.4 1 2.1.5 0 0 .1-.1.1-.1l3.6-2.4c2.2 2 5.2 2.7 8.1 1.9l-11.2-11.2zm13.4-25.5c-13.3 0-24 10.7-24 24s10.7 24 24 24 24-10.7 24-24-10.7-24-24-24zm0 43.4c-10.7 0-19.4-8.7-19.4-19.4 0-4.3 1.5-8.5 4.1-11.9l27.1 27.1c-3.3 2.7-7.5 4.2-11.8 4.2zm15.2-7.5-6.6-6.6c.1-.5.2-.9.2-1.4l4.1.6c.8.1 1.6-.5 1.8-1.3.1-.8-.5-1.6-1.3-1.8l-4.5-.6v-2.4l4.5-.6c.8-.1 1.4-.9 1.3-1.7s-.9-1.4-1.7-1.3l-4.2.6c-.1-1.1-.5-2.1-1-3l3.4-2.3c.7-.4 1-1.4.5-2.1-.4-.7-1.4-1-2.1-.5 0 0-.1 0-.1.1l-3.6 2.4c-3.5-3.2-8.9-3-12.2.5l-5.6-5.6c3.4-2.7 7.6-4.1 11.9-4.1 10.7 0 19.4 8.7 19.4 19.4 0 4.1-1.5 8.3-4.2 11.7z"/></svg>