<svg enable-background="new 0 0 48 48" viewBox="0 0 48 48" xmlns="http://www.w3.org/2000/svg"><path d="m45.6 12h-43.2c-1.3 0-2.4 1.1-2.4 2.4v19.2c0 1.3 1.1 2.4 2.4 2.4h43.2c1.3 0 2.4-1.1 2.4-2.4v-19.2c0-1.3-1.1-2.4-2.4-2.4zm-22.8 19.2c0 .3-.3.6-.6.6h-16.8c-.3 0-.6-.3-.6-.6v-.6c0-.3.3-.6.6-.6h16.8c.3 0 .6.3.6.6zm-17.4-4.8v-1.2c0-.3.3-.6.6-.6h1.2c.3 0 .6.3.6.6v1.2c0 .3-.3.6-.6.6h-1.2c-.3 0-.6-.3-.6-.6zm4.8 0v-1.2c0-.3.3-.6.6-.6h1.2c.3 0 .6.3.6.6v1.2c0 .3-.3.6-.6.6h-1.2c-.3 0-.6-.3-.6-.6zm4.8 0v-1.2c0-.3.3-.6.6-.6h1.2c.3 0 .6.3.6.6v1.2c0 .3-.3.6-.6.6h-1.2c-.3 0-.6-.3-.6-.6zm4.8 0v-1.2c0-.3.3-.6.6-.6h1.2c.3 0 .6.3.6.6v1.2c0 .3-.3.6-.6.6h-1.2c-.3 0-.6-.3-.6-.6zm3-4.8c0 .7-.5 1.2-1.2 1.2h-15.6c-.7 0-1.2-.5-1.2-1.2v-3.6c0-.7.5-1.2 1.2-1.2h15.6c.7 0 1.2.5 1.2 1.2zm20.4 9.6c0 .3-.3.6-.6.6h-16.8c-.3 0-.6-.3-.6-.6v-.6c0-.3.3-.6.6-.6h16.8c.3 0 .6.3.6.6z"/></svg>