<svg enable-background="new 0 0 48 48" viewBox="0 0 48 48" xmlns="http://www.w3.org/2000/svg"><path d="m45.5 11.5v16.7h-43v-16.7zm2.5-2.5h-48v21.7h48z"/><path d="m12.8 16v2.5h-2.5v-2.5zm1.2-2.5h-5c-.7 0-1.3.6-1.3 1.3v5c0 .7.6 1.3 1.3 1.3h3.7v2.4h-3.6c-.7 0-1.3.6-1.3 1.3s.6 1.3 1.3 1.3h5c.7 0 1.3-.6 1.3-1.3 0-3.6 0-6.4 0-10-.1-.7-.7-1.3-1.4-1.3z"/><path d="m20.4 21.2h-2.8v2.8h2.8z"/><path d="m20.4 15.6h-2.8v2.8h2.8z"/><path d="m27.7 16v7.5h-2.5v-7.5zm1.3-2.5h-5c-.7 0-1.3.6-1.3 1.3v10c0 .7.6 1.3 1.3 1.3h5c.7 0 1.3-.6 1.3-1.3v-10c-.1-.7-.7-1.3-1.3-1.3z"/><path d="m37.6 16v7.5h-2.5v-7.5zm1.2-2.5h-5c-.7 0-1.3.6-1.3 1.3v10c0 .7.6 1.3 1.3 1.3h5c.7 0 1.3-.6 1.3-1.3v-10c0-.7-.6-1.3-1.3-1.3z"/><path d="m4.3 36.8c-1.6 0-3.1-1.4-3.1-3v-.2h45.5v.2c0 1.6-1.4 3-3.1 3z"/><path d="m45.1 34.9c-.3.4-.9.6-1.4.6h-39.4c-.5 0-1-.3-1.4-.6zm2.9-2.5h-48v1.4c0 2.3 2 4.2 4.3 4.2h39.4c2.3 0 4.3-1.9 4.3-4.2z"/><path d="m1.3 5.9v-.1c0-1.6 1.4-3 3.1-3h39.4c1.7 0 3.1 1.3 3.1 3v.2h-45.6z"/><path d="m43.7 4c.5 0 1.1.2 1.4.6h-42.2c.4-.3.9-.6 1.4-.6zm0-2.5h-39.4c-2.3 0-4.3 1.8-4.3 4.3v1.4h48v-1.4c0-2.5-2-4.3-4.3-4.3z"/><path d="m7.2 45.3c-.1 0-.2-.1-.2-.2v-3h34.1v3c0 .1-.1.2-.2.2z"/><path d="m39.9 43.4v.6h-31.6v-.6zm2.5-2.5h-36.6v4.2c0 .7.6 1.4 1.4 1.4h33.7c.7 0 1.4-.6 1.4-1.4v-4.2z"/></svg>