<svg enable-background="new 0 0 48 48" viewBox="0 0 48 48" xmlns="http://www.w3.org/2000/svg"><path d="m45.6 12h-43.2c-1.3 0-2.4 1.1-2.4 2.4v19.2c0 1.3 1.1 2.4 2.4 2.4h43.2c1.3 0 2.4-1.1 2.4-2.4v-19.2c0-1.3-1.1-2.4-2.4-2.4zm-1.2 20.4h-40.8v-16.8h40.8zm-37.2-9.6h14.4c.7 0 1.2-.5 1.2-1.2v-2.4c0-.7-.5-1.2-1.2-1.2h-14.4c-.7 0-1.2.5-1.2 1.2v2.4c0 .7.5 1.2 1.2 1.2zm-.6 7.8h15.6c.3 0 .6-.3.6-.6v-.6c0-.3-.3-.6-.6-.6h-15.6c-.3 0-.6.3-.6.6v.6c0 .3.3.6.6.6zm19.2 0h15.6c.3 0 .6-.3.6-.6v-.6c0-.3-.3-.6-.6-.6h-15.6c-.3 0-.6.3-.6.6v.6c0 .3.3.6.6.6zm-18.6-6c-.3 0-.6.3-.6.6v1.2c0 .3.3.6.6.6h1.2c.3 0 .6-.3.6-.6v-1.2c0-.3-.3-.6-.6-.6zm4.4 0c-.3 0-.6.3-.6.6v1.2c0 .3.3.6.6.6h1.2c.3 0 .6-.3.6-.6v-1.2c0-.3-.3-.6-.6-.6zm4.4 0c-.3 0-.6.3-.6.6v1.2c0 .3.3.6.6.6h1.2c.3 0 .6-.3.6-.6v-1.2c0-.3-.3-.6-.6-.6zm4.4 0c-.3 0-.6.3-.6.6v1.2c0 .3.3.6.6.6h1.2c.3 0 .6-.3.6-.6v-1.2c0-.3-.3-.6-.6-.6z"/></svg>