<svg enable-background="new 0 0 48 48" viewBox="0 0 48 48" xmlns="http://www.w3.org/2000/svg"><path d="m33.7 12-2.5-4.9 2.5-5c.5-1-.2-2-1.3-2h-14c-.7 0-1.4.6-1.4 1.4v16.6l-5.2 8.6 3.8 3.8 1.8-1.8c.6-.6 1.4-.6 2 0l1.8 1.8 3.8-3.8-5.2-8.7v-4h12.6c1.1 0 1.8-1 1.3-2z"/><path d="m36.5 45.8-10-16.7-4.3 4.3c-.2.2-.6.4-1 .4s-.7-.1-1-.4l-1.8-1.8-1.8 1.8c-.6.6-1.4.6-2 0l-4.3-4.3-10.1 16.7c-.2.5-.2 1 0 1.4.3.6.8.8 1.2.8h33.8c.5 0 1-.2 1.2-.7.3-.5.3-1 .1-1.5z"/><path d="m47.8 45.8-11.4-19.9c-.5-.8-1.9-.8-2.4 0l-3.1 5.2 8 13.3c.6 1.1.7 2.4.4 3.6h7.4c.5 0 1-.2 1.2-.7s.2-1-.1-1.5z"/></svg>