<svg enable-background="new 0 0 48 48" viewBox="0 0 48 48" xmlns="http://www.w3.org/2000/svg"><path d="m30.7 2.5-1.7 3.5-.6 1.1.6 1.1 1.7 3.3h-10.9-.4v-9zm-12.3 18 3.6 5.8-.7.7c-.8-.8-1.8-1.2-2.8-1.2s-2 .4-2.8 1.2l-.7-.7zm14-20.5h-14c-.7 0-1.4.6-1.4 1.4v16.6l-5.2 8.6 3.8 3.8 1.8-1.8c.3-.3.7-.5 1-.5.4 0 .7.1 1 .5l1.8 1.8 3.8-3.8-5.2-8.6v-4h12.6c1.1 0 1.8-1.1 1.3-2l-2.5-4.9 2.5-5c.5-1-.2-2.1-1.3-2.1z"/><path d="m10.8 33.2 2.1 2.1c.8.8 1.8 1.2 2.8 1.2s2-.4 2.8-1.2c.7.7 1.7 1.1 2.7 1.1s2-.4 2.7-1.1l2.1-2.1 7.3 12.3h-30zm15.7-4-4.3 4.3c-.2.2-.6.4-1 .4s-.7-.1-1-.4l-1.8-1.8-1.8 1.8c-.3.3-.7.5-1 .5-.4 0-.7-.2-1-.5l-4.3-4.3-10.1 16.6c-.2.5-.2 1 0 1.4.3.6.8.8 1.2.8h33.8c.5 0 1-.2 1.2-.7s.2-1 0-1.4z"/><path d="m47.8 45.8-11.4-19.9c-.5-.8-1.9-.8-2.4 0l-3.1 5.2 8 13.3c.6 1.1.7 2.4.4 3.6h7.4c.5 0 1-.2 1.2-.7s.2-1-.1-1.5z"/></svg>