<svg enable-background="new 0 0 48 48" viewBox="0 0 48 48" xmlns="http://www.w3.org/2000/svg"><path d="m41.4 2.5c.7 0 1.2.6 1.2 1.2v31.3c-.4-.1-.8-.2-1.2-.2h-34.8c-.4 0-.8.1-1.2.2v-31.3c0-.7.6-1.2 1.2-1.2zm0-2.5h-34.8c-2 0-3.7 1.7-3.7 3.7v34.9 2.2 3.5c0 2 1.7 3.7 3.7 3.7h34.8c2 0 3.7-1.7 3.7-3.7v-3.5-2.2-34.9c0-2-1.7-3.7-3.7-3.7zm-34.8 45.6c-.7 0-1.3-.6-1.3-1.3v-5.6c0-.7.6-1.3 1.3-1.3h34.8c.7 0 1.3.6 1.3 1.3v5.6c0 .7-.6 1.3-1.3 1.3zm31.9-5.4h-3c-.7 0-1.2.6-1.2 1.2s.6 1.2 1.2 1.2h3c.7 0 1.2-.6 1.2-1.2s-.5-1.2-1.2-1.2zm-28.5 0c-.7 0-1.3.6-1.3 1.2s.6 1.2 1.2 1.2h.1c.7 0 1.2-.6 1.2-1.2s-.6-1.2-1.2-1.2z"/><path d="m34.7 15.3c1.3 0 2.4 1.1 2.4 2.4v1c0 1.3-1.1 2.4-2.4 2.4h-2v-5.7h2m0-2.6h-3.3c-.7 0-1.2.6-1.2 1.2v8.3c0 .7.6 1.2 1.2 1.2h3.3c2.7 0 4.9-2.2 4.9-4.9v-1c0-2.6-2.2-4.8-4.9-4.8z"/><path d="m23.8 15.3c1.3 0 2.4 1.1 2.4 2.4v1c0 1.3-1.1 2.4-2.4 2.4h-2v-5.7h2m0-2.6h-3.3c-.7 0-1.2.6-1.2 1.2v8.3c0 .7.6 1.2 1.2 1.2h3.3c2.7 0 4.9-2.2 4.9-4.9v-1c0-2.6-2.2-4.8-4.9-4.8z"/><path d="m16.4 12.8c-.6 0-1.2.6-1.2 1.2v3h-4.4v-3c0-.7-.6-1.2-1.2-1.2-.7 0-1.2.6-1.2 1.2v8.3h-.1c0 .7.6 1.2 1.2 1.2.7 0 1.2-.6 1.2-1.2v-3h4.6v3c0 .7.6 1.2 1.2 1.2s1.2-.6 1.2-1.2v-8.3c-.1-.7-.7-1.2-1.3-1.2z"/></svg>