<svg enable-background="new 0 0 48 48" viewBox="0 0 48 48" xmlns="http://www.w3.org/2000/svg"><path d="m26.3 17.8v.6c0 1.4-1.2 2.6-2.6 2.6h-1.9v-5.9h1.9c1.4 0 2.6 1.2 2.6 2.7zm8.3-2.7h-1.9v5.9h1.9c1.4 0 2.6-1.2 2.6-2.6v-.6c0-1.5-1.2-2.7-2.6-2.7zm10.5-11.4v34.9 2.2 3.5c0 2-1.7 3.7-3.7 3.7h-34.8c-2 0-3.7-1.7-3.7-3.7v-3.5-2.2-34.9c0-2 1.7-3.7 3.7-3.7h34.8c2 0 3.7 1.7 3.7 3.7zm-14.9 18.6c0 .7.6 1.2 1.2 1.2h3.1c2.8 0 5-2.3 5-5v-.6c0-2.8-2.3-5-5-5h-3.1c-.7 0-1.2.6-1.2 1.2 0-.2 0 8.2 0 8.2zm-10.9 0c0 .7.6 1.2 1.2 1.2h3.1c2.8 0 5-2.3 5-5v-.6c0-2.8-2.3-5-5-5h-3.1c-.7 0-1.2.6-1.2 1.2zm-11 0c0 .7.6 1.2 1.2 1.2.7 0 1.2-.6 1.2-1.2v-3h4.6v3c0 .7.6 1.2 1.2 1.2s1.2-.6 1.2-1.2v-8.3c0-.7-.6-1.2-1.2-1.2s-1.2.6-1.2 1.2v3h-4.4v-3c0-.7-.6-1.2-1.2-1.2-.7 0-1.2.6-1.2 1.2v8.3zm34.4 16.3c0-.7-.6-1.3-1.3-1.3h-34.8c-.7 0-1.3.6-1.3 1.3v5.6c0 .7.6 1.3 1.3 1.3h34.8c.7 0 1.3-.6 1.3-1.3zm-32.7 1.6c-.7 0-1.3.6-1.3 1.2s.6 1.2 1.2 1.2h.1c.7 0 1.2-.6 1.2-1.2s-.6-1.2-1.2-1.2zm28.5 0h-3c-.7 0-1.2.6-1.2 1.2s.6 1.2 1.2 1.2h3c.7 0 1.2-.6 1.2-1.2s-.5-1.2-1.2-1.2z"/></svg>