<svg enable-background="new 0 0 48 48" viewBox="0 0 48 48" xmlns="http://www.w3.org/2000/svg"><path d="m39.6 12v-9.1h-7.8v3.1l-7.8-6-21.7 16.7 3 3.8 1.1-.8 1.2-.9 1.5-1.2 6.4-4.9 8.5-6.6 8.5 6.6 6.4 4.9 1.5 1.2 1.2.9 1.1.8 3-3.8z"/><path d="m37.6 20-1.5-1-12.1-9.3-12.1 9.3-1.5 1-1.3 1.1v15.1h9.5v-1.4-1.4-12.6h10.8v12.6 1.4 1.4h9.5v-15.1z"/><path d="m28.6 41.8c-.5-1.6-1.7-2.8-3.2-3.2v-2.3h1.1v-1.4-1.4-9.8h-5v9.8 1.4 1.4h1.1v2.3c-1.6.5-2.8 1.7-3.2 3.2h-19.4v2.9h19.4c.6 1.9 2.4 3.3 4.6 3.3s4-1.4 4.6-3.4h19.4v-2.9zm-4.6 3.3c-1.1 0-2-.8-2-2 0-1.1.8-2 2-2s2 .8 2 2-.9 2-2 2z"/></svg>