<svg enable-background="new 0 0 48 48" viewBox="0 0 48 48" xmlns="http://www.w3.org/2000/svg"><path d="m47.2 21.8-7.3-7.3v-8.4c0-1.6-1.2-2.8-2.8-2.8s-2.8 1.2-2.8 2.8v2.9l-5.3-5.4c-2.6-2.6-7.3-2.6-10 0l-18.2 18.2c-1.1 1.1-1.1 2.8 0 3.8 1.1 1.1 2.8 1.1 3.8 0l18.3-18.2c.6-.6 1.7-.6 2.3 0l18.3 18.3c.5.5 1.2.8 1.9.8s1.4-.2 1.9-.8c1-1 1-2.8-.1-3.9z"/><path d="m25 12.7c-.5-.5-1.4-.5-1.9 0l-16 16.1c-.2.2-.4.6-.4 1v11.7c0 2.8 2.2 4.9 4.9 4.9h7.9v-12.3h9v12.3h7.9c2.8 0 4.9-2.2 4.9-4.9v-11.7c0-.4-.1-.7-.4-1z"/></svg>