<svg enable-background="new 0 0 48 48" viewBox="0 0 48 48" xmlns="http://www.w3.org/2000/svg"><path d="m44.4 4.4c.5 0 1.1.4 1.1 1.1v.1 23.7h-43v-23.7-.1c0-.5.4-1.1 1.1-1.1zm-17.2 33.7.2.6 1.7 4.8h-10.3l1.7-4.8.2-.6zm17.2-36.2h-40.8c-2 0-3.6 1.7-3.6 3.6v.1 25.1 3.6c0 2 1.7 3.6 3.6 3.6h14.5l-2 5.8h-4.9c-.6 0-1.2.5-1.2 1.2 0 .6.5 1.2 1.2 1.2h5.8 14 5.8c.6 0 1.2-.5 1.2-1.2 0-.6-.5-1.2-1.2-1.2h-4.9l-2-5.8h14.6c2 0 3.6-1.7 3.6-3.6v-3.6-25.1-.1c-.1-2-1.8-3.6-3.7-3.6zm-40.8 33.7c-.7 0-1.3-.6-1.3-1.3v-2.5h43.3v2.5c0 .7-.6 1.3-1.3 1.3h-16.1-8.3z"/></svg>