<svg enable-background="new 0 0 48 48" viewBox="0 0 48 48" xmlns="http://www.w3.org/2000/svg"><path d="m41.3 15.6-1-.2.5-.8c.2-.4.1-.8-.1-1.2l-1.9-1.9c-.4-.4-.8-.4-1.2-.1l-.8.5-.4-1c-.1-.5-.5-.7-1-.7h-2.8c-.5 0-.8.4-1 .7l-.2 1-.8-.5c-.4-.2-.8-.1-1.2.1l-1.9 1.9c-.4.4-.4.8-.1 1.2l.5.8-1.1.2c-.5.1-.7.5-.7 1v2.8c0 .5.4.8.7 1l1 .2-.5.8c-.2.4-.1.8.1 1.2l1.9 1.9c.4.4.8.4 1.2.1l.8-.5.2 1c.1.5.5.7 1 .7h2.8c.5 0 .8-.4 1-.7l.2-1 .8.5c.4.2.8.1 1.2-.1l1.9-1.9c.4-.4.4-.8.1-1.2l-.5-.8 1-.2c.5-.1.7-.5.7-1v-2.8c.3-.4-.1-.9-.4-1zm-7.3 5.4c-1.7 0-3-1.3-3-3s1.3-3 3-3 3 1.3 3 3-1.4 3-3 3z"/><path d="m21 22h-14c-.6 0-1 .5-1 1s.5 1 1 1h14c.6 0 1-.5 1-1s-.4-1-1-1z"/><path d="m15 26.1h-8c-.5 0-1 .4-1 1s.5 1 1 1h8c.6 0 1-.5 1-1 0-.7-.4-1-1-1z"/><path d="m44 4h-26v-3c0-.5-.5-1-1-1h-6c-.6 0-1 .5-1 1v3h-6c-2.2 0-4 1.8-4 4.1v28c0 2.2 1.8 4 4 4h14c0 1.6-.4 4.2-1.4 5.4-.4.5-1 .6-1.6.6s-1 .5-1 1c0 .6.5 1 1 1h18c.6 0 1-.5 1-1 0-.6-.5-1-1-1-.6 0-1.1-.2-1.6-.6-1.2-1.3-1.4-3.8-1.4-5.5h14c2.2 0 4-1.8 4-4v-28c0-2.2-1.8-4-4-4zm-20 34.1c-1.1 0-2-1-2-2s1-2 2-2 2 1 2 2-.9 2-2 2zm-20-6v-24h6v2h-2c-.4 0-.7.2-.8.6-.2.4-.2.7 0 1.1l6 8c.2.2.5.4.8.4.4 0 .6-.1.8-.4l6-8c.2-.4.2-.7.1-1.1s-.5-.6-.8-.6h-2.1v-2h26v24z"/></svg>