<svg enable-background="new 0 0 48.2 48" viewBox="0 0 48.2 48" xmlns="http://www.w3.org/2000/svg"><path d="m45.2 2.6h.4c0 3.2-2.4 14.8-13.1 25.8l-1.7 1.8 1.7 1.7c.8.8 1.2 2.2.2 3.3l-10.2 9.8c-.2.2-.4.3-.5.4-.1-.1-.2-.3-.3-.6l-.4-1.3c-.5-1.7.1-4.2 1.3-5.5l2.8-3-3.9-1.1c-1.3-.4-2.7-1.4-4.5-3.1-1.7-1.7-2.7-3.1-3.1-4.6l-.9-3.7-2.9 2.6c-1 .9-2.6 1.4-4.2 1.4-.5 0-.9-.1-1.3-.2l-1.4-.5h-.1-.1c-.3-.1-.4-.2-.5-.2 0-.1.1-.3.4-.5l10.1-10c.4-.4.8-.5 1.3-.5.7 0 1.4.3 1.9.9l1.7 1.7 1.8-1.7c9.5-8.9 20.6-12.9 25.5-12.9m0-2.5c-5.1 0-16.8 3.8-27.2 13.5-1-1-2.4-1.6-3.7-1.6-1.1 0-2.2.4-3 1.3l-10.1 10.1c-1.9 1.9-1.3 4.2 1.2 4.9l1.4.5c.7.2 1.4.3 2.1.3 2.1 0 4.3-.7 5.8-2.1.6 2 1.9 3.8 3.7 5.6 1.7 1.7 3.5 3.1 5.5 3.7-1.8 1.9-2.6 5.4-1.9 7.9l.4 1.3c.4 1.6 1.4 2.4 2.6 2.4.8 0 1.6-.4 2.3-1.1l10.2-9.8c1.9-2 1.7-4.9-.2-6.8 12.4-12.8 15-27.8 13.3-29.5-.4-.4-1.2-.6-2.4-.6z"/><path d="m9.1 29.9c-.2.1-.5.4-.6.5-1.9 1.9-1.4 5.4.8 7.8 1.4 1.4 3.2 2.1 4.8 2.1 1.2 0 2.2-.4 3-1.2.1-.1.4-.4.5-.6-1.7-.7-3.2-2-4.7-3.6s-2.8-3.2-3.8-5z"/><path d="m24 21.3c.6 0 1.3.3 1.7.7.9.9.9 2.5 0 3.4-.5.5-1.1.7-1.7.7s-1.2-.2-1.7-.7-.8-1.2-.7-1.9c0-.6.2-1.1.6-1.5.5-.4 1.1-.7 1.8-.7m0-2.5c-1.3 0-2.5.5-3.5 1.4-1.9 1.8-1.9 4.9 0 7 1 1 2.2 1.4 3.5 1.4s2.5-.5 3.5-1.4c1.9-1.9 1.9-5 0-7-1-.9-2.3-1.4-3.5-1.4z"/></svg>