<svg enable-background="new 0 0 48.2 48" viewBox="0 0 48.2 48" xmlns="http://www.w3.org/2000/svg"><path d="m34.3 30.2c12.4-12.8 15-27.8 13.3-29.5-2-2-16.8 1-29.6 13-1.9-1.9-4.8-2.3-6.7-.4l-10.1 10.1c-1.9 1.9-1.3 4.2 1.2 4.9l1.4.5c2.5.7 5.9 0 7.9-1.8.6 2 1.9 3.8 3.7 5.6 1.7 1.7 3.5 3.1 5.5 3.7-1.8 1.9-2.6 5.4-1.9 7.9l.4 1.3c.7 2.6 3 3.2 4.9 1.3l10.2-9.8c2-2 1.7-4.9-.2-6.8zm-13.8-9.9c1.9-1.9 5-1.9 7 0 1.9 1.9 1.9 5 0 7-1.9 1.9-5 1.9-7 0-1.9-2.1-1.9-5.2 0-7z"/><path d="m13 34.9c-1.6-1.6-2.9-3.2-3.8-5-.2.1-.5.4-.6.5-1.9 1.9-1.4 5.4.8 7.8 2.4 2.4 5.9 2.9 7.8 1 .1-.1.4-.4.5-.6-1.7-.8-3.3-2.1-4.7-3.7z"/></svg>