<svg enable-background="new 0 0 48 48" viewBox="0 0 48 48" xmlns="http://www.w3.org/2000/svg"><path d="m24 23.5c6.2 0 11.1 4.8 11.1 10.9s-5 11.1-11.1 11.1c-6.2 0-11.1-4.8-11.1-10.9s5-11.1 11.1-11.1m0-2.5c-7.4 0-13.6 6-13.6 13.6s6.1 13.4 13.6 13.4 13.6-6 13.6-13.6-6.2-13.4-13.6-13.4z"/><path d="m34.5 2.5c.3 0 .6.3.6.5 0 .3-.2.5-.5.5h-2.5v2.5 5.5l-5.4 4.1h-5.3l-5.4-4.1v-5.5-2.5h-2.5c-.3 0-.6-.2-.6-.5s.2-.5.5-.5h1.6 18zm0-2.5h-1.5-18-1.6c-1.7 0-3 1.3-3 3s1.4 3 3.1 3v6c0 .5.2 1 .6 1.2l6 4.6c.2.2.6.4 1 .4h6c.4 0 .6-.1 1-.4l6-4.6c.4-.2.6-.7.6-1.2v-6c1.7 0 3-1.3 3-3s-1.6-3-3.2-3z"/><path d="m28.6 5.1h-3.1v4.6c0 .8.7 1.6 1.6 1.6s1.6-.7 1.6-1.6v-4.6z"/><path d="m22.6 5.1h-3.1v4.6c0 .8.7 1.6 1.6 1.6s1.6-.7 1.6-1.6v-4.6z"/><path d="m22.6 35.2-2.4-1.9h2.9l.9-2.4 1 2.4h2.9l-2.5 1.9 1 2.6-2.2-1.3-2.5 1.5z"/><path d="m24 34.3.1.2h.2l-.3.2-.2-.2h.2zm0 .7v.1zm0-7.6-1.8 4.7h-5.6l4.6 3.6-1.7 5.2 4.7-2.9 4.7 2.9-1.9-5.2 4.6-3.6h-5.6z"/></svg>