<svg enable-background="new 0 0 48 48" viewBox="0 0 48 48" xmlns="http://www.w3.org/2000/svg"><path d="m24 21c-7.4 0-13.6 6-13.6 13.6s6.1 13.4 13.6 13.4 13.6-6 13.6-13.6-6.2-13.4-13.6-13.4zm4.7 19.3-4.7-2.9-4.7 2.9 1.7-5.2-4.6-3.6h5.6l1.8-4.7 1.8 4.7h5.6l-4.6 3.6z"/><path d="m13.6 6v6c0 .5.2 1 .6 1.2l6 4.6c.2.2.6.4 1 .4h6c.4 0 .6-.1 1-.4l6-4.6c.4-.2.6-.7.6-1.2v-6c1.7 0 3-1.3 3-3s-1.6-3-3.1-3h-1.7-18-1.6c-1.7 0-3 1.3-3 3s1.5 3 3.2 3zm14.9 0v4.6c0 .8-.7 1.6-1.6 1.6s-1.6-.7-1.6-1.6v-4.6zm-6 0v4.6c0 .8-.7 1.6-1.6 1.6s-1.6-.7-1.6-1.6v-4.6z"/></svg>