<svg enable-background="new 0 0 48 48" viewBox="0 0 48 48" xmlns="http://www.w3.org/2000/svg"><path d="m47 40.5h-1.3v-8.5c0-.6-.5-1.1-1.1-1.1h-7.9c-.1-.1-.1-.1-.2-.2l-11.2-6.3v-7.2h9.3c.6 0 1.1-.5 1.1-1.1v-1.3c0-.6-.5-1.1-1.1-1.1h-1.3v-8.6c0-.6-.5-1.1-1.1-1.1h-16c-.7 0-1.2.5-1.2 1.1v8.5h-1.3c-.6 0-1.1.5-1.1 1.1v1.3c0 .6.5 1.1 1.1 1.1h9.3v7.2l-11.2 6.1c-.1.1-.2.1-.2.2h-8.2c-.6 0-1.1.5-1.1 1.1v8.5h-1.3c-.6 0-1.1.5-1.1 1.1v1.3c0 .6.5 1.1 1.1 1.1h20.7c.6 0 1.1-.5 1.1-1.1v-1.3c0-.6-.5-1.1-1.1-1.1h-1.3v-8.5c0-.6-.5-1.1-1.1-1.1h-3.3l8.1-4.4 8.1 4.4h-3.5c-.6 0-1.1.5-1.1 1.1v8.5h-1.3c-.6 0-1.1.5-1.1 1.1v1.3c0 .6.5 1.1 1.1 1.1h20.7c.6 0 1.1-.5 1.1-1.1v-1.3c0-.3-.5-.8-1.1-.8zm-29.7-34.2h13.7v7.2h-13.7zm.9 34.2h-13.7v-7.3h13.7zm11.6-7.5h13.7v7.2h-13.7z"/></svg>