<svg enable-background="new 0 0 48 48" viewBox="0 0 48 48" xmlns="http://www.w3.org/2000/svg"><path d="m34.7 10.8h7.1c1.4 0 2.6-1.2 2.6-2.6v-5.6c0-1.4-1.2-2.6-2.6-2.6h-7.1-28.5c-1.4 0-2.6 1.2-2.6 2.6v5.5c0 1.4 1.2 2.6 2.6 2.6h15.1v1.3h-15.1c-1.4 0-2.6 1.2-2.6 2.6v5.5c0 1.4 1.2 2.6 2.6 2.6h15.1v1.3h-15.1c-1.4 0-2.6 1.2-2.6 2.6v5.5c0 1.4 1.2 2.6 2.6 2.6h15.1v2.8c-1.1.5-2 1.2-2.6 2.3h-13.8c-.6 0-1.2.5-1.2 1.2v2.9c0 .6.5 1.2 1.2 1.2h13.9c1 1.6 2.6 2.6 4.6 2.6s3.7-1.1 4.6-2.6h15.2c.6 0 1.2-.5 1.2-1.2v-2.9c0-.6-.5-1.2-1.2-1.2h-15.2c-.6-1-1.4-1.7-2.4-2.2v-2.6h9 7.1c1.4 0 2.6-1.2 2.6-2.6v-5.5c0-1.4-1.2-2.6-2.6-2.6h-7.1-9v-1.3h9 7.1c1.4 0 2.6-1.2 2.6-2.6v-5.5c0-1.4-1.2-2.6-2.6-2.6h-7.1-9v-1.3h9.1zm7.3-8.2v5.5c0 .1-.1.2-.2.2h-5.9v-6h5.9c.1.1.2.2.2.3zm0 24.3v5.5c0 .1-.1.2-.2.2h-5.9v-6h5.9c.1 0 .2.2.2.3zm0-12.1v5.5c0 .1-.1.2-.2.2h-5.9v-6h5.9c.1 0 .2.1.2.3z"/></svg>