<svg enable-background="new 0 0 48 48" viewBox="0 0 48 48" xmlns="http://www.w3.org/2000/svg"><path d="m45.6 9.3c-.8 0-1.6.2-2 .8l-17.1-5.7c-.1-1.2-1.1-2.2-2.4-2.3-1.4-.1-2.6 1-2.8 2.4v.4l-14.7 8.4c-.4-.2-.8-.5-1.3-.5-1.4-.1-2.6 1-2.8 2.4-.1 1 .5 1.9 1.3 2.4l-2.1 22.9c-1 .4-1.7 1.2-1.7 2.3-.1 1.4 1 2.6 2.4 2.8 1.1.1 2-.5 2.5-1.4l19.5.5c.5.7 1.2 1.2 2 1.2 1.4.1 2.6-1 2.8-2.4 0-.1 0-.1 0-.2l10.7-6.6c.4.2.8.4 1.2.4 1.4.1 2.6-1 2.8-2.4.1-1-.4-1.8-1.1-2.3l3.2-18c1.1-.2 1.9-1.2 1.9-2.3.3-1.4-.8-2.6-2.3-2.8zm-17.4 31.9 2.6-15.9h.2l7.8 8.2c-.1.2-.1.5-.1.7v.5zm-24.3-.8 2-22.2 9.6 10.7c-.1.2-.2.6-.2.8 0 .4 0 .6.1.8zm39-28.2v.2l-11.3 8.2c-.4-.2-.7-.4-1.1-.4l-4.7-13.6s0 0 .1-.1zm-23.6 15.5c-.4-.2-.8-.5-1.3-.5-.4 0-.6 0-1 .1l-8.7-9.7 19 5.5zm4.3-20.4 4.7 13.6-.1.1-20.4-6 14.7-8.3c.3.5.8.6 1.1.6zm-3.2 22.4 8.3-4.7-2.8 15.6-5.9-9.3c.2-.4.4-.7.4-1.2.1-.2.1-.3 0-.4zm20.3 2.1c-.1 0-.1 0-.2 0l-7.8-8.2c.1-.2.1-.5.1-.7s0-.4 0-.5l11.1-8.1zm-23.9.5c.2.1.6.2 1 .2h.5l6.1 9.5c-.1.1-.1.2-.1.4l-18.8-.5z"/></svg>