<svg enable-background="new 0 0 48 48" viewBox="0 0 48 48" xmlns="http://www.w3.org/2000/svg"><path d="m33.4 2.5v5.8h-7.8c-.9 0-1.7.5-2.1 1.1-.4-.7-1.2-1.1-2.1-1.1h-15.2c-.1 0-.1-.1-.1-.1v-5.6c0-.1.1-.1.1-.1zm-9.9 11c.4.7 1.2 1.1 2.1 1.1h7.8v5.8h-7.8c-.9 0-1.7.5-2.1 1.1-.4-.7-1.2-1.1-2.1-1.1h-15.2c-.1 0-.1-.1-.1-.1v-5.5c0-.1.1-.1.1-.1h15.1c.9-.1 1.7-.5 2.2-1.2m0 12.1c.4.7 1.2 1.1 2.1 1.1h7.8v5.8h-7.8c-.9 0-1.7.5-2.1 1.1-.4-.7-1.2-1.1-2.1-1.1h-15.2c-.1 0-.1-.1-.1-.1v-5.5c0-.1.1-.1.1-.1h15.1c.9-.1 1.7-.5 2.2-1.2m-.1 13.6c.2.4.6.7 1 .9.6.3 1.1.7 1.4 1.2.5.7 1.3 1.2 2.1 1.2h13.9v.3h-13.8c-.9 0-1.8.5-2.2 1.3s-1.4 1.3-2.4 1.3-1.9-.5-2.4-1.5c-.5-.7-1.3-1.2-2.1-1.2h-12.7v-.3h12.5c.9 0 1.7-.5 2.2-1.3.3-.5.8-.9 1.5-1.2.4 0 .8-.3 1-.7m18.4-39.2h-7.1-28.5c-1.4 0-2.6 1.2-2.6 2.6v5.5c0 1.4 1.2 2.6 2.6 2.6h15.1v1.3h-15.1c-1.4 0-2.6 1.2-2.6 2.6v5.5c0 1.4 1.2 2.6 2.6 2.6h15.1v1.3h-15.1c-1.4 0-2.6 1.2-2.6 2.6v5.5c0 1.4 1.2 2.6 2.6 2.6h15.1v2.8c-1.1.5-2 1.2-2.6 2.3h-13.8c-.6 0-1.2.5-1.2 1.2v2.9c0 .6.5 1.2 1.2 1.2h13.9c1 1.6 2.6 2.6 4.6 2.6s3.7-1.1 4.6-2.6h15.2c.6 0 1.2-.5 1.2-1.2v-2.9c0-.6-.5-1.2-1.2-1.2h-15.2c-.6-1-1.4-1.7-2.4-2.2v-2.6h9 7.1c1.4 0 2.6-1.2 2.6-2.6v-5.5c0-1.4-1.2-2.6-2.6-2.6h-7.1-9v-1.3h9 7.1c1.4 0 2.6-1.2 2.6-2.6v-5.5c0-1.4-1.2-2.6-2.6-2.6h-7.1-9v-1.3h9.1 7.1c1.4 0 2.6-1.2 2.6-2.6v-5.8c0-1.4-1.2-2.6-2.6-2.6zm-5.9 8.4v-6h5.9c.1 0 .2.1.2.2v5.5c0 .1-.1.2-.2.2h-5.9zm0 12.1v-6h5.9c.1 0 .2.1.2.2v5.5c0 .1-.1.2-.2.2h-5.9zm0 12.1v-6h5.9c.1 0 .2.1.2.2v5.5c0 .1-.1.2-.2.2h-5.9z"/><path d="m42.4 41.8h-37.1v1.5h37.1z"/><path d="m23.7 44.6c-1.2 0-2.2-1-2.2-2.2s1-2.2 2.2-2.2 2.2 1 2.2 2.2c-.1 1.2-1 2.2-2.2 2.2z"/><path d="m23.7 41.5c.5 0 .9.4.9.9s-.4.9-.9.9-.9-.4-.9-.9.3-.9.9-.9m0-2.5c-1.9 0-3.4 1.5-3.4 3.4s1.5 3.4 3.4 3.4 3.4-1.5 3.4-3.4-1.5-3.4-3.4-3.4z"/></svg>