<svg enable-background="new 0 0 48 48" viewBox="0 0 48 48" xmlns="http://www.w3.org/2000/svg"><path d="m33.7 11.8-3.8 8.8h6l2.8-6.7z"/><path d="m39.7 11.4-.2-4.1c0-.4-.2-.7-.6-.8s-.7-.1-1 .1l-3.1 2.6c-.1.1-.1.1-.2.2l5 2.2c.1.1.1-.1.1-.2z"/><path d="m28.2 6.4h-2.5v-1.3c0-.7-.6-1.4-1.4-1.4h-4.7c-.7 0-1.4.6-1.4 1.4v15.6h7.4v-11.6h1.1v8c0 .7.6 1.4 1.4 1.4.7 0 1.4-.6 1.4-1.4v-9.4c0-.7-.6-1.3-1.3-1.3z"/><path d="m13 .1h-1.2c-1.8 0-3.4 1.4-3.4 3.2v12.3c0 .6.5 1.1 1.1 1.1v4h5.6v-4c.6 0 1.1-.5 1.1-1.1v-12.3c0-1.8-1.4-3.2-3.2-3.2z"/><path d="m34.5 23.5h-24.9c-.8 0-1.4.7-1.4 1.6l1.7 20.3c.1 1.4 1.3 2.6 2.8 2.6h18.7c1.4 0 2.6-1.1 2.8-2.6l1.7-20.3c.1-.9-.5-1.6-1.4-1.6z"/></svg>