<svg enable-background="new 0 0 48 48" viewBox="0 0 48 48" xmlns="http://www.w3.org/2000/svg"><path d="m33.7 24.9-1.7 20.2c0 .2-.1.4-.4.4h-19.5c-.2 0-.4-.2-.4-.5l-1.7-20.2h23.7m1.3-2.4h-26c-.9 0-1.5.7-1.5 1.6l1.7 21.2c.1 1.5 1.4 2.7 2.9 2.7h19.5c1.5 0 2.7-1.1 2.9-2.7l1.7-21.2c.3-.8-.3-1.6-1.2-1.6z"/><path d="m34.9 14.3 2.5 1.1-2 4.7h-3zm-.8-2-4 9.2h6.2l3-7z"/><path d="m38.7 8.7.1 1.2-1-.4zm.3-2c-.2 0-.4.1-.5.2l-3.2 2.7c-.1.1-.1.1-.2.2l5.2 2.2c.1 0 .1-.1.1-.2l-.2-4.2c0-.4-.2-.7-.6-.9-.3 0-.4 0-.6 0z"/><path d="m24.3 5.3v1.4 1.3h-.1v1.5 10.5h-4.7v-14.7zm0-1.5h-4.9c-.7 0-1.5.6-1.5 1.5v16.2h7.7v-12h1.1v8.4c0 .7.6 1.5 1.5 1.5.7 0 1.5-.6 1.5-1.5v-9.9c0-.7-.6-1.4-1.4-1.4h-2.6v-1.3c.1-.8-.6-1.5-1.4-1.5z"/><path d="m12.5 1.5c.5 0 1 .2 1.3.5.4.4.5.8.5 1.3v12.5h-1.1v1.5 2.7h-2.9v-2.6-1.5h-1v-12.5c0-1 .9-1.9 2-1.9zm0-1.5h-1.2c-1.9 0-3.5 1.5-3.5 3.4v12.9c0 .6.5 1.1 1.1 1.1v4.1h5.9v-4.1c.6 0 1.1-.5 1.1-1.1v-12.9c0-1.9-1.5-3.4-3.4-3.4z"/></svg>