<svg enable-background="new 0 0 48 48" viewBox="0 0 48 48" xmlns="http://www.w3.org/2000/svg"><path d="m47.2 33.7h-31.1c-.5 0-.8-.4-.8-.8v-19.5c0-.5.4-.8.8-.8h31.1c.5 0 .8.4.8.8v19.4c0 .6-.4.9-.8.9zm-8.7 6.1h-3.1v-3.8h-7.6v3.8h-3.1c-.6 0-1.2.5-1.2 1.2 0 .6.5 1.2 1.2 1.2h4.3 5.2 4.3c.6 0 1.2-.5 1.2-1.2 0-.6-.5-1.2-1.2-1.2zm-19.7-29.6h-2.8c-.1 0-.4 0-.5 0s-.2 0-.4 0h-11.5c-.6 0-1.2.5-1.2 1.2 0 .6.5 1.2 1.2 1.2h9.5c-.1.2-.1.6-.1.8v2.2h-9.4c-.6 0-1.2.5-1.2 1.2 0 .6.5 1.2 1.2 1.2h9.4v3h-9.4c-.6 0-1.2.5-1.2 1.2 0 .6.5 1.2 1.2 1.2h9.4v9.5c0 1.8 1.4 3.2 3.2 3.2h2.8v4.9c0 .6-.5 1.2-1.2 1.2h-16.6c-.6 0-1.2-.4-1.2-1.2v-34c0-.6.5-1.2 1.2-1.2h16.4c.6 0 1.2.5 1.2 1.2zm-11.2 23.3c0 1 .8 1.8 1.8 1.8s1.8-.8 1.8-1.8-.8-1.8-1.8-1.8-1.8.8-1.8 1.8z"/></svg>