<svg enable-background="new 0 0 48 48" viewBox="0 0 48 48" xmlns="http://www.w3.org/2000/svg"><path d="m45.5 15.1v16.1h-27.8v-16.1zm-43 10.6c.3.1.7.2 1.1.2h6.9v7c0 3.2 2.6 5.7 5.7 5.7h.3v1.1h-14zm30.4 12.8v1.2h-2.6v-1.2zm-15.3-32.7h-16.4c-.7 0-1.2.6-1.2 1.2v34c0 .7.6 1.2 1.2 1.2h16.6c.7 0 1.2-.6 1.2-1.2v-4.9h-2.8c-1.8 0-3.2-1.4-3.2-3.2v-9.5h-9.4c-.7 0-1.2-.6-1.2-1.2 0-.7.6-1.2 1.2-1.2h9.4v-3h-9.4c-.7 0-1.2-.6-1.2-1.2 0-.7.6-1.2 1.2-1.2h9.4v-2.2c0-.2 0-.6.1-.8h-9.5c-.7 0-1.2-.6-1.2-1.2 0-.7.6-1.2 1.2-1.2h11.6.4.5 2.8v-3.2c-.1-.8-.7-1.2-1.3-1.2zm29.6 6.8h-31.1c-.5 0-.8.4-.8.8v19.4c0 .5.4.8.8.8h31.1c.5 0 .8-.4.8-.8v-19.4c0-.4-.4-.8-.8-.8zm-11.8 23.4h-7.6v3.8h-3.1c-.6 0-1.2.5-1.2 1.2 0 .6.5 1.2 1.2 1.2h4.3 5.2 4.3c.6 0 1.2-.5 1.2-1.2 0-.6-.5-1.2-1.2-1.2h-3.1z"/><path d="m7.7 33c-1 0-1.8.8-1.8 1.8s.8 1.8 1.8 1.8 1.8-.8 1.8-1.8-.9-1.8-1.8-1.8z"/></svg>