<svg enable-background="new 0 0 48 48" viewBox="0 0 48 48" xmlns="http://www.w3.org/2000/svg"><path d="m28.4 2.6c2.5 0 4.9.9 7 2.5l-3.5 4-1.5 1.8 1.7 1.7 3.5 3.5 1.7 1.7 1.8-1.5 4-3.5c1.7 2.2 2.6 4.6 2.5 7.3-.1 2.6-1.1 5.1-2.7 7.2l-21.9-22c2.1-1.7 4.8-2.7 7.4-2.7m-7.1 13.8 8.6 8.6-11.5-5.4zm-8.2 8.8 13.4 6.3-.7.6-13.3-6.2zm-6 6.4 12.8 6-.7.6-12.7-6zm1.4 9.9 4.8 2.3-1.3 1.2zm19.9-41.4c-3.7 0-7.4 1.6-10.2 4.4-.2.2-.3.5-.3.8s.1.6.4.8l23.7 23.6c.2.2.6.4.8.4s.6-.1.8-.4c2.6-2.6 4.2-6.2 4.3-9.8.1-3.7-1.3-7.2-3.9-9.9l-.1-.1c-.2-.2-.5-.3-.8-.3s-.6.1-.8.3l-4.9 4.3-3.5-3.5 4.3-4.9c.5-.5.5-1.2 0-1.7l-.2-.1c-2.6-2.5-6-3.9-9.6-3.9zm-7.1 13.2c-.4 0-.6.1-.8.4l-6.2 6.7 18.6 8.7 1.6-1.4c.2-.2.4-.5.4-.8 0-.4-.1-.7-.4-1l-12.4-12.2c-.2-.2-.6-.4-.8-.4zm-8.8 8.9-4.2 4.5 18 8.4 4.7-4.3zm-6 6.3-4.2 4.5 17.4 8.1 4.7-4.3zm-5.9 6.5-.2.2c-.5.5-.5 1.2 0 1.7l10.8 10.8c.2.2.6.4.8.4s.6-.1.8-.4l4.9-4.5z"/></svg>