<svg enable-background="new 0 0 48 48" viewBox="0 0 48 48" xmlns="http://www.w3.org/2000/svg"><path d="m47.9 19.9c-.1 3.6-1.7 7.2-4.3 9.8-.2.2-.6.4-.8.4s-.6-.1-.8-.4l-23.7-23.5c-.2-.2-.4-.5-.4-.8 0-.4.1-.6.4-.8 2.8-2.9 6.5-4.4 10.2-4.4 3.5-.1 6.9 1.3 9.5 3.8l.1.1c.5.5.5 1.2 0 1.7l-4.3 4.9 3.5 3.5 4.9-4.3c.5-.4 1.2-.4 1.7 0l.1.1c2.6 2.7 4.1 6.2 3.9 9.9zm-41.4 8.6-4.2 4.5 17.4 8.1 4.7-4.3zm6-6.3-4.2 4.5 18 8.4 4.7-4.3zm21.8 3.7-12.2-12.2c-.2-.2-.6-.4-.8-.4-.4 0-.6.1-.8.4l-6.2 6.7 18.6 8.7 1.6-1.4c.2-.2.4-.5.4-.8-.2-.4-.4-.8-.6-1zm-33.7 9.1-.2.2c-.5.5-.5 1.2 0 1.7l10.8 10.8c.2.2.6.4.8.4s.6-.1.8-.4l4.9-4.5z"/></svg>