<svg enable-background="new 0 0 48 48" viewBox="0 0 48 48" xmlns="http://www.w3.org/2000/svg"><path d="m36.9 20.2c-1.4.8-2.3 2.3-2.3 4v.4c-2.4.3-4.5 1.4-5.9 3.3h-22.3c-2.1 0-3.8-1.8-3.8-3.8s1.8-3.8 3.8-3.8h30.5m4.7-2.6h-35.2c-3.5 0-6.3 2.9-6.3 6.3s2.9 6.3 6.3 6.3h23.6c1.1-2 3.1-3.4 5.6-3.4.5 0 1.1.1 1.6.2l1-.5c0-.2.1-.5.2-.7-.9-.1-1.4-.9-1.4-1.8 0-1.2 1-2 2-2 .7 0 1.3.4 1.7.8 1.1-.7 2.3-1.1 3.6-1.1 1.4 0 2.6.5 3.7 1.2-.7-3.1-3.3-5.3-6.4-5.3z"/><path d="m26.8 34.9c.8 4.1 4.4 7.2 8.7 7.2h.2c.2.2.4.4.7.5h-30c-2.1 0-3.8-1.8-3.8-3.8s1.8-3.8 3.8-3.8h20.4m2.3-2.6h-22.7c-3.5 0-6.3 2.9-6.3 6.3s2.9 6.3 6.3 6.3h35.3c.8 0 1.6-.1 2.3-.5-2.4-.1-4.5-1.7-5.5-3.8-.7-.1-1.3-.6-1.7-1.3h-.1c-.4 0-.7.1-1.2.1-3.5 0-6.3-2.9-6.3-6.3-.1-.2-.1-.5-.1-.8z"/><path d="m41.7 5.4c2.1 0 3.8 1.8 3.8 3.8s-1.8 3.8-3.8 3.8h-35.3c-2.1 0-3.8-1.8-3.8-3.8 0-2.1 1.7-3.8 3.9-3.8zm0-2.5h-35.3c-3.5.2-6.4 2.9-6.4 6.4s2.9 6.3 6.3 6.3h35.3c3.5 0 6.3-2.9 6.3-6.3s-2.7-6.4-6.2-6.4z"/><path d="m40.8 7.2c-1.1 0-2 1-2 2 0 1.1.8 2 2 2 1.1 0 2-1 2-2 .1-1-.8-2-2-2z"/><path d="m13.3 7.6h-5.7c-.8 0-1.6.8-1.7 1.7 0 1 .7 1.7 1.7 1.7h5.7c1 0 1.7-.7 1.7-1.7s-.7-1.7-1.7-1.7z"/><path d="m13.6 22.3h-5.8c-1 0-1.7.7-1.7 1.7s.7 1.7 1.6 1.7h5.7c1 0 1.8-.7 1.8-1.7s-.7-1.7-1.6-1.7z"/><path d="m13.3 37h-5.7c-1 0-1.7.8-1.7 1.7s.7 1.7 1.6 1.7h5.7c1 0 1.8-.7 1.8-1.7s-.7-1.7-1.7-1.7z"/><path d="m43.6 39.6c-1 0-1.7-.7-1.7-1.7v-.9l.1-.1c.2-.3.7-.7 1.4-.7 1 0 1.9.8 2 1.8-.1.9-.8 1.6-1.8 1.6zm-8.9-5c-1 0-1.7-.7-1.7-1.7s.7-1.7 1.7-1.7c.4 0 .7.1.9.2l.4.3.1.4c.1.3.2.5.2.8s-.1.6-.1.7l-.5.8c-.3.2-.6.2-1 .2zm8.7-5.1c-.4 0-.8-.1-1.2-.4l-.6-1.1s0-.1 0-.2c0-1 .7-1.7 1.7-1.7s1.7.8 1.7 1.7c.1.9-.6 1.7-1.6 1.7z"/><path d="m43.4 27.2c.3 0 .5.2.5.5s-.2.5-.5.5c-.1 0-.1 0-.2-.1l-.3-.5c0-.2.2-.4.5-.4m-8.7 5.2h.2v.1c.1.3.1.3.1.4v.2l-.2.3h-.1c-.3 0-.5-.2-.5-.5s.2-.5.5-.5m8.7 5c.3 0 .7.3.7.6 0 .2-.2.4-.5.4s-.5-.2-.5-.5v-.4c.1 0 .2-.1.3-.1m0-12.7c-1.7 0-3 1.3-3 3 0 .2 0 .5.1.7l-4.1 1.9c-.5-.4-1.1-.5-1.7-.5-1.7 0-3 1.3-3 3s1.3 3 3 3c.6 0 1.1-.1 1.6-.4l4.3 2v.4c0 1.7 1.3 3 3 3s3-1.3 3-3c-.1-1.7-1.6-3-3.2-3-1 0-1.8.5-2.4 1.2l-3.7-1.8c.2-.4.4-.8.4-1.4 0-.5-.1-.8-.2-1.2l3.8-1.8c.6.5 1.3.8 2.2.8 1.7 0 3-1.3 3-3s-1.5-2.9-3.1-2.9z"/></svg>