<svg enable-background="new 0 0 48 48" viewBox="0 0 48 48" xmlns="http://www.w3.org/2000/svg"><path d="m5.4 16.6h30.4c3 0 5.4-2.4 5.4-5.4s-2.4-5.4-5.4-5.4h-30.4c-3-.2-5.4 2.4-5.4 5.4s2.4 5.4 5.4 5.4zm28-7.2c1 0 1.8.8 1.8 1.8s-.9 1.8-1.8 1.8c-1 0-1.8-.8-1.8-1.8 0-1.1.8-1.8 1.8-1.8zm-26.9.3h4.9c.7 0 1.4.6 1.4 1.4 0 .7-.6 1.4-1.4 1.4h-4.9c-.7.1-1.5-.5-1.5-1.3s.8-1.5 1.5-1.5z"/><path d="m5.4 29.2h20.2c.1-5.2 4.3-9.4 9.5-9.4 2.2 0 4.1.7 5.6 1.9-.8-1.9-2.8-3.4-5-3.4h-30.3c-3 0-5.4 2.4-5.4 5.4 0 3.1 2.4 5.5 5.4 5.5zm1.1-6.9h4.9c.7 0 1.4.6 1.4 1.4 0 .7-.6 1.4-1.4 1.4h-4.9c-.7 0-1.4-.6-1.4-1.4.1-.8.7-1.4 1.4-1.4z"/><path d="m39.1 37.9c-1.3.6-2.6.8-4 .8-4.7 0-8.6-3.4-9.4-7.9h-20.3c-3 0-5.4 2.4-5.4 5.4s2.4 5.4 5.4 5.4h30.4c2.2 0 4-1.2 4.8-3l-1.1-1.1zm-27.7-.1h-4.9c-.7 0-1.4-.6-1.4-1.4 0-.7.6-1.4 1.4-1.4h4.9c.7 0 1.4.6 1.4 1.4s-.6 1.4-1.4 1.4z"/><path d="m47.6 39.8-6.5-6.4c.8-1.2 1.3-2.6 1.3-4.2 0-4.1-3.4-7.4-7.4-7.4s-7.4 3.4-7.4 7.4 3.4 7.4 7.4 7.4c1.6 0 2.9-.5 4.1-1.2l6.5 6.4c.2.2.6.4 1 .4s.7-.1 1-.4c.5-.5.5-1.4 0-2zm-17.6-10.4c0-2.8 2.3-5 5-5s5 2.3 5 5c0 2.8-2.3 5-5 5s-5-2.2-5-5z"/></svg>