<svg enable-background="new 0 0 48 48" viewBox="0 0 48 48" xmlns="http://www.w3.org/2000/svg"><path d="m32.8 20.1c-1 1-1.6 2.3-1.6 3.9v2.9h-25.3c-1.9 0-3.4-1.5-3.4-3.4s1.5-3.4 3.4-3.4zm6.1-2.5h-33c-3.2 0-5.9 2.6-5.9 5.9s2.6 5.9 5.9 5.9h27.9v-5.4c0-1.7 1.3-3 3-3h6.5c.4 0 .7.1 1.1.2-1.1-2-3.1-3.6-5.5-3.6z"/><path d="m38.9 6.3c1.9 0 3.4 1.5 3.4 3.4s-1.5 3.4-3.4 3.4h-33c-1.9 0-3.4-1.5-3.4-3.4s1.5-3.4 3.4-3.4zm0-2.5h-33c-3.3 0-5.9 2.7-5.9 5.9s2.6 5.9 5.9 5.9h33c3.2 0 5.9-2.6 5.9-5.9s-2.7-5.9-5.9-5.9z"/><path d="m5.7 33.9h.1 21.4c-.1 1.3.3 2.7 1.1 3.8l2.3 2.9h-24.7c-1.8 0-3.4-1.6-3.4-3.5 0-.9.3-1.7.9-2.3.6-.5 1.4-.9 2.3-.9zm0-2.5c-3.2 0-5.7 2.6-5.7 5.8s2.6 6 5.9 6h30l-5.5-7c-.7-1-.8-2.2-.4-3.2.4-.8 1.1-1.3 1.9-1.6h-26c-.1 0-.2 0-.2 0z"/><path d="m41.4 25.7v7.8 2.5h2.3l-3.7 4.7-3.6-4.7h2.2v-2.5-7.8zm1.8-2.5h-6.4c-.4 0-.7.4-.7.7v9.6h-3.2c-.2 0-.6.1-.7.5-.1.2-.1.6.1.8l7.2 9.1c.1.1.4.2.6.2s.5-.1.6-.2l7.2-9.1c.1-.2.1-.6 0-.8s-.4-.5-.7-.5h-3.2v-9.6c-.1-.4-.4-.7-.8-.7z"/><path d="m37.9 7.8c-1.1 0-2 .8-1.9 1.9 0 1.1.8 1.9 1.9 1.9s1.9-.8 1.9-1.9-.8-1.9-1.9-1.9z"/><path d="m12 8.2h-5.4c-.9 0-1.6.7-1.6 1.5s.7 1.6 1.6 1.6h5.4c.8 0 1.6-.7 1.6-1.6-.1-.8-.8-1.5-1.6-1.5z"/><path d="m12 22h-5.4c-.9 0-1.6.7-1.6 1.5s.7 1.6 1.6 1.6h5.4c.8 0 1.6-.7 1.6-1.6s-.8-1.5-1.6-1.5z"/><path d="m12 35.8h-5.4c-.8 0-1.6.7-1.6 1.6 0 .8.7 1.6 1.6 1.6h5.4c.8 0 1.6-.6 1.6-1.6-.1-.9-.8-1.6-1.6-1.6z"/></svg>