<svg enable-background="new 0 0 48 48" viewBox="0 0 48 48" xmlns="http://www.w3.org/2000/svg"><path d="m5.9 29.4h27.9v-5.4c0-1.7 1.3-3 3-3h6.5c.4 0 .7.1 1.1.2-1-2-3-3.6-5.4-3.6h-33c-3.2 0-5.9 2.6-5.9 5.9s2.5 5.9 5.8 5.9zm1.2-7.4h5.4c.8 0 1.6.7 1.6 1.6 0 .8-.7 1.6-1.6 1.6h-5.4c-.8 0-1.6-.7-1.6-1.6s.7-1.6 1.6-1.6z"/><path d="m5.9 15.6h33c3.2 0 5.9-2.6 5.9-5.9s-2.6-5.9-5.9-5.9h-33c-3.3 0-5.9 2.7-5.9 5.9s2.6 5.9 5.9 5.9zm30.5-7.8c1.1 0 1.9.8 1.9 1.9s-.8 1.9-1.9 1.9-1.9-.8-1.9-1.9c-.2-1.1.8-1.9 1.9-1.9zm-29.3.4h5.4c.8 0 1.6.7 1.6 1.6 0 .8-.7 1.6-1.6 1.6h-5.4c-.8 0-1.6-.7-1.6-1.6s.7-1.6 1.6-1.6z"/><path d="m30 33c.4-.8 1.1-1.3 1.9-1.6h-26c-3.3-.1-5.9 2.6-5.9 5.8s2.6 6 5.9 6h30l-5.5-7c-.8-.9-.9-2.1-.4-3.2zm-17.5 5.8h-5.4c-.8 0-1.6-.7-1.6-1.6s.7-1.6 1.6-1.6h5.4c.8 0 1.6.7 1.6 1.6-.1 1-.8 1.6-1.6 1.6z"/><path d="m47.9 34c-.1-.2-.4-.5-.7-.5h-3.2v-9.6c0-.4-.4-.7-.7-.7h-6.4c-.4 0-.7.4-.7.7v9.6h-3.2c-.2 0-.6.1-.7.5-.1.2-.1.6.1.8l7.2 9.1c.1.1.4.2.6.2s.5-.1.6-.2l7.2-9.1c0-.2 0-.6-.1-.8z"/></svg>