<svg enable-background="new 0 0 48 48" viewBox="0 0 48 48" xmlns="http://www.w3.org/2000/svg"><path d="m41.6 17.7h-35.2c-3.5 0-6.3 2.9-6.3 6.3s2.9 6.3 6.3 6.3h23.6c1.1-2 3.1-3.4 5.6-3.4.5 0 1.1.1 1.6.2l1-.5c0-.2.1-.5.2-.7-.9-.1-1.4-.9-1.4-1.8 0-1.2 1-2 2-2 .7 0 1.3.4 1.7.8 1.1-.7 2.3-1.1 3.6-1.1 1.4 0 2.6.5 3.7 1.2-.7-3.1-3.3-5.3-6.4-5.3zm-28.3 8h-5.7c-.8 0-1.6-.7-1.6-1.7s.7-1.7 1.7-1.7h5.7c1 0 1.7.7 1.7 1.7s-.8 1.7-1.8 1.7z"/><path d="m38.5 40.8c-.7-.1-1.3-.6-1.7-1.3h-.1c-.4 0-.7.1-1.2.1-3.5 0-6.3-2.9-6.3-6.3 0-.2 0-.5 0-.8h-22.8c-3.5 0-6.3 2.9-6.3 6.3s2.9 6.3 6.3 6.3h35.3c.8 0 1.6-.1 2.3-.5-2.4-.1-4.6-1.7-5.5-3.8zm-25.2-.4h-5.7c-.8 0-1.6-.8-1.6-1.7s.8-1.7 1.7-1.7h5.7c1 0 1.7.7 1.7 1.7s-.8 1.7-1.8 1.7z"/><path d="m6.4 15.6h35.3c3.5 0 6.3-2.9 6.3-6.3s-2.9-6.3-6.3-6.3h-35.3c-3.5.1-6.3 2.8-6.3 6.3s2.8 6.3 6.3 6.3zm32.4-8.4c1.2 0 2 1 2 2s-1 2-2 2c-1.2 0-2-1-2-2s1-2 2-2zm-31.2.4h5.7c1 0 1.7.7 1.7 1.7s-.7 1.7-1.7 1.7h-5.7c-1 0-1.7-.7-1.7-1.7.1-.9.9-1.7 1.7-1.7z"/><path d="m44.2 35.3c-1 0-1.8.5-2.4 1.2l-3.7-1.8c.2-.4.4-.8.4-1.4 0-.5-.1-.8-.2-1.2l3.8-1.8c.6.5 1.3.8 2.2.8 1.7 0 3-1.3 3-3s-1.3-3-3-3-3 1.3-3 3c0 .2 0 .5.1.7l-4.1 1.9c-.5-.4-1.1-.5-1.7-.5-1.7 0-3 1.3-3 3s1.3 3 3 3c.6 0 1.1-.1 1.6-.4l4.3 2v.4c0 1.7 1.3 3 3 3s3-1.3 3-3c-.2-1.6-1.6-2.9-3.3-2.9z"/></svg>