<svg enable-background="new 0 0 48 48" viewBox="0 0 48 48" xmlns="http://www.w3.org/2000/svg"><path d="m5.5 7.7h.1 31.7c1.7 0 3.1 1.4 3.1 3.1s-1.4 3.1-3.1 3.1h-31.6c-1.7 0-3.1-1.5-3.1-3.2 0-1.6 1.3-3 2.9-3m0-2.5c-3 0-5.4 2.5-5.4 5.5 0 3.1 2.5 5.7 5.6 5.7h31.7c3.1 0 5.6-2.5 5.6-5.6s-2.5-5.6-5.6-5.6h-31.7c-.1 0-.1 0-.2 0z"/><path d="m26 20.5c-.4.4-.8.8-1.1 1.4v.1l-1.6 2.7s0 .1-.1.1c-.4.8-.6 1.5-.7 2.3h-16.8c-1.7 0-3.1-1.4-3.1-3.1s1.4-3.2 3.3-3.5zm8.6-2.5h-28.9c-3.1.4-5.6 2.9-5.6 6s2.5 5.6 5.6 5.6h19.8c-.1-.2-.2-.5-.4-.8-.2-1-.1-1.9.4-2.9l1.6-2.7c.7-1.2 1.9-1.9 3.2-1.9.4 0 .7 0 1.1.1.4-.2.6-.4 1-.6.2-1.2 1-2.3 2.2-2.8z"/><path d="m22.6 34c0 1.1.3 2.2.8 3.2 0 0 0 .1.1.1l1.6 2.5c.1.1.2.3.3.4h-19.7c-1.7 0-3.1-1.4-3.1-3.1s1.4-3.1 3.1-3.1zm3.4-2.5h-20.3c-3.1 0-5.6 2.5-5.6 5.6s2.5 5.6 5.6 5.6h27.8c-.6-.5-1-1.2-1.1-1.9-.4-.1-.7-.2-1-.5-.4.1-.7.1-1.1.1-1.3 0-2.6-.7-3.2-1.9l-1.6-2.5c-.5-.8-.6-1.9-.4-2.9.2-.6.6-1.1.9-1.6z"/><path d="m35.8 8.9c-1.1 0-1.9.8-1.9 1.9s.8 1.9 1.9 1.9 1.9-.8 1.9-1.9c0-1-.8-1.9-1.9-1.9z"/><path d="m12 9.3h-5.1c-.8 0-1.4.7-1.4 1.4s.6 1.4 1.4 1.4h5.1c.7 0 1.4-.6 1.4-1.4.1-.7-.5-1.4-1.4-1.4z"/><path d="m12 22.4h-5.1c-.8 0-1.4.7-1.4 1.4s.6 1.4 1.4 1.4h5.1c.7 0 1.4-.6 1.4-1.4.1-.7-.5-1.4-1.4-1.4z"/><path d="m12 35.7h-5.1c-.7 0-1.4.7-1.4 1.4s.6 1.4 1.4 1.4h5.1c.8 0 1.4-.7 1.4-1.4s-.5-1.4-1.4-1.4z"/><path d="m36.2 40.3c-.1 0-.3-.2-.3-.3v-1.6l-.9-.3c-.8-.3-1.7-.8-2.4-1.4l-.7-.6-1.4.8s-.1 0-.2.1c-.1 0-.1 0-.1 0l-1.6-2.8c0-.1 0-.1 0-.2 0-.2.1-.2.2-.3l1.3-.8-.1-1c-.1-.3-.1-.7-.1-1.1s0-.8.1-1.1l.2-.9-1.4-.8s-.1-.2-.2-.3c0-.1 0-.1 0-.1l.1-.1 1.4-2.9h.2s.1.1.2.1l1.3.8.7-.6c.8-.7 1.6-1.2 2.5-1.4l.9-.3v-1.6c0-.1.2-.3.3-.3h3.1c.1 0 .3.2.3.3v1.6l.9.3c.8.3 1.7.8 2.5 1.4l.7.6s1.4-.8 1.4-.8.1 0 .2-.1h.1l1.6 2.8v.2c0 .2-.1.2-.2.3l-1.3.8.2.9c.1.3.1.7.1 1.1s0 .8-.1 1.1l-.2.9 1.3.8c.1.2.3.3.4.5v.1l-1.6 2.8s-.1.1-.2.1c0 0-.1-.1-.2-.1l-1.3-.8-.7.6c-.8.7-1.6 1.2-2.5 1.4l-.9.3v1.6c0 .1-.2.3-.3.3zm1.4-15.3c-3.2 0-5.7 2.5-5.7 5.7 0 3.1 2.5 5.7 5.7 5.7 3.1 0 5.7-2.6 5.7-5.7s-2.6-5.7-5.7-5.7z"/><path d="m38.2 22.4v1.4c-.2 0-.4 0-.6 0s-.4 0-.6 0v-1.4zm6.4 3.8.6 1-1.2.7c-.2-.4-.3-.7-.5-1zm-13.9 0 1.1.7c-.2.3-.4.7-.6 1.1l-1.1-.6zm13.2 7.3 1.4.8-.6 1-1.3-.8-.3.3c.3-.4.6-.8.8-1.3m-12.6.1c.2.3.4.7.6 1l-1.2.7-.6-1zm7 4v1.5h-1.2v-1.5h.5zm.9-17.7h-3.1c-.8 0-1.6.7-1.6 1.6v.7c-1.1.4-2 1-2.9 1.7l-.6-.4c-.2-.1-.5-.2-.7-.2-.6 0-1.1.2-1.3.7l-1.4 2.9c-.2.4-.2.7-.1 1.2.1.4.4.7.7 1l.6.4c-.1.5-.1 1-.1 1.4s0 1 .1 1.4l-.6.4c-.4.2-.6.5-.7 1-.1.4-.1.8.1 1.2l1.6 2.7c.2.5.7.7 1.3.7.2 0 .5-.1.7-.2l.6-.4c.8.7 1.8 1.3 2.9 1.7v.6c0 .8.7 1.6 1.6 1.6h3.1c.8 0 1.6-.7 1.6-1.6v-.7c1.1-.4 2-1 2.9-1.7l.6.4c.2.1.5.2.7.2.6 0 1.1-.2 1.3-.7l1.6-2.7c.2-.4.2-.7.1-1.2-.2-.5-.6-.8-.8-1.1l-.6-.4c.1-.5.1-1 .1-1.4s0-1-.1-1.4l.6-.4c.4-.2.6-.5.7-1 .1-.4.1-.8-.1-1.2l-1.8-2.7c-.2-.5-.7-.7-1.3-.7-.2 0-.5.1-.7.2l-.6.4c-.8-.7-1.8-1.3-2.9-1.7v-.7c0-.8-.7-1.6-1.5-1.6zm-1.6 15.2c-2.4 0-4.4-1.9-4.4-4.4s1.9-4.4 4.4-4.4c2.4 0 4.4 1.9 4.4 4.4 0 2.4-2 4.4-4.4 4.4z"/></svg>