<svg enable-background="new 0 0 48 48" viewBox="0 0 48 48" xmlns="http://www.w3.org/2000/svg"><path d="m5.2 8.3h.1 30.4c1.6 0 2.9 1.3 2.9 2.9s-1.3 2.9-2.9 2.9h-30.3c-1.6 0-2.9-1.3-2.9-2.9s1.2-2.9 2.7-2.9m0-2.5c-2.9 0-5.2 2.4-5.2 5.4s2.4 5.4 5.4 5.4h30.4c3 0 5.4-2.4 5.4-5.4s-2.4-5.4-5.4-5.4h-30.4c-.1 0-.1 0-.2 0z"/><path d="m26.6 20.9c-1.6 1.6-2.7 3.6-3.2 5.8h-18c-1.6 0-2.9-1.3-2.9-2.9s1.3-2.9 2.9-2.9zm9-2.5h-30.2c-3 0-5.4 2.4-5.4 5.4s2.4 5.4 5.4 5.4h20.2c.1-5.2 4.3-9.4 9.5-9.4 2.2 0 4.1.7 5.6 1.9-.9-1.9-2.8-3.3-5.1-3.3z"/><path d="m23.9 33.3c.8 2.4 2.4 4.4 4.4 5.8h-22.9c-1.6 0-2.9-1.3-2.9-2.9s1.3-2.9 2.9-2.9zm1.9-2.5h-20.4c-3 0-5.4 2.4-5.4 5.4s2.4 5.4 5.4 5.4h30.4c2.2 0 4-1.2 4.8-3l-1.1-1.1-.4.4c-1.3.6-2.6.8-4 .8-4.6.1-8.6-3.3-9.3-7.9z"/><path d="m35 21.8c-4.1 0-7.4 3.4-7.4 7.4s3.4 7.4 7.4 7.4c1.6 0 2.9-.5 4.1-1.2l6.5 6.4c.2.2.6.4 1 .4s.7-.1 1-.4c.6-.6.6-1.4.1-2l-6.5-6.4c.8-1.2 1.3-2.6 1.3-4.2 0-4-3.4-7.4-7.5-7.4zm0 12.6c-2.8 0-5-2.3-5-5s2.3-5 5-5c2.8 0 5 2.3 5 5s-2.2 5-5 5z"/><path d="m33.2 9.4c-1 0-1.8.7-1.8 1.8 0 1 .8 1.8 1.8 1.8s1.8-.8 1.8-1.8-.8-1.8-1.8-1.8z"/><path d="m11.3 9.7h-4.9c-.7 0-1.4.6-1.4 1.4s.7 1.4 1.4 1.4h4.9c.8 0 1.4-.7 1.4-1.4 0-.8-.7-1.4-1.4-1.4z"/><path d="m11.3 22.3h-4.9c-.7 0-1.3.6-1.4 1.4 0 .8.7 1.4 1.4 1.4h4.9c.8 0 1.4-.7 1.4-1.4 0-.8-.7-1.4-1.4-1.4z"/><path d="m11.3 34.8h-4.9c-.8 0-1.4.7-1.4 1.4 0 .8.7 1.4 1.4 1.4h4.9c.8 0 1.4-.6 1.4-1.4s-.7-1.4-1.4-1.4z"/></svg>