<svg enable-background="new 0 0 48 48" viewBox="0 0 48 48" xmlns="http://www.w3.org/2000/svg"><path d="m25.3 34.3c.4 2.5 1.4 4.8 3 6.8h-22.4c-1.9 0-3.4-1.5-3.4-3.4s1.5-3.4 3.4-3.4zm2.3-2.5h-21.7c-3.2 0-5.9 2.6-5.9 5.9 0 3.2 2.6 5.9 5.9 5.9h30.1c-4.8-1.6-8.4-6.1-8.4-11.4 0-.2 0-.3 0-.4z"/><path d="m5.7 20.7h.1 25.2c-2.2 1.7-4 4-4.9 6.6h-20.2c-1.9 0-3.4-1.5-3.4-3.4 0-1.7 1.4-3.2 3.2-3.2m0-2.5c-3.2 0-5.7 2.6-5.7 5.8s2.6 5.9 5.9 5.9h22.1c1.1-5.4 5.9-9.5 11.6-9.5 1.4 0 2.9.2 4.1.7-1-1.7-2.9-2.9-5-2.9h-32.8c-.1 0-.2 0-.2 0z"/><path d="m38.6 6.9c1.9 0 3.4 1.5 3.4 3.4s-1.5 3.4-3.4 3.4h-32.7c-1.8 0-3.4-1.6-3.4-3.4s1.6-3.3 3.4-3.4zm0-2.5h-32.7c-3.3.2-5.9 2.8-5.9 5.9s2.6 5.9 5.9 5.9h32.8c3.2 0 5.9-2.6 5.9-5.9s-2.7-5.9-6-5.9z"/><path d="m39.5 26.1c3.3 0 6 2.7 6 6s-2.7 6-6 6-6-2.7-6-6 2.7-6 6-6m0-2.5c-4.7 0-8.5 3.8-8.5 8.5s3.8 8.5 8.5 8.5 8.5-3.8 8.5-8.5-3.8-8.5-8.5-8.5z"/><path d="m38 8.4c-1.1 0-1.9.8-1.9 1.9s.8 1.9 1.9 1.9 1.9-.8 1.9-1.9-.8-1.9-1.9-1.9z"/><path d="m12.4 8.9h-5.3c-.8 0-1.6.7-1.6 1.6s.7 1.5 1.6 1.5h5.3c.8 0 1.6-.7 1.6-1.6s-.8-1.5-1.6-1.5z"/><path d="m12.4 22.5h-5.3c-.8 0-1.6.7-1.6 1.6s.7 1.6 1.6 1.6h5.3c.8 0 1.6-.7 1.6-1.6s-.8-1.6-1.6-1.6z"/><path d="m12.4 36.1h-5.3c-.8 0-1.6.7-1.6 1.6s.7 1.6 1.6 1.6h5.3c.8 0 1.4-.6 1.6-1.6-.1-.9-.8-1.6-1.6-1.6z"/><path d="m43.1 28.3c-.2 0-.4 0-.5.1l-4.4 4.4-1.8-1.8c-.1 0-.4-.1-.5-.1-.2 0-.4 0-.5.1l-.5.5c0 .1-.1.4-.1.5 0 .2 0 .4.1.5l2.8 2.8c.1 0 .2.1.5.1.2 0 .4 0 .5-.1l5.4-5.4c.1-.1.1-.2.1-.5 0-.2 0-.4-.1-.5l-.5-.5c-.2 0-.3-.1-.5-.1z"/></svg>