<svg enable-background="new 0 0 48 48" viewBox="0 0 48 48" xmlns="http://www.w3.org/2000/svg"><path d="m5.7 16.5h31.7c3.1 0 5.6-2.5 5.6-5.6s-2.5-5.6-5.6-5.6h-31.7c-3.1-.1-5.6 2.4-5.6 5.5s2.5 5.7 5.6 5.7zm29.3-7.6c1.1 0 1.9.8 1.9 1.9s-.8 1.9-1.9 1.9-1.9-.8-1.9-1.9.8-1.9 1.9-1.9zm-28.1.4h5.1c.8 0 1.4.7 1.4 1.4 0 .8-.7 1.4-1.4 1.4h-5.1c-.8 0-1.4-.7-1.4-1.4s.6-1.4 1.4-1.4z"/><path d="m5.7 29.6h19.8c-.1-.2-.2-.5-.4-.8-.2-1-.1-1.9.4-2.9l1.6-2.7c.7-1.2 1.9-1.9 3.2-1.9.4 0 .7 0 1.1.1.4-.2.6-.4 1-.6.2-1.2 1.1-2.3 2.3-2.7h-29c-3.1.4-5.6 2.9-5.6 6s2.5 5.5 5.6 5.5zm1.2-7h5.1c.8 0 1.4.7 1.4 1.4 0 .8-.7 1.4-1.4 1.4h-5.1c-.8 0-1.4-.7-1.4-1.4s.6-1.4 1.4-1.4z"/><path d="m31.5 40.4c-.4.1-.7.1-1.1.1-1.3 0-2.6-.7-3.2-1.9l-1.7-2.6c-.5-.8-.6-1.9-.4-2.9.1-.6.5-1.1.8-1.6h-20.2c-3.1 0-5.6 2.5-5.6 5.6s2.5 5.6 5.6 5.6h27.8c-.6-.5-1-1.2-1.1-1.9-.3-.1-.6-.2-.9-.4zm-19.5-1.7h-5.1c-.8 0-1.4-.7-1.4-1.4s.7-1.4 1.4-1.4h5.1c.8 0 1.4.7 1.4 1.4s-.5 1.4-1.4 1.4z"/><path d="m47.2 32.5-.6-.4c.1-.5.1-1 .1-1.4s0-1-.1-1.4l.6-.4c.4-.2.6-.5.7-1 .1-.4.1-.8-.1-1.2l-1.6-2.7c-.2-.5-.7-.7-1.3-.7-.2 0-.5.1-.7.2l-.6.4c-.8-.7-1.8-1.3-2.9-1.7v-.7c0-.8-.7-1.6-1.6-1.6h-3.1c-.8 0-1.6.7-1.6 1.6v.7c-1.1.4-2 1-2.9 1.7l-.5-.4c-.2-.1-.5-.2-.7-.2-.6 0-1.1.2-1.3.7l-1.4 2.9c-.2.4-.2.7-.1 1.2.1.4.4.7.7 1l.6.4c-.1.5-.1 1-.1 1.4s0 1 .1 1.4l-.6.4c-.4.2-.6.5-.7 1-.1.4-.1.8.1 1.2l1.6 2.7c.2.5.7.7 1.3.7.2 0 .5-.1.7-.2l.6-.4c.8.7 1.8 1.3 2.9 1.7v.6c0 .8.7 1.6 1.6 1.6h3.1c.8 0 1.6-.7 1.6-1.6v-.7c1.1-.4 2-1 2.9-1.7l.6.4c.2.1.5.2.7.2.6 0 1.1-.2 1.3-.7l1.6-2.7c.2-.4.2-.7.1-1.2-.4-.5-.8-.9-1-1.1zm-9.6 2.6c-2.4 0-4.4-1.9-4.4-4.4s1.9-4.4 4.4-4.4c2.4 0 4.4 1.9 4.4 4.4 0 2.4-2 4.4-4.4 4.4z"/></svg>