<svg enable-background="new 0 0 48 48" viewBox="0 0 48 48" xmlns="http://www.w3.org/2000/svg"><path d="m27.6 32.2c0-.1 0-.2 0-.4h-21.7c-3.2 0-5.9 2.6-5.9 5.9s2.6 5.9 5.9 5.9h30.1c-4.8-1.6-8.4-6.2-8.4-11.4zm-15.2 6.9h-5.3c-.8 0-1.6-.7-1.6-1.6s.7-1.5 1.6-1.5h5.3c.8 0 1.6.7 1.6 1.6-.2.9-.8 1.5-1.6 1.5z"/><path d="m5.9 29.9h22.1c1.1-5.4 5.9-9.5 11.6-9.5 1.4 0 2.9.2 4.1.7-1-1.7-2.9-2.9-5-2.9h-32.8c-3.3-.1-5.9 2.6-5.9 5.8s2.6 5.9 5.9 5.9zm1.2-7.5h5.3c.8 0 1.6.7 1.6 1.6 0 .8-.7 1.6-1.6 1.6h-5.3c-.8 0-1.6-.7-1.6-1.6 0-.8.7-1.6 1.6-1.6z"/><path d="m5.9 16.2h32.8c3.2 0 5.9-2.6 5.9-5.9s-2.6-5.9-5.9-5.9h-32.8c-3.3.2-5.9 2.8-5.9 5.9s2.6 5.9 5.9 5.9zm30.1-7.8c1.1 0 1.9.8 1.9 1.9s-.8 1.9-1.9 1.9-1.9-.8-1.9-1.9.8-1.9 1.9-1.9zm-28.9.5h5.3c.8 0 1.6.7 1.6 1.6s-.8 1.5-1.6 1.5h-5.3c-.8 0-1.6-.7-1.6-1.6s.7-1.5 1.6-1.5z"/><path d="m39.5 23.6c-4.7 0-8.5 3.8-8.5 8.5s3.8 8.5 8.5 8.5 8.5-3.8 8.5-8.5-3.8-8.5-8.5-8.5zm4.5 6.8-5.4 5.4c-.1.1-.2.1-.5.1s-.4-.1-.5-.1l-2.7-2.8c-.1-.1-.1-.2-.1-.5 0-.1.1-.4.1-.5l.5-.5c.1-.1.2-.1.5-.1.1 0 .4.1.5.1l1.8 1.8 4.4-4.4c.1-.1.2-.1.5-.1s.4.1.5.1l.5.5c.1.1.1.2.1.5 0 .2 0 .3-.2.5z"/></svg>