<svg enable-background="new 0 0 48 48" viewBox="0 0 48 48" xmlns="http://www.w3.org/2000/svg"><path d="m43 6.2c-.7-.7-1.6-1-2.5-1s-1.8.4-2.5 1l-15.9 15.8 5 5 15.9-15.8c1.3-1.4 1.3-3.6 0-5zm-1.5 2.8-13.6 13.7c-.2.2-.4.3-.7.3s-.5-.1-.7-.3c-.4-.4-.4-1 0-1.4l13.6-13.7c.4-.4 1-.4 1.4 0s.4 1 0 1.4zm1 26.7-10.6-10.6-3.4 3.4.5.5c.4.4.4 1 0 1.4-.2.2-.4.3-.7.3s-.5-.1-.7-.3l-1.2-1.2-2.5-2.5-1.4-1.4-2.5-2.6-1.2-1.2c-.4-.4-.4-1 0-1.4s1-.4 1.4 0l.5.5 3.4-3.4-3-3c.5-2.8-.3-5.7-2.4-7.7-1.7-1.6-3.8-2.5-6.1-2.5-.8 0-1.6.1-2.4.3-.4.1-.6.4-.7.8-.1.3 0 .7.2.9l3.3 3.3c.7.7.7 1.8 0 2.5l-1.2 1.2c-.3.3-.8.5-1.3.5s-.9-.1-1.2-.5l-3.3-3.3c-.2-.2-.6-.3-.9-.2s-.6.3-.7.7c-1 3.3.1 6.8 2.7 9 1.5 1.3 3.5 2 5.5 2 .5 0 1.1-.1 1.6-.2l6.2 6.2-10.1 10.3-.5-.5c-.2-.2-.5-.3-.8-.3s-.6.2-.7.4l-2.9 4.3c-.3.4-.2.9.1 1.3l1.1 1.1c.1.1.4.2.6.2s.4-.1.6-.2l4.3-2.9c.2-.2.4-.4.4-.7s-.1-.6-.3-.8l-.5-.5 10.2-10.2 13.8 13.8c.9.9 2.1 1.4 3.4 1.4s2.5-.5 3.4-1.4c1.8-1.9 1.8-5 0-6.8zm-2 4.8c-.5.5-1.1.7-1.8.7s-1.3-.3-1.8-.7c-1-1-1-2.6 0-3.6.5-.5 1.1-.7 1.8-.7s1.3.3 1.8.7c1 1 1 2.6 0 3.6z"/></svg>