<svg enable-background="new 0 0 48 48" viewBox="0 0 48 48" xmlns="http://www.w3.org/2000/svg"><path d="m10.5 2.5c2 0 3.9.8 5.4 2.3 1.8 1.7 2.6 4.3 2.1 7-.1.8.1 1.6.7 2.2l1.8 1.8-.8.8c-.4-.1-.8-.2-1.2-.2-1 0-1.9.4-2.6 1.1-.6.6-.9 1.3-1 2l-.9-.9c-.5-.5-1.1-.7-1.8-.7-.2 0-.3 0-.5 0-.6.1-1.1.2-1.4.2-1.8 0-3.7-.7-5-1.8-1.8-1.5-2.7-3.6-2.8-5.8l1.9 1.9c.8.9 1.9 1.4 3.3 1.4 1.2 0 2.5-.5 3.3-1.3l1.4-1.4c.9-.9 1.4-2 1.4-3.3 0-1.2-.5-2.4-1.4-3.3zm23 26.4 7.3 7.3c-1.2.2-2.2.7-3.1 1.5-.8.8-1.4 1.9-1.6 3.1l-6.3-6.3c.7-.1 1.4-.5 1.9-1 1-1 1.3-2.5.9-3.8zm-27.1 13.5c.2.1.3.1.5.2 0 .2.1.3.2.5l-2.1 1.4zm3.9-42.4c-1 0-1.9.1-2.9.4-.4.1-.7.4-.8.9-.1.4 0 .8.2 1.1l4 4c.8.8.8 2.2 0 3l-1.4 1.4c-.4.4-1 .6-1.6.6s-1.1-.1-1.4-.6l-4-4c-.2-.1-.5-.2-.8-.2-.1 0-.2 0-.3 0-.3.1-.7.4-.8.8-1.2 4 .1 8.2 3.2 10.8 1.8 1.6 4.2 2.4 6.6 2.4.6 0 1.3-.1 1.9-.2l7.4 7.4-12 12.4-.6-.6c-.2-.2-.6-.4-1-.4s-.7.2-.8.5l-3.5 5.2c-.4.5-.2 1.1.1 1.6l1.3 1.3c.1.1.5.2.7.2s.5-.1.7-.2l5.2-3.5c.2-.2.5-.5.5-.8 0-.4-.1-.7-.4-1l-.6-.6 12.2-12.2 16.6 16.5c1.1 1.1 2.5 1.7 4.1 1.7s3-.6 4.1-1.7c2.2-2.3 2.2-6 0-8.2l-12.7-12.7-4.1 4.1.6.6c.5.5.5 1.2 0 1.7-.2.2-.5.4-.8.4s-.6-.1-.8-.4l-1.4-1.4-3-3-1.7-1.7-3-3.1-1.5-1.5c-.5-.5-.5-1.2 0-1.7.2-.2.5-.4.8-.4s.6.1.8.4l.6.6 4.1-4.1-3.6-3.6c.6-3.4-.4-6.8-2.9-9.2-2-1.9-4.5-3-7.3-3zm31.3 44.6c-.8 0-1.6-.4-2.2-.8-1.2-1.2-1.2-3.1 0-4.3.6-.6 1.3-.8 2.2-.8s1.6.4 2.2.8c1.2 1.2 1.2 3.1 0 4.3-.6.6-1.3.8-2.2.8zm2.2-43.2c-1.1 0-2.2.5-3 1.2l-19.1 19 6 6 19.1-19c1.6-1.7 1.6-4.3 0-6-.8-.8-1.9-1.2-3-1.2zm-16 21.4c-.4 0-.6-.1-.8-.4-.5-.5-.5-1.2 0-1.7l16.3-16.4c.3-.2.6-.3.9-.3s.6.1.8.4c.5.5.5 1.2 0 1.7l-16.3 16.3c-.3.3-.5.4-.9.4z"/></svg>