<svg enable-background="new 0 0 48 48" viewBox="0 0 48 48" xmlns="http://www.w3.org/2000/svg"><path d="m24.9 28.5-1.1-2.4c1-.8 1.9-1.7 2.6-2.8l2.5.9c.5.2 1-.1 1.2-.5l.9-2.4c.1-.2.1-.5 0-.7s-.3-.4-.5-.5l-2.5-.9c.2-1.3.2-2.6-.1-3.8l2.4-1.1c.2-.1.4-.3.5-.5s.1-.5 0-.7l-1.1-2.3c-.2-.5-.8-.7-1.2-.5l-2.5 1.1c-.8-1-1.7-1.9-2.8-2.6l.9-2.5c.2-.5-.1-1-.5-1.2l-2.4-.9c-.2-.1-.5-.1-.7 0s-.4.3-.5.5l-.9 2.5c-1.3-.2-2.6-.2-3.8.1l-1.1-2.4c-.1-.2-.3-.4-.5-.5s-.5-.1-.7 0l-2.3 1.1c-.5.2-.7.8-.5 1.2l1.1 2.4c-1 .8-1.9 1.7-2.6 2.8l-2.5-.9c-.2-.1-.5-.1-.7 0s-.4.3-.5.5l-.9 2.4c-.2.5.1 1 .5 1.2l2.5.9c-.2 1.3-.2 2.6.1 3.8l-2.4 1.1c-.2.1-.4.3-.5.5s-.1.5 0 .7l1.1 2.3c.1.2.3.4.5.5s.5.1.7 0l2.4-1c.8 1 1.7 1.9 2.8 2.6l-.9 2.5c-.2.5.1 1 .5 1.2l2.4.9c.1 0 .2.1.3.1s.3 0 .4-.1c.2-.1.4-.3.5-.5l.9-2.5c1.3.2 2.6.2 3.8-.1l1.1 2.4c.1.2.3.4.5.5s.5.1.7 0l2.3-1.1c.6-.2.8-.8.6-1.3zm-1.6-8.7c-.9 2.4-3.3 4-5.8 4-.8 0-1.5-.1-2.2-.4-1.6-.6-2.8-1.7-3.5-3.3-.7-1.5-.7-3.2-.1-4.8.9-2.4 3.3-4 5.8-4 .8 0 1.5.1 2.2.4 1.6.6 2.8 1.7 3.5 3.3s.7 3.3.1 4.8zm20.5 12.6c-.2-.2-.4-.3-.6-.3l-1.8-.1c-.2-.8-.4-1.6-.9-2.3l1.3-1.2c.4-.3.4-.9.1-1.3l-1.3-1.4c-.2-.2-.4-.3-.6-.3s-.5.1-.7.2l-1.3 1.2c-.7-.5-1.5-.8-2.3-1l.1-1.7c0-.5-.4-.9-.9-1l-1.9-.1c-.5 0-.9.4-1 .9l-.1 1.7c-.8.2-1.6.4-2.3.9l-1.2-1.3c-.2-.2-.4-.3-.6-.3s-.5.1-.7.2l-1.4 1.3c-.4.3-.4.9-.1 1.3l1.2 1.3c-.5.7-.8 1.5-1 2.3l-1.7-.1c-.5 0-.9.4-1 .9l.1 1.8c0 .2.1.5.2.7.2.2.4.3.6.3l1.7.1c.2.8.4 1.6.9 2.3l-1.3 1.2c-.2.2-.3.4-.3.6s.1.5.2.7l1.3 1.4c.2.2.4.3.6.3s.5-.1.7-.2l1.3-1.2c.7.5 1.5.8 2.3 1l-.1 1.7c0 .5.4.9.9 1l1.9.1c.2 0 .5-.1.6-.2.2-.2.3-.4.3-.6l.1-1.7c.8-.2 1.6-.4 2.3-.9l1.2 1.3c.2.2.4.3.6.3s.5-.1.7-.2l1.4-1.3c.4-.3.4-.9.1-1.3l-1.2-1.3c.5-.7.8-1.5 1-2.3l1.7.1c.5 0 .9-.4 1-.9l.1-2c0-.2-.1-.5-.2-.6zm-10.4 5.4c-2.4-.1-4.2-2.1-4.1-4.5.1-2.3 2-4.1 4.3-4.1h.2c2.4.1 4.2 2.1 4.1 4.5s-2.1 4.2-4.5 4.1z"/></svg>