<svg enable-background="new 0 0 48 48" viewBox="0 0 48 48" xmlns="http://www.w3.org/2000/svg"><path d="m46.6 27.7-2.8-1.7c.1-.7.1-1.4.1-2.2s0-1.4-.1-2.2l2.8-1.7c.6-.4 1.1-1 1.2-1.6.1-.7.1-1.3-.2-1.9l-5.4-9.4c-.5-.6-1.4-1-2.3-1-.5 0-1 .1-1.3.4l-2.9 1.6c-1.2-.8-2.4-1.6-3.7-2.2v-3.2c0-1.4-1.2-2.6-2.6-2.6h-10.9c-1.4 0-2.6 1.2-2.6 2.6v3.2c-1.3.6-2.5 1.3-3.7 2.2l-3-1.7c-.1-.2-.6-.3-1.1-.3-1 0-1.8.5-2.3 1.3l-5.4 9.4c-.4.6-.5 1.3-.2 1.9.1.7.6 1.2 1.2 1.6l2.8 1.7c-.2.7-.2 1.4-.2 2.1s0 1.4.1 2.2l-2.8 1.7c-.6.4-1.1 1-1.2 1.6-.1.7-.1 1.3.2 1.9l5.4 9.4c.5.8 1.3 1.3 2.3 1.3.5 0 1-.1 1.3-.4l2.9-1.7c1.2.8 2.4 1.6 3.7 2.2v3.2c0 .7.2 1.3.7 1.8s1.2.7 1.8.7h10.8c1.4 0 2.6-1.2 2.6-2.6v-3.2c1.3-.6 2.5-1.3 3.7-2.2l2.9 1.7c.4.2.8.4 1.3.4 1 0 1.8-.5 2.3-1.3l5.4-9.4c.4-.6.5-1.3.2-1.9 0-.7-.4-1.3-1-1.7zm-22.6 10.5c-2.9 0-5.4-.8-7.7-2.3l4.8-4.8c1 .5 2 .6 3.2.6 2.2 0 4.2-.8 5.8-2.4 2-2 2.9-5.2 2-8.1 0-.1-.2-.2-.4-.4-.1 0-.4 0-.5.1l-5.2 5.2c-.4-.1-1.1-.6-2.5-1.9-1.4-1.4-1.8-2.2-1.9-2.5l5.2-5.2c.1-.1.1-.2.1-.5 0-.1-.1-.2-.4-.4-.7-.2-1.4-.4-2.3-.4-2.2 0-4.2.8-5.8 2.4s-2.4 3.6-2.4 5.8c0 1.1.2 2.2.6 3.2l-4.6 5c-1.4-2.2-2.2-4.8-2.2-7.6 0-7.8 6.4-14.2 14.2-14.2s14.2 6.4 14.2 14.2-6.4 14.2-14.2 14.2z"/></svg>