<svg enable-background="new 0 0 48 48" viewBox="0 0 48 48" xmlns="http://www.w3.org/2000/svg"><path d="m29.3 2.5c.1 0 .1.1.1.1v3.2c0 1 .6 1.9 1.5 2.3 1.1.5 2.2 1.1 3.3 1.9.4.3.9.5 1.4.5.4 0 .9-.1 1.3-.3l2.9-1.7c.1 0 .2 0 .2.1l5.3 9.2v.1s0 0-.1 0l-2.8 1.7c-.9.5-1.3 1.5-1.2 2.5.1.5.1 1.1.1 1.8s0 1.2-.1 1.8c-.2 1 .3 2 1.2 2.5l2.8 1.7s.1.1.2.2l-5.4 9.3c0 .1 0 .1-.1.1l-2.9-1.8c-.4-.2-.8-.3-1.3-.3s-1 .2-1.4.5c-1.2.8-2.2 1.4-3.3 1.9-.9.4-1.5 1.3-1.5 2.3v3.2c0 .1-.1.1-.1.1h-10.8v-3.2c0-1-.6-1.9-1.5-2.3-1.1-.5-2.2-1.1-3.3-1.9-.4-.3-.9-.5-1.4-.5-.4 0-.9.1-1.3.3l-2.9 1.7c-.1 0-.1 0-.1-.1l-5.4-9.3v-.1h.1l2.8-1.7c.9-.5 1.3-1.5 1.2-2.5-.1-.5-.1-1.1-.1-1.8s0-1.2.1-1.8c.2-1-.3-2-1.2-2.5l-2.9-1.7s0 0-.1 0c0 0 0 0 0-.1l5.4-9.4 2.8 1.6c.4.2.8.3 1.3.3s1-.2 1.4-.5c1.2-.8 2.2-1.4 3.3-1.9.9-.4 1.5-1.3 1.5-2.3v-3.1c0-.1.1-.1.1-.1zm0-2.5h-10.8c-1.4 0-2.6 1.2-2.6 2.6v3.2c-1.3.6-2.5 1.3-3.7 2.2l-3-1.7c-.1-.2-.6-.3-1.1-.3-1 0-1.8.5-2.3 1.3l-5.4 9.4c-.4.6-.5 1.3-.2 1.9.1.7.6 1.2 1.2 1.6l2.8 1.7c-.2.7-.2 1.4-.2 2.1s0 1.4.1 2.2l-2.8 1.7c-.6.4-1.1 1-1.2 1.6-.1.7-.1 1.3.2 1.9l5.4 9.4c.5.8 1.3 1.3 2.3 1.3.5 0 1-.1 1.3-.4l2.9-1.7c1.2.8 2.4 1.6 3.7 2.2v3.2c0 .7.2 1.3.7 1.8s1.2.7 1.8.7h10.8c1.4 0 2.6-1.2 2.6-2.6v-3.2c1.3-.6 2.5-1.3 3.7-2.2l2.9 1.7c.4.2.8.4 1.3.4 1 0 1.8-.5 2.3-1.3l5.4-9.4c.4-.6.5-1.3.2-1.9-.4-.6-.7-1.2-1.3-1.6l-2.8-1.7c.1-.7.1-1.4.1-2.2 0-.7 0-1.4-.1-2.2l2.8-1.7c.6-.4 1.1-1 1.2-1.6.1-.7.1-1.3-.2-1.9l-5.4-9.4c-.2-.7-1.1-1.1-2-1.1-.5 0-1 .1-1.3.4l-2.9 1.6c-1.2-.8-2.4-1.6-3.7-2.2v-3.2c-.1-1.4-1.3-2.6-2.7-2.6z"/><path d="m24 37c-2 0-3.8-.4-5.6-1.3l3.1-3.1c1 .3 2.1.4 2.9.4 2.5 0 4.9-1 6.7-2.8 2.4-2.4 3.3-6 2.4-9.2-.1-.5-.5-.8-.7-1l-.4-.4h-.5c-.2 0-.9 0-1.4.5l-4.5 4.5c-.3-.2-.8-.6-1.5-1.3-.6-.6-1-1.1-1.2-1.4l4.5-4.5c.5-.5.5-1 .5-1.4s-.1-1-1.1-1.5h-.1-.1c-.9-.3-1.7-.4-2.7-.4-2.5 0-4.9 1-6.7 2.8s-2.8 4.2-2.8 6.7c0 .9.1 1.9.4 2.9l-3.1 3.1c-.6-1.7-1.1-3.6-1.1-5.6 0-7.1 5.8-12.9 12.9-12.9s13 5.8 13 12.9-5.8 13-12.9 13z"/><path d="m24 12.3c6.4 0 11.7 5.2 11.7 11.7s-5.3 11.7-11.7 11.7c-1.2 0-2.3-.2-3.4-.5l1.2-1.2c.9.2 1.8.2 2.6.2 2.8 0 5.5-1.1 7.5-3.1 2.7-2.7 3.7-6.7 2.7-10.4-.1-.6-.5-1.2-1.1-1.7l-.7-.7h-1c-.9 0-1.7.3-2.2.9l-3.7 3.7c-.2-.1-.3-.3-.5-.5s-.3-.3-.4-.4l3.7-3.7c.9-.9.9-1.8.9-2.2 0-.5-.2-1.8-1.7-2.6l-.2-.1-.2-.1c-1-.3-2-.5-3.1-.5-2.8 0-5.5 1.1-7.5 3.1s-3.1 4.7-3.1 7.5c0 .8.1 1.6.3 2.5l-1.2 1.2c-.3-1-.4-2.1-.4-3.3-.2-6.2 5-11.5 11.5-11.5m0-2.5c-7.8 0-14.2 6.4-14.2 14.2 0 2.8.7 5.4 2.2 7.6l4.8-4.8c-.4-1.1-.6-2.2-.6-3.2 0-2.2.8-4.2 2.4-5.8s3.6-2.4 5.8-2.4c.8 0 1.6.1 2.3.4.2.1.4.2.4.4s0 .4-.1.5l-5.2 5.2c.1.4.5 1.1 1.9 2.5 1.4 1.3 2.2 1.8 2.5 1.9l5.2-5.2c.1-.1.4-.1.5-.1.1.1.4.2.4.4.8 2.9 0 6-2 8.1-1.6 1.6-3.6 2.4-5.8 2.4-1.2 0-2.3-.1-3.2-.6l-4.8 4.8c2.3 1.4 4.8 2.3 7.7 2.3 7.8 0 14.2-6.4 14.2-14.2s-6.6-14.4-14.4-14.4z"/></svg>