<svg enable-background="new 0 0 48 48" viewBox="0 0 48 48" xmlns="http://www.w3.org/2000/svg"><path d="m24 16.5c-1.4 0-2.5 1.1-2.5 2.5v2.5h5v-2.5c0-1.4-1.1-2.5-2.5-2.5z"/><path d="m43.3.3c-1.1-.5-2.3-.4-3.1.4-3.7 3-10.4 3-14.3 0-1.1-.8-2.6-.8-3.7 0-3.7 3-10.4 3-14.3 0-.9-.8-2.1-.9-3.2-.4-1 .6-1.7 1.5-1.7 2.7v24c0 9.4 7.6 17.1 20.1 20.9.3.1.7.1.9.1s.6 0 .8-.1c12.6-3.8 20.2-11.5 20.2-20.9v-24c0-1.2-.7-2.1-1.7-2.7zm-10.3 29.7c0 1.7-1.3 3-3 3h-12c-1.7 0-3-1.3-3-3v-6c0-1.7 1.3-3 3-3v-3c0-3.4 2.6-6 6-6s6 2.6 6 6v3c1.7 0 3 1.3 3 3z"/><path d="m24 25.2c-.7 0-1.3.6-1.3 1.3s.6 1.3 1.3 1.3 1.3-.6 1.3-1.3-.6-1.3-1.3-1.3z"/></svg>