<svg enable-background="new 0 0 48 48" viewBox="0 0 48 48" xmlns="http://www.w3.org/2000/svg"><path d="m24 16.5c-1.4 0-2.5 1.1-2.5 2.5v2.5h5v-2.5c0-1.4-1.1-2.5-2.5-2.5z"/><path d="m42 2.5h.2c.2.1.3.3.3.5v24c0 8.2-6.9 15.1-18.3 18.5 0 0 0 0-.1 0h-.1s0 0-.1 0c0 0 0 0-.1 0-11.4-3.4-18.3-10.3-18.3-18.5v-24c0-.2.2-.4.3-.5h.2c.1 0 .3 0 .4.1 2.3 1.8 5.4 2.8 8.7 2.8s6.4-1 8.6-2.8c.1-.1.2-.1.3-.1s.2 0 .3.1c2.3 1.8 5.4 2.8 8.7 2.8s6.4-1 8.7-2.8h.1c.1-.1.1-.1.2-.1m-26.5 16.6c-1.8.9-3 2.7-3 4.9v6c0 3.1 2.4 5.5 5.5 5.5h12c3.1 0 5.5-2.4 5.5-5.5v-6c0-2.2-1.2-4-3-4.9v-1.1c0-4.8-3.7-8.5-8.5-8.5s-8.5 3.7-8.5 8.5zm26.5-19.1c-.7 0-1.3.2-1.8.6-1.9 1.5-4.5 2.2-7.1 2.2s-5.3-.7-7.2-2.2c-.5-.4-1.2-.6-1.8-.6-.7 0-1.3.2-1.9.6-1.9 1.5-4.5 2.2-7.1 2.2s-5.2-.7-7.2-2.2c-.5-.4-1.2-.6-1.9-.6-.4 0-.9.1-1.3.3-1 .6-1.7 1.5-1.7 2.7v24c0 9.4 7.6 17.1 20.1 20.9.3.1.7.1.9.1s.6 0 .8-.1c12.6-3.8 20.2-11.5 20.2-20.9v-24c0-1.2-.7-2.2-1.7-2.8-.4-.1-.9-.2-1.3-.2zm-24 33c-1.7 0-3-1.3-3-3v-6c0-1.7 1.3-3 3-3v-3c0-3.4 2.6-6 6-6s6 2.6 6 6v3c1.7 0 3 1.3 3 3v6c0 1.7-1.3 3-3 3z"/><path d="m24 25.2c-.7 0-1.3.6-1.3 1.3s.6 1.3 1.3 1.3 1.3-.6 1.3-1.3-.6-1.3-1.3-1.3z"/></svg>