<svg enable-background="new 0 0 48 48" viewBox="0 0 48 48" xmlns="http://www.w3.org/2000/svg"><path d="m44.5 30.2-10.9 10.9c-.5.5-1.2.5-1.7 0s-.5-1.2 0-1.7l10.9-10.9c.8-.8 1.3-2 1.3-3.2s-.5-2.4-1.3-3.2l-.1-.1c-.8-.8-2-1.3-3.2-1.3s-2.4.5-3.2 1.3l-23.9 24c-1.2 1.2-2.9 2-4.5 2s-3.3-.6-4.6-2l-.1-.1c-2.5-2.5-2.5-6.5 0-9l1.2-1.2-.1-.1c-.5-.5-.5-1.2 0-1.6l16.5-17.1-.6-.6c-.5-.5-.5-1.2 0-1.7s1.2-.5 1.7 0l1.2 1.2 11-11c.2-.2.5-.4.8-.4.2 0 .6.1.8.4l4.5-4.5c.5-.5 1.2-.5 1.7 0s.5 1.2 0 1.7l-4.8 4.7c.5.5.5 1.2 0 1.6l-11 11 1.2 1.2c.5.5.5 1.2 0 1.7-.2.2-.5.4-.8.4-.2 0-.6-.1-.8-.4l-.5-.7-17.1 16.4c-.2.2-.5.4-.8.4-.2 0-.6-.1-.8-.4l-.4-.4-1.2 1.2c-1.6 1.6-1.6 4.2 0 5.7l.1.2c1.6 1.6 4.2 1.6 5.7 0l24.1-24.2c1.3-1.3 3-2 4.8-2s3.6.7 4.8 2l.1.1c2.7 2.7 2.7 7.1 0 9.7z"/></svg>