<svg enable-background="new 0 0 48 48" viewBox="0 0 48 48" xmlns="http://www.w3.org/2000/svg"><path d="m25.7 2.5v.3 3.4 2l2 .4c3.1.6 5.9 2 8.4 4.2l1.4 1.2.4.5c3 3.5 4.7 7.8 4.7 12.3 0 10.3-8.4 18.7-18.6 18.7-10.1 0-18.6-8.5-18.6-18.5 0-4.5 1.6-8.8 4.7-12.3l.7-.8 1.2-1.1c2.3-2.1 5.3-3.6 8.4-4.2l2-.4v-2-3.3-.4zm3.9-2.5h-11.2c-.7 0-1.4.6-1.4 1.4s.6 1.4 1.4 1.4h1.4v3.4c-3.6.7-7 2.4-9.6 4.8l-2-2 1-1c.6-.6.6-1.4 0-2-.3-.3-.7-.5-1-.5-.4 0-.7.2-1 .5l-4 4c-.6.6-.6 1.4 0 2 .3.3.7.5 1 .5s.7-.2 1-.5l1-1 2 2c-3.3 3.8-5.3 8.6-5.3 14 0 11.4 9.5 21 21.1 21s21.1-9.6 21.1-21.2c0-5.3-2-10.2-5.3-13.9l2-1.9 1 1c.3.3.7.5 1 .5s.7-.2 1-.5c.6-.6.6-1.4 0-2l-4-4c-.3-.3-.7-.5-1-.5-.4 0-.7.2-1 .5-.6.6-.6 1.4 0 2l1 1-2 2c-2.8-2.4-6-4.1-9.6-4.8v-3.4h1.4c.7 0 1.4-.6 1.4-1.4s-.6-1.4-1.4-1.4z"/><path d="m21 38.1c-5.1-1.2-8.8-5.8-8.8-11.1s3.7-9.9 8.8-11.1z"/><path d="m19.7 17.5v18.8c-3.7-1.5-6.3-5.2-6.3-9.4s2.6-7.8 6.3-9.4m2.5-3.2c-6.3.8-11.2 6.2-11.2 12.6s4.9 11.9 11.3 12.6v-25.2z"/><path d="m23.6 41.3c-7.8 0-14.2-6.4-14.2-14.2s6.4-14.2 14.2-14.2c0 0 .2.1.2.2v28.1s-.1.1-.2.1z"/><path d="m22.5 14.1v25.9c-6.7-.5-11.9-6.1-11.9-12.9s5.2-12.4 11.9-13m1.1-2.5c-8.5 0-15.5 7-15.5 15.5s7 15.5 15.5 15.5c.8 0 1.4-.7 1.4-1.4v-28.2c0-.8-.7-1.4-1.4-1.4z"/></svg>