<svg enable-background="new 0 0 48 48" viewBox="0 0 48 48" xmlns="http://www.w3.org/2000/svg"><path d="m11.4 26.8c0 6.5 4.9 11.9 11.3 12.6v-25.2c-6.4.7-11.3 6.1-11.3 12.6z"/><path d="m41.9 10.9 1 1c.6.6 1.4.6 2 0s.6-1.4 0-2l-4-4c-.6-.6-1.4-.6-2 0s-.6 1.4 0 2l1 1-2 2c-2.8-2.4-6-4.1-9.6-4.8v-3.3h1.4c.7 0 1.4-.6 1.4-1.4s-.7-1.4-1.5-1.4h-11.2c-.7 0-1.4.6-1.4 1.4s.6 1.4 1.4 1.4h1.4v3.4c-3.6.7-7 2.4-9.6 4.8l-2-2 1-1c.6-.6.6-1.4 0-2s-1.4-.6-2 0l-4 4c-.6.6-.6 1.4 0 2s1.4.6 2 0l1-1 2 2c-3.3 3.8-5.3 8.6-5.3 14 0 11.4 9.5 21 21.1 21s21.1-9.6 21.1-21.2c0-5.3-2-10.2-5.3-13.9zm-16.5 30c0 .7-.6 1.4-1.4 1.4-8.5 0-15.5-7-15.5-15.5s7-15.5 15.5-15.5c.7 0 1.4.6 1.4 1.4z"/></svg>