<svg enable-background="new 0 0 48 48" viewBox="0 0 48 48" xmlns="http://www.w3.org/2000/svg"><path d="m40.6 2.5 4.5 4.5-4.6 4.6h-15.4v-9h15.5m.3-2.6h-18.3v14h18.4c.4 0 .7-.1 1-.4l5.5-5.6c.6-.6.6-1.4.1-2l-5.6-5.6c-.4-.3-.6-.4-1.1-.4z"/><path d="m17.3 2.5v9.2h-14.8v-9.2zm2.5-2.5h-18.4c-.8 0-1.4.6-1.4 1.4v11.3c0 .7.6 1.4 1.4 1.4h18.4z"/><path d="m17.3 19.4v9.2h-14.8v-9.2zm2.5-2.5h-18.4c-.7 0-1.4.6-1.4 1.4v11.3c0 .7.6 1.4 1.4 1.4h18.4z"/><path d="m40.6 19.4 4.5 4.5-4.6 4.6h-15.4v-9h15.5m.4-2.6h-18.4v14h18.4c.4 0 .7-.1 1-.4l5.6-5.6c.6-.6.6-1.4.1-2l-5.7-5.6c-.2-.3-.6-.4-1-.4z"/><path d="m40.6 36.3 4.5 4.5-4.6 4.7h-15.4v-9.2zm.4-2.5h-18.4v14.2h18.4c.4 0 .7-.1 1-.4l5.6-5.8c.6-.6.6-1.4.1-2l-5.7-5.6c-.2-.2-.6-.4-1-.4z"/><path d="m17.3 36.2v9.3h-14.8v-9.3zm2.5-2.5h-18.4c-.7 0-1.4.6-1.4 1.4v11.4c0 .9.6 1.5 1.4 1.5h18.4z"/></svg>