<svg enable-background="new 0 0 48 48" viewBox="0 0 48 48" xmlns="http://www.w3.org/2000/svg"><path d="m25 23-8-8v-5c0-.4-.1-.7-.4-1l-8.4-8.5c-.5-.5-1.1-.6-1.6-.4-.5.3-.8.7-.8 1.3v4.2h-4.4c-.6 0-1 .4-1.3.9-.2.5-.1 1.2.3 1.5l8.5 8.5c.2.2.6.4 1 .4h5l8 8c.6.5 1.3.5 1.9 0 .8-.4.8-1.3.2-1.9z"/><path d="m24 0c-3.6 0-7 1-10.1 2.4l4.3 4.3c1.8-.7 3.8-.9 5.8-.9 10.1 0 18.2 8.2 18.2 18.2s-8.1 18.2-18.2 18.2-18.2-8.1-18.2-18.2c0-2 .4-4 1-5.8l-4.3-4.3c-1.5 3.1-2.5 6.5-2.5 10.1 0 13.2 10.8 24 24 24s24-10.8 24-24-10.8-24-24-24z"/><path d="m24 11.4c-1.4 0-2.9.4-4.2.7v1.7l3.2 3.2c.4 0 .6-.1 1-.1 3.8 0 7.1 3.1 7.1 7.1s-3.1 7.1-7.1 7.1-7.1-3.1-7.1-7.1c0-.4 0-.6.1-1l-3.2-3.2h-1.7c-.5 1.3-.7 2.8-.7 4.2 0 7 5.6 12.6 12.6 12.6s12.6-5.6 12.6-12.6-5.6-12.6-12.6-12.6z"/></svg>