<svg enable-background="new 0 0 48 48" viewBox="0 0 48 48" xmlns="http://www.w3.org/2000/svg"><path d="m43.6 14.3c.5 0 .6.4.6.6v12.1c0 1 .5 1.8 1.3 2.2v.8h-3.1c-.7-2-2.6-3.5-4.8-3.5s-4 1.5-4.7 3.5h-18.9c-.7-2-2.6-3.5-4.8-3.5s-4.1 1.5-4.7 3.5h-1.6l-.1-.7c1.2-.2 2-1.2 2-2.5v-4.8c0-.1.1-.3.2-.3h.1l4.4-.5c.3 0 .8-.1 1.2-.4.1-.1.2-.1.3-.2.3.2.7.2 1.1.2h7.3c1.9 0 3.3-1.5 3.3-3.3v-3.4h20.9m0-2.3h-22.4-7.3c-.1 0-.2 0-.2 0-.2.1-.6.2-.7.5l-1.5 2.7-2 3.7c-.1 0-.1.1-.2.1l-4.4.5c-1.4.1-2.5 1.3-2.5 2.8v4.8h-1.3c-.4 0-.6.1-.8.4-.3.3-.3.7-.3.9l.6 3.5c.1.5.5.8 1.1.8h3c.5 2 2.3 3.6 4.6 3.6s4.1-1.6 4.6-3.6h19.3c.5 2 2.3 3.6 4.6 3.6 2.2 0 4.1-1.6 4.6-3.6h4.7c.6 0 1.1-.5 1.1-1.1v-3.4c0-.5-.5-1-1.1-1h-.2v-12.1c-.2-1.7-1.5-3.1-3.3-3.1zm-31.6 6.7 2.5-4.4h5.6v3.6c0 .5-.4.8-.8.8zm25.7 15.6c-1.4 0-2.5-1.2-2.5-2.5s1.2-2.5 2.5-2.5 2.5 1.2 2.5 2.5-1.1 2.5-2.5 2.5zm-28.5 0c-1.4 0-2.5-1.2-2.5-2.5s1.2-2.5 2.5-2.5 2.5 1.2 2.5 2.5c.1 1.3-1 2.5-2.5 2.5z"/><path d="m35.3 16.3c-1 0-1.9.4-2.5 1-1 1-1.2 2.4-.7 3.6l-4.6 4.6c-.5.5-.5 1.3 0 1.8.2.2.5.4.8.4.2 0 .6-.1.8-.4l4.8-4.6c.4.1.7.2 1.2.2.8 0 1.7-.4 2.3-1 .6-.7 1-1.6 1-2.5 0-.2-.1-.4-.4-.5-.1 0-.1 0-.2 0-.2 0-.3.1-.4.2l-1.3 1.3c0 .1-.1.1-.1.1l-.1-.1-1.6-1.6c-.1 0-.1-.1-.1-.1l.1-.1 1.3-1.3c.1-.2.2-.4.1-.6s-.1-.4-.4-.4z"/></svg>