<svg enable-background="new 0 0 48 48" viewBox="0 0 48 48" xmlns="http://www.w3.org/2000/svg"><path d="m33.2 28.4c.5.4 1.1.8 1.5 1.2 3.5 2.8 5.8 4.6 9.5 8.2.9.9 1.4 2.2 1.3 3.5s-.8 2.5-1.8 3.3c-.7.5-1.5.7-2.5.7-1.3 0-2.6-.5-3.5-1.4-3.8-3.8-6.1-6.7-9.2-10.7zm-.2-3.3-7.9 7.9c4 5 6.4 8.3 10.8 12.7 1.4 1.4 3.4 2.2 5.3 2.2 1.4 0 2.8-.4 4-1.2 1.7-1.2 2.8-3.1 2.9-5.2.1-1.9-.6-4-2-5.4-5-4.8-7.6-6.6-13.1-11z"/><path d="m38.1 2.5c.6 0 1.1.1 1.7.2l-2.4 2.4c-1.6 1.6-1.6 4 0 5.6l.1.1.1.1c.7.6 1.7.9 2.6.9 1.1 0 2-.4 2.7-1.1l2.4-2.4c.6 2.4-.1 4.9-2 6.8-1.5 1.4-3.3 2.2-5.3 2.2-.8 0-1.7-.1-2.4-.4l-1.5-.5-1.1.9-15.7 15.7-1.1 1.1.5 1.5c1 2.7.3 5.6-1.7 7.7-1.4 1.4-3.2 2.1-5.2 2.1-.5 0-1-.1-1.6-.2l2.4-2.4c1.6-1.6 1.6-4 0-5.6-.8-.8-1.8-1.2-2.8-1.2s-2 .4-2.8 1.2l-2.4 2.4c-.6-2.4.1-4.9 2-6.8 1.4-1.4 3.2-2.2 5.1-2.2.9 0 1.7.2 2.6.5l1.5.5 1.1-1.1 15.8-15.5 1.1-1.1-.5-1.5c-1-2.7-.3-5.6 1.7-7.7 1.3-1.4 3.1-2.2 5.1-2.2zm0-2.5c-2.5 0-5.1 1-6.9 2.9-2.8 2.8-3.6 6.7-2.3 10.3l-15.7 15.7c-1.1-.4-2.3-.6-3.4-.6-2.5 0-5 1-6.9 2.9-3 3-3.7 7.4-1.9 11.1.2.5.7.8 1.3.8.4 0 .7-.1 1-.4l3.6-3.6c.3-.3.7-.4 1-.4.4 0 .7.1 1 .4.6.6.6 1.4 0 2l-3.6 3.6c-.7.7-.5 1.8.4 2.3 1.3.6 2.8 1 4.2 1 2.5 0 5-1 7-2.9 2.8-2.8 3.6-6.7 2.3-10.3l15.7-15.7c1.1.4 2.2.6 3.3.6 2.6 0 5.1-1 7-2.9 3-3 3.7-7.4 1.9-11.1-.2-.5-.7-.8-1.3-.8-.4 0-.7.1-1 .4l-3.6 3.6c-.2.2-.6.4-1 .4s-.8-.1-1.1-.4c-.6-.6-.6-1.4 0-2l3.6-3.6c.7-.7.5-1.8-.4-2.3-1.3-.7-2.8-1-4.2-1z"/><path d="m5.1 2.5c.4 0 .8.1 1.2.4l6.3 3.8-1.7 1.7 1.8 1.8 5.8 5.8-2.5 2.4-5.8-5.8-1.8-1.8-1.7 1.7-3.8-6.2c-.6-.9-.5-2.2.3-3 .5-.5 1.2-.8 1.9-.8m0-2.5c-1.3 0-2.6.5-3.6 1.5-1.7 1.7-1.9 4.2-.7 6.1l4.6 7.6c.3.5.7.7 1.2.7.4 0 .7-.2 1-.5l1-1 7.4 7.6 6-6-7.6-7.6 1-1c.6-.6.5-1.7-.2-2.2l-7.6-4.5c-.8-.4-1.7-.7-2.5-.7z"/><path d="m35.7 34.1c-.4 0-.7.1-1 .4-.5.5-.4 1.4.1 1.9l5.5 5.5c.3.3.6.5 1 .5.3 0 .7-.1.9-.3.6-.6.6-1.4.1-1.9l-5.6-5.6c-.3-.4-.6-.5-1-.5z"/></svg>