<svg enable-background="new 0 0 48 48" viewBox="0 0 48 48" xmlns="http://www.w3.org/2000/svg"><path d="m46.9 27h-.2v-12.1c0-1.7-1.3-3.1-3.1-3.1h-22.4-7.3c-.1 0-.2 0-.2 0-.2.1-.6.2-.7.5l-1.5 2.7-2 3.7c-.1 0-.1.1-.2.1l-4.4.5c-1.4.1-2.5 1.3-2.5 2.8v4.8h-1.3c-.4 0-.6.1-.8.4-.3.3-.3.7-.3.9l.6 3.5c.1.5.5.8 1.1.8h3c.5 2 2.3 3.6 4.6 3.6s4.1-1.6 4.6-3.6h19.3c.5 2 2.3 3.6 4.6 3.6 2.2 0 4.1-1.6 4.6-3.6h4.7c.6 0 1.1-.5 1.1-1.1v-3.4c-.2-.5-.7-1-1.3-1zm-37.7 7.1c-1.4 0-2.5-1.2-2.5-2.5s1.2-2.5 2.5-2.5 2.5 1.2 2.5 2.5c.1 1.3-1 2.5-2.5 2.5zm11-16.4c0 .5-.4.8-.8.8h-7.4l2.5-4.4h5.6v3.6zm10.5 8.8c-.2.2-.6.4-.8.4-.4 0-.6-.1-.8-.4-.5-.5-.5-1.3 0-1.8l4.6-4.6c-.5-1.2-.2-2.6.7-3.6.6-.6 1.6-1 2.5-1 .2 0 .4.1.5.4.1.2 0 .4-.1.6l-1.3 1.3-.2.2s0 .1.1.1l1.6 1.6.1.1s.1 0 .1-.1l1.3-1.3c.1-.1.4-.2.6-.1s.4.2.4.5c0 1-.4 1.8-1 2.5-.6.6-1.4 1-2.3 1-.5 0-.8-.1-1.2-.2zm7 7.6c-1.4 0-2.5-1.2-2.5-2.5s1.2-2.5 2.5-2.5 2.5 1.2 2.5 2.5-1.1 2.5-2.5 2.5z"/></svg>