<svg enable-background="new 0 0 48 48" viewBox="0 0 48 48" xmlns="http://www.w3.org/2000/svg"><path d="m45.9 36.1c-4.8-4.8-7.4-6.6-12.9-11l-7.9 7.9c4 5 6.4 8.3 10.8 12.7 1.4 1.4 3.4 2.2 5.3 2.2 1.4 0 2.8-.4 4-1.2 1.7-1.2 2.8-3.1 2.9-5.2 0-1.9-.7-4-2.2-5.4zm-4 5.8c-.6.5-1.4.5-1.9-.1l-5.5-5.5c-.5-.5-.6-1.4-.1-1.9.6-.6 1.4-.6 2 0l5.6 5.6c.5.4.5 1.3-.1 1.9z"/><path d="m47 5.7c-.4-.8-1.6-1.1-2.3-.4l-3.6 3.6c-.5.5-1.4.5-2 0-.6-.6-.6-1.4 0-2l3.6-3.6c.7-.7.5-1.8-.4-2.3-3.7-1.8-8.3-1.1-11.1 1.9-2.8 2.8-3.6 6.7-2.3 10.3l-15.7 15.7c-3.6-1.3-7.6-.5-10.3 2.3-3 3-3.7 7.4-1.9 11.1.4.8 1.6 1.1 2.3.4l3.6-3.6c.6-.6 1.4-.6 2 0s.6 1.4 0 2l-3.6 3.6c-.7.7-.5 1.8.4 2.3 1.3.6 2.8 1 4.2 1 2.5 0 5-1 7-2.9 2.8-2.8 3.6-6.7 2.3-10.3l15.7-15.7c3.6 1.3 7.6.4 10.3-2.3 2.9-3 3.6-7.4 1.8-11.1z"/><path d="m14.4 8.4 1-1c.6-.6.5-1.7-.2-2.2l-7.6-4.5c-1.9-1.2-4.5-.8-6.1.8-1.7 1.7-1.9 4.2-.7 6.1l4.6 7.6c.5.8 1.6 1 2.2.2l1-1 7.4 7.6 6-6z"/></svg>