<svg enable-background="new 0 0 48 48" viewBox="0 0 48 48" xmlns="http://www.w3.org/2000/svg"><path d="m38.4 2.6c.5 0 1 .2 1.3.6l5.3 5.2c.3.3.5.8.5 1.3s-.2.9-.6 1.3l-4.3 4.3-7.8-7.9 4.2-4.3c.4-.4.9-.5 1.4-.5m-18.4 17.6 1.1 1.1 5.8 5.8.9.9-15 15-7.9-7.9 2.1-2zm18.4-20.1c-1.2 0-2.3.5-3.1 1.3l-5.3 5.2c-.5.4-.5 1.1 0 1.6l9.7 9.8c.2.2.5.4.8.4.4 0 .6-.1.8-.4l5.3-5.3c1.8-1.7 1.8-4.4.1-6.1l-5.3-5.3c-.8-.8-1.8-1.2-3-1.2zm-10.2 11.1c-.3 0-.6.1-.8.4l-6.2 6.2-.4-.4c-.2-.2-.4-.4-.7-.4s-.6.1-.8.4l-14 13.9-4 4c-1.7 1.7-1.7 4.4 0 6.1l5.3 5.3c.8.8 1.9 1.3 3.1 1.3s2.3-.5 3.1-1.3l.8-.8 17.1-17.1c.5-.4.5-1.1 0-1.6l-.4-.4 6.2-6.2c.4-.4.4-1.1-.2-1.6l-7.4-7.4c-.2-.3-.4-.4-.7-.4zm.5 14.1-5.9-5.9 5.4-5.5 5.9 5.9zm-18.7 20.3c-.1 0-.2 0-.2 0-.5 0-1.1-.2-1.4-.6l-5.4-5.3c-.4-.4-.6-1-.6-1.4s.2-1.1.6-1.4l8.1 8.1c-.3.4-.7.6-1.1.6z"/></svg>