<svg enable-background="new 0 0 48 48" viewBox="0 0 48 48" xmlns="http://www.w3.org/2000/svg"><path d="m46.6 12.7-5.2 5.3c-.2.2-.5.4-.8.4s-.6-.1-.8-.4l-9.8-9.8c-.5-.5-.5-1.2 0-1.6l5.3-5.3c.8-.8 1.9-1.3 3.1-1.3s2.3.5 3.1 1.3l5.3 5.3c1.6 1.7 1.6 4.5-.2 6.1zm-10 7.8-6.2 6.2.4.4c.5.5.5 1.2 0 1.6l-17.2 17.1-.8.8c-.8.8-1.9 1.3-3.1 1.3s-2.3-.5-3.1-1.3l-5.3-5.3c-1.7-1.7-1.7-4.4 0-6.1l4-4 14-13.9c.5-.5 1.2-.5 1.6 0l.4.4 6.2-6.2c.5-.5 1.2-.5 1.6 0l7.4 7.4c.4.5.4 1.3.1 1.6zm-25.4 24.5-8.2-8.2c-.4.4-.6 1-.6 1.4s.2 1.1.6 1.4l5.3 5.4c.4.4 1 .6 1.4.6.5.1 1-.2 1.5-.6zm22.9-25.2-5.9-5.9-5.4 5.5 5.9 5.9z"/></svg>