<svg enable-background="new 0 0 48 48" viewBox="0 0 48 48" xmlns="http://www.w3.org/2000/svg"><path d="m26.5 11.5c1.4-1.1 2.5-3 2.5-5.1 0-3-.6-6-5-6s-5 3-5 6c0 2.1 1 4.1 2.5 5.1-3.3 1-5.6 3.8-5.6 7.2 0 1.8.8 3 2.6 3.7 1.3.5 3 .7 5.6.7 2.5 0 4.3-.2 5.6-.7 1.8-.7 2.6-1.9 2.6-3.7-.1-3.4-2.5-6.3-5.8-7.2z"/><path d="m10.8 33.7c1.4-1.1 2.5-3 2.5-5.1 0-3-.6-6-5-6s-5 3-5 6c0 2.1 1 4.1 2.5 5.1-3.3 1-5.7 3.8-5.7 7.2 0 1.8.8 3 2.6 3.7 1.3.5 3 .7 5.6.7s4.3-.2 5.6-.7c1.8-.7 2.6-1.9 2.6-3.7 0-3.4-2.4-6.3-5.7-7.2z"/><path d="m42.2 33.7c1.4-1.1 2.5-3 2.5-5.1 0-3-.6-6-5-6s-5 3-5 6c0 2.1 1 4.1 2.5 5.1-3.3 1-5.6 3.8-5.6 7.2 0 1.8.8 3 2.6 3.7 1.3.5 3 .7 5.6.7 2.5 0 4.3-.2 5.6-.7 1.8-.7 2.6-1.9 2.6-3.7-.1-3.4-2.5-6.3-5.8-7.2z"/><path d="m29.5 44.9c0-.1-.1-.2-.4-.4-.1-.1-.4-.1-.5 0-1.3.5-2.9.7-4.8.7s-3.5-.2-4.8-.7c-.1 0-.4 0-.5 0-.1.1-.2.1-.4.4l-.1 1.1c-.1.4 0 .6.4.7 1.6.6 3.3 1 5.6 1s4.1-.4 5.6-1c.4-.1.5-.5.4-.7z"/><path d="m6.8 19.7 1.1.5h.2c.2 0 .5-.1.6-.4.5-1.2 1.4-2.5 2.9-3.9s2.6-2.3 3.9-2.9c.1-.1.2-.1.4-.4 0-.1 0-.4 0-.5l-.5-1.1c-.4-.2-.7-.4-1-.2-1.6.6-3 1.8-4.7 3.3-1.6 1.6-2.7 3.1-3.3 4.7-.1.4 0 .8.4.9z"/><path d="m32.7 13c1.2.5 2.5 1.4 3.9 2.9 1.4 1.4 2.3 2.6 2.9 3.9.1.2.4.4.6.4h.2l1.1-.5c.2-.1.5-.5.4-.7-.6-1.6-1.8-3-3.3-4.7-1.6-1.6-3.1-2.7-4.7-3.3-.2-.1-.6 0-.7.4l-.7 1c-.1.1-.1.4 0 .5-.1 0 .1.1.3.1z"/></svg>