<svg enable-background="new 0 0 48 48" viewBox="0 0 48 48" xmlns="http://www.w3.org/2000/svg"><path d="m24 2.4c2.1 0 3 .6 3 4 0 1.4-.7 2.8-1.7 3.5l-1.3.9-1.4-1c-1-.7-1.6-2-1.6-3.5 0-3.4.9-3.9 3-3.9m0 10.4 2 .6c2.5.7 4.3 2.8 4.4 5.3 0 .8-.2 1.3-1.3 1.8-1.1.4-2.7.6-4.9.6-2.3 0-3.8-.2-4.9-.6-1.1-.5-1.3-1-1.3-1.8 0-2.4 1.7-4.5 4.2-5.2zm0-12.4c-4.4 0-5 3-5 6 0 2.1 1 4.1 2.5 5.1-3.3 1-5.6 3.8-5.6 7.2 0 1.8.8 3 2.6 3.7 1.3.5 3 .7 5.6.7 2.5 0 4.3-.2 5.6-.7 1.8-.7 2.6-1.9 2.6-3.7-.1-3.3-2.5-6.2-5.9-7.2 1.4-1.1 2.5-3 2.5-5.1.1-3.1-.5-6-4.9-6z"/><path d="m8.3 24.6c2.1 0 3 .6 3 4 0 1.4-.7 2.8-1.7 3.5l-1.2.9-1.4-1c-1-.7-1.6-2-1.6-3.5-.1-3.4.8-3.9 2.9-3.9m.1 10.4 1.9.6c2.4.7 4.2 2.9 4.3 5.3 0 .8-.2 1.3-1.3 1.8-1.1.4-2.6.6-4.9.6s-3.8-.2-4.9-.6c-1.1-.5-1.3-1-1.3-1.8 0-2.4 1.7-4.5 4.3-5.2zm-.1-12.4c-4.4 0-5 3-5 6 0 2.1 1 4.1 2.5 5.1-3.3 1-5.7 3.8-5.7 7.2 0 1.8.8 3 2.6 3.7 1.3.5 3 .7 5.6.7s4.3-.2 5.6-.7c1.8-.7 2.6-1.9 2.6-3.7-.1-3.3-2.5-6.2-5.7-7.2 1.4-1.1 2.5-3 2.5-5.1.1-3-.5-6-5-6z"/><path d="m39.7 24.6c2.1 0 3 .6 3 4 0 1.4-.7 2.8-1.7 3.5l-1.2.9-1.4-1c-1-.7-1.6-2-1.6-3.5-.1-3.4.8-3.9 2.9-3.9m.1 10.4 1.9.6c2.4.7 4.2 2.9 4.4 5.3 0 .8-.2 1.3-1.3 1.8-1.1.4-2.7.6-4.9.6-2.3 0-3.8-.2-4.9-.6-1.1-.5-1.3-1-1.3-1.8 0-2.4 1.7-4.5 4.2-5.2zm-.1-12.4c-4.4 0-5 3-5 6 0 2.1 1 4.1 2.5 5.1-3.3 1-5.6 3.8-5.6 7.2 0 1.8.8 3 2.6 3.7 1.3.5 3 .7 5.6.7 2.5 0 4.3-.2 5.6-.7 1.8-.7 2.6-1.9 2.6-3.7-.2-3.3-2.6-6.2-5.9-7.2 1.4-1.1 2.5-3 2.5-5.1.2-3-.4-6-4.9-6z"/><path d="m28.9 44.4c-.1 0-.2 0-.2.1-1.3.5-2.9.7-4.8.7s-3.5-.2-4.8-.7c-.1 0-.4 0-.5 0-.1.1-.2.1-.4.4l-.2 1.1c-.1.4 0 .6.4.7 1.6.6 3.3 1 5.6 1s4.1-.4 5.6-1c.4-.1.5-.5.4-.7l-.5-1.1c0-.1-.1-.2-.4-.4 0 0-.1-.1-.2-.1z"/><path d="m14.6 10.8c-.1 0-.2 0-.2 0-1.6.6-3 1.8-4.7 3.3-1.6 1.6-2.7 3.1-3.3 4.7-.1.4 0 .7.4.8l1.1.5h.2c.2 0 .5-.1.6-.4.5-1.2 1.4-2.5 2.9-3.9 1.4-1.4 2.6-2.3 3.9-2.9.1-.1.2-.1.4-.4 0-.1 0-.4 0-.5l-.5-1.1c-.3 0-.5-.1-.8-.1z"/><path d="m33.6 10.9c-.2 0-.4.1-.5.4l-.7 1c-.1.1-.1.4 0 .5 0 .1.1.2.4.2 1.2.5 2.5 1.4 3.9 2.9 1.4 1.4 2.3 2.6 2.9 3.9.1.2.4.4.6.4h.2l1.1-.5c.2-.1.5-.5.4-.7-.6-1.6-1.8-3-3.3-4.7-1.6-1.6-3.1-2.7-4.7-3.3-.2 0-.3-.1-.3-.1z"/></svg>