<svg enable-background="new 0 0 48 48" viewBox="0 0 48 48" xmlns="http://www.w3.org/2000/svg"><path d="m31.9 5.1 1.5 1.5-.9 1.6 1.4 1.4 1.2 1.2.2.2 1.8 1.8 1.2-1.2 3.4 3.4-1.2 1.2 1.8 1.8.3.3-26 26.1c-.6.6-1.4 1-2.5 1-1 0-1.9-.4-2.6-1.1l-7.9-7.9c-.6-.6-1-1.4-1-2.5 0-1 .4-1.9 1.1-2.6l26-26.1 1.1 1.1zm-4.4-5.2c-.3 0-.6.1-.8.3-.4.4-.4 1.1 0 1.6l1.4 1.4-26.3 26.3c-1.2 1.2-1.8 2.8-1.8 4.4 0 1.7.6 3.2 1.8 4.3l7.9 7.9c1.2 1.2 2.8 1.8 4.3 1.8 1.7 0 3.2-.6 4.3-1.8l26.3-26.3 1.4 1.4c.2.2.5.4.7.4s.6-.1.7-.4c.6-.4.6-1 .1-1.4l-2.2-2.2-1.4-1.4.5-.5c.2-.2.4-.5.4-.7s-.1-.6-.4-.7l-5.4-5.6c-.2-.2-.5-.4-.7-.4s-.6.1-.7.4l-.5.5-.2-.2-1.2-1.2.3-.6c.2-.2.4-.5.4-.7s-.1-.6-.4-.8l-3.4-3.4c-.2-.2-.5-.4-.7-.4s-.5.2-.7.4l-.5.5-2.5-2.5c-.2-.3-.4-.4-.7-.4z"/><path d="m27.7 14.9c2.9 0 5.2 2.4 5.2 5.3s-2.3 5.3-5.2 5.3-5.3-2.4-5.3-5.3 2.3-5.3 5.3-5.3m0-2c-4.1 0-7.3 3.4-7.3 7.3 0 4.1 3.4 7.3 7.3 7.3 4 0 7.2-3.2 7.2-7.3 0-3.9-3.1-7.3-7.2-7.3z"/><path d="m28.5 25.2c-.7 0-1.3-.2-1.5-.5 0 0 0 0 0-.1s.1-.3.1-.5c.1-.2.1-.4.2-.6l.3-.8-.8-.4c-.5-.2-.8-.6-1.1-1.2l-.4-.9-.9.4c-.6.3-1.1.4-1.4.5 0-.5 0-1.2.3-1.6 0-.1.1-.2.2-.2s.3.1.5.1c.2.1.4.1.6.2l.8.3.4-.8c.1-.1.1-.2.2-.3-.2.4-.4.8-.4 1.3 0 1.3 1 2.3 2.3 2.3s2.3-1 2.3-2.3-1-2.3-2.3-2.3c-.2 0-.4 0-.6.1l.6-.3-.4-.9c-.3-.6-.4-1.1-.5-1.4h.2c.7 0 1.3.2 1.5.5v.1c0 .1-.1.3-.1.5-.1.2-.1.4-.2.6l-.4.8.8.4c.5.2.8.6 1.1 1.2l.4.9.9-.4c.6-.3 1.1-.4 1.4-.5 0 .5 0 1.2-.3 1.6 0 .1-.1.2-.2.2s-.3-.1-.5-.1c-.2-.1-.4-.1-.6-.2l-.8-.3-.4.8c-.2.5-.6.8-1.2 1.1l-.9.4.4.9c.3.6.4 1.1.5 1.4z"/><path d="m27 14.4c-.4 0-.8.1-1 .2-.5.2-.1 1.6.4 2.6-.7.4-1.3.8-1.7 1.6-.4-.1-.8-.2-1.2-.4h-.1c-1.5 0-1.8 2.8-1.3 3.6.1.2.3.2.6.2.5 0 1.4-.3 2.1-.6.4.7.8 1.3 1.6 1.7-.1.4-.2.8-.4 1.2-.1 1.1 1.4 1.6 2.6 1.6.4 0 .8-.1 1-.2.5-.2.1-1.6-.4-2.6.7-.4 1.3-.8 1.7-1.6.4.1.8.2 1.2.4h.1c1.5 0 1.8-2.8 1.3-3.6-.1-.2-.3-.2-.6-.2-.5 0-1.4.3-2.1.6-.4-.7-.8-1.3-1.6-1.7.1-.4.2-.8.4-1.2.1-1.1-1.4-1.6-2.6-1.6zm.7 7.2c-.7 0-1.3-.6-1.3-1.3s.6-1.3 1.3-1.3 1.3.6 1.3 1.3-.6 1.3-1.3 1.3z"/><path d="m14.5 28.1c2.9 0 5.2 2.4 5.2 5.3s-2.3 5.3-5.2 5.3-5.3-2.4-5.3-5.3 2.4-5.3 5.3-5.3m0-2c-4.1 0-7.3 3.4-7.3 7.3 0 4.1 3.4 7.3 7.3 7.3 4 0 7.2-3.2 7.2-7.3 0-3.9-3.1-7.3-7.2-7.3z"/><path d="m15.3 38.4c-.7 0-1.3-.2-1.5-.5 0 0 0 0 0-.1s.1-.3.1-.5c.1-.2.1-.4.2-.6l.3-.8-.8-.4c-.5-.2-.8-.6-1.1-1.2l-.5-.7-.9.4c-.6.3-1.1.4-1.4.5 0-.5 0-1.2.3-1.6 0-.1.1-.2.2-.2s.3.1.5.1c.2.1.4.1.6.2l.8.3.4-.8c.1-.1.1-.2.2-.3-.2.4-.4.8-.4 1.3 0 1.3 1 2.3 2.3 2.3s2.3-1 2.3-2.3-1-2.3-2.3-2.3c-.2 0-.4 0-.6.1l.6-.3-.4-.9c-.3-.6-.4-1.1-.5-1.4h.2c.7 0 1.3.2 1.5.5v.1c0 .1-.1.3-.1.5-.1.2-.1.4-.2.6l-.2.6.8.4c.5.2.8.6 1.1 1.2l.4.9.9-.4c.6-.3 1.1-.4 1.4-.5 0 .5 0 1.2-.3 1.6 0 .1-.1.2-.2.2s-.3-.1-.5-.1c-.2-.1-.4-.1-.6-.2l-.8-.3-.4.8c-.2.5-.6.8-1.2 1.1l-.9.4.4.9c.3.6.4 1.1.5 1.4 0 0-.1 0-.2 0z"/><path d="m13.9 27.6c-.4 0-.8.1-1 .2-.5.2-.1 1.6.4 2.6-.7.4-1.3.8-1.7 1.6-.4-.1-.8-.2-1.2-.4h-.1c-1.5 0-1.8 2.8-1.3 3.6.1.2.3.2.6.2.5 0 1.4-.3 2.1-.6.4.7.8 1.3 1.6 1.7-.1.4-.2.8-.4 1.2-.1 1.1 1.4 1.6 2.6 1.6.4 0 .8-.1 1-.2.5-.2.1-1.6-.4-2.6.7-.4 1.3-.8 1.7-1.6.4.1.8.2 1.2.4h.1c1.5 0 1.8-2.8 1.3-3.6-.1-.2-.3-.2-.6-.2-.5 0-1.4.3-2.1.6-.4-.7-.8-1.3-1.6-1.7.1-.4.2-.8.4-1.2 0-1.1-1.5-1.6-2.6-1.6zm.6 7.2c-.7 0-1.3-.6-1.3-1.3s.6-1.3 1.3-1.3 1.3.6 1.3 1.3-.6 1.3-1.3 1.3z"/></svg>