<svg enable-background="new 0 0 48 48" viewBox="0 0 48 48" xmlns="http://www.w3.org/2000/svg"><path d="m47.7 19.8-2.2-2.2-1.4-1.4.5-.5c.2-.2.4-.5.4-.7s-.1-.6-.4-.7l-5.6-5.6c-.2-.2-.5-.4-.7-.4s-.6.1-.7.4l-.5.5-.2-.2-1.2-1.2.3-.6c.2-.2.4-.5.4-.7s-.1-.6-.4-.9l-3.4-3.4c-.2-.2-.5-.4-.7-.4s-.5.2-.7.4l-.5.5-2.5-2.5c-.4-.4-1.1-.4-1.6 0-.4.4-.4 1.1 0 1.6l1.4 1.4-26.2 26.3c-1.2 1.2-1.8 2.8-1.8 4.4 0 1.7.6 3.2 1.8 4.3l7.9 7.9c1.2 1.2 2.8 1.8 4.3 1.8 1.7 0 3.2-.6 4.3-1.8l26.3-26.3 1.4 1.4c.2.2.5.4.7.4s.6-.1.7-.4c.8-.3.8-.9.3-1.4zm-28.7 19.6c-1.3 1.3-3.2 2.2-5.2 2.2s-3.7-.7-5.2-2.2c-2.9-2.9-2.9-7.5 0-10.3 1.3-1.3 3.2-2.2 5.2-2.2s3.7.7 5.2 2.2c2.7 2.8 2.7 7.4 0 10.3zm8.6-11.7c-4 0-7.3-3.2-7.3-7.3 0-4 3.2-7.3 7.3-7.3s7.2 3.4 7.2 7.3c0 4.1-3.2 7.3-7.2 7.3zm5.8-9c-.2-.5-1.6-.1-2.6.4-.4-.7-.8-1.3-1.6-1.7.1-.4.2-.8.4-1.2.1-1.6-2.8-1.9-3.6-1.4-.5.2-.1 1.6.4 2.6-.7.4-1.3.8-1.7 1.6-.4-.1-.8-.2-1.2-.4-1.6-.1-1.9 2.8-1.4 3.6.2.5 1.6.1 2.6-.4.4.7.8 1.3 1.6 1.7-.1.4-.2.8-.4 1.2-.1 1.6 2.8 1.9 3.6 1.4.5-.2.1-1.6-.4-2.6.7-.4 1.3-.8 1.7-1.6.4.1.8.2 1.2.4 1.5.1 1.9-2.7 1.4-3.6zm-5.8 3c-.7 0-1.3-.6-1.3-1.3s.6-1.3 1.3-1.3 1.3.6 1.3 1.3-.6 1.3-1.3 1.3zm-8 10.8c-.2-.5-1.6-.1-2.6.4-.4-.7-.8-1.3-1.6-1.7.1-.4.2-.8.4-1.2.1-1.6-2.8-1.9-3.6-1.4-.5.2-.1 1.6.4 2.6-.7.4-1.3.8-1.7 1.6-.4-.1-.8-.2-1.2-.4-1.7-.1-2 2.8-1.6 3.6.2.5 1.6.1 2.6-.4.4.7.8 1.3 1.6 1.7-.1.4-.2.8-.4 1.2-.1 1.6 2.8 1.9 3.6 1.4.5-.2.1-1.6-.4-2.6.7-.4 1.3-.8 1.7-1.6.4.1.8.2 1.2.4 1.7.2 2-2.7 1.6-3.6zm-5.8 3.1c-.7 0-1.3-.6-1.3-1.3s.6-1.3 1.3-1.3 1.3.6 1.3 1.3-.6 1.3-1.3 1.3z"/></svg>