<svg enable-background="new 0 0 48 48" viewBox="0 0 48 48" xmlns="http://www.w3.org/2000/svg"><path d="m30 9.5v.3 6.3.7l-.3.8c-.3.7-.8 1.3-1.5 1.7l-2.5 1.7c-.6.4-1.2.6-1.8.6h-9.7-2.5v2.4 1.8.2.2c.1.6.2 1.2.3 1.7l-.3.1-2 .4v.6l-1.6.3v2.1c0 1 0 2.9.1 4.4.2 2.2-.2 2.3-1.1 2.5-.5.1-1 .2-1.3.2-1.5 0-2.8-.6-3-1-.5-1-.5-2.4-.5-8.6v-1.6c0-4.8 1.6-8.7 2.6-11.2l.2-.5v-.1-.1c.1-.3.2-.5.3-.7.2-.6.5-1.1.5-1.7 0-.9-.2-1.8-.5-2.4l-.1-.1c0-.3.1-.5.3-.5l.6-.2c.2-.1.4-.1.4-.1h23.4m1.5-2.7h-24.7c-.3 0-.8.2-1.2.3l-.7.2c-1.2.5-1.9 1.6-1.9 2.9 0 .5.1 1 .4 1.3.1.2.2.7.2 1.3 0 .2-.4 1-.6 1.7-1.1 2.6-3 7-3 12.6v1.6c0 6.6 0 8.2.8 9.7.8 1.6 3.2 2.4 5.2 2.4.6 0 1.2-.1 1.8-.2 3.4-.7 3.2-3.5 3.1-5.2-.1-1.4-.1-3.2-.1-4.2l.7-.1c.5-.1.8-.5.8-.8l1.2-.2c.5-.1.8-.4 1.1-.8.2-.5.2-1 .1-1.4-.2-.5-.4-1.2-.5-2 0-.7 0-1.3 0-1.8h9.8c1.1 0 2.2-.4 3.1-1l2.5-1.7c1.1-.7 1.9-1.7 2.4-2.9h3.4c.6 0 1.1-.5 1.1-1.1h3.1c1.9 0 3.6-1.3 4.1-3.1h3.1c.6 0 1.1-.5 1.1-1.1.1-.8-.4-1.3-1-1.3h-3.1c-.5-1.8-2.2-3.1-4.1-3.1h-3.1c0-.6-.5-1.1-1.1-1.1h-3.1c-.2-.6-.6-.9-.9-.9zm1 9.1v-6.3h1.7v6.3zm4-1.1v-4h3.1c1.1 0 2 1 2 2s-.8 1.9-2 1.9h-3.1z"/><path d="m25 17.6h-2.3c-.6 0-1.1.5-1.1 1.1s.5 1.1 1.1 1.1h2.3c.7 0 1.2-.5 1.1-1.1 0-.6-.5-1.1-1.1-1.1z"/><path d="m25 14.1h-2.3c-.6 0-1.1.5-1.1 1.1s.5 1.1 1.1 1.1h2.3c.7 0 1.1-.5 1.1-1.1s-.5-1.1-1.1-1.1z"/><path d="m25 10.8h-2.3c-.6 0-1.1.5-1.1 1.1s.5 1.1 1.1 1.1h2.3c.7 0 1.2-.6 1.1-1.1 0-.6-.5-1.1-1.1-1.1z"/></svg>