<svg enable-background="new 0 0 48 48" viewBox="0 0 48 48" xmlns="http://www.w3.org/2000/svg"><path d="m47 11.9h-3.1c-.5-1.8-2.2-3.1-4.1-3.1h-3.1c0-.6-.5-1.1-1.1-1.1h-3.1c-.2-.4-.6-.6-1-.6h-24.7c-.3-.1-.8.1-1.2.2l-.7.2c-1.2.5-1.9 1.6-1.9 2.9 0 .5.1 1 .4 1.3.1.2.2.7.2 1.3 0 .2-.4 1-.6 1.7-1.1 2.6-3 7-3 12.6v1.6c0 6.6 0 8.2.8 9.7s3.2 2.4 5.2 2.4c.6 0 1.2-.1 1.8-.2 3.4-.7 3.2-3.5 3.1-5.2-.1-1.4-.1-3.2-.1-4.2l.7-.1c.5-.1.8-.5.8-.8l1.2-.2c.5-.1.8-.4 1.1-.8.2-.5.2-1 .1-1.4-.2-.5-.4-1.2-.5-2 0-.7 0-1.3 0-1.8h9.8c1.1 0 2.2-.4 3.1-1l2.5-1.7c1.1-.7 1.9-1.7 2.4-2.9h3.4c.6 0 1.1-.5 1.1-1.1h3.1c1.9 0 3.6-1.3 4.1-3.1h3.1c.6 0 1.1-.5 1.1-1.1.2-1.1-.3-1.5-.9-1.5zm-23 8.9h-2.3c-.6 0-1.1-.5-1.1-1.1s.5-1.1 1.1-1.1h2.3c.6 0 1.1.5 1.1 1.1.1.6-.4 1.1-1.1 1.1zm0-4.5h-2.3c-.6 0-1.1-.5-1.1-1.1s.5-1.1 1.1-1.1h2.3c.6 0 1.1.5 1.1 1.1s-.4 1.1-1.1 1.1zm0-4.3h-2.3c-.6 0-1.1-.5-1.1-1.1s.5-1.1 1.1-1.1h2.3c.6 0 1.1.5 1.1 1.1.1.5-.4 1.1-1.1 1.1zm10.2 4.1h-1.7v-6.3h1.7zm5.4-1.1h-3.1v-4h3.1c1.1 0 2 1 2 2s-.8 2-2 2z"/></svg>