<svg enable-background="new 0 0 48 48" viewBox="0 0 48 48" xmlns="http://www.w3.org/2000/svg"><path d="m24 2.5c6.5 0 11.8 5.3 11.8 11.8v19.4c0 6.5-5.3 11.8-11.8 11.8s-11.8-5.3-11.8-11.8v-19.4c0-6.5 5.3-11.8 11.8-11.8m0 17c2.5 0 4.4-1.9 4.4-4.4v-6.5c0-2.5-1.9-4.4-4.4-4.4s-4.4 1.9-4.4 4.4v6.5c0 2.5 1.9 4.4 4.4 4.4m0-19.5c-7.9 0-14.3 6.4-14.3 14.3v19.4c0 7.9 6.4 14.3 14.3 14.3s14.3-6.4 14.3-14.3v-19.4c0-7.9-6.4-14.3-14.3-14.3zm0 17c-1.1 0-1.9-.8-1.9-1.9v-6.5c0-1.1.8-1.9 1.9-1.9s1.9.8 1.9 1.9v6.5c0 1.1-.8 1.9-1.9 1.9z"/></svg>