<svg enable-background="new 0 0 48 48" viewBox="0 0 48 48" xmlns="http://www.w3.org/2000/svg"><path d="m24.1 5.9c1.7 0 3.2.2 4.7.5v11.2l-4.8 2-4.8-2.1v-11c1.6-.4 3.2-.6 4.9-.6m12 4.2c.5.4 1 .9 1.5 1.4 3.6 3.6 5.5 8.4 5.5 13.6v1.1.7h-.5-2.5-14.4l8.1-3.5h.1.1c1.3-.7 2.1-1.9 2.1-3.3zm-24.2.2v9.7c0 1.4.8 2.6 2.1 3.3h.1.1l8.1 3.5h-14.5-2.5-.3v-.8-1c0-5.8 2.6-11.1 6.9-14.7m12.2-6.9c-2.6 0-5.2.5-7.4 1.3v14.5l7.3 3.1 7.3-3v-14.7c-2.3-.9-4.7-1.2-7.2-1.2zm9.5 2.1v14.5c0 .5-.2.8-.7 1.1l-8.4 3.6c-.1.1-.4.1-.5.1s-.4 0-.5-.1l-8.4-3.6c-.5-.2-.7-.6-.7-1.1v-14.4c-7.1 3.6-11.9 11-11.9 19.4v1.1 1h-1.3c-.6-.1-1.2.4-1.2 1.1s.5 1.2 1.2 1.2h2.4 1.9v3.2 10.8c0 .6.5 1.2 1.2 1.2.6 0 1.2-.5 1.2-1.2v-9.7h32.3v9.7c0 .6.5 1.2 1.2 1.2s1.2-.5 1.2-1.2v-10.8-3.2h1.8 2.4c.6 0 1.2-.5 1.2-1.2s-.5-1.1-1.2-1.1h-1.2c0-.4 0-.7 0-1 0-.4 0-.7 0-1.1 0-5.8-2.2-11.3-6.2-15.4-1.7-1.6-3.6-3-5.8-4.1zm-25.8 25.9v-2h32.3v2h.1z"/></svg>