<svg enable-background="new 0 0 48 48" viewBox="0 0 48 48" xmlns="http://www.w3.org/2000/svg"><path d="m16.7 4.7c2.3-.8 4.8-1.3 7.4-1.3 2.5 0 4.9.4 7.2 1.2v14.8l-7.3 3-7.3-3.1zm30.1 22.4h-1.2c0-.4 0-.7 0-1 0-.4 0-.7 0-1.1 0-5.8-2.2-11.3-6.2-15.4-1.7-1.7-3.6-3.1-5.8-4.2v14.6c0 .5-.2.8-.7 1.1l-8.4 3.6c-.1.1-.4.1-.5.1s-.4 0-.5-.1l-8.4-3.6c-.5-.2-.7-.6-.7-1.1v-14.4c-7.1 3.6-11.9 11-11.9 19.4v1.1s0 .7 0 1h-1.3c-.6-.1-1.2.4-1.2 1.1s.5 1.2 1.2 1.2h2.4 1.9v3.2 10.8c0 .6.5 1.2 1.2 1.2.6 0 1.2-.5 1.2-1.2v-9.7h32.3v9.7c0 .6.5 1.2 1.2 1.2s1.2-.5 1.2-1.2v-10.8-3.2h1.8 2.4c.6 0 1.2-.5 1.2-1.2s-.5-1.1-1.2-1.1zm-6.6 4.3h-32.4v-2h32.3v2z"/></svg>