<svg enable-background="new 0 0 48 48" viewBox="0 0 48 48" xmlns="http://www.w3.org/2000/svg"><path d="m24 2.5c.9 0 1.9.1 2.9.3 1.7 2.8 3.3 7.9 3.3 14.7 0 4.7-.7 8.7-2.1 14.7l-.1.3v.3c0 1-.8 1.8-1.8 1.8h-4.2c-1 0-1.8-.8-1.8-1.8v-.3l-.1-.3c-1.4-5.8-2.1-10.1-2.1-14.7 0-6 1.3-11.5 3.3-14.7.7-.2 1.6-.3 2.7-.3m12.4 5.6c1.7 1.9 2.5 4.2 2.5 7.1 0 2.7-.7 6-1.9 9.1.3-2.4.4-4.8.4-6.8 0-3.2-.3-6.4-1-9.4m-24.8 0c-.6 2.9-1 6.1-1 9.3 0 2.1.2 4.6.5 7.2-1.2-3.1-2-6.5-2-9.4 0-2.8.8-5.1 2.5-7.1m16.5 33.8v1.8c0 1-.8 1.8-1.8 1.8h-4.4c-1 0-1.8-.8-1.8-1.8v-1.8zm-4.1-41.9c-1.6 0-3 .2-4.2.6-2.6 3.5-4.3 9.7-4.3 16.9 0 4.9.8 9.5 2.2 15.2 0 2.4 1.9 4.3 4.3 4.3h4.3c2.4 0 4.3-1.9 4.3-4.3 1.3-5.8 2.2-10.2 2.2-15.2 0-7.2-1.8-13.4-4.3-16.9-1.5-.4-2.9-.6-4.5-.6zm-7.6 1.7c-5.8 2.8-9.8 6.6-9.8 13.6s4 17.3 9.8 20c-2-4-3.4-11.6-3.4-17.9.1-6.1 1.4-11.8 3.4-15.7zm15.2.1c2 4 3.4 9.5 3.4 15.7 0 6.1-1.3 13.9-3.4 17.9 5.8-2.9 9.8-13.2 9.8-20.2s-4-10.6-9.8-13.4zm-1 37.6h-13.1v4.3c0 2.4 1.9 4.3 4.3 4.3h4.4c2.4 0 4.3-1.9 4.3-4.3v-4.3z"/></svg>