<svg enable-background="new 0 0 48 48" viewBox="0 0 48 48" xmlns="http://www.w3.org/2000/svg"><path d="m21.8 48c-2.4 0-4.3-1.9-4.3-4.3v-4.3h13.1v4.3c0 2.4-1.9 4.3-4.3 4.3zm2.2-48c1.6 0 3 .2 4.4.6 2.5 3.5 4.3 9.7 4.3 16.9 0 5-.8 9.5-2.2 15.2 0 2.4-1.9 4.3-4.3 4.3h-4.2c-2.4 0-4.3-1.9-4.3-4.3-1.3-5.8-2.2-10.3-2.2-15.2 0-7.2 1.7-13.4 4.3-16.9 1.2-.4 2.6-.6 4.2-.6zm17.4 15.2c0 7-4.1 17.3-9.8 20.2 2-4 3.4-11.8 3.4-17.9 0-6.2-1.3-11.8-3.4-15.7 5.8 2.8 9.8 6.5 9.8 13.4zm-34.8 0c0-7 4.1-10.8 9.8-13.6-2 4-3.4 9.6-3.4 15.7 0 6.2 1.3 13.9 3.4 17.9-5.8-2.7-9.8-13-9.8-20z"/></svg>