<svg enable-background="new 0 0 48 48" viewBox="0 0 48 48" xmlns="http://www.w3.org/2000/svg"><path d="m37.2 13.2c-2.9 0-5.6 1.1-7.6 3.1l-14 12.5c-1.3 1.3-3 1.9-4.8 1.9-3.7 0-6.8-3-6.8-6.7s3-6.7 6.8-6.7c1.8 0 3.5.7 4.9 2l2.3 2 3-2.6-2.5-2.3c-2-2-4.8-3.2-7.7-3.2-6 0-10.8 4.8-10.8 10.8s4.8 10.8 10.8 10.8c2.9 0 5.6-1.1 7.6-3l14-12.6c1.3-1.3 3-1.9 4.8-1.9 3.7 0 6.8 3 6.8 6.7s-3 6.7-6.8 6.7c-1.8 0-3.5-.7-4.9-2l-2.3-2-3 2.6 2.5 2.3c2 2 4.8 3.1 7.7 3.1 6 0 10.8-4.8 10.8-10.8s-4.8-10.7-10.8-10.7z"/></svg>