<svg enable-background="new 0 0 48 48" viewBox="0 0 48 48" xmlns="http://www.w3.org/2000/svg"><path d="m29.8 18h15c.5-3.7-.5-9.6-5-10.4-1.7-.3-4.9.6-6.8 1.7-1.6-.9-4-1.6-5.7-1.7.2.2.4.4.5.6 1.9 2.8 2.4 6.7 2 9.8zm-10.1-13.3c1.1-1.1 1.4-3 1.2-4.7-1.2-.1-3.3 0-4.7 1.2-1.5 1.6-1.2 4.4-1.2 4.8 1.8.1 3.6-.2 4.7-1.3zm18 0c1.1-1.1 1.4-3 1.2-4.7-1.2-.1-3.3 0-4.7 1.2-1.5 1.6-1.2 4.4-1.2 4.8 1.8.1 3.6-.2 4.7-1.3zm-10.9 13.3c.5-3.7-.5-9.6-5-10.4-1.7-.3-4.9.6-6.8 1.7-1.9-1.1-5.1-1.9-6.8-1.7-4.6.8-5.5 6.8-5 10.4zm19.7 3h-45c-.8 0-1.5.7-1.5 1.5v10.5h48v-10.5c0-.8-.7-1.5-1.5-1.5zm-40.5 7.5c-.8 0-1.5-.7-1.5-1.5s.7-1.5 1.5-1.5 1.5.7 1.5 1.5-.7 1.5-1.5 1.5zm36 0c-.8 0-1.5-.7-1.5-1.5s.7-1.5 1.5-1.5 1.5.7 1.5 1.5-.7 1.5-1.5 1.5zm-42 18c0 .8.7 1.5 1.5 1.5h45c.8 0 1.5-.7 1.5-1.5v-10.5h-48zm42-6c.8 0 1.5.7 1.5 1.5s-.7 1.5-1.5 1.5-1.5-.7-1.5-1.5.7-1.5 1.5-1.5zm-36 0c.8 0 1.5.7 1.5 1.5s-.7 1.5-1.5 1.5-1.5-.7-1.5-1.5.7-1.5 1.5-1.5z"/></svg>