<svg enable-background="new 0 0 48 48" viewBox="0 0 48 48" xmlns="http://www.w3.org/2000/svg"><path d="m36.2 6.9c.9-1 1.2-2.7 1.1-4.2-1.1-.1-3 0-4.2 1.1-1.4 1.4-1.1 3.9-1.1 4.2 1.6.1 3.2-.2 4.2-1.1zm-16 0c.9-1 1.2-2.7 1.1-4.2-1.1-.1-3 0-4.2 1.1-1.3 1.4-1.1 3.9-1.1 4.2 1.6.1 3.2-.2 4.2-1.1zm26.5 11.8h-4.1c.3-2.2 0-5.3-1.4-7.4-.9-1.4-2.3-2.2-3.8-2.5-1.5-.3-3.6.3-5.3 1-1.6-.7-3.7-1.2-5.3-.9-1 .2-1.9.7-2.7 1.3-.8-.7-1.7-1.1-2.7-1.3-1.5-.3-3.6.3-5.3 1-1.6-.7-3.8-1.2-5.3-.9-1.6 0-2.9.9-3.9 2.2-1.5 2.1-1.8 5.2-1.4 7.4h-4.2c-.7.1-1.3.7-1.3 1.4v24c0 .7.6 1.3 1.3 1.3h45.3c.7 0 1.3-.6 1.3-1.3v-24c.1-.7-.5-1.3-1.2-1.3zm-20.5-5.2c.4-.6.9-.8 1.2-.8.6-.1 2.4.3 3.6 1l1 .5 1-.5c1.2-.7 3-1.1 3.6-1 .3.1.8.2 1.2.8.8 1.2 1 3.4.8 4.8 0 .1-.1.2-.1.3h-12c.2-1.5.1-3.3-.4-5 .1 0 .1 0 .1-.1zm-16 0c.4-.6.9-.8 1.2-.8.6-.1 2.4.3 3.6 1l1 .5 1-.5c1.2-.7 3-1.1 3.6-1 .5.1.9.4 1.2.8.8 1.2 1 3.4.7 4.8 0 .1-.1.2-.1.3h-12.9c0-.1-.1-.2-.1-.3-.2-1.4 0-3.6.8-4.8zm33.8 27.8h-40v-7.3h40zm0-11.3h-40v-7.3h40zm-36-2c.7 0 1.3-.6 1.3-1.3s-.6-1.4-1.3-1.4-1.3.6-1.3 1.3.6 1.4 1.3 1.4zm32 10.7c.7 0 1.3-.6 1.3-1.3s-.6-1.3-1.3-1.3-1.3.6-1.3 1.3.6 1.3 1.3 1.3zm-32 0c.7 0 1.3-.6 1.3-1.3 0-.8-.6-1.4-1.3-1.4s-1.3.6-1.3 1.3c0 .8.6 1.4 1.3 1.4zm32-10.7c.7 0 1.3-.6 1.3-1.3s-.6-1.3-1.3-1.3-1.3.6-1.3 1.3.6 1.3 1.3 1.3z"/></svg>