<svg enable-background="new 0 0 48 48" viewBox="0 0 48 48" xmlns="http://www.w3.org/2000/svg"><path d="m24 21.2c1.6 0 2.8 1.2 2.8 2.8s-1.2 2.8-2.8 2.8-2.8-1.2-2.8-2.8 1.2-2.8 2.8-2.8zm-21.8-19c4-4.1 12.7-2.3 21.8 3.7 9.1-6 17.9-7.8 21.8-3.7 4 4 2.3 12.7-3.7 21.8 6 9.1 7.8 17.9 3.7 21.8-4 4-12.7 2.3-21.8-3.7-9.1 6-17.9 7.8-21.8 3.7-4.1-4-2.3-12.7 3.7-21.8-6-9.1-7.8-17.9-3.7-21.8zm31.7 11.9c1.7 1.7 3.4 3.5 4.8 5.3 3.8-6 5.3-11.1 3.2-13.2-2.1-2.2-7.1-.8-13.1 3.2 1.7 1.4 3.3 3 5.1 4.7zm-19.8 19.8c-1.7-1.7-3.4-3.5-4.8-5.3-3.9 6.1-5.3 11.2-3.3 13.3 2.2 2.2 7.2.7 13.2-3.2-1.7-1.5-3.3-3.1-5.1-4.8zm-8-27.8c-2.1 2.2-.7 7.2 3.3 13.2 1.4-1.8 3-3.6 4.8-5.3 1.7-1.7 3.5-3.4 5.3-4.8-6.2-3.8-11.2-5.1-13.4-3.1zm11.9 23.9c1.9 1.9 4 3.7 6 5.4 1.9-1.6 4-3.4 6-5.4 1.9-1.9 3.7-4 5.4-6-1.6-1.9-3.4-4-5.4-6-1.9-1.9-4-3.7-6-5.4-1.9 1.6-4 3.4-6 5.4-1.9 1.9-3.7 4-5.4 6 1.7 1.9 3.5 4 5.4 6zm23.9 11.9c2.2-2.2.7-7.2-3.2-13.2-1.4 1.8-3 3.6-4.8 5.3-1.7 1.7-3.5 3.4-5.3 4.8 6.1 3.8 11.1 5.1 13.3 3.1z"/></svg>