<svg enable-background="new 0 0 48 48" viewBox="0 0 48 48" xmlns="http://www.w3.org/2000/svg"><path d="m48 16.5c-.3-6.4-2.9-12.1-6.9-16.1-.3-.3-.7-.4-1-.4-.7 0-1.3.5-1.5 1.3-.4 1.8-2.9 10-12.3 10v-3.8c0-.8-.7-1.5-1.5-1.5h-1.5c-.8 0-1.5.7-1.5 1.5v3.7c-9.4 0-11.8-8.1-12.3-10-.2-.7-.9-1.2-1.5-1.2-.4 0-.7.1-1 .4-4.3 4.4-7 10.6-7 17.6s2.7 13.2 7 17.6c.3.3.6.4 1 .4.7 0 1.3-.5 1.5-1.3.4-1.8 2.9-10 12.3-10v21.7c0 .8.7 1.5 1.5 1.5h1.5c.8 0 1.5-.7 1.5-1.5v-21.6c9.5 0 11.9 8.1 12.3 10 .2.8.8 1.3 1.5 1.3.4 0 .7-.1 1-.4 4-4 6.5-9.7 6.9-16.1l-1.4-1.6zm-40.8 12c-1.7-3.1-2.7-6.8-2.7-10.5s1-7.4 2.7-10.5c3 5 7.9 8.2 14.5 8.2v4.5c-6.6.1-11.5 3.2-14.5 8.3zm36.1-7.4c-.4 2.6-1.2 5.1-2.5 7.3-3-5-7.8-8.2-14.6-8.2v-4.5c6.7 0 11.6-3.1 14.6-8.2 1.2 2.2 2.1 4.7 2.5 7.3l-3 3.1z"/></svg>