<svg enable-background="new 0 0 48 48" viewBox="0 0 48 48" xmlns="http://www.w3.org/2000/svg"><path d="m48 15.1c-.6-5.8-3.1-10.9-6.8-14.6-.9-.9-2.2-.4-2.5.8-1.1 4.7-4.4 8.3-8.6 9.5v14.5c4.2 1.2 7.5 4.8 8.6 9.5.3 1.2 1.7 1.7 2.5.8 3.7-3.7 6.2-8.9 6.8-14.6l-5.9-3zm-38.5-13.8c-.3-1.2-1.7-1.7-2.5-.9-4.3 4.4-7 10.6-7 17.6s2.7 13.2 7 17.6c.9.9 2.2.4 2.5-.8 1.1-4.7 4.4-8.3 8.5-9.5v-14.5c-4.1-1.2-7.4-4.9-8.5-9.5zm16 4.7h-3c-.8 0-1.5.7-1.5 1.5v39c0 .8.7 1.5 1.5 1.5h3c.8 0 1.5-.7 1.5-1.5v-39c0-.8-.7-1.5-1.5-1.5z"/></svg>