<svg enable-background="new 0 0 48 48" viewBox="0 0 48 48" xmlns="http://www.w3.org/2000/svg"><path d="m30.1 2.7c7.2 1.1 12.9 6.8 14 14h-14zm14 21.4c-.4 2.8-1.6 5.4-3.4 7.7l-1.5 1.9 1.8 1.6c1.3 1.1 2 2.6 2 4.4 0 3.3-2.6 5.9-5.9 5.9-2.9 0-5.4-2.2-5.8-5.1l-.3-2.1h-2.2-5-2.2l-.3 2.1c-.4 2.9-2.9 5.1-5.8 5.1-3.3 0-5.9-2.6-5.9-5.9 0-2.2 1.2-4.2 3.1-5.3l2.1-1.2-1.2-2.2c-.2-.4-1.7-3.4-3.3-6.8h1.5 32.3m-16.5-24.2v19.2h19.2c0-10.6-8.6-19.2-19.2-19.2zm-18 16.8h-8.4v4.8h5.3s4.6 9.7 5 10.6c-2.5 1.4-4.3 4.2-4.3 7.4 0 4.7 3.7 8.4 8.4 8.4 4.2 0 7.7-3.1 8.3-7.2h5c.6 4.1 4.1 7.2 8.3 7.2 4.7 0 8.4-3.7 8.4-8.4 0-2.5-1.1-4.7-2.9-6.2 2.5-3.2 4.1-7.3 4.1-11.8h-34.9z"/><path d="m37.2 38.5c.7 0 1.1.4 1.1 1.1s-.4 1.1-1.1 1.1-1.1-.4-1.1-1.1.4-1.1 1.1-1.1m0-2.5c-2 0-3.6 1.6-3.6 3.6s1.6 3.6 3.6 3.6 3.6-1.6 3.6-3.6-1.6-3.6-3.6-3.6z"/><path d="m15.5 38.5c.7 0 1.1.4 1.1 1.1s-.4 1.1-1.1 1.1-1.1-.4-1.1-1.1.4-1.1 1.1-1.1m0-2.5c-2 0-3.6 1.6-3.6 3.6s1.6 3.6 3.6 3.6 3.6-1.6 3.6-3.6-1.6-3.6-3.6-3.6z"/></svg>