<svg enable-background="new 0 0 48 48" viewBox="0 0 48 48" xmlns="http://www.w3.org/2000/svg"><path d="m27.6 0v19.2h19.2c0-10.6-8.6-19.2-19.2-19.2zm15.1 33.4c2.5-3.2 4.1-7.3 4.1-11.8h-34.9l-2.3-4.8h-8.4v4.8h5.3s4.6 9.7 5 10.6c-2.5 1.4-4.3 4.2-4.3 7.4 0 4.7 3.7 8.4 8.4 8.4 4.2 0 7.7-3.1 8.3-7.2h5c.6 4.1 4.1 7.2 8.3 7.2 4.7 0 8.4-3.7 8.4-8.4 0-2.5-1.1-4.7-2.9-6.2zm-27.1 9.8c-2 0-3.6-1.6-3.6-3.6s1.6-3.6 3.6-3.6 3.6 1.6 3.6 3.6-1.6 3.6-3.6 3.6zm21.6 0c-2 0-3.6-1.6-3.6-3.6s1.6-3.6 3.6-3.6 3.6 1.6 3.6 3.6-1.6 3.6-3.6 3.6z"/></svg>