<svg enable-background="new 0 0 48 48" viewBox="0 0 48 48" xmlns="http://www.w3.org/2000/svg"><path d="m30.5 16h-12.9v3.2h12.9z"/><path d="m42 26.5 2.3 9.7c.5 2.2 0 4.6-1.4 6.4-1.5 1.8-3.7 2.9-6 2.9h-25.7c-2.3 0-4.5-1.1-6-2.9s-2-4.1-1.4-6.4l2.2-9.7h.3.7c.1 3.5 3 6.4 6.6 6.4 3.5 0 6.4-2.8 6.5-6.4h7.9c.1 3.5 2.9 6.4 6.5 6.4 3.5 0 6.4-2.8 6.5-6.4h.7zm-.4-10.5h-3.2v3.2h3.2v4.8h-3.2v2.4c0 2.2-1.8 4-4 4s-4-1.8-4-4v-2.4h-12.8v2.4c0 2.2-1.8 4-4 4s-4.1-1.8-4.1-4v-2.4h-3.1v-4.8h3.2v-3.2h-3.2c-.8 0-1.6.7-1.6 1.6v3.2l-3.5 14.8c-.7 3 0 6.1 1.9 8.5s4.8 3.9 8 3.9h25.7c3.1 0 6-1.4 7.9-3.8s2.6-5.5 1.9-8.5l-3.5-14.9v-3.2c0-.9-.7-1.6-1.6-1.6z"/><path d="m24 0c-7.1 0-12.8 5.8-12.8 12.8v8h-3.2v-.1 1.6h3.2v4.1c0 1.3 1.1 2.4 2.4 2.4s2.4-1.1 2.4-2.4v-4h16v4c0 1.3 1.1 2.4 2.4 2.4s2.4-1.1 2.4-2.4v-4h3.2v-1.6h-3.2v-8c0-7-5.7-12.8-12.8-12.8zm-8 20.9v-8c0-4.4 3.6-8 8-8s8 3.6 8 8v8z"/></svg>