<svg enable-background="new 0 0 48 48" viewBox="0 0 48 48" xmlns="http://www.w3.org/2000/svg"><path d="m17.6 16h12.8v3.2h-12.8z"/><path d="m46.7 35.6-3.5-14.9v-3.2c0-.8-.7-1.6-1.6-1.6h-3.2v3.2h3.2v4.9h-3.2v2.4c0 2.2-1.8 4-4 4s-4-1.8-4-4v-2.4h-12.8v2.4c0 2.2-1.8 4-4 4s-4.1-1.8-4.1-4v-2.4h-3.1v-4.8h3.2v-3.2h-3.2c-.8 0-1.6.7-1.6 1.6v3.2l-3.5 14.8c-.7 3 0 6.1 1.9 8.5 2 2.5 4.8 3.9 8 3.9h25.7c3.1 0 6-1.4 7.9-3.8s2.6-5.6 1.9-8.6z"/><path d="m8 20.8v1.6h3.2v4.1c0 1.3 1.1 2.4 2.4 2.4s2.4-1.1 2.4-2.4v-4h16v4c0 1.3 1.1 2.4 2.4 2.4s2.4-1.1 2.4-2.4v-4h3.2v-1.6h-3.2v-8c0-7.1-5.7-12.9-12.8-12.9s-12.8 5.8-12.8 12.8v8zm8-8c0-4.4 3.6-8 8-8s8 3.6 8 8v8h-16z"/></svg>