<svg enable-background="new 0 0 48 48" viewBox="0 0 48 48" xmlns="http://www.w3.org/2000/svg"><path d="m40.1 2.5v.3h-.1-2.5v2.5 16 2.5h2.5.1v.2h-.1-2.5v2.5 16.2 2.5h2.5.1v.3h-32.3v-.3h.1 2.5v-2.5-16.1-2.5h-2.5-.1v-.3h.1 2.5v-2.5-16-2.5h-2.5-.1v-.3zm-16.1 34.7c5.8 0 10.5-4.7 10.5-10.5 0-6.1-7.8-15-8.7-15.9l-1.8-2.2-1.9 2.1c-.9 1-8.7 9.9-8.7 15.9.1 5.9 4.8 10.6 10.6 10.6m18.6-37.2h-37.3v5.3h2.6v16.1h-2.6v5.3h2.6v16.1h-2.6v5.2h37.3v-5.3h-2.6v-16.2h2.6v-5.3h-2.6v-16h2.6zm-18.6 34.7c-4.4 0-8-3.6-8-8 0-5.3 8-14.3 8-14.3s8 9 8 14.3c0 4.4-3.5 8-8 8z"/></svg>