<svg enable-background="new 0 0 48 48" viewBox="0 0 48 48" xmlns="http://www.w3.org/2000/svg"><path d="m23.6 2.5c-.1.9-.2 1.9-.2 2.8 0 2.1.5 4.5 1.4 6.8.6 1.5 1.2 2.8 1.9 4l-2.3 2.3-12.2-12.3c3.5-2.3 7.2-3.5 11.4-3.6m8.4 1.6c.7.3 1.5.7 2.2 1.1.8.4 1.5.9 2.1 1.3l-3.4 3.4c-.9-1.9-1.2-3.7-.9-5.8m-25.8 8.1 12.2 12.3-2.2 2.2c-2.2-1.5-4.6-2.5-7.1-2.9-1.2-.2-2.5-.4-3.7-.4-.9 0-1.8.1-2.8.2.1-2 .6-4.4 1.5-7.1.6-1.6 1.3-3 2.1-4.3m36 .5c.6 1 1.2 2.1 1.7 3.3-.4.1-.8.1-1.2.1-1.1 0-2.2-.2-3.3-.6zm-9.3 9.3c3.1 1.9 6.3 2.8 9.6 2.8 1 0 1.9-.1 2.9-.2-.1 2-.6 4.3-1.5 6.9-.6 1.6-1.3 3.1-2.1 4.4l-11.4-11.4zm-8.4 8.4 11.4 11.5c-3.5 2.4-7.2 3.6-11.5 3.6.1-.9.2-1.9.2-2.8 0-1.6-.3-3.6-1.1-6v-.1-.1c-.5-1.5-1-2.7-1.6-3.7zm-19.2 1.5c1.7 0 3.1.3 4.4.9l-3.4 3.4c-.9-1.3-1.6-2.7-2.2-4.2.5-.1.8-.1 1.2-.1m10.3 7.4c.5 1.5.7 3 .5 4.6-1.2-.5-2.3-1-3.4-1.7zm8.4-39.3c-5.8 0-11 2-15.6 5.9l16.1 15.9 5.5-5.5c-1.1-1.3-2-3-2.9-5.2s-1.2-4.1-1.2-5.8c0-1.9.4-3.6.8-5.2-.9-.1-1.8-.1-2.7-.1zm6.2.9c-1.7 4.7-1 9 2.3 12.9l7.6-7.6c-1.2-1.1-2.8-2.2-4.7-3.2-1.9-1.1-3.7-1.8-5.2-2.1zm-24.3 7.5c-1.7 1.8-3.1 4.3-4.2 7.3s-1.7 5.8-1.7 8.3c0 1.3.1 2.2.1 2.8 1.6-.5 3.4-.8 5.1-.8 1.1 0 2.2.1 3.2.3 3 .5 5.5 1.8 7.8 3.7l5.5-5.5zm36.7.5-7.4 7.3c2.4 1.6 4.9 2.4 7.6 2.4 1.6 0 3-.4 4.4-.8-1-3.4-2.6-6.4-4.6-8.9zm-10.1 9.8-5.6 5.8 15.1 15.1c1.7-1.8 3.1-4.3 4.2-7.3s1.7-5.8 1.7-8.3c0-1.2 0-2.2-.1-2.6-1.8.6-3.5.9-5.3.9-3.5 0-6.9-1.2-10-3.6zm-8 8.2-5.8 5.6c1 1.3 1.7 2.9 2.4 4.9.6 2 1 3.8 1 5.3 0 1.9-.4 3.6-.8 5.2.9.1 1.9.1 2.8.1 5.8 0 11-2 15.5-5.9zm-19.2 2.5c-1.6 0-3 .4-4.4.8 1.1 3.6 2.9 7 5.3 9.7l7.6-7.6c-2.5-1.9-5.3-2.9-8.5-2.9zm10.9 5.7-7.4 7.4c2.5 2 5.5 3.6 9 4.6 1.5-4.3.9-8.2-1.6-12z"/></svg>