<svg enable-background="new 0 0 48 48" viewBox="0 0 48 48" xmlns="http://www.w3.org/2000/svg"><path d="m.9 30.2c1.4-.5 2.9-.8 4.4-.8 3.2 0 6 1 8.4 3l-7.6 7.6c-2.3-2.8-4.1-6.2-5.2-9.8zm31.6-11.5c4.7 3.5 9.8 4.4 15.2 2.6.1.5.1 1.4.1 2.6 0 2.5-.6 5.3-1.7 8.3s-2.5 5.5-4.2 7.3l-15-15zm-16.3 16.4c2.5 3.7 3.1 7.7 1.6 12-3.5-1-6.5-2.5-9-4.6zm8.3-8.2 15.1 15.2c-5.3 4.6-11.4 6.5-18.3 5.8.5-1.6.8-3.2.8-5.2 0-1.4-.4-3.2-1-5.3-.7-2-1.4-3.6-2.4-4.9zm-8.2 3.1c-2.3-1.9-4.8-3.2-7.8-3.7-2.9-.6-5.8-.4-8.4.5.1-.6-.1-1.5-.1-2.8 0-2.5.6-5.3 1.7-8.3s2.5-5.5 4.2-7.3l15.9 16.1zm16.2-16.2c-3.2-4-4-8.3-2.3-12.9 1.4.4 3.2 1.1 5.2 2.2 1.9 1.1 3.5 2.2 4.7 3.2zm14.6 4c-1.4.5-2.9.8-4.4.8-2.6 0-5.2-.8-7.6-2.4l7.4-7.3c2.1 2.5 3.7 5.5 4.6 8.9zm-22.6 4-16.1-15.9c5.3-4.6 11.4-6.5 18.3-5.8-.5 1.6-.8 3.2-.8 5.2 0 1.7.4 3.7 1.2 5.9s1.8 3.8 2.9 5.2z"/></svg>