<svg enable-background="new 0 0 48 48" viewBox="0 0 48 48" xmlns="http://www.w3.org/2000/svg"><path d="m45.5 23.8v11.6l-14.5 5.4v-11.7zm1.7-3.1c-.1 0-.3 0-.5.1l-16.5 6c-.8.2-1.7 1.2-1.7 2.2v13.8c0 .7.6 1.1 1.2 1.1.1 0 .3 0 .4-.1l16.5-6.1c.8-.4 1.3-1.3 1.3-2.2v-13.7c.2-.7-.2-1.1-.7-1.1z"/><path d="m17.3 11.9 2.3 1.9-8.8 3.7-2.3-2.3zm0-2.5c-.3 0-.6.1-.9.2l-11.2 4.1c-.7.2-1 1-.4 1.6l4.2 4.1c.4.4 1 .7 1.7.7.3 0 .6-.1.9-.2l11.3-4.7c.7-.4.8-1 .2-1.6l-4.2-3.6c-.4-.4-1-.6-1.6-.6z"/><path d="m24.4 18.6 6.9 3.4-2.3.8c-2.5.7-4.4 3.3-4.4 5.9v4.7l-18.7-9.8c-.1 0-.2-.2-.3-.3v-2.1l.7.7c1 1.2 2.7 1.9 4.5 1.9h.1c.7 0 1.4-.1 2.1-.4h.1.1zm0-2.8c-.2.2-.5.4-.8.5l-11.4 4.7c-.4.1-.8.2-1.3.2 0 0 0 0-.1 0-1 0-2-.4-2.6-1.1l-2.9-2.8s-2.2.5-2.2 2.5v3.7c0 .8 1 1.8 1.7 2.2l22.4 11.7v-8.8c0-1.6 1.3-3.1 2.6-3.5l7.9-2.9z"/><path d="m18.6 4.1c-.1 0-.3 0-.4.1l-16.5 6c-.8.2-1.7 1.2-1.7 2.2v13.8c0 .7.6 1.1 1.2 1.1.1 0 .3 0 .4-.1l1.4-.5c-1-.7-1.7-1.8-1.7-2.9v-3.7c0-1.9 1.4-3.1 2.5-3.6l-.1-.1c-.6-.6-1-1.4-.7-2.3.1-1 .7-1.6 1.6-1.9l11.2-4.1c.4-.1.8-.2 1.3-.2.8 0 1.6.2 2.3.6v-3.3c.1-.7-.2-1.1-.8-1.1z"/></svg>