<svg enable-background="new 0 0 48 48" viewBox="0 0 48 48" xmlns="http://www.w3.org/2000/svg"><path d="m46.7 20.8-16.5 6c-.8.2-1.7 1.2-1.7 2.2v13.8c0 .8.8 1.3 1.7 1.1l16.5-6.1c.8-.4 1.3-1.3 1.3-2.2v-13.8c0-.9-.4-1.3-1.3-1z"/><path d="m16.4 9.6-11.2 4.1c-.7.2-1 1-.4 1.6l4.2 4.1c.6.6 1.7.8 2.5.5l11.3-4.7c.7-.4.8-1 .2-1.6l-4.1-3.6c-.6-.6-1.6-.8-2.5-.4z"/><path d="m24.4 15.8c-.2.2-.5.4-.8.5l-11.4 4.7c-.4.1-.8.2-1.3.2 0 0 0 0-.1 0-1 0-2-.4-2.6-1.1l-2.9-2.8s-2.2.5-2.2 2.5v3.7c0 .8 1 1.8 1.7 2.2l22.4 11.7v-8.8c0-1.6 1.3-3.1 2.6-3.5l7.9-2.9z"/><path d="m1.5 23.9v-3.7c0-1.9 1.4-3.1 2.5-3.6l-.1-.1c-.6-.6-1-1.4-.7-2.3.1-1 .7-1.6 1.6-1.9l11.2-4.1c.4-.1.8-.2 1.3-.2.8 0 1.6.2 2.3.6v-3.4c0-.8-.5-1.3-1.3-1.1l-16.5 6c-.9.3-1.8 1.3-1.8 2.2v13.8c0 .8.8 1.3 1.7 1.1l1.4-.5c-.9-.7-1.6-1.7-1.6-2.8z"/></svg>