<svg enable-background="new 0 0 48 48" viewBox="0 0 48 48" xmlns="http://www.w3.org/2000/svg"><path d="m12 12h24v24h-24z" fill="none"/><path d="m31 11.5c2.2 0 4-1.8 4-4s-1.8-4-4-4-4 1.8-4 4 1.8 4 4 4zm-21 13c-5.6 0-10 4.4-10 10s4.4 10 10 10 10-4.4 10-10-4.4-10-10-10zm0 17c-3.8 0-7-3.2-7-7 0-3.7 3.2-7 7-7s7 3.2 7 7c-.1 3.8-3.2 7-7 7zm11.6-20 4.8-4.8 1.6 1.6c2.6 2.6 6 4.2 10.2 4.2v-4c-3 0-5.4-1.2-7.2-3l-3.8-3.8c-1-.8-2-1.2-3.2-1.2s-2.2.4-2.8 1.2l-5.5 5.6c-.8.8-1.2 1.8-1.2 2.8 0 1.2.4 2.2 1.2 2.8l6.4 5.6v10h4v-12.3zm16.4 3c-5.6 0-10 4.4-10 10s4.4 10 10 10 10-4.4 10-10-4.4-10-10-10zm0 17c-3.8 0-7-3.2-7-7 0-3.7 3.2-7 7-7s7 3.2 7 7-3.2 7-7 7z"/></svg>