<svg enable-background="new 0 0 48 48" viewBox="0 0 48 48" xmlns="http://www.w3.org/2000/svg"><path d="m23.9 12c1.6 0 3 .3 4.4.8 1.1-.9 2-2 2.5-3.4-2.1-.9-4.5-1.4-6.9-1.4s-4.7.5-6.8 1.4c.5 1.4 1.4 2.5 2.5 3.4 1.3-.5 2.8-.8 4.3-.8zm-10.4 27.3c1-1 1.7-2.2 2-3.5-2.7-2.2-4.6-5.4-4.9-9.1-.7-.2-1.4-.4-2.2-.4-.6 0-1.3.1-1.9.3.4 5.1 3.1 9.7 7 12.7zm18.7-3.6c.3 1.3 1 2.6 2 3.5 4-3 6.6-7.6 6.9-12.8-.6-.2-1.2-.3-1.9-.3-.8 0-1.5.2-2.2.4-.2 3.8-2 7-4.8 9.2zm9.5-17.1c-1.5-.9-3-1.4-4.6-1.7.5-1.5.8-3 .8-4.7 0-3.4-1.2-6.7-3.4-9.4-.2-.3-.6-.3-.8-.2-.3.2-.4.5-.3.8.4 1.2.6 2.2.6 3.2 0 5.7-4.5 10.2-10 10.2s-10-4.6-10-10.2c0-1 .2-2.1.6-3.2.1-.3 0-.7-.3-.8-.3-.2-.6-.1-.8.2-2.2 2.6-3.4 5.9-3.4 9.4 0 1.7.3 3.2.8 4.7-1.6.3-3.1.8-4.6 1.7-2.9 1.7-5.1 4.4-6.2 7.7-.1.3 0 .6.3.8s.6.1.8-.1c.8-.9 1.6-1.6 2.4-2.1 4.8-2.8 10.9-1.1 13.7 3.8s1.1 11.2-3.7 14c-.9.5-1.8.9-3 1.1-.3.1-.5.4-.5.7s.2.6.5.7c3.3.7 6.7.1 9.6-1.6 1.5-.9 2.7-2 3.8-3.3 1 1.3 2.3 2.5 3.8 3.3 2.9 1.7 6.3 2.3 9.6 1.6.3-.1.5-.3.5-.7 0-.3-.2-.6-.5-.7-1.2-.2-2.1-.6-3-1.1-4.8-2.8-6.4-9.1-3.7-14s8.9-6.6 13.7-3.8c.9.5 1.7 1.2 2.4 2.1.2.2.6.3.8.1.3-.2.4-.5.3-.8-1.1-3.2-3.3-6-6.2-7.7zm-17.8 10.8c-2.2 0-4-1.8-4-4s1.8-4 4-4 4 1.8 4 4-1.8 4-4 4z"/></svg>