<svg enable-background="new 0 0 48 48" viewBox="0 0 48 48" xmlns="http://www.w3.org/2000/svg"><path d="m15.7 28.8-4 8.4c-.2.4-.1.8.1 1.2.2.2.5.4.8.4h.2l7.3-1.9c.7-.2 1.3-.8 1.6-1.6l2-10.1c-1.9 1.9-4.4 3.7-7.4 3.7-.1 0-.3 0-.6-.1z"/><path d="m35 38.8c.4 0 .6-.1.8-.4.2-.4.4-.8.1-1.2l-4-8.4c-.2 0-.5 0-.7 0-2.9 0-5.5-1.8-7.4-3.7l2 10.1c.1.8.7 1.4 1.6 1.6l7.3 1.9c.1.1.2.1.3.1z"/><path d="m25.6 24.4c1.6 1.4 3.5 2.8 5.6 2.8 4.8 0 5.6-3 5.6-6.6s-.7-6.6-5.6-6.6c-2.3 0-4.4 1.4-6 3.1.8.4 1.4 1.2 1.4 2.2v3.2c.2.8-.3 1.5-1 1.9z"/><path d="m10.8 20.5c0 3.6.7 6.6 5.6 6.6 2.2 0 4.1-1.3 5.6-2.8-.7-.4-1.2-1.2-1.2-2v-3.1c0-1 .6-1.8 1.4-2.2-1.6-1.6-3.7-3.1-6-3.1-4.6 0-5.4 3-5.4 6.6z"/><path d="m21.8 19.2v3.2c0 .8.6 1.4 1.4 1.4h1.2c.8 0 1.4-.6 1.4-1.4v-3.2c0-.8-.6-1.4-1.4-1.4h-1.2c-.8 0-1.4.6-1.4 1.4z"/><path d="m16.4 12.4c1.2 0 2.4.4 3.7 1v-13.4h-17c-1.7 0-3.1 1.4-3.1 3.1v17h9.2c.2-2.5.5-7.7 7.2-7.7z"/><path d="m48 3.1c0-1.7-1.4-3.1-3.1-3.1h-17v13.2c1.1-.6 2.3-.8 3.4-.8 6.7 0 7.2 5.3 7.2 7.8h9.5z"/><path d="m12.7 40.3c-.8 0-1.6-.4-2-1-.6-.8-.8-1.9-.4-2.9l3.8-8.2c-.6-.1-1.1-.4-1.6-.6h-12.5v17c0 2 1.4 3.4 3.1 3.4h17v-9.5l-6.7 1.8c-.2 0-.4 0-.7 0z"/><path d="m37.4 36.6c.5 1 .2 2-.4 2.9-.5.6-1.2 1-2 1-.2 0-.5 0-.7-.1l-6.5-1.7v9.3h17c1.7 0 3.1-1.4 3.1-3.1v-17h-12.7c-.5.2-1 .5-1.6.6z"/></svg>