<svg enable-background="new 0 0 48 48" viewBox="0 0 48 48" xmlns="http://www.w3.org/2000/svg"><path d="m20.2 30.7-.8 3.8-4.2 1.1 2-4.2c1.1-.1 2-.3 3-.7m3.7-5.5c-1.9 1.9-4.4 3.7-7.4 3.7-.2 0-.5 0-.7-.1l-4 8.4c-.2.4-.1.8.1 1.2.2.2.5.4.8.4h.2l7.3-1.9c.7-.2 1.3-.8 1.6-1.6z"/><path d="m27.5 30.6c.9.4 1.9.6 2.9.7l2 4.2-4.1-1.1zm-3.6-5.5 2 10.1c.1.8.7 1.4 1.6 1.6l7.3 1.9c0 .1.1.1.2.1.4 0 .6-.1.8-.4.2-.4.4-.8.1-1.2l-4-8.4c-.2 0-.5 0-.7 0-2.8 0-5.4-1.8-7.3-3.7z"/><path d="m31.2 16.4c2.5 0 3.1.5 3.1 4.1 0 3.5-.8 4.1-3.1 4.1-.7 0-1.4-.2-2.2-.7.1-.5.2-1 .1-1.6v-3.1c0-.7-.1-1.3-.4-1.9.9-.6 1.8-.9 2.5-.9m0-2.5c-2.3 0-4.4 1.4-6 3.1.8.4 1.4 1.2 1.4 2.2v3.2c.1.8-.4 1.6-1.1 1.9 1.6 1.4 3.5 2.8 5.6 2.8 4.8 0 5.6-3 5.6-6.6s-.6-6.6-5.5-6.6z"/><path d="m16.3 16.4c.7 0 1.6.3 2.4.9-.2.6-.4 1.2-.4 1.9v3.1c0 .5.1 1.1.3 1.6-.8.5-1.5.7-2.2.7-2.5 0-3.1-.5-3.1-4.1 0-3.7.9-4.1 3-4.1m0-2.5c-4.7 0-5.5 3-5.5 6.6s.7 6.6 5.6 6.6c2.2 0 4.1-1.3 5.6-2.8-.7-.4-1.2-1.2-1.2-2v-3.1c0-1 .6-1.8 1.4-2.2-1.4-1.5-3.6-3.1-5.9-3.1z"/><path d="m24.5 17.8h-1.2c-.8 0-1.4.6-1.4 1.4v3.2c0 .8.6 1.4 1.4 1.4h1.2c.8 0 1.4-.6 1.4-1.4v-3.2c0-.8-.6-1.4-1.4-1.4z"/><path d="m17.7 2.5v7.4c-.4-.1-.8-.1-1.2-.1-5.3 0-8.5 2.6-9.4 7.8h-4.6v-14.5c0-.3.3-.6.6-.6zm2.5-2.5h-17c-1.8 0-3.2 1.4-3.2 3.1v17h9.2c.1-2.5.5-7.8 7.2-7.8 1.2 0 2.4.4 3.7 1v-13.3z"/><path d="m44.9 2.5c.3 0 .6.3.6.6v14.5h-4.8c-.8-5-4.2-7.8-9.5-7.8-.3 0-.5 0-.9 0v-7.3zm0-2.5h-17v13.2c1.1-.6 2.3-.8 3.4-.8 6.7 0 7.2 5.3 7.2 7.8h9.5v-17c0-1.8-1.4-3.2-3.1-3.2z"/><path d="m10.5 30.2-2.4 5.2c-.8 1.7-.6 3.7.6 5.4v.1.1c1 1.2 2.4 1.9 4 1.9h.7.3l.3-.1 3.6-1v3.7h-14.5c-.3 0-.6-.3-.6-.7v-14.6zm2.1-2.5h-12.6v17c0 1.9 1.4 3.3 3.1 3.3h17v-9.5l-6.7 1.8c-.2 0-.5 0-.7 0-.8 0-1.6-.4-2-1-.6-.8-.8-1.9-.4-2.9l3.8-8.2c-.5 0-1-.2-1.5-.5z"/><path d="m45.5 30.3v14.5c0 .3-.3.6-.6.6h-14.6v-3.6l3.2.8c.6.2 1.2.2 1.5.2 1.6 0 3-.7 4-1.9v-.1-.1c1.2-1.7 1.4-3.7.6-5.4l-2.4-5.2h8.3m2.5-2.3h-12.8c-.5.2-1 .5-1.6.6l3.8 8.2c.5 1 .2 2-.4 2.9-.5.6-1.2 1-2 1-.2 0-.5 0-.7-.1l-6.5-1.7v9.3h17c1.7 0 3.1-1.4 3.1-3.1v-17.1z"/></svg>