<svg enable-background="new 0 0 48 48" viewBox="0 0 48 48" xmlns="http://www.w3.org/2000/svg"><path d="m41.3 34.5h-30.8c-.8 0-1.5.7-1.5 1.5v1.5c0 .8.7 1.5 1.5 1.5h30.8c3.7 0 6.7-3 6.7-6.8v-24c0-4.5-3.7-8.2-8.2-8.2h-31.5c-4.6 0-8.3 3.7-8.3 8.3v28.5c0 .8 0 1.6.2 2.4 1.1 5.3 6 8.9 11.3 8.9h34.9c.8 0 1.5-.7 1.5-1.5v-1.6c0-.8-.7-1.5-1.5-1.5h-35.1c-4 0-7.1-3.4-6.7-7.5.4-3.5 3.6-6 7.1-6h29.6c1.2 0 2.3 1 2.3 2.3-.1 1.2-1.1 2.2-2.3 2.2zm-.5-9h-29.5c-2.5 0-4.9.9-6.8 2.3v-19.5c0-2.1 1.7-3.8 3.8-3.8h31.5c2.1 0 3.8 1.7 3.8 3.8v17.7c-.9-.3-1.8-.5-2.8-.5z"/></svg>