<svg enable-background="new 0 0 48 48" viewBox="0 0 48 48" xmlns="http://www.w3.org/2000/svg"><path d="m0 0h48v48h-48z" fill="none"/><path d="m28.2 2.5v4 1.9h-8.3v-1.8-4.1zm-4.2 15.4 12.3 4.1 3.3 1.1v-.2l1.2.4 2.6.9-3.5 12.4c-1.8-.4-3.7-1.6-5.2-3.3l-1.9-2.1-1.8 2c-2 2.2-4.5 3.5-6.9 3.5s-4.9-1.3-6.9-3.5l-1.9-2.1-1.9 2.1c-1.5 1.7-3.4 2.8-5.2 3.3l-3.5-12.3 2.6-.9 1.1-.3 3.3-1.1zm6.7-17.9h-13.3v6.6h-6.6c-2.4 0-4.3 1.9-4.3 4.3v10.1l-2.8 1c-.6.1-1.1.6-1.3 1.1s-.4 1-.1 1.6l4.2 14.5h.1c3.5 0 6.6-1.9 8.8-4.3 2.2 2.4 5.3 4.3 8.8 4.3s6.6-1.9 8.8-4.3c2.2 2.4 5.3 4.3 8.8 4.3h.1l4.1-14.6c.2-.6.1-1.2-.1-1.7s-.7-1-1.3-1.1l-2.8-1v-10c0-2.4-1.9-4.3-4.3-4.3h-6.6v-6.5zm-19.8 19.6v-8.6h26.2v8.6l-13.1-4.4zm21.7 21.2c-2.6 1.9-5.7 2.8-8.7 2.8s-6.1-.9-8.7-2.8c-2.6 1.9-5.6 2.9-8.8 2.9h-4.3v4.3h4.3c3 0 6-.7 8.8-2.2 2.8 1.5 5.8 2.2 8.8 2.2s6-.7 8.7-2.2c2.8 1.4 5.8 2.2 8.8 2.2h4.3v-4.3h-4.3c-3.1 0-6.2-1.1-8.9-2.9z"/></svg>