<svg enable-background="new 0 0 48 48" viewBox="0 0 48 48" xmlns="http://www.w3.org/2000/svg"><path d="m0 0h48v48h-48z" fill="none"/><path d="m41.4 43.7c-3 0-6.1-1.1-8.8-2.9-5.3 3.7-12.1 3.7-17.4 0-2.6 1.9-5.6 2.9-8.8 2.9h-4.2v4.3h4.3c3 0 6-.7 8.8-2.2 5.5 2.9 12 2.9 17.4 0 2.8 1.4 5.8 2.2 8.8 2.2h4.3v-4.3zm-34.9-4.5h.1c3.5 0 6.6-1.9 8.8-4.3 2.2 2.4 5.3 4.3 8.8 4.3s6.6-1.9 8.8-4.3c2.2 2.4 5.3 4.3 8.8 4.3h.1l4.1-14.6c.2-.6.1-1.2-.1-1.7s-.7-1-1.3-1.1l-2.8-1v-10c0-2.4-1.9-4.3-4.3-4.3h-6.6v-6.5h-13.5v6.6h-6.6c-2.4 0-4.3 1.9-4.3 4.3v10.1l-2.8 1c-.6.1-1.1.6-1.3 1.1s-.4 1-.1 1.6zm4.4-28.3h26.2v8.6l-13.1-4.3-13.1 4.3z"/></svg>