<svg enable-background="new 0 0 48 48" viewBox="0 0 48 48" xmlns="http://www.w3.org/2000/svg"><path d="m20.3 12.6v.7 1.9l1.8.5c6.4 1.9 10.8 7.8 10.8 14.5 0 8.3-6.8 15.1-15.2 15.1h-.2c-8.3 0-15-6.7-15-15 0-6.8 4.3-12.6 10.8-14.5l1.8-.5v-1.9-.7h.7 2.5v-.1h1.3zm17.6-12.6h-2.5v5h2.5zm-13.9 1.9c-4.4 0-8.2 3.6-8.2 8.2v.1h-3.2v3.2c-7.3 2.2-12.6 8.9-12.6 17 0 9.6 7.8 17.5 17.5 17.5h.2c9.7 0 17.6-7.9 17.6-17.6 0-7.9-5.3-14.8-12.6-16.9v-3.2h-3.1c0-2.5 2-4.4 4.4-4.4s4.4 2 4.4 4.4c0 3.1 2.5 5.6 5.6 5.6s5.6-2.5 5.6-5.6v-2h-3.6v1.9c0 1.1-.8 1.9-1.9 1.9s-1.9-.8-1.9-1.9c0-4.5-3.6-8.2-8.2-8.2zm19.8.5-3.6 3.6 1.8 1.8 3.6-3.6zm4.2 7.7h-5v2.5h5z"/></svg>