<svg enable-background="new 0 0 48 48" viewBox="0 0 48 48" xmlns="http://www.w3.org/2000/svg"><path d="m26.9 9.9v.4 1.9l1.8.5c5.6 1.7 9.5 6.9 9.5 12.7 0 1.6-.3 3.2-.9 4.7l-17.1-17.2c.3-.1.6-.2.9-.3l1.8-.5v-1.8-.4h.4 2.5.9zm-13.9 9.4 18 18-1 .4c-1.6.7-3.3 1-5.2 1-7.3 0-13.3-6-13.3-13.3 0-1.9.3-3.4 1-5zm17.5-19.2c-4.1 0-7.3 3.2-7.3 7.3h-2.9v2.9c-1.6.5-3 1.2-4.3 2l21.9 21.9c1.8-2.6 2.8-5.6 2.8-8.9 0-7.2-4.8-13.2-11.3-15.1v-2.8h-2.9c0-2.2 1.8-4 4-4s4 1.8 4 4c0 2.8 2.3 5 5 5s5-2.3 5-5v-1.7h-3.4v1.7c0 1-.7 1.7-1.7 1.7s-1.7-.7-1.7-1.7c.1-4.1-3.3-7.3-7.2-7.3zm-25 8.1-3.2 3.2 8 8c-.8 1.9-1.2 3.8-1.2 6 0 8.7 7.1 15.8 15.8 15.8 2 0 4.1-.4 6.1-1.2l8 8 3.2-3.2z"/></svg>