<svg enable-background="new 0 0 48 48" viewBox="0 0 48 48" xmlns="http://www.w3.org/2000/svg"><path d="m40.8 14.5c2.6 0 4.7 2.1 4.7 4.7 0 1.1-.4 2.2-1.2 3.2l-1.4 1.7 1.5 1.6c.8.8 1.1 1.9 1.1 3.1 0 2.6-2.1 4.7-4.7 4.7s-4.7-2.1-4.7-4.7v-2.3l-2.3-.2c-3.3-.2-6.5-.4-9.8-.4s-6.5.1-9.8.4l-2.3.2v2.3c0 2.6-2.1 4.7-4.7 4.7s-4.7-2.1-4.7-4.7c0-1.1.4-2.2 1.2-3.2l1.4-1.7-1.5-1.6c-.8-.8-1.1-1.9-1.1-3.1 0-2.6 2.1-4.7 4.7-4.7s4.7 2.1 4.7 4.7v2.3l2.3.2c3.3.2 6.5.4 9.8.4 2.2 0 4.4-.1 6.5-.2 1.1-.1 2.1-.1 3.2-.1l2.4-.1v-2.4c0-2.7 2.1-4.8 4.7-4.8m0-2.5c-4 0-7.2 3.2-7.2 7.2-3.2.1-6.4.4-9.6.4s-6.4-.1-9.6-.4c0-4-3.2-7.2-7.2-7.2s-7.2 3.2-7.2 7.2c0 1.8.6 3.5 1.8 4.8-1.1 1.3-1.8 3-1.8 4.8 0 4 3.2 7.2 7.2 7.2s7.2-3.2 7.2-7.2c3.2-.2 6.4-.4 9.6-.4s6.4.1 9.6.4c0 4 3.2 7.2 7.2 7.2s7.2-3.2 7.2-7.2c0-1.8-.6-3.5-1.8-4.8 1.1-1.3 1.8-3 1.8-4.8 0-4-3.2-7.2-7.2-7.2z"/></svg>