<svg enable-background="new 0 0 48 48" viewBox="0 0 48 48" xmlns="http://www.w3.org/2000/svg"><path d="m23.9 46.8c-1.2 0-2.2-1-2.2-2.2v-.1c0-.1.1-.3.1-.5l1.7-9.9c0-.1.2-.3.4-.3s.4.2.4.5l1.7 9.8.1.2v.3c0 1.1-1 2.2-2.2 2.2z"/><path d="m23.9 38.9.9 5.2.1.4c0 .5-.4 1-1 1-.5 0-.9-.4-1-.8 0-.1.1-.3.1-.6zm0-6.4c-.8 0-1.6.6-1.7 1.3l-1.7 10c0 .2-.1.5-.1.7 0 1.9 1.6 3.5 3.5 3.5s3.5-1.6 3.5-3.5c0-.4 0-.6-.1-.8l-1.7-9.6c-.2-.9-.9-1.6-1.7-1.6z"/><path d="m36.7 41.8c-.3 0-.6-.1-.8-.3-.2-.3-.3-.4-.4-.5l-5.2-7c0-.1-.1-.1-.1-.1.1 0 .2 0 .2.1l6.9 5.1c.1.1.3.3.5.4.2.2.3.4.3.6 0 .5-.1 1-.5 1.3-.2.3-.6.4-.9.4z"/><path d="m36 39.5.5.4.1.1.3.3c0 .1 0 .1-.1.2 0 0 0 0-.1 0-.1-.2-.2-.3-.3-.4zm-5.7-6.9c-.3 0-.7.1-.9.4-.5.5-.5 1.1-.1 1.7l5.3 7.1c.1.1.2.2.4.5.4.5 1.1.8 1.8.8s1.4-.2 1.9-.8c1.1-1.2 1.1-3 0-3.8-.2-.1-.4-.4-.6-.5l-6.8-5c-.4-.3-.7-.4-1-.4z"/><path d="m36.8 30.8c-.4 0-.8.2-.8.6-.1.4.1.7.5 1l6.2 1.9c.1 0 .3.1.4.1.7 0 1.5-.5 1.5-1.3-.1-1.3-.4-1.9-1.4-2z"/><path d="m11.3 30.9c-.1 0-.1 0-.2 0l-6.4.1c-1 .1-1.3.7-1.3 2 0 .8.7 1.3 1.4 1.3.2 0 .3 0 .5-.1l6.1-1.8c.4-.1.6-.6.5-1 0-.2-.3-.5-.6-.5z"/><path d="m11.1 41.7c-.3 0-.7-.2-1-.4-.6-.6-.6-1.4 0-2 .2-.2.2-.2.3-.2h.1l7-5.2.1-.1v.1l-5.4 7.1v.1c0 .1 0 .1-.1.2-.3.2-.7.4-1 .4z"/><path d="m11.6 39.7-.3.5-.1.2v.1s-.1 0-.1-.1c0 0-.1-.1-.1-.1s0-.1.1-.1c0 0 .1-.1.1-.1h.1l.2-.1zm5.9-7.1c-.3 0-.6.1-.8.3l-6.8 5c-.2.1-.4.2-.6.5-1.1 1.1-1.1 2.6 0 3.7.5.5 1.2.8 1.9.8s1.3-.3 1.9-.8c.1-.1.2-.2.4-.5l5.3-7.1c.4-.5.2-1.2-.1-1.7-.5-.1-.8-.2-1.2-.2z"/><path d="m26.4 3.3c2.3 1.2 5.4 3.6 5.4 7 0 2.6-.7 4.7-4.3 7.2-.8.5-1.7 1.1-2.6 1.6-3 1.8-6.6 4-8.8 7.9-1-1.2-2-3.1-1.6-6.1.4-2.6 2.7-4.8 5.1-7.3 2.9-2.8 6.1-5.9 6.8-10.3m-2.4-3.3c1.3 9.1-10.9 12.8-12 20.5-1.1 7.8 5.2 10.3 5.2 10.3 1.8-6.4 7.8-8.5 11.8-11.3 4.3-3 5.4-5.9 5.4-9.2-.1-6.6-7.9-10.3-10.4-10.3z"/><path d="m31.8 23.6c-1.4 3.9-3.4 4.7-6 4.7-.3 0-.7 0-1.1-.2.7-.6 1.6-1.2 2.7-1.8.4-.3.9-.5 1.4-.8.6-.3 1.1-.6 1.7-1 .5-.3.9-.6 1.3-.9m2.5-6.4c-1 2-2.8 3.7-5 5.2-1 .6-2.2 1.2-3.1 1.8-2 1.2-3.7 2.4-5 4 1.2 1.9 3 2.8 4.7 2.8 3.7 0 6.7-1.6 8.5-6.8.4-1.9.4-5.5-.1-7z"/><path d="m16.1 3.3c-.2 0-.4 0-.6 0 .2 3.4-3.2 5-3.5 7.4-.1 1.4.2 2.5.8 2.9 1.2-1.7 2.6-2.8 4.1-4.1 1.4-1.4 2.4-2.4 3-3.6-1-1.9-2.5-2.6-3.8-2.6z"/></svg>