<svg enable-background="new 0 0 48 48" viewBox="0 0 48 48" xmlns="http://www.w3.org/2000/svg"><path d="m25.5 34.1c-.1-.8-.8-1.6-1.7-1.6-.8 0-1.6.6-1.7 1.3l-1.7 10c0 .2-.1.5-.1.7 0 1.9 1.6 3.5 3.5 3.5s3.5-1.6 3.5-3.5c0-.4 0-.6-.1-.8z"/><path d="m38.6 38.4c-.2-.1-.4-.4-.6-.5l-6.8-5c-.6-.4-1.3-.4-1.8.1s-.5 1.1-.1 1.7l5.3 7.1c.1.1.2.2.4.5.8 1 2.6 1.1 3.7 0 1-1.3 1-3.1-.1-3.9z"/><path d="m43.2 31.1-6.4-.2c-.4 0-.8.2-.8.6-.1.4.1.7.5 1l6.2 1.9c.8.2 1.9-.2 1.9-1.2-.1-1.4-.3-2-1.4-2.1z"/><path d="m11.5 32.5c.4-.1.6-.6.5-1-.1-.5-.5-.7-.8-.6l-6.4.1c-1 .1-1.3.7-1.3 2 0 1 1 1.4 1.9 1.2z"/><path d="m16.7 32.9-6.8 5c-.2.1-.4.2-.6.5-1.1 1.1-1.1 2.6 0 3.7s2.6 1.1 3.7 0c.1-.1.2-.2.4-.5l5.3-7.1c.4-.5.2-1.2-.1-1.7-.6-.3-1.5-.4-1.9.1z"/><path d="m34.3 10.3c0-6.6-7.8-10.3-10.3-10.3 1.3 9.1-10.9 12.8-12 20.5-1.1 7.8 5.2 10.3 5.2 10.3 1.8-6.4 7.8-8.5 11.8-11.3 4.2-2.9 5.3-5.8 5.3-9.2z"/><path d="m34.3 24c.5-1.7.5-5.3 0-6.8-1 2-2.8 3.7-5 5.2-1 .6-2.2 1.2-3.1 1.8-2 1.2-3.7 2.4-5 4 1.2 1.9 3 2.8 4.7 2.8 3.6-.2 6.6-1.7 8.4-7z"/><path d="m12.8 13.7c1.2-1.7 2.6-2.8 4.1-4.1 1.4-1.4 2.4-2.4 3-3.6-1.2-2.3-3-2.9-4.4-2.6.2 3.4-3.2 5-3.5 7.4-.1 1.4.2 2.5.8 2.9z"/></svg>