<svg enable-background="new 0 0 48 48" viewBox="0 0 48 48" xmlns="http://www.w3.org/2000/svg"><path d="m32.5 15c-.1-3.4-2-5.5-1.8-9 .2-3.2 2.1-6 5.3-6 3.1 0 5.1 2.8 5.3 6 .2 3.5-1.7 5.7-1.8 9zm12.1 15c-1-4.5-3.7-7.8-4.8-12h-7.7c-1 4.2-3.7 7.5-4.8 12-1.1 4.8.1 13.2 2.5 18h12.2c2.6-4.8 3.7-13.2 2.6-18zm-29.1-15c.1-3.4 2-5.5 1.8-9-.2-3.2-2.1-6-5.2-6-3.2 0-5.2 2.8-5.3 6-.2 3.5 1.7 5.6 1.8 9zm.4 3h-7.7c-1 4.2-3.8 7.5-4.8 12-1.1 4.8 0 13.2 2.5 18h12.2c2.4-4.8 3.6-13.2 2.5-18-1-4.5-3.7-7.8-4.7-12z"/></svg>