<svg enable-background="new 0 0 48 48" viewBox="0 0 48 48" xmlns="http://www.w3.org/2000/svg"><path d="m46.8 28.9c-1.3-5.1-4.6-8.2-5-12.4-.3-2.9 2-5 1.8-9-.4-4.3-3.5-7.5-7.6-7.5s-7.2 3.2-7.5 7.5c-.3 4 2 6.1 1.8 9-.4 4.2-3.8 7.3-5 12.4-1.2 4.9 0 13.1 2.7 18l.6 1.2h14.8l.6-1.2c2.8-4.9 4-13.1 2.8-18zm-7.8-21.1c.1 2.3-1.4 4.1-1.7 7.2h-2.6c-.3-3.1-1.9-4.9-1.7-7.2.3-4.4 5.7-4.4 6 0zm1.7 35.7h-9.4c-1.8-4-2.6-10-1.7-13.5 1-4 4.1-7 5-12h2.9c.9 4.9 4 7.9 5 12 .8 3.5 0 9.5-1.8 13.5zm-23-27c-.3-2.9 2-5 1.8-9-.3-4.3-3.4-7.5-7.5-7.5s-7.2 3.2-7.5 7.5c-.3 4 2 6.1 1.8 9-.4 4.2-3.8 7.3-5 12.4-1.2 4.9 0 13.1 2.7 18l.6 1.1h14.8l.6-1.2c2.7-4.8 3.9-13 2.7-18s-4.5-8.1-5-12.3zm-2.7-8.7c.1 2.3-1.4 4-1.7 7.2h-2.6c-.3-3.1-1.9-4.9-1.7-7.2.3-4.4 5.7-4.4 6 0zm1.7 35.7h-9.4c-1.8-4-2.6-10-1.7-13.5 1-4 4.1-7 5-12h2.9c.9 5 4 7.9 5 12 .8 3.5 0 9.5-1.8 13.5z"/></svg>