<svg enable-background="new 0 0 48 48" viewBox="0 0 48 48" xmlns="http://www.w3.org/2000/svg"><path d="m20.5 19.3s.8-.5 2.2-.7c2.3-.5 4.2-.6 5 1 1.1 1.8 1.9 5.8 1.8 9.1-.1 1.8-.5 2.4-.5 2.4s-1.7 1.1-5 .7c-3.7-.4-4.3-1.6-4.3-1.6s.5-1.2.8-4.6c.5-3.4 0-6.3 0-6.3z"/><path d="m16.3 27.1c1.3-.4 2.5-.7 3-1 .1-.5.1-1.1.2-1.6 0-.4 0-.7.1-1.1-.7-.2-1.4-.5-3.1-1.1-4.2-1.4-6.1-1.8-6.1-1.8s1.6-.1 4.6.5c2.2.5 3.7 1 4.7 1.6.1-1.7-.2-3.5-.2-3.5-2.5-4.3-9.9-10.3-13.7-10.3-3-.3-5.8 7.2-5.8 15.2s2.5 15.5 5.5 15.5c3.6 0 12.5-8.5 12.5-8.5s.6-1.3 1.1-3.6c-2 .6-6.8 1-6.8 1s2.2-.8 4-1.3z"/><path d="m42.4 8.5c-3.8 0-10.9 6-13.3 10.3l-.2.2s.1.2.2.4c.4.6.7 1.6 1 2.5.8-.4 2.5-.8 4.1-1.4 2.2-.7 3.7-1 3.7-1s-5.6 2.5-7.4 3.7c.2 1.1.4 2.3.5 3.5.6.2 1.8.7 3.2 1.1 2 .5 4.3 1.2 4.3 1.2s-5.8-.6-7.6-1.3v1c-.1 1.8-.5 2.4-.5 2.4.8 1.1 8 8.4 12 8.4 3 0 5.5-7.3 5.5-15.5s-2.7-15.5-5.5-15.5z"/></svg>