<svg enable-background="new 0 0 48 48" viewBox="0 0 48 48" xmlns="http://www.w3.org/2000/svg"><path d="m25.1 20.3c.7 0 .8.2.8.2v.1c.8 1.4 1.6 4.9 1.5 8 0 .4-.1.8-.1 1-.4.1-1.1.3-2.1.3-.4 0-.7 0-1.1-.1-1.1-.1-1.8-.3-2.2-.4.2-.8.4-1.9.5-3.5.3-2.1.3-4 .2-5.3.1 0 .2-.1.4-.1h.1c.9-.1 1.5-.2 2-.2m0-2c-.7 0-1.6.1-2.5.3-1.3.2-2.2.7-2.2.7s.5 2.9 0 6.4c-.4 3.4-.8 4.6-.8 4.6s.6 1.2 4.3 1.6c.5.1.9.1 1.3.1 2.5 0 3.7-.8 3.7-.8s.4-.6.5-2.4c.1-3.4-.7-7.3-1.8-9.1-.4-1.1-1.3-1.4-2.5-1.4z"/><path d="m5.6 10.8h.1c2.7 0 9.2 4.9 11.6 8.8-.6-.2-1.2-.3-2-.5-1.8-.4-3.2-.4-4-.4-.7 0-1.1.1-1.2.1-1 .1-1.7 1-1.7 1.9 0 1 .7 1.8 1.6 2 0 0 1.9.4 5.8 1.7.5.2.9.3 1.3.5-.4.1-.8.2-1.4.4-1.8.5-4.1 1.2-4.2 1.2-1 .3-1.6 1.3-1.4 2.3.2.9 1 1.6 2 1.6h.2c.3 0 2-.2 3.8-.4-4 3.7-9.1 7.6-10.6 7.6-1-.4-3.5-5.5-3.5-13.6 0-7.9 2.6-12.9 3.6-13.2m0-2c-2.9 0-5.6 7.3-5.6 15.2 0 8 2.5 15.5 5.5 15.5 3.6 0 12.5-8.5 12.5-8.5s.6-1.3 1.1-3.6c-2 .6-6.8 1-6.8 1s2.3-.7 4.1-1.2c1.3-.4 2.5-.7 3-1 .1-.5.1-1.1.2-1.6 0-.4 0-.7.1-1.1-.7-.2-1.4-.5-3.1-1.1-4.2-1.4-6.1-1.8-6.1-1.8s.3 0 .9 0c.8 0 2 .1 3.6.4 2.2.5 3.7 1 4.7 1.6.1-1.7-.2-3.5-.2-3.5-2.5-4.3-9.9-10.3-13.7-10.3-.1 0-.1 0-.2 0z"/><path d="m42.3 10.5c1.1.4 3.7 5.4 3.7 13.4 0 8.2-2.5 13.2-3.5 13.5-2.4 0-7.7-4.7-9.8-6.9 0-.1 0-.2.1-.4 2.2.4 4.8.7 5.5.8h.2c.9 0 1.8-.7 2-1.6.2-1-.4-2-1.4-2.3-.1 0-2.4-.7-4.4-1.2-.7-.2-1.3-.4-1.9-.6 0-.3-.1-.7-.1-1 1.8-1 4.8-2.4 6-2.9.9-.4 1.4-1.4 1.1-2.4-.3-.9-1-1.4-1.9-1.4-.1 0-.2 0-.3 0s-1.8.3-4 1h-.1c-.7.3-1.4.5-2.1.7 0-.1-.1-.2-.1-.2 2.5-3.8 8.4-8.4 11-8.5m.1-2c-3.8 0-10.9 6-13.3 10.3l-.2.2s.1.2.2.4c.4.6.7 1.6 1 2.5.8-.4 2.5-.8 4.1-1.4 2.2-.7 3.7-1 3.7-1s-5.6 2.5-7.4 3.7c.2 1.1.4 2.3.5 3.5.6.2 1.8.7 3.2 1.1 2 .5 4.3 1.2 4.3 1.2s-5.8-.6-7.6-1.3v1c-.1 1.8-.5 2.4-.5 2.4.8 1.1 8 8.4 12 8.4 3 0 5.5-7.3 5.5-15.5s-2.7-15.5-5.5-15.5z"/></svg>