<svg enable-background="new 0 0 48 48" viewBox="0 0 48 48" xmlns="http://www.w3.org/2000/svg"><path d="m45.2 21.5c.2-.7.3-1.3.3-2 0-2.9-1.5-5.6-3.9-7.1 0-3.5-2.6-6.4-6-7-1.2-2.4-3.7-4-6.5-4-2 0-3.8.8-5.1 2.1-1.3-1.3-3.1-2.1-5.1-2.1-2.8 0-5.3 1.6-6.5 4-3.4.6-5.9 3.5-6 7-2.4 1.6-3.8 4.2-3.8 7.1 0 .7.1 1.4.3 2-1.8 1.6-2.9 3.9-2.9 6.3 0 2.9 1.5 5.6 3.9 7.1 0 4.2 3.4 7.6 7.6 7.8 1.4 2.4 4 3.8 6.8 3.8 2.3 0 4.3-1 5.8-2.5 1.4 1.6 3.5 2.5 5.8 2.5 2.8 0 5.4-1.5 6.8-3.8 4.2-.2 7.5-3.6 7.6-7.8 2.4-1.6 3.9-4.2 3.9-7.1-.2-2.4-1.3-4.7-3-6.3zm-23.3-7.9c0 2.3-1.6 4.2-3.7 4.8-.3.1-.5.4-.5.7v1.4c0 .4.4.8.9.7 1.3-.3 2.4-.8 3.4-1.6v19.2c0 2-1.6 3.6-3.7 3.6-2.9 0-3.5-2.6-4-4.2l-1.8.3c-2.1.3-4.3-1.4-4.3-3.6 0-.2.4-2.4.4-2.4l-1.6-.7c-3.3-1.3-3.6-5.8-.5-7.6l1.7-1-.9-1.8c-1.5-3.1 1-5.3 2.2-5.8l1.7-.7c-.4-1.9-.5-2-.5-2.4 0-1.7 1.4-3 2.8-3l2 .1.4-1.7c.3-1.3 1.5-2.3 2.9-2.3 1.7 0 3 1.3 3 3zm19.2 18.2-1.6.7s.4 2.2.4 2.4c0 2.2-2.2 3.9-4.3 3.6l-1.8-.3c-.5 1.6-1.1 4.2-4 4.2-2 0-3.7-1.6-3.7-3.6v-19.3c1 .8 2.1 1.4 3.4 1.6.4.1.9-.2.9-.7v-1.4c0-.3-.2-.6-.5-.7-2.1-.5-3.7-2.5-3.7-4.8v-4.9c0-1.7 1.4-3 3-3 1.4 0 2.6.9 2.9 2.3l.4 1.7 2-.1c1.5 0 2.8 1.4 2.8 3 0 .4 0 .5-.5 2.4l1.7.7c1.2.5 3.8 2.7 2.2 5.8l-.9 1.8 1.7 1c3.2 1.8 2.8 6.2-.4 7.6z"/></svg>