<svg enable-background="new 0 0 48 48" viewBox="0 0 48 48" xmlns="http://www.w3.org/2000/svg"><path d="m36.8 10.1c-3.1-4.2-7.7-6.7-12.8-6.7s-9.6 2.5-12.8 6.7c.7 1.7 1.7 3.3 3 4.6 2.7 2.7 6 4 9.8 4s7.1-1.4 9.8-4c1.3-1.3 2.3-2.9 3-4.6z"/><path d="m10.2 11.8c-.2.4-.4.6-.5 1-.4-.2-.6-.4-.8-.6-.1-.1-.4-.5-.5-.8.6-1.3.1-2.7-1.1-3.4s-2.8-.2-3.5 1-.2 2.8 1 3.5c.1.1.2.1.4.2.4.7.8 1.6 1.4 2 .5.4 1 .7 1.7 1.2-.7 2.2-1.2 4.6-1.3 7-1.2 0-2 .2-2.8.5-.5.1-.8.4-1.3.6-.1 0-.2 0-.4 0-1.3 0-2.5 1.2-2.5 2.7s1.2 2.5 2.5 2.5c1.4 0 2.5-1.1 2.5-2.5.6-.1 1.2-.2 1.9-.2.4 3.5 1.4 6.9 3.1 9.6-1.6 1.2-2.4 2.5-2.9 3.9 0 0-.1 0-.2.1s-.2.1-.4.2c-1 1.1-.8 2.7.2 3.6 1.1 1 2.7.8 3.6-.2.8-1 .8-2.4 0-3.4.4-.6.7-1 1.4-1.6 2.9 3.4 6.9 5.5 11.2 5.9v-24.2c-5.5-.3-10.3-3.8-12.7-8.6z"/><path d="m45.6 24c-.1 0-.2 0-.4 0-.4-.2-.8-.5-1.3-.6-.7-.2-1.6-.4-2.8-.5-.1-2.5-.6-4.8-1.3-7 .7-.4 1.2-.7 1.7-1.2.7-.6 1.2-1.4 1.4-2 .1 0 .2-.1.4-.2 1.2-.7 1.7-2.3 1-3.5s-2.3-1.7-3.5-1-1.7 2.2-1.1 3.4c-.1.4-.4.7-.5.8-.2.2-.5.5-.8.6-.1-.4-.4-.6-.5-1-2.4 4.8-7.4 8.3-13 8.6v24.2c4.3-.2 8.2-2.4 11.2-5.9.8.6 1.1 1 1.4 1.6-.8 1-.8 2.4 0 3.4 1 1.1 2.5 1.2 3.6.2s1.2-2.5.2-3.6c0-.1-.2-.3-.3-.3-.1-.1-.2-.1-.2-.1-.4-1.4-1.3-2.8-2.9-3.9 1.7-2.8 2.8-6 3.1-9.6.7 0 1.3.1 1.8.2 0 1.3 1.2 2.5 2.5 2.5 1.4 0 2.5-1.2 2.5-2.5.3-1.4-.9-2.6-2.2-2.6z"/></svg>