<svg enable-background="new 0 0 48 48" viewBox="0 0 48 48" xmlns="http://www.w3.org/2000/svg"><path d="m24 5.9c3.7 0 7.2 1.7 9.8 4.6-.5.9-1.1 1.8-1.8 2.4-2.2 2.1-5 3.3-8 3.3-3.2 0-5.8-1.1-8-3.2-.7-.7-1.3-1.5-1.8-2.5 2.6-3 6.1-4.6 9.8-4.6m0-2.5c-5.1 0-9.6 2.5-12.8 6.7.7 1.7 1.7 3.3 3 4.6 2.7 2.7 6 4 9.8 4 3.7 0 7.1-1.4 9.8-4 1.3-1.3 2.3-2.9 3-4.6-3.1-4.2-7.7-6.7-12.8-6.7z"/><path d="m6 10.1c.1.1.1.1 0 0 .1.1.1.1.1.1v.1c-.1 0-.2-.1-.1-.2zm4.6 6.8c2.6 3 6.1 5 10 5.7v19c-2.6-.8-4.9-2.3-6.8-4.5l-.5-.6-1-1.7c-1.5-2.4-2.5-5.5-2.8-8.6l-.1-.9v-2.3c.1-2 .5-4.1 1.2-6.1m-8.1 9.6v.1c-.1 0-.1 0 0-.1m3.5-18.9c-.9 0-1.8.5-2.3 1.3-.7 1.2-.2 2.8 1 3.5.1.1.2.1.4.2.4.7.8 1.6 1.4 2 .5.4 1 .7 1.7 1.2-.7 2.2-1.2 4.6-1.3 7-1.2 0-2 .2-2.8.5-.5.1-.8.4-1.3.6-.1 0-.2 0-.4 0-1.3 0-2.5 1.2-2.5 2.7 0 1.4 1.2 2.5 2.5 2.5 1.4 0 2.5-1.1 2.5-2.5.6-.1 1.2-.2 1.9-.2.4 3.5 1.4 6.9 3.1 9.6-1.6 1.2-2.4 2.5-2.9 3.9 0 0-.1 0-.2.1s-.2.1-.4.2c-1 1.1-.8 2.7.2 3.6.5.4 1.1.7 1.7.7.7 0 1.4-.3 1.9-.9.8-1 .8-2.4 0-3.4.4-.6.7-1 1.4-1.6 2.9 3.4 6.9 5.5 11.2 5.9v-24.1c-5.7-.2-10.5-3.7-12.9-8.6-.2.4-.4.6-.5 1-.4-.2-.6-.4-.8-.6-.1-.1-.4-.5-.5-.8.9-1.3.4-2.7-.8-3.4-.4-.3-.8-.4-1.3-.4z"/><path d="m42 10.1s.1.1 0 0zm-4.5 6.8c.7 2.1 1.1 4.1 1.2 6.2l.1 1.4-.2 1.8c-.3 3.2-1.3 6.1-2.8 8.6l-1 1.7-.5.6c-2 2.3-4.3 3.9-6.8 4.6v-19.2c3.8-.7 7.3-2.7 10-5.7m7.9 9.6v.1s0 0-.1-.1zm-3.4-18.9c-.4 0-.8.1-1.2.3-1.2.7-1.7 2.2-1.1 3.4-.1.4-.4.7-.5.8-.2.2-.5.5-.8.6-.1-.4-.4-.6-.5-1-2.4 4.8-7.4 8.3-13 8.6v24.2c4.3-.2 8.2-2.4 11.2-5.9.8.6 1.1 1 1.4 1.6-.8 1-.8 2.4 0 3.4.5.6 1.2.9 1.9.9.6 0 1.2-.2 1.7-.7 1.1-1 1.2-2.5.2-3.6 0 0-.2-.2-.3-.2-.1-.1-.2-.1-.2-.1-.4-1.4-1.3-2.8-2.9-3.9 1.7-2.8 2.8-6 3.1-9.6.7 0 1.3.1 1.8.2 0 1.3 1.2 2.5 2.5 2.5 1.4 0 2.5-1.2 2.5-2.5.2-1.4-1-2.7-2.3-2.7-.1 0-.2 0-.4 0-.4-.2-.8-.5-1.3-.6-.7-.2-1.6-.4-2.8-.5-.1-2.5-.6-4.8-1.3-7 .7-.4 1.2-.7 1.7-1.2.7-.6 1.2-1.4 1.4-2 .1 0 .2-.1.4-.2 1.2-.7 1.7-2.3 1-3.5-.4-.8-1.3-1.3-2.2-1.3z"/></svg>