<svg enable-background="new 0 0 48 48" viewBox="0 0 48 48" xmlns="http://www.w3.org/2000/svg"><path d="m15 13.9v-3.8c0-.6.5-1.1 1.1-1.1h3.8c.6 0 1.1.5 1.1 1.1v3.8c0 .6-.5 1.1-1.1 1.1h-3.8c-.6 0-1.1-.5-1.1-1.1zm13.1 1.1h3.8c.6 0 1.1-.5 1.1-1.1v-3.8c0-.6-.5-1.1-1.1-1.1h-3.8c-.6 0-1.1.5-1.1 1.1v3.8c0 .6.5 1.1 1.1 1.1zm-12 9h3.8c.6 0 1.1-.5 1.1-1.1v-3.8c0-.6-.5-1.1-1.1-1.1h-3.8c-.6 0-1.1.5-1.1 1.1v3.8c0 .6.5 1.1 1.1 1.1zm12 0h3.8c.6 0 1.1-.5 1.1-1.1v-3.8c0-.6-.5-1.1-1.1-1.1h-3.8c-.6 0-1.1.5-1.1 1.1v3.8c0 .6.5 1.1 1.1 1.1zm-7.1 7.9v-3.8c0-.6-.5-1.1-1.1-1.1h-3.8c-.6 0-1.1.5-1.1 1.1v3.8c0 .6.5 1.1 1.1 1.1h3.8c.6 0 1.1-.5 1.1-1.1zm7.1 1.1h3.8c.6 0 1.1-.5 1.1-1.1v-3.8c0-.6-.5-1.1-1.1-1.1h-3.8c-.6 0-1.1.5-1.1 1.1v3.8c0 .6.5 1.1 1.1 1.1zm16.9 11.6v3.4h-42v-3.4c0-.6.5-1.1 1.1-1.1h1.9v-41.2c0-1.3 1-2.3 2.2-2.3h31.6c1.2 0 2.2 1 2.2 2.3v41.3h1.8c.7-.1 1.2.4 1.2 1zm-34.5-1.2h10.5v-6.3c0-.6.5-1.1 1.1-1.1h3.8c.6 0 1.1.5 1.1 1.1v6.3h10.5v-38.8l-27-.1z"/></svg>