<svg enable-background="new 0 0 48 48" viewBox="0 0 48 48" xmlns="http://www.w3.org/2000/svg"><path d="m43.9 45h-1.9v-42.7c0-1.3-1-2.3-2.2-2.3h-31.5c-1.3 0-2.3 1-2.3 2.3v42.7h-1.9c-.6 0-1.1.5-1.1 1.1v1.9h42v-1.9c0-.6-.5-1.1-1.1-1.1zm-28.9-37.9c0-.6.5-1.1 1.1-1.1h3.8c.6 0 1.1.5 1.1 1.1v3.8c0 .6-.5 1.1-1.1 1.1h-3.8c-.6 0-1.1-.5-1.1-1.1zm0 9c0-.6.5-1.1 1.1-1.1h3.8c.6 0 1.1.5 1.1 1.1v3.8c0 .6-.5 1.1-1.1 1.1h-3.8c-.6 0-1.1-.5-1.1-1.1zm4.9 13.9h-3.8c-.6 0-1.1-.5-1.1-1.1v-3.8c0-.6.5-1.1 1.1-1.1h3.8c.6 0 1.1.5 1.1 1.1v3.8c0 .6-.5 1.1-1.1 1.1zm7.1 15h-6v-7.9c0-.6.5-1.1 1.1-1.1h3.8c.6 0 1.1.5 1.1 1.1zm6-16.1c0 .6-.5 1.1-1.1 1.1h-3.8c-.6 0-1.1-.5-1.1-1.1v-3.8c0-.6.5-1.1 1.1-1.1h3.8c.6 0 1.1.5 1.1 1.1zm0-9c0 .6-.5 1.1-1.1 1.1h-3.8c-.6 0-1.1-.5-1.1-1.1v-3.8c0-.6.5-1.1 1.1-1.1h3.8c.6 0 1.1.5 1.1 1.1zm0-9c0 .6-.5 1.1-1.1 1.1h-3.8c-.6 0-1.1-.5-1.1-1.1v-3.8c0-.6.5-1.1 1.1-1.1h3.8c.6 0 1.1.5 1.1 1.1z"/></svg>