<svg enable-background="new 0 0 48 48" viewBox="0 0 48 48" xmlns="http://www.w3.org/2000/svg"><path d="m45.3 18.1v-12.8c0-.7-.6-2.7-2.7-2.7-.6 0-1.2.2-1.7.6l-7.1 5.7c-3.6 2.8-8 4.4-12.6 4.4h-16c-2.9 0-5.3 2.4-5.3 5.3v8c.1 3 2.5 5.4 5.4 5.4v2.7c0 3.3.8 6.4 2.1 9.2.4.9 1.4 1.4 2.4 1.4h8.9c2.2 0 3.5-2.5 2.2-4.2-1.4-1.8-2.2-4-2.2-6.5 0-.9.1-1.8.4-2.7h2.3c4.6 0 9 1.6 12.6 4.4l7.1 5.7c.5.4 1.1.6 1.7.6 2.1 0 2.7-1.9 2.7-2.7v-12.6c1.6-.9 2.7-2.6 2.7-4.6-.2-2-1.3-3.7-2.9-4.6zm-34.7 23.2c-.9-2.1-1.4-4.4-1.4-6.7 0-1.2.1-2.1.2-2.7h5.4c-.2.9-.3 1.8-.3 2.7 0 2.4.5 4.6 1.6 6.7zm9.4-13.3h-14.7c-.7 0-1.3-.6-1.3-1.3v-8c0-.7.6-1.3 1.3-1.3h14.7zm21.3 9.2-4.9-3.9c-3.6-2.9-7.9-4.6-12.4-5.1v-11c4.5-.5 8.8-2.3 12.4-5.1l4.9-3.9z"/></svg>