<svg enable-background="new 0 0 48 48" viewBox="0 0 48 48" xmlns="http://www.w3.org/2000/svg"><path d="m48 22.7c0-2-1.1-3.7-2.7-4.6v-12.8c0-.7-.6-2.7-2.7-2.7-.6 0-1.2.2-1.7.6l-7.1 5.7c-3.6 2.8-8 4.4-12.6 4.4h-16c-2.9 0-5.3 2.4-5.3 5.3v8c.1 3 2.5 5.4 5.4 5.4h2.8c-.1.9-.1 1.8-.1 2.7 0 3.3.8 6.4 2.1 9.2.4.9 1.4 1.4 2.4 1.4h6.2c2.2 0 3.5-2.5 2.2-4.2-1.4-1.8-2.2-4-2.2-6.5 0-.9.1-1.8.4-2.7h2.3c4.6 0 9 1.6 12.6 4.4l7.1 5.7c.5.4 1.1.6 1.7.6 2.1 0 2.7-1.9 2.7-2.7v-12.6c1.4-1 2.5-2.7 2.5-4.6zm-8 11.8-2.8-2.2c-4.5-3.6-10.2-5.6-15.9-5.6v-8c5.8 0 11.4-2 15.9-5.6l2.8-2.2z"/></svg>