<svg enable-background="new 0 0 48 48" viewBox="0 0 48 48" xmlns="http://www.w3.org/2000/svg"><path d="m46.8 9c-.8 0-1.2.6-1.2 1.2v6.2h-43v-15.2c0-.7-.6-1.2-1.2-1.2h-.2c-.6 0-1.2.6-1.2 1.2v45.6c0 .7.6 1.2 1.2 1.2.7 0 1.2-.6 1.2-1.2v-6.2h43v6.2c0 .7.6 1.2 1.2 1.2h.2c.7 0 1.2-.6 1.2-1.2v-36.6c0-.6-.6-1.2-1.2-1.2zm-1.2 27h-43v-17h43z"/><path d="m10.4 7.1c1.1 0 1.9.9 1.9 1.9s-.9 1.9-1.9 1.9-1.9-.8-1.9-1.9.9-1.9 1.9-1.9m0-2.5c-2.4 0-4.4 1.9-4.4 4.4s2 4.4 4.4 4.4c2.5 0 4.4-2 4.4-4.4s-1.9-4.4-4.4-4.4z"/><path d="m20.9 7h.2c7.3.6 12.6 2.3 15.6 3.9h-17.6v-2.1c0-.5.4-1 .6-1.3.3-.3.8-.5 1.2-.5m0-2.5c-1.1 0-2.1.5-2.9 1.1-.8.8-1.4 1.9-1.4 3.1v4.7h25.7c0-4-9.6-7.9-21-8.9-.2 0-.3 0-.4 0z"/><path d="m10.4 26.5c1.1 0 1.9.9 1.9 1.9s-.9 1.9-1.9 1.9-1.9-.9-1.9-1.9.9-1.9 1.9-1.9m0-2.5c-2.4 0-4.4 2-4.4 4.4s2 4.4 4.4 4.4c2.5 0 4.4-2 4.4-4.4s-1.9-4.4-4.4-4.4z"/><path d="m20.9 26.5h.2c7.2.6 12.5 2.3 15.6 3.9h-17.6v-2.2c0-.5.4-1 .6-1.3.3-.3.8-.4 1.2-.4m0-2.5c-1.1 0-2.1.5-2.9 1.1-.8.8-1.4 1.9-1.4 3.1v4.7h25.7c0-3.8-9.6-7.9-21-8.9-.2 0-.3 0-.4 0z"/></svg>