<svg enable-background="new 0 0 48 48" viewBox="0 0 48 48" xmlns="http://www.w3.org/2000/svg"><path d="m46.8 9h-2c-.7 0-1.2.6-1.2 1.2v6.2h-39v-15.2c0-.7-.6-1.2-1.2-1.2h-2.2c-.6 0-1.2.6-1.2 1.2v45.6c0 .7.6 1.2 1.2 1.2h2c.7 0 1.2-.6 1.2-1.2v-3.2h39v3.2c0 .7.6 1.2 1.2 1.2h2.2c.7 0 1.2-.6 1.2-1.2v-36.6c0-.6-.6-1.2-1.2-1.2zm-3.2 27h-39v-15h39z"/><circle cx="10.4" cy="9" r="4.4"/><path d="m21.2 4.6c-1.2-.2-2.4.3-3.2 1-.8.8-1.4 1.9-1.4 3.1v4.7h25.7c-.1-3.9-9.7-7.9-21.1-8.8z"/><circle cx="10.4" cy="28.4" r="4.4"/><path d="m21.2 24c-1.2-.1-2.4.4-3.2 1.1-.8.8-1.4 1.9-1.4 3.1v4.7h25.7c-.1-3.9-9.7-7.9-21.1-8.9z"/></svg>