<svg enable-background="new 0 0 48 48" viewBox="0 0 48 48" xmlns="http://www.w3.org/2000/svg"><path d="m28.8 21.6c-2.7 7.5-9.9 12.9-18.3 12.9-3.7 0-7.3-1-10.4-3-.3 3.2.6 6.5 3.1 8.9l4.5 4.5c4.3 4.2 11.1 4.2 15.4 0l20.2-20.2c-3-2.4-6.6-3.7-10.3-3.7-1.4 0-2.8.2-4.2.6zm-1.8-6.6c0-3.7-1.3-7.3-3.6-10.2l-20.3 20.2c-1 1-1.8 2.1-2.3 3.4 2.8 2 6.2 3.1 9.6 3.1 9.2 0 16.6-7.4 16.6-16.5zm21-3.5c0-3-2-5.7-4.9-6.6-1.1-3.7-5-5.7-8.7-4.6-.3.1-.6.2-.8.3-1-.4-2-.6-3-.6-2.1 0-3.9.9-5.3 2.3 3.8 4.4 5.5 10.3 4.5 16 1.1-.2 2.2-.3 3.3-.3 4.7 0 9.2 1.7 12.7 4.8 1.4-1.4 2.3-3.3 2.3-5.3 0-1-.2-2.1-.6-3 .3-1 .5-2 .5-3z"/></svg>