<svg enable-background="new 0 0 48 48" viewBox="0 0 48 48" xmlns="http://www.w3.org/2000/svg"><path d="m48 11.5c0-3-2-5.7-4.9-6.6-1.1-3.7-5-5.7-8.7-4.6-.3.1-.6.2-.8.3-3.8-1.7-8.3.1-9.9 3.9l-20.5 20.5c-4.2 4.2-4.2 11.1 0 15.3l4.5 4.5c4.2 4.2 11.1 4.2 15.4 0l20.5-20.4c3.8-1.7 5.6-6.1 3.9-9.9.3-1 .5-2 .5-3zm-32.6 32c-1.7 0-3.3-.7-4.5-1.9l-4.5-4.5c-.8-.8-1.3-1.7-1.6-2.8 1.9.6 3.8.8 5.7.9 8.6 0 16-5.4 18.9-13.1 3.1-.7 6.3-.5 9.2.6l-18.7 18.9c-1.2 1.2-2.9 1.9-4.5 1.9zm9.8-34.2c.7 1.8 1.1 3.7 1.1 5.6 0 8.7-7.1 15.8-15.8 15.8-1.8 0-3.6-.3-5.3-.9.3-.6.7-1.2 1.2-1.6z"/></svg>