<svg enable-background="new 0 0 48 48" viewBox="0 0 48 48" xmlns="http://www.w3.org/2000/svg"><path d="m0 0h48v48h-48z" fill="none"/><path d="m24 2.5c12.9 0 17.7 2.1 17.7 7.6v25.3c0 1.5-.6 2.8-1.7 3.8l-.8.7v1.1 4.4h-2.5v-2.4-2.5h-2.5-20.3-2.5v2.5 2.5h-2.5v-4.5-1.1l-.8-.7c-1.1-1.1-1.7-2.3-1.7-3.8v-25.3c-.1-5.5 4.7-7.6 17.6-7.6m0-2.5c-11.2 0-20.2 1.3-20.2 10.1v25.3c0 2.3 1 4.2 2.5 5.6v4.4c0 1.4 1.1 2.5 2.5 2.5h2.5c1.4 0 2.5-1.1 2.5-2.5v-2.4h20.2v2.5c0 1.4 1.1 2.5 2.5 2.5h2.5c1.4 0 2.5-1.1 2.5-2.5v-4.5c1.6-1.4 2.5-3.4 2.5-5.6v-25.3c.2-8.8-8.8-10.1-20-10.1z"/><path d="m36.7 10.6v7.6h-25.3v-7.6zm2.5-2.5h-30.3v12.6h30.2.1z"/><path d="m12.6 31.7c.8 0 1.3.6 1.3 1.3s-.6 1.3-1.3 1.3c-.6 0-1.3-.6-1.3-1.3 0-.6.5-1.3 1.3-1.3m0-2.5c-2.2 0-3.8 1.8-3.8 3.8 0 2.2 1.8 3.8 3.8 3.8 2.2 0 3.8-1.7 3.8-3.8s-1.6-3.8-3.8-3.8z"/><path d="m35.4 31.7c.6 0 1.3.5 1.3 1.3-.1.8-.7 1.4-1.3 1.4s-1.3-.6-1.3-1.3.5-1.4 1.3-1.4m0-2.5c-2.2 0-3.8 1.8-3.8 3.8 0 2.2 1.8 3.8 3.8 3.8s3.7-1.7 3.8-3.8c0-2.1-1.8-3.8-3.8-3.8z"/></svg>