<svg enable-background="new 0 0 48 48" viewBox="0 0 48 48" xmlns="http://www.w3.org/2000/svg"><path d="m4.3 10.9c-2.4 0-4.3 1.9-4.3 4.3v15.2h4.3c0 3.6 2.9 6.6 6.6 6.6s6.6-2.9 6.6-6.6h13.1c0 3.6 2.9 6.6 6.6 6.6s6.6-2.9 6.6-6.6h4.2v-6.4c0-2.4-1.9-4.3-4.3-4.3h-4.3v-4.3c0-2.4-1.9-4.4-4.3-4.3h-30.8zm22.9 3.3h8.8v5.4h-8.8zm-24 0h8.8v5.4h-8.8zm12 0h8.8v5.4h-8.8zm-4.3 13c1.8 0 3.2 1.4 3.2 3.2s-1.4 3.2-3.2 3.2-3.2-1.4-3.2-3.2c0-1.7 1.4-3.2 3.2-3.2zm26.2 0c1.8 0 3.2 1.4 3.2 3.2s-1.4 3.2-3.2 3.2-3.2-1.4-3.2-3.2 1.4-3.2 3.2-3.2z"/></svg>