<svg enable-background="new 0 0 48 48" viewBox="0 0 48 48" xmlns="http://www.w3.org/2000/svg"><path d="m36.9 22.1v.1h2.5 4.3c1 0 1.8.8 1.8 1.8v4h-1.7-1.6c-.9-1.9-2.9-3.2-5.2-3.2s-4.2 1.3-5.2 3.2h-1.3-13-1.4c-.9-1.9-2.9-3.2-5.2-3.2s-4.2 1.3-5.1 3.2h-1.5-1.8v-5.9h.7 8.8.7 2.5 8.8.7 2.5 8.8zm-32.6-11.2c-2.4 0-4.3 1.9-4.3 4.3v15.2h4.3c0 3.6 2.9 6.6 6.6 6.6s6.6-2.9 6.6-6.6h13.1c0 3.6 2.9 6.6 6.6 6.6s6.6-2.9 6.6-6.6h4.2v-6.4c0-2.4-1.9-4.3-4.3-4.3h-4.3v-4.3c0-2.3-1.8-4.3-4.1-4.3-.1 0-.1 0-.2 0h-30.8zm22.9 8.7v-5.4h8.8v5.4zm-12 0v-5.4h8.8v5.4zm-12 0v-5.4h8.8v5.4zm33.9 14.1c-1.8 0-3.2-1.4-3.2-3.2s1.4-3.2 3.2-3.2 3.2 1.4 3.2 3.2-1.4 3.2-3.2 3.2zm-26.2 0c-1.8 0-3.2-1.4-3.2-3.2s1.4-3.2 3.2-3.2 3.2 1.4 3.2 3.2-1.4 3.2-3.2 3.2z"/></svg>