<svg enable-background="new 0 0 48 48" viewBox="0 0 48 48" xmlns="http://www.w3.org/2000/svg"><path d="m0 0h48v48h-48z" fill="none"/><path d="m3.8 35.4c0 2.3 1 4.2 2.5 5.6v4.4c0 1.4 1.1 2.5 2.5 2.5h2.5c1.4 0 2.5-1.1 2.5-2.5v-2.4h20.2v2.5c0 1.4 1.1 2.5 2.5 2.5h2.5c1.4 0 2.5-1.1 2.5-2.5v-4.5c1.6-1.4 2.5-3.4 2.5-5.6v-25.3c.2-8.8-8.8-10.1-20-10.1s-20.2 1.3-20.2 10.1zm8.8 2.5c-2 0-3.8-1.7-3.8-3.8 0-2 1.7-3.8 3.8-3.8s3.8 1.7 3.8 3.8-1.6 3.8-3.8 3.8zm22.8 0c-2 0-3.8-1.7-3.8-3.8 0-2 1.7-3.8 3.8-3.8 2 0 3.8 1.7 3.8 3.8-.1 2.1-1.8 3.8-3.8 3.8zm3.7-15.2h-30.2v-12.6h30.4v12.6z"/></svg>