<svg enable-background="new 0 0 48 48" viewBox="0 0 48 48" xmlns="http://www.w3.org/2000/svg"><path d="m45 0h-42c-1.7 0-3 1.3-3 3v18h48v-18c0-1.7-1.3-3-3-3zm-12 14.3c0 .4-.3.8-.8.8h-1.5c-.4 0-.8-.3-.8-.8v-2.3h-11.9v2.3c0 .4-.3.8-.8.8h-1.5c-.4 0-.8-.3-.8-.8v-3.8c.1-.8.8-1.5 1.6-1.5h15c.8 0 1.5.7 1.5 1.5zm-33 30.7c0 1.7 1.3 3 3 3h42c1.7 0 3-1.3 3-3v-21h-48zm15-10.5c0-.8.7-1.5 1.5-1.5h15c.8 0 1.5.7 1.5 1.5v3.8c0 .4-.3.8-.8.8h-1.5c-.4 0-.8-.3-.8-.8v-2.3h-11.9v2.3c0 .4-.3.8-.8.8h-1.5c-.4 0-.8-.3-.8-.8v-3.8z"/></svg>