<svg enable-background="new 0 0 48 48" viewBox="0 0 48 48" xmlns="http://www.w3.org/2000/svg"><path d="m43.5 0h-39c-2.5 0-4.5 2-4.5 4.5v39c0 2.5 2 4.5 4.5 4.5h39c2.5 0 4.5-2 4.5-4.5v-39c0-2.5-2-4.5-4.5-4.5zm0 43.5h-39v-17.2h39zm0-21.7h-39v-17.3h39zm-28.5-5.3h1.5c.8 0 1.5-.7 1.5-1.5v-.8h12v.8c0 .8.7 1.5 1.5 1.5h1.5c.8 0 1.5-.7 1.5-1.5v-2.3c0-1.7-1.3-3-3-3h-15c-1.7 0-3 1.3-3 3v2.3c0 .8.7 1.5 1.5 1.5zm0 21.8h1.5c.8 0 1.5-.7 1.5-1.5v-.8h12v.8c0 .8.7 1.5 1.5 1.5h1.5c.8 0 1.5-.7 1.5-1.5v-2.3c0-1.7-1.3-3-3-3h-15c-1.7 0-3 1.3-3 3v2.3c0 .8.7 1.5 1.5 1.5z"/></svg>