<svg enable-background="new 0 0 48 48" viewBox="0 0 48 48" xmlns="http://www.w3.org/2000/svg"><path d="m18 18c4.3 0 7.3-3.1 7.3-7.4 0-2.8-3.1-7-7.3-10.6-4.3 3.6-7.3 7.8-7.3 10.6 0 4.3 3 7.4 7.3 7.4zm0-11.8c1.9 2.1 2.8 3.7 2.8 4.4 0 1.1-.4 2.9-2.8 2.9s-2.8-1.8-2.8-2.9c0-.6.9-2.3 2.8-4.4zm20.3 28.3c-3.7 0-6.8 3-6.8 6.8 0 .8.2 1.5.4 2.3h-3.4v-19.6c0-1.7-1.3-3-3-3h-15c-1.7 0-3 1.3-3 3v19.5h-3c-.8 0-1.5.7-1.5 1.5v1.5c0 .8.7 1.5 1.5 1.5h33.8c3.7 0 6.8-3 6.8-6.8s-3.1-6.7-6.8-6.7zm-14.3 9h-12v-18h3v5.3c0 1.2 1 2.3 2.3 2.3s2.3-1 2.3-2.3v-5.3h4.4zm14.3 0c-1.2 0-2.3-1-2.3-2.3s1-2.3 2.3-2.3 2.3 1 2.3 2.3-1.1 2.3-2.3 2.3z"/></svg>