<svg enable-background="new 0 0 48 48" viewBox="0 0 48 48" xmlns="http://www.w3.org/2000/svg"><path d="m40.8 19.2h-1.2l-8.2-10.2c-.9-1.1-2.3-1.8-3.7-1.8h-16c-2 0-3.7 1.2-4.5 3l-3.6 9.2c-2.1.5-3.6 2.4-3.6 4.6v8.4c0 .7.5 1.2 1.2 1.2h3.6c0 4 3.2 7.2 7.2 7.2s7.2-3.2 7.2-7.2h9.6c0 4 3.2 7.2 7.2 7.2s7.2-3.2 7.2-7.2h3.6c.7 0 1.2-.5 1.2-1.2v-6c0-4-3.2-7.2-7.2-7.2zm-28.8 18c-2 0-3.6-1.6-3.6-3.6s1.6-3.6 3.6-3.6 3.6 1.6 3.6 3.6-1.6 3.6-3.6 3.6zm5.4-18h-8.6l2.9-7.2h5.8v7.2zm3.6 0v-7.2h6.7l5.8 7.2zm15 18c-2 0-3.6-1.6-3.6-3.6s1.6-3.6 3.6-3.6 3.6 1.6 3.6 3.6-1.6 3.6-3.6 3.6z"/></svg>