<svg enable-background="new 0 0 48 48" viewBox="0 0 48 48" xmlns="http://www.w3.org/2000/svg"><path d="m40.8 19.2h-1.2l-8.2-10.2c-.9-1.1-2.3-1.8-3.7-1.8h-16c-2 0-3.7 1.2-4.5 3l-3.6 9v.2c-2.1.5-3.6 2.4-3.6 4.6v8.4c0 .7.5 1.2 1.2 1.2h3.6c0 4 3.2 7.2 7.2 7.2s7.2-3.2 7.2-7.2h9.6c0 4 3.2 7.2 7.2 7.2s7.2-3.2 7.2-7.2h3.6c.7 0 1.2-.5 1.2-1.2v-6c0-4-3.2-7.2-7.2-7.2zm-19.8-8.4h6.7c.4 0 .7.2.9.4l6.4 8h-14zm-10.5.8c.2-.5.6-.8 1.1-.8h5.8v8.4h-9.9zm1.5 25.6c-2 0-3.6-1.6-3.6-3.6s1.6-3.6 3.6-3.6 3.6 1.6 3.6 3.6-1.6 3.6-3.6 3.6zm24 0c-2 0-3.6-1.6-3.6-3.6s1.6-3.6 3.6-3.6 3.6 1.6 3.6 3.6-1.6 3.6-3.6 3.6zm8.4-7.2h-2.2c-1.2-2.1-3.5-3.6-6.2-3.6s-5 1.5-6.2 3.6h-11.6c-1.2-2.1-3.5-3.6-6.2-3.6s-5 1.5-6.2 3.6h-2.2v-6c0-.7.5-1.2 1.2-1.2h36c2 0 3.6 1.6 3.6 3.6z"/></svg>