<svg enable-background="new 0 0 48 48" viewBox="0 0 48 48" xmlns="http://www.w3.org/2000/svg"><path d="m43.9 19.3-3.9-9.5c-1.2-3-4.2-5-7.4-5h-17.2c-3.3 0-6.2 2-7.4 5l-3.8 9.5c-2.6 1.8-4.2 4.6-4.2 7.9v13.6c0 1.3 1.1 2.4 2.4 2.4h1.6c1.3 0 2.4-1.1 2.4-2.4v-2.4h35.2v2.4c0 1.3 1.1 2.4 2.4 2.4h1.6c1.3 0 2.4-1.1 2.4-2.4v-13.6c0-3.3-1.6-6.1-4.1-7.9zm-31.5-7.7c.5-1.2 1.7-2 3-2h17.2c1.3 0 2.5.8 3 2l2.4 6h-28zm30.8 20.4c0 .9-.7 1.6-1.6 1.6h-35.2c-.9 0-1.6-.7-1.6-1.6v-4.8c0-2.6 2.2-4.8 4.8-4.8h28.8c2.6 0 4.8 2.2 4.8 4.8zm-32-7.2c-1.9 0-3.2 1.3-3.2 3.2s1.3 3.2 3.2 3.2 4.8.3 4.8-1.6-2.9-4.8-4.8-4.8zm25.6 0c-1.9 0-4.8 2.9-4.8 4.8s2.9 1.6 4.8 1.6 3.2-1.3 3.2-3.2-1.3-3.2-3.2-3.2z"/></svg>