<svg enable-background="new 0 0 48 48" viewBox="0 0 48 48" xmlns="http://www.w3.org/2000/svg"><path d="m46.9 16.5h-5.6l-1.6-3.9c-1.6-4-5.4-6.6-9.7-6.6h-12c-4.3 0-8.1 2.6-9.7 6.6l-1.6 3.9h-5.6c-.7 0-1.3.7-1.1 1.4l.6 2.3c.1.4.6.8 1.1.8h1.9c-1.3 1.1-2.1 2.7-2.1 4.5v4.5c0 1.5.6 2.9 1.5 3.9v5.1c0 1.7 1.3 3 3 3h3c1.7 0 3-1.3 3-3v-3h24v3c0 1.7 1.3 3 3 3h3c1.7 0 3-1.3 3-3v-5.1c.9-1.1 1.5-2.4 1.5-3.9v-4.5c0-1.8-.8-3.4-2.1-4.5h1.9c.5 0 1-.4 1.1-.9l.6-2.3c.1-.6-.4-1.3-1.1-1.3zm-33-1.7c.7-1.7 2.3-2.8 4.2-2.8h11.9c1.8 0 3.5 1.1 4.2 2.8l1.9 4.7h-24.1zm-4.9 15.2c-1.8 0-3-1.2-3-3s1.2-3 3-3 4.5 2.7 4.5 4.5-2.7 1.5-4.5 1.5zm30 0c-1.8 0-4.5.3-4.5-1.5s2.7-4.5 4.5-4.5 3 1.2 3 3-1.2 3-3 3z"/></svg>