<svg enable-background="new 0 0 48 48" viewBox="0 0 48 48" xmlns="http://www.w3.org/2000/svg"><path d="m38.3 8.4h.2.1.1c.8.1 1.5.5 1.9 1.2l3.6 6.2c.6 1.2.3 2.6-.9 3.2l-6.3 3.4-2.3 1.3 1.4 2.2c.3.5.5 1 .5 1.7 0 1.4-.8 2.7-2.1 3.2l-1.3.6-1.5-.6c-.6-.2-1.1-.7-1.5-1.4l-1.2-2.2-2.2 1.3-4.4 2.5c-.4.2-.8.3-1.2.3-.8 0-1.6-.4-2-1.2l-3.6-6.2c-.6-1.2-.3-2.6.9-3.2l20.7-12c.4-.2.7-.3 1.1-.3m-29.5 20 3.1 5.3-3.1 3.8-4.8-8.3zm29.5-22.5c-.8 0-1.6.2-2.3.6l-20.8 12c-2.3 1.3-3.1 4.2-1.8 6.6l3.6 6.2c.9 1.5 2.5 2.4 4.2 2.4.8 0 1.6-.2 2.4-.6l4.3-2.5c.6 1.1 1.6 2 2.8 2.5v4.2c0 2.6 2.2 4.7 4.8 4.7h12.5v-4.7h-12.5v-4.2c2.2-1 3.6-3.1 3.6-5.5 0-1.1-.2-2-.8-3l6.1-3.5c2.3-1.3 3.1-4.2 1.8-6.6l-3.6-6.2c-.8-1.4-2.3-2.3-3.8-2.4-.2 0-.4 0-.5 0zm-28.2 19.8-10.1 1.7 1.8 3.1 4.8 8.3 1.8 3.1 6.5-7.9z"/></svg>