<svg enable-background="new 0 0 48 48" viewBox="0 0 48 48" xmlns="http://www.w3.org/2000/svg"><path d="m44.7 30.6-1-3c-.7-2.1-2.5-3.5-4.7-3.6v-12c0-6.6-5.4-12-12-12h-6c-6.6 0-12 5.4-12 12v12c-2.2.1-4 1.5-4.7 3.5l-1 3c-.6 1.7-.3 3.5.7 4.8.5.7 1.2 1.3 2 1.7v9.5c0 .8.7 1.5 1.5 1.5h1.5c.8 0 1.5-.7 1.5-1.5v-9h27v9c0 .8.7 1.5 1.5 1.5h1.5c.8 0 1.5-.7 1.5-1.5v-9.5c.8-.4 1.5-.9 2-1.7 1-1.3 1.3-3.1.7-4.7zm-13.9-25.1c2.2 1.3 3.7 3.7 3.7 6.5v12h-3.7zm-9-1h4.5v19.5h-4.5zm-4.5 1v18.5h-3.8v-12c0-2.8 1.5-5.2 3.8-6.5zm-9.8 26.5 1-3c.1-.3.4-.5.7-.5h29.5c.3 0 .6.2.7.5l1 3c.2.5-.2 1-.7 1h-31.4c-.6 0-.9-.5-.8-1z"/></svg>