<svg enable-background="new 0 0 48 48" viewBox="0 0 48 48" xmlns="http://www.w3.org/2000/svg"><path d="m9 21v-6c0-1.7-1.3-3-3-3s-3 1.3-3 3v6c0 1.7 1.3 3 3 3s3-1.3 3-3zm33-9c-1.7 0-3 1.3-3 3v6c0 1.7 1.3 3 3 3s3-1.3 3-3v-6c0-1.7-1.3-3-3-3zm-6-6c0-3.3-2.7-6-6-6h-12c-3.3 0-6 2.7-6 6v18h24zm4.8 23.1c-.4-1.3-1.5-2.1-2.8-2.1h-28c-1.3 0-2.4.8-2.8 2.1l-1 3c-.7 1.9.8 3.9 2.8 3.9h12v6.3c-2.7.6-4.8 1.8-5.8 3.5-.6 1 .2 2.2 1.4 2.2h14.8c1.2 0 2-1.2 1.4-2.2-1-1.6-3.1-2.9-5.8-3.5v-6.3h12c2 0 3.5-2 2.8-3.9z"/></svg>