<svg enable-background="new 0 0 48 48" viewBox="0 0 48 48" xmlns="http://www.w3.org/2000/svg"><path d="m9 21v-6c0-1.7-1.3-3-3-3s-3 1.3-3 3v6c0 1.7 1.3 3 3 3s3-1.3 3-3zm33-9c-1.7 0-3 1.3-3 3v6c0 1.7 1.3 3 3 3s3-1.3 3-3v-6c0-1.7-1.3-3-3-3zm-1.3 15.6c-.7-2.1-2.5-3.5-4.7-3.6v-18c0-3.3-2.7-6-6-6h-12c-3.3 0-6 2.7-6 6v18c-2.2.1-4 1.5-4.7 3.5l-1 3c-.6 1.7-.3 3.5.7 4.8 1 1.4 2.6 2.2 4.3 2.2h10.5v4.7c-3 .5-5.4 1.8-6.5 3.6-.6 1 .2 2.2 1.4 2.2h14.8c1.2 0 2-1.2 1.4-2.2-1.1-1.8-3.6-3.1-6.5-3.6v-4.7h10.5c1.7 0 3.3-.8 4.3-2.2s1.3-3.1.7-4.7zm-24.2-21.6c0-.8.7-1.5 1.5-1.5h12c.8 0 1.5.7 1.5 1.5v18h-15zm20.3 27h-25.5c-.5 0-.9-.5-.7-1l1-3c.1-.3.4-.5.7-.5h23.5c.3 0 .6.2.7.5l1 3c.1.5-.2 1-.7 1z"/></svg>