<svg enable-background="new 0 0 48 48" viewBox="0 0 48 48" xmlns="http://www.w3.org/2000/svg"><path d="m10 21.3h3.5l-.7 4.6c-.1.4.2.8.7.8.2 0 .5-.1.6-.3l5.6-8.3c.3-.4-.1-.9-.6-.9h-3.4l.7-3c.1-.4-.2-.8-.7-.8h-4c-.4 0-.7.2-.7.5l-1.6 6.8c-.1.3.2.6.6.6zm36.7-8h-1.3v-4c-.1-.7-.7-1.3-1.4-1.3s-1.3.6-1.3 1.3v4h-2.7v-4c0-.7-.6-1.3-1.3-1.3s-1.3.6-1.3 1.3v4h-1.4c-.7 0-1.3.6-1.3 1.3v4c0 3 2 5.5 4.7 6.3v8.7c0 1.3-1 2.3-2.3 2.3s-2.3-1-2.3-2.3v-2.3c0-4-3.3-7.3-7.3-7.3h-.7v-17.3c0-2.2-1.8-4-4-4h-16c-2.2 0-4 1.8-4 4v34.7h-2c-.5-.1-.8.2-.8.6v2.7c0 .4.3.7.7.7h28c.4 0 .7-.3.7-.7v-2.7c0-.4-.3-.7-.7-.7h-2v-13.3h.7c1.8 0 3.3 1.5 3.3 3.3v2.3c0 3.5 2.8 6.3 6.3 6.3s6.3-2.8 6.3-6.3v-8.6c2.7-.9 4.7-3.3 4.7-6.3v-4c0-.8-.6-1.4-1.3-1.4zm-24 28h-16v-34.6h16zm21.3-22.6c0 1.5-1.2 2.7-2.7 2.7s-2.7-1.2-2.7-2.7v-1.3h5.4z"/></svg>