<svg enable-background="new 0 0 48 48" viewBox="0 0 48 48" xmlns="http://www.w3.org/2000/svg"><path d="m28 40h-26.7c-.7 0-1.3.6-1.3 1.3v2.7c0 .7.6 1.3 1.3 1.3h26.7c.7 0 1.3-.6 1.3-1.3v-2.7c0-.7-.6-1.3-1.3-1.3zm17.3-26.7v-4c0-.7-.6-1.3-1.3-1.3s-1.3.6-1.3 1.3v4h-2.7v-4c0-.7-.6-1.3-1.3-1.3s-1.3.6-1.3 1.3v4h-1.4c-.7 0-1.3.6-1.3 1.3v2.7c0 3 2 5.5 4.7 6.3v9.9c0 1.2-.8 2.2-1.9 2.4-1.5.2-2.7-.9-2.7-2.3v-2.3c0-4.1-3.3-7.3-7.3-7.3h-.7v-16c0-2.9-2.4-5.3-5.3-5.3h-13.5c-2.9 0-5.3 2.4-5.3 5.3v29.3h24v-9.3h.7c1.8 0 3.3 1.5 3.3 3.3v2.1c0 3.3 2.4 6.3 5.7 6.6 3.8.4 7-2.6 7-6.3v-10c2.7-.9 4.7-3.3 4.7-6.3v-2.7c0-.7-.6-1.3-1.3-1.3h-1.5zm-23.6 4-7.8 11.6c-.2.3-.5.4-.9.4-.6 0-1.1-.5-1-1.1l1.9-6.9h-4.9c-.6 0-1.1-.5-1-1l1.3-8.9c.1-.4.5-.8 1-.8h5.7c.7 0 1.1.5 1 1.1l-1 4.3h4.8c.8 0 1.3.7.9 1.3z"/></svg>