<svg enable-background="new 0 0 48 48" viewBox="0 0 48 48" xmlns="http://www.w3.org/2000/svg"><path d="m29.1 2.8c8.1 1.6 14.4 8 16 16h-5.8c-1.3-5-5.2-8.9-10.3-10.3v-5.7m-10.1 2.7v5.8c-6.2 1.7-10.7 7.4-10.7 14 0 1.2.2 2.5.5 3.7l-5.1 3c-.7-2.1-1.1-4.3-1.1-6.6 0-9.9 7-18.1 16.4-19.9m23.5 23.8c-.8 4.3-3.1 8.3-6.5 11.3l-2.9-5c1.7-1.8 3-3.9 3.7-6.3zm-30 6.3c2.7 2.7 6.4 4.2 10.3 4.2 1.2 0 2.5-.2 3.7-.5l2.9 5c-2.1.7-4.3 1.1-6.6 1.1-5.9 0-11.4-2.6-15.3-7zm14.2-35.6v10.7c5.6.6 10.1 5 10.7 10.7h10.7c-.7-11.6-9.8-20.7-21.4-21.4zm-5.2 2.6c-11.9.8-21.4 10.6-21.4 22.7 0 3.7.8 7.2 2.4 10.2l9.2-5.4c-.6-1.4-1-3.1-1-4.8 0-6.2 4.7-11.3 10.7-12v-10.7zm23.8 24.2h-10.6c-.4 3.4-2.2 6.4-4.8 8.3l5.4 9.2c5.7-3.9 9.7-10.3 10-17.5zm-32.2 5.6-9.2 5.4c4.1 6.1 11 10.2 19 10.2 3.7 0 7.1-.8 10.2-2.4l-5.4-9.2c-1.4.6-3.1 1-4.8 1-4.1-.1-7.7-2-9.8-5z"/></svg>