<svg enable-background="new 0 0 48 48" viewBox="0 0 48 48" xmlns="http://www.w3.org/2000/svg"><path d="m43.5 24h-4.5l-9 6-9-6h-16.5c-2.5 0-4.5 2-4.5 4.5s2 4.5 4.5 4.5h39c2.5 0 4.5-2 4.5-4.5s-2-4.5-4.5-4.5zm-38-3h37c3.2 0 5.1-4.1 3.3-7.1-3.8-6.1-12.1-10.9-21.8-10.9s-18 4.8-21.8 10.9c-1.8 3 .1 7.1 3.3 7.1zm30.5-10.5c.8 0 1.5.7 1.5 1.5s-.7 1.5-1.5 1.5-1.5-.7-1.5-1.5.7-1.5 1.5-1.5zm-12-3c.8 0 1.5.7 1.5 1.5s-.7 1.5-1.5 1.5-1.5-.7-1.5-1.5.7-1.5 1.5-1.5zm-12 3c.8 0 1.5.7 1.5 1.5s-.7 1.5-1.5 1.5-1.5-.7-1.5-1.5.7-1.5 1.5-1.5zm33 25.5h-42c-.8 0-1.5.7-1.5 1.5v1.5c0 3.3 2.7 6 6 6h33c3.3 0 6-2.7 6-6v-1.5c0-.8-.7-1.5-1.5-1.5z"/></svg>