<svg enable-background="new 0 0 48 48" viewBox="0 0 48 48" xmlns="http://www.w3.org/2000/svg"><path d="m33 16.5c.8 0 1.5-.7 1.5-1.5s-.7-1.5-1.5-1.5-1.5.7-1.5 1.5.7 1.5 1.5 1.5zm-9-3c.8 0 1.5-.7 1.5-1.5s-.7-1.5-1.5-1.5-1.5.7-1.5 1.5.7 1.5 1.5 1.5zm-9 3c.8 0 1.5-.7 1.5-1.5s-.7-1.5-1.5-1.5-1.5.7-1.5 1.5.7 1.5 1.5 1.5zm33 10.5c0-2.2-1-4.3-2.6-5.7 0 0 .1-.1.1-.1 1.3-2.2 1.4-4.9.1-7.1-4.1-6.7-12.6-11.1-21.6-11.1s-17.5 4.4-21.5 11.1c-1.3 2.2-1.3 4.9.1 7.1 0 0 .1.1.1.1-3.1 2.7-3.5 7.3-.9 10.5.4.5.9.9 1.4 1.3-.1.3-.2.5-.2.8v3.3c0 4.3 3.5 7.8 7.8 7.8h26.3c4.3 0 7.8-3.5 7.8-7.8v-3.3c0-.3-.1-.5-.2-.8 2.1-1.4 3.3-3.7 3.3-6.1zm-41.7-10.5c3.3-5.5 10.2-9 17.7-9s14.4 3.5 17.7 9c.4.7.4 1.6 0 2.4-.3.4-.7.7-1.1.7h-33.1c-.5 0-.9-.3-1.1-.7-.5-.8-.5-1.7-.1-2.4zm34.2 20.7c0 1.8-1.5 3.3-3.3 3.3h-26.3c-1.8 0-3.3-1.5-3.3-3.3v-2.4h33v2.4zm0-7.2h-33c-1.7 0-3-1.3-3-3s1.3-3 3-3h13.5l9 4.5 9-4.5h1.5c1.7 0 3 1.3 3 3s-1.3 3-3 3z"/></svg>