<svg enable-background="new 0 0 48 48" viewBox="0 0 48 48" xmlns="http://www.w3.org/2000/svg"><path d="m21.8 15.3c-2.6-1-4.4-3.4-4.4-6.2 0-3.7 3-6.7 6.7-6.7s6.7 3 6.7 6.7c0 2.9-1.8 5.4-4.4 6.2v6.2c-.7-.2-1.4-.4-2.2-.4-.7 0-1.6.1-2.3.4zm16.2 29.4c-2.5-1.4-3.7-4.3-3.2-6.9l-5.4-3.1c1.1-1.1 1.9-2.4 2.3-3.8l5.4 3.1c2-1.8 5.1-2.2 7.7-.7 3.2 1.8 4.3 5.9 2.4 9.1-2 3-6.1 4.2-9.2 2.3zm-34.6-11.5c2.5-1.4 5.6-1.1 7.7.7l5.4-3.1c.4 1.4 1.2 2.9 2.3 3.8l-5.5 3.1c.5 2.8-.7 5.5-3.2 6.9-3.2 1.8-7.3.7-9.1-2.4-1.9-3.1-.8-7.2 2.4-9zm25-4.2c0 2.4-2 4.4-4.4 4.4-2.5 0-4.4-2-4.4-4.4s2-4.4 4.4-4.4c2.5 0 4.4 1.9 4.4 4.4zm6.7 0-.1 1.3-3.2-1.9c-.2-2.4-1.4-4.4-3.4-5.7v-3.8c4 1.6 6.7 5.6 6.7 10.1zm-4.5 8.9c-1.8 1.3-4.1 2.1-6.6 2.1s-4.8-.8-6.6-2.2l3.2-1.9c1 .5 2.2.7 3.4.7s2.3-.2 3.2-.7zm-17.6-7.7-.1-1.2c0-4.5 2.8-8.5 6.7-10.2v3.8c-1.8 1.3-3.1 3.4-3.4 5.7z"/></svg>