<svg enable-background="new 0 0 48 48" viewBox="0 0 48 48" xmlns="http://www.w3.org/2000/svg"><path d="m9 27.7c0-6.9 5.2-17.1 10.6-20.9-1-.6-1.6-1.8-1.6-3 0-2.1 1.7-3.8 3.8-3.8h4.5c2 0 3.7 1.7 3.7 3.8 0 1.3-.6 2.4-1.6 3.1 5.5 3.8 10.6 14 10.6 20.9 0 5.4-2.4 8.2-6 9.4v4.8h-18v-4.9c-3.6-1.2-6-4-6-9.4zm4.5 0c0 5 2.6 5.2 6 5.8v3.9h9v-3.9c3.4-.7 6-.8 6-5.8 0-2.1-.7-4.9-1.9-7.7l-7 7c-.4.4-1.2.4-1.6 0l-1.6-1.6c-.4-.4-.4-1.2 0-1.6l8-8c-2.7-4.4-5.3-6.1-6.4-6.1-3.4.1-10.5 10.8-10.5 18zm25.5 19.2v-2.3c0-.6-.5-1.1-1.1-1.1h-27.8c-.6 0-1.1.5-1.1 1.1v2.3c0 .6.5 1.1 1.1 1.1h27.8c.6 0 1.1-.5 1.1-1.1z"/></svg>