<svg enable-background="new 0 0 48 48" viewBox="0 0 48 48" xmlns="http://www.w3.org/2000/svg"><path d="m36.2 42.5-2.4-1.5v-3c0-.3-.3-.6-.6-.6h-18.5c-.3 0-.6.3-.6.6v3l-2.3 1.5c-.2.1-.3.3-.3.5v4.4c0 .3.3.6.6.6h23.7c.3 0 .6-.3.6-.6v-4.4c0-.2-.1-.4-.2-.5zm-18-24.8h11.6l4.2-10c.1-.3 0-.6-.3-.7l-1.4-.8c-.3-.1-.6 0-.7.2-.3.6-.9 1.5-1.7 1.5-1.1 0-1.2-.8-1.3-2.2 0-.3-.3-.5-.6-.5h-1.5c-.2 0-.4.2-.5.4-.4 1-1 1.6-1.9 1.6s-1.5-.6-1.9-1.6c-.1-.2-.3-.4-.5-.4h-1.5c-.3 0-.6.2-.6.5 0 1.5-.1 2.2-1.3 2.2-.8 0-1.3-.8-1.7-1.5-.1-.3-.5-.3-.7-.2l-1.6.8c-.3.1-.4.4-.3.7zm5.8-13.3c1.2 0 2.2-1 2.2-2.2s-1-2.2-2.2-2.2-2.2 1-2.2 2.2.9 2.2 2.2 2.2zm7.5 17.6c.3 0 .6-.3.6-.6v-2.3c0-.3-.3-.6-.6-.6h-15c-.3 0-.6.3-.6.6v2.3c0 .3.3.6.6.6h2.7c0 3.4 0 9.3-1.8 14.7h13.1c-1.8-5.3-1.8-11.1-1.8-14.7z"/></svg>