<svg enable-background="new 0 0 48 48" viewBox="0 0 48 48" xmlns="http://www.w3.org/2000/svg"><path d="m6 46.9v-2.3c0-.6.5-1.1 1.1-1.1h33.8c.6 0 1.1.5 1.1 1.1v2.3c0 .6-.5 1.1-1.1 1.1h-33.8c-.6 0-1.1-.5-1.1-1.1zm18-36.4c2.9 0 5.2-2.4 5.2-5.3s-2.3-5.2-5.2-5.2-5.3 2.4-5.3 5.3 2.4 5.2 5.3 5.2zm-13.5 31.5-9.8-24.1c-.2-.5 0-1.1.5-1.4l3.7-1.9c.5-.3 1.2-.1 1.5.4 1 1.7 2.2 3.6 4.2 3.6 2.7 0 2.9-1.9 3-5.4 0-.6.5-1.1 1.1-1.1h3.8c.5 0 .9.3 1.1.8.8 2.5 2.4 3.8 4.5 3.8s3.7-1.3 4.5-3.8c.2-.5.6-.8 1.1-.8h3.8c.6 0 1.1.5 1.1 1.1.1 3.5.3 5.4 3 5.4 2 0 3.3-2.1 4.1-3.5.3-.5 1-.7 1.5-.4l3.7 1.9c.5.3.7.9.5 1.4l-9.9 24zm-3.2-19.7 6.2 15.2h21l6.2-15.2c-3.5 1.7-8.6.6-10.1-4.2-3.5 4.1-9.7 4.1-13.2 0-1.5 4.8-6.6 5.8-10.1 4.2z"/></svg>