<svg enable-background="new 0 0 48 48" viewBox="0 0 48 48" xmlns="http://www.w3.org/2000/svg"><path d="m8 41.6h32c-3.6-11.1-3.2-17.1-3.2-20.8l4.1-4.1c.5-.5.7-1.1.7-1.7v-12.6c0-1.3-1.1-2.4-2.4-2.4h-30.4c-1.3 0-2.4 1.1-2.4 2.4v12.6c0 .6.3 1.2.7 1.7l4.1 4.1c0 3.7.4 9.7-3.2 20.8zm3.2-36.8h4v4.8h4.8v-4.8h8v4.8h4.8v-4.8h4v9.2l-4.8 4.8v2.9c0 3.1-.1 7.8 1.7 15.1h-19.3c1.8-7.3 1.7-12 1.7-15.1 0-.3 0-2.9 0-2.9l-4.9-4.8zm15.6 20.8h-5.6v-5.6c0-1.5 1.3-2.8 2.8-2.8s2.8 1.3 2.8 2.8zm16.4 18.8v2.4c0 .7-.5 1.2-1.2 1.2h-36c-.7 0-1.2-.5-1.2-1.2v-2.4c0-.7.5-1.2 1.2-1.2h36c.7 0 1.2.5 1.2 1.2z"/></svg>