<svg enable-background="new 0 0 48 48" viewBox="0 0 48 48" xmlns="http://www.w3.org/2000/svg"><path d="m9.6 12.8 4.1 2.8c0 3 0 10.7-2 19.1h24.6c-2-8.4-2-16-2-19.1l4.1-2.8c.2-.1.3-.3.3-.5v-11.7c0-.4-.3-.6-.6-.6h-4.6c-.4 0-.6.3-.6.6v5.3h-3.8v-5.3c0-.4-.3-.6-.6-.6h-8.8c-.4 0-.7.3-.7.6v5.3h-3.8v-5.3c0-.4-.3-.6-.6-.6h-4.7c-.3 0-.6.3-.6.6v11.6c0 .3.1.5.3.6zm11.9 8.7c0-1.4 1.1-2.5 2.5-2.5s2.5 1.1 2.5 2.5v5.1h-5.1zm19.9 19.5-2.3-1.8v-2.6c0-.4-.3-.6-.6-.6h-29c-.4 0-.6.3-.6.6v2.6l-2.3 1.8c-.2.1-.2.3-.2.5v5.8c-.1.4.2.7.6.7h34c.4 0 .6-.3.6-.6v-5.8c.1-.3 0-.5-.2-.6z"/></svg>