<svg enable-background="new 0 0 48 48" viewBox="0 0 48 48" xmlns="http://www.w3.org/2000/svg"><path d="m40 19.2v22.4h-32v-4.7c0-3 1.7-5.8 4.4-7.2l5.7-2.9c1.6-.8 2.7-2.5 2.7-4.3v-5l-2.2 1.1c-.6.3-1.1.9-1.3 1.6l-1.2 4.8c-.1.4-.4.7-.7.8l-3 1.2c-.3.1-.6.1-.9 0l-6-2.7c-.4-.2-.7-.6-.7-1.1v-15.8c0-.6.3-1.2.7-1.7l.9-.9-1.4-2.8c-.1-.3-.2-.5-.2-.8 0-.7.5-1.2 1.2-1.2h14.8c10.6 0 19.2 8.6 19.2 19.2zm2 24h-36c-.7 0-1.2.5-1.2 1.2v2.4c0 .7.5 1.2 1.2 1.2h36c.7 0 1.2-.5 1.2-1.2v-2.4c0-.7-.5-1.2-1.2-1.2zm-32-33.6c-1.1 0-2 .9-2 2s.9 2 2 2 2-.9 2-2-.9-2-2-2z"/></svg>