<svg enable-background="new 0 0 48 48" viewBox="0 0 48 48" xmlns="http://www.w3.org/2000/svg"><path d="m33.8 38.9v-2.5c0-.6-.5-1.1-1.1-1.1h-1c-1.1-2.8-1.1-5.6-1.1-7.5h1.3c.6 0 1.1-.5 1.1-1.1v-2.3c0-.6-.5-1.1-1.1-1.1h-1.3v-.4c1.5-.9 2.8-2.5 2.8-5.6 0-4.3-3.3-10.7-6.8-12.8 1.1-.1 2-1.1 2-2.2 0-1.2-1-2.3-2.3-2.3h-4.5c-1.2 0-2.3 1-2.3 2.2s.9 2.1 2 2.2c-3.6 2.1-6.8 8.5-6.8 12.8 0 3.1 1.3 4.7 2.8 5.6v.4h-1.3c-.6 0-1.1.5-1.1 1.1v2.3c0 .6.5 1.1 1.1 1.1h1.3c0 1.8 0 4.6-1.1 7.5h-1c-.6 0-1.1.5-1.1 1.1v2.5l-1.7 1c-.3.2-.6.6-.6 1v6c0 .6.5 1.1 1.1 1.1h21.8c.6 0 1.1-.5 1.1-1.1v-6c0-.4-.2-.8-.6-1zm-14.6-21.6c0-3.3 3.2-8.5 4.8-9 .3.1 1.3.8 2.3 2.3l-3 3c-.2.2-.2.6 0 .8l1.3 1.3c.2.2.6.2.8 0l2.4-2.4c.6 1.5 1 2.9 1 4 0 1.9-.5 1.8-2.8 2.4v3.6h-4v-3.6c-2.3-.7-2.8-.5-2.8-2.4zm2.8 10.5h4c0 1.2-.1 4.2.8 7.5h-5.8c1-3.1 1-5.8 1-7.5zm9.5 15.7h-15v-.7l2.3-1.3v-1.7h10.5v1.7l2.3 1.3v.7z"/></svg>