<svg enable-background="new 0 0 48 48" viewBox="0 0 48 48" xmlns="http://www.w3.org/2000/svg"><path d="m21.4 2.6c0-1.4 1.1-2.6 2.6-2.6 1.4 0 2.6 1.2 2.6 2.6s-1.2 2.7-2.6 2.7c-1.5 0-2.6-1.2-2.6-2.7zm14 37.3c.3.2.6.6.6 1v6c0 .6-.5 1.1-1.1 1.1h-21.8c-.6 0-1.1-.5-1.1-1.1v-6c0-.4.2-.8.6-1l1.7-1v-2.5c0-.6.5-1.1 1.1-1.1h1.4c1.1-4 1.1-8.4 1-11v-.3h-2.4c-.6 0-1.1-.5-1.1-1.1v-2.3c0-.6.5-1.1 1.1-1.1h1.2l-4.3-10.6c-.1-.3 0-.6.3-.7l1.8-1c.1 0 .2-.1.3-.1.2 0 .4.1.5.3.5.8 1.1 1.8 2.1 1.8 1.3 0 1.4-.9 1.5-2.7 0-.3.2-.5.5-.5h1.9c.2 0 .5.2.5.4.5 1.2 1.3 1.9 2.3 1.9s1.8-.7 2.2-1.9c.1-.2.3-.4.6-.4h1.9c.3 0 .6.2.6.5 0 1.8.1 2.7 1.5 2.7 1 0 1.7-1 2.1-1.8.1-.3.5-.4.8-.2l1.8 1c.3.1.4.4.3.7l-4.3 10.6h1.2c.6 0 1.1.5 1.1 1.1v2.3c0 .6-.5 1.1-1.1 1.1h-2.4v.3c0 2.7-.1 7 1 11h1.4c.6 0 1.1.5 1.1 1.1v2.5zm-16.4-26.4 2.4 6h5.1l2.4-6c-.9-.2-1.6-.7-2.3-1.3-.8.4-1.7.6-2.7.6s-1.9-.2-2.7-.6c-.5.6-1.3 1-2.2 1.3zm2.4 21.8h5.2c-1-4.2-.9-8.3-.9-11v-.2h-3.4v.2c0 2.5.1 6.7-.9 11zm10.1 7.5-2.3-1.3v-1.7h-10.4v1.7l-2.3 1.3v.7h15z"/></svg>