<svg enable-background="new 0 0 48 48" viewBox="0 0 48 48" xmlns="http://www.w3.org/2000/svg"><path d="m20.5 7.3c-1.4-.5-2.5-1.9-2.5-3.5 0-2.1 1.7-3.8 3.8-3.8h4.5c2 0 3.7 1.7 3.7 3.8 0 1.6-1.1 3-2.5 3.5 2.2 1.6 4.6 4.4 6.4 7.7l-11.3 11.3c-.2.2-.2.6 0 .8l1.3 1.3c.2.2.6.2.8 0l10.6-10.6c1.7 3.6 2.8 7.4 2.8 10.7 0 5-2.1 7.1-5.5 8.1v5.4h-17.2v-5.4c-3.3-1-5.5-3-5.5-8.1 0-7.3 5.5-17.6 10.6-21.2zm18.5 39.6v-2.3c0-.6-.5-1.1-1.1-1.1h-27.8c-.6 0-1.1.5-1.1 1.1v2.3c0 .6.5 1.1 1.1 1.1h27.8c.6 0 1.1-.5 1.1-1.1z"/></svg>