<svg enable-background="new 0 0 48 48" viewBox="0 0 48 48" xmlns="http://www.w3.org/2000/svg"><path d="m8.3 19.7h9.7l3.2-8.9c.3-.7-.3-1.5-1.1-1.5h-4.8v-2.8h2c.3 0 .6-.3.6-.6v-2.1c0-.3-.3-.6-.6-.6h-2.7v-2.6c0-.3-.3-.6-.6-.6h-2.1c-.3 0-.6.3-.6.6v2.7h-2.4c-.3 0-.6.3-.6.6v2.1c0 .3.3.6.6.6h2v2.8h-4.8c-.8 0-1.3.8-1.1 1.5zm22.2 8.5 2.3 1.6c0 1.7 0 6-1.1 10.7h13.8c-1.1-4.7-1.1-9-1.1-10.7l2.3-1.6c.1-.1.2-.2.2-.3v-6.6c0-.2-.2-.4-.4-.4h-2.5c-.2 0-.4.2-.4.4v3h-2.1v-3c0-.2-.2-.4-.4-.4h-5c-.2 0-.4.2-.4.4v3h-2.1v-3c0-.2-.2-.4-.4-.4h-2.6c-.2 0-.4.2-.4.4v6.6c.1.1.2.2.3.3zm6.7 4.9c0-.8.6-1.4 1.4-1.4s1.4.6 1.4 1.4v2.8h-2.8zm11.2 11-1.3-1v-1.5c0-.2-.2-.4-.4-.4h-16.2c-.2 0-.4.2-.4.4v1.5l-1.3 1c-.1.1-.1.2-.1.3v3.3c0 .2.2.4.4.4h19.2c.2 0 .4-.2.4-.4v-3.3c-.1-.2-.2-.3-.3-.3zm-24.3-1-2.1-1.4v-2.6c0-.3-.3-.6-.6-.6h-16.6c-.3 0-.6.3-.6.6v2.6l-2.1 1.3c-.2.1-.3.3-.3.5v3.9c0 .3.3.6.6.6h21.3c.3 0 .6-.3.6-.6v-3.9c0-.2 0-.3-.2-.4zm-4.2-19.6c.3 0 .6-.3.6-.6v-1.9c0-.3-.3-.6-.6-.6h-13.5c-.3 0-.6.3-.6.6v1.9c0 .3.3.6.6.6h2.4c0 2.7.2 8.9-1.6 14.4h11.9c-1.8-5.3-1.6-11.4-1.6-14.4z"/></svg>