<svg enable-background="new 0 0 48 48" viewBox="0 0 48 48" xmlns="http://www.w3.org/2000/svg"><path d="m38.6 37.1v-19.9c0-8.9-7.1-17.2-17.2-17.2h-8.3c-4.3 0-7 4.1-5.8 7.9-.3.8-.4 1.7-.4 2.6v10.7c0 2.2 1.2 4.6 3.9 5.7-.9 1.4-1.4 3.1-1.4 4.8v5.4l-1.9 1.1c-.4.2-.6.7-.6 1.1v7.4c0 .7.6 1.3 1.3 1.3h31.7c.7 0 1.3-.6 1.3-1.3v-7.4c0-.5-.2-.9-.6-1.1zm-24-5.4c0-1.5.9-2.9 2.2-3.6l5-2.5c1.4-.7 2.2-2.1 2.2-3.6v-6.2l-2.9 1c-.7.2-1.2.8-1.3 1.4l-1 4.1c-.1.3-.3.5-.5.7l-1.2.6c-.3.1-.6.1-.8 0l-3.7-1.6c-.4 0-.6-.4-.6-.8v-10.7c0-.6.3-1.2.8-1.6l.5-.4s-.6-1.3-1.1-2.1c-.3-.6.1-1.3.8-1.3h8.3c6.7 0 12.1 5.4 12.1 12.1v14.5l-1.7 1.7h-15.4zm21.4 11.2h-24v-1.3l2.6-1.5v-1.5h18.9v1.4l2.6 1.5v1.4zm-19.1-30.4c0 1-.8 1.7-1.7 1.7s-1.7-.8-1.7-1.7.8-1.7 1.7-1.7 1.7.7 1.7 1.7z"/></svg>