<svg enable-background="new 0 0 48 48" viewBox="0 0 48 48" xmlns="http://www.w3.org/2000/svg"><path d="m30.7 20.4c.3 0 .6.3.6.6v1.9c0 .3-.3.6-.6.6h-2.4c0 3-.2 9 1.6 14.4h-11.8c1.9-5.5 1.6-11.7 1.6-14.4h-2.4c-.3 0-.6-.3-.6-.6v-1.9c0-.3.3-.6.6-.6zm-14.8-9.6 3.2 8.9h9.7l3.2-8.9c.3-.7-.3-1.5-1.1-1.5h-4.8v-2.9h2c.3 0 .6-.3.6-.6v-2c0-.3-.3-.6-.6-.6h-2.7v-2.6c0-.3-.3-.6-.6-.6h-1.8c-.3 0-.6.3-.6.6v2.7h-2.7c-.3 0-.6.3-.6.6v2.1c0 .3.3.6.6.6h2v2.8h-4.7c-.8-.1-1.4.7-1.1 1.4zm17 30.9v-2.6c0-.3-.3-.6-.6-.6h-16.6c-.3 0-.6.3-.6.6v2.6l-2.1 1.4c-.2.1-.3.3-.3.5v3.9c0 .3.3.6.6.6h21.3c.3 0 .6-.3.6-.6v-3.9c0-.2-.1-.4-.3-.5z"/></svg>