<svg enable-background="new 0 0 48 48" viewBox="0 0 48 48" xmlns="http://www.w3.org/2000/svg"><path d="m38.6 37.1v-2.4c0-.7-.6-1.3-1.3-1.3h-3.8c-1.3-3.9-1.6-7.4-1.6-10.3h1.9c.7 0 1.3-.6 1.3-1.3v-2.6c0-.7-.6-1.3-1.3-1.3h-1.1c1.5-2 2.4-4.5 2.4-7.2-.1-5.7-4.8-10.5-10.7-10.7-6.3-.2-11.6 4.8-11.6 11.1 0 2.6.9 5 2.4 6.9h-1.1c-.7 0-1.3.6-1.3 1.3v2.6c0 .7.6 1.3 1.3 1.3h1.9c0 2.8-.2 6.4-1.6 10.3h-3.8c-.7 0-1.3.6-1.3 1.3v2.4l-1.9 1.1c-.4.2-.6.7-.6 1.1v7.4c0 .7.6 1.3 1.3 1.3h31.7c.7 0 1.3-.6 1.3-1.3v-7.4c0-.5-.2-.9-.6-1.1zm-14.6-32c3.3 0 6 2.7 6 6s-2.7 6-6 6-6-2.7-6-6 2.7-6 6-6zm-2.8 18h5.5c0 2.8.2 6.3 1.3 10.3h-8.2c1.2-4 1.4-7.6 1.4-10.3zm14.8 19.8h-24v-1.3l2.6-1.5v-1.5h18.9v1.4l2.6 1.5v1.4z"/></svg>