<svg enable-background="new 0 0 48 48" viewBox="0 0 48 48" xmlns="http://www.w3.org/2000/svg"><path d="m40.9 48h-33.8c-.6 0-1.1-.5-1.1-1.1v-2.3c0-.6.5-1.1 1.1-1.1h33.8c.6 0 1.1.5 1.1 1.1v2.3c0 .6-.5 1.1-1.1 1.1zm-16.9-48c-2.9 0-5.3 2.4-5.3 5.3s2.4 5.3 5.3 5.3 5.2-2.4 5.2-5.3-2.3-5.3-5.2-5.3zm19.1 14.5c-.5-.3-1.2-.1-1.5.4-.8 1.5-2.1 3.5-4.1 3.5-2.7 0-2.9-1.9-3-5.4 0-.6-.5-1.1-1.1-1.1h-3.8c-.5 0-.9.3-1.1.8-.8 2.5-2.4 3.8-4.5 3.8s-3.7-1.3-4.5-3.8c-.2-.5-.6-.8-1.1-.8h-3.8c-.6 0-1.1.5-1.1 1.1-.1 3.5-.3 5.4-3 5.4-1.9 0-3.2-1.9-4.2-3.6-.3-.5-1-.7-1.5-.4l-3.7 1.9c-.5.3-.7.9-.5 1.4l9.9 24.3h27l9.8-24.1c.2-.5 0-1.1-.5-1.4z"/></svg>