<svg enable-background="new 0 0 48 48" viewBox="0 0 48 48" xmlns="http://www.w3.org/2000/svg"><path d="m16.1 16c0 2.9 1.2 4.1 3.1 4.6v1.5h9.6v-1.5c1.9-.5 3.1-1.8 3.1-4.6 0-1.9-.7-4.2-1.8-6.4l-5 4.5c-.2.2-.6.2-.8 0l-.5-.6c-.2-.2-.2-.6 0-.8l5.4-4.8c-1-1.6-2.1-2.9-3.2-3.7.9-.3 1.5-1.1 1.5-2.1 0-1.2-1-2.2-2.2-2.2h-2.5c-1.2 0-2.2 1-2.2 2.2 0 1 .6 1.8 1.5 2.1-2.9 2.1-6 7.9-6 11.8zm20.2 26.7-2.3-1.4v-2.8c0-.3-.3-.6-.6-.6h-18.7c-.3 0-.6.3-.6.6v2.8l-2.3 1.4c-.2.1-.3.3-.3.5v4.1c0 .3.3.6.6.6h23.9c.3 0 .6-.3.6-.6v-4.1c-.1-.2-.2-.4-.3-.5zm-19.6-16h2.6c0 2.1.2 6.1-1.6 10.3h12.9c-1.8-4.1-1.6-8-1.6-10.3h2.6c.3 0 .6-.3.6-.6v-2.5c0-.3-.3-.6-.6-.6h-14.9c-.3 0-.6.3-.6.6v2.5c0 .4.3.6.6.6z"/></svg>