<svg enable-background="new 0 0 48 48" viewBox="0 0 48 48" xmlns="http://www.w3.org/2000/svg"><path d="m35.4 39.9-1.7-1v-2.5c0-.6-.5-1.1-1.1-1.1h-1.4c-1.1-3.7-1-7.8-1-10.3v-.2h2.4c.6 0 1.1-.5 1.1-1.1v-2.3c0-.6-.5-1.1-1.1-1.1h-1.7l2.8-8.3c.5-1.5-.6-3-2.1-3h-5.1v-2.5h1.9c.3 0 .6-.3.6-.6v-2.1c0-.3-.3-.6-.6-.6h-2.7v-2.6c-.1-.3-.3-.6-.7-.6h-2.1c-.3 0-.6.3-.6.6v2.7h-2.7c-.3 0-.6.3-.6.6v2.1c0 .3.3.6.6.6h1.9v2.4h-5.1c-1.5 0-2.6 1.5-2.1 3l2.8 8.3h-1.7c-.6 0-1.1.5-1.1 1.1v2.3c0 .6.5 1.1 1.1 1.1h2.4v.2c0 2.4.1 6.6-1 10.3h-1.4c-.6 0-1.1.5-1.1 1.1v2.5l-1.7 1c-.3.2-.6.6-.6 1v6c0 .6.5 1.1 1.1 1.1h21.8c.6 0 1.1-.5 1.1-1.1v-6c0-.4-.2-.8-.6-1zm-7-26.4-2.3 6.8h-4.3l-2.3-6.8zm-6.1 11.4v-.1h3.4v.1c0 2.5 0 6.4.9 10.4h-5.1c.9-4.1.8-8.1.8-10.4zm9.2 18.6h-15v-.7l2.3-1.3v-1.7h10.5v1.7l2.3 1.3v.7z"/></svg>