<svg enable-background="new 0 0 48 48" viewBox="0 0 48 48" xmlns="http://www.w3.org/2000/svg"><path d="m18.3 33.6h-3c-.5 0-.9.4-.9.9v3c0 .5.4.9.9.9h3c.5 0 .9-.4.9-.9v-3c0-.5-.4-.9-.9-.9zm0-14.4h-3c-.5 0-.9.4-.9.9v3c0 .5.4.9.9.9h3c.5 0 .9-.4.9-.9v-3c0-.5-.4-.9-.9-.9zm-7.2 0h-3c-.5 0-.9.4-.9.9v3c0 .5.4.9.9.9h3c.5 0 .9-.4.9-.9v-3c0-.5-.4-.9-.9-.9zm0 14.4h-3c-.5 0-.9.4-.9.9v3c0 .5.4.9.9.9h3c.5 0 .9-.4.9-.9v-3c0-.5-.4-.9-.9-.9zm0-7.2h-3c-.5 0-.9.4-.9.9v3c0 .5.4.9.9.9h3c.5 0 .9-.4.9-.9v-3c0-.5-.4-.9-.9-.9zm7.2 0h-3c-.5 0-.9.4-.9.9v3c0 .5.4.9.9.9h3c.5 0 .9-.4.9-.9v-3c0-.5-.4-.9-.9-.9zm21.6 7.2h-3c-.5 0-.9.4-.9.9v3c0 .5.4.9.9.9h3c.5 0 .9-.4.9-.9v-3c0-.5-.4-.9-.9-.9zm0-7.2h-3c-.5 0-.9.4-.9.9v3c0 .5.4.9.9.9h3c.5 0 .9-.4.9-.9v-3c0-.5-.4-.9-.9-.9zm6.3-7.2h-7.8v-12.6c0-1-.8-1.8-1.8-1.8h-15.6c-1 0-1.8.8-1.8 1.8v5.4h-2.4v-6c0-.7-.5-1.2-1.2-1.2h-1.2c-.7 0-1.2.5-1.2 1.2v6h-4.8v-6c0-.7-.5-1.2-1.2-1.2h-1.2c-.7 0-1.2.5-1.2 1.2v6h-3c-1 0-1.8.8-1.8 1.8v28.2c0 .7.5 1.2 1.2 1.2h1.2c.7 0 1.2-.5 1.2-1.2v-26.4h19.2v-7.2h12v14.4h9.6v19.2c0 .7.5 1.2 1.2 1.2h1.2c.7 0 1.2-.5 1.2-1.2v-21c0-1-.8-1.8-1.8-1.8zm-15.9-7.2h-3c-.5 0-.9.4-.9.9v3c0 .5.4.9.9.9h3c.5 0 .9-.4.9-.9v-3c0-.5-.4-.9-.9-.9zm0 14.4h-3c-.5 0-.9.4-.9.9v3c0 .5.4.9.9.9h3c.5 0 .9-.4.9-.9v-3c0-.5-.4-.9-.9-.9zm0-7.2h-3c-.5 0-.9.4-.9.9v3c0 .5.4.9.9.9h3c.5 0 .9-.4.9-.9v-3c0-.5-.4-.9-.9-.9z"/></svg>