<svg enable-background="new 0 0 48 48" viewBox="0 0 48 48" xmlns="http://www.w3.org/2000/svg"><path d="m46.2 19.2h-10.2v-12.6c0-1-.8-1.8-1.8-1.8h-10.8c-1 0-1.8.8-1.8 1.8v5.4h-4.8v-6c0-.7-.5-1.2-1.2-1.2h-1.2c-.7 0-1.2.5-1.2 1.2v6h-4.8v-6c0-.7-.5-1.2-1.2-1.2h-1.2c-.7 0-1.2.5-1.2 1.2v6h-3c-1 0-1.8.8-1.8 1.8v27c0 1.3 1.1 2.4 2.4 2.4h43.2c1.3 0 2.4-1.1 2.4-2.4v-19.8c0-1-.8-1.8-1.8-1.8zm-36.6 15.9c0 .5-.4.9-.9.9h-3c-.5 0-.9-.4-.9-.9v-3c0-.5.4-.9.9-.9h3c.5 0 .9.4.9.9zm0-7.2c0 .5-.4.9-.9.9h-3c-.5 0-.9-.4-.9-.9v-3c0-.5.4-.9.9-.9h3c.5 0 .9.4.9.9zm0-7.2c0 .5-.4.9-.9.9h-3c-.5 0-.9-.4-.9-.9v-3c0-.5.4-.9.9-.9h3c.5 0 .9.4.9.9zm9.6 14.4c0 .5-.4.9-.9.9h-3c-.5 0-.9-.4-.9-.9v-3c0-.5.4-.9.9-.9h3c.5 0 .9.4.9.9zm0-7.2c0 .5-.4.9-.9.9h-3c-.5 0-.9-.4-.9-.9v-3c0-.5.4-.9.9-.9h3c.5 0 .9.4.9.9zm0-7.2c0 .5-.4.9-.9.9h-3c-.5 0-.9-.4-.9-.9v-3c0-.5.4-.9.9-.9h3c.5 0 .9.4.9.9zm12 7.2c0 .5-.4.9-.9.9h-3c-.5 0-.9-.4-.9-.9v-3c0-.5.4-.9.9-.9h3c.5 0 .9.4.9.9zm0-7.2c0 .5-.4.9-.9.9h-3c-.5 0-.9-.4-.9-.9v-3c0-.5.4-.9.9-.9h3c.5 0 .9.4.9.9zm0-7.2c0 .5-.4.9-.9.9h-3c-.5 0-.9-.4-.9-.9v-3c0-.5.4-.9.9-.9h3c.5 0 .9.4.9.9zm12 21.6c0 .5-.4.9-.9.9h-3c-.5 0-.9-.4-.9-.9v-3c0-.5.4-.9.9-.9h3c.5 0 .9.4.9.9zm0-7.2c0 .5-.4.9-.9.9h-3c-.5 0-.9-.4-.9-.9v-3c0-.5.4-.9.9-.9h3c.5 0 .9.4.9.9z"/></svg>