<svg enable-background="new 0 0 48 48" viewBox="0 0 48 48" xmlns="http://www.w3.org/2000/svg"><path d="m24 22.1c7.9-7.2 12-10.9 12-15.6 0-3.6-3-6.5-6.6-6.5-2 0-4.1.8-5.4 2.4-1.3-1.6-3.4-2.4-5.5-2.4-3.6 0-6.5 3-6.5 6.6 0 4.6 4.1 8.3 12 15.5zm-1.9 1.9c-7.2-7.9-10.9-12-15.6-12-3.6 0-6.5 3-6.5 6.6 0 2 .8 4.1 2.4 5.4-1.6 1.3-2.4 3.4-2.4 5.5 0 3.6 3 6.5 6.6 6.5 4.6 0 8.3-4.1 15.5-12zm3.9 0c7.2 7.9 10.9 12 15.6 12 3.6 0 6.5-3 6.5-6.6 0-2-.8-4.1-2.4-5.4 1.6-1.3 2.4-3.4 2.4-5.5 0-3.6-3-6.5-6.6-6.5-4.7 0-8.4 4.1-15.5 12zm-2 1.9c-7.9 7.2-12 10.9-12 15.6 0 3.6 3 6.5 6.6 6.5 2 0 4.1-.8 5.4-2.4 1.3 1.6 3.4 2.4 5.5 2.4 3.6 0 6.5-3 6.5-6.6 0-4.6-4.1-8.3-12-15.5z"/></svg>