<svg enable-background="new 0 0 48 48" viewBox="0 0 48 48" xmlns="http://www.w3.org/2000/svg"><path d="m29.4 2.6c2.3 0 4.1 1.8 4.1 4 0 3.2-2.9 6.2-9.5 12.2-6.1-5.6-9.5-8.9-9.5-12.1 0-2.3 1.8-4.1 4-4.1 1.5 0 2.8.5 3.6 1.5l1.9 2.2 1.9-2.3c.8-.9 2.1-1.4 3.5-1.4m0-2.5c-2 0-4.1.8-5.4 2.4-1.3-1.6-3.4-2.4-5.5-2.4-3.6 0-6.5 3-6.5 6.6 0 4.5 4.1 8.3 12 15.4 7.9-7.2 12-10.9 12-15.6 0-3.6-3-6.4-6.6-6.4z"/><path d="m6.5 14.5c3.2 0 6.2 2.9 12.2 9.5-5.6 6.1-8.9 9.5-12.1 9.5-2.3 0-4.1-1.8-4.1-4 0-1.5.5-2.8 1.5-3.6l2.3-1.9-2.3-1.9c-.9-.8-1.5-2.1-1.5-3.5 0-2.2 1.8-4.1 4-4.1m0-2.5c-3.6 0-6.5 3-6.5 6.6 0 2 .8 4.1 2.4 5.4-1.5 1.3-2.4 3.4-2.4 5.5 0 3.6 3 6.5 6.6 6.5 4.5 0 8.3-4.1 15.4-12-7.1-7.9-10.8-12-15.5-12z"/><path d="m41.5 14.5c2.3 0 4.1 1.8 4.1 4 0 1.5-.5 2.8-1.5 3.6l-2.3 1.9 2.3 1.9c.9.8 1.5 2.1 1.5 3.5 0 2.3-1.8 4.1-4 4.1-3.2 0-6.2-2.9-12.2-9.5 5.7-6.4 8.9-9.5 12.1-9.5m0-2.5c-4.7 0-8.4 4.1-15.4 12 7.2 7.9 10.9 12 15.6 12 3.6 0 6.5-3 6.5-6.6 0-2-.8-4.1-2.4-5.4 1.6-1.3 2.4-3.4 2.4-5.5-.2-3.6-3.1-6.5-6.7-6.5z"/><path d="m24 29.3c6.1 5.6 9.5 8.9 9.5 12.1 0 2.3-1.8 4.1-4 4.1-1.5 0-2.8-.5-3.6-1.5l-1.9-2.3-1.9 2.3c-.8.9-2.1 1.5-3.5 1.5-2.3 0-4.1-1.8-4.1-4 0-3.2 2.9-6.2 9.5-12.2m0-3.4c-7.9 7.2-12 10.9-12 15.6 0 3.6 3 6.5 6.6 6.5 2 0 4.1-.8 5.4-2.4 1.3 1.6 3.4 2.4 5.5 2.4 3.6 0 6.5-3 6.5-6.6 0-4.6-4.1-8.3-12-15.5z"/></svg>