<svg enable-background="new 0 0 48 48" viewBox="0 0 48 48" xmlns="http://www.w3.org/2000/svg"><path d="m41.4 0c-.2 0-.4 0-.7 0-1.1 0-2.2.3-3.2.8-.3 0-.7-.1-1-.1-.7 0-1.4.1-2 .3-.9.2-1.7.7-2.4 1.2-.9 0-1.7.2-2.5.6s-1.6.9-2.2 1.5c-.9.1-1.7.5-2.4.9s-1.3.9-1.9 1.6c-.8.2-1.6.6-2.3 1.1-.4.2-.8.6-1.1 1.1-.4-.5-.9-1.1-1.4-1.6l-4-4c-.8-.8-2.3-.4-2.5.8l-2.6 12.7-5.8 5.8c-4.4 4.4-4.5 11.5-.5 16.1l5.7 5.8c2.6 2.6 6.1 3.8 9.9 3.3 2.7-.4 5.2-1.8 7.2-3.7l5.4-5.4 12.7-2.5c1.2-.2 1.6-1.7.8-2.5l-4-4c-.5-.5-1-1-1.6-1.4.3-.3.7-.6 1-1 .5-.7.9-1.5 1.1-2.3.7-.5 1.2-1.2 1.6-2 .4-.7.7-1.5.9-2.3.6-.6 1.1-1.3 1.5-2.1s.6-1.7.6-2.6c.5-.7.9-1.5 1.2-2.3.3-1 .4-2 .2-3 .5-1 .8-2 .8-3.1v-.1 0c.3-3.9-2.6-7.2-6.5-7.6zm-35.4 35.6c-2.3-2.9-2-7.1.6-9.7l6.7-6.7 1.7-8.6c4.3 4.3 5.8 9.6 4.6 14.6-3.2 1.1-6.1 3-8.7 5.5.1 0-4.9 4.9-4.9 4.9zm22.8-1-6.7 6.7c-2.8 2.8-7.5 2.9-10.4.1l-2.6-2.6 5-5c3.6-3.6 8.1-5.5 12.5-5.5 3.9 0 7.7 1.5 10.8 4.5zm13.2-24.7c.6.7.9 1.6.6 2.6-.3.9-1 1.6-1.8 1.8.5.7.6 1.7.2 2.5-.4.9-1.2 1.4-2 1.6.4.8.4 1.7-.1 2.5s-1.3 1.3-2.1 1.3c.3.8.2 1.7-.3 2.5-.4.5-.9.8-1.5 1-2.5-1.2-5.3-1.8-8.2-1.8-.7 0-1.5 0-2.2.1.5-3.7-.2-7.4-2-10.8.1-.7.4-1.3 1-1.7.9-.6 1.9-.6 2.5-.3.1-.8.5-1.7 1.3-2.1 1.3-.8 2.5-.1 2.5-.1.2-.8.7-1.6 1.6-2 1.1-.5 2-.1 2.5.2.3-.9.9-1.6 1.9-1.8.2-.1 1.5-.4 2.6.6 2.1-4.3 7.9 1.6 3.5 3.9z"/></svg>