<svg enable-background="new 0 0 48 48" viewBox="0 0 48 48" xmlns="http://www.w3.org/2000/svg"><path d="m43.2 19.5v-5.1c0-4-3.2-7.2-7.2-7.2h-24c-4 0-7.2 3.2-7.2 7.2v5.1c-2.6.8-4.6 3-4.8 5.7-.2 2.2.7 4.2 2.4 5.6v6.9c0 1.7 1.3 3 3 3h6.6c.3 0 2.3-.1 2.4-2.4h19.2c.1 2.3 2.1 2.4 2.4 2.4h6.6c1.7 0 3-1.3 3-3v-6.9c1.7-1.4 2.6-3.4 2.4-5.6-.2-2.6-2.2-4.9-4.8-5.7zm-32.4 17.7h-4.8v-8.3l-.9-.5c-1-.6-1.6-1.7-1.5-2.8.1-1.5 1.6-2.8 3.3-2.8h.9c1.7 0 3 1.3 3 3zm22.8-9.6v7.2h-19.2v-7.2zm.3-3.6h-19.8c-.7-2.6-3-4.5-5.7-4.7v-4.9c0-2 1.6-3.6 3.6-3.6h24c2 0 3.6 1.6 3.6 3.6v4.9c-2.7.2-5 2.1-5.7 4.7zm9 4.4-.9.5v8.3h-4.8v-11.4c0-1.7 1.3-3 3-3h.9c1.7 0 3.2 1.2 3.3 2.8.1 1.1-.5 2.2-1.5 2.8z"/></svg>