<svg enable-background="new 0 0 48 48" viewBox="0 0 48 48" xmlns="http://www.w3.org/2000/svg"><path d="m39.6 38.4h-31.2c-.7 0-1.2.5-1.2 1.2v2.4c0 .7.5 1.2 1.2 1.2h31.2c.7 0 1.2-.5 1.2-1.2v-2.4c0-.7-.5-1.2-1.2-1.2zm4.8-24c-2 0-3.6 1.6-3.6 3.6 0 .5.1 1 .3 1.5l-5.4 3.3c-1.2.7-2.6.3-3.3-.9l-6.1-10.7c.8-.7 1.3-1.7 1.3-2.8 0-2-1.6-3.6-3.6-3.6s-3.6 1.6-3.6 3.6c0 1.1.5 2.1 1.3 2.8l-6.1 10.7c-.7 1.2-2.2 1.6-3.3.9l-5.4-3.3c.2-.4.3-1 .3-1.5 0-2-1.6-3.6-3.6-3.6s-3.6 1.6-3.6 3.6 1.6 3.6 3.6 3.6c.2 0 .4 0 .6-.1l5.4 14.5h28.8l5.4-14.5c.2 0 .4.1.6.1 2 0 3.6-1.6 3.6-3.6s-1.6-3.6-3.6-3.6z"/></svg>