<svg enable-background="new 0 0 48 48" viewBox="0 0 48 48" xmlns="http://www.w3.org/2000/svg"><path d="m33.6 10.2c-1 0-1.8.8-1.8 1.8s.8 1.8 1.8 1.8 1.8-.8 1.8-1.8-.8-1.8-1.8-1.8zm7.2-3h-1.9c-1.3-1.5-3.2-2.4-5.3-2.4-4 0-7.2 3.2-7.2 7.2v2.3l-25.5 20c-.6.4-.9 1.1-.9 1.8 0 1.3 1.1 2.3 2.3 2.3.3 0 .7-.1 1-.2l9.1-4.6h7.2l3.3 9c.2.5.7.7 1.2.5l1.7-.6c.5-.2.7-.7.5-1.2l-2.9-7.8h2.9.4l3.3 9c.2.5.7.7 1.2.5l1.7-.6c.5-.2.7-.7.5-1.2l-2.9-8.2c6-1.8 10.3-7.3 10.3-13.8v-6l7.2-1.2c0-2.7-3.2-4.8-7.2-4.8zm-3.6 12c0 6-4.8 10.8-10.8 10.8h-5.8l3.4-1c3.6-1 6.6-3.5 8.3-6.9.3-.6.1-1.3-.5-1.6s-1.3-.1-1.6.5c-1.4 2.7-3.9 4.8-6.8 5.7l-10.9 3.1 16.2-12.7 1.3-1.1v-4c0-2 1.6-3.6 3.6-3.6s3.6 1.6 3.6 3.6z"/></svg>