<svg enable-background="new 0 0 48 48" viewBox="0 0 48 48" xmlns="http://www.w3.org/2000/svg"><path d="m39.6 39.6h-31.2c-.7 0-1.2.5-1.2 1.2v1.2c0 .7.5 1.2 1.2 1.2h31.2c.7 0 1.2-.5 1.2-1.2v-1.2c0-.7-.5-1.2-1.2-1.2zm4.8-25.2c-2 0-3.6 1.6-3.6 3.6 0 .5.1 1 .3 1.5l-5.4 3.3c-.4.2-.8.3-1.2.3-.8 0-1.6-.4-2.1-1.2l-6.1-10.7c.8-.7 1.3-1.7 1.3-2.8 0-2-1.6-3.6-3.6-3.6s-3.6 1.6-3.6 3.6c0 1.1.5 2.1 1.3 2.8l-6.1 10.7c-.4.8-1.3 1.2-2.1 1.2-.4 0-.8-.1-1.2-.3l-5.4-3.3c.2-.5.3-1 .3-1.5 0-2-1.6-3.6-3.6-3.6s-3.6 1.6-3.6 3.6 1.6 3.6 3.6 3.6c.2 0 .4 0 .6-.1l5.4 14.5h28.8l5.4-14.5c.2 0 .4.1.6.1 2 0 3.6-1.6 3.6-3.6s-1.6-3.6-3.6-3.6zm-8.5 18h-23.8l-2.7-7.2 1.1.6c.9.6 2 .9 3.1.9 2.2 0 4.1-1.2 5.2-3l5.3-9.2 5.3 9.2c1.1 1.9 3.1 3 5.2 3 1.1 0 2.2-.3 3.1-.9l1-.6z"/></svg>