<svg enable-background="new 0 0 48 48" viewBox="0 0 48 48" xmlns="http://www.w3.org/2000/svg"><path d="m36 29.4c-1 0-1.8.8-1.8 1.8s.8 1.8 1.8 1.8 1.8-.8 1.8-1.8-.8-1.8-1.8-1.8zm7.2-10.2h-10.2c-.2-.4-.5-.8-.8-1.1l-11.9-11.9c-1-1-2.2-1.4-3.5-1.4s-2.5.5-3.5 1.4l-11.9 11.9c-1.9 1.9-1.9 5.1 0 7l11.9 11.9c1 1 2.2 1.4 3.5 1.4s2.5-.5 3.5-1.4l3.7-3.7v5.2c0 2.7 2.1 4.8 4.8 4.8h14.4c2.7 0 4.8-2.1 4.8-4.8v-14.5c0-2.7-2.1-4.8-4.8-4.8zm-25.5 15.1c-.3.3-.7.4-.9.4s-.6 0-.9-.4l-11.8-11.8c-.5-.5-.5-1.3 0-1.7l11.8-11.9c.3-.3.7-.4.9-.4s.6 0 .9.4l11.9 11.9c.5.5.5 1.3 0 1.7zm26.7 4.1c0 .7-.5 1.2-1.2 1.2h-14.4c-.7 0-1.2-.5-1.2-1.2v-8.8l4.6-4.6c.7-.7 1.1-1.5 1.3-2.3h9.8c.7 0 1.2.5 1.2 1.2v14.5zm-27.6-18.6c-1 0-1.8.8-1.8 1.8s.8 1.8 1.8 1.8 1.8-.8 1.8-1.8-.8-1.8-1.8-1.8zm7.2 0c-1 0-1.8.8-1.8 1.8s.8 1.8 1.8 1.8 1.8-.8 1.8-1.8-.8-1.8-1.8-1.8zm-14.4 0c-1 0-1.8.8-1.8 1.8s.8 1.8 1.8 1.8 1.8-.8 1.8-1.8-.8-1.8-1.8-1.8zm7.2 7.2c-1 0-1.8.8-1.8 1.8s.8 1.8 1.8 1.8 1.8-.8 1.8-1.8-.8-1.8-1.8-1.8zm0-14.4c-1 0-1.8.8-1.8 1.8s.8 1.8 1.8 1.8 1.8-.8 1.8-1.8-.8-1.8-1.8-1.8z"/></svg>