<svg enable-background="new 0 0 48 48" viewBox="0 0 48 48" xmlns="http://www.w3.org/2000/svg"><path d="m41.1 0h-34.2c-3.8 0-6.9 3.1-6.9 6.9v34.3c0 3.7 3.1 6.8 6.9 6.8h34.3c3.8 0 6.9-3.1 6.9-6.9v-34.2c-.1-3.8-3.2-6.9-7-6.9zm1.8 41.1c0 .9-.8 1.7-1.7 1.7h-34.3c-.9 0-1.7-.8-1.7-1.7v-34.2c0-.9.8-1.7 1.7-1.7h34.3c.9 0 1.7.8 1.7 1.7zm-29.2-30.8c-1.9 0-3.4 1.5-3.4 3.4s1.5 3.4 3.4 3.4 3.4-1.5 3.4-3.4-1.5-3.4-3.4-3.4zm0 10.3c-1.9 0-3.4 1.5-3.4 3.4s1.5 3.4 3.4 3.4 3.4-1.5 3.4-3.4-1.5-3.4-3.4-3.4zm20.6 0c-1.9 0-3.4 1.5-3.4 3.4s1.5 3.4 3.4 3.4 3.4-1.5 3.4-3.4-1.5-3.4-3.4-3.4zm-20.6 10.3c-1.9 0-3.4 1.5-3.4 3.4s1.5 3.4 3.4 3.4 3.4-1.5 3.4-3.4-1.5-3.4-3.4-3.4zm20.6-20.6c-1.9 0-3.4 1.5-3.4 3.4s1.5 3.4 3.4 3.4 3.4-1.5 3.4-3.4-1.5-3.4-3.4-3.4zm0 20.6c-1.9 0-3.4 1.5-3.4 3.4s1.5 3.4 3.4 3.4 3.4-1.5 3.4-3.4-1.5-3.4-3.4-3.4z"/></svg>