<svg enable-background="new 0 0 48 48" viewBox="0 0 48 48" xmlns="http://www.w3.org/2000/svg"><path d="m44.4 19.2h-8.9c1 2.2.5 4.9-1.3 6.7l-10.2 10.2v3.5c0 2 1.6 3.6 3.6 3.6h16.8c2 0 3.6-1.6 3.6-3.6v-16.8c0-2-1.6-3.6-3.6-3.6zm-8.4 13.8c-1 0-1.8-.8-1.8-1.8s.8-1.8 1.8-1.8 1.8.8 1.8 1.8-.8 1.8-1.8 1.8zm-3.5-14-13.1-13.1c-1.4-1.4-3.8-1.4-5.2 0l-13.1 13.1c-1.4 1.4-1.4 3.8 0 5.2l13.1 13.1c1.4 1.4 3.8 1.4 5.2 0l13.1-13.1c1.5-1.4 1.5-3.8 0-5.2zm-25.3 4.4c-1 0-1.8-.8-1.8-1.8s.8-1.8 1.8-1.8 1.8.8 1.8 1.8-.8 1.8-1.8 1.8zm9.6 9.6c-1 0-1.8-.8-1.8-1.8s.8-1.8 1.8-1.8 1.8.8 1.8 1.8-.8 1.8-1.8 1.8zm0-9.6c-1 0-1.8-.8-1.8-1.8s.8-1.8 1.8-1.8 1.8.8 1.8 1.8-.8 1.8-1.8 1.8zm0-9.6c-1 0-1.8-.8-1.8-1.8s.8-1.8 1.8-1.8 1.8.8 1.8 1.8-.8 1.8-1.8 1.8zm9.6 9.6c-1 0-1.8-.8-1.8-1.8s.8-1.8 1.8-1.8 1.8.8 1.8 1.8-.8 1.8-1.8 1.8z"/></svg>