<svg enable-background="new 0 0 48 48" viewBox="0 0 48 48" xmlns="http://www.w3.org/2000/svg"><path d="m45.6 9.6c-.4-.7-1.3-1.2-2.2-1.2-.6 0 .1-.2-10.1 3.3-3 1-6.2 1.5-9.3 1.5-3.2 0-6.3-.5-9.3-1.5-10.3-3.5-9.6-3.3-10.1-3.3-.9 0-1.8.5-2.2 1.2-3.1 5.3-3.1 16.3 0 21.7.4.7 1.3 1.2 2.2 1.2.6 0-.1.2 10.1-3.3.6-.2 1.1-.3 1.7-.5l-4.3 7.4c-.2.6.2 1.2.8 1.1h2.7l1.9 2.1c.4.4 1.1.3 1.4-.3l5.1-9 5.1 9.1c.2.6 1 .7 1.4.3l1.9-2.1h2.7c.6 0 1-.6.8-1.1l-4.3-7.4c.6.2 1.2.3 1.7.5 10.3 3.5 9.5 3.3 10.1 3.3.9 0 1.8-.5 2.2-1.2 3.2-5.5 3.2-16.5 0-21.8zm-32.1 16.1-8.5 2.9c-1.9-4.2-1.9-12.1 0-16.4l8.5 2.9c1.9.6 3.8 1.1 5.7 1.4v7.3l-.4.7c-1.8.2-3.6.6-5.3 1.2zm29.5 2.9-8.5-2.9c-1.7-.6-3.5-1-5.3-1.3l-.4-.7v-7.3c1.9-.3 3.8-.7 5.7-1.4l8.5-2.9c1.9 4.4 1.9 12.2 0 16.5z"/></svg>