<svg enable-background="new 0 0 48 48" viewBox="0 0 48 48" xmlns="http://www.w3.org/2000/svg"><path d="m28.8 23.8v-10.6h-9.6v10.6l-7.1 12.3c-.2.6.2 1.2.8 1.1h2.7l1.9 2.1c.4.4 1.1.3 1.4-.3l5.1-9 5.1 9.1c.2.6 1 .7 1.4.3l1.9-2.1h2.7c.6 0 1-.6.8-1.1zm-12-.7v-10.8c-.7-.2-1.4-.4-2.1-.6l-9.6-3.2c-1.1-.3-2.2.2-2.7 1.1-3.1 5.3-3.1 16.3 0 21.7.5.9 1.7 1.3 2.8 1.1l7.8-2.6zm28.8-13.5c-.5-.9-1.7-1.3-2.8-1.1l-9.5 3.2c-.7.2-1.4.4-2.1.6v10.8l3.8 6.6 7.8 2.6c1.1.2 2.3-.2 2.8-1.1 3.2-5.3 3.2-16.3 0-21.6z"/></svg>