<svg enable-background="new 0 0 48 48" viewBox="0 0 48 48" xmlns="http://www.w3.org/2000/svg"><path d="m24 2.6 21.4 21.4-21.4 21.4-21.4-21.4zm0-2.6c-.6 0-1.2.2-1.7.7l-21.6 21.6c-1 1-1 2.4 0 3.4l21.6 21.6c.5.5 1.1.7 1.7.7s1.2-.2 1.7-.7l21.6-21.6c1-1 1-2.4 0-3.4l-21.6-21.6c-.5-.5-1.1-.7-1.7-.7z"/><path d="m0 0h48v48h-48z" fill="none"/><path d="m13.9 29.8v-8.4c0-.6.5-1.1 1.1-1.1h13.3v-4.3l5.4 5.4-5.4 5.4v-4.2h-12.2v7.2z"/><path d="m29.5 19 2.4 2.4-2.4 2.4v-2.5zm-2.5-6v6h-12c-1.3 0-2.4 1.1-2.4 2.4v9.6h4.8v-7.2h9.6v6l8.4-8.4z"/></svg>