<svg enable-background="new 0 0 48 48" viewBox="0 0 48 48" xmlns="http://www.w3.org/2000/svg"><path d="m24 46.8c-.3 0-.6-.1-.8-.4l-21.6-21.6c-.2-.2-.4-.5-.4-.8s.1-.6.4-.8l21.6-21.6c.2-.2.5-.4.8-.4s.6.1.8.4l21.6 21.6c.2.2.4.5.4.8s-.1.6-.4.8l-21.6 21.6c-.2.2-.5.4-.8.4zm3.5-13.8 11.5-11.4-11.5-11.4v7.8h-10.7c-2 0-3.6 1.6-3.6 3.6v10.9h7.3v-7.2h7.1v7.7z"/><path d="m24 2.6 21.4 21.4-21.4 21.4-11.7-11.7h2.1 4.8 2.5v-2.5-4.7h4.6v3.5 6l4.3-4.3 8.4-8.4 1.8-1.8-1.8-1.7-8.4-8.4-4.3-4.3v6 3.5h-9.5c-2.7 0-4.9 2.2-4.9 4.9v9.6 2.1l-9.3-9.2zm0-2.6c-.6 0-1.2.2-1.7.7l-21.6 21.6c-1 1-1 2.4 0 3.4l21.6 21.6c.5.5 1.1.7 1.7.7s1.2-.2 1.7-.7l21.6-21.6c1-1 1-2.4 0-3.4l-21.6-21.6c-.5-.5-1.1-.7-1.7-.7zm-9.6 31.2v-9.6c0-1.3 1.1-2.4 2.4-2.4h12v-6l8.4 8.4-8.4 8.4v-6h-9.6v7.2z"/><path d="m0 0h48v48h-48z" fill="none"/></svg>