<svg enable-background="new 0 0 48 48" viewBox="0 0 48 48" xmlns="http://www.w3.org/2000/svg"><path d="m34.5 15c0 .8.7 1.5 1.5 1.5s1.5-.7 1.5-1.5-.7-1.5-1.5-1.5-1.5.7-1.5 1.5zm1.5-9c-4.3 0-8 3-8.8 7.1-2.7-3.4-4.6-7.5-5.3-11.9-.2-1.2-1.8-1.8-2.6-.8-2.4 2.8-4.2 6.1-5.2 9.9-.1.5-.2 1.1-.3 1.6-2.4-2.3-4.3-5-5.7-8.1-.5-1.1-2.1-1.1-2.7 0-1.5 3.2-2.4 6.8-2.4 10.5-.1 9 5.1 15.3 9 18.7l-10.7 3.6c-1.1.3-1.7 1.7-1 2.7 1.9 3 6.5 8.2 16.4 8.6 1.3.1 1.6-.4 2.4-.9l7.2-5.1h3.7c8.3 0 15-6.7 15-15v-11.9l3-9zm-17.5 5.5c.2-.9.5-1.8.9-2.6 1.5 3.6 3.7 6.8 6.5 9.6-2.8-.6-5.5-1.7-7.9-3.2 0-1.3.2-2.6.5-3.8zm22 2.7v12.8c0 5.8-4.7 10.5-10.5 10.5h-5.2l-8.4 6c-4.9-.3-8.1-2-10-3.8l14.4-4.9c-5.3-4.4-13.4-10.4-13.3-20.4 0-.8.1-1.6.2-2.4 8.7 11.3 22.3 12 23.8 12v-9c0-2.5 2-4.5 4.5-4.5h5.8z"/></svg>