<svg enable-background="new 0 0 48 48" viewBox="0 0 48 48" xmlns="http://www.w3.org/2000/svg"><path d="m27 15.7v-2.6c-2.6-3.4-4.4-7.4-5.1-11.7-.2-1.3-1.8-1.8-2.6-.8-2 2.3-3.5 5.1-4.6 8.1 3.2 3.6 7.5 6 12.3 7zm10.5-9.7c-4.2 0-7.5 3.4-7.5 7.5v5.6c-9.8-.6-18.1-6.6-21.9-15.1-.5-1.2-2.1-1.3-2.7-.1-1.5 3.3-2.4 6.9-2.4 10.8 0 6.6 3.2 12.8 8 17.4 1.2 1.2 2.4 2.2 3.6 3.1l-13.5 3.4c-1 .3-1.5 1.4-.9 2.3 1.6 2.5 5.7 6.8 14.4 7.2.7 0 1.5-.2 2.1-.7l6.1-5.3h7.2c8.3 0 15-6.7 15-15v-15.1l3-6zm0 9c-.8 0-1.5-.7-1.5-1.5s.7-1.5 1.5-1.5 1.5.7 1.5 1.5c0 .9-.7 1.5-1.5 1.5z"/></svg>