<svg enable-background="new 0 0 48 48" viewBox="0 0 48 48" xmlns="http://www.w3.org/2000/svg"><path d="m36.1 13.8c1.1.1 2.1-.7 2.3-1.8l-4.4-1.2c-.5 2 1.2 2.9 2.1 3zm6.2 10.3-7.1-3.3c-.2-.1-.3-.2-.3-.4h1.4c.4.2.7.4.9.6 1.2.8 1.9 1.2 3.2 1.2h2.1c1.7 0 3.3-.9 4.1-2.5l1-1.9c.8-1.5.6-3.4-.4-4.8l-5-6.5c-.9-1.1-2.2-1.8-3.6-1.8h-16c-2.8 0-4 3.5-1.9 5.2l.9.7c-.3.1-.3.1-.4.2-2.2 1.1-2.2 4.2 0 5.3l2.9 1.1v1l-12.6-3.1c-1.7-.4-3.5.2-4.5 1.6l-6.7 9.5c-1.1 1.7.3 3.9 2.5 3.6l6.9-1.3c-1.1 1.7.4 3.9 2.4 3.6l13.6-1.8c.4.8.8 1.5 1.3 2.2-11 .8-18.5 2.4-24.1 3.6-1.7.4-2.9 1.9-2.9 3.5 0 2 1.6 3.6 3.6 3.6h33.7c5.7 0 10.4-4.2 10.7-9.5.2-4.1-2-7.8-5.7-9.6zm-37.2 1.6 4.9-6.9c.1-.2.3-.3.6-.2l5.2 1.3-3.1 4.4zm9.2 2.5 5.2-7.4 4.5 1.1c0 1.6 0 2.8.5 4.9zm23 11.4-33.7.1c6.9-1.5 14.8-3.3 28.7-3.8 1.2-.1 1.8-1.6.7-2.4-5.4-3.9-5.4-9.3-5.4-10.7v-8l-3.4-1.3 4.3-1.7-4.2-3.3h14.1c.3 0 .6.1.8.4l5 6.5c.2.3.2.6.1.9l-1 1.9c-.2.3-.5.5-.9.5h-2.1c-.3 0-.3 0-1.2-.6-.4-.2-1.8-1.2-1.8-1.2h-6.1v3.3c0 1.7.9 3.2 2.5 3.9l7 3.3c2.4 1.2 3.8 3.5 3.7 6.2-.2 3.2-3.4 6-7.1 6z"/></svg>