<svg enable-background="new 0 0 48 48" viewBox="0 0 48 48" xmlns="http://www.w3.org/2000/svg"><path d="m1.4 24 13-2.4-6.8 5.2c-.8.8-.2 2 .8 2h16.7c-.7-2-1.1-4.1-1.1-6.3v-3.2l-9-6.6c-1.8-1.2-4.1-1.1-5.8.3l-8.8 8.7c-.9.9-.2 2.5 1 2.3zm41.7 2.5-7.5-3.8c-1.2-.6-2-1.9-2-3.2v-2.8h4.8l2.1 1.7c.5.4 1.1.7 1.7.7h2.3c.9 0 1.7-.5 2.1-1.3l1.1-2.1c.4-.8.3-1.8-.2-2.5l-5.6-7.5c-.5-.6-1.2-1-1.9-1h-17.8c-.5 0-.8.6-.4 1l4.6 3.8-4.5 1.9c-.4.2-.4.9 0 1.1l4.5 1.9v8.1c0 5.4 2.7 10.5 7.2 13.5-14.7.5-25.8 3.1-32.6 4.6-.6.1-1 .7-1 1.3 0 .7.6 1.3 1.3 1.3h37.4c4.7 0 9-3.6 9.2-8.3.3-3.6-1.6-6.8-4.8-8.4zm-6.4-16.7 3.4.9c-.2.8-.9 1.4-1.8 1.4-1-.2-1.9-1-1.6-2.3z"/></svg>