<svg enable-background="new 0 0 48 48" viewBox="0 0 48 48" xmlns="http://www.w3.org/2000/svg"><path d="m34.9 2.7 3.6 3.6 1.8 1.8 1.7 1.6 3.6 3.6v.1zm-11 .9c.7 0 1.4.3 1.9.7l1.8 1.8 14.2 14.2 1.8 1.8c.9.9.9 2.6 0 3.7-.5.4-1.1.7-1.8.7s-1.4-.3-1.9-.7l-6.4-6.4-1.8-1.8-1.7 1.7-10.7 10.7-1.8 1.8 1.8 1.8 6.5 6.5c.9.9.9 2.6 0 3.7-.5.4-1.1.7-1.8.7s-1.4-.3-1.9-.7l-1.8-1.8-14.2-14.4-1.8-1.8c-.9-.9-.9-2.6 0-3.7.5-.4 1.1-.7 1.8-.7s1.4.3 1.9.7l6.4 6.4 1.8 1.8 1.8-1.8 10.6-10.5 1.8-1.8-1.8-1.8-6.4-6.4c-.9-.9-.9-2.6 0-3.7.4-.4 1.1-.7 1.7-.7m-21.3 31.1 10.6 10.6v.1l-3.6-3.6-1.8-1.8-1.7-1.7-3.5-3.6c0 .1-.1.1 0 0s0 .1 0 0zm32.3-34.5c-.7 0-1.3.2-1.8.7-1 1-1 2.6 0 3.6l10.7 10.7c.5.5 1.1.7 1.8.7s1.3-.2 1.8-.7c1-1 1-2.6 0-3.6l-3.7-3.6 2.6-2.6-3.6-3.6-2.5 2.8-3.6-3.6c-.4-.6-1.1-.8-1.7-.8zm-11 .9c-1.3 0-2.6.5-3.5 1.4-1.9 2-1.9 5.3 0 7.2l6.5 6.5-10.7 10.7-6.5-6.5c-1-1-2.3-1.4-3.6-1.4s-2.6.5-3.5 1.4c-1.9 2-1.9 5.3 0 7.2l1.8 1.8 14.2 14.2 1.8 1.8c1 1 2.3 1.4 3.6 1.4s2.6-.5 3.5-1.4c1.9-2 1.9-5.3 0-7.2l-6.5-6.5 10.7-10.7 6.5 6.5c1 1 2.3 1.4 3.6 1.4s2.6-.5 3.5-1.4c1.9-2 1.9-5.3 0-7.2l-1.8-1.8-14.1-14.1-1.8-1.8c-1-1-2.4-1.5-3.7-1.5zm-21.3 31.1c-.7 0-1.3.2-1.8.7-1 1-1 2.6 0 3.6l3.6 3.6-2.6 2.6 3.5 3.5 2.6-2.6 3.6 3.6c.5.5 1.1.7 1.8.7s1.3-.2 1.8-.7c1-1 1-2.6 0-3.6l-10.7-10.6c-.5-.5-1.2-.8-1.8-.8z"/></svg>