<svg enable-background="new 0 0 48 48" viewBox="0 0 48 48" xmlns="http://www.w3.org/2000/svg"><path d="m4.4 29.4-1.8-1.8c-1.9-1.9-1.9-5.1 0-7.2 1.9-1.9 5.1-1.9 7.2 0l6.5 6.5 10.7-10.7-6.5-6.5c-1.9-1.9-1.9-5.1 0-7.2 1.9-1.9 5.1-1.9 7.2 0l1.8 1.8 14.2 14.2 1.8 1.8c1.9 1.9 1.9 5.1 0 7.2-1.9 1.9-5.1 1.9-7.2 0l-6.5-6.5-10.7 10.8 6.5 6.5c1.9 1.9 1.9 5.1 0 7.2-1.9 1.9-5.1 1.9-7.2 0l-1.8-1.8zm-2.7 13.4 2.6-2.6-3.6-3.6c-1-1-1-2.6 0-3.6s2.6-1 3.6 0l10.7 10.6c1 1 1 2.6 0 3.6s-2.6 1-3.6 0l-3.6-3.6-2.6 2.6zm41.1-41.1 3.6 3.6-2.7 2.7 3.6 3.6c1 1 1 2.6 0 3.6s-2.6 1-3.6 0l-10.6-10.7c-1-1-1-2.6 0-3.6s2.6-1 3.6 0l3.6 3.6z"/></svg>