<svg enable-background="new 0 0 48 48" viewBox="0 0 48 48" xmlns="http://www.w3.org/2000/svg"><path d="m11.4 21.6c-.9 0-1.7.4-2.2 1-.8-.5-1.8-.7-2.7-.3s-1.5 1.1-1.8 2c-.9 0-1.8.4-2.4 1.1s-.8 1.7-.6 2.5c-.8.4-1.4 1.1-1.6 2-.2.9 0 1.8.6 2.5-.5.7-.8 1.6-.6 2.5s.8 1.6 1.6 2c-.2.8 0 1.8.6 2.5s1.5 1.1 2.4 1.1c.2.9.9 1.6 1.8 2 .4.1.7.2 1.1.2.6 0 1.2-.2 1.7-.5.5.6 1.3 1 2.2 1 1.7 0 3-1.3 3-3 0-.8-.3-1.4-.8-1.9.5-.5.8-1.2.8-1.9s-.3-1.4-.7-2c.5-.5.7-1.2.7-1.9s-.3-1.4-.7-1.9c.5-.5.7-1.2.7-1.9 0-.8-.3-1.4-.8-2 .5-.5.8-1.2.8-2-.1-1.8-1.4-3.1-3.1-3.1zm36.6 8.3c-.2-.9-.8-1.6-1.6-2 .2-.9 0-1.8-.6-2.5s-1.5-1.1-2.4-1.1c-.2-.9-.9-1.6-1.8-2-1-.4-2-.2-2.8.3-.5-.6-1.3-1.1-2.2-1.1-1.7 0-3 1.3-3 3 0 .8.3 1.4.8 2-.5.5-.8 1.2-.8 2 0 .7.3 1.4.7 1.9-.5.5-.7 1.2-.7 1.9s.3 1.4.7 1.9c-.5.5-.7 1.2-.7 1.9 0 .8.3 1.4.8 2-.5.5-.8 1.2-.8 2 0 1.7 1.3 3 3 3 .9 0 1.7-.4 2.2-1 .5.3 1.1.5 1.7.5.4 0 .7 0 1.1-.2.9-.3 1.5-1.1 1.8-1.9.9 0 1.8-.4 2.4-1.1s.8-1.7.6-2.5c.8-.4 1.4-1.1 1.6-2s0-1.8-.6-2.5c.5-.6.8-1.6.6-2.5zm-10-10.5c.4.1.8.3 1.2.5.4-.1.9-.2 1.4-.2.4 0 .8.1 1.2.2-1.4-8.6-8.9-15.1-17.8-15.1s-16.3 6.5-17.7 15.1c.4-.1.8-.2 1.2-.2.5 0 .9.1 1.4.2.4-.2.8-.4 1.2-.5 1.5-6.3 7.2-11 14-11s12.4 4.7 13.9 11z"/></svg>