<svg enable-background="new 0 0 48 48" viewBox="0 0 48 48" xmlns="http://www.w3.org/2000/svg"><path d="m46.6 27.7c-.5-3-3.3-3.7-3.3-3.8-1-1.4-2.4-1.7-2.5-1.7v-.6c0-9.3-7.5-16.8-16.8-16.8s-16.8 7.5-16.8 16.8v.6c-.1 0-1.4.3-2.5 1.7-.1 0-2.8.8-3.3 3.8-1.1 1.1-1.8 2.9-1.1 4.7-.6 1.8 0 3.6 1.2 4.7.4 2.3 2.1 3.4 3.4 3.8 0 .1 1.8 2.4 4.9 1.8.7.3 1.4.5 2.2.5 2.7 0 4.9-2.1 4.9-4.7 0-.5-.1-1-.3-1.5.5-1.3.2-2.5 0-3 .5-1.3.2-2.5 0-3 .2-.6.5-1.7 0-3 .2-.5.3-1 .3-1.5 0-2.6-2.2-4.7-4.9-4.7h-1.1c0-7.3 5.9-13.2 13.2-13.2s13.2 5.9 13.2 13.2h-1.1c-2.7 0-4.9 2.1-4.9 4.7 0 .5.1 1 .3 1.5-.5 1.3-.2 2.5 0 3-.2.6-.5 1.7 0 3-.2.6-.5 1.7 0 3-.2.5-.3 1-.3 1.5 0 2.6 2.2 4.7 4.9 4.7.8 0 1.5-.2 2.2-.5 3.2.7 4.9-1.7 4.9-1.8 1.3-.4 3-1.5 3.4-3.8 1.1-1.1 1.8-2.9 1.2-4.7.5-1.8-.1-3.6-1.3-4.7zm-34 .6c.9.8.8 2 0 2.7.9.8.8 2 0 2.7.9.8.8 2 0 2.7 1.8 1.6-.6 4.3-2.4 2.7-1.2 1.1-3.1.2-3-1.4-1.5.6-2.9-1-2.3-2.4-1.3-.3-1.8-1.9-.9-2.9-.9-1-.4-2.6.9-2.9-.6-1.4.7-2.9 2.3-2.4-.1-1.6 1.8-2.5 3-1.4 1.8-1.6 4.2 1.1 2.4 2.6zm30.5 7c.6 1.4-.7 2.9-2.3 2.4.1 1.6-1.8 2.5-3 1.4-1.8 1.6-4.2-1.1-2.4-2.7-.8-.7-.9-1.9 0-2.7-.8-.7-.9-1.9 0-2.7-.8-.7-.9-1.9 0-2.7-1.8-1.6.6-4.3 2.4-2.7 1.2-1.1 3.1-.2 3 1.4 1.6-.6 2.9 1 2.3 2.4 1.3.3 1.8 1.9.9 2.9.9 1.1.4 2.7-.9 3z"/></svg>