<svg enable-background="new 0 0 48 48" viewBox="0 0 48 48" xmlns="http://www.w3.org/2000/svg"><path d="m39.6 14.4c-.7 0-1.2.5-1.2 1.2s.5 1.2 1.2 1.2 1.2-.5 1.2-1.2-.5-1.2-1.2-1.2zm-1.2-7.2h-4.6c-.3-.3-.6-.6-.9-.8-1.9-1.5-4.5-2-6.9-1.3-1.4.4-2.5 1.1-3.5 2.1h-8.2c-7.9 0-14.3 6.4-14.3 14.4v8.4c0 .7.5 1.2 1.2 1.2h1.2v9.6c0 1.3 1.1 2.4 2.4 2.4h6c1.3 0 2.4-1.1 2.4-2.4v-5.5c1.4.4 5 1.3 9.6 0v5.5c0 1.3 1.1 2.4 2.4 2.4h6c1.3 0 2.4-1.1 2.4-2.4v-14.4h10.8v6.6c0 1-.8 1.8-1.8 1.8s-1.8-.8-1.8-1.8v-.6c0-.7-.5-1.2-1.2-1.2h-1.2c-.7 0-1.2.5-1.2 1.2v.4c0 2.8 2.1 5.3 4.9 5.6 3.2.3 5.9-2.2 5.9-5.4v-16.2c0-5.3-4.3-9.6-9.6-9.6zm-8.4 32.4h-3.6v-9c-9.1 2.5-8.3 2.3-16.8 0v9h-3.6v-12h-2.4v-6c0-6 4.8-10.8 10.8-10.8h6.2c-.5 2-.2 4.1.9 5.8.9 1.4 2.2 2.6 3.7 3.2 0 3 2 5.5 4.8 6.3zm14.4-19.2c0 1.3-1.1 2.4-2.4 2.4h-10.2c-1.7 0-3-1.3-3-3v-2.8c-1.7-.3-3.1-.5-4.2-2.3-1.2-2-.6-5.3 2.4-6.1 2.2-.6 4.2.5 5 2.2h6.4c3.3 0 6 2.7 6 6z"/></svg>