<svg enable-background="new 0 0 48 48" viewBox="0 0 48 48" xmlns="http://www.w3.org/2000/svg"><path d="m38.4 7.2c-1 0-1.9.2-2.8.5-.7-1.7-2.4-2.9-4.4-2.9-2.7 0-4.8 2.1-4.8 4.8 0 1.8 1 3.3 2.4 4.1v3.1c0 1.3 1.1 2.4 2.4 2.4h.6c.3 0 .6.3.6.6v1.2c0 .3-.3.6-.6.6h-.6c-2.6 0-4.8-2.2-4.8-4.8v-1.9c-1.5-1.4-2.4-3.3-2.4-5.3 0-.8.2-1.6.4-2.4h-10c-8 0-14.4 6.4-14.4 14.4v8.4c0 .7.5 1.2 1.2 1.2h1.2v10.8c0 .7.5 1.2 1.2 1.2h4.8c.7 0 1.2-.5 1.2-1.2v-8.1c2.4 1.3 5.3 2.1 8.4 2.1s6-.8 8.4-2.1v8.1c0 .7.5 1.2 1.2 1.2h4.8c.7 0 1.2-.5 1.2-1.2v-15.6h4.8c1.8 0 3.4-.5 4.8-1.3v7.3c0 .7-.5 1.2-1.2 1.2s-1.2-.5-1.2-1.2-.5-1.2-1.2-1.2h-2.4c-.7 0-1.2.5-1.2 1.2 0 3.5 3 6.3 6.6 6 3.1-.4 5.4-3.2 5.4-6.4v-15.2c0-5.3-4.3-9.6-9.6-9.6zm1.2 9.6c-.7 0-1.2-.5-1.2-1.2s.5-1.2 1.2-1.2 1.2.5 1.2 1.2-.5 1.2-1.2 1.2z"/></svg>