<svg enable-background="new 0 0 48 48" viewBox="0 0 48 48" xmlns="http://www.w3.org/2000/svg"><path d="m47.8 45.4-14.8-24.9v-18.7c0-1-.8-1.8-1.8-1.8s-1.8.7-1.8 1.8v19.2c0 .2.1.5.1.7-1-1.4-2.5-2.3-4.4-2.3-2.9 0-5.3 2.3-5.3 5.2 0 2 1.3 4 3.1 4.7h-9l4.3-7.3c.1-.2.2-.6.2-.8v-3.8c.5.4 1.2.6 2 .6 1.9 0 3.5-1.4 3.5-3.4 0-1.8-1.6-3.4-3.5-3.4-.7 0-1.6.2-2 .6v-10c.1-1-.7-1.8-1.7-1.8s-1.8.7-1.8 1.8v18.7l-14.6 24.9c-.4.5-.4 1.2 0 1.7.4.6 1 1 1.6 1h22.1 22.2c.6 0 1.2-.4 1.6-.8.3-.7.2-1.3 0-1.9zm-20.6-16.2c1.9-.7 3.1-2.6 3.1-4.7 0-.7-.1-1.4-.5-2l3.8 6.7z"/><path d="m24.9 10.7c1.3 0 2.3-1 2.3-2.2s-1-2.2-2.3-2.2-2.3 1-2.3 2.2c.1 1.3 1.1 2.2 2.3 2.2z"/></svg>