<svg enable-background="new 0 0 48 48" viewBox="0 0 48 48" xmlns="http://www.w3.org/2000/svg"><path d="m4.2 38.9 10.8-16c1.3-2.2 2-4.8 2-7.6 0 0 0-7.9 0-10s-1.3-3.6-1.6-4.6c-.2-.7-.1-.7 1.6-.7h13.7c1.7 0 2 0 1.8 1s-1.7 2.5-1.7 4.6 0 10 0 10c0 2.8.8 5.3 2.2 7.6l5.3 8 5.3 7.8c.6 1 1 2.2 1 3.5 0 3-1.8 5.6-6.7 5.6h-27.8c-5 0-6.7-2.6-6.7-5.6-.1-1.3.2-2.7.8-3.6zm3.2 4.9c.5.5 1.2.8 2.6.8h27.6c1.3 0 2.3-.4 2.6-.8.2-.2.6-.7.6-1.4 0-.5-.1-1.1-.4-1.6l-10.5-16.1c-1.7-2.6-2.6-5.9-2.6-9.4v-12h-6.8v11.9c0 3.4-.8 6.6-2.5 9.4l-10.9 16.1c-.2.5-.5 1-.5 1.6 0 .7.5 1.1.8 1.5z"/><path d="m9.5 40.6s0 .1 0 0l8.8-13.2h11.2l8.6 13.2c.1.2.2.6.2.8 0 .8-.7 1.4-1.4 1.4h-26.2c-.8 0-1.4-.7-1.4-1.6 0 0 .1-.4.2-.6zm9.4-7.5c.1-.1.2-.4.2-.6s-.1-.5-.2-.6-.4-.2-.6-.2-.5.1-.6.2-.2.4-.2.6.1.5.2.6.4.2.6.2c.2.1.5-.1.6-.2zm-5.1 6.4c.1.1.4.1.5.1.2 0 .6-.1.7-.4l2.5-3.8c.2-.4.1-1-.2-1.2-.1-.1-.4-.1-.5-.1-.2 0-.6.1-.7.4l-2.5 3.8c-.2.3-.1.9.2 1.2z"/></svg>