<svg enable-background="new 0 0 48 48" viewBox="0 0 48 48" xmlns="http://www.w3.org/2000/svg"><path d="m23.5 2.5c1.6 0 2.8 1.2 2.8 2.8v18.8 1.3h-.1v2.6 17.5h-21.7v-40.2c0-1.5 1.3-2.8 2.8-2.8zm0-2.5h-16.2c-2.9 0-5.3 2.4-5.3 5.3v42.7h26.6v-20h4v13.3c0 3.7 3 6.7 6.7 6.7s6.7-3 6.7-6.7v-25.3c-.1-1.8-.8-3.5-2-4.7l-9.8-10-2.9 2.9 5.6 5.6c-2.5 1-4.3 3.4-4.3 6.2 0 3.7 3 6.7 6.7 6.7 1 0 1.8-.2 2.6-.6v19.2c0 1.4-1.2 2.6-2.6 2.6s-2.6-1.2-2.6-2.6v-12c0-3-2.4-5.3-5.3-5.3h-2.6v-18.7c0-3-2.4-5.3-5.3-5.3zm15.8 18.7c-1.4 0-2.6-1.2-2.6-2.6s1.2-2.6 2.6-2.6 2.6 1.2 2.6 2.6-1.1 2.6-2.6 2.6z"/><path d="m0 0h48v48h-48z" fill="none"/><path d="m16 16.1v5.3 2h2 1.8l-5.1 9v-4.4-2h-2-2zm2-8.1-10.6 20h5.3v12l10.6-18.6h-5.3z"/></svg>