<svg enable-background="new 0 0 48 48" viewBox="0 0 48 48" xmlns="http://www.w3.org/2000/svg"><path d="m44 11.3-9.8-10-2.9 2.9 5.7 5.6c-2.5 1-4.3 3.4-4.3 6.2 0 3.7 3 6.7 6.7 6.7 1 0 1.8-.2 2.6-.6v19.2c0 1.4-1.2 2.6-2.6 2.6s-2.6-1.2-2.6-2.6v-12c0-3-2.4-5.3-5.3-5.3h-2.6v-18.7c0-3-2.4-5.3-5.3-5.3h-16.3c-2.9 0-5.3 2.4-5.3 5.3v42.7h26.6v-20h4v13.3c0 3.7 3 6.7 6.7 6.7s6.7-3 6.7-6.7v-25.3c0-1.8-.8-3.5-2-4.7zm-31.3 28.7v-12h-5.3l10.6-20v13.3h5.3zm26.6-21.3c-1.4 0-2.6-1.2-2.6-2.6s1.2-2.6 2.6-2.6 2.6 1.2 2.6 2.6c.1 1.4-1.1 2.6-2.6 2.6z"/><path d="m0 0h48v48h-48z" fill="none"/></svg>