<svg enable-background="new 0 0 48 48" viewBox="0 0 48 48" xmlns="http://www.w3.org/2000/svg"><path d="m0 0h48v48h-48z" fill="none"/><path d="m19.5 2.5c1.8 0 3.3 1.5 3.3 3.3v3.4 2.5h2.5 9c1.1 0 2.1.9 2.1 2.1v9.1 2.5h2.5 3.5c1.8 0 3.1 1.4 3.1 3.3 0 1.8-1.5 3.3-3.3 3.3h-3.5-2.5v2.5 9.1c0 1.1-.9 2.1-2.1 2.1h-6.1v-1c0-4.8-3.9-8.6-8.6-8.6s-8.6 3.9-8.6 8.6v1h-6.2c-1.1 0-2.1-.9-2.1-2.1v-6.1h1c4.7 0 8.5-3.9 8.5-8.7s-3.9-8.6-8.6-8.6h-.9v-6.1c0-1.1.9-2.1 2.1-2.1h9.1 2.5v-2.8-3.4c0-1.8 1.5-3.3 3.3-3.3m0-2.5c-3.1 0-5.8 2.5-5.8 5.8v3.5h-9.1c-2.5 0-4.6 2-4.6 4.6v8.6h3.4c3.4 0 6.1 2.8 6.1 6.1s-2.6 6.2-6 6.2h-3.5v8.6c0 2.6 2.1 4.6 4.6 4.6h8.6v-3.5c0-3.4 2.8-6.1 6.1-6.1s6.1 2.8 6.1 6.1v3.5h8.6c2.5 0 4.6-2 4.6-4.6v-9.1h3.5c3.1 0 5.8-2.5 5.8-5.8s-2.4-5.8-5.6-5.8h-3.5v-9.1c0-2.5-2-4.6-4.6-4.6h-9v-3.2c0-3.3-2.6-5.8-5.7-5.8z"/></svg>