<svg enable-background="new 0 0 48 48" viewBox="0 0 48 48" xmlns="http://www.w3.org/2000/svg"><path d="m47 22.7-8.4-2.3c-.4-.5-.8-1-1.2-1.5.1-.2 4.1-6.6 4.1-6.6.7-1.1-.5-2.4-1.7-1.9l-9 3.3c-.7-.4-1.5-.7-2.3-.9l-3.3-7.1c-.5-1.1-2-1.1-2.5 0l-3.3 7.1c-.8.3-1.6.6-2.3.9l-9-3.3c-1.2-.4-2.4.8-1.7 1.9 0 0 4 6.4 4.1 6.6-.4.5-.8 1-1.2 1.5l-8.3 2.3c-1.3.4-1.3 2.2 0 2.5l8.4 2.3 1.2 1.5c-.1.2-4.1 6.6-4.1 6.6-.7 1.1.5 2.4 1.7 1.9l9-3.3c.7.4 1.5.7 2.3.9l3.3 7.1c.5 1.1 2 1.1 2.5 0l3.3-7.1c.8-.3 1.6-.6 2.3-.9l9 3.3c1.2.4 2.4-.8 1.7-1.9 0 0-4-6.4-4.1-6.6.4-.5.8-1 1.2-1.5l8.4-2.3c1.2-.3 1.2-2.1-.1-2.5zm-23 8.5c-4 0-7.2-3.2-7.2-7.2 0-1.5.4-2.9 1.2-4 1.2.7 2.6 1.2 4.2 1.4-.3.7-.6 1.5-.6 2.5 0 3.2 2.4 4.8 2.4 4.8s2.4-1.6 2.4-4.8c0-1-.3-1.9-.6-2.5 1.6-.2 3-.7 4.2-1.4.8 1.1 1.2 2.5 1.2 4 0 4-3.2 7.2-7.2 7.2z"/></svg>