<svg enable-background="new 0 0 48 48" viewBox="0 0 48 48" xmlns="http://www.w3.org/2000/svg"><path d="m43.8 4.2c-2.7-2.7-6.2-4.2-9.9-4.2-4.4 0-9.2 2-13.8 6.6l-8 8c-7 7-6.8 18.4-5.3 23.3l-6.2 6.2c-.9.9-.9 2.3 0 3.2s2.3.9 3.2 0l6.2-6.2c1.6.5 4 .9 6.6.9 5.4 0 12-1.5 16.7-6.1l8-8c8.6-8.5 8.4-17.8 2.5-23.7zm-30 33.2 4.4-4.4h11.6c-4.2 3.9-10 4.5-13.2 4.5-1 0-2 0-2.8-.1zm19.1-7.4h-11.7l6-6h11.6c-.2.2-.4.5-.6.7zm8.2-9h-11l2.1-2.1c.9-.9.9-2.3 0-3.2s-2.3-.9-3.2 0l-18.4 18.5c-.5-4.3 0-11.7 4.6-16.3 0 0 1.8-1.8 8-8 3.5-3.5 7.1-5.3 10.6-5.3 2.5 0 4.8 1 6.7 2.9 3.8 3.6 3.9 8.5.6 13.5z"/></svg>