<svg enable-background="new 0 0 48 48" viewBox="0 0 48 48" xmlns="http://www.w3.org/2000/svg"><path d="m6.7 27c-.5 3.9-.7 7.9-.7 11.8l-5.3 5.3c-.9.9-.9 2.3 0 3.2s2.3.9 3.2 0l5.3-5.3c4 0 7.9-.2 11.8-.7 23.4-2.4 26.7-36.5 27-41.3-4.8.3-38.9 3.6-41.3 27zm13.8 9.8c-2.2.3-4.4.4-6.7.5l4.3-4.3h11.8c-2.6 2-5.7 3.5-9.4 3.8zm12.6-6.8h-11.9l6-6h9.9c-1.1 2.2-2.5 4.2-4 6zm-2.9-9 1.3-1.3c.9-.9.9-2.3 0-3.2s-2.3-.9-3.2 0l-17.6 17.7c.1-2.3.3-4.5.5-6.7 1.6-15.8 21.6-20.9 31.7-22.4-.7 4.3-1.9 10.3-4.4 15.9z"/></svg>