<svg enable-background="new 0 0 48 48" viewBox="0 0 48 48" xmlns="http://www.w3.org/2000/svg"><path d="m38 25.3c-2.3 0-4.4.8-6.2 2.1-2-2.1-4.8-3.4-7.8-3.4s-5.8 1.3-7.8 3.5c-1.7-1.4-3.9-2.1-6.2-2.1-5.5 0-10 4.5-10 10s4.5 10 10 10h28c5.5 0 10-4.5 10-10s-4.5-10.1-10-10.1zm0 16h-28c-3.3 0-6-2.7-6-6s2.7-6 6-6c1.9 0 3.6.9 4.8 2.4l1.9 2.5 1.5-2.8c1.2-2.2 3.4-3.5 5.8-3.5s4.7 1.4 5.8 3.5l1.5 2.8 1.9-2.5c1.2-1.6 2.9-2.4 4.8-2.4 3.3 0 6 2.7 6 6s-2.7 6-6 6zm-11.3-22s-5.8-6-6.3-6.5c-3 3.7-4.5 5.9-4.5 8.4 0 1 .2 1.8.4 2.6 2.2-1.6 4.9-2.5 7.7-2.5 2.7 0 5.3.9 7.5 2.4.5-1.9.3-4-.6-5.8-.2-.4-.4-.8-.7-1.3zm-16.7 3.4c1.3 0 2.6.2 3.8.6-.3-.9-.4-1.9-.4-2.8 0-2.5 2.6-7.5 7-12.2 1.2 1.3 2.3 2.6 3.3 3.8l3 4 3.2-3.8c.2-.2.4-.4.5-.6 2.7 3.4 4.3 7.3 4.3 8.8 0 1-.2 1.9-.5 2.9 1.2-.4 2.5-.6 3.8-.6.2 0 .3 0 .5.1.1-.8.2-1.5.2-2.3 0-3.4-3.4-10.3-8.1-14.5-1.4 1.2-2.6 2.5-3.7 3.8-1.8-2.4-4-4.8-6.5-7-6.4 5.7-11 13.2-11 17.8 0 .8.1 1.5.2 2.3.1-.3.2-.3.4-.3z"/></svg>