<svg enable-background="new 0 0 48 48" viewBox="0 0 48 48" xmlns="http://www.w3.org/2000/svg"><path d="m25.7 28.2c-1-1.4-2.4-2.8-3.8-4.2-3.8 3.4-6.5 7.9-6.5 10.6 0 4.8 3.9 8.6 8.6 8.6s8.6-3.9 8.6-8.6c0-2-2-6.1-4.8-8.6-.8.6-1.5 1.4-2.1 2.2zm1.1 10.2c-.8.6-1.7 1-2.8 1-2.6 0-4.8-1.8-4.8-4.8 0-1.5.9-2.8 2.7-5 .3.3 3.6 4.8 3.6 4.8l2.2-2.6c.1.3.3.5.4.8 1 2 .5 4.5-1.3 5.8zm20-33.6h-45.6c-.7 0-1.2.5-1.2 1.2v8.4c0 .7.5 1.2 1.2 1.2h1.2v25.8c0 1 .8 1.8 1.8 1.8h6c1 0 1.8-.8 1.8-1.8v-7.2c0-6.3 4.6-11.9 10.8-12.5.4 0 .8-.1 1.2-.1 6.6 0 12 5.4 12 12v7.8c0 1 .8 1.8 1.8 1.8h6c1 0 1.8-.8 1.8-1.8v-25.8h1.2c.7 0 1.2-.5 1.2-1.2v-8.4c0-.7-.5-1.2-1.2-1.2zm-4.8 34.8h-2.4v-6c0-8.6-7-15.6-15.6-15.6-.5 0-1 0-1.5.1-7.9.8-14.1 7.8-14.1 16v5.5h-2.4v-24h36zm2.4-27.6h-40.8v-3.6h40.8z"/></svg>