<svg enable-background="new 0 0 48 48" viewBox="0 0 48 48" xmlns="http://www.w3.org/2000/svg"><path d="m23.8 3.1c.4 4.8 3.8 8 7.1 11.1 4.2 3.9 8.5 7.9 8.5 15.8 0 8.5-7 15.5-15.5 15.5s-15.5-7-15.5-15.5c0-5.1 2.6-8.7 4.1-10.4v7.4c0 4.8 3.8 8.6 8.4 8.6 4.8 0 8.6-3.8 8.6-8.5 0-4-2.6-6.5-4.9-8.8-3.6-3.6-6.6-6.4-.8-15.2m.3-3.1c-.7 0-1.4.3-1.9 1.1-11.6 16.9 4.9 17.8 4.9 26 0 3.4-2.8 6-6.1 6-3.2 0-5.9-2.8-5.9-6.1v-8c0-1.4-1.1-2.2-2.3-2.2-.6 0-1.1.2-1.6.7-2.6 2.5-5.2 7-5.2 12.5 0 10 8 18 18 18s18-8 18-18c0-16-15.7-18.1-15.7-27.7 0-1.4-1.1-2.3-2.2-2.3z"/></svg>