<svg enable-background="new 0 0 48 48" viewBox="0 0 48 48" xmlns="http://www.w3.org/2000/svg"><path d="m38.8 22.1v1.1c-.1 1.2-.4 3.4-1.6 5.9.4-1.7.5-3.4.5-5.1 0-1.3-.1-2.5-.2-3.8-1.6-10.2-9.6-18.3-19.7-20-1.3-.2-2-.2-2-.2s0 .1.1.1c4.2 5.1 4.7 10.3 4.1 14.2-.2 1.3-.6 2.5-1.1 3.4 0 0 .4-1.4.4-3.2 0-1.6-.4-3.2-1.6-4.1.4 1.9-.1 3.6-1 5.2-2.7 4.4-9.2 7.8-9.8 16.1v.4c0 5.8 2.8 10.6 7.3 13.5-.7-1.3-1.6-3.7-1-6.5.5 2.5 1.1 3.8 2.3 5.5.8 1.2 2 2 3.6 2.6 1.4.6 3.1.7 4.9.7 6 0 11.3-3.1 14.4-7.7 1.7-2.8 2.8-6 2.8-9.5 0-3.1-1-6.1-2.4-8.6z"/></svg>