<svg enable-background="new 0 0 48 48" viewBox="0 0 48 48" xmlns="http://www.w3.org/2000/svg"><path d="m20.9 3.6c7.4 2.6 12.8 9 14.1 16.9v.2c.1 1.2.2 2.2.2 3.3 0 1.7-.1 3.2-.4 4.5-.3 1.2.4 2.5 1.6 2.9.3.1.5.1.8.1.6 0 1.1-.2 1.6-.6 0 2.7-.9 5.4-2.4 7.9-2.8 4.1-7.4 6.6-12.3 6.6-1.3 0-2.9-.1-4-.5 0 0 0 0-.1 0-1.2-.4-1.9-1-2.5-1.8-.9-1.3-1.4-2.3-1.9-4.5-.2-1.2-1.2-2-2.4-2-1.1 0-2.1.8-2.4 1.8-1-1.9-1.5-4-1.5-6.3v-.3c.4-4.7 2.9-7.5 5.7-10.4.7-.7 1.3-1.4 1.9-2.1.2.3.6.5.9.6s.6.2.9.2c.9 0 1.7-.5 2.2-1.3.6-1 1.1-2.4 1.4-4.2 0 0 0 0 0-.1.7-3.6.1-7.4-1.4-10.9m-5.2-3.7s0 .1.1.1c4.2 5.1 4.7 10.3 4.1 14.2-.2 1.3-.6 2.5-1.1 3.4 0 0 .4-1.4.4-3.2 0-1.6-.4-3.2-1.6-4.1.4 1.9-.1 3.6-1 5.2-2.6 4.5-9.1 7.9-9.7 16.2v.4c0 5.8 2.8 10.6 7.3 13.5-.7-1.3-1.6-3.7-1-6.5.5 2.5 1.1 3.8 2.3 5.5.8 1.2 2 2 3.6 2.6 1.4.6 3.1.7 4.9.7 6 0 11.3-3.1 14.4-7.7 1.7-2.8 2.8-6 2.8-9.5-.1-3.1-1.1-6.1-2.5-8.7v1.1c-.1 1.2-.4 3.4-1.6 5.9.4-1.7.5-3.4.5-5.1 0-1.3-.1-2.5-.2-3.8-1.6-10.2-9.6-18.3-19.7-20-1.3-.2-2-.2-2-.2z"/></svg>