<svg enable-background="new 0 0 48 48" viewBox="0 0 48 48" xmlns="http://www.w3.org/2000/svg"><path d="m2.4 43.2h7.2v-9.6c0-7.9 6.4-14.4 14.4-14.4s14.4 6.4 14.4 14.4v9.6h7.2v-28.8h-43.2zm23.3-15c-1-1.4-2.4-2.8-3.8-4.2-3.8 3.4-6.5 7.9-6.5 10.6 0 4.8 3.9 8.6 8.6 8.6s8.6-3.9 8.6-8.6c0-2-2-6.1-4.8-8.6-.8.6-1.5 1.4-2.1 2.2zm1.1 10.2c-.8.6-1.7 1-2.8 1-2.6 0-4.8-1.8-4.8-4.8 0-1.5.9-2.8 2.7-5 .3.3 3.6 4.8 3.6 4.8l2.2-2.6c.1.3.3.5.4.8 1 2 .5 4.5-1.3 5.8zm20-33.6h-45.6c-.7 0-1.2.5-1.2 1.2v4.8c0 .7.5 1.2 1.2 1.2h45.6c.7 0 1.2-.5 1.2-1.2v-4.8c0-.7-.5-1.2-1.2-1.2z"/></svg>