<svg enable-background="new 0 0 48 48" viewBox="0 0 48 48" xmlns="http://www.w3.org/2000/svg"><path d="m43.7 2.5-15.8 2.6c-1 .2-.9 1.3-.9 1.7h-5.5c1-3.4-1.5-6.8-5-6.8-3.7 0-6.2 3.7-4.9 7.1-4.9 1.2-7.1 5.1-8.4 8.5-.5 1.2.1 2.5 1.3 2.9 1.2.5 2.5-.1 2.9-1.3 2.7-6.7 5.7-6.1 11.4-6.1v2.5c-3.9 1-6.8 4.6-6.8 8.8v23.1c0 1.2 1 2.3 2.3 2.3h13.5c1.2 0 2.3-1 2.3-2.3v-23c0-4.2-2.9-7.7-6.8-8.7v-2.5h3.7c0 .3-.2 1.5.9 1.7l15.8 2.6c.7.1 1.3-.4 1.3-1.1v-10.9c0-.7-.6-1.2-1.3-1.1zm-27.2 4.3c-.8 0-1.5-.7-1.5-1.5s.7-1.5 1.5-1.5 1.5.7 1.5 1.5-.7 1.5-1.5 1.5z"/></svg>