<svg enable-background="new 0 0 48 48" viewBox="0 0 48 48" xmlns="http://www.w3.org/2000/svg"><path d="m39.6 26.4c-2.8 0-5.2 1.4-6.8 3.5-1.4-3.5-4.8-5.9-8.8-5.9s-7.4 2.4-8.8 5.9c-1.5-2.1-4-3.5-6.8-3.5-4.6 0-8.4 3.8-8.4 8.4s3.8 8.4 8.4 8.4h31.2c4.6 0 8.4-3.8 8.4-8.4s-3.8-8.4-8.4-8.4zm-24.9-.4c.7-.9 1.6-1.7 2.5-2.3-.4-.9-.6-1.9-.6-2.9 0-2.2 1.4-4.2 4.1-7.6.4.5 5.5 7.3 5.5 7.3l3.3-3.9c.2.4.4.8.6 1.2.9 1.8 1 4 .4 5.8 1 .7 2 1.5 2.7 2.5 1-.7 2.1-1.3 3.3-1.6.3-1.2.5-2.4.5-3.7 0-3-3.1-9.3-7.3-13.1-1.2 1.1-2.3 2.2-3.3 3.4-1.5-2.1-3.4-4.3-5.7-6.3-5.8 5.2-9.9 11.9-9.9 16 0 1.3.2 2.5.5 3.7 1.2.3 2.4.8 3.4 1.5z"/></svg>