<svg enable-background="new 0 0 48 48" viewBox="0 0 48 48" xmlns="http://www.w3.org/2000/svg"><path d="m42 30.7v-6.5c-1.5.9-4.1 1.8-6.7 2.1v6.6c2.6-.2 5-1.2 6.7-2.2zm0-19.4c-2 .8-4.4 1.5-6.7 1.9v6.6c2.3-.4 4.6-1.2 6.7-2zm-33.8 20.3c2-.7 4.4-1.1 6.7-1.4v-6.6c-2.3.2-4.5.7-6.7 1.4zm33.5-26.7c-3.4 1.5-6.9 2.6-10.2 2.6-4.6 0-8.7-3-15.2-3-2.9 0-5.5.6-7.6 1.4.2-.6.3-1.3.2-1.9-.2-2.1-2-3.8-4.2-4-2.6-.2-4.7 1.9-4.7 4.5 0 1.7.9 3.1 2.2 3.9v38.1c0 .8.7 1.5 1.5 1.5h1.5c.8 0 1.5-.7 1.5-1.5v-7.8c3.6-1.6 6.7-2.7 12-2.7 4.6 0 8.7 3 15.2 3 5.5 0 9.6-2.1 12-3.7 1.3-.8 2-2.2 2-3.8v-22.5c.1-3.2-3.3-5.4-6.2-4.1zm1.8 26.6c-2 1.4-5.7 3-9.6 3-5.6 0-9.6-3-15.2-3-4.1 0-9 .9-12 2.2v-21.7c2-1.4 5.7-3 9.6-3 5.6 0 9.6 3 15.2 3 4.1 0 9-1.6 12-3zm-35.3-18.7v6.5c1.5-.9 4.1-1.8 6.7-2.1v-6.6c-2.6.2-5.1 1.2-6.7 2.2zm6.8 4.4v6.5c2.9-.3 4.8-.1 6.7.3v-6.3c-2.7-.8-4.6-.8-6.7-.5zm13.5 8.7c-2.2-.6-4.4-1.4-6.7-1.9v6.3c2.4.4 4.6 1.2 6.7 1.8v-6.2c2.7.7 4.6.8 6.7.5v-6.6c-2.2.4-4.4.3-6.7-.2zm0-12.7c-2.4-.4-4.6-1.2-6.7-1.8v6.2c2.2.6 4.4 1.4 6.7 1.9z"/></svg>