<svg enable-background="new 0 0 48 48" viewBox="0 0 48 48" xmlns="http://www.w3.org/2000/svg"><path d="m24 0c-10.5 9.5-18 20.7-18 28.2 0 11.6 7.4 19.8 18 19.8s18-8.2 18-19.8c0-7.5-7.5-18.7-18-28.2zm0 43.5c-8.1 0-13.5-6.2-13.5-15.3 0-4.3 4.2-12.8 13.5-22 8.1 8.1 13.5 16.8 13.5 22 0 9.1-5.4 15.3-13.5 15.3zm4.2-21c-1.9-1.6-3.6-3.1-3.6-5.5 0-.3-.3-.4-.4-.5-.2-.1-.5-.1-.7.2-5.1 7 2.8 6.5 2.8 11.6 0 2.2-1.8 3.9-3.9 3.9-2.2 0-3.9-1.8-3.9-3.9v-2.8c0-.3-.3-.6-.6-.6-.1 0-.3.1-.4.2-.6.6-2.4 2.5-2.4 5.6 0 4.6 4 8.3 9 8.3s9-3.7 9-8.3c-.1-4.1-2.5-6.2-4.9-8.2z"/></svg>