<svg enable-background="new 0 0 48 48" viewBox="0 0 48 48" xmlns="http://www.w3.org/2000/svg"><path d="m12 4.5v-3c0-.8.7-1.5 1.5-1.5h21c.8 0 1.5.7 1.5 1.5v3c0 .8-.7 1.5-1.5 1.5h-21c-.8 0-1.5-.7-1.5-1.5zm8.2 22.5c-1.2 0-2.2 1-2.2 2.2s1 2.3 2.3 2.3 2.3-1 2.3-2.3c-.1-1.2-1.1-2.2-2.4-2.2zm23.3 6.4c-.1 4.8-2 9.3-5 12.6-1.1 1.3-2.8 2-4.5 2h-20c-1.7 0-3.3-.7-4.4-1.9-3.2-3.5-5.1-8.1-5.1-13.1 0-7.5 4.3-14 10.5-17.2v-6.8h18v6.8c6.3 3.4 10.7 10.1 10.5 17.6zm-9-4.2c0-4.6-4.7-8.3-10.5-8.3s-10.5 3.7-10.5 8.3c0 2.8 1.8 5.3 4.5 6.8v3c0 .8.7 1.5 1.5 1.5h9c.8 0 1.5-.7 1.5-1.5v-3c2.7-1.5 4.5-3.9 4.5-6.8zm-6.8-2.2c-1.2 0-2.3 1-2.3 2.3 0 1.2 1 2.3 2.3 2.3s2.3-1 2.3-2.3-1-2.3-2.3-2.3z"/></svg>