<svg enable-background="new 0 0 48 48" viewBox="0 0 48 48" xmlns="http://www.w3.org/2000/svg"><path d="m33 15.8v-11.3h1.5c.8 0 1.5-.7 1.5-1.5v-1.5c0-.8-.7-1.5-1.5-1.5h-21c-.8 0-1.5.7-1.5 1.5v1.5c0 .8.7 1.5 1.5 1.5h1.5v11.3c-6.2 3.2-10.5 9.7-10.5 17.2 0 5 1.9 9.6 5.1 13.1 1.1 1.2 2.7 1.9 4.4 1.9h20c1.7 0 3.3-.7 4.5-2 3-3.4 4.9-7.8 5-12.6.2-7.5-4.2-14.2-10.5-17.6zm2.2 27.2c-.3.3-.7.5-1.1.5h-20.1c-.4 0-.8-.2-1.1-.4-2.5-2.8-3.9-6.4-3.9-10.1 0-5.6 3.1-10.6 8.1-13.3l2.4-1.3v-14h9v14l2.4 1.3c5.1 2.7 8.2 8 8.1 13.5-.1 3.7-1.4 7.2-3.8 9.8zm-11.2-19c-4.6 0-8.3 3-8.3 6.7 0 2.2 1.3 4.1 3.3 5.3v1.4c0 .9.7 1.7 1.7 1.7h6.7c.9 0 1.7-.7 1.7-1.7v-1.4c2-1.2 3.3-3.1 3.3-5.3-.1-3.7-3.8-6.7-8.4-6.7zm-3.3 8.3c-.9 0-1.7-.7-1.7-1.7 0-.9.7-1.7 1.7-1.7.9 0 1.7.7 1.7 1.7-.1 1-.8 1.7-1.7 1.7zm6.6 0c-.9 0-1.7-.7-1.7-1.7 0-.9.7-1.7 1.7-1.7.9 0 1.7.7 1.7 1.7s-.7 1.7-1.7 1.7z"/></svg>