<svg enable-background="new 0 0 48 48" viewBox="0 0 48 48" xmlns="http://www.w3.org/2000/svg"><path d="m46.5 27h-4.4c-6.3 0-12 2.8-15.8 7.2v-7.7c4.4 1.5 9.3-.8 10.8-5.3.9-2.6.5-5.5-1.2-7.8 1.1-1.4 1.6-3.2 1.6-5 0-4.6-3.8-8.4-8.5-8.4-1.8 0-3.6.6-5 1.6-1.4-1-3.2-1.6-5-1.6-4.7 0-8.5 3.8-8.5 8.5 0 1.8.6 3.6 1.6 5-1.1 1.4-1.6 3.2-1.6 5 0 4.7 3.8 8.5 8.5 8.5.9 0 1.9-.2 2.8-.5v7.7c-3.9-4.4-9.5-7.2-15.9-7.2h-4.4c-.9 0-1.6.8-1.5 1.8.9 10.8 10 19.2 21 19.2h6c11 0 20-8.4 21-19.2.1-1-.7-1.8-1.5-1.8zm-25.5 16.5c-7.5 0-13.9-5.1-15.9-12 7.1 0 12.1 3 15.1 8.1l2.4 3.9zm1.2-22.6c-1.3 1.8-3.8 2.2-5.6.9s-2.2-3.8-.9-5.6c.2-.3.5-.6.9-.9l2.4-1.8-2.4-1.8c-1-.7-1.6-1.9-1.6-3.2 0-2.2 1.8-4 4-4 1.3 0 2.5.6 3.2 1.6l1.8 2.5 1.8-2.4c.7-1 1.9-1.6 3.2-1.6 2.2 0 4 1.8 4 4 0 1.3-.6 2.5-1.6 3.2l-2.4 1.8 2.4 1.8c1 .7 1.6 1.9 1.6 3.2 0 2.2-1.8 4-4 4-1.3 0-2.5-.6-3.2-1.6l-1.8-2.6zm4.8 22.6h-1.5l2.4-3.9c3-5 8-8.1 15.1-8.1-2 6.9-8.5 12-16 12zm0-30c0-1.7-1.3-3-3-3s-3 1.3-3 3 1.3 3 3 3 3-1.3 3-3z"/></svg>