<svg enable-background="new 0 0 48 48" viewBox="0 0 48 48" xmlns="http://www.w3.org/2000/svg"><path d="m46.5 30h-4.4c-5.9 0-11.2 2.1-15.1 5.4v-9.1c3.8 1.7 8.2 0 9.9-3.8 1.4-3.2.4-7-2.4-9 3.3-2.5 4-7.1 1.6-10.5s-7.1-4-10.5-1.6c-.6.5-1.2 1-1.6 1.6-2.5-3.3-7.1-4-10.5-1.6s-4 7.1-1.6 10.5c.4.6 1 1.1 1.6 1.6-3.3 2.5-4 7.1-1.5 10.5 2.1 2.8 5.8 3.8 9 2.4v9.1c-3.8-3.4-9.2-5.5-15.1-5.5h-4.4c-.9 0-1.6.7-1.5 1.6.9 9.2 10 16.4 21 16.4h6c11 0 20-7.2 21-16.4.1-.9-.7-1.6-1.5-1.6zm-22.5-12c-2.5 0-4.5-2-4.5-4.5s2-4.5 4.5-4.5 4.5 2 4.5 4.5-2 4.5-4.5 4.5z"/></svg>