<svg enable-background="new 0 0 48 48" viewBox="0 0 48 48" xmlns="http://www.w3.org/2000/svg"><path d="m46.5 27h-4.4c-6.3 0-12 2.8-15.8 7.2v-7.2c7-.1 12.7-5.8 12.7-12.9v-12.6c0-.8-.7-1.5-1.5-1.5-.3 0-.6.1-.9.3l-6.9 5-4.5-4.8c-.5-.6-1.5-.7-2.1-.2-.1.1-.1.1-.2.2l-4.5 4.8-6.9-5c-.8-.5-1.7-.3-2.2.3-.2.3-.3.6-.3.9v12.6c0 7.1 5.7 12.8 12.7 12.9v7.2c-3.8-4.4-9.4-7.2-15.8-7.2h-4.4c-.9 0-1.6.8-1.5 1.8.9 10.8 10 19.2 21 19.2h6c11 0 20-8.4 21-19.2.1-1-.7-1.8-1.5-1.8zm-33-12.9v-6.7l5.2 3.9 5.3-5.3 5.2 5.2 5.2-3.9v6.7c0 4.6-3.8 8.4-8.4 8.4h-4.2c-4.5.1-8.3-3.7-8.3-8.3zm7.5 29.4c-7.5 0-13.9-5.1-15.9-12 7.1 0 12.1 3 15.1 8.1l2.4 3.9zm6 0h-1.5l2.4-3.9c3-5 8-8.1 15.1-8.1-2 6.9-8.5 12-16 12z"/></svg>