<svg enable-background="new 0 0 48 48" viewBox="0 0 48 48" xmlns="http://www.w3.org/2000/svg"><path d="m46.8 16.6c-3.3-10.2-12.7-16.6-22.8-16.6-2.5 0-5 .4-7.4 1.2-12.6 4.1-19.5 17.6-15.4 30.2 3.3 10.2 12.7 16.6 22.8 16.6 2.5 0 5-.4 7.4-1.2 12.6-4.1 19.5-17.6 15.4-30.2zm-7.2 18.7-5 .7-4.2-5.9 2.4-7.3 6.9-2.1 3.8 3.5c0 3-.7 5.9-2.1 8.6-.6.9-1.2 1.7-1.8 2.5zm0-22.7-1 5.1-6.8 2.1-6.2-4.5v-7.1l4.6-2.5c3.7 1.2 7 3.6 9.4 6.9zm-21.7-6.9 4.6 2.5v7.1l-6.2 4.5-6.8-2.1-1-5.1c2.3-3.2 5.5-5.7 9.4-6.9zm-4.4 30.3-5.1-.6c-1.4-1.9-3.6-5.8-3.7-11.2l3.8-3.5 6.9 2.1 2.4 7.2zm4.6 6.4-2.2-4.7 4.2-6h7.6l4.3 6-2.2 4.7c-.5.2-5.5 2-11.7 0z"/></svg>