<svg enable-background="new 0 0 48 48" viewBox="0 0 48 48" xmlns="http://www.w3.org/2000/svg"><path d="m48 24c0 13.3-10.7 24-24 24s-24-10.7-24-24 10.7-24 24-24 24 10.7 24 24zm-4.6 0-2.5 2.2-6.1-5.7 1.6-8.2 3.3.3c-2.4-3.3-5.8-5.8-9.7-7.1l1.3 3.1-7.3 4-7.3-4 1.3-3.1c-3.9 1.3-7.3 3.8-9.7 7.1l3.3-.3 1.6 8.2-6.1 5.7-2.5-2.2c0 4.2 1.3 8.1 3.7 11.4l.7-3.3 8.2 1 3.5 7.5-2.7 1.8c3.9 1.3 8.2 1.3 12.1 0l-2.9-1.7 3.5-7.5 8.2-1 .7 3.3c2.4-3.4 3.8-7.3 3.8-11.5zm-24.1 6.7-2.9-8.8 7.5-5.5 7.5 5.5-2.9 8.8z"/></svg>