<svg enable-background="new 0 0 48 48" viewBox="0 0 48 48" xmlns="http://www.w3.org/2000/svg"><path d="m33 21.4c0-.2.1-.3.2-.5l2.8-16.1c.1-.8-.4-1.6-1.2-1.7-.2 0-.5 0-.7 0l-3.2 1c-.4.1-.7.4-.9.8v19.4c1.6-.8 2.7-1.9 3-2.9zm-6 3.8v-22.2c0-.6-.3-1.1-.8-1.3l-3-1.5c-.7-.4-1.6-.1-2 .7-.1.1-.2.4-.2.6v23.7c2 .4 4 .4 6 0zm13.4-7.2 1.6-8.7c.1-.8-.4-1.6-1.2-1.7-.2 0-.5 0-.7 0l-1.7.4-1.8 10.1c.2 0 .4-.1.6-.1zm-32.9 0h3.1c.3 0 .7.1 1 .2l-1.9-10-1.8-.6c-.8-.2-1.6.2-1.9 1v.7zm8 4.3c.5.7 1.4 1.4 2.5 1.9v-21.1l-.4-1.9c-.2-.8-.9-1.4-1.8-1.2-.2 0-.4.1-.6.3l-2.7 2c-.5.3-.7.9-.6 1.5zm25-1.3h-3.2c-.6 0-1.3.4-1.4 1-.8 3.7-5.8 6.5-11.9 6.5s-11.1-2.8-11.9-6.5c-.1-.6-.8-1-1.4-1h-3.2c-.8 0-1.5.7-1.5 1.5v.3l5.1 22.8c.3 1.4 1.5 2.4 2.9 2.4h20c1.4 0 2.6-1 2.9-2.3l5.1-22.9c.2-.8-.3-1.6-1.1-1.8-.2 0-.3 0-.4 0zm-7.7 22.5h-17.6l-3.1-14c3 2.2 7.2 3.5 11.9 3.5s8.9-1.3 11.9-3.5z"/></svg>