<svg enable-background="new 0 0 48 48" viewBox="0 0 48 48" xmlns="http://www.w3.org/2000/svg"><path d="m28.7 2.6 1.5 1.5-1.6 1.6-1.8 1.8 1.8 1.8 3.4 3.4 1.6 1.6 1.8 1.8 3.4 3.4 1.8 1.8 1.8-1.8 1.6-1.6 1.5 1.5-13.3 13.2-1.5-1.5 1.6-1.6 1.8-1.8-1.8-1.7-3.4-3.4-1.8-1.8-.1.1-1.7-1.7-3.4-3.4-1.8-1.8-1.8 1.8-1.6 1.6-1.3-1.4zm14.3 40.7c1.2 0 2.2 1 2.3 2.2h-18.9c.1-1.2 1.1-2.2 2.3-2.2zm-14.3-43.3c-.6 0-1.2.2-1.7.7l-13.4 13.6c-1 1-1 2.4 0 3.4l1.7 1.7c.5.5 1.1.7 1.7.7s1.2-.2 1.7-.7l1.7-1.7 3.4 3.4-23.1 22.8c-1 1-1 2.4 0 3.4.5.5 1.1.7 1.7.7s1.2-.2 1.7-.7l23-22.9 3.4 3.4-1.7 1.7c-1 1-1 2.4 0 3.4l1.7 1.7c.5.5 1.1.7 1.7.7s1.2-.2 1.7-.7l13.3-13.6c1-1 1-2.4 0-3.4l-1.7-1.7c-.5-.5-1.1-.7-1.7-.7s-1.2.2-1.7.7l-1.7 1.7-3.4-3.4c1-1 1-2.4 0-3.4-.5-.5-1.1-.7-1.7-.7s-1.2.2-1.7.7l-3.4-3.4 1.8-1.6c1-1 1-2.4 0-3.4l-1.7-1.7c-.4-.5-1-.7-1.6-.7zm14.3 40.8h-14.3c-2.6 0-4.8 2.2-4.8 4.8v2.4h23.9v-2.4c0-2.6-2.2-4.8-4.8-4.8z"/></svg>