<svg enable-background="new 0 0 48 48" viewBox="0 0 48 48" xmlns="http://www.w3.org/2000/svg"><path d="m.7 43.9 23-22.9-3.4-3.4-1.7 1.7c-1 1-2.4 1-3.4 0l-1.7-1.7c-1-1-1-2.4 0-3.4l13.5-13.5c1-1 2.4-1 3.4 0l1.6 1.7c1 1 1 2.4 0 3.4l-1.7 1.7 3.4 3.4c1-1 2.4-1 3.4 0s1 2.4 0 3.4l3.4 3.4 1.7-1.7c1-1 2.4-1 3.4 0l1.7 1.7c1 1 1 2.4 0 3.4l-13.4 13.3c-1 1-2.4 1-3.4 0l-1.7-1.7c-1-1-1-2.4 0-3.4l1.7-1.7-3.4-3.4-23 22.9c-1 1-2.4 1-3.4 0-.9-.8-.9-2.2 0-3.2zm42.3-3.1c2.6 0 4.8 2.2 4.8 4.8v2.4h-23.9v-2.4c0-2.6 2.2-4.8 4.8-4.8z"/></svg>