<svg enable-background="new 0 0 48 48" viewBox="0 0 48 48" xmlns="http://www.w3.org/2000/svg"><path d="m24 0c-.2 0-.4 0-.6 0-9.8.3-17.4 8.9-17.4 18.8v24.7c0 .9.7 1.5 1.5 1.5.4 0 .7-.1 1-.4l2.3-1.7c.3-.2.6-.3.9-.3.4 0 .8.2 1.1.5l4 4.5c.3.3.7.4 1.1.4s.8-.1 1.1-.4l3.8-4.3c.3-.3.7-.5 1.1-.5s.8.2 1.1.5l3.8 4.3c.3.3.7.4 1.1.4s.8-.1 1.1-.4l4-4.5c.5-.6 1.4-.7 2-.2l2.3 1.7c.3.3.7.4 1 .4.8 0 1.5-.6 1.5-1.5v-25.5c.2-9.9-7.9-18-17.8-18zm13.5 38.2c-.4-.1-.9-.1-1.3-.1-1.7 0-3.3.7-4.5 2l-1.7 1.9-1.5-1.7c-1.1-1.3-2.8-2-4.5-2s-3.3.7-4.5 2l-1.5 1.7-1.7-2c-1.1-1.3-2.8-2-4.5-2-.4 0-.9 0-1.3.1v-19.3c0-7.6 5.9-14 13.1-14.2h.4c7.4 0 13.5 6.1 13.5 13.5zm-19.5-23.2c-1.7 0-3 1.3-3 3s1.3 3 3 3 3-1.3 3-3-1.3-3-3-3zm12 0c-1.7 0-3 1.3-3 3s1.3 3 3 3 3-1.3 3-3-1.3-3-3-3z"/></svg>