<svg enable-background="new 0 0 48 48" viewBox="0 0 48 48" xmlns="http://www.w3.org/2000/svg"><path d="m24 12.2c.5 0 .9.1 1.3.2l18.4 5.6-18.3 5.6c-.4.1-.9.2-1.3.2-.5 0-.9-.1-1.4-.2l-14.2-4.3-2-.6-.5-.1-.7-.2-1.1-.4 18.5-5.7c.4-.1.8-.1 1.3-.1m-12 16 8.6 2.6c1.1.3 2.2.5 3.3.5s2.3-.1 3.4-.4l8.5-2.6.4 2.8c-1 .9-5.3 2.5-12.4 2.5-7.2 0-11.4-1.6-12.4-2.5zm12-18.5c-.7 0-1.4.1-2 .3l-20.7 6.3c-1.7.5-1.7 3 0 3.5l3.2 1c-.7 1.1-.8 2.3-1 3.6-.7.4-1.2 1.1-1.2 2 0 .8.5 1.7 1.2 2l-1.2 9.2c0 .4.2.7.7.7h3.6c.4 0 .6-.4.6-.7l-1.2-9.2c.7-.4 1.2-1.2 1.2-2s-.5-1.7-1.2-2c0-1.2.2-2 .8-2.9l15.2 4.5c.7.2 1.4.3 2 .3s1.4-.1 2-.3l20.7-6.4c1.8-.5 1.8-2.9 0-3.4l-20.7-6.3c-.6-.1-1.3-.2-2-.2zm14 15.3-11.3 3.5c-.9.2-1.8.4-2.7.4s-1.8-.1-2.7-.4l-11.2-3.5-1.1 6.2c0 2.6 6.7 4.8 15 4.8s15-2.2 15-4.8z"/></svg>