<svg enable-background="new 0 0 48 48" viewBox="0 0 48 48" xmlns="http://www.w3.org/2000/svg"><path d="m37.5 36h-3c-.5 0-.9.4-.9.9v3c0 .5.4.9.9.9h3c.5 0 .9-.4.9-.9v-3c0-.5-.4-.9-.9-.9zm0-12h-3c-.5 0-.9.4-.9.9v3c0 .5.4.9.9.9h3c.5 0 .9-.4.9-.9v-3c0-.5-.4-.9-.9-.9zm-12 12h-3c-.5 0-.9.4-.9.9v3c0 .5.4.9.9.9h3c.5 0 .9-.4.9-.9v-3c0-.5-.4-.9-.9-.9zm0-12h-3c-.5 0-.9.4-.9.9v3c0 .5.4.9.9.9h3c.5 0 .9-.4.9-.9v-3c0-.5-.4-.9-.9-.9zm-12 12h-3c-.5 0-.9.4-.9.9v3c0 .5.4.9.9.9h3c.5 0 .9-.4.9-.9v-3c0-.5-.4-.9-.9-.9zm0-12h-3c-.5 0-.9.4-.9.9v3c0 .5.4.9.9.9h3c.5 0 .9-.4.9-.9v-3c0-.5-.4-.9-.9-.9zm13.6-10.8h-1.9v-1.9c0-.2-.2-.4-.5-.4h-1.5c-.2 0-.5.2-.5.4v1.9h-1.9c-.2 0-.5.2-.5.4v1.5c0 .2.2.5.5.5h1.9v1.9c0 .2.2.5.5.5h1.5c.2 0 .5-.2.5-.5v-1.9h1.9c.2 0 .5-.2.5-.5v-1.5c0-.2-.2-.4-.5-.4zm16.7-1.2h-9v-3.2c0-2.2-1.8-4-4-4h-13.6c-2.2 0-4 1.8-4 4v3.2h-9c-2.3 0-4.2 1.9-4.2 4.2v26.4c0 .3.3.6.6.6h2.4c.3 0 .6-.3.6-.6v-26.4c0-.3.3-.6.6-.6h12.6v-6.8c0-.2.2-.4.4-.4h13.5c.2 0 .4.2.4.4v6.8h12.6c.3 0 .6.3.6.6v26.4c0 .3.3.6.6.6h2.4c.3 0 .6-.3.6-.6v-26.4c.1-2.3-1.8-4.2-4.1-4.2z"/></svg>