<svg enable-background="new 0 0 48 48" viewBox="0 0 48 48" xmlns="http://www.w3.org/2000/svg"><path d="m45.3 10.7h-10.6v-5.4c0-1.5-1.2-2.7-2.7-2.7h-16c-1.5 0-2.7 1.2-2.7 2.7v5.3h-10.6c-1.5 0-2.7 1.2-2.7 2.7v30.7c0 .7.6 1.3 1.3 1.3h45.3c.7 0 1.3-.6 1.3-1.3v-30.7c.1-1.4-1.1-2.6-2.6-2.6zm-32 28.3c0 .5-.4 1-1 1h-3.3c-.6 0-1-.5-1-1v-3.3c0-.6.4-1 1-1h3.3c.6 0 1 .4 1 1zm0-10.7c0 .5-.4 1-1 1h-3.3c-.6 0-1-.5-1-1v-3.3c0-.6.4-1 1-1h3.3c.6 0 1 .4 1 1zm13.4 10.7c0 .5-.4 1-1 1h-3.3c-.6 0-1-.5-1-1v-3.3c0-.6.4-1 1-1h3.3c.6 0 1 .4 1 1zm0-10.7c0 .5-.4 1-1 1h-3.3c-.6 0-1-.5-1-1v-3.3c0-.6.4-1 1-1h3.3c.6 0 1 .4 1 1zm1.3-14.1c0 .3-.2.5-.5.5h-2.2v2.2c0 .3-.2.5-.5.5h-1.7c-.3 0-.5-.2-.5-.5v-2.2h-2.2c-.3 0-.5-.2-.5-.5v-1.7c0-.3.2-.5.5-.5h2.2v-2.2c0-.3.2-.5.5-.5h1.7c.3 0 .5.2.5.5v2.2h2.2c.3 0 .5.2.5.5zm12 24.8c0 .5-.5 1-1 1h-3.3c-.6 0-1-.5-1-1v-3.3c0-.6.4-1 1-1h3.3c.5 0 1 .4 1 1zm0-10.7c0 .5-.5 1-1 1h-3.3c-.6 0-1-.5-1-1v-3.3c0-.6.4-1 1-1h3.3c.5 0 1 .4 1 1z"/></svg>