<svg enable-background="new 0 0 48 48" viewBox="0 0 48 48" xmlns="http://www.w3.org/2000/svg"><path d="m45 46.1v1.9h-42v-1.9c0-.6.5-1.1 1.1-1.1h1.9v-33.7c0-1.3 1-2.3 2.3-2.3h8.3v-6.7c0-1.2 1-2.3 2.3-2.3h10.5c1.2 0 2.3 1 2.3 2.3v6.7h8.3c1 0 2 1 2 2.3v33.7h1.9c.6 0 1.1.5 1.1 1.1zm-13.1-28.1h-3.8c-.6 0-1.1.5-1.1 1.1v3.8c0 .6.5 1.1 1.1 1.1h3.8c.6 0 1.1-.5 1.1-1.1v-3.8c0-.6-.5-1.1-1.1-1.1zm-15.8 6h3.8c.6 0 1.1-.5 1.1-1.1v-3.8c0-.6-.5-1.1-1.1-1.1h-3.8c-.6 0-1.1.5-1.1 1.1v3.8c0 .6.5 1.1 1.1 1.1zm9.8 12h-3.8c-.6 0-1.1.5-1.1 1.1v7.9h6v-7.9c0-.6-.5-1.1-1.1-1.1zm6-9h-3.8c-.6 0-1.1.5-1.1 1.1v3.8c0 .6.5 1.1 1.1 1.1h3.8c.6 0 1.1-.5 1.1-1.1v-3.8c0-.6-.5-1.1-1.1-1.1zm-10.9 1.1c0-.6-.5-1.1-1.1-1.1h-3.8c-.6 0-1.1.5-1.1 1.1v3.8c0 .6.5 1.1 1.1 1.1h3.8c.6 0 1.1-.5 1.1-1.1zm-.9-19.1h2.4v2.4c0 .3.3.6.6.6h1.9c.3 0 .6-.3.6-.6v-2.4h2.4c.3 0 .6-.3.6-.6v-1.8c0-.3-.3-.6-.6-.6h-2.4v-2.4c0-.3-.3-.6-.6-.6h-1.9c-.3 0-.6.3-.6.6v2.4h-2.4c-.3 0-.6.3-.6.6v1.9c0 .2.3.5.6.5z"/></svg>