<svg enable-background="new 0 0 48 48" viewBox="0 0 48 48" xmlns="http://www.w3.org/2000/svg"><path d="m46.7 6.7c.7 0 1.3-.6 1.3-1.3v-1.4c0-.7-.6-1.3-1.3-1.3h-45.4c-.7 0-1.3.6-1.3 1.3v1.3c0 .7.6 1.3 1.3 1.3h1.3v34.7h-1.3c-.7 0-1.3.6-1.3 1.3v1.4c0 .7.6 1.3 1.3 1.3h45.3c.7 0 1.3-.6 1.3-1.3v-1.3c0-.7-.6-1.3-1.3-1.3h-1.3v-34.7zm-5.4 34.6h-14.6v-6.7h5.3c0-4.4-3.6-8-8-8s-8 3.6-8 8h5.3v6.7h-14.6v-34.6h34.7v34.6zm-18.9-25.3h3.2c.5 0 1.1-.5 1.1-1.1v-3.2c0-.5-.5-1.1-1.1-1.1h-3.2c-.5 0-1.1.5-1.1 1.1v3.2c0 .6.6 1.1 1.1 1.1zm0 8h3.2c.5 0 1.1-.5 1.1-1.1v-3.2c0-.5-.5-1.1-1.1-1.1h-3.2c-.5 0-1.1.5-1.1 1.1v3.2c0 .6.6 1.1 1.1 1.1zm10.7 0h3.2c.5 0 1.1-.5 1.1-1.1v-3.2c0-.5-.5-1.1-1.1-1.1h-3.2c-.5 0-1.1.5-1.1 1.1v3.2c0 .6.5 1.1 1.1 1.1zm0-8h3.2c.5 0 1.1-.5 1.1-1.1v-3.2c0-.5-.5-1.1-1.1-1.1h-3.2c-.5 0-1.1.5-1.1 1.1v3.2c0 .6.5 1.1 1.1 1.1zm-21.4 8h3.2c.5 0 1.1-.5 1.1-1.1v-3.2c0-.5-.5-1.1-1.1-1.1h-3.2c-.5 0-1.1.5-1.1 1.1v3.2c.1.6.6 1.1 1.1 1.1zm0-8h3.2c.5 0 1.1-.5 1.1-1.1v-3.2c0-.5-.5-1.1-1.1-1.1h-3.2c-.5 0-1.1.5-1.1 1.1v3.2c.1.6.6 1.1 1.1 1.1z"/></svg>