<svg enable-background="new 0 0 48 48" viewBox="0 0 48 48" xmlns="http://www.w3.org/2000/svg"><path d="m46.7 8c.7 0 1.3-.6 1.3-1.3v-2.7c0-.7-.6-1.3-1.3-1.3h-45.4c-.7 0-1.3.6-1.3 1.3v2.7c0 .7.6 1.3 1.3 1.3h1.3v32h-1.3c-.7 0-1.3.6-1.3 1.3v2.7c0 .7.6 1.3 1.3 1.3h20v-6.7c0-.7.6-1.3 1.3-1.3h2.7c.7 0 1.3.6 1.3 1.3v6.7h20c.7 0 1.3-.6 1.3-1.3v-2.7c0-.7-.6-1.3-1.3-1.3h-1.3v-32zm-25.4 3.7c0-.5.5-1.1 1.1-1.1h3.2c.5 0 1.1.5 1.1 1.1v3.2c0 .5-.5 1.1-1.1 1.1h-3.2c-.5 0-1.1-.5-1.1-1.1zm0 8c0-.5.5-1.1 1.1-1.1h3.2c.5 0 1.1.5 1.1 1.1v3.2c0 .5-.5 1.1-1.1 1.1h-3.2c-.5 0-1.1-.5-1.1-1.1zm-10.6-8c0-.5.5-1.1 1.1-1.1h3.2c.5 0 1.1.5 1.1 1.1v3.2c0 .5-.5 1.1-1.1 1.1h-3.2c-.5 0-1.1-.5-1.1-1.1zm4.2 12.3h-3.2c-.5 0-1.1-.5-1.1-1.1v-3.2c0-.5.5-1.1 1.1-1.1h3.2c.5 0 1.1.5 1.1 1.1v3.2c0 .6-.5 1.1-1.1 1.1zm1.1 10.7c0-4.4 3.6-8 8-8s8 3.6 8 8zm21.3-11.8c0 .5-.5 1.1-1.1 1.1h-3.2c-.5 0-1.1-.5-1.1-1.1v-3.2c0-.5.5-1.1 1.1-1.1h3.2c.5 0 1.1.5 1.1 1.1zm0-8c0 .5-.5 1.1-1.1 1.1h-3.2c-.5 0-1.1-.5-1.1-1.1v-3.2c0-.5.5-1.1 1.1-1.1h3.2c.5 0 1.1.5 1.1 1.1z"/></svg>