<svg enable-background="new 0 0 48 48" viewBox="0 0 48 48" xmlns="http://www.w3.org/2000/svg"><path d="m24 4.3c-5.9 0-10.1 2.7-10.1 2.7l-3.1 10.4h26.2l-3.2-10.4c.3.1-3.9-2.7-9.8-2.7zm0 17.5c-6 0-14.4 1.2-15 1.3-2.3.6-4.1 1.2-5.5 1.8-2.3.8-3.5 1.3-3.5 1.3h48s-1.2-.5-3.5-1.3c-1.4-.6-3.4-1.2-5.6-1.8 0 .1-8.8-1.3-14.9-1.3zm-9.8 6.5c-4.2 0-7.7 3.4-7.7 7.7s3.4 7.7 7.7 7.7 7.7-3.4 7.7-7.7c0-.4 0-.7-.1-1.1.7-.1 1.4-.2 2.3-.2.8 0 1.6.1 2.3.2 0 .4-.1.7-.1 1.1 0 4.2 3.4 7.7 7.7 7.7s7.7-3.4 7.7-7.7-3.4-7.7-7.7-7.7c-3.2 0-6 1.9-7.1 4.8-.7-.2-1.6-.4-2.8-.4s-2 .2-2.8.4c-1.1-2.7-3.9-4.8-7.1-4.8zm0 2.3c3 0 5.4 2.4 5.4 5.4s-2.4 5.4-5.4 5.4-5.4-2.4-5.4-5.4 2.4-5.4 5.4-5.4zm19.6 0c3 0 5.4 2.4 5.4 5.4s-2.4 5.4-5.4 5.4-5.4-2.4-5.4-5.4 2.4-5.4 5.4-5.4z"/></svg>