<svg enable-background="new 0 0 48 48" viewBox="0 0 48 48" xmlns="http://www.w3.org/2000/svg"><path d="m29.3 11.6v-5.9c0-.5-.3-1-.7-1.2l-3.3-1.6c-.7-.3-1.5 0-1.8.7l-3 7.5c1.1-.2 2.3-.4 3.5-.4 2 0 3.8.3 5.3.9zm12 3.8c-2.2-1.9-5.4-2.5-8.3-1.7.5.5 1 .9 1.4 1.5.3.4.5.8.7 1.2-2.6-2-6.3-3-11.1-3s-8.4 1-11.1 3c.2-.4.4-.8.7-1.2.4-.6.9-1 1.4-1.5-2.8-.7-6-.2-8.3 1.7-9 7.7-9 20.1 0 27.8 3.2 2.8 8.4 2.8 11.7.1 1.5 1.3 3.3 2 5.6 2s4.1-.7 5.6-2c3.3 2.7 8.5 2.6 11.7-.1 8.9-7.6 8.9-20.1 0-27.8zm-14.6 10.4 3.4-5.6c.2-.4.7-.4 1 0l3.4 5.6c.1.3.1.8-.5.8h-6.9c-.4.1-.5-.5-.4-.8zm-13.3 0 3.4-5.6c.2-.4.7-.4 1 0l3.4 5.6c.1.3.1.8-.5.8h-6.9c-.5.1-.5-.5-.4-.8zm25.8 5.7c-.5 1.4-1.1 2.4-1.6 3.1-.8 1.1-1.8 2-2.9 2.7 0-.7-.6-1.3-1.3-1.3h-1.4c-.7 0-1.3.6-1.3 1.3v1.8c-2 .6-4.2.9-6.7.9s-4.7-.3-6.7-.9v-1.8c0-.7-.6-1.3-1.3-1.3h-1.3c-.7 0-1.3.6-1.3 1.3-1.1-.8-2.1-1.6-2.9-2.7-.5-.7-1.1-1.7-1.6-3.1-.4-1.2.9-2.2 1.9-1.6 2.7 1.6 5.9 2.7 9.2 3.2v1.5c0 .7.6 1.3 1.3 1.3h1.3c.7 0 1.3-.6 1.3-1.3v-1.2c4.9 0 9.4-1.3 13.2-3.6 1.2-.5 2.5.5 2.1 1.7z"/></svg>