<svg enable-background="new 0 0 48 48" viewBox="0 0 48 48" xmlns="http://www.w3.org/2000/svg"><path d="m41.2 11.4c-3.2-3.1-8.1-3.5-11.9-1.3v-4.4c0-.5-.3-1-.7-1.2l-3.3-1.7c-.7-.3-1.5 0-1.8.7l-2.2 5.6c-.9.2-1.7.6-2.4 1.1-3.8-2.4-8.8-2-12 1.2-4.5 4.1-6.9 9.7-6.9 15.6s2.4 11.5 6.8 15.6c3.1 3 8 3.5 11.8 1.4.2-.1.4-.1.6 0 1.4.9 3.1 1.3 4.8 1.3s3.4-.4 4.8-1.3c.2-.1.4-.1.6 0 3.8 2.2 8.6 1.6 11.8-1.4 4.4-4.1 6.8-9.7 6.8-15.6s-2.4-11.5-6.8-15.6zm-2.7 28.3c-1.9 1.8-4.7 2.1-7 .8-1.4-.8-3.2-.8-4.7.1-1.6 1-3.9 1-5.6 0-1.5-.9-3.2-.9-4.7-.1-2.3 1.3-5.1 1-7-.8-3.5-3.4-5.5-7.9-5.5-12.7s2-9.3 5.5-12.7c1.1-1 2.6-1.6 4-1.6s2.9.5 4 1.5l1.4 1.3 1.3-1.3c2.1-2 5.4-2 7.5 0l1.3 1.3 1.4-1.3c2.2-2 5.8-2 8 .1 3.6 3.4 5.6 7.9 5.6 12.7s-2 9.3-5.5 12.7zm-17.7-14.4c.2 0 .4-.1.5-.3s.1-.4 0-.6l-3.4-5.6c-.1-.2-.3-.3-.5-.3s-.4.1-.5.3l-3.4 5.6c-.1.2-.1.4 0 .6s.3.3.5.3zm13.3 0c.2 0 .4-.1.5-.3s.1-.4 0-.6l-3.4-5.6c-.1-.2-.3-.3-.5-.3s-.4.1-.5.3l-3.4 5.6c-.1.2-.1.4 0 .6s.3.3.5.3zm3.1 1.6c-3.8 2.3-8.3 3.6-13.2 3.6v1.2c0 .7-.6 1.3-1.3 1.3h-1.3c-.7 0-1.3-.6-1.3-1.3v-1.5c-3.3-.5-6.5-1.6-9.2-3.2-1.1-.6-2.3.4-1.9 1.6.5 1.4 1.1 2.4 1.6 3.1.8 1.1 1.8 2 2.9 2.7 0-.7.6-1.3 1.3-1.3h1.2c.7 0 1.3.6 1.3 1.3v1.8c2 .6 4.2.9 6.7.9s4.7-.3 6.7-.9v-1.8c0-.7.6-1.3 1.3-1.3h1.3c.7 0 1.3.6 1.3 1.3 1.2-.8 2.2-1.7 2.9-2.7.5-.7 1.1-1.7 1.6-3.1.5-1.3-.8-2.4-1.9-1.7z"/></svg>