<svg enable-background="new 0 0 48 48" viewBox="0 0 48 48" xmlns="http://www.w3.org/2000/svg"><path d="m42.4 32.5 5.2-5.2c.3-1.5.5-3 .5-4.6 0-.5-.1-1-.1-1.5h-4.1l3.6-3.6c-1.3-5.7-4.6-10.9-9.5-14.3-.4-.3-.6-.3-.9-.3-.5 0-.9.2-1.2.6s-.3.9-.1 1.3c.6 1.5.9 3 .9 4.5 0 4-1.9 7.6-5.1 10-.4.3-.6.7-.6 1.1s.2.9.5 1.1c2.9 2.6 4.2 6.5 3.4 10.3-.9 4.3-4.3 7.7-8.6 8.5l-.3-5.6 2.4 1.6c.3.2.7.1.9-.1s.3-.6.1-.9l-1.8-3 3.7-.8c.3-.1.6-.4.6-.7s-.2-.6-.6-.7l-3.7-.8 1.8-3c.2-.3.1-.6-.1-.9-.2-.2-.6-.3-.9-.1l-2.7 1.8-1-25.4c0-.4-.3-.7-.7-.7s-.7.3-.7.7l-1 25.4-2.7-1.8c-.3-.2-.6-.2-.9.1-.2.2-.3.6-.1.9l1.8 3-3.7.8c-.3.1-.6.4-.6.7s.2.6.6.7l3.7.8-1.8 3c-.2.3-.1.6.1.9.2.2.6.2.9.1l2.4-1.6-.2 5.8c-5-1-8.8-5.5-8.8-10.8 0-3.1 1.3-6 3.6-8.1.3-.3.5-.7.5-1.1s-.2-.8-.6-1.1c-3.2-2.4-5.1-6.1-5.1-10 0-1.5.3-3.1.9-4.5.2-.4.1-.9-.1-1.3-.4-.5-.8-.7-1.3-.7-.3 0-.6.1-.8.3-4.9 3.5-8.3 8.6-9.5 14.3l3.7 3.7h-4.2c-.1.8-.1 1.6-.1 2.5.1 1.2.2 2.3.5 3.5l5.2 5.2h-3.6c3.6 8 11.6 13.7 20.7 14.1h1.1c9.7 0 18.1-5.8 21.9-14.1z"/></svg>