<svg enable-background="new 0 0 48 48" viewBox="0 0 48 48" xmlns="http://www.w3.org/2000/svg"><path d="m48 22.1c0-.2 0-.5 0-.7-.4-7.2-4.1-14-10-18.2-.4-.3-.8-.4-1.2-.4-.7 0-1.4.4-1.8.9-.4.6-.5 1.3-.2 2 .5 1.3.8 2.7.8 4.1 0 3.6-1.7 7-4.6 9.1-.5.4-.8 1-.9 1.6 0 .6.2 1.3.7 1.7 2.6 2.4 3.8 5.9 3.1 9.3-.7 3.7-3.6 6.6-7.2 7.5l-.2-5.1 1.8 1.2c.4.3 1 .2 1.3-.1.4-.3.4-.9.2-1.3l-1.5-2.6 3.2-.7c.5-.1.8-.5.8-1s-.4-.9-.8-1l-3.2-.7 1.5-2.6c.3-.4.2-1-.2-1.3s-.9-.4-1.3-.1l-2.3 1.7-1-23c0-.6-.5-1-1.1-1s-1 .4-1.1 1l-1 23-2-1.4c-.4-.3-1-.2-1.3.1-.4.3-.4.9-.2 1.3l1.5 2.6-3.2.7c-.5.1-.8.5-.8 1s.4.9.8 1l3.2.7-1.5 2.6c-.3.4-.2 1 .2 1.3s.9.4 1.3.1l1.8-1.2-.2 5.1c-4.2-1.1-7.4-5-7.4-9.5 0-2.8 1.2-5.4 3.3-7.3.5-.4.7-1.1.7-1.7s-.3-1.2-.9-1.6c-3-2.2-4.6-5.5-4.6-9.1 0-1.4.3-2.8.8-4.1.3-.7.2-1.4-.2-2s-1.1-.9-1.8-.9c-.4 0-.9.1-1.2.4-6.1 4-9.7 10.7-10.1 18v.7c0 .5-.1 1.1 0 1.7.6 12.1 10.6 22.1 22.9 22.7h1.1c13.2 0 24-10.7 24-23.9 0-.2 0-.4 0-.6zm-40 3.7-3.7-3.2c0-1.1.1-2.2.3-3.2l1.4 1.4c.3.3.6.4 1 .4s.7-.1 1-.4c.6-.6.6-1.4 0-2l-2.6-2.6c.7-1.9 1.6-3.7 2.9-5.4.2 3.9 1.8 7.4 4.6 10.1-2 2.5-3.1 5.6-3.1 8.7 0 3.9 1.6 7.4 4.2 10-4.7-2.8-8.2-7.5-9.3-13l1.5 1.3c.3.2.6.3.9.3.4 0 .8-.2 1.1-.5.4-.5.4-1.4-.2-1.9zm26 13.8c1.9-1.9 3.3-4.4 3.9-7.1.8-4.2-.2-8.4-2.8-11.6 2.7-2.7 4.3-6.3 4.6-10.1 1.2 1.6 2.2 3.4 2.9 5.3l-2.7 2.7c-.6.6-.6 1.4 0 2 .3.3.6.4 1 .4s.7-.1 1-.4l1.5-1.5c.2 1.1.3 2.1.3 3.2l-3.7 3.3c-.6.5-.6 1.4-.1 2 .3.3.7.5 1.1.5.3 0 .7-.1.9-.3l1.5-1.3c-1.2 5.4-4.6 10.1-9.4 12.9z"/></svg>