<svg enable-background="new 0 0 48 48" viewBox="0 0 48 48" xmlns="http://www.w3.org/2000/svg"><path d="m35.7 18.4c1.7 1.2 2.7 3.1 2.7 5.1v2.3c0 .3.3.6.6.6h2.4c.3 0 .6-.3.6-.6v-2.3c0-3.2-1.6-6.3-4.2-8.1-1.8-1.2-3-3.2-3-5.3v-4.7c0-.3-.3-.6-.6-.6h-2.4c-.3 0-.6.3-.6.6v5c0 3.3 1.8 6.1 4.5 8zm5.8-7.1c-.4-.3-.7-.7-.7-1.3v-4.6c0-.3-.3-.6-.6-.6h-2.4c-.3 0-.6.3-.6.6v4.7c0 1.7.8 3.3 2.1 4.2 3.2 2.1 5.1 5.5 5.1 9.3v2.3c0 .3.3.6.6.6h2.4c.3 0 .6-.3.6-.6v-2.3c0-5-2.4-9.5-6.5-12.3zm4.7 19.9h-25.3c-7.4 0-14.6 2.1-20.9 6 6.3 3.9 13.5 6 20.9 6h25.3c1 0 1.8-.8 1.8-1.8v-8.4c0-1-.8-1.8-1.8-1.8zm-25.3 8.4c-4.4 0-8.8-.8-12.9-2.4 3.7-1.4 7.6-2.2 11.6-2.3l4.1 4.7zm7.5 0-4.1-4.8h7.3l4.1 4.8zm16 0h-4l-4.1-4.8h8.1z"/></svg>