<svg enable-background="new 0 0 48 48" viewBox="0 0 48 48" xmlns="http://www.w3.org/2000/svg"><path d="m33.3 18.4c1.7 1.2 2.7 3.1 2.7 5.1v2.3c0 .3.3.6.6.6h3.6c.3 0 .6-.3.6-.6v-2.3c0-3.2-1.6-6.3-4.2-8.1-1.8-1.2-3-3.2-3-5.3v-4.7c0-.3-.3-.6-.6-.6h-3.6c-.3 0-.6.3-.6.6v5c0 3.3 1.8 6.1 4.5 8zm-18.7 13.3c-5.1.9-10.1 2.7-14.6 5.5 6.3 3.9 13.5 6 20.9 6h6.6l-8.5-9.9c-1-1.3-2.7-1.8-4.4-1.6zm26.9-20.4c-.4-.3-.7-.7-.7-1.3v-4.6c0-.3-.3-.6-.6-.6h-3.6c-.3 0-.6.3-.6.6v4.7c0 1.7.8 3.3 2.1 4.2 3.2 2.1 5.1 5.5 5.1 9.3v2.3c0 .3.3.6.6.6h3.6c.3 0 .6-.3.6-.6v-2.3c0-5-2.4-9.5-6.5-12.3zm-14.4 19.9c-2.6 0-6.5 0-6.6 0l8.8 10.3c.9 1.1 2.2 1.7 3.6 1.7h6.6l-8.8-10.3c-.9-1.1-2.2-1.7-3.6-1.7zm19.1 0h-13.8l8.8 10.3c.9 1.1 2.2 1.7 3.6 1.7h1.3c1 0 1.8-.8 1.8-1.8v-8.4c.1-1-.7-1.8-1.7-1.8z"/></svg>