<svg enable-background="new 0 0 48 48" viewBox="0 0 48 48" xmlns="http://www.w3.org/2000/svg"><path d="m45 33.6v-31.2c0-1.5-.9-2.4-2.4-2.4h-30.6c-5.1 0-9 3.9-9 9v30c0 5.1 3.9 9 9 9h30.6c1.2 0 2.4-.9 2.4-2.4v-1.5c0-.6-.3-1.2-.9-1.8-.3-1.5-.3-5.7 0-6.9.6-.3.9-.9.9-1.8zm-29.5-20.1 2 2c.1.1.3.2.5.2s.4-.1.5-.2c.3-.3.3-.8 0-1.1l-2.4-2.4c.9-2 2.5-3.6 4.3-4.6-.6.9-.9 2-.9 3.1 0 1.9.9 3.5 2.2 4.6-.9.9-1.5 2.2-1.5 3.6 0 2.5 1.8 4.6 4.2 5.1l.1-3.1-1 .7c-.1 0-.1.1-.2.1s-.2 0-.3-.1c0-.1-.1-.3 0-.4l.8-1.3-1.7-.3c-.2 0-.3-.2-.3-.4s.1-.3.3-.4l1.7-.3-.8-1.4c-.1-.2-.1-.3.1-.5.1-.1.3-.1.5 0l1.1.8.4-10.4c0-.2.2-.4.4-.4s.4.2.4.4l.4 10.5 1.3-.9c.1-.1.3-.1.5 0 .1.1.2.3.1.5l-.8 1.3 1.7.3c.2 0 .3.2.3.4s-.1.3-.3.4l-1.7.3.8 1.3c.1.2.1.3-.1.5-.1.1-.2.1-.3.1s-.1 0-.2-.1l-1.2-.8.1 3.2c2.4-.5 4.2-2.6 4.2-5.1 0-1.4-.6-2.7-1.5-3.6 1.3-1.1 2.2-2.8 2.2-4.6 0-1.1-.3-2.2-.9-3.1 2 1 3.5 2.6 4.4 4.6l-2.5 2.5c-.3.3-.3.8 0 1.1.1.1.3.2.5.2s.4-.1.5-.2l2-2c.3.9.5 1.9.5 3v.1l-3.5 3c-.3.3-.3.7-.1 1.1.1.2.3.3.6.3.2 0 .4-.1.5-.2l2.2-1.9c-1.1 4.6-5.2 8.1-10.2 8.1s-9.1-3.5-10.2-8.1l2.2 1.9c.1.1.3.2.5.2s.4-.1.6-.3c.3-.3.2-.8-.1-1.1l-3.5-3v-.1c.1-1.1.3-2.1.6-3.1zm23.2 28.5h-26.7c-1.8 0-3-1.2-3-3s1.5-3 3-3h26.7z"/></svg>