<svg enable-background="new 0 0 48 48" viewBox="0 0 48 48" xmlns="http://www.w3.org/2000/svg"><path d="m45 36v-34.5c0-.8-.7-1.5-1.5-1.5h-33c-4.1 0-7.5 3.4-7.5 7.5v33c0 4.1 3.4 7.5 7.5 7.5h33c.8 0 1.5-.7 1.5-1.5v-1.5c0-.7-.5-1.3-1.2-1.5-.4-1.2-.4-4.8 0-6.1.7-.1 1.2-.7 1.2-1.4zm-5.1 7.5h-29.4c-1.7 0-3-1.3-3-3s1.4-3 3-3h29.4c-.2 1.6-.2 4.4 0 6zm.6-10.5h-30c-1.1 0-2.1.2-3 .6v-26.1c0-1.7 1.3-3 3-3h30zm-23.5-11.4c.3.3.3.7.1 1.1-.3.3-.8.3-1.1 0l-1.9-1.6c1.1 5.1 5.8 8.9 11.4 8.9s10.3-3.8 11.4-8.9l-1.9 1.6c-.3.3-.8.3-1.1-.1-.3-.3-.2-.8.1-1.1l3.1-2.7v-.1c0-1-.2-2-.4-3l-1.7 1.8c-.3.3-.8.3-1.1 0s-.3-.8 0-1.1l2.1-2.1c-1-2.2-2.7-4-5-5.2 0-.1-.2-.1-.3 0s-.1.3 0 .5c.6.9.9 2 .9 3 0 1.3-.5 2.6-1.4 3.7-.1.1-.1.3 0 .5.7.9 1 2.1 1 3.2 0 2.7-1.9 4.9-4.4 5.5h-.1v-2.6l.6.6c.1.1.3.2.5.2s.4-.1.5-.2c.3-.3.3-.8 0-1.1l-1-1h1.2c.4 0 .8-.3.8-.8s-.3-.8-.8-.8h-1.2l1-1c.3-.3.3-.8 0-1.1s-.8-.3-1.1 0l-.6.6v-8.9c0-.6-.5-1.1-1.1-1.1s-1.1.5-1.1 1.1v9.1l-.6-.6c-.3-.3-.8-.3-1.1 0s-.3.8 0 1.1l1 1h-1.2c-.4 0-.8.3-.8.8s.3.8.8.8h1.2l-1 1c-.3.3-.3.8 0 1.1.1.1.3.2.5.2s.4-.1.5-.2l.6-.6v2.6h-.1c-2.5-.5-4.4-2.8-4.4-5.5 0-1.1.3-2.2 1-3.2.1-.1.1-.3 0-.5-.9-1.1-1.4-2.3-1.4-3.7 0-1 .3-2.1.9-3 .1-.1.1-.3 0-.5-.1-.3-.3-.3-.4-.3-2.2 1.2-3.9 3.1-5 5.2l2.1 2.1c.3.3.3.8 0 1.1s-.8.3-1.1 0l-1.7-1.7c-.3 1-.4 2-.4 3v.1z"/></svg>