<svg enable-background="new 0 0 48 48" viewBox="0 0 48 48" xmlns="http://www.w3.org/2000/svg"><path d="m46.2 9.6-19.7-6.5c-1.6-.5-3.4-.5-5.1 0l-19.6 6.5c-1.1.4-1.8 1.4-1.8 2.6v4.1l22.1-6.6c1.3-.4 2.6-.4 3.8 0l22.1 6.5v-4.1c0-1.1-.7-2.1-1.8-2.5zm-23.3 2.6-22.9 6.8v19c0 1.2.9 2.3 2.1 2.6l20.2 4.5c1.1.3 2.3.3 3.5 0l20.2-4.5c1.2-.3 2.1-1.4 2.1-2.6v-19l-22.8-6.9c-.9-.2-1.7-.2-2.4.1zm-12.2 9.6c0 .3-.2.6-.5.6l-6.7 1.8c-.4.1-.8-.2-.8-.6v-1.4c0-.3.2-.6.5-.6l6.7-1.8c.4-.1.8.2.8.6zm12-3.2c0 .3-.2.6-.5.6l-8 2.2c-.4.1-.8-.2-.8-.6v-1.4c0-.3.2-.6.5-.6l8-2.2c.4-.1.8.2.8.6zm14.6 1.9c0-.4.4-.8.8-.6l6.7 1.8c.3.1.5.3.5.6v1.4c0 .4-.4.8-.8.6l-6.7-1.8c-.3-.1-.5-.3-.5-.6zm-12-3.3c0-.4.4-.8.8-.6l8 2.2c.3.1.5.3.5.6v1.4c0 .4-.4.8-.8.6l-8-2.2c-.3-.1-.5-.3-.5-.6z"/></svg>