<svg enable-background="new 0 0 48 48" viewBox="0 0 48 48" xmlns="http://www.w3.org/2000/svg"><path d="m46.2 9.6-19.7-6.5c-.8-.3-1.7-.4-2.5-.4s-1.7.1-2.5.4l-19.7 6.5c-1.1.4-1.8 1.4-1.8 2.6v25.9c0 1.2.9 2.3 2.1 2.6l20.2 4.5c.6.1 1.2.2 1.7.2s1.2-.1 1.7-.2l20.2-4.5c1.2-.3 2.1-1.4 2.1-2.6v-25.9c0-1.2-.7-2.2-1.8-2.6zm-2.2 13.8-5.8-1.6c-.4-.1-.8.2-.8.6v1.4c0 .3.2.6.5.6l6.2 1.7v10.9l-19.1 4.3c-.3.1-1 .2-1.7 0l-19.3-4.3v-10.8l6.2-1.7c.3-.1.5-.3.5-.6v-1.4c0-.4-.4-.8-.8-.6l-5.9 1.5v-2.9l19-5.7c.6-.2 1.3-.2 1.9 0l19 5.7v2.9zm0-7.1-17.9-5.3c-1.4-.4-2.8-.4-4.2 0l-17.9 5.3v-3.2l18.7-6.2c.5-.2 1.4-.4 2.5 0l18.8 6.2zm-22.2 2.2-8 2.2c-.3.1-.5.3-.5.6v1.4c0 .4.4.8.8.6l8-2.2c.3-.1.5-.3.5-.6v-1.4c.1-.4-.3-.7-.8-.6zm4 2.7 8 2.2c.4.1.8-.2.8-.6v-1.4c0-.3-.2-.6-.5-.6l-8-2.2c-.4-.1-.8.2-.8.6v1.4c0 .3.2.5.5.6z"/></svg>