<svg enable-background="new 0 0 48 48" viewBox="0 0 48 48" xmlns="http://www.w3.org/2000/svg"><path d="m42 0h-12c-3.3 0-6 2.7-6 6v14.4l-23.6 23.6c-.6.6-.6 1.5 0 2.1l1.5 1.5c.6.6 1.5.6 2.1 0l3.4-3.4 3.4 3.4c.6.6 1.5.6 2.1 0l4-4c.6-.6.6-1.5 0-2.1l-3.3-3.5 2.9-2.9 3.5 3.5c.6.6 1.5.6 2.1 0l1.5-1.5c.6-.6.6-1.5 0-2.1l-3.5-3.5 7.5-7.5h14.4c3.3 0 6-2.7 6-6v-12c0-3.3-2.7-6-6-6zm-6.9 17.1c-1.2 1.2-3.1 1.2-4.2 0-1.2-1.2-1.2-3.1 0-4.2 1.2-1.2 3.1-1.2 4.2 0 1.2 1.1 1.2 3 0 4.2zm6-6c-1.2 1.2-3.1 1.2-4.2 0-1.2-1.2-1.2-3.1 0-4.2 1.2-1.2 3.1-1.2 4.2 0 1.2 1.1 1.2 3 0 4.2z"/></svg>