<svg enable-background="new 0 0 48 48" viewBox="0 0 48 48" xmlns="http://www.w3.org/2000/svg"><path d="m29.4 14.4c-1.2 1.2-1.2 3.1 0 4.2 1.2 1.2 3.1 1.2 4.2 0 1.2-1.2 1.2-3.1 0-4.2s-3-1.2-4.2 0zm6-6c-1.2 1.2-1.2 3.1 0 4.2s3.1 1.2 4.2 0 1.2-3.1 0-4.2-3.1-1.2-4.2 0zm6.6-8.4h-15c-3.3 0-6 2.7-6 6v15c0 .8.2 1.6.5 2.3l-21.1 21.1c-.6.6-.6 1.5 0 2.1l1.1 1.1c.6.6 1.5.6 2.1 0l3.6-3.6 3.6 3.6c.6.6 1.5.6 2.1 0l4-4c.6-.6.6-1.5 0-2.1l-3.6-3.6 2.9-2.9 3.7 3.7c.6.6 1.5.6 2.1 0l1.5-1.5c.6-.6.6-1.5 0-2.1l-3.7-3.7 4.8-4.8c.7.3 1.5.5 2.3.5h15c3.3 0 6-2.7 6-6v-15.1c.1-3.3-2.6-6-5.9-6zm1.5 21c0 .8-.7 1.5-1.5 1.5h-15c-.8 0-1.5-.7-1.5-1.5v-15c0-.8.7-1.5 1.5-1.5h15c.8 0 1.5.7 1.5 1.5z"/></svg>