<svg enable-background="new 0 0 48 48" viewBox="0 0 48 48" xmlns="http://www.w3.org/2000/svg"><path d="m47.2 10c1.1-1 1.1-2.7 0-3.8l-2.9-2.8c-1.1-1-2.8-1-3.9 0l-13.7 12.6-26.3 25.3c-.7.7-.4 1.8.5 2.1 3.6 1.2 7.7 1.8 11.7 1.8 6.3 0 12.5-1.7 16.8-5.8l8.7-8.3c1.1-1 1.1-2.8 0-3.8l-.7-.7v-6.6zm-5.9-2c.7 0 1.3.6 1.3 1.3s-.6 1.3-1.3 1.3-1.3-.5-1.3-1.3.6-1.3 1.3-1.3zm-14.7 28.7c-3.1 3-8.1 4.7-14 4.7-1.9 0-3.9-.2-5.8-.5l19.9-19.2 7.7 7.7zm9.4-20.7c-.7 0-1.3-.6-1.3-1.3s.6-1.3 1.3-1.3 1.3.6 1.3 1.3-.6 1.3-1.3 1.3z"/></svg>