<svg enable-background="new 0 0 48 48" viewBox="0 0 48 48" xmlns="http://www.w3.org/2000/svg"><path d="m4.5 24h39c.8 0 1.5-.7 1.5-1.5v-3c0-.8-.7-1.5-1.5-1.5h-1.8c-1.2-7.5-7.2-13.5-14.7-14.7v-1.8c0-.8-.7-1.5-1.5-1.5h-3c-.8 0-1.5.7-1.5 1.5v1.8c-7.5 1.2-13.5 7.2-14.7 14.7h-1.8c-.8 0-1.5.7-1.5 1.5v3c0 .8.7 1.5 1.5 1.5zm42 18h-1.5v-1.5c0-.8-.7-1.5-1.5-1.5h-1.5v-12h-6v12h-9v-12h-6v12h-9v-12h-6v12h-1.5c-.8 0-1.5.7-1.5 1.5v1.5h-1.5c-.8 0-1.5.7-1.5 1.5v3c0 .8.7 1.5 1.5 1.5h45c.8 0 1.5-.7 1.5-1.5v-3c0-.8-.7-1.5-1.5-1.5z"/></svg>