<svg enable-background="new 0 0 48 48" viewBox="0 0 48 48" xmlns="http://www.w3.org/2000/svg"><path d="m46.5 43.5h-1.5v-7.5c0-.8-.7-1.5-1.5-1.5h-1.5v-10.5h1.5c.8 0 1.5-.7 1.5-1.5v-1.5c0-.8-.7-1.5-1.5-1.5h-1.6c-.7-8.5-7.3-15.3-15.6-16.3v-1.7c0-.8-.7-1.5-1.5-1.5h-1.5c-.8 0-1.5.7-1.5 1.5v1.7c-8.4 1-15 7.8-15.7 16.3h-1.6c-.8 0-1.5.7-1.5 1.5v1.5c0 .8.7 1.5 1.5 1.5h1.5v10.5h-1.5c-.8 0-1.5.7-1.5 1.5v7.5h-1.5c-.8 0-1.5.7-1.5 1.5v1.5c0 .8.7 1.5 1.5 1.5h45c.8 0 1.5-.7 1.5-1.5v-1.5c0-.8-.7-1.5-1.5-1.5zm-22.5-36c6.9 0 12.6 5.3 13.3 12h-26.7c.8-6.7 6.5-12 13.4-12zm13.5 16.5v10.5h-6v-10.5zm-10.5 0v10.5h-6v-10.5zm-16.5 0h6v10.5h-6zm30 19.5h-33v-4.5h33z"/></svg>