<svg enable-background="new 0 0 48 48" viewBox="0 0 48 48" xmlns="http://www.w3.org/2000/svg"><path d="m36.1 2.5c.4 0 .8.1 1 .3l8 8c.5.6.5 1.4 0 1.9l-3.6 3.6-9.9-9.9 3.6-3.6c.4-.3.7-.3.9-.3m0-2.5c-1 0-1.9.4-2.6 1.1l-5.4 5.4 13.4 13.4 5.4-5.4c1.4-1.4 1.4-3.8 0-5.4l-8-8c-.7-.7-1.8-1.1-2.8-1.1z"/><path d="m26.4 11.8 9.8 9.8-15 15-.1-1.3-.2-2-2-.2-3.7-.3-.3-3.7-.2-2-2-.2-1.3-.1zm0-3.5-20.5 20.4 6.5.7.5 5.8 5.8.5.7 6.5 20.4-20.5z"/><path d="m6.2 33.8 1.4.2.3 3.8.2 2.1 2.1.2 3.8.3.1 1.2-10.6 2.9zm-1.9-2.7-4.3 16.9 16.9-4.6-.6-5.4-5.9-.5-.4-5.8z"/></svg>