<svg enable-background="new 0 0 48 48" viewBox="0 0 48 48" xmlns="http://www.w3.org/2000/svg"><path d="m0 0h48v48h-48z" fill="none"/><path d="m43.2 7.3c1.3 0 2.3 1 2.3 2.3v7.5c-2.8 1-4.8 3.7-4.8 6.9s2 5.8 4.8 6.9v7.5c0 1.3-1 2.3-2.3 2.3h-38.4c-1.3 0-2.3-1-2.3-2.3v-7.5c2.8-1 4.8-3.7 4.8-6.9s-2-5.8-4.8-6.9v-7.5c0-1.3 1-2.3 2.3-2.3zm0-2.5h-38.4c-2.6 0-4.8 2.2-4.8 4.8v9.6c2.6 0 4.8 2.2 4.8 4.8s-2.2 4.8-4.8 4.8v9.6c0 2.6 2.2 4.8 4.8 4.8h38.4c2.6 0 4.8-2.2 4.8-4.8v-9.6c-2.6 0-4.8-2.2-4.8-4.8s2.2-4.8 4.8-4.8v-9.6c0-2.6-2.2-4.8-4.8-4.8z"/><path d="m24 18 1.4 3.5.6 1.5 1.6.1 3.8.2-3 2.4-1.3 1 .4 1.6 1 3.6-3.2-2.1-1.3-.8-1.3.9-3.2 2.1 1-3.6.4-1.6-1.3-1-3-2.4 3.8-.2 1.6-.2.6-1.5zm0-6.9-3.7 9.5-10.2.6 7.9 6.5-2.6 9.8 8.6-5.5 8.6 5.5-2.6-9.8 7.9-6.5-10.2-.6z"/></svg>