<svg enable-background="new 0 0 48 48" viewBox="0 0 48 48" xmlns="http://www.w3.org/2000/svg"><path d="m0 0h48v48h-48z" fill="none"/><path d="m41.4 15.2h-6.6v-8.6h-30.5c-2.4 0-4.3 1.9-4.3 4.3v24h4.3c0 3.6 2.9 6.6 6.6 6.6s6.6-2.9 6.6-6.6h13.1c0 3.6 2.9 6.6 6.6 6.6s6.6-2.9 6.6-6.6h4.2v-10.9zm-30.5 22.9c-1.8 0-3.2-1.4-3.2-3.2s1.4-3.2 3.2-3.2 3.2 1.4 3.2 3.2c.1 1.8-1.4 3.2-3.2 3.2zm29.4-19.5 4.3 5.4h-9.7v-5.4zm-3.2 19.5c-1.8 0-3.2-1.4-3.2-3.2s1.4-3.2 3.2-3.2 3.2 1.4 3.2 3.2-1.4 3.2-3.2 3.2z"/></svg>