<svg enable-background="new 0 0 48 48" viewBox="0 0 48 48" xmlns="http://www.w3.org/2000/svg"><path d="m0 0h48v48h-48z" fill="none"/><path d="m24 2.5c1.8 0 3.3 1.4 3.4 3.1v.4 2.5c-1-.5-2.2-.7-3.4-.7s-2.3.2-3.3.7v-2.3-.4c0-1.8 1.5-3.3 3.3-3.3m9.1 5c1.8 0 3.3 1.5 3.3 3.3 0 1.2-.7 2.3-1.9 2.9l-2.3 1.2c-.3-2.2-1.5-4.1-3.2-5.4l2.2-1.4c.6-.4 1.3-.6 1.9-.6m-18.1.3c.7 0 1.3.2 1.9.6l2 1.2c-1.7 1.3-2.8 3.3-3.1 5.5l-2.2-1.1c-1.2-.6-1.9-1.7-1.9-2.9 0-1.9 1.5-3.3 3.3-3.3m17.2 9.2 2.3 1.2c1.2.6 1.9 1.7 1.9 2.9 0 1.8-1.5 3.3-3.3 3.3-.7 0-1.3-.2-1.9-.6l-2-1.3c1.6-1.3 2.8-3.2 3-5.5m-16.3.5c.4 2.1 1.5 3.9 3 5.1l-1.9 1.2c-.6.4-1.3.6-1.9.6-1.8 0-3.3-1.5-3.3-3.3 0-1.2.6-2.2 1.5-2.6zm11.5 6.1v2.3.5c0 1.9-1.4 3.3-3.3 3.3-1.8 0-3.3-1.5-3.3-3.3v-.5-2.2c1 .4 2 .6 3.1.6 1.3 0 2.5-.2 3.5-.7m14.4 6.6c-1.2 7.8-7.3 13.9-15.1 15.1 1.2-7.8 7.3-13.9 15.1-15.1m-35.6 0c7.8 1.2 13.9 7.3 15.1 15.1-7.8-1.2-13.9-7.3-15.1-15.1m17.8-30.2c-3.1 0-5.8 2.5-5.8 5.8v.5c-1-.6-2-1-3.2-1-3.1 0-5.8 2.5-5.8 5.8 0 2.3 1.3 4.2 3.2 5.2-1.8.7-3.1 2.6-3.1 4.9 0 3.1 2.5 5.8 5.8 5.8 1.2 0 2.3-.4 3.2-1v.5c0 3.1 2.5 5.8 5.8 5.8 3.2 0 5.8-2.5 5.8-5.8v-.5c1 .6 2 1 3.2 1 3.1 0 5.8-2.5 5.8-5.8 0-2.3-1.3-4.2-3.2-5.2 1.9-1 3.2-2.9 3.2-5.2 0-3.1-2.5-5.8-5.8-5.8-1.2 0-2.3.4-3.2 1v-.5c-.1-3-2.8-5.5-5.9-5.5zm0 21.8c-3.2 0-5.8-2.5-5.8-5.8s2.6-5.8 5.8-5.8 5.8 2.5 5.8 5.8-2.6 5.8-5.8 5.8zm20.5 5.7c-11.3 0-20.5 9.1-20.5 20.5 11.4 0 20.5-9.2 20.5-20.5zm-41 0c0 11.3 9.1 20.5 20.5 20.5 0-11.4-9.2-20.5-20.5-20.5z"/></svg>