<svg enable-background="new 0 0 48 48" viewBox="0 0 48 48" xmlns="http://www.w3.org/2000/svg"><path d="m0 0h48v48h-48z" fill="none"/><path d="m32.3 9.1v6.1 2.5h.1v.9 5.4 2.5h2.5 9.7.9v5.9h-1.7-1.6c-.9-1.9-2.9-3.2-5.2-3.2s-4.2 1.3-5.2 3.2h-1.3-13-1.4c-.9-1.9-2.9-3.2-5.2-3.2s-4.2 1.3-5.2 3.2h-1.4-1.8v-21.5c0-1 .8-1.8 1.8-1.8zm2.5-2.5h-30.5c-2.4 0-4.3 1.9-4.3 4.3v24h4.3c0 3.6 2.9 6.6 6.6 6.6s6.6-2.9 6.6-6.6h13.1c0 3.6 2.9 6.6 6.6 6.6s6.6-2.9 6.6-6.6h4.2v-10.9l-6.6-8.8h-6.6zm.1 17.4v-5.4h5.4l4.3 5.4zm2.2 14.2c-1.8 0-3.2-1.4-3.2-3.2s1.4-3.2 3.2-3.2 3.2 1.4 3.2 3.2-1.4 3.2-3.2 3.2zm-26.2 0c-1.8 0-3.2-1.4-3.2-3.2s1.4-3.2 3.2-3.2 3.2 1.4 3.2 3.2-1.4 3.2-3.2 3.2z"/></svg>