<svg enable-background="new 0 0 48 48" viewBox="0 0 48 48" xmlns="http://www.w3.org/2000/svg"><path d="m0 0h48v48h-48z" fill="none"/><path d="m24 48c11.4 0 20.5-9.2 20.5-20.5-11.3 0-20.5 9.1-20.5 20.5zm-14.6-26.9c0 3.1 2.5 5.8 5.8 5.8 1.2 0 2.3-.4 3.2-1v.5c0 3.1 2.5 5.8 5.8 5.8s5.8-2.5 5.8-5.8v-.5c1 .6 2 1 3.2 1 3.1 0 5.8-2.5 5.8-5.8 0-2.3-1.3-4.2-3.2-5.2 1.9-1 3.2-2.9 3.2-5.2 0-3.1-2.5-5.8-5.8-5.8-1.2 0-2.3.4-3.2 1v-.4c-.2-3-2.9-5.5-6-5.5s-5.8 2.5-5.8 5.8v.5c-1-.6-2-1-3.2-1-3.1 0-5.8 2.5-5.8 5.8 0 2.3 1.3 4.2 3.2 5.2-1.7.6-3 2.5-3 4.8zm14.6-10.8c3.1 0 5.8 2.5 5.8 5.8s-2.5 5.8-5.8 5.8-5.8-2.5-5.8-5.8 2.7-5.8 5.8-5.8zm-20.5 17.2c0 11.3 9.1 20.5 20.5 20.5 0-11.4-9.2-20.5-20.5-20.5z"/></svg>