<svg enable-background="new 0 0 48 48" viewBox="0 0 48 48" xmlns="http://www.w3.org/2000/svg"><path d="m42.6 15.3v11.5c0 10.3-8.4 18.6-18.6 18.6s-18.6-8.3-18.6-18.5v-11.6h4.4v11.5c0 7.9 6.4 14.3 14.3 14.3s14.3-6.4 14.3-14.3v-11.5zm2.5-2.5h-9.4v14c0 6.5-5.3 11.8-11.8 11.8s-11.8-5.3-11.8-11.8v-14h-9.2v14c0 11.7 9.5 21.2 21.1 21.2s21.1-9.5 21.1-21.1z"/><path d="m42.6 3.7v2h-4.4v-2z" stroke="#000" stroke-miterlimit="10" stroke-width=".5"/><path d="m45.1 1.2h-9.4v7h9.4z"/><path d="m9.7 3.7v2h-4.3v-2z"/><path d="m12.2 1.2h-9.3v7h9.4v-7z"/><path d="m22.9 16.3h-3.8l6.1-11.3v9.1h3.7l-6 11.3z"/><path d="m23.9 10v2.9 2.1h-2.3-.4zm2.9 5.3-2.7 5v-2.9-2.2h2.3.4m-.4-15.2-9.4 17.5h4.6v12.8l9.4-17.5h-4.6z"/></svg>