<svg enable-background="new 0 0 48 48" viewBox="0 0 48 48" xmlns="http://www.w3.org/2000/svg"><path d="m24.1 9.6c-33.2 0-26.8 28.8-11.9 28.8 3 0 5.8-1.6 7.6-4.2l1.9-2.8c.6-.9 1.5-1.3 2.3-1.3s1.8.4 2.3 1.3l1.9 2.8c1.8 2.6 4.6 4.2 7.6 4.2 14.4 0 21.9-28.8-11.7-28.8zm11.8 24.9c-1.8 0-3.6-1-4.7-2.6l-1.9-2.9c-1.2-1.8-3.2-2.9-5.2-2.9s-4 1-5.2 2.9l-1.9 2.8c-1.1 1.6-2.9 2.6-4.7 2.6-5.1 0-8.6-4.8-8.6-9.2 0-2.9 1.4-5.5 3.9-7.5 2.5-1.9 7.4-4.3 16.5-4.3 9.2 0 14 2.3 16.5 4.2s3.8 4.5 3.8 7.3c0 4.6-3.5 9.6-8.5 9.6zm-21.5-15.7c-2.9 0-4.8 1.9-5.7 3.1-.4.5-.4 1.2 0 1.7.9 1.2 2.8 3.1 5.7 3.1s4.8-1.9 5.7-3.1c.4-.5.4-1.2 0-1.7-.9-1.2-2.8-3.1-5.7-3.1zm19.2 0c-2.9 0-4.8 1.9-5.7 3.1-.4.5-.4 1.2 0 1.7.9 1.2 2.8 3.1 5.7 3.1s4.8-1.9 5.7-3.1c.4-.5.4-1.2 0-1.7-.9-1.2-2.8-3.1-5.7-3.1z"/></svg>