<svg enable-background="new 0 0 48 48" viewBox="0 0 48 48" xmlns="http://www.w3.org/2000/svg"><path d="m24.1 9.6c-33.2 0-26.8 28.8-11.9 28.8 3 0 5.8-1.6 7.6-4.2l1.9-2.8c1.2-1.7 3.5-1.7 4.7 0l1.9 2.8c1.8 2.6 4.6 4.2 7.6 4.2 14.3 0 21.8-28.8-11.8-28.8zm-10.3 18.3c-3.1 0-5.1-1.9-6-3.1-.4-.5-.4-1.2 0-1.7.9-1.2 2.9-3.1 6-3.1s5.1 1.9 6 3.1c.4.5.4 1.2 0 1.7-.9 1.2-2.9 3.1-6 3.1zm20.4 0c-3.1 0-5.1-1.9-6-3.1-.4-.5-.4-1.2 0-1.7.9-1.2 2.9-3.1 6-3.1s5.1 1.9 6 3.1c.4.5.4 1.2 0 1.7-.9 1.2-2.9 3.1-6 3.1z"/></svg>