<svg enable-background="new 0 0 48 48" viewBox="0 0 48 48" xmlns="http://www.w3.org/2000/svg"><path d="m46.1.1c-3.6 1.1-10.5 3.2-17.6 5.7-.2-.7-.4-1.3-.5-1.7-.3-.9-1.3-1.3-2.1-.9-4 2.1-14.3 7.7-20.1 13.4-.1.1-.2.2-.3.3-3.7 3.5-5.5 8.2-5.5 12.8 0 4.7 1.8 9.3 5.3 12.9 3.6 3.6 8.2 5.4 12.9 5.3 4.7 0 9.4-1.8 12.9-5.4.1-.1.2-.2.3-.3 5.6-5.8 11.3-16.1 13.4-20.1.4-.8 0-1.9-.9-2.1-.5-.1-1.1-.3-1.7-.5 2.5-7.1 4.7-14 5.7-17.6.4-1.1-.7-2.2-1.8-1.8zm-28.1 41.9c-6.6 0-12-5.4-12-12s5.4-12 12-12 12 5.4 12 12-5.3 12-12 12zm-3-18c-1.7 0-3 1.3-3 3s1.3 3 3 3 3-1.3 3-3-1.3-3-3-3zm4.5 9c-.8 0-1.5.7-1.5 1.5s.7 1.5 1.5 1.5 1.5-.7 1.5-1.5-.6-1.5-1.5-1.5z"/></svg>