<svg enable-background="new 0 0 48 48" viewBox="0 0 48 48" xmlns="http://www.w3.org/2000/svg"><path d="m47 .9c-.8-.8-2-1.1-3.1-.8-2.7.8-8.9 2.7-14.4 4.9-.4-.9-1.1-1.7-2-2-1-.4-2.1-.4-3.1.1-4 2.1-13.7 7.4-19.1 12.8-7.3 7.3-7.3 19.3 0 26.6 3.6 3.5 8.4 5.5 13.4 5.5s9.7-2 13.3-5.5c5.4-5.3 10.7-15.1 12.8-19.1.5-1 .5-2.1.1-3.1-.4-.9-1.1-1.6-2-2 2.1-5.4 4.1-11.7 4.8-14.3.4-1.1.1-2.3-.7-3.1zm-7.8 21.1c.4.1.7.2 1.1.3-2.2 4.2-6.9 12.5-11.5 17-2.7 2.7-6.3 4.2-10.1 4.2s-7.4-1.5-10.1-4.2c-5.6-5.6-5.6-14.7 0-20.2 4.6-4.6 13.3-9.5 17-11.5.1.3.2.7.3 1.1l.7 2.4 2.3-1c4.5-1.9 10.1-3.8 13.8-4.9-1.1 3.6-3 9.2-4.9 13.7l-1 2.3zm-20.6-3.3c-5.8 0-10.5 4.7-10.5 10.5s4.7 10.5 10.5 10.5 10.5-4.7 10.5-10.5-4.7-10.5-10.5-10.5zm-2.2 10.5c-1.2 0-2.2-1-2.2-2.2s1-2.2 2.2-2.2 2.2 1 2.2 2.2-1 2.2-2.2 2.2zm3.7 6c-.8 0-1.5-.7-1.5-1.5s.7-1.5 1.5-1.5 1.5.7 1.5 1.5-.6 1.5-1.5 1.5z"/></svg>