<svg enable-background="new 0 0 48 48" viewBox="0 0 48 48" xmlns="http://www.w3.org/2000/svg"><path d="m21.3 17.9c-1.8-2.2-4.5-3.6-7.5-3.6s-5.8 1.4-7.6 3.8c-3.5.7-6.2 3.9-6.2 7.6 0 4.3 3.5 7.8 7.8 7.8h13.2c4.3 0 7.8-3.5 7.8-7.8 0-4.2-3.4-7.6-7.5-7.8zm-.3 12h-13.2c-2.3 0-4.2-1.9-4.2-4.2s1.9-4.2 4.2-4.2h.5c.9-2.1 3-3.6 5.5-3.6 2.6 0 4.8 1.6 5.6 3.9.5-.2 1-.3 1.6-.3 2.3 0 4.2 1.9 4.2 4.2s-1.9 4.2-4.2 4.2zm26.8 1.1c-.3-.6-.9-1-1.6-1-.4 0-.9.2-2.1.2-5 0-9.1-4.1-9.1-9.1 0-3.3 1.8-6.3 4.6-7.9.7-.4 1-1.1.9-1.9s-.7-1.3-1.5-1.5c-.9-.2-1.7-.2-2.6-.2-5 0-9.4 2.6-12 6.6 1.2.4 2.2 1 3.1 1.8 1.5-2.2 3.7-3.9 6.4-4.5-1.6 2.2-2.6 4.9-2.6 7.7 0 6.1 4.3 11.2 10 12.4-1.5.8-3.2 1.2-4.9 1.2-2.8 0-5.4-1.1-7.3-2.9-.7 1-1.6 1.8-2.6 2.5 2.6 2.5 6 4 9.9 4 4.4 0 8.4-1.9 11.2-5.3.4-.7.5-1.4.2-2.1z"/></svg>