<svg enable-background="new 0 0 48 48" viewBox="0 0 48 48" xmlns="http://www.w3.org/2000/svg"><path d="m38 35c-.1 0-.3 0-.4.1-2.2 1-4.4 1.4-6.6 1.4-7.1 0-13.7-4.8-15.6-12.1-1.4-5.5.4-11.4 4.6-15.3.6-.6.2-1.6-.7-1.6h-.1c-1.2.1-2.5.3-3.7.5-11 2.7-17.7 13.6-15 24.5 2.4 9.3 10.7 15.5 19.9 15.5 1.6 0 3.2-.2 4.9-.6 6.1-1.5 11-5.6 13.6-11 .3-.7-.2-1.4-.9-1.4zm-13.8 8c-1.2.3-2.5.5-3.8.5-7.4 0-13.7-4.9-15.5-12-1-4.1-.4-8.3 1.8-11.8 1.2-2 2.8-3.6 4.6-4.9-1.1 3.5-1.2 7.2-.3 10.8 2.1 8.5 9.4 14.7 18 15.4-1.4.9-3 1.6-4.8 2zm18.8-26-2.5-5-2.5 5-5 2.5 5 2.5 2.5 5 2.5-5 5-2.5zm-14.5-8 1.5-3 3-1.5-3-1.5-1.5-3-1.5 3-3 1.5 3 1.5z"/></svg>