<svg enable-background="new 0 0 48 48" viewBox="0 0 48 48" xmlns="http://www.w3.org/2000/svg"><path d="m21.4 24c-1 0-1.9.3-2.7.8-.3-3.4-3.1-6.1-6.6-6.1-3.2 0-5.9 2.3-6.5 5.3h-.1c-3.1 0-5.5 2.4-5.5 5.4s2.4 5.3 5.3 5.3h16c2.9 0 5.3-2.4 5.3-5.3s-2.3-5.4-5.2-5.4zm25.7 8.9c-7.8 1.5-14.9-4.5-14.9-12.3 0-4.5 2.4-8.7 6.3-10.9.6-.3.4-1.3-.2-1.4-1-.2-1.9-.3-2.9-.3-7.6 0-13.9 5.3-15.5 12.3.2.3.4.7.6 1h.9c4.4 0 8 3.6 8 8 0 3-1.7 5.6-4.1 7 2.8 2.3 6.3 3.7 10.2 3.7 4.9 0 9.4-2.2 12.4-5.9.4-.5-.1-1.3-.8-1.2z"/></svg>