<svg enable-background="new 0 0 48 48" viewBox="0 0 48 48" xmlns="http://www.w3.org/2000/svg"><path d="m21.6 33.6c-1.3 0-2.4 1.1-2.4 2.4v6c0 .7.5 1.2 1.2 1.2h2.4c.7 0 1.2-.5 1.2-1.2v-6c0-1.3-1.1-2.4-2.4-2.4zm8.4-2.4s-3.6 1.8-3.6 5.4v5.4c0 .7.5 1.2 1.2 1.2h4.8c.7 0 1.2-.5 1.2-1.2v-5.4c0-3.6-3.6-5.4-3.6-5.4zm8.4 2.4c-1.3 0-2.4 1.1-2.4 2.4v6c0 .7.5 1.2 1.2 1.2h2.4c.7 0 1.2-.5 1.2-1.2v-6c0-1.3-1.1-2.4-2.4-2.4zm8.3-8.1c.8-1.1 1.3-2.4 1.3-3.9 0-4-3.6-6.7-7.6-8.8-6.4-3.5-9.1-6.7-10.4-8-1.3 1.3-4 4.5-10.4 8-1.4.8-2.8 1.6-4 2.6v-1.6c0-6-7.8-9-7.8-9s-7.8 3-7.8 9v28.2c0 .7.5 1.2 1.2 1.2h1.2c.7 0 1.2-.5 1.2-1.2v-22.8h8.4v22.8c0 .7.5 1.2 1.2 1.2h1.2c.7 0 1.2-.5 1.2-1.2v-13.2h28.8v13.2c0 .7.5 1.2 1.2 1.2h1.2c.7 0 1.2-.5 1.2-1.2v-14.4c0-.9-.5-1.7-1.3-2.1zm-34.7-9.9h-8.4v-1.8c0-2.2 2.4-4 4.2-5 1.7 1 4.2 2.8 4.2 5zm27.7 9.6h-19.4c-2.6 0-4.7-1.6-4.7-3.6 0-1.7 1.8-3.5 5.7-5.7 3.4-1.9 6.3-3.8 8.7-6 2.4 2.2 5.3 4.2 8.7 6 3.9 2.1 5.7 3.9 5.7 5.7 0 2-2.2 3.6-4.7 3.6z"/></svg>