<svg enable-background="new 0 0 48 48" viewBox="0 0 48 48" xmlns="http://www.w3.org/2000/svg"><path d="m0 40.8c0 1.3 1.1 2.4 2.4 2.4h4.8c1.3 0 2.4-1.1 2.4-2.4v-24h-9.6zm43.4-14.4c1.3-1.3 2.2-2.8 2.2-4.4 0-4-3.1-7-6.6-9.2-3.1-2-6-4.3-8.4-7.2l-.6-.8-.6.7c-2.3 2.9-5.3 5.2-8.4 7.2-3.5 2.2-6.6 5.3-6.6 9.2 0 1.6.8 3.1 2.2 4.4h26.8zm2.2 2.4h-31.2c-1.3 0-2.4 1.1-2.4 2.4v9.6c0 1.3 1.1 2.4 2.4 2.4h2.4v-4.8c0-1.3 1.1-2.4 2.4-2.4s2.4 1.1 2.4 2.4v4.8h4.8v-5.4c0-3.6 3.6-5.4 3.6-5.4s3.6 1.8 3.6 5.4v5.4h4.8v-4.8c0-1.3 1.1-2.4 2.4-2.4s2.4 1.1 2.4 2.4v4.8h2.4c1.3 0 2.4-1.1 2.4-2.4v-9.6c0-1.3-1.1-2.4-2.4-2.4zm-40.8-24s-4.8 2.4-4.8 7.2v2.4h9.6v-2.4c0-4.8-4.8-7.2-4.8-7.2z"/></svg>