<svg enable-background="new 0 0 48 48" viewBox="0 0 48 48" xmlns="http://www.w3.org/2000/svg"><path d="m38.5 19.2c-1.1 0-2.2.2-3.2.5l-2.5-4.1h6.2c1 0 1.8-.8 1.8-1.8v-2.4c0-1-.8-1.8-1.8-1.8h-3.4c-.5 0-1 .2-1.3.6l-2.8 3.1-1.7-2.8c-.3-.5-.9-.9-1.5-.9h-6c-.7 0-1.2.5-1.2 1.2v1.2c0 .7.5 1.2 1.2 1.2h5l1.4 2.4h-11.6c-1.3-1.7-3.4-3-7.5-3h-4.1c-1 0-1.9.8-1.8 1.8 0 1 .8 1.8 1.8 1.8h4.2c1.8 0 2.9.8 3.6 1.9l-.8 1.5c-1-.3-2-.4-3.1-.4-5 .2-9.1 4.3-9.2 9.4-.1 5.4 4.2 9.8 9.6 9.8 4.5 0 8.2-3.1 9.3-7.2h6.3c1 0 1.8-.9 1.8-1.9-.2-3.5 1.3-7 4.2-9.4l.9 1.6c-2.1 1.8-3.4 4.4-3.4 7.4 0 5.2 4.3 9.5 9.5 9.5 5.4.1 9.7-4.3 9.7-9.7-.1-5.2-4.4-9.5-9.6-9.5zm-28.9 15.6c-3.3 0-6-2.7-6-6s2.7-6 6-6c.3 0 .6 0 .9.1l-3.1 5.7c-.7 1.2.2 2.7 1.6 2.7h6.1c-.9 2-3 3.5-5.5 3.5zm34.8-5.7c-.2 3-2.6 5.5-5.7 5.7-3.5.2-6.3-2.6-6.3-6 0-1.6.6-3.1 1.7-4.1l3.7 6.2c.3.6 1.1.7 1.6.4l1-.6c.6-.3.7-1.1.4-1.6l-3.6-6.1c.4-.1.8-.1 1.2-.1 3.4-.1 6.2 2.8 6 6.2z"/></svg>