<svg enable-background="new 0 0 48 48" viewBox="0 0 48 48" xmlns="http://www.w3.org/2000/svg"><path d="m38.4 19.2c-1.2 0-2.3.2-3.3.6l-2.5-4.2h6.4c1 0 1.8-.8 1.8-1.8v-2.4c0-1-.8-1.8-1.8-1.8h-3.4c-.5 0-1 .2-1.3.6l-2.9 3.3-1.8-3.1c-.3-.5-.8-.7-1.3-.7h-5.7c-.5 0-.9.4-.9.9v1.2c0 .5.4.9.9.9h4.8l2.3 3.9h-13.2c-.3-.3-.6-.6-1-.9-1.4-1-3.3-1.5-5.8-1.5h-4.3c-.8 0-1.5.7-1.5 1.5s.7 1.5 1.5 1.5h4.2c1.7 0 2.8.6 3.6 1.5l-.6 1.1c-1-.3-2-.5-3.1-.5-5.3 0-9.6 4.3-9.6 9.6s4.3 9.6 9.6 9.6c4.4 0 8-2.9 9.2-6.9h6.1c.9 0 1.5-.7 1.5-1.6-.2-4.1 1.8-8 5.1-10.2l.9 1.6c-2.2 1.8-3.7 4.5-3.7 7.5 0 5.3 4.3 9.6 9.6 9.6s9.6-4.3 9.6-9.6-4.1-9.7-9.4-9.7zm-28.8 16.2c-3.6 0-6.6-3-6.6-6.6s3-6.6 6.6-6.6c.5 0 1.1.1 1.6.2l-3.8 6.9c-.5 1 .2 2.2 1.3 2.2h6.9c-1 2.3-3.3 3.9-6 3.9zm13.8-6.9h-12.2l4.9-9h11c-2.2 2.5-3.5 5.7-3.7 9zm15 6.9c-3.6 0-6.6-3-6.6-6.6 0-2 .9-3.7 2.2-4.9l4 6.8c.3.4.8.6 1.2.3l1-.6c.4-.3.6-.8.3-1.2l-4-6.7c.6-.2 1.2-.2 1.8-.2 3.6 0 6.6 3 6.6 6.6s-2.9 6.5-6.5 6.5z"/></svg>