<svg enable-background="new 0 0 48 48" viewBox="0 0 48 48" xmlns="http://www.w3.org/2000/svg"><path d="m46 8h-36.7c-1.7 0-3.2 1.1-3.8 2.7h-3.5c-1.1 0-2 .9-2 2v22.7c0 2.5 2.1 4.6 4.7 4.6h41.3c1.1 0 2-.9 2-2v-28c0-1.1-.9-2-2-2zm-42 27.3v-20.6h1.3v20.7c0 .3-.3.6-.6.6s-.7-.3-.7-.7zm40 .7h-34.7c0-.2 0-.4 0-.7v-23.3h34.7zm-29.7-10h11.3c.6 0 1-.4 1-1v-8c0-.6-.4-1-1-1h-11.3c-.6 0-1 .4-1 1v8c0 .6.5 1 1 1zm2.4-6.7h6.7v3.3h-6.7zm-3.4 11.7v-2c0-.6.4-1 1-1h11.3c.6 0 1 .4 1 1v2c0 .6-.4 1-1 1h-11.3c-.5 0-1-.4-1-1zm16 0v-2c0-.6.4-1 1-1h8.7c.6 0 1 .4 1 1v2c0 .6-.4 1-1 1h-8.7c-.5 0-1-.4-1-1zm0-12v-2c0-.6.4-1 1-1h8.7c.6 0 1 .4 1 1v2c0 .6-.4 1-1 1h-8.7c-.5 0-1-.4-1-1zm0 6v-2c0-.6.4-1 1-1h8.7c.6 0 1 .4 1 1v2c0 .6-.4 1-1 1h-8.7c-.5 0-1-.4-1-1z"/></svg>