<svg enable-background="new 0 0 48 48" viewBox="0 0 48 48" xmlns="http://www.w3.org/2000/svg"><path d="m46 8h-38.7c-1.1 0-2 .9-2 2v.7h-3.3c-1.1 0-2 .9-2 2v22.7c0 2.5 2.1 4.6 4.7 4.6h39.3c2.2 0 4-1.8 4-4v-26c0-1.1-.9-2-2-2zm-41.3 28c-.4 0-.7-.3-.7-.7v-20.6h1.3v20.7c0 .3-.3.6-.6.6zm19.6-1.3h-12.6c-.6 0-1-.4-1-1v-.7c0-.6.4-1 1-1h12.7c.6 0 1 .4 1 1v.7c-.1.5-.5 1-1.1 1zm17.4 0h-12.7c-.6 0-1-.4-1-1v-.7c0-.6.4-1 1-1h12.7c.6 0 1 .4 1 1v.7c0 .5-.5 1-1 1zm-17.4-8h-12.6c-.6 0-1-.4-1-1v-.7c0-.6.4-1 1-1h12.7c.6 0 1 .4 1 1v.7c-.1.5-.5 1-1.1 1zm17.4 0h-12.7c-.6 0-1-.4-1-1v-.7c0-.6.4-1 1-1h12.7c.6 0 1 .4 1 1v.7c0 .5-.5 1-1 1zm0-8h-30c-.6 0-1-.4-1-1v-3.3c0-.6.4-1 1-1h30c.6 0 1 .4 1 1v3.3c0 .5-.5 1-1 1z"/></svg>