<svg enable-background="new 0 0 48 48" viewBox="0 0 48 48" xmlns="http://www.w3.org/2000/svg"><path d="m45.9 19c.6-.8 1.6-9.1-4.8-11.9-6.3-2.6-12.2 1.1-13.5 2-.5.2-.6 0-.6 0s-3-7.9-10.6-9c-6.8-1-10.5 6.5-10.3 7.5 0 0 9.9-6.6 18.5 1.9-24.1-6.6-23 14.7-23 14.7 8.9-10.7 20.2-11.8 23.5-11.9-2.4 3.4-11.8 17.1-12.2 34.4v.1.2c.1.7 1.4 1 3.1 1s3.1-.6 3.1-1.3-1.3-20.5 7.7-33.9c2.2 1.3 12 8.1 14.1 22.6 0 0 12-17.6-11.8-24.6 11.9-2.7 16.8 8.2 16.8 8.2z"/><path d="m34 3.9s-2.5-5.4-8.5-2.6c0 0 2.3 2.5 2.9 5.3-.1 0 2.3-2.2 5.6-2.7z"/><path d="m23 36.5c-.2-.4-.6-3.4 1.8-4.5 2.3-1 4.6.4 5.1.7.2.1.2 0 .2 0s1.1-3 4-3.4c2.5-.4 3.9 2.4 3.9 2.8 0 0-3.7-2.4-6.9.7 9-2.4 8.5 5.5 8.5 5.5-3.4-4-7.6-4.5-8.8-4.5 1 1.2 4.3 6.4 4.6 12.9 0 .2-.5.4-1.2.4-.6 0-1.2-.2-1.2-.5s.5-7.6-2.9-12.6c-.8.5-4.5 3-5.3 8.4 0 0-4.5-6.5 4.5-9.1-4.5-.7-6.3 3.2-6.3 3.2z"/><path d="m27.5 31s1-2 3.3-1c0 0-.8 1-1.1 1.9-.2.1-1-.8-2.2-.9z"/></svg>