<svg enable-background="new 0 0 48 48" viewBox="0 0 48 48" xmlns="http://www.w3.org/2000/svg"><path d="m37.8 3.3 6 6s.1 0 .1.1c-1.1 1.1-2.3 2.3-2.5 3.9v.4.2c-.5 0-1.1.2-1.5.6l-3.9 3.1-6.3-6.3 8-7.9c0-.1.1-.1.1-.1zm-13.1 13.1 6.2 6.2-22.2 22.2h-6.2v-6.2zm13.1-15.6c-.7 0-1.3.2-1.8.7l-9.8 9.7 9.7 9.7 5.6-4.6 3.5 3.5-12.9 12 2.6 2.6 10.7-10.7c1.3-1.3 2.6-2.5 2.6-3.8s-1.2-2.5-2.4-3.7c-.8-.8-1.7-1.7-1.7-2.5.1-.8 1-1.7 1.8-2.5 1-1 1-2.6-.1-3.6l-6-6c-.5-.5-1.1-.8-1.8-.8zm-13.1 12-24.7 24.7v9.7h9.7l24.7-24.7z"/></svg>