<svg enable-background="new 0 0 48 48" viewBox="0 0 48 48" xmlns="http://www.w3.org/2000/svg"><path d="m10.6 9.1.4.8.7 1.4h1.5 32.3v3.7h-2.2v2.2h-10.5c-1.3 0-2.5.5-3.3 1.4-.8-.8-2-1.3-3.2-1.3h-2.2-1l-.7.7s0 0-.1.1v-.8h-2.5c-2.6 0-4.7 2.1-4.7 4.7v2c0 1.1.4 2 1 2.8-.5.4-1 1-1.3 1.6l-5.2 10.5h-7c-.1-.5-.2-2.8 4-9.2.8-1.1 4.1-5.9 2.2-9.5-.5-1.1-1.7-2.3-3.9-2.8v-6.2h1.2l.7-1.4.4-.8h3.4m1.5-2.4h-6.5l-1.1 2.1h-2.1v10.9c8.7 0 2.2 8.7 2.2 8.7-8.7 13.1-2.2 13.1-2.2 13.1h7.5c.8 0 1.6-.5 1.9-1.2l5.2-10.7c.4-.7 1.1-1.2 1.9-1.2h7.3c2.4 0 4.3-1.9 4.3-4.3v-2.3c0-1.2 1-2.2 2.2-2.2h13.1v-2.2h2.2v-8.6h-34.8zm12 17.4c-2.2-2.2 0-4.3 0-4.3h2.2c1.2 0 2.2 1 2.2 2.2v2.1c0 1.2-1 2.2-2.2 2.2h-6.5c-1.2 0-2.2-1-2.2-2.2v-2.2c0-1.2 1-2.2 2.2-2.2 0 2.5 1.9 4.4 4.3 4.4z"/></svg>