<svg enable-background="new 0 0 48 48" viewBox="0 0 48 48" xmlns="http://www.w3.org/2000/svg"><path d="m8.8 8.8h4.3v4.3h-4.3zm-8.8-8.8h21.8v21.8h-21.8zm4.3 4.3v13.1h13.1v-13.1zm4.5 30.6h4.3v4.3h-4.3zm-8.8-8.7h21.8v21.8h-21.8zm4.3 4.4v13.1h13.1v-13.1zm30.6-21.8h4.3v4.3h-4.3zm-8.7-8.8h21.8v21.8h-21.8zm4.4 4.3v13.1h13.1v-13.1zm-4.4 21.9h8.8v4.3h4.3v-4.3h8.7v4.3h-8.8v4.3h8.8v13.2h-8.8v-4.3h-8.8v4.3h-4.3v-4.3h4.3v-4.3h-4.3c.1 0 .1-13.2.1-13.2zm17.5 17.5v-4.3h-4.3v4.3zm-4.5-8.8h-4.3v-4.3h-4.3v8.8h8.8v-4.4h-.2z"/></svg>