<svg enable-background="new 0 0 48 48" viewBox="0 0 48 48" xmlns="http://www.w3.org/2000/svg"><path d="m45 33.6v-31.2c0-1.5-.9-2.4-2.4-2.4h-30.6c-5.1 0-9 3.9-9 9v30c0 5.1 3.9 9 9 9h30.6c1.2 0 2.4-.9 2.4-2.4v-1.5c0-.6-.3-1.2-.9-1.8-.3-1.5-.3-5.7 0-6.9.6-.3.9-.9.9-1.8zm-13.8-19.9c.1-.1.2-.2.3-.2s.2.1.3.2l1 2.1 2.3.3c.3 0 .4.3.2.5l-1.7 1.7.4 2.3c0 .2-.1.4-.3.4h-.1l-2.1-1.1-2.1 1.1h-.1c-.2 0-.3-.2-.3-.4l.4-2.3-1.7-1.7c-.2-.2-.1-.5.2-.5l2.3-.3zm-5.4-6.5c1.3 0 2.6.2 3.8.7.4 0 .6.3.6.6 0 .4-.3.6-.6.6-.1 0-.2 0-.2 0-.1 0-.3 0-.4 0-4.9 0-8.9 4-8.9 8.9s4 8.9 8.9 8.9h.4c.4 0 .6.3.6.6s-.2.5-.4.6c-1.2.5-2.5.7-3.8.7-6 0-10.8-4.8-10.8-10.8s4.8-10.8 10.8-10.8zm12.9 34.8h-26.7c-1.8 0-3-1.2-3-3s1.5-3 3-3h26.7z"/></svg>