<svg enable-background="new 0 0 48 48" viewBox="0 0 48 48" xmlns="http://www.w3.org/2000/svg"><path d="m27.1 17.1 1.9 1.9-.5 2.7c0 .3.2.5.5.4l2.4-1.3 2.4 1.3c.3.1.6-.1.5-.4l-.3-2.7 1.9-1.9c.2-.2.1-.6-.2-.6l-2.7-.4-1.2-2.4c-.1-.3-.5-.3-.6 0l-1.2 2.4-2.7.4c-.3.1-.4.4-.2.6zm-2.3 11.4c1.2 0 2.3-.2 3.4-.6.5-.2.9-.7.9-1.2 0-.7-.6-1.3-1.3-1.3h-.3c-3.7 0-6.7-3-6.7-6.7s3-6.7 6.7-6.7h.3c.6 0 1.1-.4 1.3-1 .1-.6-.2-1.2-.8-1.5-1.2-.3-2.3-.5-3.5-.5-5.4 0-9.7 4.4-9.7 9.8s4.3 9.7 9.7 9.7zm20.2 7.5v-34.5c0-.8-.7-1.5-1.5-1.5h-33c-4.1 0-7.5 3.4-7.5 7.5v33c0 4.1 3.4 7.5 7.5 7.5h33c.8 0 1.5-.7 1.5-1.5v-1.5c0-.7-.5-1.3-1.2-1.5-.4-1.2-.4-4.8 0-6.1.7-.1 1.2-.7 1.2-1.4zm-5.1 7.5h-29.4c-1.7 0-3-1.3-3-3s1.4-3 3-3h29.4c-.2 1.6-.2 4.4 0 6zm.6-10.5h-30c-1.1 0-2.1.2-3 .6v-26.1c0-1.7 1.3-3 3-3h30z"/></svg>