<svg enable-background="new 0 0 48 48" viewBox="0 0 48 48" xmlns="http://www.w3.org/2000/svg"><path d="m0 0h48v48h-48z" fill="none"/><path d="m24 2.5c4.1 0 9.3.2 12.7 1.5 2.8 1.1 4 2.8 4 5.6v25.2c0 3.3-2.6 5.9-5.9 5.9h-6l4.2 4.3.5.5h-19.1l.6-.5 4.3-4.3h-6c-3.3 0-5.9-2.6-5.9-5.9v-25.2c0-2.8 1.2-4.5 4-5.6 3.3-1.3 8.5-1.5 12.6-1.5m0 38.4c4 0 7.3-3.3 7.3-7.3s-3.3-7.3-7.3-7.3-7.3 3.3-7.3 7.3 3.3 7.3 7.3 7.3m0-40.9c-10.6 0-19.2 1.2-19.2 9.6v25.2c0 4.7 3.7 8.4 8.4 8.4l-3.6 3.6v1.2h28.8v-1.2l-3.6-3.6c4.7 0 8.4-3.7 8.4-8.4v-25.2c0-8.4-8.6-9.6-19.2-9.6zm0 38.4c-2.6 0-4.8-2.2-4.8-4.8s2.2-4.8 4.8-4.8 4.8 2.2 4.8 4.8-2.2 4.8-4.8 4.8z"/><path d="m35.9 10.1v7h-23.8v-7zm2.5-2.5h-28.8v12h28.8z"/></svg>