<svg enable-background="new 0 0 48 48" viewBox="0 0 48 48" xmlns="http://www.w3.org/2000/svg"><path d="m28.4 2.5 2.1 3.2-6.5 9.2-6.6-9.2 2.1-3.2zm1.4-2.5h-11.6l-3.8 5.8 9.6 13.4 9.6-13.4z"/><path d="m32.9 13.5c5.5 3.1 8.8 8.9 8.8 15.3 0 9.8-7.9 17.7-17.7 17.7s-17.7-7.9-17.7-17.7c0-6.4 3.4-12.2 8.8-15.3l1.1 1.6c-5 2.8-8.1 8-8.1 13.8 0 8.8 7.1 15.9 15.9 15.9s15.9-7.1 15.9-15.9c0-5.8-3.1-11-8.1-13.8zm-.5-2-2.9 4.1c5.3 2.2 8.9 7.2 8.9 13.2 0 7.9-6.5 14.4-14.4 14.4s-14.4-6.5-14.4-14.4c0-6 3.6-11 8.9-13.2l-2.9-4.1c-6.5 3.1-10.8 9.6-10.8 17.3 0 10.6 8.6 19.2 19.2 19.2s19.2-8.6 19.2-19.2c0-7.7-4.3-14.2-10.8-17.3z"/></svg>