<svg enable-background="new 0 0 48 48" viewBox="0 0 48 48" xmlns="http://www.w3.org/2000/svg"><path d="m24 2.1c2.4 0 4.3 1.9 4.3 4.3 0 1.6-.8 3-2.2 3.7v2.9h2.2c8.4 0 15.3 6.9 15.3 15.3h2.2c1.2 0 2.2 1 2.2 2.2v6.5c0 1.2-1 2.2-2.2 2.2h-2.2v2.2c0 2.4-1.9 4.3-4.3 4.3h-30.6c-2.4 0-4.3-1.9-4.3-4.3v-2.2h-2.3c-1.2 0-2.2-1-2.2-2.2v-6.6c0-1.2 1-2.2 2.2-2.2h2.2c0-8.4 6.9-15.3 15.3-15.3h2.2v-2.8c-1.3-.7-2.2-2.2-2.2-3.7.1-2.3 2-4.3 4.4-4.3zm-9.9 24.1c-3 0-5.4 2.4-5.4 5.4s2.4 5.4 5.4 5.4 5.4-2.4 5.4-5.4c.2-2.9-2.3-5.4-5.4-5.4zm19.8 0c-3 0-5.4 2.4-5.4 5.4s2.4 5.4 5.4 5.4 5.4-2.4 5.4-5.4c0-2.9-2.4-5.4-5.4-5.4z"/></svg>