<svg enable-background="new 0 0 48 48" viewBox="0 0 48 48" xmlns="http://www.w3.org/2000/svg"><path d="m24 4.6c1 0 1.8.8 1.8 1.8 0 .6-.3 1.2-.9 1.5l-1 .6-1-.6c-.5-.3-.8-.9-.9-1.5.1-.9 1-1.8 2-1.8m4.3 10.9c7 0 12.8 5.7 12.8 12.8v2.5h2.5 1.8v5.9h-1.8-2.5v2.5 2.2c0 1-.8 1.8-1.8 1.8h-30.6c-1 0-1.8-.8-1.8-1.8v-2.2-2.5h-2.5-2v-5.9h1.8 2.5v-2.5c0-7 5.7-12.8 12.8-12.8h2.2 2.5 2zm-4.3-13.4c-2.4 0-4.3 1.9-4.5 4.3 0 1.6.8 3 2.2 3.7v2.9h-2.2c-8.4 0-15.3 6.9-15.3 15.3h-2.1c-1.2 0-2.2 1-2.2 2.2v6.5c0 1.2 1 2.2 2.2 2.2h2.3v2.2c0 2.4 1.9 4.3 4.3 4.3h30.6c2.4 0 4.3-1.9 4.3-4.3v-2.2h2.2c1.2 0 2.2-1 2.2-2.2v-6.6c0-1.2-1-2.2-2.2-2.2h-2.2c0-8.4-6.9-15.3-15.3-15.3h-2.2v-2.8c1.3-.7 2.2-2.2 2.2-3.7 0-2.3-1.9-4.3-4.3-4.3z"/><path d="m14.1 28.7c.8 0 1.6.3 2.2.9.5.5.8 1.2.8 1.9v.1.1c0 1.6-1.3 2.9-2.9 2.9s-2.9-1.3-2.9-2.9 1.2-3 2.8-3m0-2.5c-3 0-5.4 2.4-5.4 5.4s2.4 5.4 5.4 5.4 5.4-2.4 5.4-5.4c.2-2.9-2.3-5.4-5.4-5.4z"/><path d="m33.9 28.7c1.6 0 2.9 1.3 2.9 2.9s-1.3 2.9-2.9 2.9-2.9-1.3-2.9-2.9 1.2-2.9 2.9-2.9m0-2.5c-3 0-5.4 2.4-5.4 5.4s2.4 5.4 5.4 5.4 5.4-2.4 5.4-5.4c0-2.9-2.4-5.4-5.4-5.4z"/></svg>