<svg enable-background="new 0 0 48 48" viewBox="0 0 48 48" xmlns="http://www.w3.org/2000/svg"><path d="m45.2 2.8c-1.4 6.8-6.8 20.3-17.2 28l-.8.6-.2.9-1.3 6.5-4.1 4.1-1.1-5.4-.4-2h-2c-1.4 0-2.6 0-2.9-.1-.2-.1-.7-.6-1.3-1.2s-1.1-1.1-1.2-1.3c-.1-.4-.1-1.5-.1-2.9v-2l-2-.4-5.4-1.1 4.2-4.2 6.5-1.3.9-.2.6-.8c7.1-10 20.7-15.7 27.8-17.2m-16.4 23c3.6 0 6.7-3.1 6.7-6.7 0-3.7-3-6.7-6.7-6.7s-6.7 3-6.7 6.7c0 3.6 3.1 6.7 6.7 6.7m-20.8 13.7.5.5-5.1 5h-.4v-.4zm40-39.5c-6.2 0-23.8 6.2-32.8 18.5l-7.2 1.4-8 8 10 2c0 4 0 4 2 6s2 2 6 2l2 10 7.9-7.9 1.4-7.2c12.5-9 18.7-26.6 18.7-32.8zm-19.2 23.3c-2.3 0-4.2-1.9-4.2-4.2s1.8-4.2 4.2-4.2 4.2 1.9 4.2 4.2-1.9 4.2-4.2 4.2zm-24.8 8.7-3.5 3.5v4l7-7zm4 4-7.6 7.6v4h4l7.6-7.6zm7.5 4.4-6.8 6.8h4l3.4-3.4z"/></svg>