<svg enable-background="new 0 0 48 48" viewBox="0 0 48 48" xmlns="http://www.w3.org/2000/svg"><path d="m.7 11.4v14.9 2h2 42.8 2v-2-5.7h-1.5v16h1.3v-2.6-2h-2-42.7-2v2 2.6h1.4v-25.2zm.8-2h-.3c-.7 0-1.2.6-1.2 1.2v26.9c0 .7.6 1.2 1.2 1.2h.2c.7 0 1.2-.6 1.2-1.2v-3.4h42.8v3.4c0 .7.6 1.2 1.2 1.2h.3c.7 0 1.2-.6 1.2-1.2v-17.7c0-.7-.6-1.2-1.2-1.2h-.2c-.7 0-1.2.6-1.2 1.2v6.5h-42.8v-15.7c0-.8-.6-1.2-1.2-1.2z"/><path d="m10.7 16.5c1.1 0 2.1.9 2.1 2.1s-.9 2.1-2.1 2.1-2.1-.9-2.1-2.1.9-2.1 2.1-2.1m0-2.5c-2.5 0-4.6 2-4.6 4.6 0 2.5 2 4.6 4.6 4.6s4.6-2 4.6-4.6c-.1-2.5-2.1-4.6-4.6-4.6z"/><path d="m21.5 16.5h.2c6.4.6 11.1 2.4 14.1 4.3h-16.3v-2.3c0-.4.1-1.1.6-1.5.4-.3.9-.5 1.4-.5m0-2.5c-1.1 0-2.2.4-3 1.1-1 .8-1.4 2-1.4 3.4v4.8h25c-1.8-3.6-8.9-8.2-20-9.2-.3-.1-.4-.1-.6-.1z"/></svg>