<svg enable-background="new 0 0 48 48" viewBox="0 0 48 48" xmlns="http://www.w3.org/2000/svg"><path d="m24 0c-13.3 0-24 9.4-24 21 0 6.6 3.5 12.4 8.9 16.3.9.6 1.4 1.7 1.3 2.8l-.9 6.2c-.2.9.5 1.7 1.4 1.7h7.3v-5.3c0-.4.3-.8.8-.8h1.5c.4 0 .8.3.8.8v5.3h6v-5.3c0-.4.3-.8.8-.8h1.5c.4 0 .8.3.8.8v5.3h7.3c.9 0 1.6-.8 1.5-1.7l-.9-6.2c-.2-1.1.4-2.2 1.3-2.8 5.1-3.9 8.6-9.7 8.6-16.3 0-11.6-10.7-21-24-21zm-9 30c-3.3 0-6-2.7-6-6s2.7-6 6-6 6 2.7 6 6-2.7 6-6 6zm18 0c-3.3 0-6-2.7-6-6s2.7-6 6-6 6 2.7 6 6-2.7 6-6 6z"/></svg>