<svg enable-background="new 0 0 48 48" viewBox="0 0 48 48" xmlns="http://www.w3.org/2000/svg"><path d="m32.3 18.8c-2.9 0-5.3 2.4-5.3 5.3s2.4 5.3 5.3 5.3 5.3-2.4 5.3-5.3-2.5-5.3-5.3-5.3zm-16.5 0c-2.9 0-5.3 2.4-5.3 5.3s2.4 5.3 5.3 5.3 5.2-2.5 5.2-5.4-2.4-5.2-5.2-5.2zm8.2-18.8c-13.3 0-24 9.4-24 21 0 6.6 3.5 12.4 8.9 16.3.9.6 1.4 1.7 1.3 2.8l-.6 4.5c-.3 1.8 1.1 3.4 3 3.4h23.1c1.8 0 3.2-1.6 3-3.4l-.6-4.5c-.2-1.1.4-2.2 1.3-2.8 5.1-3.9 8.6-9.7 8.6-16.3 0-11.6-10.7-21-24-21zm12.5 33.6c-2.3 1.6-3.5 4.4-3.1 7.1l.4 2.8h-3.8v-3.8c0-.4-.3-.8-.8-.8h-1.5c-.4 0-.8.3-.8.8v3.8h-6v-3.8c0-.4-.3-.8-.8-.8h-1.5c-.4 0-.8.3-.8.8v3.8h-3.8l.4-2.8c.4-2.7-.8-5.5-3.1-7.1-4.4-3.2-7-7.8-7-12.6 0-9.1 8.7-16.5 19.5-16.5s19.7 7.4 19.7 16.5c0 4.9-2.5 9.5-7 12.6z"/></svg>