<svg enable-background="new 0 0 48 48" viewBox="0 0 48 48" xmlns="http://www.w3.org/2000/svg"><path d="m26.4 28.8c-8 0-10.7 3.2-11.5 5.4 2.5 1.1 4.3 3.6 4.3 6.6 0 4-3.2 7.2-7.2 7.2s-7.2-3.2-7.2-7.2c0-3.1 2-5.8 4.8-6.8v-20c-2.8-1-4.8-3.6-4.8-6.8 0-4 3.2-7.2 7.2-7.2s7.2 3.2 7.2 7.2c0 3.1-2 5.8-4.8 6.8v12.7c2.2-1.6 5.2-2.6 9.6-2.6 6.4 0 8.5-3.2 9.2-5.4-2.6-1.1-4.4-3.6-4.4-6.6 0-4 3.2-7.2 7.2-7.2s7.2 3.2 7.2 7.2c0 3.2-2.2 6-5 6.8-.6 3.4-2.9 9.9-11.8 9.9zm-14.4 9.6c-1.3 0-2.4 1.1-2.4 2.4s1.1 2.4 2.4 2.4 2.4-1.1 2.4-2.4-1.1-2.4-2.4-2.4zm0-33.6c-1.3 0-2.4 1.1-2.4 2.4s1.1 2.4 2.4 2.4 2.4-1.1 2.4-2.4-1.1-2.4-2.4-2.4zm24 4.8c-1.3 0-2.4 1.1-2.4 2.4s1.1 2.4 2.4 2.4 2.4-1.1 2.4-2.4-1.1-2.4-2.4-2.4z"/></svg>