<svg enable-background="new 0 0 48 48" viewBox="0 0 48 48" xmlns="http://www.w3.org/2000/svg"><path d="m47.4 18.7c-2.4 0-11.3.5-17.8 6.9-2.8 2.5-4.4 5.3-5.5 7.9-1.1-2.6-2.8-5.4-5.5-7.9-6.6-6.4-15.4-6.9-17.8-6.9-.4 0-.6.3-.6.7 0 2.3.6 10.5 7.4 16.6 7 6.8 13.9 6.7 16.6 6.7s9.6.1 16.6-6.7c6.8-6.1 7.4-14.3 7.4-16.6-.2-.5-.5-.7-.8-.7zm-23.4 9.2c1.1-1.6 2.3-3 3.7-4.2 1.6-1.6 3.3-2.8 5-3.8-1.4-5.9-4.3-11.1-8.1-14.3-.3-.3-.9-.3-1.3 0-3.7 3.3-6.7 8.5-8.1 14.3 1.7 1 3.4 2.2 4.9 3.7 1.6 1.3 2.8 2.7 3.9 4.3z"/></svg>