<svg enable-background="new 0 0 48 48" viewBox="0 0 48 48" xmlns="http://www.w3.org/2000/svg"><path d="m9.2 9.4c2.8.5 4.5 1.9 6.8 3.8.9.7 1.8 1.5 2.8 2.2h-6.1-3.5zm0 7.3 2.1 2.1c.1.1.3.3.5.4.2.2.4.4.6.6l.6.8h1 20.3c-.1.3-.2.6-.2 1v4.8c0 .4.1.7.2 1h-20.4-1l-.6.8c-.2.3-.5.6-.8.8l-2.3 1.7v-1.5h-2-1.2-2-1.6c-.2 0-.3 0-.4 0v-2.5h.4 2v-2-1.2-2h-2c-.2 0-.3 0-.4 0v-2.5h.4 1.6 2 1.2 2zm30.5 4.3c1.4.3 2.7.7 3.8 1.2 1.7.8 2.3 1.5 2.4 1.8-.1.3-.7 1-2.4 1.8-1.1.5-2.4.9-3.8 1.2.4-.8.7-1.8.7-3 0-1.1-.2-2.2-.7-3m-20.9 11.6c-1 .7-1.9 1.5-2.8 2.2-2.3 1.9-4 3.3-6.8 3.8v-6h3.5zm-11.6-25.4v9.6h-1.2v-9.6c-2 0-3.6 2.2-3.6 4.8v4.8c-1.7 0-2.4.7-2.4 1.8v3c0 1.1.7 1.8 2.4 1.8v1.2c-1.7 0-2.4.7-2.4 1.8v3c0 1.1.7 1.8 2.4 1.8v4.8c0 2.6 1.6 4.8 3.6 4.8v-9.6h1.2v9.6c9.2 0 10-7.9 21-10.2h-15.5c.5-.4.8-.7 1.2-1.2h21.5c3.2 0 6.6-.7 9-1.8 2.3-1.1 3.6-2.4 3.6-3.6s-1.3-2.5-3.6-3.6c-2.5-1.2-5.8-1.8-9-1.8h-21.5c-.4-.5-.8-.8-1.2-1.2h15.5c-11-2.3-11.8-10.2-21-10.2zm29.4 19.8c-.4 0-.6-.2-.6-.6v-4.8c0-.4.2-.6.6-.6 2.4 0 2.4 6 0 6z"/></svg>