<svg enable-background="new 0 0 48 48" viewBox="0 0 48 48" xmlns="http://www.w3.org/2000/svg"><path d="m44.4 20.4c-2.5-1.2-5.8-1.8-9-1.8h-21.5c-.4-.5-.8-.8-1.2-1.2h15.5c-11-2.3-11.8-10.2-21-10.2v9.6h-1.2v-9.6c-2 0-3.6 2.2-3.6 4.8v4.8c-1.7 0-2.4.7-2.4 1.8v3c0 1.1.7 1.8 2.4 1.8v1.2c-1.7 0-2.4.7-2.4 1.8v3c0 1.1.7 1.8 2.4 1.8v4.8c0 2.6 1.6 4.8 3.6 4.8v-9.6h1.2v9.6c9.2 0 10-7.9 21-10.2h-15.5c.5-.4.8-.7 1.2-1.2h21.5c3.2 0 6.6-.7 9-1.8 2.3-1.1 3.6-2.4 3.6-3.6s-1.3-2.5-3.6-3.6zm-7.8 6.6c-.4 0-.6-.2-.6-.6v-4.8c0-.4.2-.6.6-.6 2.4 0 2.4 6 0 6z"/></svg>