<svg enable-background="new 0 0 48 48" viewBox="0 0 48 48" xmlns="http://www.w3.org/2000/svg"><path d="m21 3c0-1.7-1.3-3-3-3h-6c-1.7 0-3 1.3-3 3v9h12zm24 9c-1.7 0-3 1.3-3 3s1.3 3 3 3 3-1.3 3-3-1.3-3-3-3zm-24 3h-12c-5 0-9 4-9 9v21c0 1.7 1.3 3 3 3h24c1.7 0 3-1.3 3-3v-21c0-5-4-9-9-9zm-6 24c-4.1 0-7.5-3.4-7.5-7.5s3.4-7.5 7.5-7.5 7.5 3.4 7.5 7.5-3.4 7.5-7.5 7.5zm30-30c1.7 0 3-1.3 3-3s-1.3-3-3-3-3 1.3-3 3 1.3 3 3 3zm-9 3c-1.7 0-3 1.3-3 3s1.3 3 3 3 3-1.3 3-3-1.3-3-3-3zm-9-9c-1.7 0-3 1.3-3 3s1.3 3 3 3 3-1.3 3-3-1.3-3-3-3zm9 0c-1.7 0-3 1.3-3 3s1.3 3 3 3 3-1.3 3-3-1.3-3-3-3zm9 18c-1.7 0-3 1.3-3 3s1.3 3 3 3 3-1.3 3-3-1.3-3-3-3z"/></svg>