<svg enable-background="new 0 0 48 48" viewBox="0 0 48 48" xmlns="http://www.w3.org/2000/svg"><path d="m45 12c-1.7 0-3 1.3-3 3s1.3 3 3 3 3-1.3 3-3-1.3-3-3-3zm0 9c-1.7 0-3 1.3-3 3s1.3 3 3 3 3-1.3 3-3-1.3-3-3-3zm0-12c1.7 0 3-1.3 3-3s-1.3-3-3-3-3 1.3-3 3 1.3 3 3 3zm-9 3c-1.7 0-3 1.3-3 3s1.3 3 3 3 3-1.3 3-3-1.3-3-3-3zm0-9c-1.7 0-3 1.3-3 3s1.3 3 3 3 3-1.3 3-3-1.3-3-3-3zm-9 0c-1.7 0-3 1.3-3 3s1.3 3 3 3 3-1.3 3-3-1.3-3-3-3zm-6 9v-9c0-1.7-1.3-3-3-3h-6c-1.7 0-3 1.3-3 3v9c-5 0-9 4-9 9v24c0 1.7 1.3 3 3 3h24c1.7 0 3-1.3 3-3v-24c0-5-4-9-9-9zm-7.5-7.5h3v7.5h-3zm12 39h-21v-22.5c0-2.5 2-4.5 4.5-4.5h12c2.5 0 4.5 2 4.5 4.5zm-10.5-19.5c-3.3 0-6 2.7-6 6s2.7 6 6 6 6-2.7 6-6-2.7-6-6-6z"/></svg>