<svg enable-background="new 0 0 48 48" viewBox="0 0 48 48" xmlns="http://www.w3.org/2000/svg"><path d="m0 0h48v48h-48z" fill="none"/><path d="m24 2.5c12.9 0 17.7 2 17.8 7.5v24c0 3.5-2.9 6.4-6.4 6.4h-6l4.3 4.3.9.9h-20.9l.8-.8 4.3-4.3h-6c-3.5 0-6.4-2.9-6.4-6.4v-24c-.1-5.5 4.7-7.6 17.6-7.6m0-2.5c-11.2 0-20.2 1.3-20.2 10.1v24c0 4.9 4 8.9 8.9 8.9l-3.8 3.8v1.2h30.4v-1.3l-3.8-3.8c4.9 0 8.9-4 8.9-8.9v-24c-.3-8.7-9.3-10-20.4-10z"/><path d="m12.6 31.7c1.3 0 2.3 1 2.3 2.3s-1 2.3-2.3 2.3-2.3-1.1-2.3-2.3 1-2.3 2.3-2.3m0-1.5c-2.2 0-3.8 1.8-3.8 3.8 0 2.2 1.8 3.8 3.8 3.8 2.2 0 3.8-1.7 3.8-3.8s-1.6-3.8-3.8-3.8z"/><path d="m35.4 31.7c1.3 0 2.3 1 2.3 2.3-.1 1.3-1.1 2.4-2.3 2.4-1.3 0-2.3-1.1-2.3-2.3s1-2.4 2.3-2.4m0-1.5c-2.2 0-3.8 1.8-3.8 3.8 0 2.2 1.8 3.8 3.8 3.8s3.7-1.7 3.8-3.8c0-2.1-1.8-3.8-3.8-3.8z"/><path d="m19.5 10.1v8.6h-8.6v-8.6zm2-2h-12.6v12.6h12.6z"/><path d="m37.1 10.1v8.6h-8.6v-8.6zm2-2h-12.6v12.6h12.6z"/></svg>