<svg enable-background="new 0 0 48 48" viewBox="0 0 48 48" xmlns="http://www.w3.org/2000/svg"><path d="m0 0h48v48h-48z" fill="none"/><path d="m24 0c-11.2 0-20.2 1.3-20.2 10.1v24c0 4.9 4 8.9 8.9 8.9l-3.8 3.8v1.2h30.4v-1.3l-3.8-3.8c4.9 0 8.9-4 8.9-8.9v-24c-.3-8.7-9.3-10-20.4-10zm-11.4 37.9c-2 0-3.8-1.7-3.8-3.8 0-2 1.7-3.8 3.8-3.8s3.8 1.7 3.8 3.8-1.7 3.8-3.8 3.8zm8.9-15.2h-12.6v-12.6h12.6zm13.9 15.2c-2 0-3.8-1.7-3.8-3.8 0-2 1.7-3.8 3.8-3.8 2 0 3.8 1.7 3.8 3.8-.1 2.1-1.8 3.8-3.8 3.8zm3.7-15.2h-12.6v-12.6h12.6z"/></svg>