<svg enable-background="new 0 0 48 48" viewBox="0 0 48 48" xmlns="http://www.w3.org/2000/svg"><path d="m29 36.5 7.5-7.5-27.7-27.8-7.4-1.2c-.8-.1-1.5.6-1.4 1.4l1.2 7.3zm18.6 6.8-5.6-5.5 3-5.5c.3-.6.2-1.3-.3-1.8l-1.6-1.6c-.6-.6-1.5-.6-2.1 0l-12.2 12c-.6.6-.6 1.5 0 2.1l1.6 1.6c.5.5 1.2.6 1.8.3l5.5-3 5.6 5.6c.6.6 1.5.6 2.1 0l2.1-2.1c.7-.5.7-1.5.1-2.1zm-.8-34.6 1.2-7.3c.1-.8-.6-1.5-1.4-1.4l-7.3 1.2-13.2 13.2 7.5 7.5zm-32.4 17.4-5 5-2.3-2.3c-.6-.6-1.5-.6-2.1 0l-1.6 1.6c-.5.5-.6 1.2-.3 1.8l3 5.5-5.6 5.6c-.6.6-.6 1.5 0 2.1l2.1 2.1c.6.6 1.5.6 2.1 0l5.6-5.6 5.5 3c.6.3 1.3.2 1.8-.3l1.6-1.6c.6-.6.6-1.5 0-2.1l-2.3-2.3 5-5z"/></svg>