<svg enable-background="new 0 0 48 48" viewBox="0 0 48 48" xmlns="http://www.w3.org/2000/svg"><path d="m47.6 43.3-5.6-5.5 3-5.5c.3-.6.2-1.3-.3-1.8l-1.6-1.6c-.6-.6-1.5-.6-2.1 0l-1.6 1.6-28.9-29-8.8-1.5c-.9-.1-1.8.7-1.7 1.7l1.5 8.8 28.9 28.9-1.6 1.6c-.6.6-.6 1.5 0 2.1l1.6 1.6c.5.5 1.2.6 1.8.3l5.5-3 5.6 5.6c.6.6 1.5.6 2.1 0l2.1-2.1c.6-.6.6-1.6.1-2.2zm-14-7.1-27.9-27.9-.5-3.1 3.2.5 27.9 27.9zm6.1-30.5 3.2-.5-.5 3.2-10.5 10.3 3.2 3.2 11.4-11.4 1.5-8.8c.1-.9-.7-1.8-1.7-1.7l-8.8 1.5-11.4 11.4 3.2 3.2zm-21 26.2-4.3 4.3-2.6-2.6 4.3-4.3-3.2-3.2-4.3 4.3-1.6-1.6c-.6-.6-1.5-.6-2.1 0l-1.6 1.6c-.5.5-.6 1.2-.3 1.8l3 5.5-5.6 5.6c-.6.6-.6 1.5 0 2.1l2.1 2.1c.6.6 1.5.6 2.1 0l5.6-5.6 5.5 3c.6.3 1.3.2 1.8-.3l1.6-1.6c.6-.6.6-1.5 0-2.1l-1.6-1.6 4.3-4.3z"/></svg>