<svg enable-background="new 0 0 48 48" viewBox="0 0 48 48" xmlns="http://www.w3.org/2000/svg"><path d="m21.6 2.5c.4 0 1.1.1 1.5.6l.1.1.1.1 21.6 21.6.1.1.1.1c.5.4.6 1 .6 1.5 0 .6-.3 1.1-.7 1.6l-17 16.6c-.4.4-1 .7-1.6.7s-1.1-.3-1.6-.7l-21.6-21.6c-.4-.4-.7-1-.7-1.6v-16.8c0-1.3 1-2.3 2.3-2.3zm0-2.5h-16.8c-2.6 0-4.8 2.2-4.8 4.8v16.8c0 1.3.6 2.5 1.4 3.4l21.6 21.6c.8.8 2 1.4 3.4 1.4s2.5-.6 3.4-1.4l16.8-16.8c.8-.8 1.4-2 1.4-3.4s-.5-2.5-1.4-3.4l-21.6-21.6c-.9-.9-2.1-1.4-3.4-1.4z"/><path d="m8.8 7.6c.7 0 1.1.4 1.1 1.1s-.5 1.1-1.1 1.1-1.1-.4-1.1-1.1.4-1.1 1.1-1.1m0-2.5c-2 0-3.6 1.6-3.6 3.6s1.6 3.6 3.6 3.6 3.6-1.6 3.6-3.6-1.6-3.6-3.6-3.6z"/></svg>