<svg enable-background="new 0 0 48 48" viewBox="0 0 48 48" xmlns="http://www.w3.org/2000/svg"><path d="m6.5 39.6c-1.2 0-2 1-2 2 0 1.2 1 2 2 2 1.1 0 2.1-.9 2-2.2-.1-1-.9-1.8-1.9-1.9 0 .1-.1.1-.1.1z"/><path d="m26.5 2.8c.7.5 1.7 1.5 2 2.8.7 2.7.4 5.2.1 7.7-.1.8-.2 1.6-.3 2.4-.1.7.2 1.4.7 1.9s1.1.8 1.8.8h12.8c1 0 1.8.8 1.8 1.8 0 .9-.7 1.5-1.3 1.7-.9.3-1.6 1.2-1.7 2.2s.4 1.9 1.3 2.4c.4.2 1 .7 1 1.5 0 .7-.5 1.2-1 1.4-.7.3-1.2.9-1.4 1.6s-.1 1.5.3 2.1c.4.5.4.8.4 1 0 .7-.5 1.2-1 1.4-.7.3-1.2.8-1.4 1.5s-.1 1.4.2 2.1c.2.3.2.6.2.9 0 .4 0 .8-2.3 1.4-2.5.5-7 1-11.7 1-1.2 0-2.3 0-3.4-.1-.9-.1-2-.2-3.1-.3-2.1-.3-4.2-.5-5.9-.5-.2 0-.5 0-.7 0-1.3.1-2.4 1.2-2.4 2.5v1.5h-9v-25h9.1c.3 1.1 1.3 1.9 2.4 1.9 2.8 0 5.2-.9 6.8-2.4 3.4-3.5 5.6-9.6 5.6-15.3 0-.4 0-.8 0-1.2.1-.2.1-.4.1-.7m-.8-2.8c-.5 0-1 .2-1.3.5-.5.6-.4 1.9-.4 4.2 0 5.4-2.3 10.8-4.9 13.5-1.2 1.2-3.1 1.7-5 1.7v-1.9h-14.1v30h14v-4h.6c2.5 0 6.2.6 8.9.9 1.2.1 2.4.1 3.6.1 5.1 0 9.7-.6 12.3-1.1 3-.7 4.3-1.7 4.3-3.8 0-.8-.2-1.6-.6-2.2 1.4-.6 2.5-2 2.5-3.7 0-1-.4-1.7-.8-2.4 1.4-.6 2.5-2 2.5-3.7s-1-3-2.3-3.7c1.7-.6 3-2.2 3-4.1 0-2.4-1.9-4.3-4.3-4.3h-12.9c.3-3.1 1.2-6.7.2-10.9-.8-2.9-3.4-5.1-5.3-5.1z"/><path d="m11.6 18h2.5v30h-2.5z"/></svg>