<svg enable-background="new 0 0 48 48" viewBox="0 0 48 48" xmlns="http://www.w3.org/2000/svg"><path d="m3 23.6c-1.8.5-3 2.2-3 4.1 0 2.4 1.9 4.3 4.3 4.3h12.8c-.2 3.1-1.2 6.7-.1 10.9 1 3.6 4.9 6.2 6.6 4.6.6-.6.5-1.9.5-4.2 0-5.4 2.3-10.8 4.9-13.5 1.2-1.2 3.1-1.7 5-1.7v1.9h14v-30h-14v4c-2.5.1-6.6-.6-9.5-.8-6.5-.4-12.7.3-15.7 1s-4.3 1.7-4.3 3.8c0 .8.2 1.6.6 2.2-1.4.6-2.5 2-2.5 3.7 0 1 .4 1.7.8 2.4-1.4.6-2.5 2-2.5 3.7-.2 1.6.8 2.9 2.1 3.6zm39-19.5c1.1 0 2 .8 2 2 0 1.1-1 2-2 2s-2-.8-2-2 .9-2 2-2z"/></svg>