<svg enable-background="new 0 0 48 48" viewBox="0 0 48 48" xmlns="http://www.w3.org/2000/svg"><path d="m45.5 2.5v25h-9c-.3-1.1-1.3-1.9-2.4-1.9-2.8 0-5.2.9-6.8 2.4-3.4 3.5-5.6 9.6-5.6 15.3v1 .9c-.8-.5-1.8-1.5-2.2-2.9-.7-2.7-.4-5.2-.1-7.7.1-.8.2-1.6.3-2.4.1-.7-.2-1.4-.7-1.9s-1.1-.8-1.8-.8h-12.9c-1 0-1.8-.8-1.8-1.8 0-.8.5-1.5 1.1-1.7 1-.3 1.7-1.1 1.8-2.1s-.4-2-1.3-2.5c-.4-.2-.9-.7-.9-1.2 0-.1 0-.1 0-.2 0-.7.5-1.2 1-1.4.8-.3 1.4-.8 1.6-1.6.2-.7.1-1.5-.3-2.1-.4-.5-.4-.8-.4-1 0-.7.5-1.2 1-1.4.7-.3 1.2-.8 1.4-1.5s.1-1.4-.2-2.1c-.3-.3-.3-.5-.3-.9s0-.8 2.4-1.4c2.3-.6 6.8-1.1 11.6-1.1 1.1 0 2.3 0 3.3.1.9.1 2 .2 3.1.3 2.1.3 4.2.5 5.9.5h.7c1.3-.1 2.4-1.2 2.4-2.5v-1.4zm2.5-2.5h-14v4c-.2 0-.4 0-.6 0-2.5 0-6.2-.6-8.9-.9-1.2 0-2.4-.1-3.5-.1-5.1 0-9.7.6-12.2 1.2-3 .7-4.3 1.7-4.3 3.8 0 .8.2 1.6.6 2.2-1.4.6-2.5 2-2.5 3.7 0 1 .4 1.7.8 2.4-1.4.6-2.5 2-2.5 3.7-.1 1.6.8 2.9 2.2 3.6-1.8.5-3 2.2-3 4.1-.1 2.4 1.8 4.3 4.2 4.3h12.8c-.2 3.1-1.2 6.7-.1 10.9.8 2.8 3.4 5.1 5.3 5.1.5 0 1-.2 1.3-.5.6-.6.5-1.9.5-4.2 0-5.4 2.3-10.8 4.9-13.5 1.2-1.2 3.1-1.7 5-1.7v1.9h14z"/><path d="m34 0h2.5v30h-2.5z"/><path d="m41.9 3.8c-1.1 0-2 .8-2 2s1 2 2 2c1.1 0 2-1 2-2 .1-1.2-.9-2-2-2z"/></svg>