<svg enable-background="new 0 0 48 48" viewBox="0 0 48 48" xmlns="http://www.w3.org/2000/svg"><path d="m45 24.4c1.7-.6 3-2.2 3-4.1 0-2.4-1.9-4.3-4.3-4.3h-12.9c.3-3.1 1.2-6.7.2-10.9-1-3.6-4.9-6.2-6.6-4.6-.5.6-.4 1.9-.4 4.2 0 5.4-2.3 10.8-4.9 13.5-1.2 1.2-3.1 1.7-5 1.7v-1.9h-14.1v30h14v-4c2.5-.1 6.6.6 9.5.8 6.5.4 12.7-.4 15.8-1 3-.7 4.3-1.7 4.3-3.8 0-.8-.2-1.6-.6-2.2 1.4-.6 2.5-2 2.5-3.7 0-1-.4-1.7-.8-2.4 1.4-.6 2.5-2 2.5-3.7.1-1.6-.9-2.9-2.2-3.6zm-39 19.5c-1.1 0-2-.8-2-2 0-1.1.8-2 2-2s2 .8 2 2c.1 1.2-.9 2-2 2z"/></svg>