<svg enable-background="new 0 0 48 48" viewBox="0 0 48 48" xmlns="http://www.w3.org/2000/svg"><path d="m45.4 18.7h-8.1v-3.1c4.6-1.2 8.1-5.3 8.1-10.3h-8.1v-2.7c0-1.4-1.2-2.6-2.6-2.6h-21.4c-1.4 0-2.6 1.2-2.6 2.6v2.6h-8.1c0 4.9 3.4 9.1 8.1 10.3v3h-8.1c0 4.9 3.4 9.1 8.1 10.3v3h-8.1c0 4.9 3.4 9.1 8.1 10.3v3c0 1.4 1.2 2.6 2.6 2.6h21.4c1.4 0 2.6-1.2 2.6-2.6v-3c4.6-1.2 8.1-5.3 8.1-10.3h-8.1v-3c4.6-1.1 8.1-5.2 8.1-10.1zm-21.4 24.1c-3 0-5.3-2.4-5.3-5.3s2.4-5.3 5.3-5.3 5.3 2.4 5.3 5.3-2.3 5.3-5.3 5.3zm0-13.5c-3 0-5.3-2.4-5.3-5.3s2.4-5.3 5.3-5.3 5.3 2.4 5.3 5.3-2.3 5.3-5.3 5.3zm0-13.4c-3 0-5.3-2.4-5.3-5.3s2.4-5.3 5.3-5.3 5.3 2.4 5.3 5.3-2.3 5.3-5.3 5.3z"/><path d="m0 0h48v48h-48z" fill="none"/></svg>