<svg enable-background="new 0 0 48 48" viewBox="0 0 48 48" xmlns="http://www.w3.org/2000/svg"><path d="m34.7 2.5c.1 0 .1.1.1.1v2.6 2.5h2.5 5.2c-.9 2.6-3 4.7-5.8 5.4l-1.9.5v1.9 3.1 2.5h2.5 5.1c-.9 2.5-3 4.6-5.8 5.3l-1.7.6v1.9 3 2.5h2.5 5.2c-.9 2.6-3 4.7-5.8 5.4l-1.9.5v1.9 3c0 .1-.1.1-.1.1h-21.5c-.1 0-.1-.1-.1-.1v-3-1.9l-1.9-.5c-2.8-.7-4.9-2.8-5.8-5.4h5.2 2.5v-2.4-3-2l-1.9-.5c-2.8-.7-4.9-2.8-5.8-5.4h5.2 2.5v-2.5-3-1.9l-1.9-.5c-2.8-.7-4.9-2.8-5.8-5.4h5.2 2.5v-2.6-2.6c0-.1.1-.1.1-.1zm0-2.5h-21.4c-1.4 0-2.6 1.2-2.6 2.6v2.6h-8.1c0 4.9 3.4 9.1 8.1 10.3v3h-8.1c0 4.9 3.4 9.1 8.1 10.3v3h-8.1c0 4.9 3.4 9.1 8.1 10.3v3c0 1.4 1.2 2.6 2.6 2.6h21.4c1.4 0 2.6-1.2 2.6-2.6v-3c4.6-1.2 8.1-5.3 8.1-10.3h-8.1v-3c4.6-1.2 8.1-5.3 8.1-10.2h-8.1v-3.1c4.6-1.2 8.1-5.3 8.1-10.3h-8.1v-2.6c.1-1.4-1.1-2.6-2.6-2.6z"/><path d="m0 0h48v48h-48z" fill="none"/><path d="m24 34.7c1.5 0 2.8 1.3 2.8 2.8 0 1.6-1.2 2.8-2.8 2.8s-2.8-1.2-2.8-2.8c0-1.5 1.3-2.8 2.8-2.8m0-2.5c-2.9 0-5.3 2.4-5.3 5.3s2.3 5.3 5.3 5.3 5.3-2.4 5.3-5.3-2.4-5.3-5.3-5.3z"/><path d="m24 21.2c1.5 0 2.8 1.3 2.8 2.8 0 1.6-1.2 2.8-2.8 2.8s-2.8-1.2-2.8-2.8c0-1.5 1.3-2.8 2.8-2.8m0-2.5c-2.9 0-5.3 2.4-5.3 5.3s2.3 5.3 5.3 5.3 5.3-2.4 5.3-5.3-2.4-5.3-5.3-5.3z"/><path d="m24 7.9c1.5 0 2.8 1.3 2.8 2.8 0 1.6-1.2 2.8-2.8 2.8s-2.8-1.2-2.8-2.8 1.3-2.8 2.8-2.8m0-2.5c-2.9 0-5.3 2.4-5.3 5.3s2.3 5.3 5.3 5.3 5.3-2.4 5.3-5.3-2.4-5.3-5.3-5.3z"/></svg>