<svg enable-background="new 0 0 48 48" viewBox="0 0 48 48" xmlns="http://www.w3.org/2000/svg"><path d="m43.4 18.6c.2-.7.2-1.3.2-2 0-5.5-4.9-9.9-10.4-9.4-1-4.1-4.7-7.2-9.2-7.2s-8.2 3.1-9.2 7.2c-5.6-.5-10.4 3.9-10.4 9.4 0 .7.1 1.3.2 2-2.8 1.7-4.6 4.7-4.6 8 0 5.2 4.3 9.4 9.5 9.4h11.5v5.3l-2.8 4.5c-.5 1 .2 2.2 1.3 2.2h9c1.1 0 1.8-1.2 1.3-2.2l-2.8-4.5v-5.3h11.5c5.2 0 9.5-4.2 9.5-9.4 0-3.4-1.8-6.4-4.6-8zm-4.9 12.9h-29c-2.8 0-5-2.2-5-4.9 0-2.2 1.4-4 3.5-4.7l2.6-.8-1.2-2.4c-.4-.7-.5-1.4-.5-2.1 0-2.7 2.2-4.9 5-4.9.7 0 1.4.2 2.1.4l3.5 1.6-.5-4.3c0-2.7 2.2-4.9 5-4.9s5 2.2 5 5l-.4 4.2 3.5-1.6c3.3-1.5 7.1 1.1 7.1 4.5 0 .7-.2 1.5-.6 2.2l-1.2 2.4 2.6.8c2.1.6 3.5 2.5 3.5 4.7 0 2.6-2.2 4.8-5 4.8z"/></svg>