<svg enable-background="new 0 0 48 48" viewBox="0 0 48 48" xmlns="http://www.w3.org/2000/svg"><path d="m44.5 35.3-5.2-6h.5c.9 0 1.7-.5 2-1.3.4-.8.2-1.7-.3-2.4l-5.1-6h1.2c.9 0 1.7-.5 2.1-1.3s.2-1.8-.4-2.4l-13.5-15c-.9-.9-2.5-.9-3.3 0l-13.5 15c-.6.7-.7 1.6-.4 2.4.4.8 1.2 1.3 2.1 1.3h1.1l-5.1 6c-.6.7-.7 1.6-.3 2.4s1.2 1.3 2 1.3h.5l-5.2 6c-.6.7-.7 1.6-.3 2.4s1.2 1.3 2 1.3h15.6v2.3l-2.8 4.5c-.5 1 .2 2.2 1.3 2.2h9c1.1 0 1.8-1.2 1.3-2.2l-2.8-4.5v-2.3h15.8c.9 0 1.7-.5 2-1.3s.2-1.8-.3-2.4zm-34.3-.8 8.4-9.8h-5.5l8.3-9.8h-5.8l8.4-9.3 8.4 9.4h-5.8l8.3 9.8h-5.5l8.4 9.8z"/></svg>