<svg enable-background="new 0 0 48 48" viewBox="0 0 48 48" xmlns="http://www.w3.org/2000/svg"><path d="m41.5 35.5-7.5-8.5h2.9c.8 0 1.6-.5 1.9-1.2.4-.8.2-1.6-.3-2.3l-7.3-8.5h2.7c.9 0 1.6-.5 2-1.3.3-.8.2-1.6-.4-2.3l-10.3-11c-.6-.6-1.6-.6-2.2 0l-10.3 11c-.6.6-.7 1.5-.4 2.3s1.1 1.3 2 1.3h2.7l-7.3 8.5c-.7.7-.9 1.5-.5 2.3s1.1 1.2 1.9 1.2h2.9l-7.5 8.5c-.5.6-.7 1.5-.3 2.3s1.1 1.2 2 1.2h12.8v2.3l-2.8 4.5c-.5 1 .2 2.2 1.3 2.2h9c1.1 0 1.8-1.2 1.3-2.2l-2.8-4.5v-2.3h12.8c.8 0 1.6-.5 2-1.2.4-.8.2-1.7-.3-2.3z"/></svg>