<svg enable-background="new 0 0 48 48" viewBox="0 0 48 48" xmlns="http://www.w3.org/2000/svg"><path d="m46.5 22c-1-1.5-2.3-2.6-4-3.3h.1c.8-1.5 1.1-3 .9-4.6s-.9-3-1.9-4.1-2.4-1.9-3.9-2.3-3.1-.2-4.7.5c-.3-2.3-1.2-4.2-3-5.8s-3.7-2.4-6-2.4-4.3.8-6 2.3-2.7 3.5-3 5.8c-1.6-.7-3.1-.8-4.6-.5s-2.9 1.2-3.9 2.4-1.7 2.5-1.9 4.1.1 3.1 1 4.6c-1.7.7-3 1.8-4 3.3s-1.5 3.2-1.5 5c0 2.5.9 4.6 2.6 6.4 1.7 1.7 3.8 2.6 6.3 2.6h12v5.3l-2.8 4.5c-.5 1 .2 2.2 1.3 2.2h9c1.1 0 1.8-1.2 1.3-2.2l-2.8-4.5v-5.3h12c2.5 0 4.6-.9 6.4-2.6 1.8-1.8 2.6-3.9 2.6-6.4 0-1.8-.5-3.5-1.5-5z"/></svg>