<svg enable-background="new 0 0 48 48" viewBox="0 0 48 48" xmlns="http://www.w3.org/2000/svg"><path d="m47.6 33-4.2-4.8h.4c.7 0 1.3-.4 1.6-1s.2-1.4-.3-1.9l-4.1-4.8h1c.7 0 1.4-.4 1.6-1.1.3-.7.2-1.4-.3-1.9l-10.8-12c-.7-.8-2-.8-2.7 0l-5.8 6.4-5.9-6.5c-.7-.8-2-.8-2.7 0l-10.8 12c-.5.5-.6 1.3-.3 1.9.3.7 1 1.1 1.7 1.1h.9l-4.1 4.8c-.5.5-.6 1.3-.3 1.9s.9 1 1.6 1h.4l-4.1 4.9c-.5.5-.6 1.3-.3 1.9.4.7 1 1.1 1.7 1.1h12.6v1.8l-2.3 3.6c-.4.8.2 1.7 1.1 1.7h7.2c.9 0 1.5-.9 1.1-1.7l-2.3-3.6v-1.8h9.6v1.8l-2.3 3.6c-.4.8.2 1.7 1.1 1.7h7.2c.9 0 1.5-.9 1.1-1.7l-2.3-3.6v-1.8h12.6c.7 0 1.3-.4 1.6-1.1.3-.6.2-1.4-.2-1.9zm-24.8-.6h-17.1l6.7-7.8h-4.3l6.6-7.8h-4.7l6.8-7.5 6.8 7.5h-4.6l6.6 7.8h-4.4l6.7 7.8zm9.8 0-3.6-4.2h.4c.7 0 1.3-.4 1.6-1s.2-1.4-.3-1.9l-4.1-4.8h.9c.7 0 1.4-.4 1.6-1.1.3-.7.2-1.4-.3-1.9l-2.5-2.8 4.8-5.3 6.8 7.5h-4.6l6.6 7.8h-4.4l6.7 7.8z"/></svg>