<svg enable-background="new 0 0 48 48" viewBox="0 0 48 48" xmlns="http://www.w3.org/2000/svg"><path d="m22.4 26.4h2.3c.7 0 1.3-.4 1.6-1s.2-1.3-.2-1.8l-5.9-6.8h2.2c.7 0 1.3-.4 1.6-1s.1-1.3-.3-1.8l-8.3-8.8c-.5-.5-1.3-.5-1.7 0l-8.4 8.8c-.5.5-.6 1.2-.3 1.8s.9 1 1.6 1h2.2l-5.9 6.8c-.4.5-.5 1.2-.2 1.8s.9 1 1.6 1h2.3l-6 6.8c-.6.5-.7 1.2-.4 1.8s.9 1 1.6 1h10.2v1.8l-2.3 3.6c-.4.8.2 1.7 1.1 1.7h7.2c.9 0 1.5-.9 1.1-1.7l-2.3-3.6v-1.8h10.3c.7 0 1.3-.4 1.6-1s.2-1.3-.3-1.8zm25.2 6.8-6-6.8h2.3c.7 0 1.3-.4 1.6-1s.2-1.3-.2-1.8l-5.9-6.8h2.2c.7 0 1.3-.4 1.6-1s.1-1.3-.3-1.8l-8.3-8.8c-.5-.5-1.3-.5-1.7 0l-7.1 7.6c.8 1.2 1 2.6.5 4-.3.7-.8 1.3-1.4 1.7l3.1 3.6c1 1.2 1.3 2.9.6 4.4-.3.7-.8 1.2-1.4 1.6l3.1 3.5c.6.7 1 1.1 1 2v4.2l-2.3 3.6c-.4.8.2 1.7 1.1 1.7h7.2c.9 0 1.5-.9 1.1-1.7l-2.4-3.6v-1.8h10.3c.7 0 1.3-.4 1.6-1 .2-.6.1-1.3-.3-1.8z"/></svg>