<svg enable-background="new 0 0 48 48" viewBox="0 0 48 48" xmlns="http://www.w3.org/2000/svg"><path d="m46.8 26.4h-1.2v-4.8c0-1.3-1.1-2.4-2.4-2.4h-3.6l-8.2-10.2c-.9-1.1-2.3-1.8-3.7-1.8h-8.5c-1.3 0-2.4 1.1-2.4 2.4v9.6h-12c-1.3 0-2.4 1.1-2.4 2.4v4.8h-1.2c-.7 0-1.2.5-1.2 1.2v2.4c0 .7.5 1.2 1.2 1.2h3.7c-.1.4-.1.8-.1 1.2 0 4.6 3.8 8.4 8.4 8.4s8.4-3.8 8.4-8.4c0-.4-.1-.8-.1-1.2h5c-.1.4-.1.8-.1 1.2 0 4.6 3.8 8.4 8.4 8.4s8.4-3.8 8.4-8.4c0-.4-.1-.8-.1-1.2h3.7c.7 0 1.2-.5 1.2-1.2v-2.4c0-.7-.5-1.2-1.2-1.2zm-25.2-14.4h6.1l5.8 7.2h-11.9zm-8.4 24c-2 0-3.6-1.6-3.6-3.6s1.6-3.6 3.6-3.6 3.6 1.6 3.6 3.6-1.6 3.6-3.6 3.6zm21.6 0c-2 0-3.6-1.6-3.6-3.6s1.6-3.6 3.6-3.6 3.6 1.6 3.6 3.6-1.6 3.6-3.6 3.6z"/></svg>