<svg enable-background="new 0 0 48 48" viewBox="0 0 48 48" xmlns="http://www.w3.org/2000/svg"><path d="m46.8 30h-1.2v-9.6c0-1.3-1.1-2.4-2.4-2.4h-4.6l-7.2-9c-.9-1.1-2.3-1.8-3.7-1.8h-8.5c-1.3 0-2.4 1.1-2.4 2.4v8.4h-12c-1.3 0-2.4 1.1-2.4 2.4v9.6h-1.2c-.7 0-1.2.5-1.2 1.2v1.2c0 .7.5 1.2 1.2 1.2h3.7c.6 4.1 4.1 7.2 8.3 7.2s7.7-3.1 8.3-7.2h5c.6 4.1 4.1 7.2 8.3 7.2s7.7-3.1 8.3-7.2h3.7c.7 0 1.2-.5 1.2-1.2v-1.2c0-.7-.5-1.2-1.2-1.2zm-26.4-19.2h7.3c.4 0 .7.2.9.4l5.4 6.8h-13.6zm-7.2 26.4c-2.7 0-4.8-2.1-4.8-4.8s2.1-4.8 4.8-4.8 4.8 2.1 4.8 4.8-2.1 4.8-4.8 4.8zm21.6 0c-2.6 0-4.8-2.2-4.8-4.8s2.2-4.8 4.8-4.8 4.8 2.2 4.8 4.8-2.2 4.8-4.8 4.8zm7.2-9.1c-1.5-2.5-4.1-4.1-7.2-4.1-3.8 0-7 2.5-8 6h-5.6c-1-3.5-4.2-6-8-6-3.1 0-5.7 1.7-7.2 4.1v-6.5h36z"/></svg>