<svg enable-background="new 0 0 48 48" viewBox="0 0 48 48" xmlns="http://www.w3.org/2000/svg"><path d="m33.4 10.3v5.5 2.5.7 5 2.5h2.5 9 .6v5.1h-1.6-1.1c-.9-1.8-2.7-3-4.9-3s-4 1.2-4.9 3h-1.3-8-1.1c-.9-1.8-2.7-3-4.9-3s-4 1.2-4.9 3h-1.3-1.7v-4.6-.5h4.8 3.7l-1.3-3.4-1-2.6h1.7 3.7l-1.4-3.4-1.2-3-.6-1.6h-1.7-6.4v-.6c0-.9.7-1.6 1.6-1.6zm2.5-2.5h-24.3c-2.3 0-4.1 1.8-4.1 4.1h-7.5l1.6 3.1h14.9l1.2 3h-15.8l1.6 3h10l1.2 3h-10.6l1.4 3h1.8v7.1h4.1c0 3.4 2.8 6.1 6.1 6.1s6.1-2.8 6.1-6.1h8c0 3.4 2.8 6.1 6.1 6.1s6.1-2.8 6.1-6.1h4.2v-10.1l-6-8.2h-6.1zm0 16.2v-5h5l4 5zm2 13.1c-1.7 0-3-1.3-3-3s1.3-3 3-3 3 1.3 3 3-1.3 3-3 3zm-20.3 0c-1.7 0-3-1.3-3-3s1.3-3 3-3 3 1.3 3 3-1.3 3-3 3z"/></svg>