<svg enable-background="new 0 0 48 48" viewBox="0 0 48 48" xmlns="http://www.w3.org/2000/svg"><path d="m46.6 20.2-4.4-4.4c-.9-.9-2.1-1.4-3.4-1.4h-2.8v-4.8c0-1.3-1.1-2.4-2.4-2.4h-31.2c-1.3 0-2.4 1.1-2.4 2.4v25.2c0 3.3 2.7 6 6 6 2 0 3.7-1 4.8-2.4 1.1 1.5 2.8 2.4 4.8 2.4 3.3 0 6-2.7 6-6 0-.4 0-.8-.1-1.2h12.2c-.1.4-.1.8-.1 1.2 0 3.3 2.7 6 6 6s6-2.7 6-6c0-.4 0-.8-.1-1.2h1.3c.7 0 1.2-.5 1.2-1.2v-8.8c0-1.3-.5-2.5-1.4-3.4zm-40.6 17c-1.3 0-2.4-1.1-2.4-2.4s1.1-2.4 2.4-2.4 2.4 1.1 2.4 2.4-1.1 2.4-2.4 2.4zm9.6 0c-1.3 0-2.4-1.1-2.4-2.4s1.1-2.4 2.4-2.4 2.4 1.1 2.4 2.4-1.1 2.4-2.4 2.4zm3.6-7.2c-1-.7-2.2-1.2-3.6-1.2s-2.6.5-3.6 1.2h-2.4c-1-.7-2.2-1.2-3.6-1.2-.9 0-1.7.2-2.4.5v-18.5h28.8v19.2zm16.8-12h2.8c.3 0 .6.1.8.4l3.2 3.2h-6.8zm3.6 19.2c-1.3 0-2.4-1.1-2.4-2.4s1.1-2.4 2.4-2.4 2.4 1.1 2.4 2.4-1.1 2.4-2.4 2.4zm4.8-7.2h-1.2c-1-.7-2.2-1.2-3.6-1.2-1.3 0-2.6.5-3.6 1.2v-6h8.4z"/></svg>