<svg enable-background="new 0 0 48 48" viewBox="0 0 48 48" xmlns="http://www.w3.org/2000/svg"><path d="m47.8 13.9c-.2-.7-.8-1.3-1.5-1.7l-14.8-7.4c-.7 1-2.1 3.8-7.5 3.8s-6.8-2.8-7.5-3.8l-14.9 7.4c-.7.3-1.2.9-1.5 1.7-.2.7-.2 1.5.2 2.2l4 8c.7 1.4 2.5 2 3.9 1.3l1.8-.8c.4-.2.9.1.9.5v13.9c0 2.3 1.9 4.2 4.2 4.2h18c2.3 0 4.2-1.9 4.2-4.2v-13.9c0-.4.5-.7.9-.5l1.8.8c1.4.7 3.2.1 3.9-1.3l4-8c.1-.7.2-1.5-.1-2.2zm-7 8-5.5-2.6c-.8-.4-1.7.2-1.7 1.1v18.6c0 .3-.3.6-.6.6h-18c-.3 0-.6-.3-.6-.6v-18.7c0-.9-.9-1.5-1.7-1.1l-5.5 2.6-3.4-6.7 11.7-5.8c2 1.8 5.1 2.9 8.5 2.9s6.5-1.1 8.5-2.9l11.7 5.8z"/></svg>