<svg enable-background="new 0 0 48 48" viewBox="0 0 48 48" xmlns="http://www.w3.org/2000/svg"><path d="m5.7 24h23.3c2 0 3.4-1.6 2.9-3.3-1.7-5.8-7.5-12.7-14.5-12.7h-.1c-7 0-12.9 6.9-14.5 12.7-.5 1.7.9 3.3 2.9 3.3zm40.3-9.9-4-2.9c-2.9-1.5-6.7.1-7.2 3.4 0 .3-.1.6-.1.8v5.9c0 1.2-.4 2.3-1.1 3.2-1 1.3-2.6 2.1-4.3 2.1h-27.7c-.9 0-1.5.7-1.5 1.5 0 .7.4 1.3 1.1 1.5l8.2 1.8-3.9 6.6c-.5.9.1 2 1.2 2h3.1c.5 0 .9-.3 1.2-.7l3.4-5.8c2.2.7 3.8 1.1 7.1 1.1s4.9-.4 7.1-1.1l3.4 5.8c.2.4.7.7 1.2.7h2.8c1 0 1.7-1.1 1.2-2l-3.9-6.8c1.8-.7 3.4-1.8 4.6-3.4 1.2-1.5 1.9-3.3 2.1-5.1h3.4c2.6 0 4.7-2.1 4.7-4.7-.1-1.6-.8-3-2.1-3.9zm-6 3.2c-.7 0-1.3-.6-1.3-1.3s.6-1.3 1.3-1.3 1.3.6 1.3 1.3-.6 1.3-1.3 1.3z"/></svg>