<svg enable-background="new 0 0 48 48" viewBox="0 0 48 48" xmlns="http://www.w3.org/2000/svg"><path d="m47.8 16.8c-.4-1.5-1.4-2.9-2.7-3.8-3.3-2.4-4.2-3.4-7-3.4-3 0-5.5 1.8-6.5 4.3-3-3.8-7.8-6.7-13-6.7-1.2 0-12.3.9-16 12-.4 1.2-.3 2.5.1 3.6h-.3c-1.3 0-2.4 1.1-2.4 2.4v1.2c0 .9.5 1.7 1.3 2.1l6.1 3.2-2.1 3.7c-.6 1.1-.6 2.5 0 3.6s1.8 1.8 3.1 1.8h2.8c1.3 0 2.5-.7 3.1-1.8l2.1-3.6c3 .8 7.3.8 10.5 0l2.1 3.6c.6 1.1 1.8 1.8 3.1 1.8h2.8c1.3 0 2.5-.7 3.1-1.8s.6-2.5 0-3.6l-2.3-4c2.3-1.6 3.8-3.8 4.6-6.2h1.1c4.2 0 7.5-4 6.4-8.4zm-41.7 3.5c1.4-4.3 6.5-9.5 12.5-9.5h.1c6 0 11.1 5.2 12.5 9.5.2.7-.5 2.4-2.3 2.5-.1 0-20.2 0-20.2 0-1.8 0-3-1.2-2.6-2.5zm35.3 1.3h-3.6c-.8 6.8-5.6 7.6-7.2 8.3l4.2 7.3h-2.8l-3.5-6.1c-5 1.6-8.2 1.9-13.8 0l-3.5 6.1h-2.8l4-6.9-7.4-3.9h23.8c2.4 0 6.1-1.6 6.1-6v-4.1c0-1.5.9-2.3 1.6-2.7 2.4-1.2 3.5.2 6.7 2.5.8.6 1.3 1.5 1.3 2.5-.1 1.6-1.5 3-3.1 3zm-3-6c-.7 0-1.2.5-1.2 1.2s.5 1.2 1.2 1.2 1.2-.5 1.2-1.2-.5-1.2-1.2-1.2z"/></svg>