<svg enable-background="new 0 0 48 48" viewBox="0 0 48 48" xmlns="http://www.w3.org/2000/svg"><path d="m48 26c-2.4-11.3-11.6-18.2-21.3-19.2v-1.5c0-1.5-1.2-2.7-2.7-2.7s-2.7 1.2-2.7 2.7v1.5c-9.8 1-18.8 7.9-21.3 19.2-.2.8.7 1.8 1.6 1 4.3-4.6 9-4.4 13.2 3.1.4.8 1.2.7 1.6 0 1.7-3 3.7-6.1 7.6-6.1 4.9 0 7.4 5.7 7.6 6.1.4.7 1.2.8 1.6 0 4.3-7.5 8.9-7.6 13.2-3.1.9.8 1.8-.1 1.6-1zm-26.7 1.8v10.9c0 .7-.6 1.3-1.3 1.3s-1.1-.4-1.3-.9c-.5-1.4-2-2.1-3.4-1.6s-2.1 2-1.6 3.4c.9 2.7 3.5 4.4 6.3 4.4 3.7 0 6.7-3 6.7-6.7v-10.8c-.8-.7-1.7-1.1-2.7-1.1-1-.1-1.9.3-2.7 1.1z"/></svg>