<svg enable-background="new 0 0 48 48" viewBox="0 0 48 48" xmlns="http://www.w3.org/2000/svg"><path d="m47.9 23.8c-2.4-10.1-11.7-16.3-21.9-17.1v-2c0-1.1-.9-2-2-2s-2 .9-2 2v2.1c-10.2.7-19.5 6.8-21.9 17-.5 2 1.9 3.7 3.6 2.1 4.1-3.8 7.5-2.3 10.4 2.3.9 1.5 2.9 1.4 3.8 0 1.1-1.7 2.3-3.4 4-4.1v15.2c0 1.1-.9 2-2 2-.9 0-1.6-.5-1.9-1.3-.4-1-1.5-1.6-2.6-1.2-1 .4-1.6 1.5-1.2 2.6.9 2.4 3.1 4 5.7 4 3.3 0 6-2.7 6-6v-15.2c2.2.9 3.2 2.7 4 4 .9 1.4 2.9 1.5 3.8 0 3-4.7 6.4-6.1 10.5-2.3 1.9 1.6 4.2-.1 3.7-2.1zm-15.9.1c-2-2.5-4.7-4.2-8-4.2s-5.8 1.6-7.9 4.2c-3-3.7-6.9-4.8-10.2-3.9 3.7-6.1 10.9-9.3 18.1-9.3 7.1 0 14.5 3.3 18.2 9.4-4.1-1.2-7.5.6-10.2 3.8z"/></svg>