<svg enable-background="new 0 0 48 48" viewBox="0 0 48 48" xmlns="http://www.w3.org/2000/svg"><path d="m28.1 12.2v.9 5.4 2.5h2.5 9.7 2.1 1.2c1 0 1.8.8 1.8 1.8v6.3h-1.7-1.6c-.9-1.9-2.9-3.2-5.2-3.2s-4.2 1.3-5.2 3.2h-1.3-12.9-1.4c-.9-1.9-2.9-3.2-5.2-3.2s-4.2 1.3-5.2 3.2h-1.4-1.8v-14.9c0-1 .8-1.8 1.8-1.8h2.5v-.1h21.3m9-2.6h-32.8v.1c-2.4 0-4.3 2-4.3 4.4v17.4h4.3c0 3.6 2.9 6.6 6.6 6.6s6.6-2.9 6.6-6.6h13.1c0 3.6 2.9 6.6 6.6 6.6s6.6-2.9 6.6-6.6h4.2v-8.8c0-2.4-1.9-4.3-4.3-4.3zm-6.5 8.8v-5.4h5.4l4.3 5.4zm6.5 16.3c-1.8 0-3.2-1.4-3.2-3.2s1.4-3.2 3.2-3.2 3.2 1.4 3.2 3.2-1.4 3.2-3.2 3.2zm-26.2 0c-1.8 0-3.2-1.4-3.2-3.2s1.4-3.2 3.2-3.2 3.2 1.4 3.2 3.2c.1 1.8-1.4 3.2-3.2 3.2z"/></svg>