<svg enable-background="new 0 0 48 48" viewBox="0 0 48 48" xmlns="http://www.w3.org/2000/svg"><path d="m15 13.5c1.2 0 2.3-.4 3.3-1l2.7 5.5h6l2.7-5.5c.9.6 2.1 1 3.3 1 3.3 0 6-2.7 6-6s-2.7-6-6-6c-1.5 0-2.8.6-3.9 1.4-1-1.7-2.9-2.9-5.1-2.9s-4.1 1.2-5.1 2.9c-1.1-.9-2.4-1.4-3.9-1.4-3.3 0-6 2.7-6 6s2.7 6 6 6zm13.5 7.5h-9.1c-.9 0-1.8.4-2.4 1.2l-5.2 6.7 1.2 1.5c.9 1.1 2.8 1.1 3.8 0 1-1.3 2.5-2 4.1-2 1.6-.1 3.2.7 4.2 1.9l3 3.4c.9 1.1 2.7 1.1 3.7 0l4.2-4.9-5.2-6.6c-.5-.8-1.3-1.2-2.3-1.2zm18.9 22.2-9.5-12.1-3.8 4.5c-1 1.2-2.5 1.9-4.1 1.9s-3.1-.7-4.1-1.9l-3-3.5c-.5-.5-1.1-.8-1.8-.8-.7 0-1.4.3-1.8.9-2.1 2.6-6.4 2.6-8.4 0l-.8-1-9.4 12c-1.6 2-.2 4.8 2.3 4.8h42c2.5 0 3.9-2.8 2.4-4.8z"/></svg>