<svg enable-background="new 0 0 48 48" viewBox="0 0 48 48" xmlns="http://www.w3.org/2000/svg"><path d="m46.9 40-14.9-18.6c-.9-1.2-2.4-1.9-3.9-1.9h-8.2c-1.5 0-3 .7-3.9 1.9l-15 18.6c-1.1 1.5-1.3 3.5-.5 5.2s2.6 2.8 4.5 2.8h38c1.9 0 3.6-1 4.4-2.7.9-1.7.7-3.7-.5-5.3zm-27.4-15.8c.1-.1.2-.2.4-.2h8.2c.1 0 .3.1.4.2l4.6 5.8-2.7 3.3c-.3.4-.8.4-1 .4s-.6-.1-1-.4l-2.7-3.1c-1.1-1.3-2.8-2-4.5-2s-3.3.8-4.4 2.2c-.3.4-.8.5-1 .5s-.7-.1-.9-.3l-.3-.4zm23.5 19.3h-38c-.2 0-.3-.1-.4-.3s-.1-.3 0-.4l7.3-9.1c2.4 2.2 6.4 2 8.5-.5.3-.4.8-.5 1-.5.3 0 .7.1 1 .4l2.7 3.1c1.1 1.3 2.7 2 4.4 2s3.3-.7 4.4-2.1l2.1-2.6 7.4 9.2c.1.2.1.3 0 .5s-.2.3-.4.3zm-28-30c1.2 0 2.3-.4 3.3-1l2.7 4h6l2.7-4c.9.6 2.1 1 3.3 1 3.3 0 6-2.7 6-6s-2.7-6-6-6c-1.5 0-2.8.6-3.9 1.4-1-1.7-2.9-2.9-5.1-2.9s-4.1 1.2-5.1 2.9c-1-.9-2.4-1.4-3.9-1.4-3.3 0-6 2.7-6 6s2.7 6 6 6z"/></svg>