<svg enable-background="new 0 0 48 48" viewBox="0 0 48 48" xmlns="http://www.w3.org/2000/svg"><path d="m45.6 28.8h-4.8v4.8h1.7c.4 0 .7.3.7.6v1.2c0 .3-.3.6-.7.6h-37c-.4 0-.7-.3-.7-.6v-1.2c0-.3.3-.6.7-.6h1.7v-4.8h-4.8c-1.3 0-2.4 1.1-2.4 2.4v7.2c0 1.3 1.1 2.4 2.4 2.4h43.2c1.3 0 2.4-1.1 2.4-2.4v-7.2c0-1.3-1.1-2.4-2.4-2.4zm-7.2 4.8v-24c0-1.3-1.1-2.4-2.4-2.4h-24c-1.3 0-2.4 1.1-2.4 2.4v24zm-22.6-13.6 1.9-1.9c.3-.3.8-.3 1.1 0l3.1 3.1 7.1-7.1c.3-.3.8-.3 1.1 0l1.9 1.9c.3.3.3.8 0 1.1l-9.6 9.5c-.3.3-.8.3-1.1 0l-5.6-5.6c-.2-.2-.2-.7.1-1z"/></svg>