<svg enable-background="new 0 0 48 48" viewBox="0 0 48 48" xmlns="http://www.w3.org/2000/svg"><path d="m18.5 24.9.8.8c.5.5 1.2.5 1.7 0l3-3 3 3c.5.5 1.2.5 1.7 0l.8-.8c.5-.5.5-1.2 0-1.7l-3-3 3-3c.5-.5.5-1.2 0-1.7l-.8-.8c-.5-.5-1.2-.5-1.7 0l-3 3-3-3c-.5-.5-1.2-.5-1.7 0l-.8.8c-.5.5-.5 1.2 0 1.7l3 3-3 3c-.5.5-.5 1.3 0 1.7zm25.9.3h-6v-17.5c0-1.6-1.1-2.9-2.4-2.9h-24c-1.3 0-2.4 1.3-2.4 2.9v17.5h-6c-2 0-3.6 1.6-3.6 3.6v10.8c0 2 1.6 3.6 3.6 3.6h40.8c2 0 3.6-1.6 3.6-3.6v-10.8c0-2-1.6-3.6-3.6-3.6zm-9.6-16.8v24h-21.6v-24zm9.6 31.2h-40.8v-10.8h6v3.6h-1.7c-.4 0-.7.3-.7.6v2.4c0 .3.3.6.7.6h32.2c.4 0 .7-.3.7-.6v-2.4c0-.3-.3-.6-.7-.6h-1.7v-3.6h6z"/></svg>