<svg enable-background="new 0 0 48 48" viewBox="0 0 48 48" xmlns="http://www.w3.org/2000/svg"><path d="m21.6 26.2c.3.3.8.3 1.1 0l8.8-8.8c.3-.3.3-.8 0-1l-1.7-1.8c-.3-.3-.8-.3-1 0l-6.6 6.5-2.8-2.9c-.3-.3-.8-.3-1 0l-1.9 1.8c-.3.3-.3.8 0 1zm22.8-1h-6v-17.5c0-1.6-1.1-2.9-2.4-2.9h-24c-1.3 0-2.4 1.3-2.4 2.9v17.5h-6c-2 0-3.6 1.6-3.6 3.6v10.8c0 2 1.6 3.6 3.6 3.6h40.8c2 0 3.6-1.6 3.6-3.6v-10.8c0-2-1.6-3.6-3.6-3.6zm-9.6-16.8v24h-21.6v-24zm9.6 31.2h-40.8v-10.8h6v3.6h-1.7c-.4 0-.7.3-.7.6v2.4c0 .3.3.6.7.6h32.2c.4 0 .7-.3.7-.6v-2.4c0-.3-.3-.6-.7-.6h-1.7v-3.6h6z"/></svg>