<svg enable-background="new 0 0 48 48" viewBox="0 0 48 48" xmlns="http://www.w3.org/2000/svg"><path d="m38.4 2.5c1.3 0 2.3 1 2.3 2.3v38.4c0 1.3-1 2.3-2.3 2.3h-28.8c-1.3 0-2.3-1-2.3-2.3v-38.4c0-1.3 1-2.3 2.3-2.3zm0-2.5h-28.8c-2.6 0-4.8 2.2-4.8 4.8v38.4c0 2.6 2.2 4.8 4.8 4.8h28.8c2.6 0 4.8-2.2 4.8-4.8v-38.4c0-2.6-2.2-4.8-4.8-4.8z"/><path d="m12 4.4c-1.3 0-2.4 1.1-2.4 2.4s1.1 2.4 2.4 2.4 2.4-1.1 2.4-2.4-1.1-2.4-2.4-2.4z"/><path d="m19.2 4.4c-1.3 0-2.4 1.1-2.4 2.4s1.1 2.4 2.4 2.4 2.4-1.1 2.4-2.4-1.1-2.4-2.4-2.4z"/><path d="m30.5 25.8c1.2 2.6.7 5.8-1.4 7.9-1.3 1.3-3.1 2.1-5 2.1-1 0-2-.2-2.9-.6zm.3-3.8-13.5 13.5c1.9 1.9 4.3 2.8 6.8 2.8s4.9-.9 6.8-2.8c3.7-3.7 3.7-9.8-.1-13.5z"/><path d="m24 16.9c6.6 0 11.9 5.3 11.9 11.9s-5.3 11.9-11.9 11.9-11.9-5.3-11.9-11.9 5.3-11.9 11.9-11.9m0-2.5c-7.9 0-14.4 6.5-14.4 14.4s6.5 14.4 14.4 14.4 14.4-6.5 14.4-14.4-6.5-14.4-14.4-14.4z"/></svg>