<svg enable-background="new 0 0 48 48" viewBox="0 0 48 48" xmlns="http://www.w3.org/2000/svg"><path d="m30.8 22c3.7 3.7 3.7 9.8 0 13.6-3.7 3.7-9.8 3.7-13.6 0zm-21.2-22h28.8c2.6 0 4.8 2.2 4.8 4.8v38.4c0 2.6-2.2 4.8-4.8 4.8h-28.8c-2.6 0-4.8-2.2-4.8-4.8v-38.4c0-2.6 2.2-4.8 4.8-4.8zm2.4 4.8c-1.3 0-2.4 1.1-2.4 2.4s1.1 2.4 2.4 2.4 2.4-1.1 2.4-2.4-1.1-2.4-2.4-2.4zm7.2 0c-1.3 0-2.4 1.1-2.4 2.4s1.1 2.4 2.4 2.4 2.4-1.1 2.4-2.4-1.1-2.4-2.4-2.4zm4.8 9.6c-7.9 0-14.4 6.5-14.4 14.4s6.5 14.4 14.4 14.4 14.4-6.5 14.4-14.4-6.5-14.4-14.4-14.4z"/></svg>