<svg enable-background="new 0 0 48 48" viewBox="0 0 48 48" xmlns="http://www.w3.org/2000/svg"><path d="m36 7.7v-4.7c0-1.7-1.3-3-3-3h-18c-1.7 0-3 1.3-3 3v4.7c-3.4.6-6 3.7-6 7.3v18c0 3.6 2.6 6.7 6 7.3v4.7c0 1.7 1.3 3 3 3h18c1.7 0 3-1.3 3-3v-4.7c3.4-.7 6-3.7 6-7.3v-18c0-3.6-2.6-6.7-6-7.3zm-19.5-3.2h15v3h-15zm15 39h-15v-3h15zm6-10.5c0 1.7-1.3 3-3 3h-21c-1.7 0-3-1.3-3-3v-18c0-1.7 1.3-3 3-3h21c1.7 0 3 1.3 3 3zm-6.7-14.1c-2.1-1.6-4.8-.9-6.1.4l-.7.6-.6-.6c-1.3-1.3-4.1-2-6.1-.4-2.1 1.6-2.2 4.5-.3 6.3l6.4 6c.4.4 1.1.4 1.5 0l6.4-6c1.7-1.8 1.6-4.7-.5-6.3z"/></svg>