<svg enable-background="new 0 0 48 48" viewBox="0 0 48 48" xmlns="http://www.w3.org/2000/svg"><path d="m42.8 2.5c.7 0 1.4.3 2 .8.5.5.7 1.2.7 1.8v.1.1 37.4c0 1.6-1.2 2.8-2.8 2.8h-37.4c-1.5 0-2.8-1.3-2.8-2.9v-37.3c0-1.5 1.3-2.8 2.8-2.8zm0-2.5h-37.5c-2.9 0-5.3 2.4-5.3 5.3v37.3c0 3 2.4 5.4 5.3 5.4h37.4c3 0 5.3-2.4 5.3-5.3v-37.4c.1-2.9-2.3-5.3-5.2-5.3z"/><path d="m29.3 40.3h-5.3v-5.3h-5.3v-5.2h5.3v5.2h5.3"/><path d="m29.3 19h-5.3v5.2h5.3v5.3h-5.3v-5.3h-5.3v-5.2h5.3v-5.3h-5.3v-5.4h5.3v5.3h5.3"/></svg>