<svg enable-background="new 0 0 48 48" viewBox="0 0 48 48" xmlns="http://www.w3.org/2000/svg"><path d="m29 14.8 4.3 4.3-3.2 3.2-4.3-4.3zm-7.4 7.4 2 2 2.3 2.3-18.3 18.2-4.3-4.3zm26.4-22.2-5.7 3.2-5.7-3.2 3.1 5.8-3.2 5.8 5.8-3.2 5.8 3.2-3.2-5.8zm-27.5 0-5.7 3.2-5.7-3.2 3.2 5.8-3.2 5.8 5.8-3.2 5.7 3.2-3.2-5.8zm8.4 11.4c-.6 0-1.2.2-1.6.7l-26.6 26.7c-.8.8-.8 2.4 0 3.2l5.3 5.3c.4.4 1 .6 1.6.6s1.2-.2 1.7-.6l26.7-26.7c.8-1 .8-2.4 0-3.2l-5.3-5.3c-.6-.5-1.2-.7-1.8-.7zm-.7 13.2-4.8-4.8 2.3 2.3zm19.8 2.8-5.8 3.2-5.8-3.2 3.2 5.8-3.2 5.8 5.8-3.2 5.8 3.2-3.2-5.8z"/><path d="m28.7 13.8-3.9 3.8 5.7 5.6 3.8-3.8z"/></svg>