<svg enable-background="new 0 0 48 48" viewBox="0 0 48 48" xmlns="http://www.w3.org/2000/svg"><path d="m24 4.9c5.8 0 10.6 4.4 11 10.1-.4 0-.7 0-1.1 0-3.6 0-7.1 1.2-10 3.2-2.9-2-6.2-3.2-10-3.2-.4 0-.7 0-1.1 0 .6-5.6 5.4-10.1 11.2-10.1m15.6 17.7c3.2 1.9 5.4 5.5 5.4 9.5 0 6.1-4.9 11-11 11-2 0-4.1-.6-5.8-1.7 1.8-2.8 2.8-6 2.8-9.4 0-.1 0-.4 0-.5 3.8-1.7 7-5 8.6-8.9m-31.2 0c1.7 4 4.8 7.2 8.6 9v.5c0 3.5 1 6.7 2.8 9.4-1.7 1.1-3.7 1.7-5.8 1.7-6.1 0-11-4.9-11-11 0-4.1 2.2-7.7 5.4-9.6m15.6-20.7c-7.7 0-14 6.2-14 14 0 .8.1 1.7.2 2.5-5.9 1.8-10.2 7.2-10.2 13.6 0 7.7 6.2 14 14 14 4 0 7.4-1.6 10-4.2 2.5 2.6 6.1 4.2 10 4.2 7.7 0 14-6.2 14-14 0-6.5-4.3-11.9-10.2-13.6.1-.8.2-1.7.2-2.5 0-7.6-6.2-14-14-14zm0 20.3c2.5-2.6 6.1-4.2 10-4.2.6 0 1.2 0 1.8.1s1.1.1 1.6.4v.1c.1 0 .2.1.4.1-.1.6-.2 1.2-.5 1.8-1.4 4.3-5 7.8-9.5 9 .1.8.2 1.7.2 2.5 0 3.1-1 6-2.6 8.3-.4.5-.7 1-1.1 1.3-.1-.1-.1-.1-.2-.2-.1.1-.1.1-.2.2-.4-.5-.7-.8-1.1-1.3-1.8-2.3-2.8-5.1-2.8-8.3 0-.8.1-1.7.2-2.5-4.4-1.2-8-4.7-9.5-9-.2-.6-.4-1.2-.5-1.8.1 0 .2-.1.4-.1v-.1c.5-.1 1.1-.2 1.6-.4.6-.1 1.2-.1 1.8-.1 4 0 7.5 1.6 10 4.2z"/><path d="m25.8 29.9c-.6.1-1.2.1-1.8.1s-1.2 0-1.8-.1c-.1.7-.2 1.4-.2 2.1 0 2.4.7 4.7 2 6.6 1.3-1.9 2-4.2 2-6.6 0-.7-.1-1.4-.2-2.1z"/><path d="m35.3 20c-.5 0-.8-.1-1.3-.1-3.4 0-6.5 1.4-8.6 3.7.8 1.2 1.6 2.4 1.9 3.8 3.7-.9 6.7-3.8 8-7.4z"/><path d="m25.3 28c-.4-1-.7-1.8-1.3-2.5-.5.8-1 1.7-1.3 2.5.5 0 .8.1 1.3.1.5-.1.8-.1 1.3-.1z"/><path d="m14 20c-.5 0-.8 0-1.3.1 1.3 3.6 4.3 6.4 8 7.4.5-1.3 1.1-2.6 1.9-3.8-2.1-2.2-5.2-3.7-8.6-3.7z"/></svg>