<svg enable-background="new 0 0 48 48" viewBox="0 0 48 48" xmlns="http://www.w3.org/2000/svg"><path d="m43.7 6.2-4.9-4.9c-.8-.8-2-1.3-3.2-1.3h-16.1c-2.5 0-4.5 2-4.5 4.5v4.5h-7.5c-2.5 0-4.5 2-4.5 4.5v30c0 2.5 2 4.5 4.5 4.5h21c2.5 0 4.5-2 4.5-4.5v-4.5h7.5c2.5 0 4.5-2 4.5-4.5v-25.1c0-1.2-.5-2.4-1.3-3.2zm-15.8 37.3h-19.8c-.3 0-.6-.3-.6-.6v-28.8c0-.3.3-.6.6-.6h6.9v21c0 2.5 2 4.5 4.5 4.5h9v3.9c0 .3-.3.6-.6.6zm12-9h-19.8c-.3 0-.6-.3-.6-.6v-28.8c0-.3.3-.6.6-.6h9.9v8.3c0 1.2 1 2.3 2.3 2.3h8.3v18.9c-.1.2-.4.5-.7.5zm.6-24h-6v-6h.9c.1 0 .3.1.4.2l4.5 4.5c.1.1.2.2.2.4z"/></svg>