<svg enable-background="new 0 0 48 48" viewBox="0 0 48 48" xmlns="http://www.w3.org/2000/svg"><g fill="none"><path d="m0 0h48v48h-48z"/><circle cx="12" cy="36" r="4"/><circle cx="24" cy="24" r="1"/><circle cx="12" cy="12" r="4"/></g><path d="m18.4 13.6c.6-1.2.8-2.5.8-4 0-5.3-4.3-9.6-9.6-9.6s-9.6 4.3-9.6 9.6 4.3 9.6 9.6 9.6c1.4 0 2.8-.4 4-.8l5.6 5.6-5.6 5.6c-1.2-.6-2.5-.8-4-.8-5.3 0-9.6 4.3-9.6 9.6s4.3 9.6 9.6 9.6 9.6-4.3 9.6-9.6c0-1.4-.4-2.8-.8-4l5.6-5.6 16.8 16.8h7.2v-2.4zm-8.8.8c-2.6 0-4.8-2.2-4.8-4.8s2.2-4.8 4.8-4.8 4.8 2.2 4.8 4.8-2.2 4.8-4.8 4.8zm0 28.8c-2.6 0-4.8-2.2-4.8-4.8s2.2-4.8 4.8-4.8 4.8 2.2 4.8 4.8-2.2 4.8-4.8 4.8zm14.4-18c-.6 0-1.2-.6-1.2-1.2s.6-1.2 1.2-1.2 1.2.6 1.2 1.2-.6 1.2-1.2 1.2zm16.8-22.8-14.4 14.4 4.8 4.8 16.8-16.8v-2.4z"/></svg>