<svg enable-background="new 0 0 48 48" viewBox="0 0 48 48" xmlns="http://www.w3.org/2000/svg"><path d="m33.5 9.6 7.5 7.5c.3.3.3.8 0 1.1l-18.1 18.3-7.7.9c-1 .1-1.9-.8-1.8-1.8l.9-7.7 18.1-18.3c.3-.3.8-.3 1.1 0zm13.5-1.9-4-4c-1.3-1.3-3.3-1.3-4.6 0l-2.9 3c-.3.3-.3.8 0 1.2l7.5 7.5c.3.3.8.3 1.2 0l3-2.9c1.1-1.4 1.1-3.5-.2-4.8zm-15 23.9v8.4h-26.7v-26.6h19.1c.3 0 .5-.1.7-.3l3.3-3.3c.8-.7.3-1.8-.6-1.8h-23.8c-2.2 0-4 1.8-4 4v29.3c0 2.2 1.8 4 4 4h29.3c2.2 0 4-1.8 4-4v-13.1c0-.9-1.1-1.3-1.7-.7l-3.3 3.3c-.2.2-.3.5-.3.8z"/></svg>