<svg enable-background="new 0 0 48 48" viewBox="0 0 48 48" xmlns="http://www.w3.org/2000/svg"><path d="m33.5 31.4 2.7-2.7c.4-.4 1.1-.1 1.1.5v12.1c0 2.2-1.8 4-4 4h-29.3c-2.2 0-4-1.8-4-4v-29.3c0-2.2 1.8-4 4-4h22.8c.6 0 .9.7.5 1.1l-2.7 2.7c-.1.1-.3.2-.5.2h-20.1v29.3h29.3v-9.5c0-.1.1-.3.2-.4zm13.1-16.8-21.9 21.8-7.5.8c-2.2.2-4-1.6-3.8-3.8l.8-7.5 21.9-21.8c1.9-1.9 5-1.9 6.9 0l3.6 3.6c1.9 1.9 1.9 5 0 6.9zm-8.3 2.5-4.8-4.8-15.5 15.5-.6 5.4 5.4-.6zm5.4-6.6-3.6-3.6c-.3-.3-.9-.3-1.2 0l-2.6 2.6 4.8 4.8 2.6-2.6c.4-.3.4-.9 0-1.2z"/></svg>