<svg enable-background="new 0 0 48 48" viewBox="0 0 48 48" xmlns="http://www.w3.org/2000/svg"><path d="m24 7.2c-9.3 0-16.8 7.5-16.8 16.8s7.5 16.8 16.8 16.8 16.8-7.5 16.8-16.8-7.5-16.8-16.8-16.8zm0 30c-7.3 0-13.2-5.9-13.2-13.2s5.9-13.2 13.2-13.2 13.2 5.9 13.2 13.2-5.9 13.2-13.2 13.2zm0-8.4c-1.3 0-2.4 1.1-2.4 2.4s1.1 2.4 2.4 2.4 2.4-1.1 2.4-2.4-1.1-2.4-2.4-2.4zm1.7-14.4h-3.3c-.7 0-1.3.6-1.2 1.3l1 9.6c.1.6.6 1.1 1.2 1.1h1.4c.6 0 1.1-.5 1.2-1.1l1-9.6c-.1-.7-.6-1.3-1.3-1.3zm-22.1 9.6c0-4.5 1.5-8.8 4.2-12.3.4-.5.3-1.2-.2-1.6l-.9-.9c-.5-.4-1.3-.3-1.8.2-3.2 4.2-4.9 9.3-4.9 14.6s1.7 10.4 4.9 14.6c.4.5 1.2.6 1.7.2l1-.8c.5-.4.5-1.1.2-1.6-2.7-3.6-4.2-7.9-4.2-12.4zm39.4-14.7c-.4-.5-1.2-.6-1.7-.1l-.9.8c-.5.4-.5 1.1-.1 1.6 2.7 3.6 4.2 7.9 4.2 12.4s-1.5 8.9-4.2 12.4c-.4.5-.3 1.2.1 1.6l.9.8c.5.4 1.3.4 1.7-.2 3.3-4.2 5-9.4 5-14.7 0-5.2-1.8-10.4-5-14.6z"/></svg>