<svg enable-background="new 0 0 48 48" viewBox="0 0 48 48" xmlns="http://www.w3.org/2000/svg"><path d="m45.4 2.6c-3.5-3.5-9.2-3.5-12.7 0l-7.2 7.2-1.2-1.2c-.9-.9-2.3-.9-3.2 0l-6 6c-.9.9-.9 2.3 0 3.2l1.6 1.6-11.9 11.8c-1.2 1.2-1.8 2.7-1.8 4.3v4.3l-3 5.2 3 3 5.2-3h4.3c1.6 0 3.1-.6 4.2-1.8l11.9-11.9 1.6 1.6c.9.9 2.3.9 3.2 0l6-6c.9-.9.9-2.3 0-3.2l-1.2-1.2 7.2-7.2c3.5-3.5 3.5-9.2 0-12.7zm-31.8 37.5c-.3.3-.7.4-1.1.4h-5v-5c0-.4.2-.8.4-1.1l11.9-11.9 5.6 5.6zm28.6-27.9-7.2 7.2-3.2 3.2 2.8 2.8-2.8 2.8-12-12 2.8-2.8 2.8 2.8 10.4-10.4c.8-.8 2-1.3 3.2-1.3s2.3.5 3.2 1.3c.9.8 1.3 2 1.3 3.2s-.5 2.3-1.3 3.2z"/></svg>