<svg enable-background="new 0 0 48 48" viewBox="0 0 48 48" xmlns="http://www.w3.org/2000/svg"><path d="m47.1 20.4-19.5-19.5c-.5-.6-1.3-.9-2.1-.9s-1.5.3-2.1.9l-8.2 8.2-8.6-8.7c-.6-.5-1.5-.5-2.1 0l-1.1 1.1c-.6.6-.6 1.5 0 2.1l8.6 8.6-9.4 9.4c-3.5 3.5-3.5 9.2 0 12.7l11 11c1.8 1.8 4.1 2.6 6.4 2.6s4.6-.9 6.4-2.6l20.8-20.8c1.1-1.1 1.1-3-.1-4.1zm-23.9 21.8c-.8.8-2 1.3-3.2 1.3s-2.3-.5-3.2-1.3l-10.7-10.7h27.7zm15.1-15.2h-33.7c.2-.8.6-1.6 1.2-2.2l9.4-9.4 6.6 6.6c.9.9 2.3.9 3.2 0s.9-2.3 0-3.2l-6.6-6.6 7.1-7.1 17.3 17.3z"/></svg>