<svg enable-background="new 0 0 48 48" viewBox="0 0 48 48" xmlns="http://www.w3.org/2000/svg"><path d="m4.7 10.4c1.8-1.9 3.7-3.6 4.6-3.2 1.3.6 0 2.8-.8 4.1-.8 1.1-7.7 10.3-7.7 16.7 0 3.4 1.2 6.2 3.6 7.9 2 1.4 4.6 1.9 7 1.2 2.9-.8 5.2-3.7 8-7.3 3.2-4 7.4-9.1 10.8-9.1 4.3 0 4.3 2.6 4.7 4.8-10 1.7-14.3 9.7-14.3 14.2 0 4.6 3.8 8.2 8.5 8.2 4.3 0 11.4-3.5 12.4-16.1h6.5v-6.6h-6.5c-.4-4.3-2.9-11-10.7-11-6 0-11 5-13.1 7.6-1.6 1.9-5.4 6.6-6 7.2-.7.5-1.7 2-2.9 2s-1.9-2.2-1-5c1-2.9 3.7-7.6 4.9-9.2 2-3 3.5-5 3.5-8.6 0-5.8-4.3-7.7-6.6-7.7-3.6-.3-6.6 2.4-7.3 3.1-1 .8-1.7 1.7-2.3 2.4zm24.5 30.9c-.8 0-1.9-.7-1.9-1.9 0-1.6 1.9-5.8 7.6-7.3-.8 7.1-3.8 9.2-5.7 9.2z"/><path d="m0 0h48v48h-48z" fill="none"/></svg>