<svg enable-background="new 0 0 48 48" viewBox="0 0 48 48" xmlns="http://www.w3.org/2000/svg"><path d="m11.7 33.5v2.1c0 .7-.6 1.3-1.3 1.3h-9.1c-.7 0-1.3-.6-1.3-1.3v-2.1c0-.7.6-1.3 1.3-1.3h1.6v-16.4h-1.6c-.7 0-1.3-.6-1.3-1.3v-2.1c0-.7.6-1.3 1.3-1.3h9.2c.7 0 1.3.6 1.3 1.3v2.1c0 .7-.6 1.3-1.3 1.3h-1.7v5.8h9.9v-5.8h-1.7c-.7 0-1.3-.6-1.3-1.3v-2.1c0-.7.6-1.3 1.3-1.3h9.2c.7 0 1.3.6 1.3 1.3v2.1c0 .7-.6 1.3-1.3 1.3h-1.6v16.5h1.6c.7 0 1.3.6 1.3 1.3v2.1c0 .7-.6 1.3-1.3 1.3h-9.2c-.7 0-1.3-.6-1.3-1.3v-2.1c0-.7.6-1.3 1.3-1.3h1.7v-5.7h-9.9v5.7h1.7c.7 0 1.2.5 1.2 1.2zm29.7-22.4h-3c-.3 0-.7.1-.9.4l-5.5 5.2c-.5.5-.5 1.3 0 1.8l1.7 1.8c.5.5 1.3.5 1.8 0l1.5-1.3v12.8h-4c-.7 0-1.3.6-1.3 1.3v2.5c0 .7.6 1.3 1.3 1.3h13.7c.7 0 1.3-.6 1.3-1.3v-2.5c0-.7-.6-1.3-1.3-1.3h-4v-19.4c0-.8-.6-1.3-1.3-1.3z"/></svg>