<svg enable-background="new 0 0 48 48" viewBox="0 0 48 48" xmlns="http://www.w3.org/2000/svg"><path d="m36.7 31.9h10c.7 0 1.3.6 1.3 1.3v2.5c0 .7-.6 1.3-1.3 1.3h-14.9c-.6 0-1.2-.5-1.3-1.1-.1-.7-.1-1.2-.1-1.7 0-9.1 11.4-10.8 11.4-15 0-1.9-1.5-2.8-3.1-2.8-1.5 0-2.6.9-3.5 2.1-.4.6-1.2.7-1.8.3l-2.3-1.5c-.6-.4-.7-1.2-.4-1.7 1.8-2.9 4.8-4.6 8.3-4.6 4.7 0 8.6 3 8.6 7.8 0 7.7-9.7 9.6-10.9 13.1zm-25.1 1.8v2.1c0 .7-.6 1.3-1.3 1.3h-9c-.7-.1-1.3-.7-1.3-1.4v-2.1c0-.7.6-1.3 1.3-1.3h1.6v-16.2h-1.6c-.7 0-1.3-.6-1.3-1.3v-2.1c0-.7.6-1.3 1.3-1.3h9.1c.7 0 1.3.6 1.3 1.3v2.1c0 .7-.6 1.3-1.3 1.3h-1.7v5.8h9.8v-5.8h-1.7c-.7 0-1.3-.6-1.3-1.3v-2.1c0-.7.6-1.3 1.3-1.3h9.1c.7 0 1.3.6 1.3 1.3v2.1c0 .7-.6 1.3-1.3 1.3h-1.6v16.3h1.6c.7 0 1.3.6 1.3 1.3v2.1c0 .7-.6 1.3-1.3 1.3h-9.1c-.7 0-1.3-.6-1.3-1.3v-2.1c0-.7.6-1.3 1.3-1.3h1.7v-5.7h-9.8v5.7h1.7c.7 0 1.2.6 1.2 1.3z"/></svg>