<svg enable-background="new 0 0 48 48" viewBox="0 0 48 48" xmlns="http://www.w3.org/2000/svg"><path d="m43.3 31.1c0-2.3-2.3-3.1-4.6-3.1h-1.3c-.5 0-1-.3-1.2-.8l-.7-1.5c-.2-.4-.1-1 .2-1.3l4.2-5c.2-.3.5-.5.7-.8-.2 0-.4 0-.6 0h-6.6c-.7 0-1.3-.6-1.3-1.3v-2.5c0-.7.6-1.3 1.3-1.3h13.6c.7 0 1.3.6 1.3 1.3v1.9c0 .3-.1.6-.3.8l-5.1 5.9c3.5.9 6.1 3.7 6.1 7.5 0 4.7-3.6 8.7-9.2 8.7-3 0-5.9-1-8.1-3.1-.5-.4-.6-1.1-.2-1.7l1.6-2.3c.4-.6 1.3-.8 1.9-.3 1.3 1.1 2.8 1.9 4.6 1.9 2.1 0 3.7-1.2 3.7-3zm-30.6 4.7v2.1c0 .7-.6 1.3-1.3 1.3h-9.1c-.7 0-1.3-.6-1.3-1.3v-2.1c0-.7.6-1.3 1.3-1.3h1.7v-16.3h-1.7c-.7 0-1.3-.6-1.3-1.3v-2.1c0-.7.6-1.3 1.3-1.3h9.1c.7 0 1.3.6 1.3 1.3v2.1c0 .7-.6 1.3-1.3 1.3h-1.6v5.8h9.8v-5.8h-1.7c-.7 0-1.3-.6-1.3-1.3v-2.1c0-.7.6-1.3 1.3-1.3h9.1c.7 0 1.3.6 1.3 1.3v2.1c0 .7-.6 1.3-1.3 1.3h-1.6v16.4h1.6c.7 0 1.3.6 1.3 1.3v2.1c0 .7-.6 1.3-1.3 1.3h-9.1c-.7 0-1.3-.6-1.3-1.3v-2.1c0-.7.6-1.3 1.3-1.3h1.7v-5.7h-9.8v5.7h1.7c.6 0 1.2.5 1.2 1.2z"/></svg>