<svg enable-background="new 0 0 48 48" viewBox="0 0 48 48" xmlns="http://www.w3.org/2000/svg"><path d="m42.7 3c.6 0 1.2.2 1.6.7.2.2.6.7.6 1.4v.1.1 37.4c0 1.3-1 2.3-2.3 2.3h-37.3c-1.2.1-2.3-1-2.3-2.3v-37.4c0-1.2 1.1-2.3 2.3-2.3zm-24.1 37.3h3 4.8 3v-3-24.2-3h-3-4.8-3v3 24.2zm-13.1 0h3 4.8 3v-3-16.9-3h-3-4.8-3v3 16.9zm26.2-.1h3 4.8 3v-3-9.6-3h-3-4.8-3v3 9.6zm11-40.2h-37.4c-2.9 0-5.3 2.4-5.3 5.3v37.3c0 3 2.4 5.4 5.3 5.4h37.3c3 0 5.3-2.4 5.3-5.3v-37.4c.1-2.9-2.3-5.3-5.2-5.3zm-21.1 37.3v-24.2h4.8v24.2zm-13.1 0v-16.9h4.8v16.9zm26.2-.1v-9.6h4.8v9.6z"/></svg>