<svg enable-background="new 0 0 48 48" viewBox="0 0 48 48" xmlns="http://www.w3.org/2000/svg"><path d="m28.5 13.5h6v6c0 .8.7 1.5 1.5 1.5h3c.8 0 1.5-.7 1.5-1.5v-6h6c.8 0 1.5-.7 1.5-1.5v-3c0-.8-.7-1.5-1.5-1.5h-6v-6c0-.8-.7-1.5-1.5-1.5h-3c-.8 0-1.5.7-1.5 1.5v6h-6c-.8 0-1.5.7-1.5 1.5v3c0 .8.7 1.5 1.5 1.5zm18.3 20.6-5.5-2.5-15.1 6.8c-.7.4-1.4.6-2.2.6s-1.5-.2-2.2-.5l-15.1-6.9-5.5 2.5c-1.6.7-1.6 3 0 3.7l21.8 10c.6.3 1.4.3 2 0l21.8-9.9c1.6-.7 1.6-3.1 0-3.8zm-45.6-8.2 21.8 9.9c.6.3 1.4.3 2 0l17-7.7v-1.7c-1.4.4-2.9.7-4.5.7-8.3 0-15.1-6.1-16.3-14l-20 9c-1.6.7-1.6 3.1 0 3.8z"/></svg>