<svg enable-background="new 0 0 48 48" viewBox="0 0 48 48" xmlns="http://www.w3.org/2000/svg"><path d="m46.5 1.5h-18c-.8 0-1.5.7-1.5 1.5v1.5c0 .8.7 1.5 1.5 1.5h18c.8 0 1.5-.7 1.5-1.5v-1.5c0-.8-.7-1.5-1.5-1.5zm1.5 21c0-1.2-.7-2.3-1.8-2.8l-20.5-8.9c-1.1-.5-2.4-.5-3.5 0l-20.4 8.9c-1.1.5-1.8 1.6-1.8 2.8s.7 2.3 1.8 2.8l7.5 3.2-7.5 3.2c-1.1.5-1.8 1.6-1.8 2.8s.7 2.3 1.8 2.8l20.5 8.9c.5.2 1.1.4 1.7.4s1.2-.1 1.7-.4l20.5-8.9c1.1-.5 1.8-1.6 1.8-2.8s-.7-2.3-1.8-2.8l-7.5-3.2 7.5-3.2c1.1-.5 1.8-1.6 1.8-2.8zm-6.7 12-17.3 7.5-17.3-7.5 8.2-3.5 7.3 3.2c.5.2 1.1.4 1.7.4s1.2-.1 1.7-.4l7.3-3.2zm-17.3-4.5-17.3-7.5 17.3-7.5 17.3 7.5z"/></svg>