<svg enable-background="new 0 0 48 48" viewBox="0 0 48 48" xmlns="http://www.w3.org/2000/svg"><path d="m1.2 13.9 21.8 9.9c.6.3 1.4.3 2 0l21.8-9.9c1.6-.7 1.6-3 0-3.8l-21.8-9.9c-.6-.3-1.4-.3-2 0l-21.8 9.9c-1.6.7-1.6 3.1 0 3.8zm45.6 8.2-5.4-2.5-15.2 6.9c-.7.4-1.4.5-2.2.5s-1.5-.2-2.2-.5l-15.2-6.8-5.4 2.5c-1.6.7-1.6 3 0 3.7l21.8 9.9c.6.3 1.4.3 2 0l21.8-9.9c1.6-.7 1.6-3 0-3.8zm0 12-5.4-2.5-15.2 6.9c-.7.4-1.4.5-2.2.5s-1.5-.2-2.2-.5l-15.2-6.8-5.4 2.5c-1.6.7-1.6 3 0 3.7l21.8 9.9c.6.3 1.4.3 2 0l21.8-9.9c1.6-.7 1.6-3.1 0-3.8z"/></svg>