<svg enable-background="new 0 0 48 48" viewBox="0 0 48 48" xmlns="http://www.w3.org/2000/svg"><path d="m46.2 33.2-7.5-3.2 7.5-3.2c1.1-.5 1.7-1.8 1.2-3-.5-1.1-1.8-1.7-3-1.2l-20.4 8.9-17.3-7.5 16-6.9c1.1-.5 1.7-1.8 1.2-3-.5-1.1-1.8-1.7-3-1.2l-19.1 8.3c-1.1.5-1.8 1.6-1.8 2.8s.7 2.3 1.8 2.8l7.5 3.2-7.5 3.2c-1.1.5-1.8 1.6-1.8 2.8s.7 2.3 1.8 2.8l20.5 8.9c.5.2 1.1.4 1.7.4s1.2-.1 1.7-.4l20.5-8.9c1.1-.5 1.8-1.6 1.8-2.8s-.7-2.3-1.8-2.8zm-22.2 10.3-17.3-7.5 8.2-3.5 7.3 3.2c.6.2 1.1.4 1.7.4s1.2-.1 1.7-.4l7.3-3.2 8.2 3.6zm22.5-35.2h-6.7v-6.8c0-.8-.7-1.5-1.5-1.5h-1.5c-.8 0-1.5.7-1.5 1.5v6.7h-6.7c-.8 0-1.5.7-1.5 1.5v1.5c0 .8.7 1.5 1.5 1.5h6.7v6.7c0 .8.7 1.5 1.5 1.5h1.5c.8 0 1.5-.7 1.5-1.5v-6.7h6.7c.8 0 1.5-.7 1.5-1.5v-1.4c0-.9-.7-1.5-1.5-1.5z"/></svg>