<svg enable-background="new 0 0 48 48" viewBox="0 0 48 48" xmlns="http://www.w3.org/2000/svg"><path d="m42 23c1.7 0 3 1.3 3 3s-1.3 3-3 3c-1.2 0-2.3-.7-2.8-1.8l-.4-1.2.5-1.2c.4-1.1 1.5-1.8 2.7-1.8m-18 0c1.2 0 2.3.7 2.8 1.8l.5 1.2-.5 1.2c-.5 1.2-1.6 1.8-2.8 1.8s-2.3-.7-2.8-1.8l-.4-1.2.5-1.2c.4-1.1 1.5-1.8 2.7-1.8m-18 0c1.2 0 2.3.7 2.8 1.8l.4 1.2-.5 1.2c-.4 1.2-1.5 1.8-2.7 1.8-1.7 0-3-1.3-3-3s1.3-3 3-3m36-3c-2.4 0-4.6 1.4-5.5 3.6h-7c-1-2.2-3-3.6-5.5-3.6s-4.6 1.4-5.5 3.6h-7c-1-2.2-3-3.6-5.5-3.6-3.4 0-6 2.6-6 6s2.6 6 6 6c2.5 0 4.6-1.4 5.5-3.6h7c1 2.2 3 3.6 5.5 3.6s4.6-1.4 5.5-3.6h7c1 2.2 3 3.6 5.5 3.6 3.4 0 6-2.6 6-6s-2.6-6-6-6z"/></svg>