<svg enable-background="new 0 0 48 48" viewBox="0 0 48 48" xmlns="http://www.w3.org/2000/svg"><path d="m0 37.7h29.2v3.5h-29.2z"/><path d="m39.5 37.7h8.5v3.5h-8.5z"/><path d="m37.7 44.5c0 1.9-1.6 3.5-3.5 3.5-1.9 0-3.5-1.6-3.5-3.5v-10.2c0-1.9 1.6-3.5 3.5-3.5 1.9 0 3.5 1.6 3.5 3.5z"/><path d="m0 22.3h8.5v3.5h-8.5z"/><path d="m18.8 22.3h29.2v3.5h-29.2z"/><path d="m17.2 29c0 1.9-1.6 3.5-3.5 3.5-1.9 0-3.5-1.6-3.5-3.5v-10.2c0-1.9 1.6-3.5 3.5-3.5 1.9 0 3.5 1.6 3.5 3.5z"/><path d="m0 6.8h29.2v3.5h-29.2z"/><path d="m39.5 6.8h8.5v3.5h-8.5z"/><path d="m37.7 13.7c0 1.9-1.6 3.5-3.5 3.5-1.9 0-3.5-1.6-3.5-3.5v-10.2c.1-1.9 1.7-3.5 3.6-3.5 1.9 0 3.5 1.6 3.5 3.5v10.2z"/></svg>