<svg enable-background="new 0 0 48 48" viewBox="0 0 48 48" xmlns="http://www.w3.org/2000/svg"><path d="m42.7 0c-1.5 0-2.9.7-3.9 1.6-20.5 18.3-22.9 18.7-21.9 24.8-3.9.5-7.4 2.3-9.4 7.6-.3.7-.9 1.1-1.6 1.1-1.2 0-4.9-3-5.9-3.7 0 8.9 4.1 16.6 13.7 16.6 11 0 14.3-8.2 13.6-13.7 5.3-.7 9.1-5.9 19.4-25 .7-1.4 1.3-2.9 1.3-4.5 0-2.8-2.5-4.8-5.3-4.8zm-21.9 40.6c-1.5 1.7-3.9 2.6-7.1 2.6-3.4 0-5.5-1.4-6.8-3.3 2.3-.3 4.2-1.9 5.1-4.1 1.3-3.4 3.1-4.3 5.5-4.6l1.5-.2 3.4 2.7.2 1.3c.1 1.4-.2 3.8-1.8 5.6zm5.9-11-1.6.2-3.3-2.6-.2-1.5c-.6-3.8 20-21.5 21.2-20.6 1.1 1-11.4 23.9-16.1 24.5z"/></svg>