<svg enable-background="new 0 0 48 48" viewBox="0 0 48 48" xmlns="http://www.w3.org/2000/svg"><path d="m46.3 9-7.3-7.3c-1.1-1.1-2.6-1.7-4.1-1.7s-3 .6-4.1 1.7l-8.7 8.7-9.3 2.6c-1.9.5-3.4 2-4.1 3.9l-8.7 26.2 4.9 4.9 26.2-8.7c1.9-.6 3.3-2.1 3.9-4.1l2.6-9.4 8.7-8.7c2.3-2.2 2.3-5.9 0-8.1zm-15.6 25c-.1.5-.5.9-1 1l-21.8 7.3 9.7-9.7c.6.3 1.2.4 1.9.4 2.5 0 4.5-2 4.5-4.5s-2-4.5-4.5-4.5-4.5 2-4.5 4.5c0 .7.2 1.3.4 1.9l-9.7 9.7 7.3-21.8c.2-.5.5-.8 1-1l9.4-2.6h.1l9.8 9.8v.1zm12.4-20-7 7-9.1-9.1 7-7c.2-.2 1.1-.7 1.8 0l7.3 7.3c.5.5.5 1.3 0 1.8z"/></svg>