<svg enable-background="new 0 0 48 48" viewBox="0 0 48 48" xmlns="http://www.w3.org/2000/svg"><path d="m46.2 5.3-3.5-3.5c-1.1-1.2-2.7-1.8-4.2-1.8s-3.1.6-4.2 1.8l-6.4 6.4-3.7-3.7c-1.5-1.5-3.8-1.5-5.3 0l-11.2 11c-.6.6-.6 1.5 0 2.1l1.1 1.1c.6.6 1.5.6 2.1 0l10.6-10.6 3.2 3.2-.7.7-15.2 15.2c-4.9 4.9-8 11.4-8.8 18.3-.1 1.3.9 2.5 2.2 2.5h.3c6.9-.8 13.4-3.9 18.3-8.8l15.2-15.2 3.3-3.3 7-7c2.3-2.3 2.3-6.1-.1-8.4zm-28.6 30.7c-3.5 3.5-7.9 5.9-12.6 7 1.1-4.8 3.5-9.2 7-12.6l15.2-15.2.7-.7 5.6 5.6-.7.7zm25.5-25.4-6.4 6.4-4.6-4.6-1.1-1.1 6.4-6.4c.4-.4.8-.4 1.1-.4s.7.1 1.1.4l3.5 3.5c.4.4.4.8.4 1.1 0 .2-.1.7-.4 1.1z"/></svg>