<svg enable-background="new 0 0 48 48" viewBox="0 0 48 48" xmlns="http://www.w3.org/2000/svg"><path d="m47.1 34.5-11.5-11.5 5.3-5.3 5.4-5.4c2.3-2.3 2.3-6.1 0-8.5l-2.1-2.1c-1.3-1.1-2.8-1.7-4.3-1.7s-3.1.6-4.2 1.8l-5.4 5.4-5.3 5.2-3.4-3.4-8.1-8.1c-.6-.6-1.4-.9-2.1-.9s-1.5.3-2.1.9l-8.4 8.4c-1.2 1.2-1.2 3 0 4.2l9.4 9.4 2.1 2.1-10.6 10.6-1.8 10.1c-.2 1.2.8 2.3 2 2.3h.4l10.1-1.8 10.5-10.6 11.5 11.5c.6.6 1.3.9 2.1.9s1.5-.3 2.1-.9l8.4-8.4c1.2-1.1 1.2-3 0-4.2zm-8.3-29.6c.4-.4.8-.4 1.1-.4s.7.1 1.1.4l2.1 2.1c.4.4.4.8.4 1.1 0 .2-.1.7-.4 1.1l-4.9 4.8-4.2-4.2zm-25.4 14.8-8.3-8.3 6.3-6.3 3.6 3.7-2 2c-.6.6-.6 1.5 0 2.1l1 1.1c.6.6 1.5.6 2.1 0l2.1-2.1.2.2 3.4 3.4-6.3 6.3zm-3.2 22.3-5.2.9 1-5.1 24.8-24.8 4.2 4.2zm26.4.9-10.4-10.5 6.3-6.3 3.6 3.6-2.1 2.1c-.6.6-.6 1.5 0 2.1l1 1.1c.6.6 1.5.6 2.1 0l2.1-2.1 3.7 3.7z"/></svg>