<svg enable-background="new 0 0 48 48" viewBox="0 0 48 48" xmlns="http://www.w3.org/2000/svg"><path d="m40.6 34.3c-1.9-5.1-5.2-6.9-8.8-7.5l14.4-14.4c2.3-2.3 2.3-6.1 0-8.5l-2.1-2.1c-1.2-1.2-2.7-1.8-4.2-1.8s-3.1.6-4.2 1.8l-13.2 13.1-7.7-11.5c-1.6-2.4-3.8-3.4-6-3.4-6.1 0-12.1 7.5-6.7 13.5l10.4 11.4-10.7 10.7-1.8 10.1c-.2 1.2.8 2.3 2 2.3h.4l10.1-1.8 8.8-8.8c.5 4.2 3.1 10.6 13.2 10.6 9.5 0 13.5-7.6 13.5-16.3-1 .7-4.7 3.6-5.8 3.6-.7 0-1.3-.4-1.6-1zm-1.8-29.4c.5-.5 1.5-.6 2.1 0l2.1 2.1c.5.5.6 1.5 0 2.1l-4.8 4.9-4.2-4.2zm-33.3 5.6c-1-1.1-1.2-2.1-.7-3.2.7-1.5 2.5-2.8 4-2.8.6 0 1.5.2 2.3 1.4l8.2 12.2-3.6 3.6zm4.7 31.5-5.2.9 1-5.1 24.8-24.8 4.2 4.2zm24.3 1.5c-3.2 0-5.6-.8-7-2.4-1.9-2.1-2-5.2-1.9-6.3l.2-2 1.9-1.9 2.4.2c2.9.2 4.9 1 6.3 4.7.8 2.2 2.9 3.7 5.2 3.9-1.3 2.2-3.5 3.8-7.1 3.8z"/></svg>