<svg enable-background="new 0 0 48 48" viewBox="0 0 48 48" xmlns="http://www.w3.org/2000/svg"><path d="m10.3 22.9 12.6-12.6-4.1-4.1-5.8 5.7c-.3.3-.8.3-1 0l-1.1-1.1c-.3-.3-.3-.8 0-1.1l5.7-5.7-3.2-3.2c-1.2-1.2-3-1.2-4.2 0l-8.3 8.5c-1.2 1.2-1.2 3 0 4.2zm36.4-11c1.8-1.8 1.8-4.6 0-6.4l-4.2-4.2c-1.8-1.8-4.6-1.8-6.4 0l-4.3 4.3 10.6 10.6zm-17.1-4.2-27.8 27.9-1.8 10.1c-.2 1.3 1 2.5 2.3 2.3l10.1-1.8 27.8-27.8zm17.5 26.8-3.1-3.1-5.8 5.8c-.3.3-.8.3-1.1 0l-1.1-1.1c-.3-.3-.3-.8 0-1.1l5.8-5.8-4.1-4.1-12.6 12.6 9.4 9.4c1.2 1.2 3 1.2 4.2 0l8.4-8.4c1.2-1.1 1.2-3 0-4.2z"/></svg>