<svg enable-background="new 0 0 48 48" viewBox="0 0 48 48" xmlns="http://www.w3.org/2000/svg"><path d="m46.7 13.4-4.3 4.3c-.4.4-1.2.4-1.6 0l-10.4-10.4c-.4-.4-.4-1.2 0-1.6l4.3-4.3c1.8-1.8 4.6-1.8 6.4 0l5.6 5.6c1.8 1.8 1.8 4.6 0 6.4zm-20-4-24.7 24.6-2 11.4c-.2 1.6 1.1 2.9 2.7 2.6l11.3-2 24.6-24.6c.4-.4.4-1.2 0-1.6l-10.3-10.4c-.5-.4-1.2-.4-1.6 0zm-15.1 22.5c-.5-.5-.5-1.3 0-1.9l14.4-14.4c.5-.5 1.3-.5 1.9 0 .5.5.5 1.3 0 1.9l-14.4 14.4c-.5.5-1.3.5-1.9 0zm-3.3 7.9h4.5v3.4l-6 1.1-2.9-2.9 1.1-6h3.4v4.4z"/></svg>