<svg enable-background="new 0 0 48 48" viewBox="0 0 48 48" xmlns="http://www.w3.org/2000/svg"><path d="m32.3 6.6c5 .2 10.3 6.1 12.6 14.1 1.2 4.3 1.2 9-.1 12.8-1.1 3.8-3.4 6.5-6.5 7.3-.7.2-1.6.2-2.3.2-3.8 0-7.3-2.6-8.4-6.4-.6-2.3-.4-4.7.8-6.7s3-3.5 5.2-4.1c.8-.2 1.6-.4 2.4-.4 1.3 0 2.6.4 3.8.8l4.7 2.3-1.7-4.9c0-.1 0-.1 0-.2 0-.2-.1-.5-.2-.8-2.3-7.6-6.5-11.6-9.7-12.1zm-.3-2.1c-.5 0-1 0-1.4.1-.2 0-.5.2-.6.5s-.2.5-.1.7l1.2 4.6c.1.5.6.7 1 .7h.1c2.3 0 6.4 3.4 8.5 10.9.1.2.1.6.2 1-1.6-.7-3.1-1.1-4.8-1.1-1 0-2 .1-3 .4-5.8 1.6-9.1 7.7-7.6 13.4 1.3 4.7 5.6 7.9 10.4 7.9 1 0 1.9-.1 2.9-.4 3.8-1.1 6.7-4.2 8-8.9 1.4-4.3 1.4-9.5.1-14.1-2.5-9.1-8.8-15.7-14.9-15.7z"/><path d="m7 6.6c5 .1 10.4 6.1 12.5 14.1 1.2 4.2 1.2 9 .1 12.8s-3.4 6.5-6.5 7.3c-.7.2-1.6.2-2.3.2-3.8 0-7.3-2.6-8.4-6.4-1.2-4.7 1.4-9.5 6-10.7.8-.2 1.6-.4 2.4-.4 1.3 0 2.6.4 3.8.8l4.7 2.3-1.7-4.6c0-.1 0-.1 0-.2s-.1-.4-.1-.7c-2.3-8-6.6-11.9-10-12.4zm-.1-2.1c-.5 0-1 0-1.4.1-.3.1-.6.2-.8.5-.1.2-.1.4-.1.7l1.2 4.6c.2.5.6.7 1.1.7h.1c2.3 0 6.4 3.4 8.5 10.9.1.4.1.6.2 1-1.4-.7-3.1-1.1-4.8-1.1-1 0-2 .1-3 .4-5.8 1.6-9.1 7.6-7.6 13.3 1.3 4.7 5.6 7.9 10.4 7.9 1 0 1.9-.1 2.9-.4 3.8-1.1 6.7-4.2 8-8.9 1.2-4.2 1.2-9.4-.1-14-2.3-9.1-8.5-15.7-14.6-15.7z"/></svg>