<svg enable-background="new 0 0 48 48" viewBox="0 0 48 48" xmlns="http://www.w3.org/2000/svg"><path d="m15.4 22.1c-1.2-.4-2.4-.5-3.5-.5-1.8 0-3.2.4-4.4 1 1.1-4.1 3.7-11 9.1-11.9.5-.1.8-.5 1.1-1l1.2-4.2c.1-.4 0-.7-.1-1.1-.2-.4-.5-.5-.8-.6-.4 0-.8-.1-1.2-.1-6.7.3-13 6.9-15.6 16.5-1.6 5.5-2 13.9 1.8 19.2 2.2 3 5.3 4.6 9.4 4.7 5 0 9.4-3.4 10.8-8.2.8-2.9.5-5.9-1.1-8.5-1.5-2.5-3.9-4.5-6.7-5.3z"/><path d="m46.6 27.4c-1.4-2.5-3.8-4.4-6.7-5.3-1.2-.4-2.4-.5-3.5-.5-1.8 0-3.2.4-4.4 1 1.1-4.1 3.7-11 9.1-11.9.5-.1.8-.5 1.1-1l1.2-4.2c.1-.4 0-.7-.1-1.1-.3-.3-.6-.4-.9-.5-.4 0-.8-.1-1.2-.1-6.4 0-12.7 6.6-15.4 16.2-1.6 5.5-2 13.9 1.8 19.2 2.2 3 5.3 4.6 9.4 4.7 5 0 9.4-3.4 10.8-8.2.6-2.7.2-5.7-1.2-8.3z"/></svg>