<svg enable-background="new 0 0 48 48" viewBox="0 0 48 48" xmlns="http://www.w3.org/2000/svg"><path d="m47 20.2c-2.6-9.1-8.9-15.7-15-15.7-.5 0-1 0-1.4.1-.2 0-.5.2-.6.5-.1.2-.2.5-.1.7l1.2 4.6c.1.5.6.7 1 .7h.1c2.3 0 6.4 3.4 8.5 10.9.1.2.1.6.2 1-2.4-1.2-5.2-1.4-7.8-.7-5.8 1.6-9.1 7.7-7.6 13.4 1.3 4.7 5.6 7.9 10.4 7.9 1 0 1.9-.1 2.9-.4 3.8-1.1 6.7-4.2 8-8.9 1.5-4.3 1.5-9.5.2-14.1z"/><path d="m6.9 4.5c-.5 0-1 0-1.4.1-.3.1-.6.2-.8.5-.1.2-.1.4-.1.7l1.2 4.6c.2.5.6.7 1.1.7h.1c2.3 0 6.4 3.4 8.5 10.9.1.4.1.6.2 1-2.4-1.2-5.2-1.4-7.8-.7-5.8 1.6-9.1 7.6-7.6 13.3 1.3 4.7 5.6 7.9 10.4 7.9 1 0 1.9-.1 2.9-.4 3.8-1.1 6.7-4.2 8-8.9 1.2-4.2 1.2-9.4-.1-14-2.3-9.1-8.5-15.7-14.6-15.7z"/></svg>