<svg enable-background="new 0 0 48 48" viewBox="0 0 48 48" xmlns="http://www.w3.org/2000/svg"><path d="m16.4 5.9-.8 2.8c-6.2 1.3-9.1 8.8-10.3 13.3l-1.2 4.7 4.3-2.2c1-.5 2.2-.7 3.5-.7 1.1 0 2 .1 2.9.4 2.3.7 4.3 2.3 5.5 4.3 1.2 2.2 1.6 4.4.8 6.8-1.2 4-4.7 6.6-8.6 6.6-3.4-.1-5.9-1.3-7.7-3.8-3.1-4.3-3-11.9-1.4-17.4 2.2-8.3 7.6-14.4 13-14.8m.3-2.2c-6.6.3-12.9 6.9-15.5 16.5-1.6 5.5-2 13.9 1.8 19.2 2.2 3 5.3 4.6 9.4 4.7 5 0 9.4-3.4 10.8-8.2.8-2.9.5-5.9-1.1-8.5-1.4-2.5-3.8-4.4-6.7-5.3-1.2-.4-2.4-.5-3.5-.5-1.8 0-3.2.4-4.4 1 1.1-4.1 3.7-11 9.1-11.9.5-.1.8-.5 1.1-1l1.2-4.2c.1-.4 0-.7-.1-1.1-.2-.4-.5-.5-.8-.6-.5.1-1-.1-1.3-.1z"/><path d="m40.9 5.9-.8 2.8c-6.3 1.3-9.1 8.8-10.3 13.3l-1.2 4.7 4.3-2.2c1-.5 2.2-.7 3.5-.7 1.1 0 2 .1 2.9.4 2.3.7 4.3 2.3 5.4 4.2 1.1 2 1.4 4.4 1 6.7-1.2 4-4.7 6.5-8.6 6.6-3.4-.1-5.9-1.3-7.7-3.8-3.1-4.3-3-11.9-1.4-17.4 2.2-8.4 7.6-14.5 12.9-14.6m.3-2.2c-6.4 0-12.7 6.6-15.4 16.2-1.6 5.5-2 13.9 1.8 19.2 2.2 3 5.3 4.6 9.4 4.7 5 0 9.4-3.4 10.8-8.2.6-2.6.2-5.6-1.2-8.3-1.4-2.5-3.8-4.4-6.7-5.3-1.2-.4-2.4-.5-3.5-.5-1.8 0-3.2.4-4.4 1 1.1-4.1 3.7-11 9.1-11.9.5-.1.8-.5 1.1-1l1.2-4.2c.1-.4 0-.7-.1-1.1-.3-.2-.6-.3-.9-.4-.4 0-.9-.2-1.2-.2z"/></svg>