<svg enable-background="new 0 0 48 48" viewBox="0 0 48 48" xmlns="http://www.w3.org/2000/svg"><path d="m11.3 19.3c-.7-1.3-1.1-2.8-1.1-4.4 0-1.7.4-3.1 1.1-4.4.7-1.4 1.7-2.6 3-3.5 1.3-1 2.8-1.7 4.6-2.2 1.7-.5 3.7-.8 5.7-.8 2.2 0 4.1.2 5.9.8s3.2 1.4 4.6 2.5c1.2 1.1 2.2 2.3 2.9 3.8.7 1.4 1 3.1 1 4.8h-8c0-.8-.1-1.6-.4-2.3-.2-.7-.6-1.3-1.2-1.8-.5-.5-1.2-.8-2-1.2-.8-.2-1.8-.4-2.9-.4s-1.9.1-2.8.4c-.7.2-1.4.6-1.9 1s-.8.8-1.2 1.4c-.2.6-.4 1.2-.4 1.8 0 1.3.6 2.4 1.9 3.2 1 .6 2 1.3 3.7 1.9h-12c-.3-.1-.4-.3-.5-.6zm36.7 8.7v-5.3h-48v5.3h25.7c.5.2 1.1.4 1.4.6 1 .5 1.8 1 2.3 1.3.6.5 1 1 1.1 1.6.2.6.2 1.2.2 1.8s-.1 1.2-.4 1.8c-.2.6-.6 1-1.1 1.4s-1.1.7-1.9 1c-.7.2-1.7.4-2.8.4-1.2 0-2.2-.1-3.1-.4-1-.2-1.8-.6-2.4-1.1-.7-.5-1.2-1.2-1.6-2s-.7-2-.7-3.2h-7.8c0 1.4.2 3 .6 4.2s1 2.3 1.7 3.2c.7 1 1.6 1.8 2.6 2.4 1 .7 2 1.3 3.2 1.7 1.2.5 2.4.8 3.7 1.1 1.3.2 2.5.4 3.8.4 2.2 0 4.1-.2 5.8-.7s3.2-1.2 4.4-2.2 2.2-2 2.9-3.4c.7-1.3 1-2.9 1-4.6 0-1.6-.2-3-.8-4.3-.1-.4-.2-.6-.5-.8z" fill="#010101"/></svg>